<svg xmlns="http://www.w3.org/2000/svg" xmlns:xlink="http://www.w3.org/1999/xlink" contentStyleType="text/css" data-diagram-type="DESCRIPTION" height="688px" preserveAspectRatio="none" style="width:967px;height:688px;background:#FFFFFF;" version="1.1" viewBox="0 0 967 688" width="967px" zoomAndPan="magnify"><?plantuml 1.2026.4beta2?><defs/><g><!--cluster Cambio de turnos--><g class="cluster" data-qualified-name="Cambio de turnos" data-source-line="7" id="ent0005"><rect fill="none" height="514" rx="2.5" ry="2.5" style="stroke:#181818;stroke-width:1;" width="820.5" x="133.21" y="97.65"/><text fill="#000000" font-family="sans-serif" font-size="14" font-weight="700" lengthAdjust="spacing" textLength="139.4941" x="473.7129" y="112.6451">Cambio de turnos</text></g><!--entity UC_RequestSwap--><g class="entity" data-qualified-name="Cambio de turnos.UC_RequestSwap" data-source-line="8" id="ent0006"><ellipse cx="572.8202" cy="156.6467" fill="#F1F1F1" rx="75.6502" ry="24.0767" style="stroke:#181818;stroke-width:0.5;"/><text fill="#000000" font-family="sans-serif" font-size="14" lengthAdjust="spacing" textLength="112.3486" x="516.6459" y="156.078">Solicitar cambio</text><text fill="#000000" font-family="sans-serif" font-size="14" lengthAdjust="spacing" textLength="59.5068" x="543.0668" y="172.3748">de turno</text></g><!--entity UC_AcceptSwap--><g class="entity" data-qualified-name="Cambio de turnos.UC_AcceptSwap" data-source-line="9" id="ent0007"><ellipse cx="572.8203" cy="405.6539" fill="#F1F1F1" rx="74.4203" ry="24.1039" style="stroke:#181818;stroke-width:0.5;"/><text fill="#000000" font-family="sans-serif" font-size="14" lengthAdjust="spacing" textLength="110.3047" x="517.668" y="405.0423">Aceptar cambio</text><text fill="#000000" font-family="sans-serif" font-size="14" lengthAdjust="spacing" textLength="59.5068" x="543.0669" y="421.3392">de turno</text></g><!--entity UC_RejectSwap--><g class="entity" data-qualified-name="Cambio de turnos.UC_RejectSwap" data-source-line="10" id="ent0008"><ellipse cx="572.8222" cy="322.6484" fill="#F1F1F1" rx="80.8022" ry="23.9784" style="stroke:#181818;stroke-width:0.5;"/><text fill="#000000" font-family="sans-serif" font-size="14" lengthAdjust="spacing" textLength="120.8799" x="512.3822" y="322.2352">Rechazar cambio</text><text fill="#000000" font-family="sans-serif" font-size="14" lengthAdjust="spacing" textLength="59.5068" x="543.0687" y="338.5321">de turno</text></g><!--entity UC_CancelSwap--><g class="entity" data-qualified-name="Cambio de turnos.UC_CancelSwap" data-source-line="11" id="ent0009"><ellipse cx="572.817" cy="239.6535" fill="#F1F1F1" rx="84.267" ry="24.2435" style="stroke:#181818;stroke-width:0.5;"/><text fill="#000000" font-family="sans-serif" font-size="14" lengthAdjust="spacing" textLength="124.6875" x="510.4732" y="238.8233">Cancelar solicitud</text><text fill="#000000" font-family="sans-serif" font-size="14" lengthAdjust="spacing" textLength="73.2061" x="536.2139" y="255.1202">de cambio</text></g><!--entity UC_ApproveSwap--><g class="entity" data-qualified-name="Cambio de turnos.UC_ApproveSwap" data-source-line="13" id="ent0010"><ellipse cx="572.8174" cy="488.645" fill="#F1F1F1" rx="75.2674" ry="24.085" style="stroke:#181818;stroke-width:0.5;"/><text fill="#000000" font-family="sans-serif" font-size="14" lengthAdjust="spacing" textLength="111.7129" x="516.961" y="488.0632">Aprobar cambio</text><text fill="#000000" font-family="sans-serif" font-size="14" lengthAdjust="spacing" textLength="59.5068" x="543.064" y="504.3601">de turno</text></g><!--entity UC_RejectSwapRequest--><g class="entity" data-qualified-name="Cambio de turnos.UC_RejectSwapRequest" data-source-line="14" id="ent0011"><ellipse cx="572.8245" cy="571.6462" fill="#F1F1F1" rx="86.3045" ry="24.1962" style="stroke:#181818;stroke-width:0.5;"/><text fill="#000000" font-family="sans-serif" font-size="14" lengthAdjust="spacing" textLength="128.0986" x="508.7751" y="570.8898">Rechazar solicitud</text><text fill="#000000" font-family="sans-serif" font-size="14" lengthAdjust="spacing" textLength="73.2061" x="536.2214" y="587.1867">de cambio</text></g><!--entity UC_ListSwapRequests--><g class="entity" data-qualified-name="Cambio de turnos.UC_ListSwapRequests" data-source-line="15" id="ent0012"><ellipse cx="256.3562" cy="435.6451" fill="#F1F1F1" rx="80.0762" ry="24.3551" style="stroke:#181818;stroke-width:0.5;"/><text fill="#000000" font-family="sans-serif" font-size="14" lengthAdjust="spacing" textLength="117.6396" x="197.5364" y="434.6416">Listar solicitudes</text><text fill="#000000" font-family="sans-serif" font-size="14" lengthAdjust="spacing" textLength="73.2061" x="219.7532" y="450.9384">de cambio</text></g><!--entity UC_GetSwapRequest--><g class="entity" data-qualified-name="Cambio de turnos.UC_GetSwapRequest" data-source-line="16" id="ent0013"><ellipse cx="256.3611" cy="519.6525" fill="#F1F1F1" rx="81.5811" ry="24.3125" style="stroke:#181818;stroke-width:0.5;"/><text fill="#000000" font-family="sans-serif" font-size="14" lengthAdjust="spacing" textLength="120.1758" x="196.2732" y="518.7149">Obtener solicitud</text><text fill="#000000" font-family="sans-serif" font-size="14" lengthAdjust="spacing" textLength="73.2061" x="219.758" y="535.0118">de cambio</text></g><!--entity UC_ValidateSwap--><g class="entity" data-qualified-name="Cambio de turnos.UC_ValidateSwap" data-source-line="18" id="ent0014"><ellipse cx="860.9224" cy="390.649" fill="#F1F1F1" rx="76.7924" ry="24.459" style="stroke:#181818;stroke-width:0.5;"/><text fill="#000000" font-family="sans-serif" font-size="14" lengthAdjust="spacing" textLength="112.082" x="804.8814" y="389.4852">Validar solicitud</text><text fill="#000000" font-family="sans-serif" font-size="14" lengthAdjust="spacing" textLength="73.2061" x="824.3194" y="405.7821">de cambio</text></g><!--entity UC_SwapAssignments--><g class="entity" data-qualified-name="Cambio de turnos.UC_SwapAssignments" data-source-line="19" id="ent0015"><ellipse cx="860.9195" cy="504.6451" fill="#F1F1F1" rx="67.1695" ry="25.9751" style="stroke:#181818;stroke-width:0.5;"/><text fill="#000000" font-family="sans-serif" font-size="14" lengthAdjust="spacing" textLength="89.8857" x="815.9766" y="501.043">Intercambiar</text><text fill="#000000" font-family="sans-serif" font-size="14" lengthAdjust="spacing" textLength="91.0342" x="815.4024" y="517.3399">asignaciones</text></g><!--entity UC_Notify--><g class="entity" data-qualified-name="Cambio de turnos.UC_Notify" data-source-line="20" id="ent0016"><ellipse cx="256.3639" cy="352.6508" fill="#F1F1F1" rx="107.1539" ry="23.8308" style="stroke:#181818;stroke-width:0.5;"/><text fill="#000000" font-family="sans-serif" font-size="14" lengthAdjust="spacing" textLength="163.3516" x="174.6881" y="352.5216">Notificar colaboradores</text><text fill="#000000" font-family="sans-serif" font-size="14" lengthAdjust="spacing" textLength="68.6328" x="222.0475" y="368.8184">afectados</text></g><!--entity Employee--><g class="entity" data-qualified-name="Employee" data-source-line="3" id="ent0002"><ellipse cx="256.3623" cy="14" fill="#F1F1F1" rx="8" ry="8" style="stroke:#181818;stroke-width:0.5;"/><path d="M256.3623,22 L256.3623,49 M243.3623,30 L269.3623,30 M256.3623,49 L243.3623,64 M256.3623,49 L269.3623,64" fill="none" style="stroke:#181818;stroke-width:0.5;"/><text fill="#000000" font-family="sans-serif" font-size="14" lengthAdjust="spacing" textLength="85.8047" x="213.46" y="78.4951">Colaborador</text></g><!--entity Manager--><g class="entity" data-qualified-name="Manager" data-source-line="4" id="ent0003"><ellipse cx="46.103" cy="256.85" fill="#F1F1F1" rx="8" ry="8" style="stroke:#181818;stroke-width:0.5;"/><path d="M46.103,264.85 L46.103,291.85 M33.103,272.85 L59.103,272.85 M46.103,291.85 L33.103,306.85 M46.103,291.85 L59.103,306.85" fill="none" style="stroke:#181818;stroke-width:0.5;"/><text fill="#000000" font-family="sans-serif" font-size="14" lengthAdjust="spacing" textLength="56.8066" x="6" y="321.3451">Gerente</text><text fill="#000000" font-family="sans-serif" font-size="14" lengthAdjust="spacing" textLength="80.2061" x="6" y="337.642">de sucursal</text></g><!--entity Supervisor--><g class="entity" data-qualified-name="Supervisor" data-source-line="5" id="ent0004"><ellipse cx="46.1028" cy="537" fill="#F1F1F1" rx="8" ry="8" style="stroke:#181818;stroke-width:0.5;"/><path d="M46.1028,545 L46.1028,572 M33.1028,553 L59.1028,553 M46.1028,572 L33.1028,587 M46.1028,572 L59.1028,587" fill="none" style="stroke:#181818;stroke-width:0.5;"/><text fill="#000000" font-family="sans-serif" font-size="14" lengthAdjust="spacing" textLength="74.8057" x="8.7" y="601.4951">Supervisor</text></g><!--link Employee to UC_RequestSwap--><g class="link" data-entity-1="ent0002" data-entity-2="ent0006" data-link-type="dependency" data-source-line="23" id="lnk17"><path d="M299.75,29.9 C341.48,18.84 406.1,8.45 456.51,30.65 C503.73,51.45 536.9197,97.0491 555.3297,127.4191" fill="none" id="Employee-to-UC_RequestSwap" style="stroke:#181818;stroke-width:1;"/><polygon fill="#181818" points="558.44,132.55,557.1951,122.7801,555.8481,128.2743,550.354,126.9272,558.44,132.55" style="stroke:#181818;stroke-width:1;"/></g><!--link Employee to UC_AcceptSwap--><g class="link" data-entity-1="ent0002" data-entity-2="ent0007" data-link-type="dependency" data-source-line="24" id="lnk18"><path d="M299.72,64.5 C355.18,92.19 446.59,139.27 456.51,153.65 C510.06,231.25 431.15,287.34 486.51,363.65 C494.46,374.61 500.7203,380.1332 512.8303,386.2832" fill="none" id="Employee-to-UC_AcceptSwap" style="stroke:#181818;stroke-width:1;"/><polygon fill="#181818" points="518.18,389,511.9667,381.3583,513.7219,386.736,508.3443,388.4912,518.18,389" style="stroke:#181818;stroke-width:1;"/></g><!--link Employee to UC_RejectSwap--><g class="link" data-entity-1="ent0002" data-entity-2="ent0008" data-link-type="dependency" data-source-line="25" id="lnk19"><path d="M299.69,46.15 C345.48,51.24 417.2,66.59 456.51,112.65 C506.04,170.68 440.39,220.89 486.51,281.65 C494.16,291.73 499.6065,296.6823 510.9165,302.5623" fill="none" id="Employee-to-UC_RejectSwap" style="stroke:#181818;stroke-width:1;"/><polygon fill="#181818" points="516.24,305.33,510.0998,297.6295,511.8037,303.0236,506.4096,304.7275,516.24,305.33" style="stroke:#181818;stroke-width:1;"/></g><!--link Employee to UC_CancelSwap--><g class="link" data-entity-1="ent0002" data-entity-2="ent0009" data-link-type="dependency" data-source-line="26" id="lnk20"><path d="M299.64,36.95 C344.37,32.43 414.2,33.07 456.51,71.65 C499.37,110.73 450.16,153.46 486.51,198.65 C494.24,208.25 499.4515,212.9535 510.4615,218.7535" fill="none" id="Employee-to-UC_CancelSwap" style="stroke:#181818;stroke-width:1;"/><polygon fill="#181818" points="515.77,221.55,509.6716,213.8163,511.3463,219.2196,505.943,220.8943,515.77,221.55" style="stroke:#181818;stroke-width:1;"/></g><!--link Manager to UC_ApproveSwap--><g class="link" data-entity-1="ent0003" data-entity-2="ent0010" data-link-type="dependency" data-source-line="28" id="lnk21"><path d="M78.68,248.18 C89.17,236.24 101.89,224.76 116.21,217.65 C251.97,150.21 343.19,93.97 456.51,194.65 C498.84,232.25 453.6,401.59 486.51,447.65 C494.16,458.35 499.9971,463.6495 511.7871,469.6195" fill="none" id="Manager-to-UC_ApproveSwap" style="stroke:#181818;stroke-width:1;"/><polygon fill="#181818" points="517.14,472.33,510.9177,464.6957,512.6793,470.0713,507.3037,471.8329,517.14,472.33" style="stroke:#181818;stroke-width:1;"/></g><!--link Manager to UC_RejectSwapRequest--><g class="link" data-entity-1="ent0003" data-entity-2="ent0011" data-link-type="dependency" data-source-line="29" id="lnk22"><path d="M86.48,285.54 C183.7,263.53 429.24,211.01 456.51,235.65 C505.41,279.83 448.65,476.72 486.51,530.65 C493.41,540.47 498.0288,545.1538 508.6588,550.9338" fill="none" id="Manager-to-UC_RejectSwapRequest" style="stroke:#181818;stroke-width:1;"/><polygon fill="#181818" points="513.93,553.8,507.934,545.9867,509.5374,551.4115,504.1125,553.0149,513.93,553.8" style="stroke:#181818;stroke-width:1;"/></g><!--link Manager to UC_ListSwapRequests--><g class="link" data-entity-1="ent0003" data-entity-2="ent0012" data-link-type="dependency" data-source-line="30" id="lnk23"><path d="M75.22,341.36 C88.39,359.88 105.52,379.97 125.21,393.65 C144.02,406.73 161.387,414.2163 182.897,420.5863" fill="none" id="Manager-to-UC_ListSwapRequests" style="stroke:#181818;stroke-width:1;"/><polygon fill="#181818" points="188.65,422.29,181.1563,415.8991,183.8558,420.8702,178.8846,423.5698,188.65,422.29" style="stroke:#181818;stroke-width:1;"/></g><!--link Manager to UC_GetSwapRequest--><g class="link" data-entity-1="ent0003" data-entity-2="ent0013" data-link-type="dependency" data-source-line="31" id="lnk24"><path d="M55.61,341.18 C65.5,382.47 85.79,441.67 125.21,477.65 C141.43,492.46 157.1699,500.3365 178.0099,506.5465" fill="none" id="Manager-to-UC_GetSwapRequest" style="stroke:#181818;stroke-width:1;"/><polygon fill="#181818" points="183.76,508.26,176.2771,501.8564,178.9682,506.8321,173.9925,509.5232,183.76,508.26" style="stroke:#181818;stroke-width:1;"/></g><!--link Supervisor to UC_ApproveSwap--><g class="link" data-entity-1="ent0004" data-entity-2="ent0010" data-link-type="dependency" data-source-line="33" id="lnk25"><path d="M83.85,568.87 C143.05,571.82 263.06,575.21 363.51,561.65 C405.82,555.94 416.09,551.37 456.51,537.65 C481.02,529.33 502.1799,520.603 523.6699,511.023" fill="none" id="Supervisor-to-UC_ApproveSwap" style="stroke:#181818;stroke-width:1;"/><polygon fill="#181818" points="529.15,508.58,519.3011,508.5911,524.5832,510.6158,522.5585,515.8979,529.15,508.58" style="stroke:#181818;stroke-width:1;"/></g><!--link Supervisor to UC_RejectSwapRequest--><g class="link" data-entity-1="ent0004" data-entity-2="ent0011" data-link-type="dependency" data-source-line="34" id="lnk26"><path d="M83.67,603.81 C93.45,611.51 104.56,618.53 116.21,622.65 C258.77,673.16 308.53,653.92 456.51,622.65 C483.28,617 506.0547,607.4254 527.8247,596.3254" fill="none" id="Supervisor-to-UC_RejectSwapRequest" style="stroke:#181818;stroke-width:1;"/><polygon fill="#181818" points="533.17,593.6,523.3351,594.1246,528.7156,595.8712,526.969,601.2517,533.17,593.6" style="stroke:#181818;stroke-width:1;"/></g><!--link Supervisor to UC_ListSwapRequests--><g class="link" data-entity-1="ent0004" data-entity-2="ent0012" data-link-type="dependency" data-source-line="35" id="lnk27"><path d="M73.4,528.11 C87.06,510.58 105.1,490.86 125.21,477.65 C144.55,464.94 162.2872,457.5243 183.9572,451.1043" fill="none" id="Supervisor-to-UC_ListSwapRequests" style="stroke:#181818;stroke-width:1;"/><polygon fill="#181818" points="189.71,449.4,179.9445,448.1213,184.916,450.8203,182.217,455.7918,189.71,449.4" style="stroke:#181818;stroke-width:1;"/></g><!--link Supervisor to UC_GetSwapRequest--><g class="link" data-entity-1="ent0004" data-entity-2="ent0013" data-link-type="dependency" data-source-line="36" id="lnk28"><path d="M83.86,558.36 C113.28,551.72 149.4374,543.5617 184.5074,535.6417" fill="none" id="Supervisor-to-UC_GetSwapRequest" style="stroke:#181818;stroke-width:1;"/><polygon fill="#181818" points="190.36,534.32,180.6999,532.4008,185.4828,535.4214,182.4622,540.2043,190.36,534.32" style="stroke:#181818;stroke-width:1;"/></g><!--link UC_RequestSwap to UC_ValidateSwap--><g class="link" data-entity-1="ent0006" data-entity-2="ent0014" data-link-type="dependency" data-source-line="38" id="lnk29"><path d="M620.47,175.79 C633.45,181.98 647.24,189.41 659.12,197.65 C733,248.94 801.5783,323.0564 835.7183,362.2364" fill="none" id="UC_RequestSwap-to-UC_ValidateSwap" style="stroke:#181818;stroke-width:1;stroke-dasharray:7,7;"/><polygon fill="#181818" points="839.66,366.76,836.7632,357.3468,836.3752,362.9903,830.7317,362.6024,839.66,366.76" style="stroke:#181818;stroke-width:1;"/><text fill="#000000" font-family="sans-serif" font-size="13" lengthAdjust="spacing" textLength="63.0068" x="690.12" y="216.7169">&#171;include&#187;</text></g><!--link UC_AcceptSwap to UC_ValidateSwap--><g class="link" data-entity-1="ent0007" data-entity-2="ent0014" data-link-type="dependency" data-source-line="39" id="lnk30"><path d="M646.75,401.83 C688.97,399.61 736.0182,397.1436 778.6282,394.9136" fill="none" id="UC_AcceptSwap-to-UC_ValidateSwap" style="stroke:#181818;stroke-width:1;stroke-dasharray:7,7;"/><polygon fill="#181818" points="784.62,394.6,775.4232,391.0758,779.6268,394.8613,775.8414,399.0649,784.62,394.6" style="stroke:#181818;stroke-width:1;"/><text fill="#000000" font-family="sans-serif" font-size="13" lengthAdjust="spacing" textLength="63.0068" x="690.12" y="391.7169">&#171;include&#187;</text></g><!--link UC_ApproveSwap to UC_ValidateSwap--><g class="link" data-entity-1="ent0010" data-entity-2="ent0014" data-link-type="dependency" data-source-line="40" id="lnk31"><path d="M625.3,471.02 C676.78,453.38 749.8839,428.3446 801.7239,410.5846" fill="none" id="UC_ApproveSwap-to-UC_ValidateSwap" style="stroke:#181818;stroke-width:1;stroke-dasharray:7,7;"/><polygon fill="#181818" points="807.4,408.64,797.5894,407.7728,802.6699,410.2605,800.1822,415.341,807.4,408.64" style="stroke:#181818;stroke-width:1;"/><text fill="#000000" font-family="sans-serif" font-size="13" lengthAdjust="spacing" textLength="63.0068" x="690.12" y="423.7169">&#171;include&#187;</text></g><!--link UC_ApproveSwap to UC_SwapAssignments--><g class="link" data-entity-1="ent0010" data-entity-2="ent0015" data-link-type="dependency" data-source-line="41" id="lnk32"><path d="M637.93,501.12 C654.54,503.83 672.44,506.29 689.12,507.65 C717.92,510.01 725.24,508.06 754.12,507.65 C766.89,507.47 774.5221,507.3304 787.6121,506.9804" fill="none" id="UC_ApproveSwap-to-UC_SwapAssignments" style="stroke:#181818;stroke-width:1;stroke-dasharray:7,7;"/><polygon fill="#181818" points="793.61,506.82,784.5063,503.062,788.6118,506.9536,784.7201,511.0591,793.61,506.82" style="stroke:#181818;stroke-width:1;"/><text fill="#000000" font-family="sans-serif" font-size="13" lengthAdjust="spacing" textLength="63.0068" x="690.12" y="503.7169">&#171;include&#187;</text></g><!--link UC_Notify to UC_RequestSwap--><g class="link" data-entity-1="ent0016" data-entity-2="ent0006" data-link-type="dependency" data-source-line="43" id="lnk33"><path d="M288.3,329.58 C331.47,297.88 412.8,239.99 486.51,197.65 C499.62,190.12 508.9129,185.2898 522.3729,178.8798" fill="none" id="UC_Notify-to-UC_RequestSwap" style="stroke:#181818;stroke-width:1;stroke-dasharray:7,7;"/><polygon fill="#181818" points="527.79,176.3,517.9445,176.5582,523.2758,178.4498,521.3842,183.781,527.79,176.3" style="stroke:#181818;stroke-width:1;"/><text fill="#000000" font-family="sans-serif" font-size="13" lengthAdjust="spacing" textLength="61.1851" x="394.51" y="213.7169">&#171;extend&#187;</text></g><!--link UC_Notify to UC_AcceptSwap--><g class="link" data-entity-1="ent0016" data-entity-2="ent0007" data-link-type="dependency" data-source-line="44" id="lnk34"><path d="M307.46,373.97 C332.78,383.7 364.25,394.24 393.51,399.65 C427.62,405.96 460.0201,407.8667 492.4201,408.0467" fill="none" id="UC_Notify-to-UC_AcceptSwap" style="stroke:#181818;stroke-width:1;stroke-dasharray:7,7;"/><polygon fill="#181818" points="498.42,408.08,489.4424,404.0301,493.4201,408.0522,489.3979,412.0299,498.42,408.08" style="stroke:#181818;stroke-width:1;"/><text fill="#000000" font-family="sans-serif" font-size="13" lengthAdjust="spacing" textLength="61.1851" x="394.51" y="395.7169">&#171;extend&#187;</text></g><!--link UC_Notify to UC_RejectSwap--><g class="link" data-entity-1="ent0016" data-entity-2="ent0008" data-link-type="dependency" data-source-line="45" id="lnk35"><path d="M333.09,369.63 C370.51,375.45 416.17,378.71 456.51,370.65 C482.77,365.4 505.1145,356.633 526.8145,346.283" fill="none" id="UC_Notify-to-UC_RejectSwap" style="stroke:#181818;stroke-width:1;stroke-dasharray:7,7;"/><polygon fill="#181818" points="532.23,343.7,522.3847,343.9641,527.717,345.8525,525.8287,351.1849,532.23,343.7" style="stroke:#181818;stroke-width:1;"/><text fill="#000000" font-family="sans-serif" font-size="13" lengthAdjust="spacing" textLength="61.1851" x="394.51" y="366.7169">&#171;extend&#187;</text></g><!--link UC_Notify to UC_CancelSwap--><g class="link" data-entity-1="ent0016" data-entity-2="ent0009" data-link-type="dependency" data-source-line="46" id="lnk36"><path d="M358.57,345.23 C391.33,339.66 426.84,330.07 456.51,313.65 C473.57,304.21 470.85,293.26 486.51,281.65 C497.79,273.3 505.5973,268.5107 518.1873,262.3107" fill="none" id="UC_Notify-to-UC_CancelSwap" style="stroke:#181818;stroke-width:1;stroke-dasharray:7,7;"/><polygon fill="#181818" points="523.57,259.66,513.7288,260.0476,519.0844,261.8689,517.2631,267.2246,523.57,259.66" style="stroke:#181818;stroke-width:1;"/><text fill="#000000" font-family="sans-serif" font-size="13" lengthAdjust="spacing" textLength="61.1851" x="394.51" y="309.7169">&#171;extend&#187;</text></g><!--link UC_Notify to UC_ApproveSwap--><g class="link" data-entity-1="ent0016" data-entity-2="ent0010" data-link-type="dependency" data-source-line="47" id="lnk37"><path d="M322.72,371.74 C336.9,377.52 351.29,384.76 363.51,393.65 C380.63,406.11 376.06,418.66 393.51,430.65 C427.32,453.88 465.2088,466.8767 500.8988,475.5267" fill="none" id="UC_Notify-to-UC_ApproveSwap" style="stroke:#181818;stroke-width:1;stroke-dasharray:7,7;"/><polygon fill="#181818" points="506.73,476.94,498.9254,470.9326,501.8707,475.7623,497.041,478.7075,506.73,476.94" style="stroke:#181818;stroke-width:1;"/><text fill="#000000" font-family="sans-serif" font-size="13" lengthAdjust="spacing" textLength="61.1851" x="394.51" y="426.7169">&#171;extend&#187;</text></g><!--link UC_Notify to UC_RejectSwapRequest--><g class="link" data-entity-1="ent0016" data-entity-2="ent0011" data-link-type="dependency" data-source-line="48" id="lnk38"><path d="M329.22,370.39 C341.9,376.13 354.05,383.7 363.51,393.65 C392.86,424.51 365.6,452.49 393.51,484.65 C423.77,519.5 465.5386,539.7515 503.8786,552.9915" fill="none" id="UC_Notify-to-UC_RejectSwapRequest" style="stroke:#181818;stroke-width:1;stroke-dasharray:7,7;"/><polygon fill="#181818" points="509.55,554.95,502.3486,548.2314,504.8239,553.3179,499.7373,555.7932,509.55,554.95" style="stroke:#181818;stroke-width:1;"/><text fill="#000000" font-family="sans-serif" font-size="13" lengthAdjust="spacing" textLength="61.1851" x="394.51" y="480.7169">&#171;extend&#187;</text></g><?plantuml-src dPFTQWCX48NlVGh9VVi09GH2AANG7sXehmfbuaus5gDRTTC_-kvLDxlhQhe9lPJvpimPFGfSMseLrRpSM5fmZSno9Ga1PfMcauKIi58Q2gKd50ozt5P2VIAszIlKA2q-omAfgLcj3OW0teA44dNBBUiAzOwRVPl-I8WV2R8KwAR1TiKLTRrihQKo4_fDAAqDCZ2kl5I2Csv1KnR0C3MGeUdZukK1tseqTlaELIoSCwp6P7FcWLJrW6m3NwFJNfttLBO0oL0ucMdiraLGDarQQGC5wS1efTLgp6ZbW1t-wNHiPEzsVqjnXnjkRAn7Sw23XoAzYHlShonA77TmXOFniVm912-EBD0mDjl-sWLG1nJqimJ3ImdCXHXDg_IAkV65hKlhmFUTidpDcR_pFkf-UrZxN1QgQnB8J_93IFi9wDdPB4rTMekYbSkw-AIbE1xxdzGrZ2AGbF8NJe3i0PDw-a3zDpqqFQ_c1d8cyv0ZgOtX5TFpyraQ1tf1frCkcN39dSt8uDvFvFl5_Yr8OfPeI9UXbe-NyYn-k3zKDEs7PBJDEDY_m16mJzYnqT6UfyxUBpRWVm40?></g></svg>