<svg xmlns="http://www.w3.org/2000/svg" xmlns:xlink="http://www.w3.org/1999/xlink" contentStyleType="text/css" data-diagram-type="CLASS" height="537px" preserveAspectRatio="none" style="width:1004px;height:537px;background:#FFFFFF;" version="1.1" viewBox="0 0 1004 537" width="1004px" zoomAndPan="magnify"><?plantuml 1.2026.5?><defs/><g><!--cluster contracts DTOs--><g class="cluster" data-qualified-name="contracts DTOs" data-source-line="3" id="ent0001"><path d="M8.5,6 L130.0313,6 A3.75,3.75 0 0 1 132.5313,8.5 L139.5313,28.2969 L986.5,28.2969 A2.5,2.5 0 0 1 989,30.7969 L989,520.14 A2.5,2.5 0 0 1 986.5,522.64 L8.5,522.64 A2.5,2.5 0 0 1 6,520.14 L6,8.5 A2.5,2.5 0 0 1 8.5,6" fill="none" style="stroke:#000000;stroke-width:1.5;"/><line style="stroke:#000000;stroke-width:1.5;" x1="6" x2="139.5313" y1="28.2969" y2="28.2969"/><text fill="#000000" font-family="sans-serif" font-size="14" font-weight="700" lengthAdjust="spacing" textLength="120.5313" x="10" y="20.9951">contracts DTOs</text></g><!--class CreateEmploymentContractRequest--><g class="entity" data-qualified-name="contracts DTOs.CreateEmploymentContractRequest" data-source-line="5" id="ent0002"><rect fill="#F1F1F1" height="145.7813" rx="2.5" ry="2.5" style="stroke:#181818;stroke-width:0.5;" width="285.2715" x="22.36" y="41"/><ellipse cx="37.36" cy="57" fill="#ADD1B2" rx="11" ry="11" style="stroke:#181818;stroke-width:1;"/><path d="M40.3288,62.6406 Q39.7506,62.9375 39.11,63.0781 Q38.4694,63.2344 37.7663,63.2344 Q35.2663,63.2344 33.9381,61.5938 Q32.6256,59.9375 32.6256,56.8125 Q32.6256,53.6875 33.9381,52.0313 Q35.2663,50.375 37.7663,50.375 Q38.4694,50.375 39.11,50.5313 Q39.7663,50.6875 40.3288,50.9844 L40.3288,53.7031 Q39.7038,53.125 39.11,52.8594 Q38.5163,52.5781 37.8913,52.5781 Q36.5475,52.5781 35.86,53.6563 Q35.1725,54.7188 35.1725,56.8125 Q35.1725,58.9063 35.86,59.9844 Q36.5475,61.0469 37.8913,61.0469 Q38.5163,61.0469 39.11,60.7813 Q39.7038,60.5 40.3288,59.9219 L40.3288,62.6406 Z " fill="#000000"/><text fill="#000000" font-family="sans-serif" font-size="14" lengthAdjust="spacing" textLength="253.2715" x="51.36" y="61.8467">CreateEmploymentContractRequest</text><line style="stroke:#181818;stroke-width:0.5;" x1="23.36" x2="306.6315" y1="73" y2="73"/><text fill="#000000" font-family="sans-serif" font-size="14" lengthAdjust="spacing" textLength="148.8184" x="28.36" y="89.9951">+UUID collaboratorId</text><text fill="#000000" font-family="sans-serif" font-size="14" lengthAdjust="spacing" textLength="4.4502" x="28.36" y="106.292">&#160;</text><text fill="#000000" font-family="sans-serif" font-size="14" lengthAdjust="spacing" textLength="112.6016" x="28.36" y="122.5889">+String number</text><text fill="#000000" font-family="sans-serif" font-size="14" lengthAdjust="spacing" textLength="4.4502" x="28.36" y="138.8857">&#160;</text><text fill="#000000" font-family="sans-serif" font-size="14" lengthAdjust="spacing" textLength="147.7793" x="28.36" y="155.1826">+DateOnly startDate</text><text fill="#000000" font-family="sans-serif" font-size="14" lengthAdjust="spacing" textLength="148.9756" x="28.36" y="171.4795">+DateOnly? endDate</text><line style="stroke:#181818;stroke-width:0.5;" x1="23.36" x2="306.6315" y1="178.7813" y2="178.7813"/></g><!--class RenewEmploymentContractRequest--><g class="entity" data-qualified-name="contracts DTOs.RenewEmploymentContractRequest" data-source-line="14" id="ent0003"><rect fill="#F1F1F1" height="145.7813" rx="2.5" ry="2.5" style="stroke:#181818;stroke-width:0.5;" width="285.7227" x="342.14" y="41"/><ellipse cx="357.14" cy="57" fill="#ADD1B2" rx="11" ry="11" style="stroke:#181818;stroke-width:1;"/><path d="M360.1088,62.6406 Q359.5306,62.9375 358.89,63.0781 Q358.2494,63.2344 357.5463,63.2344 Q355.0463,63.2344 353.7181,61.5938 Q352.4056,59.9375 352.4056,56.8125 Q352.4056,53.6875 353.7181,52.0313 Q355.0463,50.375 357.5463,50.375 Q358.2494,50.375 358.89,50.5313 Q359.5463,50.6875 360.1088,50.9844 L360.1088,53.7031 Q359.4838,53.125 358.89,52.8594 Q358.2963,52.5781 357.6713,52.5781 Q356.3275,52.5781 355.64,53.6563 Q354.9525,54.7188 354.9525,56.8125 Q354.9525,58.9063 355.64,59.9844 Q356.3275,61.0469 357.6713,61.0469 Q358.2963,61.0469 358.89,60.7813 Q359.4838,60.5 360.1088,59.9219 L360.1088,62.6406 Z " fill="#000000"/><text fill="#000000" font-family="sans-serif" font-size="14" lengthAdjust="spacing" textLength="253.7227" x="371.14" y="61.8467">RenewEmploymentContractRequest</text><line style="stroke:#181818;stroke-width:0.5;" x1="343.14" x2="626.8627" y1="73" y2="73"/><text fill="#000000" font-family="sans-serif" font-size="14" lengthAdjust="spacing" textLength="122.7461" x="348.14" y="89.9951">+UUID contractId</text><text fill="#000000" font-family="sans-serif" font-size="14" lengthAdjust="spacing" textLength="4.4502" x="348.14" y="106.292">&#160;</text><text fill="#000000" font-family="sans-serif" font-size="14" lengthAdjust="spacing" textLength="112.6016" x="348.14" y="122.5889">+String number</text><text fill="#000000" font-family="sans-serif" font-size="14" lengthAdjust="spacing" textLength="4.4502" x="348.14" y="138.8857">&#160;</text><text fill="#000000" font-family="sans-serif" font-size="14" lengthAdjust="spacing" textLength="147.7793" x="348.14" y="155.1826">+DateOnly startDate</text><text fill="#000000" font-family="sans-serif" font-size="14" lengthAdjust="spacing" textLength="148.9756" x="348.14" y="171.4795">+DateOnly? endDate</text><line style="stroke:#181818;stroke-width:0.5;" x1="343.14" x2="626.8627" y1="178.7813" y2="178.7813"/></g><!--class TerminateEmploymentContractRequest--><g class="entity" data-qualified-name="contracts DTOs.TerminateEmploymentContractRequest" data-source-line="23" id="ent0004"><rect fill="#F1F1F1" height="80.5938" rx="2.5" ry="2.5" style="stroke:#181818;stroke-width:0.5;" width="310.4482" x="662.78" y="73.59"/><ellipse cx="677.78" cy="89.59" fill="#ADD1B2" rx="11" ry="11" style="stroke:#181818;stroke-width:1;"/><path d="M680.7488,95.2306 Q680.1706,95.5275 679.53,95.6681 Q678.8894,95.8244 678.1863,95.8244 Q675.6863,95.8244 674.3581,94.1837 Q673.0456,92.5275 673.0456,89.4025 Q673.0456,86.2775 674.3581,84.6212 Q675.6863,82.965 678.1863,82.965 Q678.8894,82.965 679.53,83.1212 Q680.1863,83.2775 680.7488,83.5744 L680.7488,86.2931 Q680.1238,85.715 679.53,85.4494 Q678.9363,85.1681 678.3113,85.1681 Q676.9675,85.1681 676.28,86.2462 Q675.5925,87.3087 675.5925,89.4025 Q675.5925,91.4962 676.28,92.5744 Q676.9675,93.6369 678.3113,93.6369 Q678.9363,93.6369 679.53,93.3712 Q680.1238,93.09 680.7488,92.5119 L680.7488,95.2306 Z " fill="#000000"/><text fill="#000000" font-family="sans-serif" font-size="14" lengthAdjust="spacing" textLength="278.4482" x="691.78" y="94.4367">TerminateEmploymentContractRequest</text><line style="stroke:#181818;stroke-width:0.5;" x1="663.78" x2="972.2282" y1="105.59" y2="105.59"/><text fill="#000000" font-family="sans-serif" font-size="14" lengthAdjust="spacing" textLength="122.7461" x="668.78" y="122.5851">+UUID contractId</text><text fill="#000000" font-family="sans-serif" font-size="14" lengthAdjust="spacing" textLength="105.6426" x="668.78" y="138.882">+String reason</text><line style="stroke:#181818;stroke-width:0.5;" x1="663.78" x2="972.2282" y1="146.1837" y2="146.1837"/></g><!--class EmploymentContractResponse--><g class="entity" data-qualified-name="contracts DTOs.EmploymentContractResponse" data-source-line="28" id="ent0005"><rect fill="#F1F1F1" height="259.8594" rx="2.5" ry="2.5" style="stroke:#181818;stroke-width:0.5;" width="248.8154" x="40.59" y="246.78"/><ellipse cx="55.59" cy="262.78" fill="#ADD1B2" rx="11" ry="11" style="stroke:#181818;stroke-width:1;"/><path d="M58.5588,268.4206 Q57.9806,268.7175 57.34,268.8581 Q56.6994,269.0144 55.9963,269.0144 Q53.4963,269.0144 52.1681,267.3738 Q50.8556,265.7175 50.8556,262.5925 Q50.8556,259.4675 52.1681,257.8113 Q53.4963,256.155 55.9963,256.155 Q56.6994,256.155 57.34,256.3113 Q57.9963,256.4675 58.5588,256.7644 L58.5588,259.4831 Q57.9338,258.905 57.34,258.6394 Q56.7463,258.3581 56.1213,258.3581 Q54.7775,258.3581 54.09,259.4363 Q53.4025,260.4988 53.4025,262.5925 Q53.4025,264.6863 54.09,265.7644 Q54.7775,266.8269 56.1213,266.8269 Q56.7463,266.8269 57.34,266.5613 Q57.9338,266.28 58.5588,265.7019 L58.5588,268.4206 Z " fill="#000000"/><text fill="#000000" font-family="sans-serif" font-size="14" lengthAdjust="spacing" textLength="216.8154" x="69.59" y="267.6267">EmploymentContractResponse</text><line style="stroke:#181818;stroke-width:0.5;" x1="41.59" x2="288.4054" y1="278.78" y2="278.78"/><text fill="#000000" font-family="sans-serif" font-size="14" lengthAdjust="spacing" textLength="64.3604" x="46.59" y="295.7751">+UUID id</text><text fill="#000000" font-family="sans-serif" font-size="14" lengthAdjust="spacing" textLength="4.4502" x="46.59" y="312.072">&#160;</text><text fill="#000000" font-family="sans-serif" font-size="14" lengthAdjust="spacing" textLength="148.8184" x="46.59" y="328.3689">+UUID collaboratorId</text><text fill="#000000" font-family="sans-serif" font-size="14" lengthAdjust="spacing" textLength="183.4834" x="46.59" y="344.6657">+String collaboratorName</text><text fill="#000000" font-family="sans-serif" font-size="14" lengthAdjust="spacing" textLength="4.4502" x="46.59" y="360.9626">&#160;</text><text fill="#000000" font-family="sans-serif" font-size="14" lengthAdjust="spacing" textLength="112.6016" x="46.59" y="377.2595">+String number</text><text fill="#000000" font-family="sans-serif" font-size="14" lengthAdjust="spacing" textLength="4.4502" x="46.59" y="393.5564">&#160;</text><text fill="#000000" font-family="sans-serif" font-size="14" lengthAdjust="spacing" textLength="147.7793" x="46.59" y="409.8532">+DateOnly startDate</text><text fill="#000000" font-family="sans-serif" font-size="14" lengthAdjust="spacing" textLength="148.9756" x="46.59" y="426.1501">+DateOnly? endDate</text><text fill="#000000" font-family="sans-serif" font-size="14" lengthAdjust="spacing" textLength="4.4502" x="46.59" y="442.447">&#160;</text><text fill="#000000" font-family="sans-serif" font-size="14" lengthAdjust="spacing" textLength="100.9805" x="46.59" y="458.7439">+String status</text><text fill="#000000" font-family="sans-serif" font-size="14" lengthAdjust="spacing" textLength="4.4502" x="46.59" y="475.0407">&#160;</text><text fill="#000000" font-family="sans-serif" font-size="14" lengthAdjust="spacing" textLength="153.0361" x="46.59" y="491.3376">+DateTime createdAt</text><line style="stroke:#181818;stroke-width:0.5;" x1="41.59" x2="288.4054" y1="498.6394" y2="498.6394"/></g><!--class DownloadContractPdfResponse--><g class="entity" data-qualified-name="contracts DTOs.DownloadContractPdfResponse" data-source-line="44" id="ent0006"><rect fill="#F1F1F1" height="96.8906" rx="2.5" ry="2.5" style="stroke:#181818;stroke-width:0.5;" width="251.9395" x="324.03" y="328.27"/><ellipse cx="339.03" cy="344.27" fill="#ADD1B2" rx="11" ry="11" style="stroke:#181818;stroke-width:1;"/><path d="M341.9988,349.9106 Q341.4206,350.2075 340.78,350.3481 Q340.1394,350.5044 339.4363,350.5044 Q336.9363,350.5044 335.6081,348.8638 Q334.2956,347.2075 334.2956,344.0825 Q334.2956,340.9575 335.6081,339.3013 Q336.9363,337.645 339.4363,337.645 Q340.1394,337.645 340.78,337.8013 Q341.4363,337.9575 341.9988,338.2544 L341.9988,340.9731 Q341.3738,340.395 340.78,340.1294 Q340.1863,339.8481 339.5613,339.8481 Q338.2175,339.8481 337.53,340.9263 Q336.8425,341.9888 336.8425,344.0825 Q336.8425,346.1763 337.53,347.2544 Q338.2175,348.3169 339.5613,348.3169 Q340.1863,348.3169 340.78,348.0513 Q341.3738,347.77 341.9988,347.1919 L341.9988,349.9106 Z " fill="#000000"/><text fill="#000000" font-family="sans-serif" font-size="14" lengthAdjust="spacing" textLength="219.9395" x="353.03" y="349.1167">DownloadContractPdfResponse</text><line style="stroke:#181818;stroke-width:0.5;" x1="325.03" x2="574.9695" y1="360.27" y2="360.27"/><text fill="#000000" font-family="sans-serif" font-size="14" lengthAdjust="spacing" textLength="122.7461" x="330.03" y="377.2651">+UUID contractId</text><text fill="#000000" font-family="sans-serif" font-size="14" lengthAdjust="spacing" textLength="120.5859" x="330.03" y="393.562">+String fileName</text><text fill="#000000" font-family="sans-serif" font-size="14" lengthAdjust="spacing" textLength="99.1758" x="330.03" y="409.8589">+String fileUrl</text><line style="stroke:#181818;stroke-width:0.5;" x1="325.03" x2="574.9695" y1="417.1606" y2="417.1606"/></g><?plantuml-src jLBDJiCm3BxtAQnTkV06Q5evzCBGrZw0ctfJjCJfObVJG7jtGjj1YuO44kIMpyxtfyZ1SeiHFHY78alLQEjEgJ21j_Q5u3xBMZG7t1Ci4gOHZGhavLeMy9fbCBo3LIHKUlIj2sTFhAjnTKF7ZaJJAgHpLrL53YOuXtM8g24MJJPCjacOzy2ThocEM9uer-pE88fHtszp_068cn6-V7hP4DFffrQ6sN_OA2bwoxzevSFAr4dgLGBFcMyHIXjOQCPehw5kjJxLc8wUqDEVT37ZIDlQoOIZj9x0z9-cMUeyNXvEx08srt3FpUvclcyQsrb7VOglO1LTBtHv0m00?></g></svg>