<svg xmlns="http://www.w3.org/2000/svg" xmlns:xlink="http://www.w3.org/1999/xlink" contentStyleType="text/css" data-diagram-type="DESCRIPTION" height="1174px" preserveAspectRatio="none" style="width:674px;height:1174px;background:#FFFFFF;" version="1.1" viewBox="0 0 674 1174" width="674px" zoomAndPan="magnify"><?plantuml 1.2026.4beta2?><defs/><g><!--cluster Gesti?n de colaboradores--><g class="cluster" data-qualified-name="Gesti.n de colaboradores" data-source-line="7" id="ent0005"><rect fill="none" height="1001" rx="2.5" ry="2.5" style="stroke:#181818;stroke-width:1;" width="508.8" x="152.08" y="127.16"/><text fill="#000000" font-family="sans-serif" font-size="14" font-weight="700" lengthAdjust="spacing" textLength="202.1865" x="305.3867" y="142.1551">Gesti&#243;n de colaboradores</text></g><!--entity UC_CreateEmployee--><g class="entity" data-qualified-name="Gesti.n de colaboradores.UC_CreateEmployee" data-source-line="8" id="ent0006"><ellipse cx="262.2619" cy="267.1604" fill="#F1F1F1" rx="78.3019" ry="18.0604" style="stroke:#181818;stroke-width:0.5;"/><text fill="#000000" font-family="sans-serif" font-size="14" lengthAdjust="spacing" textLength="126.6563" x="198.9338" y="271.8088">Crear colaborador</text></g><!--entity UC_UpdateEmployee--><g class="entity" data-qualified-name="Gesti.n de colaboradores.UC_UpdateEmployee" data-source-line="9" id="ent0007"><ellipse cx="262.2629" cy="507.1646" fill="#F1F1F1" rx="91.8229" ry="20.7646" style="stroke:#181818;stroke-width:0.5;"/><text fill="#000000" font-family="sans-serif" font-size="14" lengthAdjust="spacing" textLength="157.8555" x="183.3352" y="511.813">Actualizar colaborador</text></g><!--entity UC_DeactivateEmployee--><g class="entity" data-qualified-name="Gesti.n de colaboradores.UC_DeactivateEmployee" data-source-line="10" id="ent0008"><ellipse cx="262.2587" cy="584.1557" fill="#F1F1F1" rx="94.1787" ry="21.2357" style="stroke:#181818;stroke-width:0.5;"/><text fill="#000000" font-family="sans-serif" font-size="14" lengthAdjust="spacing" textLength="163.1396" x="180.6889" y="588.8042">Desactivar colaborador</text></g><!--entity UC_ListEmployees--><g class="entity" data-qualified-name="Gesti.n de colaboradores.UC_ListEmployees" data-source-line="11" id="ent0009"><ellipse cx="262.2561" cy="1093.1592" fill="#F1F1F1" rx="85.2461" ry="19.4492" style="stroke:#181818;stroke-width:0.5;"/><text fill="#000000" font-family="sans-serif" font-size="14" lengthAdjust="spacing" textLength="142.8916" x="190.8103" y="1097.8077">Listar colaboradores</text></g><!--entity UC_GetEmployee--><g class="entity" data-qualified-name="Gesti.n de colaboradores.UC_GetEmployee" data-source-line="12" id="ent0010"><ellipse cx="262.2601" cy="953.16" fill="#F1F1F1" rx="86.3501" ry="19.67" style="stroke:#181818;stroke-width:0.5;"/><text fill="#000000" font-family="sans-serif" font-size="14" lengthAdjust="spacing" textLength="145.4277" x="189.5462" y="957.8084">Obtener colaborador</text></g><!--entity UC_CreatePosition--><g class="entity" data-qualified-name="Gesti.n de colaboradores.UC_CreatePosition" data-source-line="14" id="ent0011"><ellipse cx="262.2554" cy="655.1591" fill="#F1F1F1" rx="63.9454" ry="15.1891" style="stroke:#181818;stroke-width:0.5;"/><text fill="#000000" font-family="sans-serif" font-size="14" lengthAdjust="spacing" textLength="90.6514" x="216.9297" y="659.8075">Crear puesto</text></g><!--entity UC_UpdatePosition--><g class="entity" data-qualified-name="Gesti.n de colaboradores.UC_UpdatePosition" data-source-line="15" id="ent0012"><ellipse cx="262.2627" cy="723.1585" fill="#F1F1F1" rx="76.2927" ry="17.6585" style="stroke:#181818;stroke-width:0.5;"/><text fill="#000000" font-family="sans-serif" font-size="14" lengthAdjust="spacing" textLength="121.8506" x="201.3374" y="727.807">Actualizar puesto</text></g><!--entity UC_DeactivatePosition--><g class="entity" data-qualified-name="Gesti.n de colaboradores.UC_DeactivatePosition" data-source-line="16" id="ent0013"><ellipse cx="262.2632" cy="794.1606" fill="#F1F1F1" rx="78.5032" ry="18.1006" style="stroke:#181818;stroke-width:0.5;"/><text fill="#000000" font-family="sans-serif" font-size="14" lengthAdjust="spacing" textLength="127.1348" x="198.6958" y="798.8091">Desactivar puesto</text></g><!--entity UC_ListPositions--><g class="entity" data-qualified-name="Gesti.n de colaboradores.UC_ListPositions" data-source-line="17" id="ent0014"><ellipse cx="262.2606" cy="1023.1561" fill="#F1F1F1" rx="66.8306" ry="15.7661" style="stroke:#181818;stroke-width:0.5;"/><text fill="#000000" font-family="sans-serif" font-size="14" lengthAdjust="spacing" textLength="98.2734" x="213.1239" y="1027.8046">Listar puestos</text></g><!--entity UC_AssignBranch--><g class="entity" data-qualified-name="Gesti.n de colaboradores.UC_AssignBranch" data-source-line="19" id="ent0015"><ellipse cx="563.1597" cy="187.1626" fill="#F1F1F1" rx="81.7197" ry="25.2026" style="stroke:#181818;stroke-width:0.5;"/><text fill="#000000" font-family="sans-serif" font-size="14" lengthAdjust="spacing" textLength="115.5615" x="505.3789" y="184.8808">Asignar sucursal</text><text fill="#000000" font-family="sans-serif" font-size="14" lengthAdjust="spacing" textLength="96.7559" x="514.7818" y="201.1776">a colaborador</text></g><!--entity UC_RemoveBranch--><g class="entity" data-qualified-name="Gesti.n de colaboradores.UC_RemoveBranch" data-source-line="20" id="ent0016"><ellipse cx="262.2585" cy="873.158" fill="#F1F1F1" rx="76.5785" ry="25.558" style="stroke:#181818;stroke-width:0.5;"/><text fill="#000000" font-family="sans-serif" font-size="14" lengthAdjust="spacing" textLength="106.3125" x="209.1023" y="870.3576">Quitar sucursal</text><text fill="#000000" font-family="sans-serif" font-size="14" lengthAdjust="spacing" textLength="96.7559" x="213.8806" y="886.6545">a colaborador</text></g><!--entity UC_AssignPosition--><g class="entity" data-qualified-name="Gesti.n de colaboradores.UC_AssignPosition" data-source-line="21" id="ent0017"><ellipse cx="563.1645" cy="273.1556" fill="#F1F1F1" rx="75.8745" ry="25.6156" style="stroke:#181818;stroke-width:0.5;"/><text fill="#000000" font-family="sans-serif" font-size="14" lengthAdjust="spacing" textLength="105.0273" x="510.6508" y="270.272">Asignar puesto</text><text fill="#000000" font-family="sans-serif" font-size="14" lengthAdjust="spacing" textLength="96.7559" x="514.7865" y="286.5689">a colaborador</text></g><!--entity UC_RemovePosition--><g class="entity" data-qualified-name="Gesti.n de colaboradores.UC_RemovePosition" data-source-line="22" id="ent0018"><ellipse cx="262.255" cy="188.1594" fill="#F1F1F1" rx="71.245" ry="25.9894" style="stroke:#181818;stroke-width:0.5;"/><text fill="#000000" font-family="sans-serif" font-size="14" lengthAdjust="spacing" textLength="95.7783" x="214.3658" y="184.5775">Quitar puesto</text><text fill="#000000" font-family="sans-serif" font-size="14" lengthAdjust="spacing" textLength="96.7559" x="213.8771" y="200.8744">a colaborador</text></g><!--entity UC_ChangeMainBranch--><g class="entity" data-qualified-name="Gesti.n de colaboradores.UC_ChangeMainBranch" data-source-line="24" id="ent0019"><ellipse cx="262.2603" cy="344.1564" fill="#F1F1F1" rx="81.4303" ry="23.9864" style="stroke:#181818;stroke-width:0.5;"/><text fill="#000000" font-family="sans-serif" font-size="14" lengthAdjust="spacing" textLength="121.8096" x="201.3555" y="343.7306">Cambiar sucursal</text><text fill="#000000" font-family="sans-serif" font-size="14" lengthAdjust="spacing" textLength="60.3477" x="232.0865" y="360.0274">principal</text></g><!--entity UC_ChangeMainPosition--><g class="entity" data-qualified-name="Gesti.n de colaboradores.UC_ChangeMainPosition" data-source-line="25" id="ent0020"><ellipse cx="262.2561" cy="427.1619" fill="#F1F1F1" rx="75.0761" ry="24.1119" style="stroke:#181818;stroke-width:0.5;"/><text fill="#000000" font-family="sans-serif" font-size="14" lengthAdjust="spacing" textLength="111.2754" x="206.6184" y="426.5378">Cambiar puesto</text><text fill="#000000" font-family="sans-serif" font-size="14" lengthAdjust="spacing" textLength="60.3477" x="232.0822" y="442.8346">principal</text></g><!--entity UC_ValidateMainBranch--><g class="entity" data-qualified-name="Gesti.n de colaboradores.UC_ValidateMainBranch" data-source-line="27" id="ent0021"><ellipse cx="563.1595" cy="358.1639" fill="#F1F1F1" rx="75.4295" ry="24.1039" style="stroke:#181818;stroke-width:0.5;"/><text fill="#000000" font-family="sans-serif" font-size="14" lengthAdjust="spacing" textLength="111.8633" x="507.2278" y="357.5523">Validar sucursal</text><text fill="#000000" font-family="sans-serif" font-size="14" lengthAdjust="spacing" textLength="60.3477" x="532.9856" y="373.8492">principal</text></g><!--entity UC_ValidateMainPosition--><g class="entity" data-qualified-name="Gesti.n de colaboradores.UC_ValidateMainPosition" data-source-line="28" id="ent0022"><ellipse cx="563.164" cy="441.1596" fill="#F1F1F1" rx="69.124" ry="24.2696" style="stroke:#181818;stroke-width:0.5;"/><text fill="#000000" font-family="sans-serif" font-size="14" lengthAdjust="spacing" textLength="101.3291" x="512.4994" y="440.2887">Validar puesto</text><text fill="#000000" font-family="sans-serif" font-size="14" lengthAdjust="spacing" textLength="60.3477" x="532.9902" y="456.5856">principal</text></g><!--entity Admin--><g class="entity" data-qualified-name="Admin" data-source-line="3" id="ent0002"><ellipse cx="55.54" cy="546.36" fill="#F1F1F1" rx="8" ry="8" style="stroke:#181818;stroke-width:0.5;"/><path d="M55.54,554.36 L55.54,581.36 M42.54,562.36 L68.54,562.36 M55.54,581.36 L42.54,596.36 M55.54,581.36 L68.54,596.36" fill="none" style="stroke:#181818;stroke-width:0.5;"/><text fill="#000000" font-family="sans-serif" font-size="14" lengthAdjust="spacing" textLength="99.0801" x="6" y="610.8551">Administrador</text><text fill="#000000" font-family="sans-serif" font-size="14" lengthAdjust="spacing" textLength="83.3301" x="6" y="627.152">de empresa</text></g><!--entity Manager--><g class="entity" data-qualified-name="Manager" data-source-line="4" id="ent0003"><ellipse cx="55.543" cy="966.36" fill="#F1F1F1" rx="8" ry="8" style="stroke:#181818;stroke-width:0.5;"/><path d="M55.543,974.36 L55.543,1001.36 M42.543,982.36 L68.543,982.36 M55.543,1001.36 L42.543,1016.36 M55.543,1001.36 L68.543,1016.36" fill="none" style="stroke:#181818;stroke-width:0.5;"/><text fill="#000000" font-family="sans-serif" font-size="14" lengthAdjust="spacing" textLength="56.8066" x="15.44" y="1030.8551">Gerente</text><text fill="#000000" font-family="sans-serif" font-size="14" lengthAdjust="spacing" textLength="80.2061" x="15.44" y="1047.152">de sucursal</text></g><!--entity Supervisor--><g class="entity" data-qualified-name="Supervisor" data-source-line="5" id="ent0004"><ellipse cx="55.5428" cy="1093.51" fill="#F1F1F1" rx="8" ry="8" style="stroke:#181818;stroke-width:0.5;"/><path d="M55.5428,1101.51 L55.5428,1128.51 M42.5428,1109.51 L68.5428,1109.51 M55.5428,1128.51 L42.5428,1143.51 M55.5428,1128.51 L68.5428,1143.51" fill="none" style="stroke:#181818;stroke-width:0.5;"/><text fill="#000000" font-family="sans-serif" font-size="14" lengthAdjust="spacing" textLength="74.8057" x="18.14" y="1158.0051">Supervisor</text></g><!--link Admin to UC_CreateEmployee--><g class="link" data-entity-1="ent0002" data-entity-2="ent0006" data-link-type="dependency" data-source-line="31" id="lnk23"><path d="M58.18,537.58 C62.88,475.64 80.36,366.63 144.08,303.16 C157.42,289.87 169.7952,283.1677 187.7952,277.8577" fill="none" id="Admin-to-UC_CreateEmployee" style="stroke:#181818;stroke-width:1;"/><polygon fill="#181818" points="193.55,276.16,183.786,274.87,188.7543,277.5747,186.0496,282.5431,193.55,276.16" style="stroke:#181818;stroke-width:1;"/></g><!--link Admin to UC_UpdateEmployee--><g class="link" data-entity-1="ent0002" data-entity-2="ent0007" data-link-type="dependency" data-source-line="32" id="lnk24"><path d="M105.24,561.38 C117.78,555.81 131.34,550.05 144.08,545.16 C163.95,537.54 180.3519,531.9177 199.9819,525.6777" fill="none" id="Admin-to-UC_UpdateEmployee" style="stroke:#181818;stroke-width:1;"/><polygon fill="#181818" points="205.7,523.86,195.9111,522.7745,200.935,525.3747,198.3347,530.3985,205.7,523.86" style="stroke:#181818;stroke-width:1;"/></g><!--link Admin to UC_DeactivateEmployee--><g class="link" data-entity-1="ent0002" data-entity-2="ent0008" data-link-type="dependency" data-source-line="33" id="lnk25"><path d="M105.58,584.16 C124.27,584.16 140.25,584.16 161.71,584.16" fill="none" id="Admin-to-UC_DeactivateEmployee" style="stroke:#181818;stroke-width:1;"/><polygon fill="#181818" points="167.71,584.16,158.71,580.16,162.71,584.16,158.71,588.16,167.71,584.16" style="stroke:#181818;stroke-width:1;"/></g><!--link Admin to UC_ListEmployees--><g class="link" data-entity-1="ent0002" data-entity-2="ent0009" data-link-type="dependency" data-source-line="34" id="lnk26"><path d="M64.51,630.65 C84.75,748.12 136.98,1048.13 144.08,1056.16 C155.6,1069.19 165.9676,1075.7737 182.5076,1081.2837" fill="none" id="Admin-to-UC_ListEmployees" style="stroke:#181818;stroke-width:1;"/><polygon fill="#181818" points="188.2,1083.18,180.9256,1076.5405,183.4563,1081.5997,178.3971,1084.1305,188.2,1083.18" style="stroke:#181818;stroke-width:1;"/></g><!--link Admin to UC_GetEmployee--><g class="link" data-entity-1="ent0002" data-entity-2="ent0010" data-link-type="dependency" data-source-line="35" id="lnk27"><path d="M63.21,630.81 C75.71,712.15 105.01,875.17 144.08,916.16 C156.08,928.75 166.6158,935.1788 183.1758,940.6788" fill="none" id="Admin-to-UC_GetEmployee" style="stroke:#181818;stroke-width:1;"/><polygon fill="#181818" points="188.87,942.57,181.5895,935.9371,184.1249,940.994,179.068,943.5293,188.87,942.57" style="stroke:#181818;stroke-width:1;"/></g><!--link Admin to UC_CreatePosition--><g class="link" data-entity-1="ent0002" data-entity-2="ent0011" data-link-type="dependency" data-source-line="37" id="lnk28"><path d="M105.54,607.57 C117.96,613.06 131.39,618.63 144.08,623.16 C167.32,631.46 187.9764,637.3661 209.8764,642.9561" fill="none" id="Admin-to-UC_CreatePosition" style="stroke:#181818;stroke-width:1;"/><polygon fill="#181818" points="215.69,644.44,207.9589,638.3384,210.8453,643.2034,205.9803,646.0898,215.69,644.44" style="stroke:#181818;stroke-width:1;"/></g><!--link Admin to UC_UpdatePosition--><g class="link" data-entity-1="ent0002" data-entity-2="ent0012" data-link-type="dependency" data-source-line="38" id="lnk29"><path d="M86.5,630.77 C101.59,650.97 121.49,673.34 144.08,688.16 C161.12,699.34 176.0733,705.4744 195.3433,710.7544" fill="none" id="Admin-to-UC_UpdatePosition" style="stroke:#181818;stroke-width:1;"/><polygon fill="#181818" points="201.13,712.34,193.507,706.1038,196.3077,711.0187,191.3929,713.8195,201.13,712.34" style="stroke:#181818;stroke-width:1;"/></g><!--link Admin to UC_DeactivatePosition--><g class="link" data-entity-1="ent0002" data-entity-2="ent0013" data-link-type="dependency" data-source-line="39" id="lnk30"><path d="M84.56,630.67 C101.02,659.26 121.4,697.04 136.08,732.16 C140.74,743.32 135.53,749.61 144.08,758.16 C157.4,771.48 169.7643,778.1953 187.7643,783.4953" fill="none" id="Admin-to-UC_DeactivatePosition" style="stroke:#181818;stroke-width:1;"/><polygon fill="#181818" points="193.52,785.19,186.0163,778.8108,188.7236,783.7777,183.7567,786.485,193.52,785.19" style="stroke:#181818;stroke-width:1;"/></g><!--link Admin to UC_ListPositions--><g class="link" data-entity-1="ent0002" data-entity-2="ent0014" data-link-type="dependency" data-source-line="40" id="lnk31"><path d="M69.34,630.69 C86.71,695.38 117.7,816.36 136.08,921.16 C138.75,936.37 134.07,978.41 144.08,990.16 C157.45,1005.84 171.7807,1013.0335 191.6507,1017.5735" fill="none" id="Admin-to-UC_ListPositions" style="stroke:#181818;stroke-width:1;"/><polygon fill="#181818" points="197.5,1018.91,189.6171,1013.0058,192.6256,1017.7963,187.8351,1020.8048,197.5,1018.91" style="stroke:#181818;stroke-width:1;"/></g><!--link Admin to UC_AssignBranch--><g class="link" data-entity-1="ent0002" data-entity-2="ent0015" data-link-type="dependency" data-source-line="42" id="lnk32"><path d="M57.27,537.68 C60.13,426.22 74.27,149.05 144.08,96.16 C263.09,6 447.9466,110.2085 524.0366,160.5685" fill="none" id="Admin-to-UC_AssignBranch" style="stroke:#181818;stroke-width:1;"/><polygon fill="#181818" points="529.04,163.88,523.7426,155.5772,524.8705,161.1204,519.3272,162.2484,529.04,163.88" style="stroke:#181818;stroke-width:1;"/></g><!--link Admin to UC_RemoveBranch--><g class="link" data-entity-1="ent0002" data-entity-2="ent0016" data-link-type="dependency" data-source-line="43" id="lnk33"><path d="M79.42,630.63 C97.41,669.04 121.75,725.47 136.08,777.16 C142.44,800.12 129.02,811.7 144.08,830.16 C156.55,845.44 169.2834,853.3468 187.8334,859.6968" fill="none" id="Admin-to-UC_RemoveBranch" style="stroke:#181818;stroke-width:1;"/><polygon fill="#181818" points="193.51,861.64,186.2906,854.9408,188.7795,860.0207,183.6996,862.5096,193.51,861.64" style="stroke:#181818;stroke-width:1;"/></g><!--link Admin to UC_AssignPosition--><g class="link" data-entity-1="ent0002" data-entity-2="ent0017" data-link-type="dependency" data-source-line="44" id="lnk34"><path d="M58.65,537.41 C64.36,434.67 83.99,194.45 144.08,145.16 C250.98,57.48 343.82,106.37 451.44,193.16 C467.92,206.45 465.1,216.69 481.44,230.16 C491.85,238.75 498.9574,243.5437 510.8674,249.9037" fill="none" id="Admin-to-UC_AssignPosition" style="stroke:#181818;stroke-width:1;"/><polygon fill="#181818" points="516.16,252.73,510.1052,244.9621,511.7495,250.3748,506.3368,252.019,516.16,252.73" style="stroke:#181818;stroke-width:1;"/></g><!--link Admin to UC_RemovePosition--><g class="link" data-entity-1="ent0002" data-entity-2="ent0018" data-link-type="dependency" data-source-line="45" id="lnk35"><path d="M62.63,537.47 C74.6,452.29 103.61,276.29 144.08,231.16 C157.97,215.67 172.2146,207.617 191.7246,201.267" fill="none" id="Admin-to-UC_RemovePosition" style="stroke:#181818;stroke-width:1;"/><polygon fill="#181818" points="197.43,199.41,187.6339,198.3918,192.6755,200.9575,190.1099,205.9991,197.43,199.41" style="stroke:#181818;stroke-width:1;"/></g><!--link Admin to UC_ChangeMainBranch--><g class="link" data-entity-1="ent0002" data-entity-2="ent0019" data-link-type="dependency" data-source-line="46" id="lnk36"><path d="M65.75,537.65 C76.93,492.81 100.03,425.91 144.08,385.16 C157.92,372.36 170.3134,365.4533 188.1034,359.3633" fill="none" id="Admin-to-UC_ChangeMainBranch" style="stroke:#181818;stroke-width:1;"/><polygon fill="#181818" points="193.78,357.42,183.9696,356.5505,189.0495,359.0394,186.5606,364.1193,193.78,357.42" style="stroke:#181818;stroke-width:1;"/></g><!--link Admin to UC_ChangeMainPosition--><g class="link" data-entity-1="ent0002" data-entity-2="ent0020" data-link-type="dependency" data-source-line="47" id="lnk37"><path d="M83.09,537.49 C98.34,514.22 119.38,487.25 144.08,469.16 C160.9,456.84 176.0056,449.7303 195.3756,443.3003" fill="none" id="Admin-to-UC_ChangeMainPosition" style="stroke:#181818;stroke-width:1;"/><polygon fill="#181818" points="201.07,441.41,191.2681,440.4492,196.3246,442.9853,193.7885,448.0418,201.07,441.41" style="stroke:#181818;stroke-width:1;"/></g><!--link Manager to UC_ListEmployees--><g class="link" data-entity-1="ent0003" data-entity-2="ent0009" data-link-type="dependency" data-source-line="49" id="lnk38"><path d="M96.03,1030.24 C110.72,1039.23 127.78,1048.87 144.08,1056.16 C163.45,1064.84 179.7268,1070.6236 199.4068,1076.5736" fill="none" id="Manager-to-UC_ListEmployees" style="stroke:#181818;stroke-width:1;"/><polygon fill="#181818" points="205.15,1078.31,197.6927,1071.8766,200.364,1076.863,195.3775,1079.5342,205.15,1078.31" style="stroke:#181818;stroke-width:1;"/></g><!--link Manager to UC_GetEmployee--><g class="link" data-entity-1="ent0003" data-entity-2="ent0010" data-link-type="dependency" data-source-line="50" id="lnk39"><path d="M96.09,973.72 C108,966.2 121.51,959.16 135.08,955.16 C148.84,951.1 157.8312,949.3572 172.5112,948.4572" fill="none" id="Manager-to-UC_GetEmployee" style="stroke:#181818;stroke-width:1;"/><polygon fill="#181818" points="178.5,948.09,169.2721,944.6482,173.5094,948.396,169.7616,952.6332,178.5,948.09" style="stroke:#181818;stroke-width:1;"/></g><!--link Manager to UC_ListPositions--><g class="link" data-entity-1="ent0003" data-entity-2="ent0014" data-link-type="dependency" data-source-line="51" id="lnk40"><path d="M96.01,1007.82 C125.29,1010.54 159.8057,1013.7448 193.3757,1016.8648" fill="none" id="Manager-to-UC_ListPositions" style="stroke:#181818;stroke-width:1;"/><polygon fill="#181818" points="199.35,1017.42,190.7588,1012.6043,194.3715,1016.9573,190.0185,1020.57,199.35,1017.42" style="stroke:#181818;stroke-width:1;"/></g><!--link Supervisor to UC_ListEmployees--><g class="link" data-entity-1="ent0004" data-entity-2="ent0009" data-link-type="dependency" data-source-line="53" id="lnk41"><path d="M93.08,1124.96 C106.62,1125.15 122.09,1124.81 136.08,1123.16 C160.27,1120.3 180.754,1115.9536 202.964,1110.1636" fill="none" id="Supervisor-to-UC_ListEmployees" style="stroke:#181818;stroke-width:1;"/><polygon fill="#181818" points="208.77,1108.65,199.052,1107.0497,203.9317,1109.9113,201.0701,1114.791,208.77,1108.65" style="stroke:#181818;stroke-width:1;"/></g><!--link Supervisor to UC_GetEmployee--><g class="link" data-entity-1="ent0004" data-entity-2="ent0010" data-link-type="dependency" data-source-line="54" id="lnk42"><path d="M92.58,1084.81 C97.01,1079.39 101.31,1073.76 105.08,1068.16 C126.75,1036.03 114.6,1015.32 144.08,990.16 C157.79,978.46 169.5035,972.2724 186.6935,966.7924" fill="none" id="Supervisor-to-UC_GetEmployee" style="stroke:#181818;stroke-width:1;"/><polygon fill="#181818" points="192.41,964.97,182.6203,963.8925,187.6462,966.4886,185.0501,971.5146,192.41,964.97" style="stroke:#181818;stroke-width:1;"/></g><!--link Supervisor to UC_ListPositions--><g class="link" data-entity-1="ent0004" data-entity-2="ent0014" data-link-type="dependency" data-source-line="55" id="lnk43"><path d="M93.22,1090.11 C108.15,1078.04 126.11,1065.15 144.08,1056.16 C164.49,1045.95 182.7175,1039.9287 203.6975,1034.7087" fill="none" id="Supervisor-to-UC_ListPositions" style="stroke:#181818;stroke-width:1;"/><polygon fill="#181818" points="209.52,1033.26,199.8205,1031.5514,204.6679,1034.4672,201.7521,1039.3147,209.52,1033.26" style="stroke:#181818;stroke-width:1;"/></g><!--link UC_CreateEmployee to UC_AssignBranch--><g class="link" data-entity-1="ent0006" data-entity-2="ent0015" data-link-type="dependency" data-source-line="57" id="lnk44"><path d="M314.64,253.41 C366.13,239.63 439.6439,219.9509 494.5439,205.2609" fill="none" id="UC_CreateEmployee-to-UC_AssignBranch" style="stroke:#181818;stroke-width:1;stroke-dasharray:7,7;"/><polygon fill="#181818" points="500.34,203.71,490.6119,202.1723,495.5099,205.0024,492.6798,209.9004,500.34,203.71" style="stroke:#181818;stroke-width:1;"/><text fill="#000000" font-family="sans-serif" font-size="13" lengthAdjust="spacing" textLength="63.0068" x="387.44" y="214.2269">&#171;include&#187;</text></g><!--link UC_CreateEmployee to UC_AssignPosition--><g class="link" data-entity-1="ent0006" data-entity-2="ent0017" data-link-type="dependency" data-source-line="58" id="lnk45"><path d="M340.62,268.71 C385.68,269.62 436.2412,270.6292 480.9312,271.5292" fill="none" id="UC_CreateEmployee-to-UC_AssignPosition" style="stroke:#181818;stroke-width:1;stroke-dasharray:7,7;"/><polygon fill="#181818" points="486.93,271.65,478.0124,267.4696,481.931,271.5493,477.8513,275.468,486.93,271.65" style="stroke:#181818;stroke-width:1;"/><text fill="#000000" font-family="sans-serif" font-size="13" lengthAdjust="spacing" textLength="63.0068" x="387.44" y="266.2269">&#171;include&#187;</text></g><!--link UC_ChangeMainBranch to UC_ValidateMainBranch--><g class="link" data-entity-1="ent0019" data-entity-2="ent0021" data-link-type="dependency" data-source-line="60" id="lnk46"><path d="M342.97,347.89 C388.02,350.01 437.9765,352.35 482.0665,354.41" fill="none" id="UC_ChangeMainBranch-to-UC_ValidateMainBranch" style="stroke:#181818;stroke-width:1;stroke-dasharray:7,7;"/><polygon fill="#181818" points="488.06,354.69,479.2565,350.2743,483.0654,354.4566,478.8831,358.2656,488.06,354.69" style="stroke:#181818;stroke-width:1;"/><text fill="#000000" font-family="sans-serif" font-size="13" lengthAdjust="spacing" textLength="63.0068" x="387.44" y="347.2269">&#171;include&#187;</text></g><!--link UC_ChangeMainPosition to UC_ValidateMainPosition--><g class="link" data-entity-1="ent0020" data-entity-2="ent0022" data-link-type="dependency" data-source-line="61" id="lnk47"><path d="M336.76,430.6 C384.9,432.86 441.3666,435.4992 488.3266,437.6992" fill="none" id="UC_ChangeMainPosition-to-UC_ValidateMainPosition" style="stroke:#181818;stroke-width:1;stroke-dasharray:7,7;"/><polygon fill="#181818" points="494.32,437.98,485.517,433.5632,489.3255,437.746,485.1427,441.5544,494.32,437.98" style="stroke:#181818;stroke-width:1;"/><text fill="#000000" font-family="sans-serif" font-size="13" lengthAdjust="spacing" textLength="63.0068" x="387.44" y="430.2269">&#171;include&#187;</text></g><?plantuml-src XPLBRi8m48RtFeN57WvGLKWfL6oA-X9T8LKccGPBYHtP3b9RzLGzGYzM9y7WIIQmHFzyy_Wz4mhuSDnfRcI-TpoJ1b8djM9Cf4uRFacoKYffdH6PDbkL0OUoCc35X0lBMpM4hi20Sj06sJgjZHL56xKMIkHWGjnhNO4vIAjDgvv_CjPK5oeleCbcdVpxLTndItKXThfj0Uo4VpFEQmkfi3vkOK2OEA9DkbcyDuA3-x8gz2T0Z2IfgqKXlsXkKsKZtDAFxTqvqDmIEf5c7xo7c6icwSX62uoDeSUT0mLajHMS43QqewgzUnexyQIjR9-MTW8ZdGaK4fc0aVFy57QSlqFGv27QeZaIAtFbWR18MoKe6nBRnDqPeT9zZ3_NqbsdNw3K1nZIeNZNxSNIrAp7uXVfhlI9Hayeofr4pLT6gbHMntDgNdJlhmJMGXAZ1poKlm2JvT_yGcINotSXRgI1a62qWHW_jV33MFiruTFfd3XVfFLE56d46I8T7nkIq4qHpPnw9PgXDU8c1ir4-uyqjDf8GMjBC7IjtiRX-VhxDAAU5-RuJQTTxOcnhmGN6N3-Bw0J3_KuDqr7wGThnMUpWTVyXj_U-eqjwWpcysjCoDwZ665g08VNGvGSM4xHTF5_?></g></svg>