<svg xmlns="http://www.w3.org/2000/svg" xmlns:xlink="http://www.w3.org/1999/xlink" contentStyleType="text/css" data-diagram-type="CLASS" height="243px" preserveAspectRatio="none" style="width:326px;height:243px;background:#FFFFFF;" version="1.1" viewBox="0 0 326 243" width="326px" zoomAndPan="magnify"><?plantuml 1.2026.5?><defs/><g><!--class CompanyStatus--><g class="entity" data-qualified-name="CompanyStatus" data-source-line="1" id="ent0001"><rect fill="#F1F1F1" height="80.5938" rx="2.5" ry="2.5" style="stroke:#181818;stroke-width:0.5;" width="143.2139" x="7" y="7"/><ellipse cx="22" cy="23" fill="#EB937F" rx="11" ry="11" style="stroke:#181818;stroke-width:1;"/><path d="M26.1094,29 L18.3906,29 L18.3906,16.6094 L26.1094,16.6094 L26.1094,18.7656 L20.8438,18.7656 L20.8438,21.4375 L25.6094,21.4375 L25.6094,23.5938 L20.8438,23.5938 L20.8438,26.8438 L26.1094,26.8438 L26.1094,29 Z " fill="#000000"/><text fill="#000000" font-family="sans-serif" font-size="14" lengthAdjust="spacing" textLength="111.2139" x="36" y="27.8467">CompanyStatus</text><line style="stroke:#181818;stroke-width:0.5;" x1="8" x2="149.2139" y1="39" y2="39"/><text fill="#000000" font-family="sans-serif" font-size="14" lengthAdjust="spacing" textLength="50.4561" x="13" y="55.9951">ACTIVE</text><text fill="#000000" font-family="sans-serif" font-size="14" lengthAdjust="spacing" textLength="65.0576" x="13" y="72.292">INACTIVE</text><line style="stroke:#181818;stroke-width:0.5;" x1="8" x2="149.2139" y1="79.5938" y2="79.5938"/></g><!--class BranchStatus--><g class="entity" data-qualified-name="BranchStatus" data-source-line="6" id="ent0002"><rect fill="#F1F1F1" height="80.5938" rx="2.5" ry="2.5" style="stroke:#181818;stroke-width:0.5;" width="125.9941" x="185.61" y="7"/><ellipse cx="200.61" cy="23" fill="#EB937F" rx="11" ry="11" style="stroke:#181818;stroke-width:1;"/><path d="M204.7194,29 L197.0006,29 L197.0006,16.6094 L204.7194,16.6094 L204.7194,18.7656 L199.4538,18.7656 L199.4538,21.4375 L204.2194,21.4375 L204.2194,23.5938 L199.4538,23.5938 L199.4538,26.8438 L204.7194,26.8438 L204.7194,29 Z " fill="#000000"/><text fill="#000000" font-family="sans-serif" font-size="14" lengthAdjust="spacing" textLength="93.9941" x="214.61" y="27.8467">BranchStatus</text><line style="stroke:#181818;stroke-width:0.5;" x1="186.61" x2="310.6041" y1="39" y2="39"/><text fill="#000000" font-family="sans-serif" font-size="14" lengthAdjust="spacing" textLength="50.4561" x="191.61" y="55.9951">ACTIVE</text><text fill="#000000" font-family="sans-serif" font-size="14" lengthAdjust="spacing" textLength="65.0576" x="191.61" y="72.292">INACTIVE</text><line style="stroke:#181818;stroke-width:0.5;" x1="186.61" x2="310.6041" y1="79.5938" y2="79.5938"/></g><!--class PositionStatus--><g class="entity" data-qualified-name="PositionStatus" data-source-line="11" id="ent0003"><rect fill="#F1F1F1" height="80.5938" rx="2.5" ry="2.5" style="stroke:#181818;stroke-width:0.5;" width="131.6201" x="12.8" y="147.6"/><ellipse cx="27.8" cy="163.6" fill="#EB937F" rx="11" ry="11" style="stroke:#181818;stroke-width:1;"/><path d="M31.9094,169.6 L24.1906,169.6 L24.1906,157.2094 L31.9094,157.2094 L31.9094,159.3656 L26.6438,159.3656 L26.6438,162.0375 L31.4094,162.0375 L31.4094,164.1938 L26.6438,164.1938 L26.6438,167.4438 L31.9094,167.4438 L31.9094,169.6 Z " fill="#000000"/><text fill="#000000" font-family="sans-serif" font-size="14" lengthAdjust="spacing" textLength="99.6201" x="41.8" y="168.4467">PositionStatus</text><line style="stroke:#181818;stroke-width:0.5;" x1="13.8" x2="143.4201" y1="179.6" y2="179.6"/><text fill="#000000" font-family="sans-serif" font-size="14" lengthAdjust="spacing" textLength="50.4561" x="18.8" y="196.5951">ACTIVE</text><text fill="#000000" font-family="sans-serif" font-size="14" lengthAdjust="spacing" textLength="65.0576" x="18.8" y="212.892">INACTIVE</text><line style="stroke:#181818;stroke-width:0.5;" x1="13.8" x2="143.4201" y1="220.1938" y2="220.1938"/></g><?plantuml-src IyqhpLLmpiyjICoh32v9B2ajLgZcKb1mT0xn37C5CZpzeCnQBgvKa5gdeiIyv0oYb0Ra5sUMPERduLSC0000?></g></svg>