<svg xmlns="http://www.w3.org/2000/svg" xmlns:xlink="http://www.w3.org/1999/xlink" contentStyleType="text/css" data-diagram-type="CLASS" height="340px" preserveAspectRatio="none" style="width:397px;height:340px;background:#FFFFFF;" version="1.1" viewBox="0 0 397 340" width="397px" zoomAndPan="magnify"><?plantuml 1.2026.5?><defs/><g><!--class Company--><g class="entity" data-qualified-name="Company" data-source-line="1" id="ent0001"><rect fill="#F1F1F1" height="113.1875" rx="2.5" ry="2.5" style="stroke:#181818;stroke-width:0.5;" width="184.6826" x="100.39" y="7"/><ellipse cx="155.18" cy="23" fill="#ADD1B2" rx="11" ry="11" style="stroke:#181818;stroke-width:1;"/><path d="M158.1488,28.6406 Q157.5707,28.9375 156.93,29.0781 Q156.2894,29.2344 155.5863,29.2344 Q153.0863,29.2344 151.7582,27.5938 Q150.4457,25.9375 150.4457,22.8125 Q150.4457,19.6875 151.7582,18.0313 Q153.0863,16.375 155.5863,16.375 Q156.2894,16.375 156.93,16.5313 Q157.5863,16.6875 158.1488,16.9844 L158.1488,19.7031 Q157.5238,19.125 156.93,18.8594 Q156.3363,18.5781 155.7113,18.5781 Q154.3675,18.5781 153.68,19.6563 Q152.9925,20.7188 152.9925,22.8125 Q152.9925,24.9063 153.68,25.9844 Q154.3675,27.0469 155.7113,27.0469 Q156.3363,27.0469 156.93,26.7813 Q157.5238,26.5 158.1488,25.9219 L158.1488,28.6406 Z " fill="#000000"/><text fill="#000000" font-family="sans-serif" font-size="14" lengthAdjust="spacing" textLength="66.6025" x="175.68" y="27.8467">Company</text><line style="stroke:#181818;stroke-width:0.5;" x1="101.39" x2="284.0726" y1="39" y2="39"/><g data-visibility-modifier="PUBLIC_FIELD"><ellipse cx="111.39" cy="52.6484" fill="none" rx="3" ry="3" style="stroke:#038048;stroke-width:1;"/></g><text fill="#000000" font-family="sans-serif" font-size="14" lengthAdjust="spacing" textLength="52.6299" x="120.39" y="55.9951">UUID id</text><g data-visibility-modifier="PUBLIC_FIELD"><ellipse cx="111.39" cy="68.9453" fill="none" rx="3" ry="3" style="stroke:#038048;stroke-width:1;"/></g><text fill="#000000" font-family="sans-serif" font-size="14" lengthAdjust="spacing" textLength="85.9346" x="120.39" y="72.292">String name</text><g data-visibility-modifier="PUBLIC_FIELD"><ellipse cx="111.39" cy="85.2422" fill="none" rx="3" ry="3" style="stroke:#038048;stroke-width:1;"/></g><text fill="#000000" font-family="sans-serif" font-size="14" lengthAdjust="spacing" textLength="158.6826" x="120.39" y="88.5889">CompanyStatus status</text><g data-visibility-modifier="PUBLIC_FIELD"><ellipse cx="111.39" cy="101.5391" fill="none" rx="3" ry="3" style="stroke:#038048;stroke-width:1;"/></g><text fill="#000000" font-family="sans-serif" font-size="14" lengthAdjust="spacing" textLength="141.3057" x="120.39" y="104.8857">DateTime createdAt</text><line style="stroke:#181818;stroke-width:0.5;" x1="101.39" x2="284.0726" y1="112.1875" y2="112.1875"/></g><!--class Branch--><g class="entity" data-qualified-name="Branch" data-source-line="8" id="ent0002"><rect fill="#F1F1F1" height="145.7813" rx="2.5" ry="2.5" style="stroke:#181818;stroke-width:0.5;" width="167.4629" x="7" y="180.19"/><ellipse cx="61.79" cy="196.19" fill="#ADD1B2" rx="11" ry="11" style="stroke:#181818;stroke-width:1;"/><path d="M64.7588,201.8306 Q64.1807,202.1275 63.54,202.2681 Q62.8994,202.4244 62.1963,202.4244 Q59.6963,202.4244 58.3682,200.7838 Q57.0557,199.1275 57.0557,196.0025 Q57.0557,192.8775 58.3682,191.2213 Q59.6963,189.565 62.1963,189.565 Q62.8994,189.565 63.54,189.7213 Q64.1963,189.8775 64.7588,190.1744 L64.7588,192.8931 Q64.1338,192.315 63.54,192.0494 Q62.9463,191.7681 62.3213,191.7681 Q60.9775,191.7681 60.29,192.8463 Q59.6025,193.9088 59.6025,196.0025 Q59.6025,198.0963 60.29,199.1744 Q60.9775,200.2369 62.3213,200.2369 Q62.9463,200.2369 63.54,199.9713 Q64.1338,199.69 64.7588,199.1119 L64.7588,201.8306 Z " fill="#000000"/><text fill="#000000" font-family="sans-serif" font-size="14" lengthAdjust="spacing" textLength="49.3828" x="82.29" y="201.0367">Branch</text><line style="stroke:#181818;stroke-width:0.5;" x1="8" x2="173.4629" y1="212.19" y2="212.19"/><g data-visibility-modifier="PUBLIC_FIELD"><ellipse cx="18" cy="225.8384" fill="none" rx="3" ry="3" style="stroke:#038048;stroke-width:1;"/></g><text fill="#000000" font-family="sans-serif" font-size="14" lengthAdjust="spacing" textLength="52.6299" x="27" y="229.1851">UUID id</text><g data-visibility-modifier="PUBLIC_FIELD"><ellipse cx="18" cy="242.1353" fill="none" rx="3" ry="3" style="stroke:#038048;stroke-width:1;"/></g><text fill="#000000" font-family="sans-serif" font-size="14" lengthAdjust="spacing" textLength="117.3936" x="27" y="245.482">UUID companyId</text><g data-visibility-modifier="PUBLIC_FIELD"><ellipse cx="18" cy="258.4322" fill="none" rx="3" ry="3" style="stroke:#038048;stroke-width:1;"/></g><text fill="#000000" font-family="sans-serif" font-size="14" lengthAdjust="spacing" textLength="85.9346" x="27" y="261.7789">String name</text><g data-visibility-modifier="PUBLIC_FIELD"><ellipse cx="18" cy="274.7291" fill="none" rx="3" ry="3" style="stroke:#038048;stroke-width:1;"/></g><text fill="#000000" font-family="sans-serif" font-size="14" lengthAdjust="spacing" textLength="101.541" x="27" y="278.0757">String address</text><g data-visibility-modifier="PUBLIC_FIELD"><ellipse cx="18" cy="291.0259" fill="none" rx="3" ry="3" style="stroke:#038048;stroke-width:1;"/></g><text fill="#000000" font-family="sans-serif" font-size="14" lengthAdjust="spacing" textLength="141.4629" x="27" y="294.3726">BranchStatus status</text><g data-visibility-modifier="PUBLIC_FIELD"><ellipse cx="18" cy="307.3228" fill="none" rx="3" ry="3" style="stroke:#038048;stroke-width:1;"/></g><text fill="#000000" font-family="sans-serif" font-size="14" lengthAdjust="spacing" textLength="141.3057" x="27" y="310.6695">DateTime createdAt</text><line style="stroke:#181818;stroke-width:0.5;" x1="8" x2="173.4629" y1="317.9713" y2="317.9713"/></g><!--class Position--><g class="entity" data-qualified-name="Position" data-source-line="17" id="ent0003"><rect fill="#F1F1F1" height="145.7813" rx="2.5" ry="2.5" style="stroke:#181818;stroke-width:0.5;" width="173.0889" x="209.19" y="180.19"/><ellipse cx="263.98" cy="196.19" fill="#ADD1B2" rx="11" ry="11" style="stroke:#181818;stroke-width:1;"/><path d="M266.9488,201.8306 Q266.3707,202.1275 265.73,202.2681 Q265.0894,202.4244 264.3863,202.4244 Q261.8863,202.4244 260.5582,200.7838 Q259.2457,199.1275 259.2457,196.0025 Q259.2457,192.8775 260.5582,191.2213 Q261.8863,189.565 264.3863,189.565 Q265.0894,189.565 265.73,189.7213 Q266.3863,189.8775 266.9488,190.1744 L266.9488,192.8931 Q266.3238,192.315 265.73,192.0494 Q265.1363,191.7681 264.5113,191.7681 Q263.1675,191.7681 262.48,192.8463 Q261.7925,193.9088 261.7925,196.0025 Q261.7925,198.0963 262.48,199.1744 Q263.1675,200.2369 264.5113,200.2369 Q265.1363,200.2369 265.73,199.9713 Q266.3238,199.69 266.9488,199.1119 L266.9488,201.8306 Z " fill="#000000"/><text fill="#000000" font-family="sans-serif" font-size="14" lengthAdjust="spacing" textLength="55.0088" x="284.48" y="201.0367">Position</text><line style="stroke:#181818;stroke-width:0.5;" x1="210.19" x2="381.2789" y1="212.19" y2="212.19"/><g data-visibility-modifier="PUBLIC_FIELD"><ellipse cx="220.19" cy="225.8384" fill="none" rx="3" ry="3" style="stroke:#038048;stroke-width:1;"/></g><text fill="#000000" font-family="sans-serif" font-size="14" lengthAdjust="spacing" textLength="52.6299" x="229.19" y="229.1851">UUID id</text><g data-visibility-modifier="PUBLIC_FIELD"><ellipse cx="220.19" cy="242.1353" fill="none" rx="3" ry="3" style="stroke:#038048;stroke-width:1;"/></g><text fill="#000000" font-family="sans-serif" font-size="14" lengthAdjust="spacing" textLength="117.3936" x="229.19" y="245.482">UUID companyId</text><g data-visibility-modifier="PUBLIC_FIELD"><ellipse cx="220.19" cy="258.4322" fill="none" rx="3" ry="3" style="stroke:#038048;stroke-width:1;"/></g><text fill="#000000" font-family="sans-serif" font-size="14" lengthAdjust="spacing" textLength="85.9346" x="229.19" y="261.7789">String name</text><g data-visibility-modifier="PUBLIC_FIELD"><ellipse cx="220.19" cy="274.7291" fill="none" rx="3" ry="3" style="stroke:#038048;stroke-width:1;"/></g><text fill="#000000" font-family="sans-serif" font-size="14" lengthAdjust="spacing" textLength="131.5029" x="229.19" y="278.0757">String? description</text><g data-visibility-modifier="PUBLIC_FIELD"><ellipse cx="220.19" cy="291.0259" fill="none" rx="3" ry="3" style="stroke:#038048;stroke-width:1;"/></g><text fill="#000000" font-family="sans-serif" font-size="14" lengthAdjust="spacing" textLength="147.0889" x="229.19" y="294.3726">PositionStatus status</text><g data-visibility-modifier="PUBLIC_FIELD"><ellipse cx="220.19" cy="307.3228" fill="none" rx="3" ry="3" style="stroke:#038048;stroke-width:1;"/></g><text fill="#000000" font-family="sans-serif" font-size="14" lengthAdjust="spacing" textLength="141.3057" x="229.19" y="310.6695">DateTime createdAt</text><line style="stroke:#181818;stroke-width:0.5;" x1="210.19" x2="381.2789" y1="317.9713" y2="317.9713"/></g><!--link Company to Branch--><g class="link" data-entity-1="ent0001" data-entity-2="ent0002" data-link-type="dependency" data-source-line="26" id="lnk4"><path codeLine="26" d="M162.27,120.59 C152.17,139.15 143.1697,155.688 132.4997,175.298" fill="none" id="Company-to-Branch" style="stroke:#181818;stroke-width:1;"/><polygon fill="#181818" points="130.11,179.69,137.925,173.6962,132.4997,175.298,130.8979,169.8727,130.11,179.69" style="stroke:#181818;stroke-width:1;stroke-linejoin:miter;stroke-miterlimit:10;"/><text fill="#000000" font-family="sans-serif" font-size="13" lengthAdjust="spacing" textLength="8.271" x="150.3011" y="140.122">1</text><text fill="#000000" font-family="sans-serif" font-size="13" lengthAdjust="spacing" textLength="6.5" x="127.6012" y="169.0533">*</text></g><!--link Company to Position--><g class="link" data-entity-1="ent0001" data-entity-2="ent0003" data-link-type="dependency" data-source-line="27" id="lnk5"><path codeLine="27" d="M223.5,120.59 C233.69,139.15 242.7831,155.6975 253.5531,175.3075" fill="none" id="Company-to-Position" style="stroke:#181818;stroke-width:1;"/><polygon fill="#181818" points="255.96,179.69,255.1336,169.8759,253.5531,175.3075,248.1215,173.727,255.96,179.69" style="stroke:#181818;stroke-width:1;stroke-linejoin:miter;stroke-miterlimit:10;"/><text fill="#000000" font-family="sans-serif" font-size="13" lengthAdjust="spacing" textLength="8.271" x="218.6108" y="140.122">1</text><text fill="#000000" font-family="sans-serif" font-size="13" lengthAdjust="spacing" textLength="6.5" x="245.9069" y="169.0533">*</text></g><?plantuml-src dP0n3i8m34NtdCBA2Eh01K10bsv8fGUmaWWYaQIAtG4XxWv9auaEmEJlR-jzo-g6H70CRaH_XuS0M0z3ruBLIVOShR-0HsTIMzPwHfu8A9VajyZcR9q15SrRwZsBfn0gemyHlRf-aBDKCwzRoYejQXqDvPIPz5FuAP1b6_o_yJlGXbIqOu8akmA_lAB-LMuaDCqMv4gMXooEAlq5?></g></svg>