<svg xmlns="http://www.w3.org/2000/svg" xmlns:xlink="http://www.w3.org/1999/xlink" contentStyleType="text/css" data-diagram-type="CLASS" height="275px" preserveAspectRatio="none" style="width:330px;height:275px;background:#FFFFFF;" version="1.1" viewBox="0 0 330 275" width="330px" zoomAndPan="magnify"><?plantuml 1.2026.5?><defs/><g><!--class UserStatus--><g class="entity" data-qualified-name="UserStatus" data-source-line="1" id="ent0001"><rect fill="#F1F1F1" height="96.8906" rx="2.5" ry="2.5" style="stroke:#181818;stroke-width:0.5;" width="108.5215" x="22.4" y="15.15"/><ellipse cx="37.4" cy="31.15" fill="#EB937F" rx="11" ry="11" style="stroke:#181818;stroke-width:1;"/><path d="M41.5094,37.15 L33.7906,37.15 L33.7906,24.7594 L41.5094,24.7594 L41.5094,26.9156 L36.2438,26.9156 L36.2438,29.5875 L41.0094,29.5875 L41.0094,31.7438 L36.2438,31.7438 L36.2438,34.9938 L41.5094,34.9938 L41.5094,37.15 Z " fill="#000000"/><text fill="#000000" font-family="sans-serif" font-size="14" lengthAdjust="spacing" textLength="76.5215" x="51.4" y="35.9967">UserStatus</text><line style="stroke:#181818;stroke-width:0.5;" x1="23.4" x2="129.9215" y1="47.15" y2="47.15"/><text fill="#000000" font-family="sans-serif" font-size="14" lengthAdjust="spacing" textLength="50.4561" x="28.4" y="64.1451">ACTIVE</text><text fill="#000000" font-family="sans-serif" font-size="14" lengthAdjust="spacing" textLength="65.0576" x="28.4" y="80.442">INACTIVE</text><text fill="#000000" font-family="sans-serif" font-size="14" lengthAdjust="spacing" textLength="86.1875" x="28.4" y="96.7389">SUSPENDED</text><line style="stroke:#181818;stroke-width:0.5;" x1="23.4" x2="129.9215" y1="104.0406" y2="104.0406"/></g><!--class Role--><g class="entity" data-qualified-name="Role" data-source-line="7" id="ent0002"><rect fill="#F1F1F1" height="113.1875" rx="2.5" ry="2.5" style="stroke:#181818;stroke-width:0.5;" width="149.8125" x="165.75" y="7"/><ellipse cx="221.0083" cy="23" fill="#EB937F" rx="11" ry="11" style="stroke:#181818;stroke-width:1;"/><path d="M225.1177,29 L217.3989,29 L217.3989,16.6094 L225.1177,16.6094 L225.1177,18.7656 L219.8521,18.7656 L219.8521,21.4375 L224.6177,21.4375 L224.6177,23.5938 L219.8521,23.5938 L219.8521,26.8438 L225.1177,26.8438 L225.1177,29 Z " fill="#000000"/><text fill="#000000" font-family="sans-serif" font-size="14" lengthAdjust="spacing" textLength="30.7959" x="241.5083" y="27.8467">Role</text><line style="stroke:#181818;stroke-width:0.5;" x1="166.75" x2="314.5625" y1="39" y2="39"/><text fill="#000000" font-family="sans-serif" font-size="14" lengthAdjust="spacing" textLength="123.9561" x="171.75" y="55.9951">COMPANY_ADMIN</text><text fill="#000000" font-family="sans-serif" font-size="14" lengthAdjust="spacing" textLength="137.8125" x="171.75" y="72.292">BRANCH_MANAGER</text><text fill="#000000" font-family="sans-serif" font-size="14" lengthAdjust="spacing" textLength="89.4893" x="171.75" y="88.5889">SUPERVISOR</text><text fill="#000000" font-family="sans-serif" font-size="14" lengthAdjust="spacing" textLength="43.1211" x="171.75" y="104.8857">STAFF</text><line style="stroke:#181818;stroke-width:0.5;" x1="166.75" x2="314.5625" y1="112.1875" y2="112.1875"/></g><!--class UserRoleStatus--><g class="entity" data-qualified-name="UserRoleStatus" data-source-line="14" id="ent0003"><rect fill="#F1F1F1" height="80.5938" rx="2.5" ry="2.5" style="stroke:#181818;stroke-width:0.5;" width="139.3174" x="7" y="180.19"/><ellipse cx="22" cy="196.19" fill="#EB937F" rx="11" ry="11" style="stroke:#181818;stroke-width:1;"/><path d="M26.1094,202.19 L18.3906,202.19 L18.3906,189.7994 L26.1094,189.7994 L26.1094,191.9556 L20.8438,191.9556 L20.8438,194.6275 L25.6094,194.6275 L25.6094,196.7838 L20.8438,196.7838 L20.8438,200.0338 L26.1094,200.0338 L26.1094,202.19 Z " fill="#000000"/><text fill="#000000" font-family="sans-serif" font-size="14" lengthAdjust="spacing" textLength="107.3174" x="36" y="201.0367">UserRoleStatus</text><line style="stroke:#181818;stroke-width:0.5;" x1="8" x2="145.3174" y1="212.19" y2="212.19"/><text fill="#000000" font-family="sans-serif" font-size="14" lengthAdjust="spacing" textLength="50.4561" x="13" y="229.1851">ACTIVE</text><text fill="#000000" font-family="sans-serif" font-size="14" lengthAdjust="spacing" textLength="65.0576" x="13" y="245.482">INACTIVE</text><line style="stroke:#181818;stroke-width:0.5;" x1="8" x2="145.3174" y1="252.7838" y2="252.7838"/></g><?plantuml-src IyqhpLK8BKuj2Yv9B2ajLgZcKb1mT0xn37C5CZpzuCpWqE00LpyNLnUkMYwkL92ceFoSLB1oPt_V04U_o7X75rzFFo3VASZHpzaZtjVHpz7TDGYiDy0rACmps1_C2N5qSuCR0h8PP11Ussi1?></g></svg>