<svg xmlns="http://www.w3.org/2000/svg" xmlns:xlink="http://www.w3.org/1999/xlink" contentStyleType="text/css" data-diagram-type="DESCRIPTION" height="548px" preserveAspectRatio="none" style="width:3678px;height:548px;background:#FFFFFF;" version="1.1" viewBox="0 0 3678 548" width="3678px" zoomAndPan="magnify"><?plantuml 1.2026.5?><defs/><g><!--cluster contracts--><g class="cluster" data-qualified-name="contracts" data-source-line="3" id="ent0001"><path d="M8.5,6 L83.752,6 A3.75,3.75 0 0 1 86.252,8.5 L93.252,28.2969 L3660.5,28.2969 A2.5,2.5 0 0 1 3663,30.7969 L3663,530.54 A2.5,2.5 0 0 1 3660.5,533.04 L8.5,533.04 A2.5,2.5 0 0 1 6,530.54 L6,8.5 A2.5,2.5 0 0 1 8.5,6" fill="none" style="stroke:#000000;stroke-width:1.5;"/><line style="stroke:#000000;stroke-width:1.5;" x1="6" x2="93.252" y1="28.2969" y2="28.2969"/><text fill="#000000" font-family="sans-serif" font-size="14" font-weight="700" lengthAdjust="spacing" textLength="74.252" x="10" y="20.9951">contracts</text></g><!--cluster api--><g class="cluster" data-qualified-name="contracts.api" data-source-line="5" id="ent0002"><path d="M846.5,49 L871.7676,49 A3.75,3.75 0 0 1 874.2676,51.5 L881.2676,71.2969 L1300.5,71.2969 A2.5,2.5 0 0 1 1303,73.7969 L1303,133.8 A2.5,2.5 0 0 1 1300.5,136.3 L846.5,136.3 A2.5,2.5 0 0 1 844,133.8 L844,51.5 A2.5,2.5 0 0 1 846.5,49" fill="none" style="stroke:#000000;stroke-width:1.5;"/><line style="stroke:#000000;stroke-width:1.5;" x1="844" x2="881.2676" y1="71.2969" y2="71.2969"/><text fill="#000000" font-family="sans-serif" font-size="14" font-weight="700" lengthAdjust="spacing" textLength="24.2676" x="848" y="63.9951">api</text></g><!--cluster application--><g class="cluster" data-qualified-name="contracts.application" data-source-line="10" id="ent0005"><path d="M32.5,160.3 L121.4102,160.3 A3.75,3.75 0 0 1 123.9102,162.8 L130.9102,182.5969 L1796.5,182.5969 A2.5,2.5 0 0 1 1799,185.0969 L1799,410.24 A2.5,2.5 0 0 1 1796.5,412.74 L32.5,412.74 A2.5,2.5 0 0 1 30,410.24 L30,162.8 A2.5,2.5 0 0 1 32.5,160.3" fill="none" style="stroke:#000000;stroke-width:1.5;"/><line style="stroke:#000000;stroke-width:1.5;" x1="30" x2="130.9102" y1="182.5969" y2="182.5969"/><text fill="#000000" font-family="sans-serif" font-size="14" font-weight="700" lengthAdjust="spacing" textLength="87.9102" x="34" y="175.2951">application</text></g><!--cluster management--><g class="cluster" data-qualified-name="contracts.application.management" data-source-line="12" id="ent0006"><path d="M56.5,203.3 L161.208,203.3 A3.75,3.75 0 0 1 163.708,205.8 L170.708,225.5969 L518.5,225.5969 A2.5,2.5 0 0 1 521,228.0969 L521,288.09 A2.5,2.5 0 0 1 518.5,290.59 L56.5,290.59 A2.5,2.5 0 0 1 54,288.09 L54,205.8 A2.5,2.5 0 0 1 56.5,203.3" fill="none" style="stroke:#000000;stroke-width:1.5;"/><line style="stroke:#000000;stroke-width:1.5;" x1="54" x2="170.708" y1="225.5969" y2="225.5969"/><text fill="#000000" font-family="sans-serif" font-size="14" font-weight="700" lengthAdjust="spacing" textLength="103.708" x="58" y="218.2951">management</text></g><!--cluster query--><g class="cluster" data-qualified-name="contracts.application.query" data-source-line="17" id="ent0009"><path d="M835.5,203.3 L882.0137,203.3 A3.75,3.75 0 0 1 884.5137,205.8 L891.5137,225.5969 L1772.5,225.5969 A2.5,2.5 0 0 1 1775,228.0969 L1775,288.09 A2.5,2.5 0 0 1 1772.5,290.59 L835.5,290.59 A2.5,2.5 0 0 1 833,288.09 L833,205.8 A2.5,2.5 0 0 1 835.5,203.3" fill="none" style="stroke:#000000;stroke-width:1.5;"/><line style="stroke:#000000;stroke-width:1.5;" x1="833" x2="891.5137" y1="225.5969" y2="225.5969"/><text fill="#000000" font-family="sans-serif" font-size="14" font-weight="700" lengthAdjust="spacing" textLength="45.5137" x="837" y="218.2951">query</text></g><!--cluster documents--><g class="cluster" data-qualified-name="contracts.application.documents" data-source-line="24" id="ent0014"><path d="M547.5,203.3 L635.4805,203.3 A3.75,3.75 0 0 1 637.9805,205.8 L644.9805,225.5969 L806.5,225.5969 A2.5,2.5 0 0 1 809,228.0969 L809,288.09 A2.5,2.5 0 0 1 806.5,290.59 L547.5,290.59 A2.5,2.5 0 0 1 545,288.09 L545,205.8 A2.5,2.5 0 0 1 547.5,203.3" fill="none" style="stroke:#000000;stroke-width:1.5;"/><line style="stroke:#000000;stroke-width:1.5;" x1="545" x2="644.9805" y1="225.5969" y2="225.5969"/><text fill="#000000" font-family="sans-serif" font-size="14" font-weight="700" lengthAdjust="spacing" textLength="86.9805" x="549" y="218.2951">documents</text></g><!--cluster domain--><g class="cluster" data-qualified-name="contracts.domain" data-source-line="31" id="ent0017"><path d="M1825.5,314.59 L1884.9404,314.59 A3.75,3.75 0 0 1 1887.4404,317.09 L1894.4404,336.8869 L2812.5,336.8869 A2.5,2.5 0 0 1 2815,339.3869 L2815,506.54 A2.5,2.5 0 0 1 2812.5,509.04 L1825.5,509.04 A2.5,2.5 0 0 1 1823,506.54 L1823,317.09 A2.5,2.5 0 0 1 1825.5,314.59" fill="none" style="stroke:#000000;stroke-width:1.5;"/><line style="stroke:#000000;stroke-width:1.5;" x1="1823" x2="1894.4404" y1="336.8869" y2="336.8869"/><text fill="#000000" font-family="sans-serif" font-size="14" font-weight="700" lengthAdjust="spacing" textLength="58.4404" x="1827" y="329.5851">domain</text></g><!--cluster infrastructure--><g class="cluster" data-qualified-name="contracts.infrastructure" data-source-line="44" id="ent0025"><path d="M2841.5,314.59 L2952.9619,314.59 A3.75,3.75 0 0 1 2955.4619,317.09 L2962.4619,336.8869 L3636.5,336.8869 A2.5,2.5 0 0 1 3639,339.3869 L3639,399.39 A2.5,2.5 0 0 1 3636.5,401.89 L2841.5,401.89 A2.5,2.5 0 0 1 2839,399.39 L2839,317.09 A2.5,2.5 0 0 1 2841.5,314.59" fill="none" style="stroke:#000000;stroke-width:1.5;"/><line style="stroke:#000000;stroke-width:1.5;" x1="2839" x2="2962.4619" y1="336.8869" y2="336.8869"/><text fill="#000000" font-family="sans-serif" font-size="14" font-weight="700" lengthAdjust="spacing" textLength="110.4619" x="2843" y="329.5851">infrastructure</text></g><!--entity ContractController--><g class="entity" data-qualified-name="contracts.api.ContractController" data-source-line="6" id="ent0003"><rect fill="#F1F1F1" height="36.2969" rx="2.5" ry="2.5" style="stroke:#181818;stroke-width:0.5;" width="149.3975" x="860.3" y="84"/><text fill="#000000" font-family="sans-serif" font-size="14" lengthAdjust="spacing" textLength="129.3975" x="870.3" y="106.9951">ContractController</text></g><!--entity CollaboratorContractsController--><g class="entity" data-qualified-name="contracts.api.CollaboratorContractsController" data-source-line="7" id="ent0004"><rect fill="#F1F1F1" height="36.2969" rx="2.5" ry="2.5" style="stroke:#181818;stroke-width:0.5;" width="242.9883" x="1044.51" y="84"/><text fill="#000000" font-family="sans-serif" font-size="14" lengthAdjust="spacing" textLength="222.9883" x="1054.51" y="106.9951">CollaboratorContractsController</text></g><!--entity ICollaboratorRepository--><g class="entity" data-qualified-name="contracts.application.ICollaboratorRepository" data-source-line="28" id="ent0016"><ellipse cx="164" cy="367.74" fill="#F1F1F1" rx="8" ry="8" style="stroke:#181818;stroke-width:0.5;"/><text fill="#000000" font-family="sans-serif" font-size="14" lengthAdjust="spacing" textLength="165.498" x="81.251" y="397.7351">ICollaboratorRepository</text></g><!--entity CreateContractUseCase--><g class="entity" data-qualified-name="contracts.application.management.CreateContractUseCase" data-source-line="13" id="ent0007"><rect fill="#F1F1F1" height="36.2969" rx="2.5" ry="2.5" style="stroke:#181818;stroke-width:0.5;" width="187.4668" x="70.27" y="238.3"/><text fill="#000000" font-family="sans-serif" font-size="14" lengthAdjust="spacing" textLength="167.4668" x="80.27" y="261.2951">CreateContractUseCase</text></g><!--entity TerminateContractUseCase--><g class="entity" data-qualified-name="contracts.application.management.TerminateContractUseCase" data-source-line="14" id="ent0008"><rect fill="#F1F1F1" height="36.2969" rx="2.5" ry="2.5" style="stroke:#181818;stroke-width:0.5;" width="212.6436" x="292.68" y="238.3"/><text fill="#000000" font-family="sans-serif" font-size="14" lengthAdjust="spacing" textLength="192.6436" x="302.68" y="261.2951">TerminateContractUseCase</text></g><!--entity GetContractUseCase--><g class="entity" data-qualified-name="contracts.application.query.GetContractUseCase" data-source-line="18" id="ent0010"><rect fill="#F1F1F1" height="36.2969" rx="2.5" ry="2.5" style="stroke:#181818;stroke-width:0.5;" width="165.5918" x="1056.2" y="238.3"/><text fill="#000000" font-family="sans-serif" font-size="14" lengthAdjust="spacing" textLength="145.5918" x="1066.2" y="261.2951">GetContractUseCase</text></g><!--entity GetActiveContractUseCase--><g class="entity" data-qualified-name="contracts.application.query.GetActiveContractUseCase" data-source-line="19" id="ent0011"><rect fill="#F1F1F1" height="36.2969" rx="2.5" ry="2.5" style="stroke:#181818;stroke-width:0.5;" width="209.1436" x="1256.43" y="238.3"/><text fill="#000000" font-family="sans-serif" font-size="14" lengthAdjust="spacing" textLength="189.1436" x="1266.43" y="261.2951">GetActiveContractUseCase</text></g><!--entity ListContractsUseCase--><g class="entity" data-qualified-name="contracts.application.query.ListContractsUseCase" data-source-line="20" id="ent0012"><rect fill="#F1F1F1" height="36.2969" rx="2.5" ry="2.5" style="stroke:#181818;stroke-width:0.5;" width="172.4072" x="848.8" y="238.3"/><text fill="#000000" font-family="sans-serif" font-size="14" lengthAdjust="spacing" textLength="152.4072" x="858.8" y="261.2951">ListContractsUseCase</text></g><!--entity ListCollaboratorContractsUseCase--><g class="entity" data-qualified-name="contracts.application.query.ListCollaboratorContractsUseCase" data-source-line="21" id="ent0013"><rect fill="#F1F1F1" height="36.2969" rx="2.5" ry="2.5" style="stroke:#181818;stroke-width:0.5;" width="258.7041" x="1500.65" y="238.3"/><text fill="#000000" font-family="sans-serif" font-size="14" lengthAdjust="spacing" textLength="238.7041" x="1510.65" y="261.2951">ListCollaboratorContractsUseCase</text></g><!--entity DownloadContractPdfUseCase--><g class="entity" data-qualified-name="contracts.application.documents.DownloadContractPdfUseCase" data-source-line="25" id="ent0015"><rect fill="#F1F1F1" height="36.2969" rx="2.5" ry="2.5" style="stroke:#181818;stroke-width:0.5;" width="232.4883" x="560.76" y="238.3"/><text fill="#000000" font-family="sans-serif" font-size="14" lengthAdjust="spacing" textLength="212.4883" x="570.76" y="261.2951">DownloadContractPdfUseCase</text></g><!--entity EmploymentContract--><g class="entity" data-qualified-name="contracts.domain.EmploymentContract" data-source-line="33" id="ent0018"><rect fill="#F1F1F1" height="36.2969" rx="2.5" ry="2.5" style="stroke:#181818;stroke-width:0.5;" width="168.9482" x="2069.53" y="349.59"/><text fill="#000000" font-family="sans-serif" font-size="14" lengthAdjust="spacing" textLength="148.9482" x="2079.53" y="372.5851">EmploymentContract</text></g><!--entity ContractType--><g class="entity" data-qualified-name="contracts.domain.ContractType" data-source-line="35" id="ent0019"><rect fill="#F1F1F1" height="36.2969" rx="2.5" ry="2.5" style="stroke:#181818;stroke-width:0.5;" width="114.5615" x="1838.72" y="456.74"/><text fill="#000000" font-family="sans-serif" font-size="14" lengthAdjust="spacing" textLength="94.5615" x="1848.72" y="479.7351">ContractType</text></g><!--entity ContractStatus--><g class="entity" data-qualified-name="contracts.domain.ContractStatus" data-source-line="36" id="ent0020"><rect fill="#F1F1F1" height="36.2969" rx="2.5" ry="2.5" style="stroke:#181818;stroke-width:0.5;" width="124.8359" x="1988.58" y="456.74"/><text fill="#000000" font-family="sans-serif" font-size="14" lengthAdjust="spacing" textLength="104.8359" x="1998.58" y="479.7351">ContractStatus</text></g><!--entity ContractTerminationReason--><g class="entity" data-qualified-name="contracts.domain.ContractTerminationReason" data-source-line="37" id="ent0021"><rect fill="#F1F1F1" height="36.2969" rx="2.5" ry="2.5" style="stroke:#181818;stroke-width:0.5;" width="216.5947" x="2148.7" y="456.74"/><text fill="#000000" font-family="sans-serif" font-size="14" lengthAdjust="spacing" textLength="196.5947" x="2158.7" y="479.7351">ContractTerminationReason</text></g><!--entity WorkScheduleType--><g class="entity" data-qualified-name="contracts.domain.WorkScheduleType" data-source-line="39" id="ent0022"><rect fill="#F1F1F1" height="36.2969" rx="2.5" ry="2.5" style="stroke:#181818;stroke-width:0.5;" width="154.9414" x="2400.53" y="456.74"/><text fill="#000000" font-family="sans-serif" font-size="14" lengthAdjust="spacing" textLength="134.9414" x="2410.53" y="479.7351">WorkScheduleType</text></g><!--entity PayPeriod--><g class="entity" data-qualified-name="contracts.domain.PayPeriod" data-source-line="40" id="ent0023"><rect fill="#F1F1F1" height="36.2969" rx="2.5" ry="2.5" style="stroke:#181818;stroke-width:0.5;" width="89.46" x="2590.27" y="456.74"/><text fill="#000000" font-family="sans-serif" font-size="14" lengthAdjust="spacing" textLength="69.46" x="2600.27" y="479.7351">PayPeriod</text></g><!--entity Currency--><g class="entity" data-qualified-name="contracts.domain.Currency" data-source-line="41" id="ent0024"><rect fill="#F1F1F1" height="36.2969" rx="2.5" ry="2.5" style="stroke:#181818;stroke-width:0.5;" width="83.6289" x="2715.19" y="456.74"/><text fill="#000000" font-family="sans-serif" font-size="14" lengthAdjust="spacing" textLength="63.6289" x="2725.19" y="479.7351">Currency</text></g><!--entity EmploymentContractRepository--><g class="entity" data-qualified-name="contracts.infrastructure.EmploymentContractRepository" data-source-line="46" id="ent0026"><rect fill="#F1F1F1" height="36.2969" rx="2.5" ry="2.5" style="stroke:#181818;stroke-width:0.5;" width="244.0205" x="2854.99" y="349.59"/><text fill="#000000" font-family="sans-serif" font-size="14" lengthAdjust="spacing" textLength="224.0205" x="2864.99" y="372.5851">EmploymentContractRepository</text></g><!--entity EmploymentContractReadRepository--><g class="entity" data-qualified-name="contracts.infrastructure.EmploymentContractReadRepository" data-source-line="47" id="ent0027"><rect fill="#F1F1F1" height="36.2969" rx="2.5" ry="2.5" style="stroke:#181818;stroke-width:0.5;" width="279.8271" x="3343.09" y="349.59"/><text fill="#000000" font-family="sans-serif" font-size="14" lengthAdjust="spacing" textLength="259.8271" x="3353.09" y="372.5851">EmploymentContractReadRepository</text></g><!--entity ContractPdfGenerator--><g class="entity" data-qualified-name="contracts.infrastructure.ContractPdfGenerator" data-source-line="49" id="ent0028"><rect fill="#F1F1F1" height="36.2969" rx="2.5" ry="2.5" style="stroke:#181818;stroke-width:0.5;" width="173.5762" x="3134.21" y="349.59"/><text fill="#000000" font-family="sans-serif" font-size="14" lengthAdjust="spacing" textLength="153.5762" x="3144.21" y="372.5851">ContractPdfGenerator</text></g><!--link ContractController to CreateContractUseCase--><g class="link" data-entity-1="ent0003" data-entity-2="ent0007" data-link-type="dependency" data-source-line="57" id="lnk29"><path d="M859.95,102.56 C709.83,102.38 378.14,107.28 275,152.3 C231.84,171.13 197.8026,210.0847 179.4026,234.2047" fill="none" id="ContractController-to-CreateContractUseCase" style="stroke:#181818;stroke-width:1;"/><polygon fill="#181818" points="176.37,238.18,185.009,233.4505,179.4026,234.2047,178.6484,228.5983,176.37,238.18" style="stroke:#181818;stroke-width:1;stroke-linejoin:miter;stroke-miterlimit:10;"/></g><!--link ContractController to TerminateContractUseCase--><g class="link" data-entity-1="ent0003" data-entity-2="ent0008" data-link-type="dependency" data-source-line="58" id="lnk30"><path d="M860.12,108.25 C763.4,115.57 600.83,130.63 545,152.3 C493.5,172.29 446.7183,210.9741 420.7483,234.7441" fill="none" id="ContractController-to-TerminateContractUseCase" style="stroke:#181818;stroke-width:1;"/><polygon fill="#181818" points="417.06,238.12,426.3996,234.9941,420.7483,234.7441,420.9983,229.0928,417.06,238.12" style="stroke:#181818;stroke-width:1;stroke-linejoin:miter;stroke-miterlimit:10;"/></g><!--link ContractController to GetContractUseCase--><g class="link" data-entity-1="ent0003" data-entity-2="ent0010" data-link-type="dependency" data-source-line="60" id="lnk31"><path d="M981.24,120.74 C1000.01,128.94 1021.38,139.69 1039,152.3 C1074.09,177.41 1104.2767,211.8016 1122.2067,233.9816" fill="none" id="ContractController-to-GetContractUseCase" style="stroke:#181818;stroke-width:1;"/><polygon fill="#181818" points="1125.35,237.87,1122.8027,228.3562,1122.2067,233.9816,1116.5813,233.3856,1125.35,237.87" style="stroke:#181818;stroke-width:1;stroke-linejoin:miter;stroke-miterlimit:10;"/></g><!--link ContractController to ListContractsUseCase--><g class="link" data-entity-1="ent0003" data-entity-2="ent0012" data-link-type="dependency" data-source-line="61" id="lnk32"><path d="M935,120.62 C935,150 935,203.94 935,233.18" fill="none" id="ContractController-to-ListContractsUseCase" style="stroke:#181818;stroke-width:1;"/><polygon fill="#181818" points="935,238.18,939,229.18,935,233.18,931,229.18,935,238.18" style="stroke:#181818;stroke-width:1;stroke-linejoin:miter;stroke-miterlimit:10;"/></g><!--link ContractController to DownloadContractPdfUseCase--><g class="link" data-entity-1="ent0003" data-entity-2="ent0015" data-link-type="dependency" data-source-line="63" id="lnk33"><path d="M895.62,120.61 C876.41,129.5 853.17,140.84 833,152.3 C784.72,179.72 735.4151,213.6329 705.2851,235.0529" fill="none" id="ContractController-to-DownloadContractPdfUseCase" style="stroke:#181818;stroke-width:1;"/><polygon fill="#181818" points="701.21,237.95,710.8629,235.9953,705.2851,235.0529,706.2276,229.4751,701.21,237.95" style="stroke:#181818;stroke-width:1;stroke-linejoin:miter;stroke-miterlimit:10;"/></g><!--link CollaboratorContractsController to GetActiveContractUseCase--><g class="link" data-entity-1="ent0004" data-entity-2="ent0011" data-link-type="dependency" data-source-line="65" id="lnk34"><path d="M1193.53,120.66 C1207.42,129.75 1224.37,141.24 1239,152.3 C1276.62,180.73 1314.3403,213.56 1337.9503,234.64" fill="none" id="CollaboratorContractsController-to-GetActiveContractUseCase" style="stroke:#181818;stroke-width:1;"/><polygon fill="#181818" points="1341.68,237.97,1337.6305,228.9921,1337.9503,234.64,1332.3025,234.9597,1341.68,237.97" style="stroke:#181818;stroke-width:1;stroke-linejoin:miter;stroke-miterlimit:10;"/></g><!--link CollaboratorContractsController to ListCollaboratorContractsUseCase--><g class="link" data-entity-1="ent0004" data-entity-2="ent0013" data-link-type="dependency" data-source-line="66" id="lnk35"><path d="M1287.99,109 C1348.4,115.13 1421.39,127.49 1483,152.3 C1534.19,172.91 1581.1423,210.9977 1607.5423,234.5977" fill="none" id="CollaboratorContractsController-to-ListCollaboratorContractsUseCase" style="stroke:#181818;stroke-width:1;"/><polygon fill="#181818" points="1611.27,237.93,1607.226,228.9497,1607.5423,234.5977,1601.8943,234.914,1611.27,237.93" style="stroke:#181818;stroke-width:1;stroke-linejoin:miter;stroke-miterlimit:10;"/></g><!--link CreateContractUseCase to EmploymentContract--><g class="link" data-entity-1="ent0007" data-entity-2="ent0018" data-link-type="dependency" data-source-line="72" id="lnk36"><path d="M201.34,275.02 C222.45,283.99 249.62,293.97 275,298.59 C358.3,313.76 1714.65,299.28 1799,306.59 C1893.82,314.82 1996.5211,333.5396 2068.1611,348.1696" fill="none" id="CreateContractUseCase-to-EmploymentContract" style="stroke:#181818;stroke-width:1;"/><polygon fill="#181818" points="2073.06,349.17,2065.0423,343.4501,2068.1611,348.1696,2063.4417,351.2883,2073.06,349.17" style="stroke:#181818;stroke-width:1;stroke-linejoin:miter;stroke-miterlimit:10;"/></g><!--link CreateContractUseCase to EmploymentContractRepository--><g class="link" data-entity-1="ent0007" data-entity-2="ent0026" data-link-type="dependency" data-source-line="73" id="lnk37"><path d="M201.34,275.04 C222.45,284.02 249.62,294 275,298.59 C344.43,311.16 2745.58,294.01 2815,306.59 C2860.02,314.76 2904.3404,332.4661 2936.5004,347.1261" fill="none" id="CreateContractUseCase-to-EmploymentContractRepository" style="stroke:#181818;stroke-width:1;"/><polygon fill="#181818" points="2941.05,349.2,2934.5199,341.8273,2936.5004,347.1261,2931.2016,349.1066,2941.05,349.2" style="stroke:#181818;stroke-width:1;stroke-linejoin:miter;stroke-miterlimit:10;"/></g><!--link CreateContractUseCase to ICollaboratorRepository--><g class="link" data-entity-1="ent0007" data-entity-2="ent0016" data-link-type="dependency" data-source-line="74" id="lnk38"><path d="M164,275.01 C164,299.14 164,336.56 164,353.96" fill="none" id="CreateContractUseCase-to-ICollaboratorRepository" style="stroke:#181818;stroke-width:1;"/><polygon fill="#181818" points="164,358.96,168,349.96,164,353.96,160,349.96,164,358.96" style="stroke:#181818;stroke-width:1;stroke-linejoin:miter;stroke-miterlimit:10;"/></g><!--link TerminateContractUseCase to EmploymentContract--><g class="link" data-entity-1="ent0008" data-entity-2="ent0018" data-link-type="dependency" data-source-line="76" id="lnk39"><path d="M448.63,275.01 C476.55,283.99 512.28,293.96 545,298.59 C613.98,308.35 1729.6,300.53 1799,306.59 C1893.66,314.86 1996.1607,333.5215 2067.8007,348.1215" fill="none" id="TerminateContractUseCase-to-EmploymentContract" style="stroke:#181818;stroke-width:1;"/><polygon fill="#181818" points="2072.7,349.12,2064.68,343.4033,2067.8007,348.1215,2063.0825,351.2422,2072.7,349.12" style="stroke:#181818;stroke-width:1;stroke-linejoin:miter;stroke-miterlimit:10;"/></g><!--link TerminateContractUseCase to EmploymentContractRepository--><g class="link" data-entity-1="ent0008" data-entity-2="ent0026" data-link-type="dependency" data-source-line="77" id="lnk40"><path d="M448.62,275.05 C476.54,284.03 512.27,294.01 545,298.59 C607.45,307.34 2752.96,295.34 2815,306.59 C2860.02,314.76 2904.3404,332.4661 2936.5004,347.1261" fill="none" id="TerminateContractUseCase-to-EmploymentContractRepository" style="stroke:#181818;stroke-width:1;"/><polygon fill="#181818" points="2941.05,349.2,2934.5199,341.8273,2936.5004,347.1261,2931.2016,349.1066,2941.05,349.2" style="stroke:#181818;stroke-width:1;stroke-linejoin:miter;stroke-miterlimit:10;"/></g><!--link GetContractUseCase to EmploymentContractReadRepository--><g class="link" data-entity-1="ent0010" data-entity-2="ent0027" data-link-type="dependency" data-source-line="83" id="lnk41"><path d="M1172.23,274.92 C1191.22,283.92 1215.8,293.96 1239,298.59 C1352.65,321.29 3211.06,285.41 3325,306.59 C3369.01,314.78 3412.1213,332.4309 3443.4513,347.0909" fill="none" id="GetContractUseCase-to-EmploymentContractReadRepository" style="stroke:#181818;stroke-width:1;"/><polygon fill="#181818" points="3447.98,349.21,3441.5236,341.7726,3443.4513,347.0909,3438.133,349.0186,3447.98,349.21" style="stroke:#181818;stroke-width:1;stroke-linejoin:miter;stroke-miterlimit:10;"/></g><!--link GetActiveContractUseCase to EmploymentContractReadRepository--><g class="link" data-entity-1="ent0011" data-entity-2="ent0027" data-link-type="dependency" data-source-line="85" id="lnk42"><path d="M1402.21,275.03 C1425.47,284.01 1455.33,293.99 1483,298.59 C1583.95,315.39 3224.39,287.87 3325,306.59 C3369,314.79 3412.1207,332.4421 3443.4507,347.0921" fill="none" id="GetActiveContractUseCase-to-EmploymentContractReadRepository" style="stroke:#181818;stroke-width:1;"/><polygon fill="#181818" points="3447.98,349.21,3441.5216,341.7743,3443.4507,347.0921,3438.133,349.0212,3447.98,349.21" style="stroke:#181818;stroke-width:1;stroke-linejoin:miter;stroke-miterlimit:10;"/></g><!--link ListContractsUseCase to EmploymentContractReadRepository--><g class="link" data-entity-1="ent0012" data-entity-2="ent0027" data-link-type="dependency" data-source-line="87" id="lnk43"><path d="M969.63,274.93 C989.41,283.93 1014.97,293.97 1039,298.59 C1101.36,310.6 3262.57,295 3325,306.59 C3369.01,314.77 3412.1213,332.4309 3443.4513,347.0909" fill="none" id="ListContractsUseCase-to-EmploymentContractReadRepository" style="stroke:#181818;stroke-width:1;"/><polygon fill="#181818" points="3447.98,349.21,3441.5236,341.7726,3443.4513,347.0909,3438.133,349.0186,3447.98,349.21" style="stroke:#181818;stroke-width:1;stroke-linejoin:miter;stroke-miterlimit:10;"/></g><!--link ListCollaboratorContractsUseCase to EmploymentContractReadRepository--><g class="link" data-entity-1="ent0013" data-entity-2="ent0027" data-link-type="dependency" data-source-line="89" id="lnk44"><path d="M1759.83,258.72 C2129.94,262.69 3173.41,276.44 3325,306.59 C3368.61,315.27 3411.3986,332.6481 3442.7686,347.0981" fill="none" id="ListCollaboratorContractsUseCase-to-EmploymentContractReadRepository" style="stroke:#181818;stroke-width:1;"/><polygon fill="#181818" points="3447.31,349.19,3440.8091,341.7915,3442.7686,347.0981,3437.462,349.0577,3447.31,349.19" style="stroke:#181818;stroke-width:1;stroke-linejoin:miter;stroke-miterlimit:10;"/></g><!--link DownloadContractPdfUseCase to EmploymentContractReadRepository--><g class="link" data-entity-1="ent0015" data-entity-2="ent0027" data-link-type="dependency" data-source-line="95" id="lnk45"><path d="M730.11,275.06 C759.97,284.04 798.15,294.02 833,298.59 C901.63,307.61 3256.94,293.97 3325,306.59 C3369.01,314.76 3412.121,332.4215 3443.461,347.0815" fill="none" id="DownloadContractPdfUseCase-to-EmploymentContractReadRepository" style="stroke:#181818;stroke-width:1;"/><polygon fill="#181818" points="3447.99,349.2,3441.5326,341.7634,3443.461,347.0815,3438.143,349.0098,3447.99,349.2" style="stroke:#181818;stroke-width:1;stroke-linejoin:miter;stroke-miterlimit:10;"/></g><!--link DownloadContractPdfUseCase to ContractPdfGenerator--><g class="link" data-entity-1="ent0015" data-entity-2="ent0028" data-link-type="dependency" data-source-line="96" id="lnk46"><path d="M730.11,275.05 C759.98,284.03 798.15,294.01 833,298.59 C895.9,306.86 3055.75,290.04 3117,306.59 C3147.61,314.87 3174.486,331.5796 3194.566,346.1796" fill="none" id="DownloadContractPdfUseCase-to-ContractPdfGenerator" style="stroke:#181818;stroke-width:1;"/><polygon fill="#181818" points="3198.61,349.12,3193.6831,340.5921,3194.566,346.1796,3188.9784,347.0625,3198.61,349.12" style="stroke:#181818;stroke-width:1;stroke-linejoin:miter;stroke-miterlimit:10;"/></g><!--link EmploymentContract to ContractType--><g class="link" data-entity-1="ent0018" data-entity-2="ent0019" data-link-type="dependency" data-source-line="102" id="lnk47"><path d="M2110.82,386.34 C2063.05,405.81 1991.1804,435.1033 1943.5204,454.5233" fill="none" id="EmploymentContract-to-ContractType" style="stroke:#181818;stroke-width:1;"/><polygon fill="#181818" points="1938.89,456.41,1948.734,456.7182,1943.5204,454.5233,1945.7153,449.3096,1938.89,456.41" style="stroke:#181818;stroke-width:1;stroke-linejoin:miter;stroke-miterlimit:10;"/></g><!--link EmploymentContract to ContractStatus--><g class="link" data-entity-1="ent0018" data-entity-2="ent0020" data-link-type="dependency" data-source-line="103" id="lnk48"><path d="M2136.99,386.11 C2117.91,405.59 2090.6296,433.4389 2071.5296,452.9289" fill="none" id="EmploymentContract-to-ContractStatus" style="stroke:#181818;stroke-width:1;"/><polygon fill="#181818" points="2068.03,456.5,2077.1862,452.8718,2071.5296,452.9289,2071.4725,447.2724,2068.03,456.5" style="stroke:#181818;stroke-width:1;stroke-linejoin:miter;stroke-miterlimit:10;"/></g><!--link EmploymentContract to ContractTerminationReason--><g class="link" data-entity-1="ent0018" data-entity-2="ent0021" data-link-type="dependency" data-source-line="104" id="lnk49"><path d="M2171.01,386.11 C2190.09,405.59 2217.3704,433.4389 2236.4704,452.9289" fill="none" id="EmploymentContract-to-ContractTerminationReason" style="stroke:#181818;stroke-width:1;"/><polygon fill="#181818" points="2239.97,456.5,2236.5275,447.2724,2236.4704,452.9289,2230.8138,452.8718,2239.97,456.5" style="stroke:#181818;stroke-width:1;stroke-linejoin:miter;stroke-miterlimit:10;"/></g><!--link EmploymentContract to WorkScheduleType--><g class="link" data-entity-1="ent0018" data-entity-2="ent0022" data-link-type="dependency" data-source-line="106" id="lnk50"><path d="M2208.23,386.34 C2268.13,405.78 2359.244,435.357 2419.104,454.777" fill="none" id="EmploymentContract-to-WorkScheduleType" style="stroke:#181818;stroke-width:1;"/><polygon fill="#181818" points="2423.86,456.32,2416.5336,449.7379,2419.104,454.777,2414.0649,457.3475,2423.86,456.32" style="stroke:#181818;stroke-width:1;stroke-linejoin:miter;stroke-miterlimit:10;"/></g><!--link EmploymentContract to PayPeriod--><g class="link" data-entity-1="ent0018" data-entity-2="ent0023" data-link-type="dependency" data-source-line="107" id="lnk51"><path d="M2238.62,384.89 C2323.5,401.47 2457.8,428.74 2573,456.74 C2578.53,458.09 2579.4871,458.298 2585.2171,459.818" fill="none" id="EmploymentContract-to-PayPeriod" style="stroke:#181818;stroke-width:1;"/><polygon fill="#181818" points="2590.05,461.1,2582.3765,454.9261,2585.2171,459.818,2580.3253,462.6587,2590.05,461.1" style="stroke:#181818;stroke-width:1;stroke-linejoin:miter;stroke-miterlimit:10;"/></g><!--link EmploymentContract to Currency--><g class="link" data-entity-1="ent0018" data-entity-2="ent0024" data-link-type="dependency" data-source-line="108" id="lnk52"><path d="M2238.77,379.33 C2346.12,393.46 2536.45,420.92 2697,456.74 C2702.82,458.04 2704.0725,458.2681 2710.0425,459.8781" fill="none" id="EmploymentContract-to-Currency" style="stroke:#181818;stroke-width:1;"/><polygon fill="#181818" points="2714.87,461.18,2707.222,454.9746,2710.0425,459.8781,2705.1389,462.6986,2714.87,461.18" style="stroke:#181818;stroke-width:1;stroke-linejoin:miter;stroke-miterlimit:10;"/></g><?plantuml-src bLLDJyCm3BttLqHSEF4JG48C8IIG1XlYW7emgGVHqgGuAQX2_7TIHhPsoqVNIwlQVdwndsEp5ge1WffnNJTQeR8BsqbaXDo2UfDO50tmDRmXE-5QMG9kpGdxBWh6jWPeHF-BkUVbwj_fxwsbH2gzGKfurGHMatSoOw-VFTH62WvMQFMVS62iGRbtxVZwp7qAGh3emPyCNe71qbkNIBLGCOUVlGGVBL8tmBv16mDsfajknMSqyvqmss0JDWPgawHNQTxsfpS3YZFzfQI6oYFCgrK8GoYBj0AEx7QOzn4RROJxw0uwKUaQnAu9BzTr8tNNf_UfocBS_MNNO3d-jR1WMxFtq_V4zVWHmMZbWPurhHVy7QjMuW1i3jqSIUZAuxH4g7Xtg1wXLWJ6KijjIvZYlZju6NU1QkWsFeIhymqg_AlYXeYZSihEOu-pxNHlafv5Q9xOsTb5LEpnWBZ-4q4XsSUzmq9F1AGaMsIlZ2t5oFXD1CXFOAQRzzlBADVCOCysB493TMJ0KAAfqDZS5t6D93WU7JEQf7Hb7zmjB30t8m6HndFlJN9SFjCXWh8_DZoXlybGwMBE_Cx8b3Cnb5EPv372bsVs1FqYoj0FY7ISShDFydv-Oqr03AonUDJXRelx3XPUWeRVWhy0?></g></svg>