<svg xmlns="http://www.w3.org/2000/svg" xmlns:xlink="http://www.w3.org/1999/xlink" contentStyleType="text/css" data-diagram-type="DESCRIPTION" height="548px" preserveAspectRatio="none" style="width:3610px;height:548px;background:#FFFFFF;" version="1.1" viewBox="0 0 3610 548" width="3610px" zoomAndPan="magnify"><?plantuml 1.2026.5?><defs/><g><!--cluster claims--><g class="cluster" data-qualified-name="claims" data-source-line="3" id="ent0001"><path d="M8.5,6 L59.7646,6 A3.75,3.75 0 0 1 62.2646,8.5 L69.2646,28.2969 L3592.5,28.2969 A2.5,2.5 0 0 1 3595,30.7969 L3595,530.54 A2.5,2.5 0 0 1 3592.5,533.04 L8.5,533.04 A2.5,2.5 0 0 1 6,530.54 L6,8.5 A2.5,2.5 0 0 1 8.5,6" fill="none" style="stroke:#000000;stroke-width:1.5;"/><line style="stroke:#000000;stroke-width:1.5;" x1="6" x2="69.2646" y1="28.2969" y2="28.2969"/><text fill="#000000" font-family="sans-serif" font-size="14" font-weight="700" lengthAdjust="spacing" textLength="50.2646" x="10" y="20.9951">claims</text></g><!--cluster api--><g class="cluster" data-qualified-name="claims.api" data-source-line="5" id="ent0002"><path d="M1237.5,49 L1262.7676,49 A3.75,3.75 0 0 1 1265.2676,51.5 L1272.2676,71.2969 L1620.5,71.2969 A2.5,2.5 0 0 1 1623,73.7969 L1623,133.8 A2.5,2.5 0 0 1 1620.5,136.3 L1237.5,136.3 A2.5,2.5 0 0 1 1235,133.8 L1235,51.5 A2.5,2.5 0 0 1 1237.5,49" fill="none" style="stroke:#000000;stroke-width:1.5;"/><line style="stroke:#000000;stroke-width:1.5;" x1="1235" x2="1272.2676" y1="71.2969" y2="71.2969"/><text fill="#000000" font-family="sans-serif" font-size="14" font-weight="700" lengthAdjust="spacing" textLength="24.2676" x="1239" y="63.9951">api</text></g><!--cluster application--><g class="cluster" data-qualified-name="claims.application" data-source-line="10" id="ent0005"><path d="M32.5,160.3 L121.4102,160.3 A3.75,3.75 0 0 1 123.9102,162.8 L130.9102,182.5969 L2639.5,182.5969 A2.5,2.5 0 0 1 2642,185.0969 L2642,410.24 A2.5,2.5 0 0 1 2639.5,412.74 L32.5,412.74 A2.5,2.5 0 0 1 30,410.24 L30,162.8 A2.5,2.5 0 0 1 32.5,160.3" fill="none" style="stroke:#000000;stroke-width:1.5;"/><line style="stroke:#000000;stroke-width:1.5;" x1="30" x2="130.9102" y1="182.5969" y2="182.5969"/><text fill="#000000" font-family="sans-serif" font-size="14" font-weight="700" lengthAdjust="spacing" textLength="87.9102" x="34" y="175.2951">application</text></g><!--cluster submissions--><g class="cluster" data-qualified-name="claims.application.submissions" data-source-line="12" id="ent0006"><path d="M1338.5,203.3 L1436.5908,203.3 A3.75,3.75 0 0 1 1439.0908,205.8 L1446.0908,225.5969 L2019.5,225.5969 A2.5,2.5 0 0 1 2022,228.0969 L2022,288.09 A2.5,2.5 0 0 1 2019.5,290.59 L1338.5,290.59 A2.5,2.5 0 0 1 1336,288.09 L1336,205.8 A2.5,2.5 0 0 1 1338.5,203.3" fill="none" style="stroke:#000000;stroke-width:1.5;"/><line style="stroke:#000000;stroke-width:1.5;" x1="1336" x2="1446.0908" y1="225.5969" y2="225.5969"/><text fill="#000000" font-family="sans-serif" font-size="14" font-weight="700" lengthAdjust="spacing" textLength="97.0908" x="1340" y="218.2951">submissions</text></g><!--cluster reviews--><g class="cluster" data-qualified-name="claims.application.reviews" data-source-line="19" id="ent0010"><path d="M56.5,203.3 L118.5859,203.3 A3.75,3.75 0 0 1 121.0859,205.8 L128.0859,225.5969 L1309.5,225.5969 A2.5,2.5 0 0 1 1312,228.0969 L1312,288.09 A2.5,2.5 0 0 1 1309.5,290.59 L56.5,290.59 A2.5,2.5 0 0 1 54,288.09 L54,205.8 A2.5,2.5 0 0 1 56.5,203.3" fill="none" style="stroke:#000000;stroke-width:1.5;"/><line style="stroke:#000000;stroke-width:1.5;" x1="54" x2="128.0859" y1="225.5969" y2="225.5969"/><text fill="#000000" font-family="sans-serif" font-size="14" font-weight="700" lengthAdjust="spacing" textLength="61.0859" x="58" y="218.2951">reviews</text></g><!--cluster retrievals--><g class="cluster" data-qualified-name="claims.application.retrievals" data-source-line="29" id="ent0017"><path d="M2048.5,203.3 L2125.4951,203.3 A3.75,3.75 0 0 1 2127.9951,205.8 L2134.9951,225.5969 L2615.5,225.5969 A2.5,2.5 0 0 1 2618,228.0969 L2618,288.09 A2.5,2.5 0 0 1 2615.5,290.59 L2048.5,290.59 A2.5,2.5 0 0 1 2046,288.09 L2046,205.8 A2.5,2.5 0 0 1 2048.5,203.3" fill="none" style="stroke:#000000;stroke-width:1.5;"/><line style="stroke:#000000;stroke-width:1.5;" x1="2046" x2="2134.9951" y1="225.5969" y2="225.5969"/><text fill="#000000" font-family="sans-serif" font-size="14" font-weight="700" lengthAdjust="spacing" textLength="75.9951" x="2050" y="218.2951">retrievals</text></g><!--cluster domain--><g class="cluster" data-qualified-name="claims.domain" data-source-line="43" id="ent0026"><path d="M2668.5,314.59 L2727.9404,314.59 A3.75,3.75 0 0 1 2730.4404,317.09 L2737.4404,336.8869 L3172.5,336.8869 A2.5,2.5 0 0 1 3175,339.3869 L3175,506.54 A2.5,2.5 0 0 1 3172.5,509.04 L2668.5,509.04 A2.5,2.5 0 0 1 2666,506.54 L2666,317.09 A2.5,2.5 0 0 1 2668.5,314.59" fill="none" style="stroke:#000000;stroke-width:1.5;"/><line style="stroke:#000000;stroke-width:1.5;" x1="2666" x2="2737.4404" y1="336.8869" y2="336.8869"/><text fill="#000000" font-family="sans-serif" font-size="14" font-weight="700" lengthAdjust="spacing" textLength="58.4404" x="2670" y="329.5851">domain</text></g><!--cluster infrastructure--><g class="cluster" data-qualified-name="claims.infrastructure" data-source-line="51" id="ent0031"><path d="M3201.5,314.59 L3312.9619,314.59 A3.75,3.75 0 0 1 3315.4619,317.09 L3322.4619,336.8869 L3568.5,336.8869 A2.5,2.5 0 0 1 3571,339.3869 L3571,506.54 A2.5,2.5 0 0 1 3568.5,509.04 L3201.5,509.04 A2.5,2.5 0 0 1 3199,506.54 L3199,317.09 A2.5,2.5 0 0 1 3201.5,314.59" fill="none" style="stroke:#000000;stroke-width:1.5;"/><line style="stroke:#000000;stroke-width:1.5;" x1="3199" x2="3322.4619" y1="336.8869" y2="336.8869"/><text fill="#000000" font-family="sans-serif" font-size="14" font-weight="700" lengthAdjust="spacing" textLength="110.4619" x="3203" y="329.5851">infrastructure</text></g><!--entity ClaimController--><g class="entity" data-qualified-name="claims.api.ClaimController" data-source-line="6" id="ent0003"><rect fill="#F1F1F1" height="36.2969" rx="2.5" ry="2.5" style="stroke:#181818;stroke-width:0.5;" width="128.9443" x="1250.53" y="84"/><text fill="#000000" font-family="sans-serif" font-size="14" lengthAdjust="spacing" textLength="108.9443" x="1260.53" y="106.9951">ClaimController</text></g><!--entity ClaimEvidenceController--><g class="entity" data-qualified-name="claims.api.ClaimEvidenceController" data-source-line="7" id="ent0004"><rect fill="#F1F1F1" height="36.2969" rx="2.5" ry="2.5" style="stroke:#181818;stroke-width:0.5;" width="192.6484" x="1414.68" y="84"/><text fill="#000000" font-family="sans-serif" font-size="14" lengthAdjust="spacing" textLength="172.6484" x="1424.68" y="106.9951">ClaimEvidenceController</text></g><!--entity ClaimMapper--><g class="entity" data-qualified-name="claims.application.ClaimMapper" data-source-line="35" id="ent0021"><rect fill="#F1F1F1" height="36.2969" rx="2.5" ry="2.5" style="stroke:#181818;stroke-width:0.5;" width="112.5723" x="912.71" y="349.59"/><text fill="#000000" font-family="sans-serif" font-size="14" lengthAdjust="spacing" textLength="92.5723" x="922.71" y="372.5851">ClaimMapper</text></g><!--entity ICompanyRepository--><g class="entity" data-qualified-name="claims.application.ICompanyRepository" data-source-line="37" id="ent0022"><ellipse cx="1641" cy="367.74" fill="#F1F1F1" rx="8" ry="8" style="stroke:#181818;stroke-width:0.5;"/><text fill="#000000" font-family="sans-serif" font-size="14" lengthAdjust="spacing" textLength="145.8037" x="1568.0981" y="397.7351">ICompanyRepository</text></g><!--entity ICollaboratorRepository--><g class="entity" data-qualified-name="claims.application.ICollaboratorRepository" data-source-line="38" id="ent0023"><ellipse cx="2102" cy="367.74" fill="#F1F1F1" rx="8" ry="8" style="stroke:#181818;stroke-width:0.5;"/><text fill="#000000" font-family="sans-serif" font-size="14" lengthAdjust="spacing" textLength="165.498" x="2019.251" y="397.7351">ICollaboratorRepository</text></g><!--entity IUserRepository--><g class="entity" data-qualified-name="claims.application.IUserRepository" data-source-line="39" id="ent0024"><ellipse cx="153" cy="367.74" fill="#F1F1F1" rx="8" ry="8" style="stroke:#181818;stroke-width:0.5;"/><text fill="#000000" font-family="sans-serif" font-size="14" lengthAdjust="spacing" textLength="111.1113" x="97.4443" y="397.7351">IUserRepository</text></g><!--entity IFileStorage--><g class="entity" data-qualified-name="claims.application.IFileStorage" data-source-line="40" id="ent0025"><ellipse cx="1883" cy="367.74" fill="#F1F1F1" rx="8" ry="8" style="stroke:#181818;stroke-width:0.5;"/><text fill="#000000" font-family="sans-serif" font-size="14" lengthAdjust="spacing" textLength="83.3506" x="1841.3247" y="397.7351">IFileStorage</text></g><!--entity CreateClaimUseCase--><g class="entity" data-qualified-name="claims.application.submissions.CreateClaimUseCase" data-source-line="14" id="ent0007"><rect fill="#F1F1F1" height="36.2969" rx="2.5" ry="2.5" style="stroke:#181818;stroke-width:0.5;" width="167.0137" x="1557.49" y="238.3"/><text fill="#000000" font-family="sans-serif" font-size="14" lengthAdjust="spacing" textLength="147.0137" x="1567.49" y="261.2951">CreateClaimUseCase</text></g><!--entity UpdateClaimUseCase--><g class="entity" data-qualified-name="claims.application.submissions.UpdateClaimUseCase" data-source-line="15" id="ent0008"><rect fill="#F1F1F1" height="36.2969" rx="2.5" ry="2.5" style="stroke:#181818;stroke-width:0.5;" width="170.8896" x="1351.56" y="238.3"/><text fill="#000000" font-family="sans-serif" font-size="14" lengthAdjust="spacing" textLength="150.8896" x="1361.56" y="261.2951">UpdateClaimUseCase</text></g><!--entity AttachEvidenceToClaimUseCase--><g class="entity" data-qualified-name="claims.application.submissions.AttachEvidenceToClaimUseCase" data-source-line="16" id="ent0009"><rect fill="#F1F1F1" height="36.2969" rx="2.5" ry="2.5" style="stroke:#181818;stroke-width:0.5;" width="246.7139" x="1759.64" y="238.3"/><text fill="#000000" font-family="sans-serif" font-size="14" lengthAdjust="spacing" textLength="226.7139" x="1769.64" y="261.2951">AttachEvidenceToClaimUseCase</text></g><!--entity AssignClaimUseCase--><g class="entity" data-qualified-name="claims.application.reviews.AssignClaimUseCase" data-source-line="21" id="ent0011"><rect fill="#F1F1F1" height="36.2969" rx="2.5" ry="2.5" style="stroke:#181818;stroke-width:0.5;" width="166.002" x="70" y="238.3"/><text fill="#000000" font-family="sans-serif" font-size="14" lengthAdjust="spacing" textLength="146.002" x="80" y="261.2951">AssignClaimUseCase</text></g><!--entity CancelClaimUseCase--><g class="entity" data-qualified-name="claims.application.reviews.CancelClaimUseCase" data-source-line="22" id="ent0012"><rect fill="#F1F1F1" height="36.2969" rx="2.5" ry="2.5" style="stroke:#181818;stroke-width:0.5;" width="167.6152" x="271.19" y="238.3"/><text fill="#000000" font-family="sans-serif" font-size="14" lengthAdjust="spacing" textLength="147.6152" x="281.19" y="261.2951">CancelClaimUseCase</text></g><!--entity RejectClaimUseCase--><g class="entity" data-qualified-name="claims.application.reviews.RejectClaimUseCase" data-source-line="23" id="ent0013"><rect fill="#F1F1F1" height="36.2969" rx="2.5" ry="2.5" style="stroke:#181818;stroke-width:0.5;" width="164.2178" x="473.89" y="238.3"/><text fill="#000000" font-family="sans-serif" font-size="14" lengthAdjust="spacing" textLength="144.2178" x="483.89" y="261.2951">RejectClaimUseCase</text></g><!--entity ReopenClaimUseCase--><g class="entity" data-qualified-name="claims.application.reviews.ReopenClaimUseCase" data-source-line="24" id="ent0014"><rect fill="#F1F1F1" height="36.2969" rx="2.5" ry="2.5" style="stroke:#181818;stroke-width:0.5;" width="173.4668" x="673.27" y="238.3"/><text fill="#000000" font-family="sans-serif" font-size="14" lengthAdjust="spacing" textLength="153.4668" x="683.27" y="261.2951">ReopenClaimUseCase</text></g><!--entity ResolveClaimUseCase--><g class="entity" data-qualified-name="claims.application.reviews.ResolveClaimUseCase" data-source-line="25" id="ent0015"><rect fill="#F1F1F1" height="36.2969" rx="2.5" ry="2.5" style="stroke:#181818;stroke-width:0.5;" width="175.1758" x="881.41" y="238.3"/><text fill="#000000" font-family="sans-serif" font-size="14" lengthAdjust="spacing" textLength="155.1758" x="891.41" y="261.2951">ResolveClaimUseCase</text></g><!--entity StartClaimReviewUseCase--><g class="entity" data-qualified-name="claims.application.reviews.StartClaimReviewUseCase" data-source-line="26" id="ent0016"><rect fill="#F1F1F1" height="36.2969" rx="2.5" ry="2.5" style="stroke:#181818;stroke-width:0.5;" width="204.9668" x="1091.52" y="238.3"/><text fill="#000000" font-family="sans-serif" font-size="14" lengthAdjust="spacing" textLength="184.9668" x="1101.52" y="261.2951">StartClaimReviewUseCase</text></g><!--entity GetClaimUseCase--><g class="entity" data-qualified-name="claims.application.retrievals.GetClaimUseCase" data-source-line="30" id="ent0018"><rect fill="#F1F1F1" height="36.2969" rx="2.5" ry="2.5" style="stroke:#181818;stroke-width:0.5;" width="145.1387" x="2456.43" y="238.3"/><text fill="#000000" font-family="sans-serif" font-size="14" lengthAdjust="spacing" textLength="125.1387" x="2466.43" y="261.2951">GetClaimUseCase</text></g><!--entity ListClaimsUseCase--><g class="entity" data-qualified-name="claims.application.retrievals.ListClaimsUseCase" data-source-line="31" id="ent0019"><rect fill="#F1F1F1" height="36.2969" rx="2.5" ry="2.5" style="stroke:#181818;stroke-width:0.5;" width="151.9541" x="2269.02" y="238.3"/><text fill="#000000" font-family="sans-serif" font-size="14" lengthAdjust="spacing" textLength="131.9541" x="2279.02" y="261.2951">ListClaimsUseCase</text></g><!--entity ListMyClaimsUseCase--><g class="entity" data-qualified-name="claims.application.retrievals.ListMyClaimsUseCase" data-source-line="32" id="ent0020"><rect fill="#F1F1F1" height="36.2969" rx="2.5" ry="2.5" style="stroke:#181818;stroke-width:0.5;" width="172.3184" x="2061.84" y="238.3"/><text fill="#000000" font-family="sans-serif" font-size="14" lengthAdjust="spacing" textLength="152.3184" x="2071.84" y="261.2951">ListMyClaimsUseCase</text></g><!--entity Claim--><g class="entity" data-qualified-name="claims.domain.Claim" data-source-line="45" id="ent0027"><rect fill="#F1F1F1" height="36.2969" rx="2.5" ry="2.5" style="stroke:#181818;stroke-width:0.5;" width="59.7715" x="2716.11" y="349.59"/><text fill="#000000" font-family="sans-serif" font-size="14" lengthAdjust="spacing" textLength="39.7715" x="2726.11" y="372.5851">Claim</text></g><!--entity ClaimComment--><g class="entity" data-qualified-name="claims.domain.ClaimComment" data-source-line="46" id="ent0028"><rect fill="#F1F1F1" height="36.2969" rx="2.5" ry="2.5" style="stroke:#181818;stroke-width:0.5;" width="128.3633" x="2681.82" y="456.74"/><text fill="#000000" font-family="sans-serif" font-size="14" lengthAdjust="spacing" textLength="108.3633" x="2691.82" y="479.7351">ClaimComment</text></g><!--entity ClaimEvidence--><g class="entity" data-qualified-name="claims.domain.ClaimEvidence" data-source-line="47" id="ent0029"><rect fill="#F1F1F1" height="36.2969" rx="2.5" ry="2.5" style="stroke:#181818;stroke-width:0.5;" width="123.4756" x="2845.26" y="456.74"/><text fill="#000000" font-family="sans-serif" font-size="14" lengthAdjust="spacing" textLength="103.4756" x="2855.26" y="479.7351">ClaimEvidence</text></g><!--entity ClaimStateMachine--><g class="entity" data-qualified-name="claims.domain.ClaimStateMachine" data-source-line="48" id="ent0030"><rect fill="#F1F1F1" height="36.2969" rx="2.5" ry="2.5" style="stroke:#181818;stroke-width:0.5;" width="155.4336" x="3003.28" y="456.74"/><text fill="#000000" font-family="sans-serif" font-size="14" lengthAdjust="spacing" textLength="135.4336" x="3013.28" y="479.7351">ClaimStateMachine</text></g><!--entity ClaimRepository--><g class="entity" data-qualified-name="claims.infrastructure.ClaimRepository" data-source-line="53" id="ent0032"><rect fill="#F1F1F1" height="36.2969" rx="2.5" ry="2.5" style="stroke:#181818;stroke-width:0.5;" width="134.8438" x="3214.58" y="349.59"/><text fill="#000000" font-family="sans-serif" font-size="14" lengthAdjust="spacing" textLength="114.8438" x="3224.58" y="372.5851">ClaimRepository</text></g><!--entity ClaimReadRepository--><g class="entity" data-qualified-name="claims.infrastructure.ClaimReadRepository" data-source-line="54" id="ent0033"><rect fill="#F1F1F1" height="36.2969" rx="2.5" ry="2.5" style="stroke:#181818;stroke-width:0.5;" width="170.6504" x="3384.67" y="349.59"/><text fill="#000000" font-family="sans-serif" font-size="14" lengthAdjust="spacing" textLength="150.6504" x="3394.67" y="372.5851">ClaimReadRepository</text></g><!--entity ClaimProjection--><g class="entity" data-qualified-name="claims.infrastructure.ClaimProjection" data-source-line="55" id="ent0034"><rect fill="#F1F1F1" height="36.2969" rx="2.5" ry="2.5" style="stroke:#181818;stroke-width:0.5;" width="129.5527" x="3405.22" y="456.74"/><text fill="#000000" font-family="sans-serif" font-size="14" lengthAdjust="spacing" textLength="109.5527" x="3415.22" y="479.7351">ClaimProjection</text></g><!--link ClaimController to CreateClaimUseCase--><g class="link" data-entity-1="ent0003" data-entity-2="ent0007" data-link-type="dependency" data-source-line="61" id="lnk35"><path d="M1342.7,120.63 C1358.08,129.4 1377.92,139.21 1397,144.3 C1427.75,152.5 1511.02,139.15 1540,152.3 C1580.85,170.83 1611.179,209.7248 1627.389,233.9448" fill="none" id="ClaimController-to-CreateClaimUseCase" style="stroke:#181818;stroke-width:1;"/><polygon fill="#181818" points="1630.17,238.1,1628.4884,228.3958,1627.389,233.9448,1621.84,232.8454,1630.17,238.1" style="stroke:#181818;stroke-width:1;stroke-linejoin:miter;stroke-miterlimit:10;"/></g><!--link ClaimController to UpdateClaimUseCase--><g class="link" data-entity-1="ent0003" data-entity-2="ent0008" data-link-type="dependency" data-source-line="62" id="lnk36"><path d="M1328.99,120.62 C1352.53,150 1396.6134,205.0381 1420.0434,234.2781" fill="none" id="ClaimController-to-UpdateClaimUseCase" style="stroke:#181818;stroke-width:1;"/><polygon fill="#181818" points="1423.17,238.18,1420.6637,228.6554,1420.0434,234.2781,1414.4207,233.6579,1423.17,238.18" style="stroke:#181818;stroke-width:1;stroke-linejoin:miter;stroke-miterlimit:10;"/></g><!--link ClaimEvidenceController to AttachEvidenceToClaimUseCase--><g class="link" data-entity-1="ent0004" data-entity-2="ent0009" data-link-type="dependency" data-source-line="63" id="lnk37"><path d="M1607.69,114.41 C1650.18,121.69 1699.89,133.46 1742,152.3 C1790.73,174.09 1835.4065,211.2999 1860.8765,234.5399" fill="none" id="ClaimEvidenceController-to-AttachEvidenceToClaimUseCase" style="stroke:#181818;stroke-width:1;"/><polygon fill="#181818" points="1864.57,237.91,1860.6178,228.8889,1860.8765,234.5399,1855.2255,234.7986,1864.57,237.91" style="stroke:#181818;stroke-width:1;stroke-linejoin:miter;stroke-miterlimit:10;"/></g><!--link ClaimController to AssignClaimUseCase--><g class="link" data-entity-1="ent0003" data-entity-2="ent0011" data-link-type="dependency" data-source-line="67" id="lnk38"><path d="M1250.17,103.4 C1033.74,104.63 344.61,111.71 254,152.3 C213.06,170.64 182.7639,209.6 166.5739,233.88" fill="none" id="ClaimController-to-AssignClaimUseCase" style="stroke:#181818;stroke-width:1;"/><polygon fill="#181818" points="163.8,238.04,172.121,232.7711,166.5739,233.88,165.465,228.3329,163.8,238.04" style="stroke:#181818;stroke-width:1;stroke-linejoin:miter;stroke-miterlimit:10;"/></g><!--link ClaimController to CancelClaimUseCase--><g class="link" data-entity-1="ent0003" data-entity-2="ent0012" data-link-type="dependency" data-source-line="68" id="lnk39"><path d="M1250.36,104.17 C1062.86,107.49 527.61,119.76 456,152.3 C415.16,170.86 384.833,209.7361 368.613,233.9461" fill="none" id="ClaimController-to-CancelClaimUseCase" style="stroke:#181818;stroke-width:1;"/><polygon fill="#181818" points="365.83,238.1,374.1625,232.8494,368.613,233.9461,367.5163,228.3966,365.83,238.1" style="stroke:#181818;stroke-width:1;stroke-linejoin:miter;stroke-miterlimit:10;"/></g><!--link ClaimController to StartClaimReviewUseCase--><g class="link" data-entity-1="ent0003" data-entity-2="ent0016" data-link-type="dependency" data-source-line="69" id="lnk40"><path d="M1301.12,120.62 C1277.78,150 1234.0602,205.0251 1210.8302,234.2651" fill="none" id="ClaimController-to-StartClaimReviewUseCase" style="stroke:#181818;stroke-width:1;"/><polygon fill="#181818" points="1207.72,238.18,1216.4503,233.6214,1210.8302,234.2651,1210.1865,228.645,1207.72,238.18" style="stroke:#181818;stroke-width:1;stroke-linejoin:miter;stroke-miterlimit:10;"/></g><!--link ClaimController to ResolveClaimUseCase--><g class="link" data-entity-1="ent0003" data-entity-2="ent0015" data-link-type="dependency" data-source-line="70" id="lnk41"><path d="M1250.24,106.36 C1199.69,111.15 1129.04,123.02 1074,152.3 C1034.07,173.54 1002.1815,210.7362 984.4415,234.1262" fill="none" id="ClaimController-to-ResolveClaimUseCase" style="stroke:#181818;stroke-width:1;"/><polygon fill="#181818" points="981.42,238.11,990.0457,233.3564,984.4415,234.1262,983.6716,228.522,981.42,238.11" style="stroke:#181818;stroke-width:1;stroke-linejoin:miter;stroke-miterlimit:10;"/></g><!--link ClaimController to RejectClaimUseCase--><g class="link" data-entity-1="ent0003" data-entity-2="ent0013" data-link-type="dependency" data-source-line="71" id="lnk42"><path d="M1250.18,105.37 C1094.58,111.07 708.9,127.54 656,152.3 C615.56,171.22 585.5535,209.9497 569.4935,234.0397" fill="none" id="ClaimController-to-RejectClaimUseCase" style="stroke:#181818;stroke-width:1;"/><polygon fill="#181818" points="566.72,238.2,575.0405,232.9303,569.4935,234.0397,568.3841,228.4927,566.72,238.2" style="stroke:#181818;stroke-width:1;stroke-linejoin:miter;stroke-miterlimit:10;"/></g><!--link ClaimController to ReopenClaimUseCase--><g class="link" data-entity-1="ent0003" data-entity-2="ent0014" data-link-type="dependency" data-source-line="72" id="lnk43"><path d="M1250.16,104.98 C1142.17,108.89 930.74,120.48 864,152.3 C823.14,171.78 791.7284,209.9729 774.6084,233.9129" fill="none" id="ClaimController-to-ReopenClaimUseCase" style="stroke:#181818;stroke-width:1;"/><polygon fill="#181818" points="771.7,237.98,780.1888,232.986,774.6084,233.9129,773.6815,228.3325,771.7,237.98" style="stroke:#181818;stroke-width:1;stroke-linejoin:miter;stroke-miterlimit:10;"/></g><!--link ClaimController to GetClaimUseCase--><g class="link" data-entity-1="ent0003" data-entity-2="ent0018" data-link-type="dependency" data-source-line="76" id="lnk44"><path d="M1342.24,120.78 C1357.64,129.72 1377.64,139.64 1397,144.3 C1425.11,151.07 2411.69,140.3 2438,152.3 C2476.89,170.03 2503.4185,209.0535 2517.3385,233.5335" fill="none" id="ClaimController-to-GetClaimUseCase" style="stroke:#181818;stroke-width:1;"/><polygon fill="#181818" points="2519.81,237.88,2518.8384,228.0792,2517.3385,233.5335,2511.8841,232.0336,2519.81,237.88" style="stroke:#181818;stroke-width:1;stroke-linejoin:miter;stroke-miterlimit:10;"/></g><!--link ClaimController to ListClaimsUseCase--><g class="link" data-entity-1="ent0003" data-entity-2="ent0019" data-link-type="dependency" data-source-line="77" id="lnk45"><path d="M1342.24,120.77 C1357.64,129.7 1377.65,139.62 1397,144.3 C1420.09,149.88 2230.34,142.54 2252,152.3 C2291.35,170.02 2318.6109,209.0768 2332.9709,233.5668" fill="none" id="ClaimController-to-ListClaimsUseCase" style="stroke:#181818;stroke-width:1;"/><polygon fill="#181818" points="2335.5,237.88,2334.3982,228.093,2332.9709,233.5668,2327.4971,232.1395,2335.5,237.88" style="stroke:#181818;stroke-width:1;stroke-linejoin:miter;stroke-miterlimit:10;"/></g><!--link ClaimController to ListMyClaimsUseCase--><g class="link" data-entity-1="ent0003" data-entity-2="ent0020" data-link-type="dependency" data-source-line="78" id="lnk46"><path d="M1342.24,120.74 C1357.65,129.66 1377.66,139.59 1397,144.3 C1430.74,152.52 1989.37,140.41 2022,152.3 C2069.81,169.72 2109.4078,209.8594 2130.6478,234.3994" fill="none" id="ClaimController-to-ListMyClaimsUseCase" style="stroke:#181818;stroke-width:1;"/><polygon fill="#181818" points="2133.92,238.18,2131.0545,228.7572,2130.6478,234.3994,2125.0056,233.9927,2133.92,238.18" style="stroke:#181818;stroke-width:1;stroke-linejoin:miter;stroke-miterlimit:10;"/></g><!--link CreateClaimUseCase to ClaimRepository--><g class="link" data-entity-1="ent0007" data-entity-2="ent0032" data-link-type="dependency" data-source-line="80" id="lnk47"><path d="M1674.58,274.9 C1693.77,283.9 1718.6,293.94 1742,298.59 C1820.08,314.12 3098.04,286.22 3175,306.59 C3206.31,314.89 3234.0725,331.6604 3254.7825,346.2504" fill="none" id="CreateClaimUseCase-to-ClaimRepository" style="stroke:#181818;stroke-width:1;"/><polygon fill="#181818" points="3258.87,349.13,3253.8162,340.6767,3254.7825,346.2504,3249.2088,347.2167,3258.87,349.13" style="stroke:#181818;stroke-width:1;stroke-linejoin:miter;stroke-miterlimit:10;"/></g><!--link CreateClaimUseCase to ICompanyRepository--><g class="link" data-entity-1="ent0007" data-entity-2="ent0022" data-link-type="dependency" data-source-line="81" id="lnk48"><path d="M1641,275.01 C1641,299.14 1641,336.56 1641,353.96" fill="none" id="CreateClaimUseCase-to-ICompanyRepository" style="stroke:#181818;stroke-width:1;"/><polygon fill="#181818" points="1641,358.96,1645,349.96,1641,353.96,1637,349.96,1641,358.96" style="stroke:#181818;stroke-width:1;stroke-linejoin:miter;stroke-miterlimit:10;"/></g><!--link CreateClaimUseCase to ICollaboratorRepository--><g class="link" data-entity-1="ent0007" data-entity-2="ent0023" data-link-type="dependency" data-source-line="82" id="lnk49"><path d="M1675.56,275.03 C1694.64,283.83 1719.05,293.64 1742,298.59 C1832.43,318.12 1859.47,287.52 1950,306.59 C2006.93,318.59 2065.7216,347.6186 2088.6516,359.6386" fill="none" id="CreateClaimUseCase-to-ICollaboratorRepository" style="stroke:#181818;stroke-width:1;"/><polygon fill="#181818" points="2093.08,361.96,2086.9659,354.2387,2088.6516,359.6386,2083.2517,361.3242,2093.08,361.96" style="stroke:#181818;stroke-width:1;stroke-linejoin:miter;stroke-miterlimit:10;"/></g><!--link CreateClaimUseCase to Claim--><g class="link" data-entity-1="ent0007" data-entity-2="ent0027" data-link-type="dependency" data-source-line="83" id="lnk50"><path d="M1675.05,275.09 C1694.17,284.02 1718.79,293.94 1742,298.59 C1791.03,308.42 2593.76,293.42 2642,306.59 C2672.58,314.95 2699.4624,331.6545 2719.5524,346.2245" fill="none" id="CreateClaimUseCase-to-Claim" style="stroke:#181818;stroke-width:1;"/><polygon fill="#181818" points="2723.6,349.16,2718.6627,340.6381,2719.5524,346.2245,2713.966,347.1142,2723.6,349.16" style="stroke:#181818;stroke-width:1;stroke-linejoin:miter;stroke-miterlimit:10;"/></g><!--link CreateClaimUseCase to ClaimMapper--><g class="link" data-entity-1="ent0007" data-entity-2="ent0021" data-link-type="dependency" data-source-line="84" id="lnk51"><path d="M1604.87,274.93 C1585.96,283.36 1562.18,292.86 1540,298.59 C1355.62,346.23 1133.9857,360.503 1030.4357,364.793" fill="none" id="CreateClaimUseCase-to-ClaimMapper" style="stroke:#181818;stroke-width:1;"/><polygon fill="#181818" points="1025.44,365,1034.5979,368.624,1030.4357,364.793,1034.2667,360.6309,1025.44,365" style="stroke:#181818;stroke-width:1;stroke-linejoin:miter;stroke-miterlimit:10;"/></g><!--link UpdateClaimUseCase to ClaimRepository--><g class="link" data-entity-1="ent0008" data-entity-2="ent0032" data-link-type="dependency" data-source-line="86" id="lnk52"><path d="M1471.28,274.91 C1490.86,283.91 1516.19,293.95 1540,298.59 C1584.58,307.28 3131.09,294.98 3175,306.59 C3206.32,314.88 3234.0834,331.6491 3254.7934,346.2491" fill="none" id="UpdateClaimUseCase-to-ClaimRepository" style="stroke:#181818;stroke-width:1;"/><polygon fill="#181818" points="3258.88,349.13,3253.8289,340.675,3254.7934,346.2491,3249.2194,347.2136,3258.88,349.13" style="stroke:#181818;stroke-width:1;stroke-linejoin:miter;stroke-miterlimit:10;"/></g><!--link UpdateClaimUseCase to ClaimMapper--><g class="link" data-entity-1="ent0008" data-entity-2="ent0021" data-link-type="dependency" data-source-line="87" id="lnk53"><path d="M1388.14,275.06 C1365.22,282.93 1337.41,291.91 1312,298.59 C1212.33,324.8 1098.9613,345.3838 1030.5613,356.8438" fill="none" id="UpdateClaimUseCase-to-ClaimMapper" style="stroke:#181818;stroke-width:1;"/><polygon fill="#181818" points="1025.63,357.67,1035.1672,360.1278,1030.5613,356.8438,1033.8453,352.2378,1025.63,357.67" style="stroke:#181818;stroke-width:1;stroke-linejoin:miter;stroke-miterlimit:10;"/></g><!--link AttachEvidenceToClaimUseCase to ClaimRepository--><g class="link" data-entity-1="ent0009" data-entity-2="ent0032" data-link-type="dependency" data-source-line="89" id="lnk54"><path d="M1938.56,275 C1969.78,283.97 2009.67,293.95 2046,298.59 C2108.22,306.55 3114.38,290.49 3175,306.59 C3206.31,314.91 3234.0716,331.6817 3254.7816,346.2617" fill="none" id="AttachEvidenceToClaimUseCase-to-ClaimRepository" style="stroke:#181818;stroke-width:1;"/><polygon fill="#181818" points="3258.87,349.14,3253.8134,340.6883,3254.7816,346.2617,3249.2082,347.2298,3258.87,349.14" style="stroke:#181818;stroke-width:1;stroke-linejoin:miter;stroke-miterlimit:10;"/></g><!--link AttachEvidenceToClaimUseCase to Claim--><g class="link" data-entity-1="ent0009" data-entity-2="ent0027" data-link-type="dependency" data-source-line="90" id="lnk55"><path d="M1938.95,275.02 C1970.12,283.93 2009.83,293.85 2046,298.59 C2078.83,302.9 2610.08,297.8 2642,306.59 C2672.56,315.02 2699.4514,331.7059 2719.5414,346.2659" fill="none" id="AttachEvidenceToClaimUseCase-to-Claim" style="stroke:#181818;stroke-width:1;"/><polygon fill="#181818" points="2723.59,349.2,2718.6499,340.6797,2719.5414,346.2659,2713.9553,347.1574,2723.59,349.2" style="stroke:#181818;stroke-width:1;stroke-linejoin:miter;stroke-miterlimit:10;"/></g><!--link AttachEvidenceToClaimUseCase to IFileStorage--><g class="link" data-entity-1="ent0009" data-entity-2="ent0025" data-link-type="dependency" data-source-line="91" id="lnk56"><path d="M1883,275.01 C1883,299.14 1883,336.56 1883,353.96" fill="none" id="AttachEvidenceToClaimUseCase-to-IFileStorage" style="stroke:#181818;stroke-width:1;"/><polygon fill="#181818" points="1883,358.96,1887,349.96,1883,353.96,1879,349.96,1883,358.96" style="stroke:#181818;stroke-width:1;stroke-linejoin:miter;stroke-miterlimit:10;"/></g><!--link AttachEvidenceToClaimUseCase to ClaimMapper--><g class="link" data-entity-1="ent0009" data-entity-2="ent0021" data-link-type="dependency" data-source-line="92" id="lnk57"><path d="M1833.76,275.02 C1806.99,283.75 1773.08,293.51 1742,298.59 C1655.08,312.81 1631.84,300.23 1544,306.59 C1353.54,320.39 1133.5623,346.2875 1030.5823,358.9975" fill="none" id="AttachEvidenceToClaimUseCase-to-ClaimMapper" style="stroke:#181818;stroke-width:1;"/><polygon fill="#181818" points="1025.62,359.61,1035.0422,362.4774,1030.5823,358.9975,1034.0623,354.5377,1025.62,359.61" style="stroke:#181818;stroke-width:1;stroke-linejoin:miter;stroke-miterlimit:10;"/></g><!--link AssignClaimUseCase to ClaimRepository--><g class="link" data-entity-1="ent0011" data-entity-2="ent0032" data-link-type="dependency" data-source-line="94" id="lnk58"><path d="M186.58,274.93 C205.76,283.94 230.59,293.98 254,298.59 C333.6,314.3 3096.53,285.94 3175,306.59 C3206.32,314.84 3234.0843,331.6177 3254.7943,346.2277" fill="none" id="AssignClaimUseCase-to-ClaimRepository" style="stroke:#181818;stroke-width:1;"/><polygon fill="#181818" points="3258.88,349.11,3253.8316,340.6534,3254.7943,346.2277,3249.22,347.1905,3258.88,349.11" style="stroke:#181818;stroke-width:1;stroke-linejoin:miter;stroke-miterlimit:10;"/></g><!--link AssignClaimUseCase to IUserRepository--><g class="link" data-entity-1="ent0011" data-entity-2="ent0024" data-link-type="dependency" data-source-line="95" id="lnk59"><path d="M153,275.01 C153,299.14 153,336.56 153,353.96" fill="none" id="AssignClaimUseCase-to-IUserRepository" style="stroke:#181818;stroke-width:1;"/><polygon fill="#181818" points="153,358.96,157,349.96,153,353.96,149,349.96,153,358.96" style="stroke:#181818;stroke-width:1;stroke-linejoin:miter;stroke-miterlimit:10;"/></g><!--link AssignClaimUseCase to ClaimMapper--><g class="link" data-entity-1="ent0011" data-entity-2="ent0021" data-link-type="dependency" data-source-line="96" id="lnk60"><path d="M188.61,274.94 C207.58,283.48 231.57,293.08 254,298.59 C493.76,357.51 785.3601,366.0252 907.4501,366.8752" fill="none" id="AssignClaimUseCase-to-ClaimMapper" style="stroke:#181818;stroke-width:1;"/><polygon fill="#181818" points="912.45,366.91,903.4781,362.8474,907.4501,366.8752,903.4224,370.8472,912.45,366.91" style="stroke:#181818;stroke-width:1;stroke-linejoin:miter;stroke-miterlimit:10;"/></g><!--link CancelClaimUseCase to ClaimRepository--><g class="link" data-entity-1="ent0012" data-entity-2="ent0032" data-link-type="dependency" data-source-line="98" id="lnk61"><path d="M388.58,274.93 C407.76,283.93 432.59,293.97 456,298.59 C530.1,313.22 3101.96,287.36 3175,306.59 C3206.32,314.84 3234.0843,331.6177 3254.7943,346.2277" fill="none" id="CancelClaimUseCase-to-ClaimRepository" style="stroke:#181818;stroke-width:1;"/><polygon fill="#181818" points="3258.88,349.11,3253.8316,340.6534,3254.7943,346.2277,3249.22,347.1905,3258.88,349.11" style="stroke:#181818;stroke-width:1;stroke-linejoin:miter;stroke-miterlimit:10;"/></g><!--link CancelClaimUseCase to ClaimMapper--><g class="link" data-entity-1="ent0012" data-entity-2="ent0021" data-link-type="dependency" data-source-line="99" id="lnk62"><path d="M391.63,275.01 C410.47,283.36 434.04,292.77 456,298.59 C618.17,341.64 811.7391,357.8481 907.2991,363.6281" fill="none" id="CancelClaimUseCase-to-ClaimMapper" style="stroke:#181818;stroke-width:1;"/><polygon fill="#181818" points="912.29,363.93,903.5479,359.3939,907.2991,363.6281,903.0649,367.3793,912.29,363.93" style="stroke:#181818;stroke-width:1;stroke-linejoin:miter;stroke-miterlimit:10;"/></g><!--link RejectClaimUseCase to ClaimRepository--><g class="link" data-entity-1="ent0013" data-entity-2="ent0032" data-link-type="dependency" data-source-line="101" id="lnk63"><path d="M589.23,274.93 C608.21,283.93 632.8,293.97 656,298.59 C724.62,312.27 3107.34,288.77 3175,306.59 C3206.32,314.85 3234.0834,331.6291 3254.7934,346.2291" fill="none" id="RejectClaimUseCase-to-ClaimRepository" style="stroke:#181818;stroke-width:1;"/><polygon fill="#181818" points="3258.88,349.11,3253.8289,340.655,3254.7934,346.2291,3249.2194,347.1936,3258.88,349.11" style="stroke:#181818;stroke-width:1;stroke-linejoin:miter;stroke-miterlimit:10;"/></g><!--link RejectClaimUseCase to ClaimMapper--><g class="link" data-entity-1="ent0013" data-entity-2="ent0021" data-link-type="dependency" data-source-line="102" id="lnk64"><path d="M594.36,275.09 C612.73,283.05 635.21,292.11 656,298.59 C743.86,326 844.0142,345.6018 907.3242,356.6318" fill="none" id="RejectClaimUseCase-to-ClaimMapper" style="stroke:#181818;stroke-width:1;"/><polygon fill="#181818" points="912.25,357.49,904.0701,352.0046,907.3242,356.6318,902.697,359.8859,912.25,357.49" style="stroke:#181818;stroke-width:1;stroke-linejoin:miter;stroke-miterlimit:10;"/></g><!--link ReopenClaimUseCase to ClaimRepository--><g class="link" data-entity-1="ent0014" data-entity-2="ent0032" data-link-type="dependency" data-source-line="104" id="lnk65"><path d="M794.63,274.93 C814.41,283.93 839.97,293.97 864,298.59 C927.04,310.73 3112.93,290.23 3175,306.59 C3206.32,314.85 3234.0843,331.6277 3254.7943,346.2377" fill="none" id="ReopenClaimUseCase-to-ClaimRepository" style="stroke:#181818;stroke-width:1;"/><polygon fill="#181818" points="3258.88,349.12,3253.8316,340.6634,3254.7943,346.2377,3249.22,347.2005,3258.88,349.12" style="stroke:#181818;stroke-width:1;stroke-linejoin:miter;stroke-miterlimit:10;"/></g><!--link ReopenClaimUseCase to ClaimMapper--><g class="link" data-entity-1="ent0014" data-entity-2="ent0021" data-link-type="dependency" data-source-line="105" id="lnk66"><path d="M793.58,275.01 C832.58,295.4 892.1096,326.5324 931.0696,346.9124" fill="none" id="ReopenClaimUseCase-to-ClaimMapper" style="stroke:#181818;stroke-width:1;"/><polygon fill="#181818" points="935.5,349.23,929.3792,341.514,931.0696,346.9124,925.6711,348.6027,935.5,349.23" style="stroke:#181818;stroke-width:1;stroke-linejoin:miter;stroke-miterlimit:10;"/></g><!--link ResolveClaimUseCase to ClaimRepository--><g class="link" data-entity-1="ent0015" data-entity-2="ent0032" data-link-type="dependency" data-source-line="107" id="lnk67"><path d="M1003.98,274.92 C1023.95,283.93 1049.77,293.97 1074,298.59 C1131.33,309.54 3118.57,291.71 3175,306.59 C3206.32,314.86 3234.0843,331.6277 3254.7943,346.2377" fill="none" id="ResolveClaimUseCase-to-ClaimRepository" style="stroke:#181818;stroke-width:1;"/><polygon fill="#181818" points="3258.88,349.12,3253.8316,340.6634,3254.7943,346.2377,3249.22,347.2005,3258.88,349.12" style="stroke:#181818;stroke-width:1;stroke-linejoin:miter;stroke-miterlimit:10;"/></g><!--link ResolveClaimUseCase to ClaimMapper--><g class="link" data-entity-1="ent0015" data-entity-2="ent0021" data-link-type="dependency" data-source-line="108" id="lnk68"><path d="M969,275.01 C969,295.4 969,323.85 969,344.23" fill="none" id="ResolveClaimUseCase-to-ClaimMapper" style="stroke:#181818;stroke-width:1;"/><polygon fill="#181818" points="969,349.23,973,340.23,969,344.23,965,340.23,969,349.23" style="stroke:#181818;stroke-width:1;stroke-linejoin:miter;stroke-miterlimit:10;"/></g><!--link StartClaimReviewUseCase to ClaimRepository--><g class="link" data-entity-1="ent0016" data-entity-2="ent0032" data-link-type="dependency" data-source-line="110" id="lnk69"><path d="M1242.22,275.04 C1269.37,284.02 1304.12,294 1336,298.59 C1386.56,305.89 3125.61,293.55 3175,306.59 C3206.32,314.87 3234.0834,331.6391 3254.7934,346.2391" fill="none" id="StartClaimReviewUseCase-to-ClaimRepository" style="stroke:#181818;stroke-width:1;"/><polygon fill="#181818" points="3258.88,349.12,3253.8289,340.665,3254.7934,346.2391,3249.2194,347.2036,3258.88,349.12" style="stroke:#181818;stroke-width:1;stroke-linejoin:miter;stroke-miterlimit:10;"/></g><!--link StartClaimReviewUseCase to ClaimMapper--><g class="link" data-entity-1="ent0016" data-entity-2="ent0021" data-link-type="dependency" data-source-line="111" id="lnk70"><path d="M1157.85,275.01 C1115.86,295.4 1051.5074,326.6651 1009.5574,347.0451" fill="none" id="StartClaimReviewUseCase-to-ClaimMapper" style="stroke:#181818;stroke-width:1;"/><polygon fill="#181818" points="1005.06,349.23,1014.9032,348.8951,1009.5574,347.0451,1011.4073,341.6993,1005.06,349.23" style="stroke:#181818;stroke-width:1;stroke-linejoin:miter;stroke-miterlimit:10;"/></g><!--link GetClaimUseCase to ClaimReadRepository--><g class="link" data-entity-1="ent0018" data-entity-2="ent0033" data-link-type="dependency" data-source-line="113" id="lnk71"><path d="M2602.04,257.38 C2778.7,257.93 3224.97,263.66 3367,306.59 C3396.93,315.64 3423.3271,332.0257 3443.2771,346.3357" fill="none" id="GetClaimUseCase-to-ClaimReadRepository" style="stroke:#181818;stroke-width:1;"/><polygon fill="#181818" points="3447.34,349.25,3442.3582,340.754,3443.2771,346.3357,3437.6954,347.2546,3447.34,349.25" style="stroke:#181818;stroke-width:1;stroke-linejoin:miter;stroke-miterlimit:10;"/></g><!--link ListClaimsUseCase to ClaimReadRepository--><g class="link" data-entity-1="ent0019" data-entity-2="ent0033" data-link-type="dependency" data-source-line="114" id="lnk72"><path d="M2376.55,275.09 C2394.3,284.02 2417.22,293.94 2439,298.59 C2489.42,309.37 3317.29,292.91 3367,306.59 C3397.35,314.95 3423.9378,331.6334 3443.8078,346.2034" fill="none" id="ListClaimsUseCase-to-ClaimReadRepository" style="stroke:#181818;stroke-width:1;"/><polygon fill="#181818" points="3447.84,349.16,3442.9474,340.6123,3443.8078,346.2034,3438.2168,347.0638,3447.84,349.16" style="stroke:#181818;stroke-width:1;stroke-linejoin:miter;stroke-miterlimit:10;"/></g><!--link ListMyClaimsUseCase to ClaimReadRepository--><g class="link" data-entity-1="ent0020" data-entity-2="ent0033" data-link-type="dependency" data-source-line="116" id="lnk73"><path d="M2182.64,274.89 C2202.41,283.89 2227.98,293.93 2252,298.59 C2312.81,310.41 3307.26,290.2 3367,306.59 C3397.35,314.93 3423.9388,331.612 3443.8088,346.192" fill="none" id="ListMyClaimsUseCase-to-ClaimReadRepository" style="stroke:#181818;stroke-width:1;"/><polygon fill="#181818" points="3447.84,349.15,3442.9502,340.6007,3443.8088,346.192,3438.2175,347.0506,3447.84,349.15" style="stroke:#181818;stroke-width:1;stroke-linejoin:miter;stroke-miterlimit:10;"/></g><!--link ListMyClaimsUseCase to ICollaboratorRepository--><g class="link" data-entity-1="ent0020" data-entity-2="ent0023" data-link-type="dependency" data-source-line="117" id="lnk74"><path d="M2140.61,275.01 C2130.45,299.14 2114.5389,336.9512 2107.2189,354.3512" fill="none" id="ListMyClaimsUseCase-to-ICollaboratorRepository" style="stroke:#181818;stroke-width:1;"/><polygon fill="#181818" points="2105.28,358.96,2112.457,352.2153,2107.2189,354.3512,2105.0829,349.1131,2105.28,358.96" style="stroke:#181818;stroke-width:1;stroke-linejoin:miter;stroke-miterlimit:10;"/></g><!--link ClaimReadRepository to ClaimProjection--><g class="link" data-entity-1="ent0033" data-entity-2="ent0034" data-link-type="dependency" data-source-line="119" id="lnk75"><path d="M3470,386.11 C3470,405.59 3470,432.01 3470,451.5" fill="none" id="ClaimReadRepository-to-ClaimProjection" style="stroke:#181818;stroke-width:1;"/><polygon fill="#181818" points="3470,456.5,3474,447.5,3470,451.5,3466,447.5,3470,456.5" style="stroke:#181818;stroke-width:1;stroke-linejoin:miter;stroke-miterlimit:10;"/></g><!--link Claim to ClaimStateMachine--><g class="link" data-entity-1="ent0027" data-entity-2="ent0030" data-link-type="dependency" data-source-line="121" id="lnk76"><path d="M2776.32,378.26 C2832.45,395.88 2948.5594,432.323 3020.0394,454.753" fill="none" id="Claim-to-ClaimStateMachine" style="stroke:#181818;stroke-width:1;"/><polygon fill="#181818" points="3024.81,456.25,3017.4204,449.7389,3020.0394,454.753,3015.0253,457.3719,3024.81,456.25" style="stroke:#181818;stroke-width:1;stroke-linejoin:miter;stroke-miterlimit:10;"/></g><!--link Claim to ClaimComment--><g class="link" data-entity-1="ent0027" data-entity-2="ent0028" data-link-type="dependency" data-source-line="122" id="lnk77"><path d="M2746,386.11 C2746,405.59 2746,432.01 2746,451.5" fill="none" id="Claim-to-ClaimComment" style="stroke:#181818;stroke-width:1;"/><polygon fill="#181818" points="2746,456.5,2750,447.5,2746,451.5,2742,447.5,2746,456.5" style="stroke:#181818;stroke-width:1;stroke-linejoin:miter;stroke-miterlimit:10;"/></g><!--link Claim to ClaimEvidence--><g class="link" data-entity-1="ent0027" data-entity-2="ent0029" data-link-type="dependency" data-source-line="123" id="lnk78"><path d="M2772.95,386.34 C2802.76,405.81 2846.3139,434.2556 2876.0439,453.6756" fill="none" id="Claim-to-ClaimEvidence" style="stroke:#181818;stroke-width:1;"/><polygon fill="#181818" points="2880.23,456.41,2874.8826,448.1393,2876.0439,453.6756,2870.5076,454.837,2880.23,456.41" style="stroke:#181818;stroke-width:1;stroke-linejoin:miter;stroke-miterlimit:10;"/></g><?plantuml-src ZLP1Rjim4Bph5KGkFUKB0GAXAGhKG64tfqA7ZRnns52aGD8EZ23NFA1Fx4jAMRP4YRkKTUICPfVap4hkLUeMB3IYDarhD6g_yKU5mcBjGUyK5aKBzIliKDpK2cJZRiHxKGWnh48hkoKHdjzbnoYDzjOeXRQALhyUv1PrZLFqOoRLAbc3bqQVgqIWspyrqhc0kG7in2s2nrE9HuSbEAmkq6ExvQ1xxw5-kVJqowIaZrbvYmU9RvFIzw6RdIRrImYoYeJM-2USBGEP5ZK3EQCEz6Os7cmlk3urkR0FRoKUGBdBhGM5RqWtz4Ew7d0KiZeIsBbUV-chSAFTHP-MfFPedw56yRqCPWDzN6DhdFJ67bE2Kl1aB0IGPuN26VH1Ajm486mxSThMD217a_NTLXCJDqq80-NWU2qSlSTLi9BKcFfPwcSBpjjzxVSMPzN6ngl9AcnfvASrdN62__j2eTGNCQR9YN-VVyLc34bH974KjxTtT68OAfKWDixzA_ba4IttdkNRfLB6xOn87KDbCyFmoVont3JXB3LDF7b6bz2onvH4cE4HaSumauWNb7tEfpztDKibyf_ZagDWeOzgYJ2C9ihat8Ror54o6m9E_DgNhg9Efj_Lqj4EqjInVJFK-NXUq1nh4p5c7PQbZf9493d9F3MMJABBI-QeiMGwP7ZDB7SKvIOT9tm5VnIVJvs9wFHBHaoU3BiWny-IFCdd9aX12aKbuY_kcHp3qsz_YW-_42aq_4hy1m00?></g></svg>