<svg xmlns="http://www.w3.org/2000/svg" xmlns:xlink="http://www.w3.org/1999/xlink" contentStyleType="text/css" data-diagram-type="CLASS" height="390px" preserveAspectRatio="none" style="width:699px;height:390px;background:#FFFFFF;" version="1.1" viewBox="0 0 699 390" width="699px" zoomAndPan="magnify"><?plantuml 1.2026.5?><defs/><g><!--cluster organization DTOs--><g class="cluster" data-qualified-name="organization DTOs" data-source-line="3" id="ent0001"><path d="M8.5,6 L155.208,6 A3.75,3.75 0 0 1 157.708,8.5 L164.708,28.2969 L681.5,28.2969 A2.5,2.5 0 0 1 684,30.7969 L684,373.47 A2.5,2.5 0 0 1 681.5,375.97 L8.5,375.97 A2.5,2.5 0 0 1 6,373.47 L6,8.5 A2.5,2.5 0 0 1 8.5,6" fill="none" style="stroke:#000000;stroke-width:1.5;"/><line style="stroke:#000000;stroke-width:1.5;" x1="6" x2="164.708" y1="28.2969" y2="28.2969"/><text fill="#000000" font-family="sans-serif" font-size="14" font-weight="700" lengthAdjust="spacing" textLength="145.708" x="10" y="20.9951">organization DTOs</text></g><!--class CreateCompanyRequest--><g class="entity" data-qualified-name="organization DTOs.CreateCompanyRequest" data-source-line="4" id="ent0002"><rect fill="#F1F1F1" height="64.2969" rx="2.5" ry="2.5" style="stroke:#181818;stroke-width:0.5;" width="202.9258" x="21.54" y="65.45"/><ellipse cx="36.54" cy="81.45" fill="#ADD1B2" rx="11" ry="11" style="stroke:#181818;stroke-width:1;"/><path d="M39.5088,87.0906 Q38.9306,87.3875 38.29,87.5281 Q37.6494,87.6844 36.9463,87.6844 Q34.4463,87.6844 33.1181,86.0438 Q31.8056,84.3875 31.8056,81.2625 Q31.8056,78.1375 33.1181,76.4813 Q34.4463,74.825 36.9463,74.825 Q37.6494,74.825 38.29,74.9813 Q38.9463,75.1375 39.5088,75.4344 L39.5088,78.1531 Q38.8838,77.575 38.29,77.3094 Q37.6963,77.0281 37.0713,77.0281 Q35.7275,77.0281 35.04,78.1063 Q34.3525,79.1688 34.3525,81.2625 Q34.3525,83.3563 35.04,84.4344 Q35.7275,85.4969 37.0713,85.4969 Q37.6963,85.4969 38.29,85.2313 Q38.8838,84.95 39.5088,84.3719 L39.5088,87.0906 Z " fill="#000000"/><text fill="#000000" font-family="sans-serif" font-size="14" lengthAdjust="spacing" textLength="170.9258" x="50.54" y="86.2967">CreateCompanyRequest</text><line style="stroke:#181818;stroke-width:0.5;" x1="22.54" x2="223.4658" y1="97.45" y2="97.45"/><text fill="#000000" font-family="sans-serif" font-size="14" lengthAdjust="spacing" textLength="97.665" x="27.54" y="114.4451">+String name</text><line style="stroke:#181818;stroke-width:0.5;" x1="22.54" x2="223.4658" y1="121.7469" y2="121.7469"/></g><!--class UpdateCompanyRequest--><g class="entity" data-qualified-name="organization DTOs.UpdateCompanyRequest" data-source-line="8" id="ent0003"><rect fill="#F1F1F1" height="64.2969" rx="2.5" ry="2.5" style="stroke:#181818;stroke-width:0.5;" width="206.8018" x="259.6" y="65.45"/><ellipse cx="274.6" cy="81.45" fill="#ADD1B2" rx="11" ry="11" style="stroke:#181818;stroke-width:1;"/><path d="M277.5688,87.0906 Q276.9906,87.3875 276.35,87.5281 Q275.7094,87.6844 275.0063,87.6844 Q272.5063,87.6844 271.1781,86.0438 Q269.8656,84.3875 269.8656,81.2625 Q269.8656,78.1375 271.1781,76.4813 Q272.5063,74.825 275.0063,74.825 Q275.7094,74.825 276.35,74.9813 Q277.0063,75.1375 277.5688,75.4344 L277.5688,78.1531 Q276.9438,77.575 276.35,77.3094 Q275.7563,77.0281 275.1313,77.0281 Q273.7875,77.0281 273.1,78.1063 Q272.4125,79.1688 272.4125,81.2625 Q272.4125,83.3563 273.1,84.4344 Q273.7875,85.4969 275.1313,85.4969 Q275.7563,85.4969 276.35,85.2313 Q276.9438,84.95 277.5688,84.3719 L277.5688,87.0906 Z " fill="#000000"/><text fill="#000000" font-family="sans-serif" font-size="14" lengthAdjust="spacing" textLength="174.8018" x="288.6" y="86.2967">UpdateCompanyRequest</text><line style="stroke:#181818;stroke-width:0.5;" x1="260.6" x2="465.4018" y1="97.45" y2="97.45"/><text fill="#000000" font-family="sans-serif" font-size="14" lengthAdjust="spacing" textLength="97.665" x="265.6" y="114.4451">+String name</text><line style="stroke:#181818;stroke-width:0.5;" x1="260.6" x2="465.4018" y1="121.7469" y2="121.7469"/></g><!--class CompanyResponse--><g class="entity" data-qualified-name="organization DTOs.CompanyResponse" data-source-line="12" id="ent0004"><rect fill="#F1F1F1" height="113.1875" rx="2.5" ry="2.5" style="stroke:#181818;stroke-width:0.5;" width="166.4697" x="501.77" y="41"/><ellipse cx="516.77" cy="57" fill="#ADD1B2" rx="11" ry="11" style="stroke:#181818;stroke-width:1;"/><path d="M519.7388,62.6406 Q519.1606,62.9375 518.52,63.0781 Q517.8794,63.2344 517.1763,63.2344 Q514.6763,63.2344 513.3481,61.5938 Q512.0356,59.9375 512.0356,56.8125 Q512.0356,53.6875 513.3481,52.0313 Q514.6763,50.375 517.1763,50.375 Q517.8794,50.375 518.52,50.5313 Q519.1763,50.6875 519.7388,50.9844 L519.7388,53.7031 Q519.1138,53.125 518.52,52.8594 Q517.9263,52.5781 517.3013,52.5781 Q515.9575,52.5781 515.27,53.6563 Q514.5825,54.7188 514.5825,56.8125 Q514.5825,58.9063 515.27,59.9844 Q515.9575,61.0469 517.3013,61.0469 Q517.9263,61.0469 518.52,60.7813 Q519.1138,60.5 519.7388,59.9219 L519.7388,62.6406 Z " fill="#000000"/><text fill="#000000" font-family="sans-serif" font-size="14" lengthAdjust="spacing" textLength="134.4697" x="530.77" y="61.8467">CompanyResponse</text><line style="stroke:#181818;stroke-width:0.5;" x1="502.77" x2="667.2397" y1="73" y2="73"/><text fill="#000000" font-family="sans-serif" font-size="14" lengthAdjust="spacing" textLength="64.3604" x="507.77" y="89.9951">+UUID id</text><text fill="#000000" font-family="sans-serif" font-size="14" lengthAdjust="spacing" textLength="97.665" x="507.77" y="106.292">+String name</text><text fill="#000000" font-family="sans-serif" font-size="14" lengthAdjust="spacing" textLength="100.9805" x="507.77" y="122.5889">+String status</text><text fill="#000000" font-family="sans-serif" font-size="14" lengthAdjust="spacing" textLength="153.0361" x="507.77" y="138.8857">+DateTime createdAt</text><line style="stroke:#181818;stroke-width:0.5;" x1="502.77" x2="667.2397" y1="146.1875" y2="146.1875"/></g><!--class CreateBranchRequest--><g class="entity" data-qualified-name="organization DTOs.CreateBranchRequest" data-source-line="19" id="ent0005"><rect fill="#F1F1F1" height="96.8906" rx="2.5" ry="2.5" style="stroke:#181818;stroke-width:0.5;" width="185.7061" x="30.15" y="238.63"/><ellipse cx="45.15" cy="254.63" fill="#ADD1B2" rx="11" ry="11" style="stroke:#181818;stroke-width:1;"/><path d="M48.1188,260.2706 Q47.5406,260.5675 46.9,260.7081 Q46.2594,260.8644 45.5563,260.8644 Q43.0563,260.8644 41.7281,259.2238 Q40.4156,257.5675 40.4156,254.4425 Q40.4156,251.3175 41.7281,249.6613 Q43.0563,248.005 45.5563,248.005 Q46.2594,248.005 46.9,248.1613 Q47.5563,248.3175 48.1188,248.6144 L48.1188,251.3331 Q47.4938,250.755 46.9,250.4894 Q46.3063,250.2081 45.6813,250.2081 Q44.3375,250.2081 43.65,251.2863 Q42.9625,252.3488 42.9625,254.4425 Q42.9625,256.5363 43.65,257.6144 Q44.3375,258.6769 45.6813,258.6769 Q46.3063,258.6769 46.9,258.4113 Q47.4938,258.13 48.1188,257.5519 L48.1188,260.2706 Z " fill="#000000"/><text fill="#000000" font-family="sans-serif" font-size="14" lengthAdjust="spacing" textLength="153.7061" x="59.15" y="259.4767">CreateBranchRequest</text><line style="stroke:#181818;stroke-width:0.5;" x1="31.15" x2="214.8561" y1="270.63" y2="270.63"/><text fill="#000000" font-family="sans-serif" font-size="14" lengthAdjust="spacing" textLength="129.124" x="36.15" y="287.6251">+UUID companyId</text><text fill="#000000" font-family="sans-serif" font-size="14" lengthAdjust="spacing" textLength="97.665" x="36.15" y="303.922">+String name</text><text fill="#000000" font-family="sans-serif" font-size="14" lengthAdjust="spacing" textLength="113.2715" x="36.15" y="320.2189">+String address</text><line style="stroke:#181818;stroke-width:0.5;" x1="31.15" x2="214.8561" y1="327.5206" y2="327.5206"/></g><!--class UpdateBranchRequest--><g class="entity" data-qualified-name="organization DTOs.UpdateBranchRequest" data-source-line="25" id="ent0006"><rect fill="#F1F1F1" height="80.5938" rx="2.5" ry="2.5" style="stroke:#181818;stroke-width:0.5;" width="189.582" x="251.21" y="246.78"/><ellipse cx="266.21" cy="262.78" fill="#ADD1B2" rx="11" ry="11" style="stroke:#181818;stroke-width:1;"/><path d="M269.1788,268.4206 Q268.6006,268.7175 267.96,268.8581 Q267.3194,269.0144 266.6163,269.0144 Q264.1163,269.0144 262.7881,267.3738 Q261.4756,265.7175 261.4756,262.5925 Q261.4756,259.4675 262.7881,257.8113 Q264.1163,256.155 266.6163,256.155 Q267.3194,256.155 267.96,256.3113 Q268.6163,256.4675 269.1788,256.7644 L269.1788,259.4831 Q268.5538,258.905 267.96,258.6394 Q267.3663,258.3581 266.7413,258.3581 Q265.3975,258.3581 264.71,259.4363 Q264.0225,260.4988 264.0225,262.5925 Q264.0225,264.6863 264.71,265.7644 Q265.3975,266.8269 266.7413,266.8269 Q267.3663,266.8269 267.96,266.5613 Q268.5538,266.28 269.1788,265.7019 L269.1788,268.4206 Z " fill="#000000"/><text fill="#000000" font-family="sans-serif" font-size="14" lengthAdjust="spacing" textLength="157.582" x="280.21" y="267.6267">UpdateBranchRequest</text><line style="stroke:#181818;stroke-width:0.5;" x1="252.21" x2="439.792" y1="278.78" y2="278.78"/><text fill="#000000" font-family="sans-serif" font-size="14" lengthAdjust="spacing" textLength="97.665" x="257.21" y="295.7751">+String name</text><text fill="#000000" font-family="sans-serif" font-size="14" lengthAdjust="spacing" textLength="113.2715" x="257.21" y="312.072">+String address</text><line style="stroke:#181818;stroke-width:0.5;" x1="252.21" x2="439.792" y1="319.3738" y2="319.3738"/></g><!--class BranchResponse--><g class="entity" data-qualified-name="organization DTOs.BranchResponse" data-source-line="30" id="ent0007"><rect fill="#F1F1F1" height="145.7813" rx="2.5" ry="2.5" style="stroke:#181818;stroke-width:0.5;" width="165.0361" x="475.48" y="214.19"/><ellipse cx="497.5838" cy="230.19" fill="#ADD1B2" rx="11" ry="11" style="stroke:#181818;stroke-width:1;"/><path d="M500.5525,235.8306 Q499.9744,236.1275 499.3338,236.2681 Q498.6931,236.4244 497.99,236.4244 Q495.49,236.4244 494.1619,234.7838 Q492.8494,233.1275 492.8494,230.0025 Q492.8494,226.8775 494.1619,225.2213 Q495.49,223.565 497.99,223.565 Q498.6931,223.565 499.3338,223.7213 Q499.99,223.8775 500.5525,224.1744 L500.5525,226.8931 Q499.9275,226.315 499.3338,226.0494 Q498.74,225.7681 498.115,225.7681 Q496.7713,225.7681 496.0838,226.8463 Q495.3963,227.9088 495.3963,230.0025 Q495.3963,232.0963 496.0838,233.1744 Q496.7713,234.2369 498.115,234.2369 Q498.74,234.2369 499.3338,233.9713 Q499.9275,233.69 500.5525,233.1119 L500.5525,235.8306 Z " fill="#000000"/><text fill="#000000" font-family="sans-serif" font-size="14" lengthAdjust="spacing" textLength="117.25" x="513.1624" y="235.0367">BranchResponse</text><line style="stroke:#181818;stroke-width:0.5;" x1="476.48" x2="639.5161" y1="246.19" y2="246.19"/><text fill="#000000" font-family="sans-serif" font-size="14" lengthAdjust="spacing" textLength="64.3604" x="481.48" y="263.1851">+UUID id</text><text fill="#000000" font-family="sans-serif" font-size="14" lengthAdjust="spacing" textLength="129.124" x="481.48" y="279.482">+UUID companyId</text><text fill="#000000" font-family="sans-serif" font-size="14" lengthAdjust="spacing" textLength="97.665" x="481.48" y="295.7789">+String name</text><text fill="#000000" font-family="sans-serif" font-size="14" lengthAdjust="spacing" textLength="113.2715" x="481.48" y="312.0757">+String address</text><text fill="#000000" font-family="sans-serif" font-size="14" lengthAdjust="spacing" textLength="100.9805" x="481.48" y="328.3726">+String status</text><text fill="#000000" font-family="sans-serif" font-size="14" lengthAdjust="spacing" textLength="153.0361" x="481.48" y="344.6695">+DateTime createdAt</text><line style="stroke:#181818;stroke-width:0.5;" x1="476.48" x2="639.5161" y1="351.9713" y2="351.9713"/></g><?plantuml-src dL1B3e903DrpYiQj6w-Wi65bedA0EjFW1EcCqx9Guzqb430XH8FRr_Vhayfnm8Wrc2kAR5MZEpTAkV5yT0-2JP84D1MM12iVIsJtG7MU8JljPGNF17ebf95GAVLrGBuVwDQGQ7S6M1zRLow1iQOMU2MZg0XskMYaI_0iDF2B8i_0sJdn1n15RQI7iZRwv6e2qrMtMvtaTF0k8flBf5kNPVeU-Oz8j3QIoDpZizwBV0Q7BrFyrtNHPAyt?></g></svg>