<svg xmlns="http://www.w3.org/2000/svg" xmlns:xlink="http://www.w3.org/1999/xlink" contentStyleType="text/css" data-diagram-type="DESCRIPTION" height="382px" preserveAspectRatio="none" style="width:2197px;height:382px;background:#FFFFFF;" version="1.1" viewBox="0 0 2197 382" width="2197px" zoomAndPan="magnify"><?plantuml 1.2026.5?><defs/><g><!--cluster organization--><g class="cluster" data-qualified-name="organization" data-source-line="3" id="ent0001"><path d="M8.5,6 L108.9287,6 A3.75,3.75 0 0 1 111.4287,8.5 L118.4287,28.2969 L2179.5,28.2969 A2.5,2.5 0 0 1 2182,30.7969 L2182,365.39 A2.5,2.5 0 0 1 2179.5,367.89 L8.5,367.89 A2.5,2.5 0 0 1 6,365.39 L6,8.5 A2.5,2.5 0 0 1 8.5,6" fill="none" style="stroke:#000000;stroke-width:1.5;"/><line style="stroke:#000000;stroke-width:1.5;" x1="6" x2="118.4287" y1="28.2969" y2="28.2969"/><text fill="#000000" font-family="sans-serif" font-size="14" font-weight="700" lengthAdjust="spacing" textLength="99.4287" x="10" y="20.9951">organization</text></g><!--cluster api--><g class="cluster" data-qualified-name="organization.api" data-source-line="4" id="ent0002"><path d="M490.5,49 L515.7676,49 A3.75,3.75 0 0 1 518.2676,51.5 L525.2676,71.2969 L846.5,71.2969 A2.5,2.5 0 0 1 849,73.7969 L849,133.8 A2.5,2.5 0 0 1 846.5,136.3 L490.5,136.3 A2.5,2.5 0 0 1 488,133.8 L488,51.5 A2.5,2.5 0 0 1 490.5,49" fill="none" style="stroke:#000000;stroke-width:1.5;"/><line style="stroke:#000000;stroke-width:1.5;" x1="488" x2="525.2676" y1="71.2969" y2="71.2969"/><text fill="#000000" font-family="sans-serif" font-size="14" font-weight="700" lengthAdjust="spacing" textLength="24.2676" x="492" y="63.9951">api</text></g><!--cluster application--><g class="cluster" data-qualified-name="organization.application" data-source-line="9" id="ent0005"><path d="M32.5,160.3 L121.4102,160.3 A3.75,3.75 0 0 1 123.9102,162.8 L130.9102,182.5969 L1511.5,182.5969 A2.5,2.5 0 0 1 1514,185.0969 L1514,341.39 A2.5,2.5 0 0 1 1511.5,343.89 L32.5,343.89 A2.5,2.5 0 0 1 30,341.39 L30,162.8 A2.5,2.5 0 0 1 32.5,160.3" fill="none" style="stroke:#000000;stroke-width:1.5;"/><line style="stroke:#000000;stroke-width:1.5;" x1="30" x2="130.9102" y1="182.5969" y2="182.5969"/><text fill="#000000" font-family="sans-serif" font-size="14" font-weight="700" lengthAdjust="spacing" textLength="87.9102" x="34" y="175.2951">application</text></g><!--cluster domain--><g class="cluster" data-qualified-name="organization.domain" data-source-line="22" id="ent0015"><path d="M1937.5,256.59 L1996.9404,256.59 A3.75,3.75 0 0 1 1999.4404,259.09 L2006.4404,278.8869 L2155.5,278.8869 A2.5,2.5 0 0 1 2158,281.3869 L2158,341.39 A2.5,2.5 0 0 1 2155.5,343.89 L1937.5,343.89 A2.5,2.5 0 0 1 1935,341.39 L1935,259.09 A2.5,2.5 0 0 1 1937.5,256.59" fill="none" style="stroke:#000000;stroke-width:1.5;"/><line style="stroke:#000000;stroke-width:1.5;" x1="1935" x2="2006.4404" y1="278.8869" y2="278.8869"/><text fill="#000000" font-family="sans-serif" font-size="14" font-weight="700" lengthAdjust="spacing" textLength="58.4404" x="1939" y="271.5851">domain</text></g><!--cluster infrastructure--><g class="cluster" data-qualified-name="organization.infrastructure" data-source-line="27" id="ent0018"><path d="M1540.5,256.59 L1651.9619,256.59 A3.75,3.75 0 0 1 1654.4619,259.09 L1661.4619,278.8869 L1908.5,278.8869 A2.5,2.5 0 0 1 1911,281.3869 L1911,341.39 A2.5,2.5 0 0 1 1908.5,343.89 L1540.5,343.89 A2.5,2.5 0 0 1 1538,341.39 L1538,259.09 A2.5,2.5 0 0 1 1540.5,256.59" fill="none" style="stroke:#000000;stroke-width:1.5;"/><line style="stroke:#000000;stroke-width:1.5;" x1="1538" x2="1661.4619" y1="278.8869" y2="278.8869"/><text fill="#000000" font-family="sans-serif" font-size="14" font-weight="700" lengthAdjust="spacing" textLength="110.4619" x="1542" y="271.5851">infrastructure</text></g><!--entity CompanyController--><g class="entity" data-qualified-name="organization.api.CompanyController" data-source-line="5" id="ent0003"><rect fill="#F1F1F1" height="36.2969" rx="2.5" ry="2.5" style="stroke:#181818;stroke-width:0.5;" width="155.7754" x="504.11" y="84"/><text fill="#000000" font-family="sans-serif" font-size="14" lengthAdjust="spacing" textLength="135.7754" x="514.11" y="106.9951">CompanyController</text></g><!--entity BranchController--><g class="entity" data-qualified-name="organization.api.BranchController" data-source-line="6" id="ent0004"><rect fill="#F1F1F1" height="36.2969" rx="2.5" ry="2.5" style="stroke:#181818;stroke-width:0.5;" width="138.5557" x="694.72" y="84"/><text fill="#000000" font-family="sans-serif" font-size="14" lengthAdjust="spacing" textLength="118.5557" x="704.72" y="106.9951">BranchController</text></g><!--entity ListCompaniesUseCase--><g class="entity" data-qualified-name="organization.application.ListCompaniesUseCase" data-source-line="10" id="ent0006"><rect fill="#F1F1F1" height="36.2969" rx="2.5" ry="2.5" style="stroke:#181818;stroke-width:0.5;" width="183.0029" x="252.5" y="195.3"/><text fill="#000000" font-family="sans-serif" font-size="14" lengthAdjust="spacing" textLength="163.0029" x="262.5" y="218.2951">ListCompaniesUseCase</text></g><!--entity GetCompanyUseCase--><g class="entity" data-qualified-name="organization.application.GetCompanyUseCase" data-source-line="11" id="ent0007"><rect fill="#F1F1F1" height="36.2969" rx="2.5" ry="2.5" style="stroke:#181818;stroke-width:0.5;" width="171.9697" x="46.02" y="195.3"/><text fill="#000000" font-family="sans-serif" font-size="14" lengthAdjust="spacing" textLength="151.9697" x="56.02" y="218.2951">GetCompanyUseCase</text></g><!--entity CompanyMapper--><g class="entity" data-qualified-name="organization.application.CompanyMapper" data-source-line="12" id="ent0008"><rect fill="#F1F1F1" height="36.2969" rx="2.5" ry="2.5" style="stroke:#181818;stroke-width:0.5;" width="139.4033" x="168.3" y="291.59"/><text fill="#000000" font-family="sans-serif" font-size="14" lengthAdjust="spacing" textLength="119.4033" x="178.3" y="314.5851">CompanyMapper</text></g><!--entity CreateBranchUseCase--><g class="entity" data-qualified-name="organization.application.CreateBranchUseCase" data-source-line="14" id="ent0009"><rect fill="#F1F1F1" height="36.2969" rx="2.5" ry="2.5" style="stroke:#181818;stroke-width:0.5;" width="176.625" x="675.69" y="195.3"/><text fill="#000000" font-family="sans-serif" font-size="14" lengthAdjust="spacing" textLength="156.625" x="685.69" y="218.2951">CreateBranchUseCase</text></g><!--entity GetBranchUseCase--><g class="entity" data-qualified-name="organization.application.GetBranchUseCase" data-source-line="15" id="ent0010"><rect fill="#F1F1F1" height="36.2969" rx="2.5" ry="2.5" style="stroke:#181818;stroke-width:0.5;" width="154.75" x="887.62" y="195.3"/><text fill="#000000" font-family="sans-serif" font-size="14" lengthAdjust="spacing" textLength="134.75" x="897.62" y="218.2951">GetBranchUseCase</text></g><!--entity UpdateBranchUseCase--><g class="entity" data-qualified-name="organization.application.UpdateBranchUseCase" data-source-line="16" id="ent0011"><rect fill="#F1F1F1" height="36.2969" rx="2.5" ry="2.5" style="stroke:#181818;stroke-width:0.5;" width="180.501" x="1317.75" y="195.3"/><text fill="#000000" font-family="sans-serif" font-size="14" lengthAdjust="spacing" textLength="160.501" x="1327.75" y="218.2951">UpdateBranchUseCase</text></g><!--entity DeactivateBranchUseCase--><g class="entity" data-qualified-name="organization.application.DeactivateBranchUseCase" data-source-line="17" id="ent0012"><rect fill="#F1F1F1" height="36.2969" rx="2.5" ry="2.5" style="stroke:#181818;stroke-width:0.5;" width="205.8145" x="1077.09" y="195.3"/><text fill="#000000" font-family="sans-serif" font-size="14" lengthAdjust="spacing" textLength="185.8145" x="1087.09" y="218.2951">DeactivateBranchUseCase</text></g><!--entity ListBranchesUseCase--><g class="entity" data-qualified-name="organization.application.ListBranchesUseCase" data-source-line="18" id="ent0013"><rect fill="#F1F1F1" height="36.2969" rx="2.5" ry="2.5" style="stroke:#181818;stroke-width:0.5;" width="170.1787" x="470.91" y="195.3"/><text fill="#000000" font-family="sans-serif" font-size="14" lengthAdjust="spacing" textLength="150.1787" x="480.91" y="218.2951">ListBranchesUseCase</text></g><!--entity BranchMapper--><g class="entity" data-qualified-name="organization.application.BranchMapper" data-source-line="19" id="ent0014"><rect fill="#F1F1F1" height="36.2969" rx="2.5" ry="2.5" style="stroke:#181818;stroke-width:0.5;" width="122.1836" x="1024.91" y="291.59"/><text fill="#000000" font-family="sans-serif" font-size="14" lengthAdjust="spacing" textLength="102.1836" x="1034.91" y="314.5851">BranchMapper</text></g><!--entity Company--><g class="entity" data-qualified-name="organization.domain.Company" data-source-line="23" id="ent0016"><rect fill="#F1F1F1" height="36.2969" rx="2.5" ry="2.5" style="stroke:#181818;stroke-width:0.5;" width="86.6025" x="1950.7" y="291.59"/><text fill="#000000" font-family="sans-serif" font-size="14" lengthAdjust="spacing" textLength="66.6025" x="1960.7" y="314.5851">Company</text></g><!--entity Branch--><g class="entity" data-qualified-name="organization.domain.Branch" data-source-line="24" id="ent0017"><rect fill="#F1F1F1" height="36.2969" rx="2.5" ry="2.5" style="stroke:#181818;stroke-width:0.5;" width="69.3828" x="2072.31" y="291.59"/><text fill="#000000" font-family="sans-serif" font-size="14" lengthAdjust="spacing" textLength="49.3828" x="2082.31" y="314.5851">Branch</text></g><!--entity CompanyRepository--><g class="entity" data-qualified-name="organization.infrastructure.CompanyRepository" data-source-line="28" id="ent0019"><rect fill="#F1F1F1" height="36.2969" rx="2.5" ry="2.5" style="stroke:#181818;stroke-width:0.5;" width="161.6748" x="1554.16" y="291.59"/><text fill="#000000" font-family="sans-serif" font-size="14" lengthAdjust="spacing" textLength="141.6748" x="1564.16" y="314.5851">CompanyRepository</text></g><!--entity BranchRepository--><g class="entity" data-qualified-name="organization.infrastructure.BranchRepository" data-source-line="29" id="ent0020"><rect fill="#F1F1F1" height="36.2969" rx="2.5" ry="2.5" style="stroke:#181818;stroke-width:0.5;" width="144.4551" x="1750.77" y="291.59"/><text fill="#000000" font-family="sans-serif" font-size="14" lengthAdjust="spacing" textLength="124.4551" x="1760.77" y="314.5851">BranchRepository</text></g><!--link CompanyController to ListCompaniesUseCase--><g class="link" data-entity-1="ent0003" data-entity-2="ent0006" data-link-type="dependency" data-source-line="33" id="lnk21"><path d="M530.78,120.79 C506.82,129.51 478.11,140.65 453,152.3 C425.16,165.21 398.9752,179.7743 377.3452,192.4343" fill="none" id="CompanyController-to-ListCompaniesUseCase" style="stroke:#181818;stroke-width:1;"/><polygon fill="#181818" points="373.03,194.96,382.8179,193.8659,377.3452,192.4343,378.7768,186.9616,373.03,194.96" style="stroke:#181818;stroke-width:1;stroke-linejoin:miter;stroke-miterlimit:10;"/></g><!--link CompanyController to GetCompanyUseCase--><g class="link" data-entity-1="ent0003" data-entity-2="ent0007" data-link-type="dependency" data-source-line="34" id="lnk22"><path d="M503.83,105.62 C432.15,109.88 323.93,121.37 235,152.3 C205.86,162.43 179.863,178.2969 159.783,192.1769" fill="none" id="CompanyController-to-GetCompanyUseCase" style="stroke:#181818;stroke-width:1;"/><polygon fill="#181818" points="155.67,195.02,165.3479,193.1929,159.783,192.1769,160.799,186.6121,155.67,195.02" style="stroke:#181818;stroke-width:1;stroke-linejoin:miter;stroke-miterlimit:10;"/></g><!--link BranchController to CreateBranchUseCase--><g class="link" data-entity-1="ent0004" data-entity-2="ent0009" data-link-type="dependency" data-source-line="36" id="lnk23"><path d="M764,120.71 C764,141.1 764,169.55 764,189.93" fill="none" id="BranchController-to-CreateBranchUseCase" style="stroke:#181818;stroke-width:1;"/><polygon fill="#181818" points="764,194.93,768,185.93,764,189.93,760,185.93,764,194.93" style="stroke:#181818;stroke-width:1;stroke-linejoin:miter;stroke-miterlimit:10;"/></g><!--link BranchController to GetBranchUseCase--><g class="link" data-entity-1="ent0004" data-entity-2="ent0010" data-link-type="dependency" data-source-line="37" id="lnk24"><path d="M805.13,120.72 C825.03,129.59 849.08,140.88 870,152.3 C894.16,165.48 916.3687,179.608 935.1787,192.138" fill="none" id="BranchController-to-GetBranchUseCase" style="stroke:#181818;stroke-width:1;"/><polygon fill="#181818" points="939.34,194.91,934.0673,186.5914,935.1787,192.138,929.6321,193.2495,939.34,194.91" style="stroke:#181818;stroke-width:1;stroke-linejoin:miter;stroke-miterlimit:10;"/></g><!--link BranchController to UpdateBranchUseCase--><g class="link" data-entity-1="ent0004" data-entity-2="ent0011" data-link-type="dependency" data-source-line="38" id="lnk25"><path d="M833.63,105.95 C958.34,111.55 1214.74,125.94 1300,152.3 C1330.76,161.8 1358.3977,178.0347 1379.4477,192.1547" fill="none" id="BranchController-to-UpdateBranchUseCase" style="stroke:#181818;stroke-width:1;"/><polygon fill="#181818" points="1383.6,194.94,1378.354,186.6045,1379.4477,192.1547,1373.8975,193.2483,1383.6,194.94" style="stroke:#181818;stroke-width:1;stroke-linejoin:miter;stroke-miterlimit:10;"/></g><!--link BranchController to DeactivateBranchUseCase--><g class="link" data-entity-1="ent0004" data-entity-2="ent0012" data-link-type="dependency" data-source-line="39" id="lnk26"><path d="M833.58,108.76 C894.47,115.06 984.71,127.8 1060,152.3 C1092.8,162.97 1123.449,178.9016 1147.129,192.5616" fill="none" id="BranchController-to-DeactivateBranchUseCase" style="stroke:#181818;stroke-width:1;"/><polygon fill="#181818" points="1151.46,195.06,1145.6628,187.098,1147.129,192.5616,1141.6654,194.0277,1151.46,195.06" style="stroke:#181818;stroke-width:1;stroke-linejoin:miter;stroke-miterlimit:10;"/></g><!--link BranchController to ListBranchesUseCase--><g class="link" data-entity-1="ent0004" data-entity-2="ent0013" data-link-type="dependency" data-source-line="40" id="lnk27"><path d="M727.76,120.72 C712.2,128.15 693.78,136.8 677,144.3 C668.63,148.03 666.19,148.18 658,152.3 C632.1,165.31 608.0348,179.5978 587.8248,192.1778" fill="none" id="BranchController-to-ListBranchesUseCase" style="stroke:#181818;stroke-width:1;"/><polygon fill="#181818" points="583.58,194.82,593.3345,193.4598,587.8248,192.1778,589.1069,186.6681,583.58,194.82" style="stroke:#181818;stroke-width:1;stroke-linejoin:miter;stroke-miterlimit:10;"/></g><!--link GetCompanyUseCase to CompanyMapper--><g class="link" data-entity-1="ent0007" data-entity-2="ent0008" data-link-type="dependency" data-source-line="42" id="lnk28"><path d="M151.44,231.74 C170.45,248.65 195.5049,270.936 214.5849,287.916" fill="none" id="GetCompanyUseCase-to-CompanyMapper" style="stroke:#181818;stroke-width:1;"/><polygon fill="#181818" points="218.32,291.24,214.256,282.2687,214.5849,287.916,208.9376,288.2449,218.32,291.24" style="stroke:#181818;stroke-width:1;stroke-linejoin:miter;stroke-miterlimit:10;"/></g><!--link ListCompaniesUseCase to CompanyMapper--><g class="link" data-entity-1="ent0006" data-entity-2="ent0008" data-link-type="dependency" data-source-line="43" id="lnk29"><path d="M324.56,231.74 C305.55,248.65 280.4951,270.936 261.4151,287.916" fill="none" id="ListCompaniesUseCase-to-CompanyMapper" style="stroke:#181818;stroke-width:1;"/><polygon fill="#181818" points="257.68,291.24,267.0624,288.2449,261.4151,287.916,261.744,282.2687,257.68,291.24" style="stroke:#181818;stroke-width:1;stroke-linejoin:miter;stroke-miterlimit:10;"/></g><!--link CreateBranchUseCase to BranchMapper--><g class="link" data-entity-1="ent0009" data-entity-2="ent0014" data-link-type="dependency" data-source-line="44" id="lnk30"><path d="M824.19,232.07 C881.8,248.94 963.4316,272.8446 1021.0316,289.7146" fill="none" id="CreateBranchUseCase-to-BranchMapper" style="stroke:#181818;stroke-width:1;"/><polygon fill="#181818" points="1025.83,291.12,1018.3171,284.7516,1021.0316,289.7146,1016.0685,292.4291,1025.83,291.12" style="stroke:#181818;stroke-width:1;stroke-linejoin:miter;stroke-miterlimit:10;"/></g><!--link UpdateBranchUseCase to BranchMapper--><g class="link" data-entity-1="ent0011" data-entity-2="ent0014" data-link-type="dependency" data-source-line="45" id="lnk31"><path d="M1347.81,232.07 C1290.2,248.94 1208.5684,272.8446 1150.9684,289.7146" fill="none" id="UpdateBranchUseCase-to-BranchMapper" style="stroke:#181818;stroke-width:1;"/><polygon fill="#181818" points="1146.17,291.12,1155.9315,292.4291,1150.9684,289.7146,1153.6829,284.7516,1146.17,291.12" style="stroke:#181818;stroke-width:1;stroke-linejoin:miter;stroke-miterlimit:10;"/></g><!--link CreateBranchUseCase to Branch--><g class="link" data-entity-1="ent0009" data-entity-2="ent0017" data-link-type="dependency" data-source-line="47" id="lnk32"><path d="M852.66,229.77 C858.52,230.48 864.34,231.1 870,231.59 C935.59,237.34 1995.32,220.78 2055,248.59 C2073.89,257.4 2085.9642,272.485 2094.8442,286.875" fill="none" id="CreateBranchUseCase-to-Branch" style="stroke:#181818;stroke-width:1;"/><polygon fill="#181818" points="2097.47,291.13,2096.1477,281.3703,2094.8442,286.875,2089.3396,285.5715,2097.47,291.13" style="stroke:#181818;stroke-width:1;stroke-linejoin:miter;stroke-miterlimit:10;"/></g><!--link UpdateBranchUseCase to Branch--><g class="link" data-entity-1="ent0011" data-entity-2="ent0017" data-link-type="dependency" data-source-line="48" id="lnk33"><path d="M1498.7,215.31 C1665.05,217.47 2006.38,224.79 2055,248.59 C2073.72,257.76 2085.7976,272.8015 2094.7276,287.0715" fill="none" id="UpdateBranchUseCase-to-Branch" style="stroke:#181818;stroke-width:1;"/><polygon fill="#181818" points="2097.38,291.31,2095.9965,281.5588,2094.7276,287.0715,2089.2149,285.8026,2097.38,291.31" style="stroke:#181818;stroke-width:1;stroke-linejoin:miter;stroke-miterlimit:10;"/></g><!--link GetCompanyUseCase to CompanyRepository--><g class="link" data-entity-1="ent0007" data-entity-2="ent0019" data-link-type="dependency" data-source-line="50" id="lnk34"><path d="M218.42,229.81 C224.02,230.5 229.58,231.11 235,231.59 C376.56,244.24 1375.86,215.18 1514,248.59 C1548.66,256.98 1580.5625,273.9882 1604.2225,288.5582" fill="none" id="GetCompanyUseCase-to-CompanyRepository" style="stroke:#181818;stroke-width:1;"/><polygon fill="#181818" points="1608.48,291.18,1602.914,283.0548,1604.2225,288.5582,1598.7191,289.8668,1608.48,291.18" style="stroke:#181818;stroke-width:1;stroke-linejoin:miter;stroke-miterlimit:10;"/></g><!--link ListCompaniesUseCase to CompanyRepository--><g class="link" data-entity-1="ent0006" data-entity-2="ent0019" data-link-type="dependency" data-source-line="51" id="lnk35"><path d="M435.77,229.82 C441.59,230.51 447.37,231.11 453,231.59 C570.47,241.72 1399.44,220.72 1514,248.59 C1548.65,257.02 1580.5509,274.0308 1604.2109,288.5808" fill="none" id="ListCompaniesUseCase-to-CompanyRepository" style="stroke:#181818;stroke-width:1;"/><polygon fill="#181818" points="1608.47,291.2,1602.899,283.0782,1604.2109,288.5808,1598.7083,289.8927,1608.47,291.2" style="stroke:#181818;stroke-width:1;stroke-linejoin:miter;stroke-miterlimit:10;"/></g><!--link CreateBranchUseCase to BranchRepository--><g class="link" data-entity-1="ent0009" data-entity-2="ent0020" data-link-type="dependency" data-source-line="53" id="lnk36"><path d="M852.66,229.73 C858.52,230.45 864.34,231.08 870,231.59 C965.52,240.22 1641.5,219.85 1733,248.59 C1760.25,257.16 1783.0559,273.517 1800.1859,288.037" fill="none" id="CreateBranchUseCase-to-BranchRepository" style="stroke:#181818;stroke-width:1;"/><polygon fill="#181818" points="1804,291.27,1799.7209,282.3993,1800.1859,288.037,1794.5481,288.5019,1804,291.27" style="stroke:#181818;stroke-width:1;stroke-linejoin:miter;stroke-miterlimit:10;"/></g><!--link CreateBranchUseCase to CompanyRepository--><g class="link" data-entity-1="ent0009" data-entity-2="ent0019" data-link-type="dependency" data-source-line="54" id="lnk37"><path d="M852.67,229.69 C858.52,230.42 864.34,231.06 870,231.59 C941.27,238.27 1444.54,231.31 1514,248.59 C1548.6,257.2 1580.5059,274.179 1604.1859,288.679" fill="none" id="CreateBranchUseCase-to-CompanyRepository" style="stroke:#181818;stroke-width:1;"/><polygon fill="#181818" points="1608.45,291.29,1602.8635,283.1789,1604.1859,288.679,1598.6858,290.0014,1608.45,291.29" style="stroke:#181818;stroke-width:1;stroke-linejoin:miter;stroke-miterlimit:10;"/></g><!--link DeactivateBranchUseCase to BranchRepository--><g class="link" data-entity-1="ent0012" data-entity-2="ent0020" data-link-type="dependency" data-source-line="55" id="lnk38"><path d="M1283.34,229.9 C1288.97,230.53 1294.55,231.1 1300,231.59 C1395.9,240.3 1641.42,218.83 1733,248.59 C1759.99,257.36 1782.619,273.497 1799.789,287.897" fill="none" id="DeactivateBranchUseCase-to-BranchRepository" style="stroke:#181818;stroke-width:1;"/><polygon fill="#181818" points="1803.62,291.11,1799.2945,282.2618,1799.789,287.897,1794.1538,288.3915,1803.62,291.11" style="stroke:#181818;stroke-width:1;stroke-linejoin:miter;stroke-miterlimit:10;"/></g><!--link GetBranchUseCase to BranchRepository--><g class="link" data-entity-1="ent0010" data-entity-2="ent0020" data-link-type="dependency" data-source-line="56" id="lnk39"><path d="M1042.63,229.46 C1048.49,230.29 1054.33,231.01 1060,231.59 C1134.41,239.2 1661.7,225.97 1733,248.59 C1760.23,257.23 1783.0305,273.5933 1800.1705,288.0733" fill="none" id="GetBranchUseCase-to-BranchRepository" style="stroke:#181818;stroke-width:1;"/><polygon fill="#181818" points="1803.99,291.3,1799.6963,282.4363,1800.1705,288.0733,1794.5336,288.5475,1803.99,291.3" style="stroke:#181818;stroke-width:1;stroke-linejoin:miter;stroke-miterlimit:10;"/></g><!--link ListBranchesUseCase to BranchRepository--><g class="link" data-entity-1="ent0013" data-entity-2="ent0020" data-link-type="dependency" data-source-line="57" id="lnk40"><path d="M641.58,229.79 C647.13,230.49 652.64,231.1 658,231.59 C717.48,237.03 1675.98,230.8 1733,248.59 C1760.27,257.1 1783.067,273.4757 1800.197,288.0057" fill="none" id="ListBranchesUseCase-to-BranchRepository" style="stroke:#181818;stroke-width:1;"/><polygon fill="#181818" points="1804.01,291.24,1799.734,282.3678,1800.197,288.0057,1794.5591,288.4687,1804.01,291.24" style="stroke:#181818;stroke-width:1;stroke-linejoin:miter;stroke-miterlimit:10;"/></g><!--link ListBranchesUseCase to CompanyRepository--><g class="link" data-entity-1="ent0013" data-entity-2="ent0019" data-link-type="dependency" data-source-line="58" id="lnk41"><path d="M641.59,229.77 C647.13,230.47 652.64,231.09 658,231.59 C752.72,240.45 1421.61,225.93 1514,248.59 C1548.63,257.09 1580.5288,274.0842 1604.1988,288.6142" fill="none" id="ListBranchesUseCase-to-CompanyRepository" style="stroke:#181818;stroke-width:1;"/><polygon fill="#181818" points="1608.46,291.23,1602.8825,283.1127,1604.1988,288.6142,1598.6972,289.9306,1608.46,291.23" style="stroke:#181818;stroke-width:1;stroke-linejoin:miter;stroke-miterlimit:10;"/></g><!--link UpdateBranchUseCase to BranchRepository--><g class="link" data-entity-1="ent0011" data-entity-2="ent0020" data-link-type="dependency" data-source-line="59" id="lnk42"><path d="M1498.59,219.09 C1579.44,224.13 1691.32,233.52 1733,248.59 C1759.51,258.18 1781.9758,274.0192 1799.2458,288.1092" fill="none" id="UpdateBranchUseCase-to-BranchRepository" style="stroke:#181818;stroke-width:1;"/><polygon fill="#181818" points="1803.12,291.27,1798.6751,282.4812,1799.2458,288.1092,1793.6178,288.6799,1803.12,291.27" style="stroke:#181818;stroke-width:1;stroke-linejoin:miter;stroke-miterlimit:10;"/></g><?plantuml-src dL91JiCm4Bpx5LRl_G87WiG5Bg2UK0yhTmbMaxLbkqW1zU-aia5nigj4NCUpuvcTZMTB7WBqshZUEq9AhsdeK0Sq2QZjK2aFvWmjwfqBBP3zWcGTxVItqlhl2RpDYDPlpQW4D3IEKd1TX-6OyVi0P3vg-Afg5TzPCz4VfvviJ5dHOZn4R21Y4Np4yZBKU06VHxdRBmKC20cpXuKC1n_yIHXuG339VWglDyCPd_lDwA-jUVYJwy7IV8lLw7B8qdk0cCB5f4l0-V0BUXTjSg6MgU6h6YMPqlH-VoUjNwGpbQXbyPdBDYAHboL9JBOtYInMAGsmxIecTybOdoA_JfxAhISpwpjY0tF4TSaDOXl2JizhG-0fVTrY9IwJEIjIrwByukP49dSL_o1phjSAcP1_0000?></g></svg>