<svg xmlns="http://www.w3.org/2000/svg" xmlns:xlink="http://www.w3.org/1999/xlink" contentStyleType="text/css" data-diagram-type="CLASS" height="439px" preserveAspectRatio="none" style="width:949px;height:439px;background:#FFFFFF;" version="1.1" viewBox="0 0 949 439" width="949px" zoomAndPan="magnify"><?plantuml 1.2026.5?><defs/><g><!--cluster identity DTOs--><g class="cluster" data-qualified-name="identity DTOs" data-source-line="3" id="ent0001"><path d="M8.5,6 L117.3711,6 A3.75,3.75 0 0 1 119.8711,8.5 L126.8711,28.2969 L931.5,28.2969 A2.5,2.5 0 0 1 934,30.7969 L934,422.36 A2.5,2.5 0 0 1 931.5,424.86 L8.5,424.86 A2.5,2.5 0 0 1 6,422.36 L6,8.5 A2.5,2.5 0 0 1 8.5,6" fill="none" style="stroke:#000000;stroke-width:1.5;"/><line style="stroke:#000000;stroke-width:1.5;" x1="6" x2="126.8711" y1="28.2969" y2="28.2969"/><text fill="#000000" font-family="sans-serif" font-size="14" font-weight="700" lengthAdjust="spacing" textLength="107.8711" x="10" y="20.9951">identity DTOs</text></g><!--class LoginRequest--><g class="entity" data-qualified-name="identity DTOs.LoginRequest" data-source-line="4" id="ent0002"><rect fill="#F1F1F1" height="80.5938" rx="2.5" ry="2.5" style="stroke:#181818;stroke-width:0.5;" width="136.6738" x="61.66" y="57.3"/><ellipse cx="80.7829" cy="73.3" fill="#ADD1B2" rx="11" ry="11" style="stroke:#181818;stroke-width:1;"/><path d="M83.7517,78.9406 Q83.1736,79.2375 82.5329,79.3781 Q81.8923,79.5344 81.1892,79.5344 Q78.6892,79.5344 77.3611,77.8938 Q76.0486,76.2375 76.0486,73.1125 Q76.0486,69.9875 77.3611,68.3313 Q78.6892,66.675 81.1892,66.675 Q81.8923,66.675 82.5329,66.8313 Q83.1892,66.9875 83.7517,67.2844 L83.7517,70.0031 Q83.1267,69.425 82.5329,69.1594 Q81.9392,68.8781 81.3142,68.8781 Q79.9704,68.8781 79.2829,69.9563 Q78.5954,71.0188 78.5954,73.1125 Q78.5954,75.2063 79.2829,76.2844 Q79.9704,77.3469 81.3142,77.3469 Q81.9392,77.3469 82.5329,77.0813 Q83.1267,76.8 83.7517,76.2219 L83.7517,78.9406 Z " fill="#000000"/><text fill="#000000" font-family="sans-serif" font-size="14" lengthAdjust="spacing" textLength="95.5117" x="95.6992" y="78.1467">LoginRequest</text><line style="stroke:#181818;stroke-width:0.5;" x1="62.66" x2="197.3338" y1="89.3" y2="89.3"/><text fill="#000000" font-family="sans-serif" font-size="14" lengthAdjust="spacing" textLength="96.5713" x="67.66" y="106.2951">+String email</text><text fill="#000000" font-family="sans-serif" font-size="14" lengthAdjust="spacing" textLength="124.6738" x="67.66" y="122.592">+String password</text><line style="stroke:#181818;stroke-width:0.5;" x1="62.66" x2="197.3338" y1="129.8938" y2="129.8938"/></g><!--class LoginResponse--><g class="entity" data-qualified-name="identity DTOs.LoginResponse" data-source-line="9" id="ent0003"><rect fill="#F1F1F1" height="80.5938" rx="2.5" ry="2.5" style="stroke:#181818;stroke-width:0.5;" width="159.8477" x="755.08" y="57.3"/><ellipse cx="779.9646" cy="73.3" fill="#ADD1B2" rx="11" ry="11" style="stroke:#181818;stroke-width:1;"/><path d="M782.9334,78.9406 Q782.3552,79.2375 781.7146,79.3781 Q781.074,79.5344 780.3709,79.5344 Q777.8709,79.5344 776.5427,77.8938 Q775.2302,76.2375 775.2302,73.1125 Q775.2302,69.9875 776.5427,68.3313 Q777.8709,66.675 780.3709,66.675 Q781.074,66.675 781.7146,66.8313 Q782.3709,66.9875 782.9334,67.2844 L782.9334,70.0031 Q782.3084,69.425 781.7146,69.1594 Q781.1209,68.8781 780.4959,68.8781 Q779.1521,68.8781 778.4646,69.9563 Q777.7771,71.0188 777.7771,73.1125 Q777.7771,75.2063 778.4646,76.2844 Q779.1521,77.3469 780.4959,77.3469 Q781.1209,77.3469 781.7146,77.0813 Q782.3084,76.8 782.9334,76.2219 L782.9334,78.9406 Z " fill="#000000"/><text fill="#000000" font-family="sans-serif" font-size="14" lengthAdjust="spacing" textLength="105.8818" x="796.1612" y="78.1467">LoginResponse</text><line style="stroke:#181818;stroke-width:0.5;" x1="756.08" x2="913.9277" y1="89.3" y2="89.3"/><text fill="#000000" font-family="sans-serif" font-size="14" lengthAdjust="spacing" textLength="147.8477" x="761.08" y="106.2951">+String accessToken</text><text fill="#000000" font-family="sans-serif" font-size="14" lengthAdjust="spacing" textLength="146.4941" x="761.08" y="122.592">+UserResponse user</text><line style="stroke:#181818;stroke-width:0.5;" x1="756.08" x2="913.9277" y1="129.8938" y2="129.8938"/></g><!--class CreateUserRequest--><g class="entity" data-qualified-name="identity DTOs.CreateUserRequest" data-source-line="14" id="ent0004"><rect fill="#F1F1F1" height="113.1875" rx="2.5" ry="2.5" style="stroke:#181818;stroke-width:0.5;" width="168.2334" x="232.88" y="41"/><ellipse cx="247.88" cy="57" fill="#ADD1B2" rx="11" ry="11" style="stroke:#181818;stroke-width:1;"/><path d="M250.8488,62.6406 Q250.2706,62.9375 249.63,63.0781 Q248.9894,63.2344 248.2863,63.2344 Q245.7863,63.2344 244.4581,61.5938 Q243.1456,59.9375 243.1456,56.8125 Q243.1456,53.6875 244.4581,52.0313 Q245.7863,50.375 248.2863,50.375 Q248.9894,50.375 249.63,50.5313 Q250.2863,50.6875 250.8488,50.9844 L250.8488,53.7031 Q250.2238,53.125 249.63,52.8594 Q249.0363,52.5781 248.4113,52.5781 Q247.0675,52.5781 246.38,53.6563 Q245.6925,54.7188 245.6925,56.8125 Q245.6925,58.9063 246.38,59.9844 Q247.0675,61.0469 248.4113,61.0469 Q249.0363,61.0469 249.63,60.7813 Q250.2238,60.5 250.8488,59.9219 L250.8488,62.6406 Z " fill="#000000"/><text fill="#000000" font-family="sans-serif" font-size="14" lengthAdjust="spacing" textLength="136.2334" x="261.88" y="61.8467">CreateUserRequest</text><line style="stroke:#181818;stroke-width:0.5;" x1="233.88" x2="400.1134" y1="73" y2="73"/><text fill="#000000" font-family="sans-serif" font-size="14" lengthAdjust="spacing" textLength="129.124" x="238.88" y="89.9951">+UUID companyId</text><text fill="#000000" font-family="sans-serif" font-size="14" lengthAdjust="spacing" textLength="97.665" x="238.88" y="106.292">+String name</text><text fill="#000000" font-family="sans-serif" font-size="14" lengthAdjust="spacing" textLength="96.5713" x="238.88" y="122.5889">+String email</text><text fill="#000000" font-family="sans-serif" font-size="14" lengthAdjust="spacing" textLength="124.6738" x="238.88" y="138.8857">+String password</text><line style="stroke:#181818;stroke-width:0.5;" x1="233.88" x2="400.1134" y1="146.1875" y2="146.1875"/></g><!--class UpdateUserRequest--><g class="entity" data-qualified-name="identity DTOs.UpdateUserRequest" data-source-line="21" id="ent0005"><rect fill="#F1F1F1" height="80.5938" rx="2.5" ry="2.5" style="stroke:#181818;stroke-width:0.5;" width="172.1094" x="435.95" y="57.3"/><ellipse cx="450.95" cy="73.3" fill="#ADD1B2" rx="11" ry="11" style="stroke:#181818;stroke-width:1;"/><path d="M453.9188,78.9406 Q453.3406,79.2375 452.7,79.3781 Q452.0594,79.5344 451.3563,79.5344 Q448.8563,79.5344 447.5281,77.8938 Q446.2156,76.2375 446.2156,73.1125 Q446.2156,69.9875 447.5281,68.3313 Q448.8563,66.675 451.3563,66.675 Q452.0594,66.675 452.7,66.8313 Q453.3563,66.9875 453.9188,67.2844 L453.9188,70.0031 Q453.2938,69.425 452.7,69.1594 Q452.1063,68.8781 451.4813,68.8781 Q450.1375,68.8781 449.45,69.9563 Q448.7625,71.0188 448.7625,73.1125 Q448.7625,75.2063 449.45,76.2844 Q450.1375,77.3469 451.4813,77.3469 Q452.1063,77.3469 452.7,77.0813 Q453.2938,76.8 453.9188,76.2219 L453.9188,78.9406 Z " fill="#000000"/><text fill="#000000" font-family="sans-serif" font-size="14" lengthAdjust="spacing" textLength="140.1094" x="464.95" y="78.1467">UpdateUserRequest</text><line style="stroke:#181818;stroke-width:0.5;" x1="436.95" x2="607.0594" y1="89.3" y2="89.3"/><text fill="#000000" font-family="sans-serif" font-size="14" lengthAdjust="spacing" textLength="97.665" x="441.95" y="106.2951">+String name</text><text fill="#000000" font-family="sans-serif" font-size="14" lengthAdjust="spacing" textLength="96.5713" x="441.95" y="122.592">+String email</text><line style="stroke:#181818;stroke-width:0.5;" x1="436.95" x2="607.0594" y1="129.8938" y2="129.8938"/></g><!--class UserResponse--><g class="entity" data-qualified-name="identity DTOs.UserResponse" data-source-line="26" id="ent0006"><rect fill="#F1F1F1" height="194.6719" rx="2.5" ry="2.5" style="stroke:#181818;stroke-width:0.5;" width="165.0361" x="752.48" y="214.19"/><ellipse cx="782.4465" cy="230.19" fill="#ADD1B2" rx="11" ry="11" style="stroke:#181818;stroke-width:1;"/><path d="M785.4152,235.8306 Q784.8371,236.1275 784.1965,236.2681 Q783.5558,236.4244 782.8527,236.4244 Q780.3527,236.4244 779.0246,234.7838 Q777.7121,233.1275 777.7121,230.0025 Q777.7121,226.8775 779.0246,225.2213 Q780.3527,223.565 782.8527,223.565 Q783.5558,223.565 784.1965,223.7213 Q784.8527,223.8775 785.4152,224.1744 L785.4152,226.8931 Q784.7902,226.315 784.1965,226.0494 Q783.6027,225.7681 782.9777,225.7681 Q781.634,225.7681 780.9465,226.8463 Q780.259,227.9088 780.259,230.0025 Q780.259,232.0963 780.9465,233.1744 Q781.634,234.2369 782.9777,234.2369 Q783.6027,234.2369 784.1965,233.9713 Q784.7902,233.69 785.4152,233.1119 L785.4152,235.8306 Z " fill="#000000"/><text fill="#000000" font-family="sans-serif" font-size="14" lengthAdjust="spacing" textLength="99.7773" x="799.7723" y="235.0367">UserResponse</text><line style="stroke:#181818;stroke-width:0.5;" x1="753.48" x2="916.5161" y1="246.19" y2="246.19"/><text fill="#000000" font-family="sans-serif" font-size="14" lengthAdjust="spacing" textLength="64.3604" x="758.48" y="263.1851">+UUID id</text><text fill="#000000" font-family="sans-serif" font-size="14" lengthAdjust="spacing" textLength="129.124" x="758.48" y="279.482">+UUID companyId</text><text fill="#000000" font-family="sans-serif" font-size="14" lengthAdjust="spacing" textLength="4.4502" x="758.48" y="295.7789">&#160;</text><text fill="#000000" font-family="sans-serif" font-size="14" lengthAdjust="spacing" textLength="97.665" x="758.48" y="312.0757">+String name</text><text fill="#000000" font-family="sans-serif" font-size="14" lengthAdjust="spacing" textLength="96.5713" x="758.48" y="328.3726">+String email</text><text fill="#000000" font-family="sans-serif" font-size="14" lengthAdjust="spacing" textLength="4.4502" x="758.48" y="344.6695">&#160;</text><text fill="#000000" font-family="sans-serif" font-size="14" lengthAdjust="spacing" textLength="100.9805" x="758.48" y="360.9664">+String status</text><text fill="#000000" font-family="sans-serif" font-size="14" lengthAdjust="spacing" textLength="4.4502" x="758.48" y="377.2632">&#160;</text><text fill="#000000" font-family="sans-serif" font-size="14" lengthAdjust="spacing" textLength="153.0361" x="758.48" y="393.5601">+DateTime createdAt</text><line style="stroke:#181818;stroke-width:0.5;" x1="753.48" x2="916.5161" y1="400.8619" y2="400.8619"/></g><!--class AssignRoleToUserRequest--><g class="entity" data-qualified-name="identity DTOs.AssignRoleToUserRequest" data-source-line="38" id="ent0007"><rect fill="#F1F1F1" height="96.8906" rx="2.5" ry="2.5" style="stroke:#181818;stroke-width:0.5;" width="215.1348" x="22.43" y="263.08"/><ellipse cx="37.43" cy="279.08" fill="#ADD1B2" rx="11" ry="11" style="stroke:#181818;stroke-width:1;"/><path d="M40.3988,284.7206 Q39.8206,285.0175 39.18,285.1581 Q38.5394,285.3144 37.8363,285.3144 Q35.3363,285.3144 34.0081,283.6738 Q32.6956,282.0175 32.6956,278.8925 Q32.6956,275.7675 34.0081,274.1113 Q35.3363,272.455 37.8363,272.455 Q38.5394,272.455 39.18,272.6113 Q39.8363,272.7675 40.3988,273.0644 L40.3988,275.7831 Q39.7738,275.205 39.18,274.9394 Q38.5863,274.6581 37.9613,274.6581 Q36.6175,274.6581 35.93,275.7363 Q35.2425,276.7988 35.2425,278.8925 Q35.2425,280.9863 35.93,282.0644 Q36.6175,283.1269 37.9613,283.1269 Q38.5863,283.1269 39.18,282.8613 Q39.7738,282.58 40.3988,282.0019 L40.3988,284.7206 Z " fill="#000000"/><text fill="#000000" font-family="sans-serif" font-size="14" lengthAdjust="spacing" textLength="183.1348" x="51.43" y="283.9267">AssignRoleToUserRequest</text><line style="stroke:#181818;stroke-width:0.5;" x1="23.43" x2="236.5648" y1="295.08" y2="295.08"/><text fill="#000000" font-family="sans-serif" font-size="14" lengthAdjust="spacing" textLength="95.1357" x="28.43" y="312.0751">+UUID userId</text><text fill="#000000" font-family="sans-serif" font-size="14" lengthAdjust="spacing" textLength="84.7861" x="28.43" y="328.372">+String role</text><text fill="#000000" font-family="sans-serif" font-size="14" lengthAdjust="spacing" textLength="120.6953" x="28.43" y="344.6689">+UUID? branchId</text><line style="stroke:#181818;stroke-width:0.5;" x1="23.43" x2="236.5648" y1="351.9706" y2="351.9706"/></g><!--class RemoveRoleFromUserRequest--><g class="entity" data-qualified-name="identity DTOs.RemoveRoleFromUserRequest" data-source-line="44" id="ent0008"><rect fill="#F1F1F1" height="96.8906" rx="2.5" ry="2.5" style="stroke:#181818;stroke-width:0.5;" width="245.6572" x="272.17" y="263.08"/><ellipse cx="287.17" cy="279.08" fill="#ADD1B2" rx="11" ry="11" style="stroke:#181818;stroke-width:1;"/><path d="M290.1388,284.7206 Q289.5606,285.0175 288.92,285.1581 Q288.2794,285.3144 287.5763,285.3144 Q285.0763,285.3144 283.7481,283.6738 Q282.4356,282.0175 282.4356,278.8925 Q282.4356,275.7675 283.7481,274.1113 Q285.0763,272.455 287.5763,272.455 Q288.2794,272.455 288.92,272.6113 Q289.5763,272.7675 290.1388,273.0644 L290.1388,275.7831 Q289.5138,275.205 288.92,274.9394 Q288.3263,274.6581 287.7013,274.6581 Q286.3575,274.6581 285.67,275.7363 Q284.9825,276.7988 284.9825,278.8925 Q284.9825,280.9863 285.67,282.0644 Q286.3575,283.1269 287.7013,283.1269 Q288.3263,283.1269 288.92,282.8613 Q289.5138,282.58 290.1388,282.0019 L290.1388,284.7206 Z " fill="#000000"/><text fill="#000000" font-family="sans-serif" font-size="14" lengthAdjust="spacing" textLength="213.6572" x="301.17" y="283.9267">RemoveRoleFromUserRequest</text><line style="stroke:#181818;stroke-width:0.5;" x1="273.17" x2="516.8272" y1="295.08" y2="295.08"/><text fill="#000000" font-family="sans-serif" font-size="14" lengthAdjust="spacing" textLength="95.1357" x="278.17" y="312.0751">+UUID userId</text><text fill="#000000" font-family="sans-serif" font-size="14" lengthAdjust="spacing" textLength="84.7861" x="278.17" y="328.372">+String role</text><text fill="#000000" font-family="sans-serif" font-size="14" lengthAdjust="spacing" textLength="120.6953" x="278.17" y="344.6689">+UUID? branchId</text><line style="stroke:#181818;stroke-width:0.5;" x1="273.17" x2="516.8272" y1="351.9706" y2="351.9706"/></g><!--class UserRoleResponse--><g class="entity" data-qualified-name="identity DTOs.UserRoleResponse" data-source-line="50" id="ent0009"><rect fill="#F1F1F1" height="129.4844" rx="2.5" ry="2.5" style="stroke:#181818;stroke-width:0.5;" width="165.0361" x="552.48" y="246.78"/><ellipse cx="568.5883" cy="262.78" fill="#ADD1B2" rx="11" ry="11" style="stroke:#181818;stroke-width:1;"/><path d="M571.5571,268.4206 Q570.9789,268.7175 570.3383,268.8581 Q569.6977,269.0144 568.9946,269.0144 Q566.4946,269.0144 565.1664,267.3738 Q563.8539,265.7175 563.8539,262.5925 Q563.8539,259.4675 565.1664,257.8113 Q566.4946,256.155 568.9946,256.155 Q569.6977,256.155 570.3383,256.3113 Q570.9946,256.4675 571.5571,256.7644 L571.5571,259.4831 Q570.9321,258.905 570.3383,258.6394 Q569.7446,258.3581 569.1196,258.3581 Q567.7758,258.3581 567.0883,259.4363 Q566.4008,260.4988 566.4008,262.5925 Q566.4008,264.6863 567.0883,265.7644 Q567.7758,266.8269 569.1196,266.8269 Q569.7446,266.8269 570.3383,266.5613 Q570.9321,266.28 571.5571,265.7019 L571.5571,268.4206 Z " fill="#000000"/><text fill="#000000" font-family="sans-serif" font-size="14" lengthAdjust="spacing" textLength="130.5732" x="582.8346" y="267.6267">UserRoleResponse</text><line style="stroke:#181818;stroke-width:0.5;" x1="553.48" x2="716.5161" y1="278.78" y2="278.78"/><text fill="#000000" font-family="sans-serif" font-size="14" lengthAdjust="spacing" textLength="64.3604" x="558.48" y="295.7751">+UUID id</text><text fill="#000000" font-family="sans-serif" font-size="14" lengthAdjust="spacing" textLength="95.1357" x="558.48" y="312.072">+UUID userId</text><text fill="#000000" font-family="sans-serif" font-size="14" lengthAdjust="spacing" textLength="84.7861" x="558.48" y="328.3689">+String role</text><text fill="#000000" font-family="sans-serif" font-size="14" lengthAdjust="spacing" textLength="120.6953" x="558.48" y="344.6657">+UUID? branchId</text><text fill="#000000" font-family="sans-serif" font-size="14" lengthAdjust="spacing" textLength="153.0361" x="558.48" y="360.9626">+DateTime createdAt</text><line style="stroke:#181818;stroke-width:0.5;" x1="553.48" x2="716.5161" y1="368.2644" y2="368.2644"/></g><!--link LoginResponse to UserResponse--><g class="link" data-entity-1="ent0003" data-entity-2="ent0006" data-link-type="dependency" data-source-line="58" id="lnk10"><path codeLine="58" d="M835,137.96 C835,159.51 835,182.23 835,209.13" fill="none" id="LoginResponse-to-UserResponse" style="stroke:#181818;stroke-width:1;"/><polygon fill="#181818" points="835,214.13,839,205.13,835,209.13,831,205.13,835,214.13" style="stroke:#181818;stroke-width:1;stroke-linejoin:miter;stroke-miterlimit:10;"/></g><?plantuml-src hPBTIiGm48Nl-nJ3tig2Jw0KYr0GX6xx0BF9K4ER7pEfowxikvjjHPkokYfUvZ3pdPEJSAUCGuyQH8_CUGXUROT0fR1cemu4rrdcK7JO4goK91DKs4DHF_8ANZEOjk31jifKz3mGXr46kDf4acc1DAe-KLpSs5aletZCbWXsrZ0j62W4CTUs8pFf3PF_c1tY8MNTUS90qr2IgMdA0eJL3is-b8c7GKr_2juuUTxi4dZEcDzddbN9iy5_Of18730C_AuLCM-jD84OUv9vIDFapAerbUsfjb-LU2fzqQ2F2vyJjx3rQCHJkQYh8crVw0I_zrR_Etu4nidBRVxEujlQqh-xNjya3veTtm00?></g></svg>