<svg xmlns="http://www.w3.org/2000/svg" xmlns:xlink="http://www.w3.org/1999/xlink" contentStyleType="text/css" data-diagram-type="CLASS" height="613px" preserveAspectRatio="none" style="width:2409px;height:613px;background:#FFFFFF;" version="1.1" viewBox="0 0 2409 613" width="2409px" zoomAndPan="magnify"><?plantuml 1.2026.4beta2?><defs/><g><!--cluster staff DTOs--><g class="cluster" data-qualified-name="staff DTOs" data-source-line="3" id="ent0002"><path d="M8.5,6 L92.4336,6 A3.75,3.75 0 0 1 94.9336,8.5 L101.9336,28.2969 L2391.5,28.2969 A2.5,2.5 0 0 1 2394,30.7969 L2394,595.55 A2.5,2.5 0 0 1 2391.5,598.05 L8.5,598.05 A2.5,2.5 0 0 1 6,595.55 L6,8.5 A2.5,2.5 0 0 1 8.5,6" fill="none" style="stroke:#000000;stroke-width:1.5;"/><line style="stroke:#000000;stroke-width:1.5;" x1="6" x2="101.9336" y1="28.2969" y2="28.2969"/><text fill="#000000" font-family="sans-serif" font-size="14" font-weight="700" lengthAdjust="spacing" textLength="82.9336" x="10" y="20.9951">staff DTOs</text></g><!--class CreateCollaboratorRequest--><g class="entity" data-qualified-name="staff DTOs.CreateCollaboratorRequest" data-source-line="4" id="ent0003"><rect fill="#F1F1F1" height="113.1875" rx="2.5" ry="2.5" style="stroke:#181818;stroke-width:0.5;" width="222.6201" x="21.69" y="41"/><ellipse cx="36.69" cy="57" fill="#ADD1B2" rx="11" ry="11" style="stroke:#181818;stroke-width:1;"/><path d="M39.6588,62.6406 Q39.0806,62.9375 38.44,63.0781 Q37.7994,63.2344 37.0963,63.2344 Q34.5963,63.2344 33.2681,61.5938 Q31.9556,59.9375 31.9556,56.8125 Q31.9556,53.6875 33.2681,52.0313 Q34.5963,50.375 37.0963,50.375 Q37.7994,50.375 38.44,50.5313 Q39.0963,50.6875 39.6588,50.9844 L39.6588,53.7031 Q39.0338,53.125 38.44,52.8594 Q37.8463,52.5781 37.2213,52.5781 Q35.8775,52.5781 35.19,53.6563 Q34.5025,54.7188 34.5025,56.8125 Q34.5025,58.9063 35.19,59.9844 Q35.8775,61.0469 37.2213,61.0469 Q37.8463,61.0469 38.44,60.7813 Q39.0338,60.5 39.6588,59.9219 L39.6588,62.6406 Z " fill="#000000"/><text fill="#000000" font-family="sans-serif" font-size="14" lengthAdjust="spacing" textLength="190.6201" x="50.69" y="61.8467">CreateCollaboratorRequest</text><line style="stroke:#181818;stroke-width:0.5;" x1="22.69" x2="243.3101" y1="73" y2="73"/><text fill="#000000" font-family="sans-serif" font-size="14" lengthAdjust="spacing" textLength="95.1357" x="27.69" y="89.9951">+UUID userId</text><text fill="#000000" font-family="sans-serif" font-size="14" lengthAdjust="spacing" textLength="129.124" x="27.69" y="106.292">+UUID companyId</text><text fill="#000000" font-family="sans-serif" font-size="14" lengthAdjust="spacing" textLength="148.9619" x="27.69" y="122.5889">+UUID mainBranchId</text><text fill="#000000" font-family="sans-serif" font-size="14" lengthAdjust="spacing" textLength="154.5879" x="27.69" y="138.8857">+UUID mainPositionId</text><line style="stroke:#181818;stroke-width:0.5;" x1="22.69" x2="243.3101" y1="146.1875" y2="146.1875"/></g><!--class UpdateCollaboratorRequest--><g class="entity" data-qualified-name="staff DTOs.UpdateCollaboratorRequest" data-source-line="11" id="ent0004"><rect fill="#F1F1F1" height="80.5938" rx="2.5" ry="2.5" style="stroke:#181818;stroke-width:0.5;" width="226.4961" x="279.75" y="57.3"/><ellipse cx="294.75" cy="73.3" fill="#ADD1B2" rx="11" ry="11" style="stroke:#181818;stroke-width:1;"/><path d="M297.7188,78.9406 Q297.1406,79.2375 296.5,79.3781 Q295.8594,79.5344 295.1563,79.5344 Q292.6563,79.5344 291.3281,77.8937 Q290.0156,76.2375 290.0156,73.1125 Q290.0156,69.9875 291.3281,68.3312 Q292.6563,66.675 295.1563,66.675 Q295.8594,66.675 296.5,66.8312 Q297.1563,66.9875 297.7188,67.2844 L297.7188,70.0031 Q297.0938,69.425 296.5,69.1594 Q295.9063,68.8781 295.2813,68.8781 Q293.9375,68.8781 293.25,69.9562 Q292.5625,71.0187 292.5625,73.1125 Q292.5625,75.2062 293.25,76.2844 Q293.9375,77.3469 295.2813,77.3469 Q295.9063,77.3469 296.5,77.0812 Q297.0938,76.8 297.7188,76.2219 L297.7188,78.9406 Z " fill="#000000"/><text fill="#000000" font-family="sans-serif" font-size="14" lengthAdjust="spacing" textLength="194.4961" x="308.75" y="78.1467">UpdateCollaboratorRequest</text><line style="stroke:#181818;stroke-width:0.5;" x1="280.75" x2="505.2461" y1="89.3" y2="89.3"/><text fill="#000000" font-family="sans-serif" font-size="14" lengthAdjust="spacing" textLength="148.9619" x="285.75" y="106.2951">+UUID mainBranchId</text><text fill="#000000" font-family="sans-serif" font-size="14" lengthAdjust="spacing" textLength="154.5879" x="285.75" y="122.592">+UUID mainPositionId</text><line style="stroke:#181818;stroke-width:0.5;" x1="280.75" x2="505.2461" y1="129.8937" y2="129.8937"/></g><!--class CollaboratorResponse--><g class="entity" data-qualified-name="staff DTOs.CollaboratorResponse" data-source-line="16" id="ent0005"><rect fill="#F1F1F1" height="227.2656" rx="2.5" ry="2.5" style="stroke:#181818;stroke-width:0.5;" width="201.2529" x="1386.37" y="214.19"/><ellipse cx="1408.16" cy="230.19" fill="#ADD1B2" rx="11" ry="11" style="stroke:#181818;stroke-width:1;"/><path d="M1411.1287,235.8306 Q1410.5506,236.1275 1409.91,236.2681 Q1409.2694,236.4244 1408.5662,236.4244 Q1406.0662,236.4244 1404.7381,234.7837 Q1403.4256,233.1275 1403.4256,230.0025 Q1403.4256,226.8775 1404.7381,225.2212 Q1406.0662,223.565 1408.5662,223.565 Q1409.2694,223.565 1409.91,223.7212 Q1410.5662,223.8775 1411.1287,224.1744 L1411.1287,226.8931 Q1410.5037,226.315 1409.91,226.0494 Q1409.3162,225.7681 1408.6912,225.7681 Q1407.3475,225.7681 1406.66,226.8462 Q1405.9725,227.9087 1405.9725,230.0025 Q1405.9725,232.0962 1406.66,233.1744 Q1407.3475,234.2369 1408.6912,234.2369 Q1409.3162,234.2369 1409.91,233.9712 Q1410.5037,233.69 1411.1287,233.1119 L1411.1287,235.8306 Z " fill="#000000"/><text fill="#000000" font-family="sans-serif" font-size="14" lengthAdjust="spacing" textLength="154.1641" x="1423.6689" y="235.0367">CollaboratorResponse</text><line style="stroke:#181818;stroke-width:0.5;" x1="1387.37" x2="1586.6229" y1="246.19" y2="246.19"/><text fill="#000000" font-family="sans-serif" font-size="14" lengthAdjust="spacing" textLength="64.3604" x="1392.37" y="263.1851">+UUID id</text><text fill="#000000" font-family="sans-serif" font-size="14" lengthAdjust="spacing" textLength="95.1357" x="1392.37" y="279.482">+UUID userId</text><text fill="#000000" font-family="sans-serif" font-size="14" lengthAdjust="spacing" textLength="129.124" x="1392.37" y="295.7789">+UUID companyId</text><text fill="#000000" font-family="sans-serif" font-size="14" lengthAdjust="spacing" textLength="97.665" x="1392.37" y="312.0757">+String name</text><text fill="#000000" font-family="sans-serif" font-size="14" lengthAdjust="spacing" textLength="96.5713" x="1392.37" y="328.3726">+String email</text><text fill="#000000" font-family="sans-serif" font-size="14" lengthAdjust="spacing" textLength="148.9619" x="1392.37" y="344.6695">+UUID mainBranchId</text><text fill="#000000" font-family="sans-serif" font-size="14" lengthAdjust="spacing" textLength="183.627" x="1392.37" y="360.9664">+String mainBranchName</text><text fill="#000000" font-family="sans-serif" font-size="14" lengthAdjust="spacing" textLength="154.5879" x="1392.37" y="377.2632">+UUID mainPositionId</text><text fill="#000000" font-family="sans-serif" font-size="14" lengthAdjust="spacing" textLength="189.2529" x="1392.37" y="393.5601">+String mainPositionName</text><text fill="#000000" font-family="sans-serif" font-size="14" lengthAdjust="spacing" textLength="100.9805" x="1392.37" y="409.857">+String status</text><text fill="#000000" font-family="sans-serif" font-size="14" lengthAdjust="spacing" textLength="153.0361" x="1392.37" y="426.1539">+DateTime createdAt</text><line style="stroke:#181818;stroke-width:0.5;" x1="1387.37" x2="1586.6229" y1="433.4556" y2="433.4556"/></g><!--class CollaboratorListResponse--><g class="entity" data-qualified-name="staff DTOs.CollaboratorListResponse" data-source-line="30" id="ent0006"><rect fill="#F1F1F1" height="64.2969" rx="2.5" ry="2.5" style="stroke:#181818;stroke-width:0.5;" width="321.791" x="997.1" y="65.45"/><ellipse cx="1064.4271" cy="81.45" fill="#ADD1B2" rx="11" ry="11" style="stroke:#181818;stroke-width:1;"/><path d="M1067.3959,87.0906 Q1066.8178,87.3875 1066.1771,87.5281 Q1065.5365,87.6844 1064.8334,87.6844 Q1062.3334,87.6844 1061.0053,86.0437 Q1059.6928,84.3875 1059.6928,81.2625 Q1059.6928,78.1375 1061.0053,76.4812 Q1062.3334,74.825 1064.8334,74.825 Q1065.5365,74.825 1066.1771,74.9812 Q1066.8334,75.1375 1067.3959,75.4344 L1067.3959,78.1531 Q1066.7709,77.575 1066.1771,77.3094 Q1065.5834,77.0281 1064.9584,77.0281 Q1063.6146,77.0281 1062.9271,78.1062 Q1062.2396,79.1687 1062.2396,81.2625 Q1062.2396,83.3562 1062.9271,84.4344 Q1063.6146,85.4969 1064.9584,85.4969 Q1065.5834,85.4969 1066.1771,85.2312 Q1066.7709,84.95 1067.3959,84.3719 L1067.3959,87.0906 Z " fill="#000000"/><text fill="#000000" font-family="sans-serif" font-size="14" lengthAdjust="spacing" textLength="178.6367" x="1084.9271" y="86.2967">CollaboratorListResponse</text><line style="stroke:#181818;stroke-width:0.5;" x1="998.1" x2="1317.891" y1="97.45" y2="97.45"/><text fill="#000000" font-family="sans-serif" font-size="14" lengthAdjust="spacing" textLength="309.791" x="1003.1" y="114.4451">+List&lt;CollaboratorResponse&gt; collaborators</text><line style="stroke:#181818;stroke-width:0.5;" x1="998.1" x2="1317.891" y1="121.7469" y2="121.7469"/></g><!--class CreatePositionRequest--><g class="entity" data-qualified-name="staff DTOs.CreatePositionRequest" data-source-line="34" id="ent0007"><rect fill="#F1F1F1" height="96.8906" rx="2.5" ry="2.5" style="stroke:#181818;stroke-width:0.5;" width="191.332" x="541.33" y="49.15"/><ellipse cx="556.33" cy="65.15" fill="#ADD1B2" rx="11" ry="11" style="stroke:#181818;stroke-width:1;"/><path d="M559.2988,70.7906 Q558.7206,71.0875 558.08,71.2281 Q557.4394,71.3844 556.7363,71.3844 Q554.2363,71.3844 552.9081,69.7437 Q551.5956,68.0875 551.5956,64.9625 Q551.5956,61.8375 552.9081,60.1812 Q554.2363,58.525 556.7363,58.525 Q557.4394,58.525 558.08,58.6812 Q558.7363,58.8375 559.2988,59.1344 L559.2988,61.8531 Q558.6738,61.275 558.08,61.0094 Q557.4863,60.7281 556.8613,60.7281 Q555.5175,60.7281 554.83,61.8062 Q554.1425,62.8687 554.1425,64.9625 Q554.1425,67.0562 554.83,68.1344 Q555.5175,69.1969 556.8613,69.1969 Q557.4863,69.1969 558.08,68.9312 Q558.6738,68.65 559.2988,68.0719 L559.2988,70.7906 Z " fill="#000000"/><text fill="#000000" font-family="sans-serif" font-size="14" lengthAdjust="spacing" textLength="159.332" x="570.33" y="69.9967">CreatePositionRequest</text><line style="stroke:#181818;stroke-width:0.5;" x1="542.33" x2="731.662" y1="81.15" y2="81.15"/><text fill="#000000" font-family="sans-serif" font-size="14" lengthAdjust="spacing" textLength="129.124" x="547.33" y="98.1451">+UUID companyId</text><text fill="#000000" font-family="sans-serif" font-size="14" lengthAdjust="spacing" textLength="97.665" x="547.33" y="114.442">+String name</text><text fill="#000000" font-family="sans-serif" font-size="14" lengthAdjust="spacing" textLength="143.2334" x="547.33" y="130.7389">+String? description</text><line style="stroke:#181818;stroke-width:0.5;" x1="542.33" x2="731.662" y1="138.0406" y2="138.0406"/></g><!--class UpdatePositionRequest--><g class="entity" data-qualified-name="staff DTOs.UpdatePositionRequest" data-source-line="40" id="ent0008"><rect fill="#F1F1F1" height="80.5938" rx="2.5" ry="2.5" style="stroke:#181818;stroke-width:0.5;" width="195.208" x="767.4" y="57.3"/><ellipse cx="782.4" cy="73.3" fill="#ADD1B2" rx="11" ry="11" style="stroke:#181818;stroke-width:1;"/><path d="M785.3688,78.9406 Q784.7906,79.2375 784.15,79.3781 Q783.5094,79.5344 782.8063,79.5344 Q780.3063,79.5344 778.9781,77.8937 Q777.6656,76.2375 777.6656,73.1125 Q777.6656,69.9875 778.9781,68.3312 Q780.3063,66.675 782.8063,66.675 Q783.5094,66.675 784.15,66.8312 Q784.8063,66.9875 785.3688,67.2844 L785.3688,70.0031 Q784.7438,69.425 784.15,69.1594 Q783.5563,68.8781 782.9313,68.8781 Q781.5875,68.8781 780.9,69.9562 Q780.2125,71.0187 780.2125,73.1125 Q780.2125,75.2062 780.9,76.2844 Q781.5875,77.3469 782.9313,77.3469 Q783.5563,77.3469 784.15,77.0812 Q784.7438,76.8 785.3688,76.2219 L785.3688,78.9406 Z " fill="#000000"/><text fill="#000000" font-family="sans-serif" font-size="14" lengthAdjust="spacing" textLength="163.208" x="796.4" y="78.1467">UpdatePositionRequest</text><line style="stroke:#181818;stroke-width:0.5;" x1="768.4" x2="961.608" y1="89.3" y2="89.3"/><text fill="#000000" font-family="sans-serif" font-size="14" lengthAdjust="spacing" textLength="97.665" x="773.4" y="106.2951">+String name</text><text fill="#000000" font-family="sans-serif" font-size="14" lengthAdjust="spacing" textLength="143.2334" x="773.4" y="122.592">+String? description</text><line style="stroke:#181818;stroke-width:0.5;" x1="768.4" x2="961.608" y1="129.8937" y2="129.8937"/></g><!--class PositionResponse--><g class="entity" data-qualified-name="staff DTOs.PositionResponse" data-source-line="45" id="ent0009"><rect fill="#F1F1F1" height="145.7813" rx="2.5" ry="2.5" style="stroke:#181818;stroke-width:0.5;" width="165.0361" x="1622.48" y="254.93"/><ellipse cx="1642.0521" cy="270.93" fill="#ADD1B2" rx="11" ry="11" style="stroke:#181818;stroke-width:1;"/><path d="M1645.0208,276.5706 Q1644.4427,276.8675 1643.8021,277.0081 Q1643.1614,277.1644 1642.4583,277.1644 Q1639.9583,277.1644 1638.6302,275.5237 Q1637.3177,273.8675 1637.3177,270.7425 Q1637.3177,267.6175 1638.6302,265.9612 Q1639.9583,264.305 1642.4583,264.305 Q1643.1614,264.305 1643.8021,264.4612 Q1644.4583,264.6175 1645.0208,264.9144 L1645.0208,267.6331 Q1644.3958,267.055 1643.8021,266.7894 Q1643.2083,266.5081 1642.5833,266.5081 Q1641.2396,266.5081 1640.5521,267.5862 Q1639.8646,268.6487 1639.8646,270.7425 Q1639.8646,272.8362 1640.5521,273.9144 Q1641.2396,274.9769 1642.5833,274.9769 Q1643.2083,274.9769 1643.8021,274.7112 Q1644.3958,274.43 1645.0208,273.8519 L1645.0208,276.5706 Z " fill="#000000"/><text fill="#000000" font-family="sans-serif" font-size="14" lengthAdjust="spacing" textLength="122.876" x="1657.0681" y="275.7767">PositionResponse</text><line style="stroke:#181818;stroke-width:0.5;" x1="1623.48" x2="1786.5161" y1="286.93" y2="286.93"/><text fill="#000000" font-family="sans-serif" font-size="14" lengthAdjust="spacing" textLength="64.3604" x="1628.48" y="303.9251">+UUID id</text><text fill="#000000" font-family="sans-serif" font-size="14" lengthAdjust="spacing" textLength="129.124" x="1628.48" y="320.222">+UUID companyId</text><text fill="#000000" font-family="sans-serif" font-size="14" lengthAdjust="spacing" textLength="97.665" x="1628.48" y="336.5189">+String name</text><text fill="#000000" font-family="sans-serif" font-size="14" lengthAdjust="spacing" textLength="143.2334" x="1628.48" y="352.8157">+String? description</text><text fill="#000000" font-family="sans-serif" font-size="14" lengthAdjust="spacing" textLength="100.9805" x="1628.48" y="369.1126">+String status</text><text fill="#000000" font-family="sans-serif" font-size="14" lengthAdjust="spacing" textLength="153.0361" x="1628.48" y="385.4095">+DateTime createdAt</text><line style="stroke:#181818;stroke-width:0.5;" x1="1623.48" x2="1786.5161" y1="392.7112" y2="392.7112"/></g><!--class PositionListResponse--><g class="entity" data-qualified-name="staff DTOs.PositionListResponse" data-source-line="54" id="ent0010"><rect fill="#F1F1F1" height="64.2969" rx="2.5" ry="2.5" style="stroke:#181818;stroke-width:0.5;" width="261.7373" x="1354.13" y="65.45"/><ellipse cx="1407.0743" cy="81.45" fill="#ADD1B2" rx="11" ry="11" style="stroke:#181818;stroke-width:1;"/><path d="M1410.0431,87.0906 Q1409.465,87.3875 1408.8243,87.5281 Q1408.1837,87.6844 1407.4806,87.6844 Q1404.9806,87.6844 1403.6525,86.0437 Q1402.34,84.3875 1402.34,81.2625 Q1402.34,78.1375 1403.6525,76.4812 Q1404.9806,74.825 1407.4806,74.825 Q1408.1837,74.825 1408.8243,74.9812 Q1409.4806,75.1375 1410.0431,75.4344 L1410.0431,78.1531 Q1409.4181,77.575 1408.8243,77.3094 Q1408.2306,77.0281 1407.6056,77.0281 Q1406.2618,77.0281 1405.5743,78.1062 Q1404.8868,79.1687 1404.8868,81.2625 Q1404.8868,83.3562 1405.5743,84.4344 Q1406.2618,85.4969 1407.6056,85.4969 Q1408.2306,85.4969 1408.8243,85.2312 Q1409.4181,84.95 1410.0431,84.3719 L1410.0431,87.0906 Z " fill="#000000"/><text fill="#000000" font-family="sans-serif" font-size="14" lengthAdjust="spacing" textLength="147.3486" x="1427.5743" y="86.2967">PositionListResponse</text><line style="stroke:#181818;stroke-width:0.5;" x1="1355.13" x2="1614.8673" y1="97.45" y2="97.45"/><text fill="#000000" font-family="sans-serif" font-size="14" lengthAdjust="spacing" textLength="249.7373" x="1360.13" y="114.4451">+List&lt;PositionResponse&gt; positions</text><line style="stroke:#181818;stroke-width:0.5;" x1="1355.13" x2="1614.8673" y1="121.7469" y2="121.7469"/></g><!--class AssignBranchToCollaboratorRequest--><g class="entity" data-qualified-name="staff DTOs.AssignBranchToCollaboratorRequest" data-source-line="58" id="ent0011"><rect fill="#F1F1F1" height="80.5938" rx="2.5" ry="2.5" style="stroke:#181818;stroke-width:0.5;" width="288.1084" x="21.95" y="287.53"/><ellipse cx="36.95" cy="303.53" fill="#ADD1B2" rx="11" ry="11" style="stroke:#181818;stroke-width:1;"/><path d="M39.9188,309.1706 Q39.3406,309.4675 38.7,309.6081 Q38.0594,309.7644 37.3563,309.7644 Q34.8563,309.7644 33.5281,308.1238 Q32.2156,306.4675 32.2156,303.3425 Q32.2156,300.2175 33.5281,298.5613 Q34.8563,296.905 37.3563,296.905 Q38.0594,296.905 38.7,297.0613 Q39.3563,297.2175 39.9188,297.5144 L39.9188,300.2331 Q39.2938,299.655 38.7,299.3894 Q38.1063,299.1081 37.4813,299.1081 Q36.1375,299.1081 35.45,300.1863 Q34.7625,301.2488 34.7625,303.3425 Q34.7625,305.4363 35.45,306.5144 Q36.1375,307.5769 37.4813,307.5769 Q38.1063,307.5769 38.7,307.3113 Q39.2938,307.03 39.9188,306.4519 L39.9188,309.1706 Z " fill="#000000"/><text fill="#000000" font-family="sans-serif" font-size="14" lengthAdjust="spacing" textLength="256.1084" x="50.95" y="308.3767">AssignBranchToCollaboratorRequest</text><line style="stroke:#181818;stroke-width:0.5;" x1="22.95" x2="309.0584" y1="319.53" y2="319.53"/><text fill="#000000" font-family="sans-serif" font-size="14" lengthAdjust="spacing" textLength="148.8184" x="27.95" y="336.5251">+UUID collaboratorId</text><text fill="#000000" font-family="sans-serif" font-size="14" lengthAdjust="spacing" textLength="113.2646" x="27.95" y="352.822">+UUID branchId</text><line style="stroke:#181818;stroke-width:0.5;" x1="22.95" x2="309.0584" y1="360.1238" y2="360.1238"/></g><!--class RemoveBranchFromCollaboratorRequest--><g class="entity" data-qualified-name="staff DTOs.RemoveBranchFromCollaboratorRequest" data-source-line="63" id="ent0012"><rect fill="#F1F1F1" height="80.5938" rx="2.5" ry="2.5" style="stroke:#181818;stroke-width:0.5;" width="318.6309" x="344.68" y="287.53"/><ellipse cx="359.68" cy="303.53" fill="#ADD1B2" rx="11" ry="11" style="stroke:#181818;stroke-width:1;"/><path d="M362.6488,309.1706 Q362.0706,309.4675 361.43,309.6081 Q360.7894,309.7644 360.0863,309.7644 Q357.5863,309.7644 356.2581,308.1238 Q354.9456,306.4675 354.9456,303.3425 Q354.9456,300.2175 356.2581,298.5613 Q357.5863,296.905 360.0863,296.905 Q360.7894,296.905 361.43,297.0613 Q362.0863,297.2175 362.6488,297.5144 L362.6488,300.2331 Q362.0238,299.655 361.43,299.3894 Q360.8363,299.1081 360.2113,299.1081 Q358.8675,299.1081 358.18,300.1863 Q357.4925,301.2488 357.4925,303.3425 Q357.4925,305.4363 358.18,306.5144 Q358.8675,307.5769 360.2113,307.5769 Q360.8363,307.5769 361.43,307.3113 Q362.0238,307.03 362.6488,306.4519 L362.6488,309.1706 Z " fill="#000000"/><text fill="#000000" font-family="sans-serif" font-size="14" lengthAdjust="spacing" textLength="286.6309" x="373.68" y="308.3767">RemoveBranchFromCollaboratorRequest</text><line style="stroke:#181818;stroke-width:0.5;" x1="345.68" x2="662.3109" y1="319.53" y2="319.53"/><text fill="#000000" font-family="sans-serif" font-size="14" lengthAdjust="spacing" textLength="148.8184" x="350.68" y="336.5251">+UUID collaboratorId</text><text fill="#000000" font-family="sans-serif" font-size="14" lengthAdjust="spacing" textLength="113.2646" x="350.68" y="352.822">+UUID branchId</text><line style="stroke:#181818;stroke-width:0.5;" x1="345.68" x2="662.3109" y1="360.1238" y2="360.1238"/></g><!--class CollaboratorBranchResponse--><g class="entity" data-qualified-name="staff DTOs.CollaboratorBranchResponse" data-source-line="68" id="ent0013"><rect fill="#F1F1F1" height="129.4844" rx="2.5" ry="2.5" style="stroke:#181818;stroke-width:0.5;" width="235.5469" x="1822.23" y="263.08"/><ellipse cx="1837.23" cy="279.08" fill="#ADD1B2" rx="11" ry="11" style="stroke:#181818;stroke-width:1;"/><path d="M1840.1988,284.7206 Q1839.6206,285.0175 1838.98,285.1581 Q1838.3394,285.3144 1837.6363,285.3144 Q1835.1363,285.3144 1833.8081,283.6737 Q1832.4956,282.0175 1832.4956,278.8925 Q1832.4956,275.7675 1833.8081,274.1112 Q1835.1363,272.455 1837.6363,272.455 Q1838.3394,272.455 1838.98,272.6112 Q1839.6363,272.7675 1840.1988,273.0644 L1840.1988,275.7831 Q1839.5738,275.205 1838.98,274.9394 Q1838.3863,274.6581 1837.7613,274.6581 Q1836.4175,274.6581 1835.73,275.7362 Q1835.0425,276.7987 1835.0425,278.8925 Q1835.0425,280.9862 1835.73,282.0644 Q1836.4175,283.1269 1837.7613,283.1269 Q1838.3863,283.1269 1838.98,282.8612 Q1839.5738,282.58 1840.1988,282.0019 L1840.1988,284.7206 Z " fill="#000000"/><text fill="#000000" font-family="sans-serif" font-size="14" lengthAdjust="spacing" textLength="203.5469" x="1851.23" y="283.9267">CollaboratorBranchResponse</text><line style="stroke:#181818;stroke-width:0.5;" x1="1823.23" x2="2056.7769" y1="295.08" y2="295.08"/><text fill="#000000" font-family="sans-serif" font-size="14" lengthAdjust="spacing" textLength="148.8184" x="1828.23" y="312.0751">+UUID collaboratorId</text><text fill="#000000" font-family="sans-serif" font-size="14" lengthAdjust="spacing" textLength="113.2646" x="1828.23" y="328.372">+UUID branchId</text><text fill="#000000" font-family="sans-serif" font-size="14" lengthAdjust="spacing" textLength="147.9297" x="1828.23" y="344.6689">+String branchName</text><text fill="#000000" font-family="sans-serif" font-size="14" lengthAdjust="spacing" textLength="100.9805" x="1828.23" y="360.9657">+String status</text><text fill="#000000" font-family="sans-serif" font-size="14" lengthAdjust="spacing" textLength="153.0361" x="1828.23" y="377.2626">+DateTime createdAt</text><line style="stroke:#181818;stroke-width:0.5;" x1="1823.23" x2="2056.7769" y1="384.5644" y2="384.5644"/></g><!--class CollaboratorBranchesResponse--><g class="entity" data-qualified-name="staff DTOs.CollaboratorBranchesResponse" data-source-line="76" id="ent0014"><rect fill="#F1F1F1" height="64.2969" rx="2.5" ry="2.5" style="stroke:#181818;stroke-width:0.5;" width="344.2334" x="1650.88" y="65.45"/><ellipse cx="1709.0196" cy="81.45" fill="#ADD1B2" rx="11" ry="11" style="stroke:#181818;stroke-width:1;"/><path d="M1711.9884,87.0906 Q1711.4103,87.3875 1710.7696,87.5281 Q1710.129,87.6844 1709.4259,87.6844 Q1706.9259,87.6844 1705.5978,86.0437 Q1704.2853,84.3875 1704.2853,81.2625 Q1704.2853,78.1375 1705.5978,76.4812 Q1706.9259,74.825 1709.4259,74.825 Q1710.129,74.825 1710.7696,74.9812 Q1711.4259,75.1375 1711.9884,75.4344 L1711.9884,78.1531 Q1711.3634,77.575 1710.7696,77.3094 Q1710.1759,77.0281 1709.5509,77.0281 Q1708.2071,77.0281 1707.5196,78.1062 Q1706.8321,79.1687 1706.8321,81.2625 Q1706.8321,83.3562 1707.5196,84.4344 Q1708.2071,85.4969 1709.5509,85.4969 Q1710.1759,85.4969 1710.7696,85.2312 Q1711.3634,84.95 1711.9884,84.3719 L1711.9884,87.0906 Z " fill="#000000"/><text fill="#000000" font-family="sans-serif" font-size="14" lengthAdjust="spacing" textLength="219.4541" x="1729.5196" y="86.2967">CollaboratorBranchesResponse</text><line style="stroke:#181818;stroke-width:0.5;" x1="1651.88" x2="1994.1134" y1="97.45" y2="97.45"/><text fill="#000000" font-family="sans-serif" font-size="14" lengthAdjust="spacing" textLength="332.2334" x="1656.88" y="114.4451">+List&lt;CollaboratorBranchResponse&gt; branches</text><line style="stroke:#181818;stroke-width:0.5;" x1="1651.88" x2="1994.1134" y1="121.7469" y2="121.7469"/></g><!--class AssignPositionToCollaboratorRequest--><g class="entity" data-qualified-name="staff DTOs.AssignPositionToCollaboratorRequest" data-source-line="80" id="ent0015"><rect fill="#F1F1F1" height="80.5938" rx="2.5" ry="2.5" style="stroke:#181818;stroke-width:0.5;" width="293.7344" x="698.13" y="287.53"/><ellipse cx="713.13" cy="303.53" fill="#ADD1B2" rx="11" ry="11" style="stroke:#181818;stroke-width:1;"/><path d="M716.0988,309.1706 Q715.5206,309.4675 714.88,309.6081 Q714.2394,309.7644 713.5363,309.7644 Q711.0363,309.7644 709.7081,308.1238 Q708.3956,306.4675 708.3956,303.3425 Q708.3956,300.2175 709.7081,298.5613 Q711.0363,296.905 713.5363,296.905 Q714.2394,296.905 714.88,297.0613 Q715.5363,297.2175 716.0988,297.5144 L716.0988,300.2331 Q715.4738,299.655 714.88,299.3894 Q714.2863,299.1081 713.6613,299.1081 Q712.3175,299.1081 711.63,300.1863 Q710.9425,301.2488 710.9425,303.3425 Q710.9425,305.4363 711.63,306.5144 Q712.3175,307.5769 713.6613,307.5769 Q714.2863,307.5769 714.88,307.3113 Q715.4738,307.03 716.0988,306.4519 L716.0988,309.1706 Z " fill="#000000"/><text fill="#000000" font-family="sans-serif" font-size="14" lengthAdjust="spacing" textLength="261.7344" x="727.13" y="308.3767">AssignPositionToCollaboratorRequest</text><line style="stroke:#181818;stroke-width:0.5;" x1="699.13" x2="990.8644" y1="319.53" y2="319.53"/><text fill="#000000" font-family="sans-serif" font-size="14" lengthAdjust="spacing" textLength="148.8184" x="704.13" y="336.5251">+UUID collaboratorId</text><text fill="#000000" font-family="sans-serif" font-size="14" lengthAdjust="spacing" textLength="120.0527" x="704.13" y="352.822">+UUID positionId</text><line style="stroke:#181818;stroke-width:0.5;" x1="699.13" x2="990.8644" y1="360.1238" y2="360.1238"/></g><!--class RemovePositionFromCollaboratorRequest--><g class="entity" data-qualified-name="staff DTOs.RemovePositionFromCollaboratorRequest" data-source-line="85" id="ent0016"><rect fill="#F1F1F1" height="80.5938" rx="2.5" ry="2.5" style="stroke:#181818;stroke-width:0.5;" width="324.2568" x="1026.87" y="287.53"/><ellipse cx="1041.87" cy="303.53" fill="#ADD1B2" rx="11" ry="11" style="stroke:#181818;stroke-width:1;"/><path d="M1044.8388,309.1706 Q1044.2606,309.4675 1043.62,309.6081 Q1042.9794,309.7644 1042.2763,309.7644 Q1039.7763,309.7644 1038.4481,308.1238 Q1037.1356,306.4675 1037.1356,303.3425 Q1037.1356,300.2175 1038.4481,298.5613 Q1039.7763,296.905 1042.2763,296.905 Q1042.9794,296.905 1043.62,297.0613 Q1044.2763,297.2175 1044.8388,297.5144 L1044.8388,300.2331 Q1044.2138,299.655 1043.62,299.3894 Q1043.0263,299.1081 1042.4013,299.1081 Q1041.0575,299.1081 1040.37,300.1863 Q1039.6825,301.2488 1039.6825,303.3425 Q1039.6825,305.4363 1040.37,306.5144 Q1041.0575,307.5769 1042.4013,307.5769 Q1043.0263,307.5769 1043.62,307.3113 Q1044.2138,307.03 1044.8388,306.4519 L1044.8388,309.1706 Z " fill="#000000"/><text fill="#000000" font-family="sans-serif" font-size="14" lengthAdjust="spacing" textLength="292.2568" x="1055.87" y="308.3767">RemovePositionFromCollaboratorRequest</text><line style="stroke:#181818;stroke-width:0.5;" x1="1027.87" x2="1350.1268" y1="319.53" y2="319.53"/><text fill="#000000" font-family="sans-serif" font-size="14" lengthAdjust="spacing" textLength="148.8184" x="1032.87" y="336.5251">+UUID collaboratorId</text><text fill="#000000" font-family="sans-serif" font-size="14" lengthAdjust="spacing" textLength="120.0527" x="1032.87" y="352.822">+UUID positionId</text><line style="stroke:#181818;stroke-width:0.5;" x1="1027.87" x2="1350.1268" y1="360.1238" y2="360.1238"/></g><!--class CollaboratorPositionResponse--><g class="entity" data-qualified-name="staff DTOs.CollaboratorPositionResponse" data-source-line="90" id="ent0017"><rect fill="#F1F1F1" height="129.4844" rx="2.5" ry="2.5" style="stroke:#181818;stroke-width:0.5;" width="241.1729" x="2092.41" y="263.08"/><ellipse cx="2107.41" cy="279.08" fill="#ADD1B2" rx="11" ry="11" style="stroke:#181818;stroke-width:1;"/><path d="M2110.3788,284.7206 Q2109.8006,285.0175 2109.16,285.1581 Q2108.5194,285.3144 2107.8163,285.3144 Q2105.3163,285.3144 2103.9881,283.6737 Q2102.6756,282.0175 2102.6756,278.8925 Q2102.6756,275.7675 2103.9881,274.1112 Q2105.3163,272.455 2107.8163,272.455 Q2108.5194,272.455 2109.16,272.6112 Q2109.8163,272.7675 2110.3788,273.0644 L2110.3788,275.7831 Q2109.7538,275.205 2109.16,274.9394 Q2108.5663,274.6581 2107.9413,274.6581 Q2106.5975,274.6581 2105.91,275.7362 Q2105.2225,276.7987 2105.2225,278.8925 Q2105.2225,280.9862 2105.91,282.0644 Q2106.5975,283.1269 2107.9413,283.1269 Q2108.5663,283.1269 2109.16,282.8612 Q2109.7538,282.58 2110.3788,282.0019 L2110.3788,284.7206 Z " fill="#000000"/><text fill="#000000" font-family="sans-serif" font-size="14" lengthAdjust="spacing" textLength="209.1729" x="2121.41" y="283.9267">CollaboratorPositionResponse</text><line style="stroke:#181818;stroke-width:0.5;" x1="2093.41" x2="2332.5829" y1="295.08" y2="295.08"/><text fill="#000000" font-family="sans-serif" font-size="14" lengthAdjust="spacing" textLength="148.8184" x="2098.41" y="312.0751">+UUID collaboratorId</text><text fill="#000000" font-family="sans-serif" font-size="14" lengthAdjust="spacing" textLength="120.0527" x="2098.41" y="328.372">+UUID positionId</text><text fill="#000000" font-family="sans-serif" font-size="14" lengthAdjust="spacing" textLength="154.7178" x="2098.41" y="344.6689">+String positionName</text><text fill="#000000" font-family="sans-serif" font-size="14" lengthAdjust="spacing" textLength="100.9805" x="2098.41" y="360.9657">+String status</text><text fill="#000000" font-family="sans-serif" font-size="14" lengthAdjust="spacing" textLength="153.0361" x="2098.41" y="377.2626">+DateTime createdAt</text><line style="stroke:#181818;stroke-width:0.5;" x1="2093.41" x2="2332.5829" y1="384.5644" y2="384.5644"/></g><!--class CollaboratorPositionsResponse--><g class="entity" data-qualified-name="staff DTOs.CollaboratorPositionsResponse" data-source-line="98" id="ent0018"><rect fill="#F1F1F1" height="64.2969" rx="2.5" ry="2.5" style="stroke:#181818;stroke-width:0.5;" width="348.0342" x="2029.98" y="65.45"/><ellipse cx="2091.5137" cy="81.45" fill="#ADD1B2" rx="11" ry="11" style="stroke:#181818;stroke-width:1;"/><path d="M2094.4824,87.0906 Q2093.9043,87.3875 2093.2637,87.5281 Q2092.6231,87.6844 2091.9199,87.6844 Q2089.4199,87.6844 2088.0918,86.0437 Q2086.7793,84.3875 2086.7793,81.2625 Q2086.7793,78.1375 2088.0918,76.4812 Q2089.4199,74.825 2091.9199,74.825 Q2092.6231,74.825 2093.2637,74.9812 Q2093.9199,75.1375 2094.4824,75.4344 L2094.4824,78.1531 Q2093.8574,77.575 2093.2637,77.3094 Q2092.6699,77.0281 2092.0449,77.0281 Q2090.7012,77.0281 2090.0137,78.1062 Q2089.3262,79.1687 2089.3262,81.2625 Q2089.3262,83.3562 2090.0137,84.4344 Q2090.7012,85.4969 2092.0449,85.4969 Q2092.6699,85.4969 2093.2637,85.2312 Q2093.8574,84.95 2094.4824,84.3719 L2094.4824,87.0906 Z " fill="#000000"/><text fill="#000000" font-family="sans-serif" font-size="14" lengthAdjust="spacing" textLength="216.4668" x="2112.0137" y="86.2967">CollaboratorPositionsResponse</text><line style="stroke:#181818;stroke-width:0.5;" x1="2030.98" x2="2377.0142" y1="97.45" y2="97.45"/><text fill="#000000" font-family="sans-serif" font-size="14" lengthAdjust="spacing" textLength="336.0342" x="2035.98" y="114.4451">+List&lt;CollaboratorPositionResponse&gt; positions</text><line style="stroke:#181818;stroke-width:0.5;" x1="2030.98" x2="2377.0142" y1="121.7469" y2="121.7469"/></g><!--class ChangeMainBranchRequest--><g class="entity" data-qualified-name="staff DTOs.ChangeMainBranchRequest" data-source-line="102" id="ent0019"><rect fill="#F1F1F1" height="80.5938" rx="2.5" ry="2.5" style="stroke:#181818;stroke-width:0.5;" width="225.9014" x="53.05" y="501.46"/><ellipse cx="68.05" cy="517.46" fill="#ADD1B2" rx="11" ry="11" style="stroke:#181818;stroke-width:1;"/><path d="M71.0188,523.1006 Q70.4406,523.3975 69.8,523.5381 Q69.1594,523.6944 68.4563,523.6944 Q65.9563,523.6944 64.6281,522.0537 Q63.3156,520.3975 63.3156,517.2725 Q63.3156,514.1475 64.6281,512.4912 Q65.9563,510.835 68.4563,510.835 Q69.1594,510.835 69.8,510.9912 Q70.4563,511.1475 71.0188,511.4444 L71.0188,514.1631 Q70.3938,513.585 69.8,513.3194 Q69.2063,513.0381 68.5813,513.0381 Q67.2375,513.0381 66.55,514.1162 Q65.8625,515.1787 65.8625,517.2725 Q65.8625,519.3662 66.55,520.4444 Q67.2375,521.5069 68.5813,521.5069 Q69.2063,521.5069 69.8,521.2412 Q70.3938,520.96 71.0188,520.3819 L71.0188,523.1006 Z " fill="#000000"/><text fill="#000000" font-family="sans-serif" font-size="14" lengthAdjust="spacing" textLength="193.9014" x="82.05" y="522.3067">ChangeMainBranchRequest</text><line style="stroke:#181818;stroke-width:0.5;" x1="54.05" x2="277.9514" y1="533.46" y2="533.46"/><text fill="#000000" font-family="sans-serif" font-size="14" lengthAdjust="spacing" textLength="148.8184" x="59.05" y="550.4551">+UUID collaboratorId</text><text fill="#000000" font-family="sans-serif" font-size="14" lengthAdjust="spacing" textLength="113.2646" x="59.05" y="566.752">+UUID branchId</text><line style="stroke:#181818;stroke-width:0.5;" x1="54.05" x2="277.9514" y1="574.0537" y2="574.0537"/></g><!--class ChangeMainPositionRequest--><g class="entity" data-qualified-name="staff DTOs.ChangeMainPositionRequest" data-source-line="107" id="ent0020"><rect fill="#F1F1F1" height="80.5938" rx="2.5" ry="2.5" style="stroke:#181818;stroke-width:0.5;" width="231.5273" x="314.24" y="501.46"/><ellipse cx="329.24" cy="517.46" fill="#ADD1B2" rx="11" ry="11" style="stroke:#181818;stroke-width:1;"/><path d="M332.2088,523.1006 Q331.6306,523.3975 330.99,523.5381 Q330.3494,523.6944 329.6463,523.6944 Q327.1463,523.6944 325.8181,522.0537 Q324.5056,520.3975 324.5056,517.2725 Q324.5056,514.1475 325.8181,512.4912 Q327.1463,510.835 329.6463,510.835 Q330.3494,510.835 330.99,510.9912 Q331.6463,511.1475 332.2088,511.4444 L332.2088,514.1631 Q331.5838,513.585 330.99,513.3194 Q330.3963,513.0381 329.7713,513.0381 Q328.4275,513.0381 327.74,514.1162 Q327.0525,515.1787 327.0525,517.2725 Q327.0525,519.3662 327.74,520.4444 Q328.4275,521.5069 329.7713,521.5069 Q330.3963,521.5069 330.99,521.2412 Q331.5838,520.96 332.2088,520.3819 L332.2088,523.1006 Z " fill="#000000"/><text fill="#000000" font-family="sans-serif" font-size="14" lengthAdjust="spacing" textLength="199.5273" x="343.24" y="522.3067">ChangeMainPositionRequest</text><line style="stroke:#181818;stroke-width:0.5;" x1="315.24" x2="544.7673" y1="533.46" y2="533.46"/><text fill="#000000" font-family="sans-serif" font-size="14" lengthAdjust="spacing" textLength="148.8184" x="320.24" y="550.4551">+UUID collaboratorId</text><text fill="#000000" font-family="sans-serif" font-size="14" lengthAdjust="spacing" textLength="120.0527" x="320.24" y="566.752">+UUID positionId</text><line style="stroke:#181818;stroke-width:0.5;" x1="315.24" x2="544.7673" y1="574.0537" y2="574.0537"/></g><!--link CollaboratorListResponse to CollaboratorResponse--><g class="link" data-entity-1="ent0006" data-entity-2="ent0005" data-link-type="dependency" data-source-line="112" id="lnk21"><path codeLine="112" d="M1225.79,130.05 C1268.55,151.24 1324,181.26 1369,214.19 C1374.71,218.37 1375.7846,219.0249 1381.4546,223.6349" fill="none" id="CollaboratorListResponse-to-CollaboratorResponse" style="stroke:#181818;stroke-width:1;"/><polygon fill="#181818" points="1386.11,227.42,1381.6503,218.6387,1382.2305,224.2657,1376.6035,224.846,1386.11,227.42" style="stroke:#181818;stroke-width:1;"/></g><!--link PositionListResponse to PositionResponse--><g class="link" data-entity-1="ent0010" data-entity-2="ent0009" data-link-type="dependency" data-source-line="113" id="lnk22"><path codeLine="113" d="M1519.05,130.05 C1543.45,152.92 1576.85,184.87 1605,214.19 C1617.32,227.02 1626.1302,236.5166 1638.3302,250.0966" fill="none" id="PositionListResponse-to-PositionResponse" style="stroke:#181818;stroke-width:1;"/><polygon fill="#181818" points="1642.34,254.56,1639.3009,245.1918,1638.9985,250.8405,1633.3497,250.5382,1642.34,254.56" style="stroke:#181818;stroke-width:1;"/></g><!--link CollaboratorBranchesResponse to CollaboratorBranchResponse--><g class="link" data-entity-1="ent0014" data-entity-2="ent0013" data-link-type="dependency" data-source-line="114" id="lnk23"><path codeLine="114" d="M1839.02,129.85 C1856.48,163.91 1882.1627,214.0008 1904.4127,257.4008" fill="none" id="CollaboratorBranchesResponse-to-CollaboratorBranchResponse" style="stroke:#181818;stroke-width:1;"/><polygon fill="#181818" points="1907.15,262.74,1906.6036,252.9063,1904.8689,258.2906,1899.4846,256.556,1907.15,262.74" style="stroke:#181818;stroke-width:1;"/></g><!--link CollaboratorPositionsResponse to CollaboratorPositionResponse--><g class="link" data-entity-1="ent0018" data-entity-2="ent0017" data-link-type="dependency" data-source-line="115" id="lnk24"><path codeLine="115" d="M2205.23,129.85 C2206.58,163.91 2208.5238,213.3447 2210.2338,256.7447" fill="none" id="CollaboratorPositionsResponse-to-CollaboratorPositionResponse" style="stroke:#181818;stroke-width:1;"/><polygon fill="#181818" points="2210.47,262.74,2214.1126,253.5895,2210.2731,257.7439,2206.1188,253.9045,2210.47,262.74" style="stroke:#181818;stroke-width:1;"/></g><?plantuml-src hLLRJiCm4FpFAQp-eaeS00MLLaYLeA0-3k0aszPgOXklWmIeToVDsqxIf8_VjNTclREpnWFZaYeQ4J-aY1Ej5VDY3NDVy1Nx1VBeE9Bw1xe3Ca9DjrioMt_WYFmv94iXKmLKmrI48VM4ebge9Np5W3gzGyZ3PZEVaHX1pODQm1UHfFp7Y4MKyHT5kRzlX3y5Ciq4Jm-EJic-aS40zYk0JKYKWYCOc2ouu7chfAzyHpYDm0X0Ka9ujj3yOdMmA37Qts3c54SBcpaHKyUOXMP92zSi0kAdMWOJtTsBDuRQxiSfzjJMC3VfGnL52pKbAmfiasrO4vz90EWh9aymRTFHGN4vN0NKDm_NLNwTEaLLdShOPRj4vX5BaGaYs-LZjXPzfgfBQyo-Lmrm3Nm9aVY63FnLYUZEy7MuZAHLfI6ebGoUvRWRlPFL1TZh7_C1Rbu7jCfLg7k3OB9Z1sQI5GGtYIO7hDcpzXg6N6aaxxtuYkhwrHlij-cUyXsybwlz7ZOe8Sylri4oTUx-yTXj_IIJdDQDTBflTyR2R_Z3vZ1zOMKt1RBJ6_J7Vm00?></g></svg>