<svg xmlns="http://www.w3.org/2000/svg" xmlns:xlink="http://www.w3.org/1999/xlink" contentStyleType="text/css" data-diagram-type="CLASS" height="292px" preserveAspectRatio="none" style="width:419px;height:292px;background:#FFFFFF;" version="1.1" viewBox="0 0 419 292" width="419px" zoomAndPan="magnify"><?plantuml 1.2026.5?><defs/><g><!--class ShiftStatus--><g class="entity" data-qualified-name="ShiftStatus" data-source-line="1" id="ent0001"><rect fill="#F1F1F1" height="80.5938" rx="2.5" ry="2.5" style="stroke:#181818;stroke-width:0.5;" width="108.6787" x="69.64" y="7"/><ellipse cx="84.64" cy="23" fill="#EB937F" rx="11" ry="11" style="stroke:#181818;stroke-width:1;"/><path d="M88.7494,29 L81.0306,29 L81.0306,16.6094 L88.7494,16.6094 L88.7494,18.7656 L83.4838,18.7656 L83.4838,21.4375 L88.2494,21.4375 L88.2494,23.5938 L83.4838,23.5938 L83.4838,26.8438 L88.7494,26.8438 L88.7494,29 Z " fill="#000000"/><text fill="#000000" font-family="sans-serif" font-size="14" lengthAdjust="spacing" textLength="76.6787" x="98.64" y="27.8467">ShiftStatus</text><line style="stroke:#181818;stroke-width:0.5;" x1="70.64" x2="177.3187" y1="39" y2="39"/><text fill="#000000" font-family="sans-serif" font-size="14" lengthAdjust="spacing" textLength="50.4561" x="75.64" y="55.9951">ACTIVE</text><text fill="#000000" font-family="sans-serif" font-size="14" lengthAdjust="spacing" textLength="65.0576" x="75.64" y="72.292">INACTIVE</text><line style="stroke:#181818;stroke-width:0.5;" x1="70.64" x2="177.3187" y1="79.5938" y2="79.5938"/></g><!--class ShiftAssignmentStatus--><g class="entity" data-qualified-name="ShiftAssignmentStatus" data-source-line="6" id="ent0002"><rect fill="#F1F1F1" height="80.5938" rx="2.5" ry="2.5" style="stroke:#181818;stroke-width:0.5;" width="191.1064" x="213.42" y="7"/><ellipse cx="228.42" cy="23" fill="#EB937F" rx="11" ry="11" style="stroke:#181818;stroke-width:1;"/><path d="M232.5294,29 L224.8106,29 L224.8106,16.6094 L232.5294,16.6094 L232.5294,18.7656 L227.2638,18.7656 L227.2638,21.4375 L232.0294,21.4375 L232.0294,23.5938 L227.2638,23.5938 L227.2638,26.8438 L232.5294,26.8438 L232.5294,29 Z " fill="#000000"/><text fill="#000000" font-family="sans-serif" font-size="14" lengthAdjust="spacing" textLength="159.1064" x="242.42" y="27.8467">ShiftAssignmentStatus</text><line style="stroke:#181818;stroke-width:0.5;" x1="214.42" x2="403.5264" y1="39" y2="39"/><text fill="#000000" font-family="sans-serif" font-size="14" lengthAdjust="spacing" textLength="72.4268" x="219.42" y="55.9951">ASSIGNED</text><text fill="#000000" font-family="sans-serif" font-size="14" lengthAdjust="spacing" textLength="83.6719" x="219.42" y="72.292">CANCELLED</text><line style="stroke:#181818;stroke-width:0.5;" x1="214.42" x2="403.5264" y1="79.5938" y2="79.5938"/></g><!--class ShiftSwapStatus--><g class="entity" data-qualified-name="ShiftSwapStatus" data-source-line="11" id="ent0003"><rect fill="#F1F1F1" height="129.4844" rx="2.5" ry="2.5" style="stroke:#181818;stroke-width:0.5;" width="233.9492" x="7" y="147.6"/><ellipse cx="62.4839" cy="163.6" fill="#EB937F" rx="11" ry="11" style="stroke:#181818;stroke-width:1;"/><path d="M66.5933,169.6 L58.8745,169.6 L58.8745,157.2094 L66.5933,157.2094 L66.5933,159.3656 L61.3276,159.3656 L61.3276,162.0375 L66.0933,162.0375 L66.0933,164.1938 L61.3276,164.1938 L61.3276,167.4438 L66.5933,167.4438 L66.5933,169.6 Z " fill="#000000"/><text fill="#000000" font-family="sans-serif" font-size="14" lengthAdjust="spacing" textLength="114.4814" x="82.9839" y="168.4467">ShiftSwapStatus</text><line style="stroke:#181818;stroke-width:0.5;" x1="8" x2="239.9492" y1="179.6" y2="179.6"/><text fill="#000000" font-family="sans-serif" font-size="14" lengthAdjust="spacing" textLength="63.9912" x="13" y="196.5951">PENDING</text><text fill="#000000" font-family="sans-serif" font-size="14" lengthAdjust="spacing" textLength="221.9492" x="13" y="212.892">ACCEPTED_BY_COLLABORATOR</text><text fill="#000000" font-family="sans-serif" font-size="14" lengthAdjust="spacing" textLength="76.4121" x="13" y="229.1889">APPROVED</text><text fill="#000000" font-family="sans-serif" font-size="14" lengthAdjust="spacing" textLength="69.501" x="13" y="245.4857">REJECTED</text><text fill="#000000" font-family="sans-serif" font-size="14" lengthAdjust="spacing" textLength="83.6719" x="13" y="261.7826">CANCELLED</text><line style="stroke:#181818;stroke-width:0.5;" x1="8" x2="239.9492" y1="269.0844" y2="269.0844"/></g><?plantuml-src IyqhpLK8piXCAmakIImfBLQevb9GS7GEyGnp1J8y_Q3CMYwkLBXAn-BYpFIytDGy53t1mPxkVgukGAQpev-pguyFa8sYBRWyiG19Gu2hdukddplOEcVNW11NbtYdo7XdVnyVHoV_8CSG_o2GL410a7yOsDGWLozNvn1q2m00?></g></svg>