<svg xmlns="http://www.w3.org/2000/svg" xmlns:xlink="http://www.w3.org/1999/xlink" contentStyleType="text/css" data-diagram-type="DESCRIPTION" height="592px" preserveAspectRatio="none" style="width:1183px;height:592px;background:#FFFFFF;" version="1.1" viewBox="0 0 1183 592" width="1183px" zoomAndPan="magnify"><?plantuml 1.2026.5?><defs/><g><!--cluster Gesti?n contractual--><g class="cluster" data-qualified-name="Gesti.n contractual" data-source-line="5" id="ent0002"><rect fill="none" height="415" rx="2.5" ry="2.5" style="stroke:#181818;stroke-width:1;" width="1162.29" x="7" y="163.22"/><text fill="#000000" font-family="sans-serif" font-size="14" font-weight="700" lengthAdjust="spacing" textLength="155.4014" x="510.4443" y="178.2151">Gesti&#243;n contractual</text></g><!--entity UC_CreateContract--><g class="entity" data-qualified-name="Gesti.n contractual.UC_CreateContract" data-source-line="7" id="ent0003"><ellipse cx="776.424" cy="459.2208" fill="#F1F1F1" rx="68.254" ry="16.0508" style="stroke:#181818;stroke-width:0.5;"/><text fill="#000000" font-family="sans-serif" font-size="14" lengthAdjust="spacing" textLength="101.9443" x="725.4519" y="463.8692">Crear contrato</text></g><!--entity UC_UpdateContract--><g class="entity" data-qualified-name="Gesti.n contractual.UC_UpdateContract" data-source-line="8" id="ent0004"><ellipse cx="588.8795" cy="286.2199" fill="#F1F1F1" rx="81.0495" ry="18.6099" style="stroke:#181818;stroke-width:0.5;"/><text fill="#000000" font-family="sans-serif" font-size="14" lengthAdjust="spacing" textLength="133.1436" x="522.3077" y="290.8683">Actualizar contrato</text></g><!--entity UC_RenewContract--><g class="entity" data-qualified-name="Gesti.n contractual.UC_RenewContract" data-source-line="9" id="ent0005"><ellipse cx="401.5284" cy="380.2197" fill="#F1F1F1" rx="76.2984" ry="17.6597" style="stroke:#181818;stroke-width:0.5;"/><text fill="#000000" font-family="sans-serif" font-size="14" lengthAdjust="spacing" textLength="121.8643" x="340.5962" y="384.8681">Renovar contrato</text></g><!--entity UC_TerminateContract--><g class="entity" data-qualified-name="Gesti.n contractual.UC_TerminateContract" data-source-line="10" id="ent0006"><ellipse cx="776.4188" cy="216.2178" fill="#F1F1F1" rx="76.4888" ry="17.6978" style="stroke:#181818;stroke-width:0.5;"/><text fill="#000000" font-family="sans-serif" font-size="14" lengthAdjust="spacing" textLength="122.3223" x="715.2577" y="220.8662">Finalizar contrato</text></g><!--entity UC_ValidateContract--><g class="entity" data-qualified-name="Gesti.n contractual.UC_ValidateContract" data-source-line="12" id="ent0007"><ellipse cx="1065.6044" cy="373.2209" fill="#F1F1F1" rx="72.5044" ry="16.9009" style="stroke:#181818;stroke-width:0.5;"/><text fill="#000000" font-family="sans-serif" font-size="14" lengthAdjust="spacing" textLength="112.6221" x="1009.2933" y="377.8693">Validar contrato</text></g><!--entity UC_CheckActiveContract--><g class="entity" data-qualified-name="Gesti.n contractual.UC_CheckActiveContract" data-source-line="13" id="ent0008"><ellipse cx="1065.6" cy="506.2179" fill="#F1F1F1" rx="87.69" ry="25.5979" style="stroke:#181818;stroke-width:0.5;"/><text fill="#000000" font-family="sans-serif" font-size="14" lengthAdjust="spacing" textLength="122.1514" x="1004.5244" y="503.3598">Verificar contrato</text><text fill="#000000" font-family="sans-serif" font-size="14" lengthAdjust="spacing" textLength="112.1162" x="1009.5419" y="519.6567">activo existente</text></g><!--entity UC_Notify--><g class="entity" data-qualified-name="Gesti.n contractual.UC_Notify" data-source-line="15" id="ent0009"><ellipse cx="112.6164" cy="354.2233" fill="#F1F1F1" rx="89.6164" ry="20.3233" style="stroke:#181818;stroke-width:0.5;"/><text fill="#000000" font-family="sans-serif" font-size="14" lengthAdjust="spacing" textLength="152.8721" x="36.1803" y="358.8717">Notificar involucrados</text></g><!--entity Admin--><g class="entity" data-qualified-name="Admin" data-source-line="3" id="ent0001"><ellipse cx="112.62" cy="63.42" fill="#F1F1F1" rx="8" ry="8" style="stroke:#181818;stroke-width:0.5;"/><path d="M112.62,71.42 L112.62,98.42 M99.62,79.42 L125.62,79.42 M112.62,98.42 L99.62,113.42 M112.62,98.42 L125.62,113.42" fill="none" style="stroke:#181818;stroke-width:0.5;"/><text fill="#000000" font-family="sans-serif" font-size="14" lengthAdjust="spacing" textLength="99.0801" x="63.08" y="127.9151">Administrador</text><text fill="#000000" font-family="sans-serif" font-size="14" lengthAdjust="spacing" textLength="83.3301" x="63.08" y="144.212">de empresa</text></g><!--link Admin to UC_CreateContract--><g class="link" data-entity-1="ent0001" data-entity-2="ent0003" data-link-type="dependency" data-source-line="18" id="lnk10"><path d="M162.65,97.78 C272.53,93.06 539.04,98.7 669.93,250.22 C709.54,296.08 670.77,330.1 699.93,383.22 C713.44,407.84 733.3862,426.7234 750.6662,440.6434" fill="none" id="Admin-to-UC_CreateContract" style="stroke:#181818;stroke-width:1;"/><polygon fill="#181818" points="754.56,443.78,750.0605,435.019,750.6662,440.6434,745.0419,441.249,754.56,443.78" style="stroke:#181818;stroke-width:1;stroke-linejoin:miter;stroke-miterlimit:10;"/></g><!--link Admin to UC_UpdateContract--><g class="link" data-entity-1="ent0001" data-entity-2="ent0004" data-link-type="dependency" data-source-line="19" id="lnk11"><path d="M162.44,117.43 C247.52,145.84 419.46,203.99 477.83,229.22 C505.28,241.08 530.9874,254.4632 552.7474,266.4132" fill="none" id="Admin-to-UC_UpdateContract" style="stroke:#181818;stroke-width:1;"/><polygon fill="#181818" points="557.13,268.82,551.1668,260.9817,552.7474,266.4132,547.3159,267.9938,557.13,268.82" style="stroke:#181818;stroke-width:1;stroke-linejoin:miter;stroke-miterlimit:10;"/></g><!--link Admin to UC_RenewContract--><g class="link" data-entity-1="ent0001" data-entity-2="ent0005" data-link-type="dependency" data-source-line="20" id="lnk12"><path d="M162.26,144.98 C175.35,156.94 189.42,169.98 202.23,182.22 C270.65,247.59 346.0789,324.3406 380.0489,359.1706" fill="none" id="Admin-to-UC_RenewContract" style="stroke:#181818;stroke-width:1;"/><polygon fill="#181818" points="383.54,362.75,380.1196,353.5141,380.0489,359.1706,374.3925,359.0998,383.54,362.75" style="stroke:#181818;stroke-width:1;stroke-linejoin:miter;stroke-miterlimit:10;"/></g><!--link Admin to UC_TerminateContract--><g class="link" data-entity-1="ent0001" data-entity-2="ent0006" data-link-type="dependency" data-source-line="21" id="lnk13"><path d="M162.39,86.02 C263.02,57.54 498.6,6 669.93,87.22 C718.81,110.39 750.3575,164.0561 764.9975,193.7261" fill="none" id="Admin-to-UC_TerminateContract" style="stroke:#181818;stroke-width:1;"/><polygon fill="#181818" points="767.21,198.21,766.8147,188.3691,764.9975,193.7261,759.6405,191.909,767.21,198.21" style="stroke:#181818;stroke-width:1;stroke-linejoin:miter;stroke-miterlimit:10;"/></g><!--link UC_CreateContract to UC_ValidateContract--><g class="link" data-entity-1="ent0003" data-entity-2="ent0007" data-link-type="dependency" data-source-line="23" id="lnk14"><path d="M819.79,446.53 C873.31,430.5 960.2002,404.4846 1014.8902,388.1046" fill="none" id="UC_CreateContract-to-UC_ValidateContract" style="stroke:#181818;stroke-width:1;stroke-dasharray:7,7;"/><polygon fill="#181818" points="1019.68,386.67,1009.9107,385.4204,1014.8902,388.1046,1012.206,393.0841,1019.68,386.67" style="stroke:#181818;stroke-width:1;stroke-linejoin:miter;stroke-miterlimit:10;"/><text fill="#000000" font-family="sans-serif" font-size="13" lengthAdjust="spacing" textLength="63.0068" x="883.91" y="404.2869">&#171;include&#187;</text></g><!--link UC_CreateContract to UC_CheckActiveContract--><g class="link" data-entity-1="ent0003" data-entity-2="ent0008" data-link-type="dependency" data-source-line="24" id="lnk15"><path d="M833.47,468.39 C877.62,475.62 934.7057,484.962 983.3757,492.932" fill="none" id="UC_CreateContract-to-UC_CheckActiveContract" style="stroke:#181818;stroke-width:1;stroke-dasharray:7,7;"/><polygon fill="#181818" points="988.31,493.74,980.0747,488.3381,983.3757,492.932,978.7819,496.233,988.31,493.74" style="stroke:#181818;stroke-width:1;stroke-linejoin:miter;stroke-miterlimit:10;"/><text fill="#000000" font-family="sans-serif" font-size="13" lengthAdjust="spacing" textLength="63.0068" x="883.91" y="472.2869">&#171;include&#187;</text></g><!--link UC_UpdateContract to UC_ValidateContract--><g class="link" data-entity-1="ent0004" data-entity-2="ent0007" data-link-type="dependency" data-source-line="26" id="lnk16"><path d="M653.41,297.86 C746.38,314.9 913.2118,345.479 1002.4618,361.829" fill="none" id="UC_UpdateContract-to-UC_ValidateContract" style="stroke:#181818;stroke-width:1;stroke-dasharray:7,7;"/><polygon fill="#181818" points="1007.38,362.73,999.2481,357.1737,1002.4618,361.829,997.8065,365.0428,1007.38,362.73" style="stroke:#181818;stroke-width:1;stroke-linejoin:miter;stroke-miterlimit:10;"/><text fill="#000000" font-family="sans-serif" font-size="13" lengthAdjust="spacing" textLength="63.0068" x="744.92" y="302.2869">&#171;include&#187;</text></g><!--link UC_RenewContract to UC_ValidateContract--><g class="link" data-entity-1="ent0005" data-entity-2="ent0007" data-link-type="dependency" data-source-line="28" id="lnk17"><path d="M477.88,378.7 C487.95,378.52 498.14,378.36 507.83,378.22 C682.05,375.78 881.9601,374.3316 987.9601,373.6616" fill="none" id="UC_RenewContract-to-UC_ValidateContract" style="stroke:#181818;stroke-width:1;stroke-dasharray:7,7;"/><polygon fill="#181818" points="992.96,373.63,983.9349,369.687,987.9601,373.6616,983.9855,377.6868,992.96,373.63" style="stroke:#181818;stroke-width:1;stroke-linejoin:miter;stroke-miterlimit:10;"/><text fill="#000000" font-family="sans-serif" font-size="13" lengthAdjust="spacing" textLength="63.0068" x="744.92" y="370.2869">&#171;include&#187;</text></g><!--link UC_RenewContract to UC_CheckActiveContract--><g class="link" data-entity-1="ent0005" data-entity-2="ent0008" data-link-type="dependency" data-source-line="29" id="lnk18"><path d="M452.19,393.76 C461.15,397.37 470.09,401.81 477.83,407.22 C494.9,419.15 490.71,431.36 507.83,443.22 C636.26,532.18 696.68,511.7 852.91,510.22 C893.98,509.83 934.5311,509.1231 972.8311,508.3331" fill="none" id="UC_RenewContract-to-UC_CheckActiveContract" style="stroke:#181818;stroke-width:1;stroke-dasharray:7,7;"/><polygon fill="#181818" points="977.83,508.23,968.7494,504.4165,972.8311,508.3331,968.9144,512.4147,977.83,508.23" style="stroke:#181818;stroke-width:1;stroke-linejoin:miter;stroke-miterlimit:10;"/><text fill="#000000" font-family="sans-serif" font-size="13" lengthAdjust="spacing" textLength="63.0068" x="744.92" y="506.2869">&#171;include&#187;</text></g><!--link UC_RenewContract to UC_TerminateContract--><g class="link" data-entity-1="ent0005" data-entity-2="ent0006" data-link-type="dependency" data-source-line="30" id="lnk19"><path d="M470.8,372.5 C544.83,363.59 654.57,348.56 669.93,336.22 C697.92,313.74 676.61,288.52 699.93,261.22 C710.33,249.04 720.494,241.6437 734.064,234.3637" fill="none" id="UC_RenewContract-to-UC_TerminateContract" style="stroke:#181818;stroke-width:1;stroke-dasharray:7,7;"/><polygon fill="#181818" points="738.47,232,728.6482,232.7299,734.064,234.3637,732.4302,239.7795,738.47,232" style="stroke:#181818;stroke-width:1;stroke-linejoin:miter;stroke-miterlimit:10;"/><text fill="#000000" font-family="sans-serif" font-size="13" lengthAdjust="spacing" textLength="63.0068" x="557.38" y="332.2869">&#171;include&#187;</text></g><!--link UC_RenewContract to UC_CreateContract--><g class="link" data-entity-1="ent0005" data-entity-2="ent0003" data-link-type="dependency" data-source-line="31" id="lnk20"><path d="M459.16,392.22 C531.39,407.52 650.3186,432.7137 719.6586,447.4037" fill="none" id="UC_RenewContract-to-UC_CreateContract" style="stroke:#181818;stroke-width:1;stroke-dasharray:7,7;"/><polygon fill="#181818" points="724.55,448.44,716.5744,442.6616,719.6586,447.4037,714.9164,450.4879,724.55,448.44" style="stroke:#181818;stroke-width:1;stroke-linejoin:miter;stroke-miterlimit:10;"/><text fill="#000000" font-family="sans-serif" font-size="13" lengthAdjust="spacing" textLength="63.0068" x="557.38" y="399.2869">&#171;include&#187;</text></g><!--link UC_Notify to UC_CreateContract--><g class="link" data-entity-1="ent0009" data-entity-2="ent0003" data-link-type="dependency" data-source-line="33" id="lnk21"><path d="M153.15,372.78 C194.9,391.43 263.15,419.2 325.23,432.22 C458.95,460.25 614.5506,462.6955 703.2506,461.3555" fill="none" id="UC_Notify-to-UC_CreateContract" style="stroke:#181818;stroke-width:1;stroke-dasharray:7,7;"/><polygon fill="#181818" points="708.25,461.28,699.1906,457.4164,703.2506,461.3555,699.3114,465.4155,708.25,461.28" style="stroke:#181818;stroke-width:1;stroke-linejoin:miter;stroke-miterlimit:10;"/><text fill="#000000" font-family="sans-serif" font-size="13" lengthAdjust="spacing" textLength="61.1851" x="371.03" y="428.2869">&#171;extend&#187;</text></g><!--link UC_Notify to UC_UpdateContract--><g class="link" data-entity-1="ent0009" data-entity-2="ent0004" data-link-type="dependency" data-source-line="34" id="lnk22"><path d="M189.29,343.37 C280.3,330.32 426.7806,309.3196 514.4506,296.7496" fill="none" id="UC_Notify-to-UC_UpdateContract" style="stroke:#181818;stroke-width:1;stroke-dasharray:7,7;"/><polygon fill="#181818" points="519.4,296.04,509.9234,293.3578,514.4506,296.7496,511.0588,301.2769,519.4,296.04" style="stroke:#181818;stroke-width:1;stroke-linejoin:miter;stroke-miterlimit:10;"/><text fill="#000000" font-family="sans-serif" font-size="13" lengthAdjust="spacing" textLength="61.1851" x="233.23" y="324.2869">&#171;extend&#187;</text></g><!--link UC_Notify to UC_RenewContract--><g class="link" data-entity-1="ent0009" data-entity-2="ent0005" data-link-type="dependency" data-source-line="35" id="lnk23"><path d="M165.89,370.96 C186.36,376.7 210.17,382.38 232.23,385.22 C260,388.79 267.24,385.88 295.23,385.22 C305.39,384.98 311.0944,384.8187 321.6244,384.3787" fill="none" id="UC_Notify-to-UC_RenewContract" style="stroke:#181818;stroke-width:1;stroke-dasharray:7,7;"/><polygon fill="#181818" points="326.62,384.17,317.4609,380.5492,321.6244,384.3787,317.7948,388.5423,326.62,384.17" style="stroke:#181818;stroke-width:1;stroke-linejoin:miter;stroke-miterlimit:10;"/><text fill="#000000" font-family="sans-serif" font-size="13" lengthAdjust="spacing" textLength="61.1851" x="233.23" y="381.2869">&#171;extend&#187;</text></g><!--link UC_Notify to UC_TerminateContract--><g class="link" data-entity-1="ent0009" data-entity-2="ent0006" data-link-type="dependency" data-source-line="36" id="lnk24"><path d="M150.67,335.47 C173.63,324.57 204.03,311.4 232.23,303.22 C397.33,255.31 593.8214,232.2225 698.8914,222.4625" fill="none" id="UC_Notify-to-UC_TerminateContract" style="stroke:#181818;stroke-width:1;stroke-dasharray:7,7;"/><polygon fill="#181818" points="703.87,222,694.5386,218.8496,698.8914,222.4625,695.2785,226.8153,703.87,222" style="stroke:#181818;stroke-width:1;stroke-linejoin:miter;stroke-miterlimit:10;"/><text fill="#000000" font-family="sans-serif" font-size="13" lengthAdjust="spacing" textLength="61.1851" x="371.03" y="247.2869">&#171;extend&#187;</text></g><?plantuml-src ZP9DJiCm48NtFiKe-_O0g8eKHO8T2qIxgeGiUzgEIEtATa81SIgEmCLmVehYn0dPphnltiop2pmuS1eC7KyE91aKZhHYZ0kd3IIPF9CYwmoNskoLHC3pnQ3b2N0BJPUn6kBgM20a3sWT_Nmh45fvIBYI5mbyCWPGMXJSUarka9jEu7GpQ9k_r5M7UOVrzLapXJuYqFOY9w0dLBgA4BwERp7WdjI4oJCQVsRVfy_jF2KZL5kFBxT3GmSIFMgll8Gg3NZrQQDo-9VB2SLhLZVZ_e_QTRD8LReeHVrKzaOttNVsnLZpLh1QfP6mWzuWqw0NfXUq8YcDZ62zJcFPm1riDgH4KKfCqsakaiK0PQC35dgouNNBTurY_wywHOw2NEeOHZO-h_qBCtAy-fydMujGF8XqNXnkDw-D7tlJ_m80?></g></svg>