<svg xmlns="http://www.w3.org/2000/svg" xmlns:xlink="http://www.w3.org/1999/xlink" contentStyleType="text/css" data-diagram-type="CLASS" height="522px" preserveAspectRatio="none" style="width:1047px;height:522px;background:#FFFFFF;" version="1.1" viewBox="0 0 1047 522" width="1047px" zoomAndPan="magnify"><?plantuml 1.2026.5?><defs/><g><!--class Company--><g class="entity" data-qualified-name="Company" data-source-line="1" id="ent0001"><rect fill="#F1F1F1" height="48" rx="2.5" ry="2.5" style="stroke:#181818;stroke-width:0.5;" width="98.6025" x="505.88" y="7"/><ellipse cx="520.88" cy="23" fill="#ADD1B2" rx="11" ry="11" style="stroke:#181818;stroke-width:1;"/><path d="M523.8488,28.6406 Q523.2706,28.9375 522.63,29.0781 Q521.9894,29.2344 521.2863,29.2344 Q518.7863,29.2344 517.4581,27.5938 Q516.1456,25.9375 516.1456,22.8125 Q516.1456,19.6875 517.4581,18.0313 Q518.7863,16.375 521.2863,16.375 Q521.9894,16.375 522.63,16.5313 Q523.2863,16.6875 523.8488,16.9844 L523.8488,19.7031 Q523.2238,19.125 522.63,18.8594 Q522.0363,18.5781 521.4113,18.5781 Q520.0675,18.5781 519.38,19.6563 Q518.6925,20.7188 518.6925,22.8125 Q518.6925,24.9063 519.38,25.9844 Q520.0675,27.0469 521.4113,27.0469 Q522.0363,27.0469 522.63,26.7813 Q523.2238,26.5 523.8488,25.9219 L523.8488,28.6406 Z " fill="#000000"/><text fill="#000000" font-family="sans-serif" font-size="14" lengthAdjust="spacing" textLength="66.6025" x="534.88" y="27.8467">Company</text><line style="stroke:#181818;stroke-width:0.5;" x1="506.88" x2="603.4825" y1="39" y2="39"/><line style="stroke:#181818;stroke-width:0.5;" x1="506.88" x2="603.4825" y1="47" y2="47"/></g><!--class User--><g class="entity" data-qualified-name="User" data-source-line="2" id="ent0002"><rect fill="#F1F1F1" height="48" rx="2.5" ry="2.5" style="stroke:#181818;stroke-width:0.5;" width="63.9102" x="341.23" y="116"/><ellipse cx="356.23" cy="132" fill="#ADD1B2" rx="11" ry="11" style="stroke:#181818;stroke-width:1;"/><path d="M359.1988,137.6406 Q358.6206,137.9375 357.98,138.0781 Q357.3394,138.2344 356.6363,138.2344 Q354.1363,138.2344 352.8081,136.5938 Q351.4956,134.9375 351.4956,131.8125 Q351.4956,128.6875 352.8081,127.0313 Q354.1363,125.375 356.6363,125.375 Q357.3394,125.375 357.98,125.5313 Q358.6363,125.6875 359.1988,125.9844 L359.1988,128.7031 Q358.5738,128.125 357.98,127.8594 Q357.3863,127.5781 356.7613,127.5781 Q355.4175,127.5781 354.73,128.6563 Q354.0425,129.7188 354.0425,131.8125 Q354.0425,133.9063 354.73,134.9844 Q355.4175,136.0469 356.7613,136.0469 Q357.3863,136.0469 357.98,135.7813 Q358.5738,135.5 359.1988,134.9219 L359.1988,137.6406 Z " fill="#000000"/><text fill="#000000" font-family="sans-serif" font-size="14" lengthAdjust="spacing" textLength="31.9102" x="370.23" y="136.8467">User</text><line style="stroke:#181818;stroke-width:0.5;" x1="342.23" x2="404.1402" y1="148" y2="148"/><line style="stroke:#181818;stroke-width:0.5;" x1="342.23" x2="404.1402" y1="156" y2="156"/></g><!--class UserCredential--><g class="entity" data-qualified-name="UserCredential" data-source-line="3" id="ent0003"><rect fill="#F1F1F1" height="48" rx="2.5" ry="2.5" style="stroke:#181818;stroke-width:0.5;" width="136.2754" x="259.04" y="225"/><ellipse cx="274.04" cy="241" fill="#ADD1B2" rx="11" ry="11" style="stroke:#181818;stroke-width:1;"/><path d="M277.0087,246.6406 Q276.4306,246.9375 275.79,247.0781 Q275.1494,247.2344 274.4462,247.2344 Q271.9462,247.2344 270.6181,245.5938 Q269.3056,243.9375 269.3056,240.8125 Q269.3056,237.6875 270.6181,236.0313 Q271.9462,234.375 274.4462,234.375 Q275.1494,234.375 275.79,234.5313 Q276.4462,234.6875 277.0087,234.9844 L277.0087,237.7031 Q276.3837,237.125 275.79,236.8594 Q275.1962,236.5781 274.5712,236.5781 Q273.2275,236.5781 272.54,237.6563 Q271.8525,238.7188 271.8525,240.8125 Q271.8525,242.9063 272.54,243.9844 Q273.2275,245.0469 274.5712,245.0469 Q275.1962,245.0469 275.79,244.7813 Q276.3837,244.5 277.0087,243.9219 L277.0087,246.6406 Z " fill="#000000"/><text fill="#000000" font-family="sans-serif" font-size="14" lengthAdjust="spacing" textLength="104.2754" x="288.04" y="245.8467">UserCredential</text><line style="stroke:#181818;stroke-width:0.5;" x1="260.04" x2="394.3154" y1="257" y2="257"/><line style="stroke:#181818;stroke-width:0.5;" x1="260.04" x2="394.3154" y1="265" y2="265"/></g><!--class UserRole--><g class="entity" data-qualified-name="UserRole" data-source-line="4" id="ent0004"><rect fill="#F1F1F1" height="48" rx="2.5" ry="2.5" style="stroke:#181818;stroke-width:0.5;" width="94.7061" x="429.83" y="225"/><ellipse cx="444.83" cy="241" fill="#ADD1B2" rx="11" ry="11" style="stroke:#181818;stroke-width:1;"/><path d="M447.7988,246.6406 Q447.2206,246.9375 446.58,247.0781 Q445.9394,247.2344 445.2363,247.2344 Q442.7363,247.2344 441.4081,245.5938 Q440.0956,243.9375 440.0956,240.8125 Q440.0956,237.6875 441.4081,236.0313 Q442.7363,234.375 445.2363,234.375 Q445.9394,234.375 446.58,234.5313 Q447.2363,234.6875 447.7988,234.9844 L447.7988,237.7031 Q447.1738,237.125 446.58,236.8594 Q445.9863,236.5781 445.3613,236.5781 Q444.0175,236.5781 443.33,237.6563 Q442.6425,238.7188 442.6425,240.8125 Q442.6425,242.9063 443.33,243.9844 Q444.0175,245.0469 445.3613,245.0469 Q445.9863,245.0469 446.58,244.7813 Q447.1738,244.5 447.7988,243.9219 L447.7988,246.6406 Z " fill="#000000"/><text fill="#000000" font-family="sans-serif" font-size="14" lengthAdjust="spacing" textLength="62.7061" x="458.83" y="245.8467">UserRole</text><line style="stroke:#181818;stroke-width:0.5;" x1="430.83" x2="523.5361" y1="257" y2="257"/><line style="stroke:#181818;stroke-width:0.5;" x1="430.83" x2="523.5361" y1="265" y2="265"/></g><!--class Collaborator--><g class="entity" data-qualified-name="Collaborator" data-source-line="5" id="ent0005"><rect fill="#F1F1F1" height="48" rx="2.5" ry="2.5" style="stroke:#181818;stroke-width:0.5;" width="118.2969" x="560.03" y="225"/><ellipse cx="575.03" cy="241" fill="#ADD1B2" rx="11" ry="11" style="stroke:#181818;stroke-width:1;"/><path d="M577.9988,246.6406 Q577.4206,246.9375 576.78,247.0781 Q576.1394,247.2344 575.4363,247.2344 Q572.9363,247.2344 571.6081,245.5938 Q570.2956,243.9375 570.2956,240.8125 Q570.2956,237.6875 571.6081,236.0313 Q572.9363,234.375 575.4363,234.375 Q576.1394,234.375 576.78,234.5313 Q577.4363,234.6875 577.9988,234.9844 L577.9988,237.7031 Q577.3738,237.125 576.78,236.8594 Q576.1863,236.5781 575.5613,236.5781 Q574.2175,236.5781 573.53,237.6563 Q572.8425,238.7188 572.8425,240.8125 Q572.8425,242.9063 573.53,243.9844 Q574.2175,245.0469 575.5613,245.0469 Q576.1863,245.0469 576.78,244.7813 Q577.3738,244.5 577.9988,243.9219 L577.9988,246.6406 Z " fill="#000000"/><text fill="#000000" font-family="sans-serif" font-size="14" lengthAdjust="spacing" textLength="86.2969" x="589.03" y="245.8467">Collaborator</text><line style="stroke:#181818;stroke-width:0.5;" x1="561.03" x2="677.3269" y1="257" y2="257"/><line style="stroke:#181818;stroke-width:0.5;" x1="561.03" x2="677.3269" y1="265" y2="265"/></g><!--class Branch--><g class="entity" data-qualified-name="Branch" data-source-line="6" id="ent0006"><rect fill="#F1F1F1" height="48" rx="2.5" ry="2.5" style="stroke:#181818;stroke-width:0.5;" width="81.3828" x="608.49" y="116"/><ellipse cx="623.49" cy="132" fill="#ADD1B2" rx="11" ry="11" style="stroke:#181818;stroke-width:1;"/><path d="M626.4588,137.6406 Q625.8806,137.9375 625.24,138.0781 Q624.5994,138.2344 623.8963,138.2344 Q621.3963,138.2344 620.0681,136.5938 Q618.7556,134.9375 618.7556,131.8125 Q618.7556,128.6875 620.0681,127.0313 Q621.3963,125.375 623.8963,125.375 Q624.5994,125.375 625.24,125.5313 Q625.8963,125.6875 626.4588,125.9844 L626.4588,128.7031 Q625.8338,128.125 625.24,127.8594 Q624.6463,127.5781 624.0213,127.5781 Q622.6775,127.5781 621.99,128.6563 Q621.3025,129.7188 621.3025,131.8125 Q621.3025,133.9063 621.99,134.9844 Q622.6775,136.0469 624.0213,136.0469 Q624.6463,136.0469 625.24,135.7813 Q625.8338,135.5 626.4588,134.9219 L626.4588,137.6406 Z " fill="#000000"/><text fill="#000000" font-family="sans-serif" font-size="14" lengthAdjust="spacing" textLength="49.3828" x="637.49" y="136.8467">Branch</text><line style="stroke:#181818;stroke-width:0.5;" x1="609.49" x2="688.8728" y1="148" y2="148"/><line style="stroke:#181818;stroke-width:0.5;" x1="609.49" x2="688.8728" y1="156" y2="156"/></g><!--class Position--><g class="entity" data-qualified-name="Position" data-source-line="7" id="ent0007"><rect fill="#F1F1F1" height="48" rx="2.5" ry="2.5" style="stroke:#181818;stroke-width:0.5;" width="87.0088" x="724.68" y="116"/><ellipse cx="739.68" cy="132" fill="#ADD1B2" rx="11" ry="11" style="stroke:#181818;stroke-width:1;"/><path d="M742.6488,137.6406 Q742.0706,137.9375 741.43,138.0781 Q740.7894,138.2344 740.0863,138.2344 Q737.5863,138.2344 736.2581,136.5938 Q734.9456,134.9375 734.9456,131.8125 Q734.9456,128.6875 736.2581,127.0313 Q737.5863,125.375 740.0863,125.375 Q740.7894,125.375 741.43,125.5313 Q742.0863,125.6875 742.6488,125.9844 L742.6488,128.7031 Q742.0238,128.125 741.43,127.8594 Q740.8363,127.5781 740.2113,127.5781 Q738.8675,127.5781 738.18,128.6563 Q737.4925,129.7188 737.4925,131.8125 Q737.4925,133.9063 738.18,134.9844 Q738.8675,136.0469 740.2113,136.0469 Q740.8363,136.0469 741.43,135.7813 Q742.0238,135.5 742.6488,134.9219 L742.6488,137.6406 Z " fill="#000000"/><text fill="#000000" font-family="sans-serif" font-size="14" lengthAdjust="spacing" textLength="55.0088" x="753.68" y="136.8467">Position</text><line style="stroke:#181818;stroke-width:0.5;" x1="725.68" x2="810.6888" y1="148" y2="148"/><line style="stroke:#181818;stroke-width:0.5;" x1="725.68" x2="810.6888" y1="156" y2="156"/></g><!--class EmploymentAssignment--><g class="entity" data-qualified-name="EmploymentAssignment" data-source-line="9" id="ent0008"><rect fill="#F1F1F1" height="48" rx="2.5" ry="2.5" style="stroke:#181818;stroke-width:0.5;" width="203.1514" x="453.61" y="350"/><ellipse cx="468.61" cy="366" fill="#ADD1B2" rx="11" ry="11" style="stroke:#181818;stroke-width:1;"/><path d="M471.5788,371.6406 Q471.0006,371.9375 470.36,372.0781 Q469.7194,372.2344 469.0163,372.2344 Q466.5163,372.2344 465.1881,370.5938 Q463.8756,368.9375 463.8756,365.8125 Q463.8756,362.6875 465.1881,361.0313 Q466.5163,359.375 469.0163,359.375 Q469.7194,359.375 470.36,359.5313 Q471.0163,359.6875 471.5788,359.9844 L471.5788,362.7031 Q470.9538,362.125 470.36,361.8594 Q469.7663,361.5781 469.1413,361.5781 Q467.7975,361.5781 467.11,362.6563 Q466.4225,363.7188 466.4225,365.8125 Q466.4225,367.9063 467.11,368.9844 Q467.7975,370.0469 469.1413,370.0469 Q469.7663,370.0469 470.36,369.7813 Q470.9538,369.5 471.5788,368.9219 L471.5788,371.6406 Z " fill="#000000"/><text fill="#000000" font-family="sans-serif" font-size="14" lengthAdjust="spacing" textLength="171.1514" x="482.61" y="370.8467">EmploymentAssignment</text><line style="stroke:#181818;stroke-width:0.5;" x1="454.61" x2="655.7614" y1="382" y2="382"/><line style="stroke:#181818;stroke-width:0.5;" x1="454.61" x2="655.7614" y1="390" y2="390"/></g><!--class EmploymentContract--><g class="entity" data-qualified-name="EmploymentContract" data-source-line="10" id="ent0009"><rect fill="#F1F1F1" height="48" rx="2.5" ry="2.5" style="stroke:#181818;stroke-width:0.5;" width="180.9482" x="237.71" y="350"/><ellipse cx="252.71" cy="366" fill="#ADD1B2" rx="11" ry="11" style="stroke:#181818;stroke-width:1;"/><path d="M255.6788,371.6406 Q255.1006,371.9375 254.46,372.0781 Q253.8194,372.2344 253.1163,372.2344 Q250.6163,372.2344 249.2881,370.5938 Q247.9756,368.9375 247.9756,365.8125 Q247.9756,362.6875 249.2881,361.0313 Q250.6163,359.375 253.1163,359.375 Q253.8194,359.375 254.46,359.5313 Q255.1163,359.6875 255.6788,359.9844 L255.6788,362.7031 Q255.0538,362.125 254.46,361.8594 Q253.8663,361.5781 253.2413,361.5781 Q251.8975,361.5781 251.21,362.6563 Q250.5225,363.7188 250.5225,365.8125 Q250.5225,367.9063 251.21,368.9844 Q251.8975,370.0469 253.2413,370.0469 Q253.8663,370.0469 254.46,369.7813 Q255.0538,369.5 255.6788,368.9219 L255.6788,371.6406 Z " fill="#000000"/><text fill="#000000" font-family="sans-serif" font-size="14" lengthAdjust="spacing" textLength="148.9482" x="266.71" y="370.8467">EmploymentContract</text><line style="stroke:#181818;stroke-width:0.5;" x1="238.71" x2="417.6582" y1="382" y2="382"/><line style="stroke:#181818;stroke-width:0.5;" x1="238.71" x2="417.6582" y1="390" y2="390"/></g><!--class Shift--><g class="entity" data-qualified-name="Shift" data-source-line="12" id="ent0010"><rect fill="#F1F1F1" height="48" rx="2.5" ry="2.5" style="stroke:#181818;stroke-width:0.5;" width="64.0674" x="734.15" y="225"/><ellipse cx="749.15" cy="241" fill="#ADD1B2" rx="11" ry="11" style="stroke:#181818;stroke-width:1;"/><path d="M752.1188,246.6406 Q751.5406,246.9375 750.9,247.0781 Q750.2594,247.2344 749.5563,247.2344 Q747.0563,247.2344 745.7281,245.5938 Q744.4156,243.9375 744.4156,240.8125 Q744.4156,237.6875 745.7281,236.0313 Q747.0563,234.375 749.5563,234.375 Q750.2594,234.375 750.9,234.5313 Q751.5563,234.6875 752.1188,234.9844 L752.1188,237.7031 Q751.4938,237.125 750.9,236.8594 Q750.3063,236.5781 749.6813,236.5781 Q748.3375,236.5781 747.65,237.6563 Q746.9625,238.7188 746.9625,240.8125 Q746.9625,242.9063 747.65,243.9844 Q748.3375,245.0469 749.6813,245.0469 Q750.3063,245.0469 750.9,244.7813 Q751.4938,244.5 752.1188,243.9219 L752.1188,246.6406 Z " fill="#000000"/><text fill="#000000" font-family="sans-serif" font-size="14" lengthAdjust="spacing" textLength="32.0674" x="763.15" y="245.8467">Shift</text><line style="stroke:#181818;stroke-width:0.5;" x1="735.15" x2="797.2174" y1="257" y2="257"/><line style="stroke:#181818;stroke-width:0.5;" x1="735.15" x2="797.2174" y1="265" y2="265"/></g><!--class ShiftAssignment--><g class="entity" data-qualified-name="ShiftAssignment" data-source-line="13" id="ent0011"><rect fill="#F1F1F1" height="48" rx="2.5" ry="2.5" style="stroke:#181818;stroke-width:0.5;" width="146.4951" x="691.93" y="350"/><ellipse cx="706.93" cy="366" fill="#ADD1B2" rx="11" ry="11" style="stroke:#181818;stroke-width:1;"/><path d="M709.8988,371.6406 Q709.3206,371.9375 708.68,372.0781 Q708.0394,372.2344 707.3363,372.2344 Q704.8363,372.2344 703.5081,370.5938 Q702.1956,368.9375 702.1956,365.8125 Q702.1956,362.6875 703.5081,361.0313 Q704.8363,359.375 707.3363,359.375 Q708.0394,359.375 708.68,359.5313 Q709.3363,359.6875 709.8988,359.9844 L709.8988,362.7031 Q709.2738,362.125 708.68,361.8594 Q708.0863,361.5781 707.4613,361.5781 Q706.1175,361.5781 705.43,362.6563 Q704.7425,363.7188 704.7425,365.8125 Q704.7425,367.9063 705.43,368.9844 Q706.1175,370.0469 707.4613,370.0469 Q708.0863,370.0469 708.68,369.7813 Q709.2738,369.5 709.8988,368.9219 L709.8988,371.6406 Z " fill="#000000"/><text fill="#000000" font-family="sans-serif" font-size="14" lengthAdjust="spacing" textLength="114.4951" x="720.93" y="370.8467">ShiftAssignment</text><line style="stroke:#181818;stroke-width:0.5;" x1="692.93" x2="837.4251" y1="382" y2="382"/><line style="stroke:#181818;stroke-width:0.5;" x1="692.93" x2="837.4251" y1="390" y2="390"/></g><!--class ShiftSwapRequest--><g class="entity" data-qualified-name="ShiftSwapRequest" data-source-line="14" id="ent0012"><rect fill="#F1F1F1" height="48" rx="2.5" ry="2.5" style="stroke:#181818;stroke-width:0.5;" width="159.3672" x="873.5" y="350"/><ellipse cx="888.5" cy="366" fill="#ADD1B2" rx="11" ry="11" style="stroke:#181818;stroke-width:1;"/><path d="M891.4688,371.6406 Q890.8906,371.9375 890.25,372.0781 Q889.6094,372.2344 888.9063,372.2344 Q886.4063,372.2344 885.0781,370.5938 Q883.7656,368.9375 883.7656,365.8125 Q883.7656,362.6875 885.0781,361.0313 Q886.4063,359.375 888.9063,359.375 Q889.6094,359.375 890.25,359.5313 Q890.9063,359.6875 891.4688,359.9844 L891.4688,362.7031 Q890.8438,362.125 890.25,361.8594 Q889.6563,361.5781 889.0313,361.5781 Q887.6875,361.5781 887,362.6563 Q886.3125,363.7188 886.3125,365.8125 Q886.3125,367.9063 887,368.9844 Q887.6875,370.0469 889.0313,370.0469 Q889.6563,370.0469 890.25,369.7813 Q890.8438,369.5 891.4688,368.9219 L891.4688,371.6406 Z " fill="#000000"/><text fill="#000000" font-family="sans-serif" font-size="14" lengthAdjust="spacing" textLength="127.3672" x="902.5" y="370.8467">ShiftSwapRequest</text><line style="stroke:#181818;stroke-width:0.5;" x1="874.5" x2="1031.8672" y1="382" y2="382"/><line style="stroke:#181818;stroke-width:0.5;" x1="874.5" x2="1031.8672" y1="390" y2="390"/></g><!--class Claim--><g class="entity" data-qualified-name="Claim" data-source-line="16" id="ent0013"><rect fill="#F1F1F1" height="48" rx="2.5" ry="2.5" style="stroke:#181818;stroke-width:0.5;" width="71.7715" x="130.3" y="350"/><ellipse cx="145.3" cy="366" fill="#ADD1B2" rx="11" ry="11" style="stroke:#181818;stroke-width:1;"/><path d="M148.2688,371.6406 Q147.6906,371.9375 147.05,372.0781 Q146.4094,372.2344 145.7063,372.2344 Q143.2063,372.2344 141.8781,370.5938 Q140.5656,368.9375 140.5656,365.8125 Q140.5656,362.6875 141.8781,361.0313 Q143.2063,359.375 145.7063,359.375 Q146.4094,359.375 147.05,359.5313 Q147.7063,359.6875 148.2688,359.9844 L148.2688,362.7031 Q147.6438,362.125 147.05,361.8594 Q146.4563,361.5781 145.8313,361.5781 Q144.4875,361.5781 143.8,362.6563 Q143.1125,363.7188 143.1125,365.8125 Q143.1125,367.9063 143.8,368.9844 Q144.4875,370.0469 145.8313,370.0469 Q146.4563,370.0469 147.05,369.7813 Q147.6438,369.5 148.2688,368.9219 L148.2688,371.6406 Z " fill="#000000"/><text fill="#000000" font-family="sans-serif" font-size="14" lengthAdjust="spacing" textLength="39.7715" x="159.3" y="370.8467">Claim</text><line style="stroke:#181818;stroke-width:0.5;" x1="131.3" x2="201.0715" y1="382" y2="382"/><line style="stroke:#181818;stroke-width:0.5;" x1="131.3" x2="201.0715" y1="390" y2="390"/></g><!--class ClaimComment--><g class="entity" data-qualified-name="ClaimComment" data-source-line="17" id="ent0014"><rect fill="#F1F1F1" height="48" rx="2.5" ry="2.5" style="stroke:#181818;stroke-width:0.5;" width="140.3633" x="7" y="459"/><ellipse cx="22" cy="475" fill="#ADD1B2" rx="11" ry="11" style="stroke:#181818;stroke-width:1;"/><path d="M24.9688,480.6406 Q24.3906,480.9375 23.75,481.0781 Q23.1094,481.2344 22.4063,481.2344 Q19.9063,481.2344 18.5781,479.5938 Q17.2656,477.9375 17.2656,474.8125 Q17.2656,471.6875 18.5781,470.0313 Q19.9063,468.375 22.4063,468.375 Q23.1094,468.375 23.75,468.5313 Q24.4063,468.6875 24.9688,468.9844 L24.9688,471.7031 Q24.3438,471.125 23.75,470.8594 Q23.1563,470.5781 22.5313,470.5781 Q21.1875,470.5781 20.5,471.6563 Q19.8125,472.7188 19.8125,474.8125 Q19.8125,476.9063 20.5,477.9844 Q21.1875,479.0469 22.5313,479.0469 Q23.1563,479.0469 23.75,478.7813 Q24.3438,478.5 24.9688,477.9219 L24.9688,480.6406 Z " fill="#000000"/><text fill="#000000" font-family="sans-serif" font-size="14" lengthAdjust="spacing" textLength="108.3633" x="36" y="479.8467">ClaimComment</text><line style="stroke:#181818;stroke-width:0.5;" x1="8" x2="146.3633" y1="491" y2="491"/><line style="stroke:#181818;stroke-width:0.5;" x1="8" x2="146.3633" y1="499" y2="499"/></g><!--class ClaimEvidence--><g class="entity" data-qualified-name="ClaimEvidence" data-source-line="18" id="ent0015"><rect fill="#F1F1F1" height="48" rx="2.5" ry="2.5" style="stroke:#181818;stroke-width:0.5;" width="135.4756" x="182.44" y="459"/><ellipse cx="197.44" cy="475" fill="#ADD1B2" rx="11" ry="11" style="stroke:#181818;stroke-width:1;"/><path d="M200.4088,480.6406 Q199.8306,480.9375 199.19,481.0781 Q198.5494,481.2344 197.8463,481.2344 Q195.3463,481.2344 194.0181,479.5938 Q192.7056,477.9375 192.7056,474.8125 Q192.7056,471.6875 194.0181,470.0313 Q195.3463,468.375 197.8463,468.375 Q198.5494,468.375 199.19,468.5313 Q199.8463,468.6875 200.4088,468.9844 L200.4088,471.7031 Q199.7838,471.125 199.19,470.8594 Q198.5963,470.5781 197.9713,470.5781 Q196.6275,470.5781 195.94,471.6563 Q195.2525,472.7188 195.2525,474.8125 Q195.2525,476.9063 195.94,477.9844 Q196.6275,479.0469 197.9713,479.0469 Q198.5963,479.0469 199.19,478.7813 Q199.7838,478.5 200.4088,477.9219 L200.4088,480.6406 Z " fill="#000000"/><text fill="#000000" font-family="sans-serif" font-size="14" lengthAdjust="spacing" textLength="103.4756" x="211.44" y="479.8467">ClaimEvidence</text><line style="stroke:#181818;stroke-width:0.5;" x1="183.44" x2="316.9156" y1="491" y2="491"/><line style="stroke:#181818;stroke-width:0.5;" x1="183.44" x2="316.9156" y1="499" y2="499"/></g><!--link Company to User--><g class="link" data-entity-1="ent0001" data-entity-2="ent0002" data-link-type="dependency" data-source-line="24" id="lnk16"><path codeLine="24" d="M515.24,55.48 C482.28,74.86 440.4206,99.4765 409.7606,117.4965" fill="none" id="Company-to-User" style="stroke:#181818;stroke-width:1;"/><polygon fill="#181818" points="405.45,120.03,415.2359,118.9182,409.7606,117.4965,411.1823,112.0212,405.45,120.03" style="stroke:#181818;stroke-width:1;stroke-linejoin:miter;stroke-miterlimit:10;"/><text fill="#000000" font-family="sans-serif" font-size="13" lengthAdjust="spacing" textLength="8.271" x="497.1099" y="74.9576">1</text><text fill="#000000" font-family="sans-serif" font-size="13" lengthAdjust="spacing" textLength="6.5" x="413.2189" y="111.1024">*</text></g><!--link Company to Branch--><g class="link" data-entity-1="ent0001" data-entity-2="ent0006" data-link-type="dependency" data-source-line="25" id="lnk17"><path codeLine="25" d="M575.81,55.48 C591.48,73.32 609.6394,93.9942 625.2994,111.8142" fill="none" id="Company-to-Branch" style="stroke:#181818;stroke-width:1;"/><polygon fill="#181818" points="628.6,115.57,625.6636,106.1691,625.2994,111.8142,619.6543,111.45,628.6,115.57" style="stroke:#181818;stroke-width:1;stroke-linejoin:miter;stroke-miterlimit:10;"/><text fill="#000000" font-family="sans-serif" font-size="13" lengthAdjust="spacing" textLength="8.271" x="571.6867" y="74.9576">1</text><text fill="#000000" font-family="sans-serif" font-size="13" lengthAdjust="spacing" textLength="6.5" x="616.913" y="104.8701">*</text></g><!--link Company to Position--><g class="link" data-entity-1="ent0001" data-entity-2="ent0007" data-link-type="dependency" data-source-line="26" id="lnk18"><path codeLine="26" d="M601.93,55.48 C638.42,73.81 684.2819,96.8559 719.9819,114.7859" fill="none" id="Company-to-Position" style="stroke:#181818;stroke-width:1;"/><polygon fill="#181818" points="724.45,117.03,718.2026,109.4162,719.9819,114.7859,714.6121,116.5652,724.45,117.03" style="stroke:#181818;stroke-width:1;stroke-linejoin:miter;stroke-miterlimit:10;"/><text fill="#000000" font-family="sans-serif" font-size="13" lengthAdjust="spacing" textLength="8.271" x="603.847" y="74.9576">1</text><text fill="#000000" font-family="sans-serif" font-size="13" lengthAdjust="spacing" textLength="6.5" x="710.17" y="108.6813">*</text></g><!--link Company to Collaborator--><g class="link" data-entity-1="ent0001" data-entity-2="ent0005" data-link-type="dependency" data-source-line="27" id="lnk19"><path codeLine="27" d="M561.16,55.48 C568.01,81.96 579.76,126.26 591.18,164 C597.42,184.6 603.5825,203.0623 609.3625,219.8523" fill="none" id="Company-to-Collaborator" style="stroke:#181818;stroke-width:1;"/><polygon fill="#181818" points="610.99,224.58,611.8426,214.7681,609.3625,219.8523,604.2783,217.3722,610.99,224.58" style="stroke:#181818;stroke-width:1;stroke-linejoin:miter;stroke-miterlimit:10;"/><text fill="#000000" font-family="sans-serif" font-size="13" lengthAdjust="spacing" textLength="8.271" x="553.6489" y="74.9576">1</text><text fill="#000000" font-family="sans-serif" font-size="13" lengthAdjust="spacing" textLength="6.5" x="602.3238" y="213.8826">*</text></g><!--link User to UserCredential--><g class="link" data-entity-1="ent0002" data-entity-2="ent0003" data-link-type="dependency" data-source-line="29" id="lnk20"><path codeLine="29" d="M363.09,164.48 C355.42,182.32 346.8967,202.1573 339.2267,219.9773" fill="none" id="User-to-UserCredential" style="stroke:#181818;stroke-width:1;"/><polygon fill="#181818" points="337.25,224.57,344.4823,217.8846,339.2267,219.9773,337.134,214.7218,337.25,224.57" style="stroke:#181818;stroke-width:1;stroke-linejoin:miter;stroke-miterlimit:10;"/><text fill="#000000" font-family="sans-serif" font-size="13" lengthAdjust="spacing" textLength="8.271" x="351.8618" y="183.9576">1</text><text fill="#000000" font-family="sans-serif" font-size="13" lengthAdjust="spacing" textLength="8.271" x="330.7632" y="213.8701">1</text></g><!--link User to UserRole--><g class="link" data-entity-1="ent0002" data-entity-2="ent0004" data-link-type="dependency" data-source-line="30" id="lnk21"><path codeLine="30" d="M396,164.48 C413.34,182.32 433.5941,203.1655 450.9241,220.9855" fill="none" id="User-to-UserRole" style="stroke:#181818;stroke-width:1;"/><polygon fill="#181818" points="454.41,224.57,451.0029,215.3292,450.9241,220.9855,445.2678,220.9067,454.41,224.57" style="stroke:#181818;stroke-width:1;stroke-linejoin:miter;stroke-miterlimit:10;"/><text fill="#000000" font-family="sans-serif" font-size="13" lengthAdjust="spacing" textLength="8.271" x="392.3823" y="183.9576">1</text><text fill="#000000" font-family="sans-serif" font-size="13" lengthAdjust="spacing" textLength="6.5" x="442.1888" y="213.8701">*</text></g><!--link User to Collaborator--><g class="link" data-entity-1="ent0002" data-entity-2="ent0005" data-link-type="dependency" data-source-line="31" id="lnk22"><path codeLine="31" d="M405.59,155.1 C446.3,172.8 512.1249,201.4358 560.9149,222.6558" fill="none" id="User-to-Collaborator" style="stroke:#181818;stroke-width:1;"/><polygon fill="#181818" points="565.5,224.65,558.8421,217.3924,560.9149,222.6558,555.6515,224.7286,565.5,224.65" style="stroke:#181818;stroke-width:1;stroke-linejoin:miter;stroke-miterlimit:10;"/><text fill="#000000" font-family="sans-serif" font-size="13" lengthAdjust="spacing" textLength="8.271" x="413.1265" y="153.7481">1</text><text fill="#000000" font-family="sans-serif" font-size="13" lengthAdjust="spacing" textLength="24.8066" x="527.2211" y="214.7642">0..1</text></g><!--link Collaborator to EmploymentAssignment--><g class="link" data-entity-1="ent0005" data-entity-2="ent0008" data-link-type="dependency" data-source-line="37" id="lnk23"><path codeLine="37" d="M606.99,273.42 C595.61,295.31 581.0088,323.365 569.6288,345.225" fill="none" id="Collaborator-to-EmploymentAssignment" style="stroke:#181818;stroke-width:1;"/><polygon fill="#181818" points="567.32,349.66,575.0239,343.524,569.6288,345.225,567.9278,339.8299,567.32,349.66" style="stroke:#181818;stroke-width:1;stroke-linejoin:miter;stroke-miterlimit:10;"/><text fill="#000000" font-family="sans-serif" font-size="13" lengthAdjust="spacing" textLength="8.271" x="595.2778" y="292.8838">1</text><text fill="#000000" font-family="sans-serif" font-size="13" lengthAdjust="spacing" textLength="6.5" x="563.6074" y="338.9821">*</text></g><!--link Collaborator to EmploymentContract--><g class="link" data-entity-1="ent0005" data-entity-2="ent0009" data-link-type="dependency" data-source-line="38" id="lnk24"><path codeLine="38" d="M563.76,273.42 C511.98,295.31 439.7154,325.8531 388.0054,347.7131" fill="none" id="Collaborator-to-EmploymentContract" style="stroke:#181818;stroke-width:1;"/><polygon fill="#181818" points="383.4,349.66,393.2472,349.8399,388.0054,347.7131,390.1322,342.4713,383.4,349.66" style="stroke:#181818;stroke-width:1;stroke-linejoin:miter;stroke-miterlimit:10;"/><text fill="#000000" font-family="sans-serif" font-size="13" lengthAdjust="spacing" textLength="8.271" x="543.5329" y="292.0841">1</text><text fill="#000000" font-family="sans-serif" font-size="13" lengthAdjust="spacing" textLength="6.5" x="390.1886" y="338.9821">*</text></g><!--link Branch to Shift--><g class="link" data-entity-1="ent0006" data-entity-2="ent0010" data-link-type="dependency" data-source-line="44" id="lnk25"><path codeLine="44" d="M674.86,164.48 C694.37,182.32 717.379,203.377 736.879,221.197" fill="none" id="Branch-to-Shift" style="stroke:#181818;stroke-width:1;"/><polygon fill="#181818" points="740.57,224.57,736.6247,215.5459,736.879,221.197,731.2279,221.4514,740.57,224.57" style="stroke:#181818;stroke-width:1;stroke-linejoin:miter;stroke-miterlimit:10;"/><text fill="#000000" font-family="sans-serif" font-size="13" lengthAdjust="spacing" textLength="8.271" x="671.9045" y="183.9576">1</text><text fill="#000000" font-family="sans-serif" font-size="13" lengthAdjust="spacing" textLength="6.5" x="727.6564" y="213.8701">*</text></g><!--link Position to Shift--><g class="link" data-entity-1="ent0007" data-entity-2="ent0010" data-link-type="dependency" data-source-line="45" id="lnk26"><path codeLine="45" d="M767.74,164.48 C767.41,182.32 767.0426,201.7509 766.7126,219.5709" fill="none" id="Position-to-Shift" style="stroke:#181818;stroke-width:1;"/><polygon fill="#181818" points="766.62,224.57,770.786,215.6456,766.7126,219.5709,762.7873,215.4975,766.62,224.57" style="stroke:#181818;stroke-width:1;stroke-linejoin:miter;stroke-miterlimit:10;"/><text fill="#000000" font-family="sans-serif" font-size="13" lengthAdjust="spacing" textLength="8.271" x="758.7436" y="183.9576">1</text><text fill="#000000" font-family="sans-serif" font-size="13" lengthAdjust="spacing" textLength="6.5" x="760.056" y="213.8701">*</text></g><!--link Shift to ShiftAssignment--><g class="link" data-entity-1="ent0010" data-entity-2="ent0011" data-link-type="dependency" data-source-line="47" id="lnk27"><path codeLine="47" d="M765.99,273.42 C765.81,295.31 765.5912,322.8002 765.4112,344.6602" fill="none" id="Shift-to-ShiftAssignment" style="stroke:#181818;stroke-width:1;"/><polygon fill="#181818" points="765.37,349.66,769.444,340.6932,765.4112,344.6602,761.4442,340.6274,765.37,349.66" style="stroke:#181818;stroke-width:1;stroke-linejoin:miter;stroke-miterlimit:10;"/><text fill="#000000" font-family="sans-serif" font-size="13" lengthAdjust="spacing" textLength="8.271" x="757.0515" y="292.8838">1</text><text fill="#000000" font-family="sans-serif" font-size="13" lengthAdjust="spacing" textLength="6.5" x="758.7466" y="338.9821">*</text></g><!--link Collaborator to ShiftAssignment--><g class="link" data-entity-1="ent0005" data-entity-2="ent0011" data-link-type="dependency" data-source-line="48" id="lnk28"><path codeLine="48" d="M631.3,273.21 C639.85,287.95 652.39,306.69 667.18,320 C680.05,331.58 691.4845,339.194 706.6545,347.254" fill="none" id="Collaborator-to-ShiftAssignment" style="stroke:#181818;stroke-width:1;"/><polygon fill="#181818" points="711.07,349.6,704.999,341.8448,706.6545,347.254,701.2454,348.9096,711.07,349.6" style="stroke:#181818;stroke-width:1;stroke-linejoin:miter;stroke-miterlimit:10;"/><text fill="#000000" font-family="sans-serif" font-size="13" lengthAdjust="spacing" textLength="8.271" x="625.3127" y="293.0224">1</text><text fill="#000000" font-family="sans-serif" font-size="13" lengthAdjust="spacing" textLength="6.5" x="691.211" y="338.9075">*</text></g><!--link Shift to ShiftSwapRequest--><g class="link" data-entity-1="ent0010" data-entity-2="ent0012" data-link-type="dependency" data-source-line="50" id="lnk29"><path codeLine="50" d="M798.33,271.14 C831.54,292.99 879.0525,324.2426 913.4625,346.8726" fill="none" id="Shift-to-ShiftSwapRequest" style="stroke:#181818;stroke-width:1;"/><polygon fill="#181818" points="917.64,349.62,912.3183,341.3327,913.4625,346.8726,907.9225,348.0167,917.64,349.62" style="stroke:#181818;stroke-width:1;stroke-linejoin:miter;stroke-miterlimit:10;"/><text fill="#000000" font-family="sans-serif" font-size="13" lengthAdjust="spacing" textLength="8.271" x="806.2666" y="271.4239">1</text><text fill="#000000" font-family="sans-serif" font-size="13" lengthAdjust="spacing" textLength="6.5" x="902.3059" y="338.9323">*</text></g><!--link Collaborator to ShiftSwapRequest--><g class="link" data-entity-1="ent0005" data-entity-2="ent0012" data-link-type="dependency" data-source-line="51" id="lnk30"><path codeLine="51" d="M678.51,271.85 C737.84,293.7 824.0881,325.4619 884.8781,347.8519" fill="none" id="Collaborator-to-ShiftSwapRequest" style="stroke:#181818;stroke-width:1;"/><polygon fill="#181818" points="889.57,349.58,882.5071,342.7159,884.8781,347.8519,879.7421,350.2229,889.57,349.58" style="stroke:#181818;stroke-width:1;stroke-linejoin:miter;stroke-miterlimit:10;"/><text fill="#000000" font-family="sans-serif" font-size="13" lengthAdjust="spacing" textLength="8.271" x="686.245" y="270.7958">1</text><text fill="#000000" font-family="sans-serif" font-size="13" lengthAdjust="spacing" textLength="6.5" x="867.3939" y="338.8826">*</text></g><!--link Company to Claim--><g class="link" data-entity-1="ent0001" data-entity-2="ent0013" data-link-type="dependency" data-source-line="57" id="lnk31"><path codeLine="57" d="M505.57,45.86 C431.15,68.32 288.54,117.98 187.18,194 C136.01,232.38 114.26,242.6 93.18,303 C85.08,326.21 103.2934,342.5524 125.4334,354.7824" fill="none" id="Company-to-Claim" style="stroke:#181818;stroke-width:1;"/><polygon fill="#181818" points="129.81,357.2,123.8661,349.3469,125.4334,354.7824,119.9979,356.3496,129.81,357.2" style="stroke:#181818;stroke-width:1;stroke-linejoin:miter;stroke-miterlimit:10;"/><text fill="#000000" font-family="sans-serif" font-size="13" lengthAdjust="spacing" textLength="8.271" x="489.7157" y="44.0176">1</text><text fill="#000000" font-family="sans-serif" font-size="13" lengthAdjust="spacing" textLength="6.5" x="115.7403" y="349.2687">*</text></g><!--link Collaborator to Claim--><g class="link" data-entity-1="ent0005" data-entity-2="ent0013" data-link-type="dependency" data-source-line="58" id="lnk32"><path codeLine="58" d="M559.62,268.31 C553.75,269.96 547.86,271.55 542.18,273 C480.1,288.85 463.54,288.28 401.18,303 C320.29,322.1 298.85,323.2 220.18,350 C214.39,351.97 212.9786,352.389 207.1286,354.779" fill="none" id="Collaborator-to-Claim" style="stroke:#181818;stroke-width:1;"/><polygon fill="#181818" points="202.5,356.67,212.3443,356.9691,207.1286,354.779,209.3187,349.5633,202.5,356.67" style="stroke:#181818;stroke-width:1;stroke-linejoin:miter;stroke-miterlimit:10;"/><text fill="#000000" font-family="sans-serif" font-size="13" lengthAdjust="spacing" textLength="46.8521" x="402.18" y="316.0669">creator</text><text fill="#000000" font-family="sans-serif" font-size="13" lengthAdjust="spacing" textLength="8.271" x="543.8903" y="266.8243">1</text><text fill="#000000" font-family="sans-serif" font-size="13" lengthAdjust="spacing" textLength="6.5" x="210.0419" y="349.0163">*</text></g><!--link User to Claim--><g class="link" data-entity-1="ent0002" data-entity-2="ent0013" data-link-type="dependency" data-source-line="59" id="lnk33"><path codeLine="59" d="M341.03,145.22 C297.3,152.8 220.17,173.12 182.18,225 C155.23,261.8 157.1757,313.2543 161.3957,344.7343" fill="none" id="User-to-Claim" style="stroke:#181818;stroke-width:1;"/><polygon fill="#181818" points="162.06,349.69,164.8288,340.2383,161.3957,344.7343,156.8997,341.3013,162.06,349.69" style="stroke:#181818;stroke-width:1;stroke-linejoin:miter;stroke-miterlimit:10;"/><text fill="#000000" font-family="sans-serif" font-size="13" lengthAdjust="spacing" textLength="57.8652" x="183.18" y="253.5669">assigned</text><text fill="#000000" font-family="sans-serif" font-size="13" lengthAdjust="spacing" textLength="8.271" x="325.1507" y="160.0839">1</text><text fill="#000000" font-family="sans-serif" font-size="13" lengthAdjust="spacing" textLength="6.5" x="154.384" y="339.0194">*</text></g><!--link Claim to ClaimComment--><g class="link" data-entity-1="ent0013" data-entity-2="ent0014" data-link-type="dependency" data-source-line="61" id="lnk34"><path codeLine="61" d="M146.65,398.48 C131.81,416.32 114.6984,436.9068 99.8684,454.7268" fill="none" id="Claim-to-ClaimComment" style="stroke:#181818;stroke-width:1;"/><polygon fill="#181818" points="96.67,458.57,105.5017,454.2109,99.8684,454.7268,99.3525,449.0935,96.67,458.57" style="stroke:#181818;stroke-width:1;stroke-linejoin:miter;stroke-miterlimit:10;"/><text fill="#000000" font-family="sans-serif" font-size="13" lengthAdjust="spacing" textLength="8.271" x="133.2387" y="417.9576">1</text><text fill="#000000" font-family="sans-serif" font-size="13" lengthAdjust="spacing" textLength="6.5" x="94.75" y="447.8701">*</text></g><!--link Claim to ClaimEvidence--><g class="link" data-entity-1="ent0013" data-entity-2="ent0015" data-link-type="dependency" data-source-line="62" id="lnk35"><path codeLine="62" d="M184.62,398.48 C198.62,416.32 214.7125,436.8172 228.7025,454.6372" fill="none" id="Claim-to-ClaimEvidence" style="stroke:#181818;stroke-width:1;"/><polygon fill="#181818" points="231.79,458.57,229.3787,449.0209,228.7025,454.6372,223.0862,453.961,231.79,458.57" style="stroke:#181818;stroke-width:1;stroke-linejoin:miter;stroke-miterlimit:10;"/><text fill="#000000" font-family="sans-serif" font-size="13" lengthAdjust="spacing" textLength="8.271" x="179.9893" y="417.9576">1</text><text fill="#000000" font-family="sans-serif" font-size="13" lengthAdjust="spacing" textLength="6.5" x="220.6377" y="447.8701">*</text></g><!--link User to ClaimComment--><g class="link" data-entity-1="ent0002" data-entity-2="ent0014" data-link-type="dependency" data-source-line="63" id="lnk36"><path codeLine="63" d="M340.9,145.02 C293.9,152.51 206.62,172.91 155.18,225 C90.32,290.7 79.3039,403.513 77.5639,453.523" fill="none" id="User-to-ClaimComment" style="stroke:#181818;stroke-width:1;"/><polygon fill="#181818" points="77.39,458.52,81.7005,449.6645,77.5639,453.523,73.7054,449.3864,77.39,458.52" style="stroke:#181818;stroke-width:1;stroke-linejoin:miter;stroke-miterlimit:10;"/><text fill="#000000" font-family="sans-serif" font-size="13" lengthAdjust="spacing" textLength="42.8403" x="108.18" y="316.0669">author</text><text fill="#000000" font-family="sans-serif" font-size="13" lengthAdjust="spacing" textLength="8.271" x="324.9923" y="141.5589">1</text><text fill="#000000" font-family="sans-serif" font-size="13" lengthAdjust="spacing" textLength="6.5" x="70.7705" y="447.808">*</text></g><?plantuml-src bLDRJy8m57xlhsZsOc82ogk99hCE9859rkt1npggDEbMR8k6V-_eEbXtnRsivtpdVhwJSg8KH2BRa_m8KYCbYihQ4qcwfRbcXDUKaU3KYaXmJZw495fKRi-IvEdE2XkXc6OY1rOEiZqNnwm8wIl5llBJgmKXaMj9KbqvuHtxrFLtozTeyI_PH_JxGDNP4t72ilgxQBRcPbJ13ojQJ2a0D_2nxoimzBRU-E4xn76Ke3Y9Wa5xOCSAlPa79vCdwDrwvN2x03kpBkWymIxG6JyuXR_0Cw-vGHUtzPXbkiZzT3fhnXwU3Oxz-HpUGH_ZvI9S1s6CnwPp2UwKr4cGAwmld1cf5Bq6Bybg6Iw62omtuYGhQLZjemC2vjS6hkcaQTWNgqxouM3EEOnGU-Klr_Z_V2xFgxSC0yC7c4fgIDJYNsL0JDzqMsGncfPDTROzyFc4kpDOxrEYWzu9-GS0?></g></svg>