<svg xmlns="http://www.w3.org/2000/svg" xmlns:xlink="http://www.w3.org/1999/xlink" contentStyleType="text/css" data-diagram-type="DESCRIPTION" height="482px" preserveAspectRatio="none" style="width:468px;height:482px;background:#FFFFFF;" version="1.1" viewBox="0 0 468 482" width="468px" zoomAndPan="magnify"><?plantuml 1.2026.5?><defs/><g><!--cluster Consulta y cumplimiento contractual--><g class="cluster" data-qualified-name="Consulta y cumplimiento contractual" data-source-line="8" id="ent0005"><rect fill="none" height="406" rx="2.5" ry="2.5" style="stroke:#181818;stroke-width:1;" width="305.09" x="149.08" y="7"/><text fill="#000000" font-family="sans-serif" font-size="14" font-weight="700" lengthAdjust="spacing" textLength="290.6094" x="156.3203" y="21.9951">Consulta y cumplimiento contractual</text></g><!--entity UC_GetContract--><g class="entity" data-qualified-name="Consulta y cumplimiento contractual.UC_GetContract" data-source-line="10" id="ent0006"><ellipse cx="301.1217" cy="215.0043" fill="#F1F1F1" rx="75.8217" ry="17.5643" style="stroke:#181818;stroke-width:0.5;"/><text fill="#000000" font-family="sans-serif" font-size="14" lengthAdjust="spacing" textLength="120.7158" x="240.7638" y="219.6528">Obtener contrato</text></g><!--entity UC_GetActiveContract--><g class="entity" data-qualified-name="Consulta y cumplimiento contractual.UC_GetActiveContract" data-source-line="12" id="ent0007"><ellipse cx="301.1245" cy="372.9981" fill="#F1F1F1" rx="79.5845" ry="23.6781" style="stroke:#181818;stroke-width:0.5;"/><text fill="#000000" font-family="sans-serif" font-size="14" lengthAdjust="spacing" textLength="120.7158" x="240.7666" y="373.0672">Obtener contrato</text><text fill="#000000" font-family="sans-serif" font-size="14" lengthAdjust="spacing" textLength="42.5059" x="279.8716" y="389.3641">activo</text></g><!--entity UC_ListContracts--><g class="entity" data-qualified-name="Consulta y cumplimiento contractual.UC_ListContracts" data-source-line="14" id="ent0008"><ellipse cx="301.1224" cy="59.0045" fill="#F1F1F1" rx="71.2724" ry="16.6545" style="stroke:#181818;stroke-width:0.5;"/><text fill="#000000" font-family="sans-serif" font-size="14" lengthAdjust="spacing" textLength="109.5664" x="246.3392" y="63.6529">Listar contratos</text></g><!--entity UC_ListCollaboratorContracts--><g class="entity" data-qualified-name="Consulta y cumplimiento contractual.UC_ListCollaboratorContracts" data-source-line="16" id="ent0009"><ellipse cx="301.1227" cy="136.9972" fill="#F1F1F1" rx="79.8027" ry="25.8472" style="stroke:#181818;stroke-width:0.5;"/><text fill="#000000" font-family="sans-serif" font-size="14" lengthAdjust="spacing" textLength="109.5664" x="246.3395" y="133.7814">Listar contratos</text><text fill="#000000" font-family="sans-serif" font-size="14" lengthAdjust="spacing" textLength="105.6768" x="248.2843" y="150.0782">de colaborador</text></g><!--entity UC_DownloadContractPdf--><g class="entity" data-qualified-name="Consulta y cumplimiento contractual.UC_DownloadContractPdf" data-source-line="18" id="ent0010"><ellipse cx="301.1227" cy="291.0007" fill="#F1F1F1" rx="88.0427" ry="23.4707" style="stroke:#181818;stroke-width:0.5;"/><text fill="#000000" font-family="sans-serif" font-size="14" lengthAdjust="spacing" textLength="135.4063" x="233.4196" y="291.4096">Descargar contrato</text><text fill="#000000" font-family="sans-serif" font-size="14" lengthAdjust="spacing" textLength="27.2754" x="287.485" y="307.7065">PDF</text></g><!--entity Admin--><g class="entity" data-qualified-name="Admin" data-source-line="3" id="ent0001"><ellipse cx="55.54" cy="35.2" fill="#F1F1F1" rx="8" ry="8" style="stroke:#181818;stroke-width:0.5;"/><path d="M55.54,43.2 L55.54,70.2 M42.54,51.2 L68.54,51.2 M55.54,70.2 L42.54,85.2 M55.54,70.2 L68.54,85.2" fill="none" style="stroke:#181818;stroke-width:0.5;"/><text fill="#000000" font-family="sans-serif" font-size="14" lengthAdjust="spacing" textLength="99.0801" x="6" y="99.6951">Administrador</text><text fill="#000000" font-family="sans-serif" font-size="14" lengthAdjust="spacing" textLength="83.3301" x="6" y="115.992">de empresa</text></g><!--entity Manager--><g class="entity" data-qualified-name="Manager" data-source-line="4" id="ent0002"><ellipse cx="55.543" cy="163.2" fill="#F1F1F1" rx="8" ry="8" style="stroke:#181818;stroke-width:0.5;"/><path d="M55.543,171.2 L55.543,198.2 M42.543,179.2 L68.543,179.2 M55.543,198.2 L42.543,213.2 M55.543,198.2 L68.543,213.2" fill="none" style="stroke:#181818;stroke-width:0.5;"/><text fill="#000000" font-family="sans-serif" font-size="14" lengthAdjust="spacing" textLength="56.8066" x="15.44" y="227.6951">Gerente</text><text fill="#000000" font-family="sans-serif" font-size="14" lengthAdjust="spacing" textLength="80.2061" x="15.44" y="243.992">de sucursal</text></g><!--entity Supervisor--><g class="entity" data-qualified-name="Supervisor" data-source-line="5" id="ent0003"><ellipse cx="55.5428" cy="290.35" fill="#F1F1F1" rx="8" ry="8" style="stroke:#181818;stroke-width:0.5;"/><path d="M55.5428,298.35 L55.5428,325.35 M42.5428,306.35 L68.5428,306.35 M55.5428,325.35 L42.5428,340.35 M55.5428,325.35 L68.5428,340.35" fill="none" style="stroke:#181818;stroke-width:0.5;"/><text fill="#000000" font-family="sans-serif" font-size="14" lengthAdjust="spacing" textLength="74.8057" x="18.14" y="354.8451">Supervisor</text></g><!--entity Employee--><g class="entity" data-qualified-name="Employee" data-source-line="6" id="ent0004"><ellipse cx="55.5423" cy="401.35" fill="#F1F1F1" rx="8" ry="8" style="stroke:#181818;stroke-width:0.5;"/><path d="M55.5423,409.35 L55.5423,436.35 M42.5423,417.35 L68.5423,417.35 M55.5423,436.35 L42.5423,451.35 M55.5423,436.35 L68.5423,451.35" fill="none" style="stroke:#181818;stroke-width:0.5;"/><text fill="#000000" font-family="sans-serif" font-size="14" lengthAdjust="spacing" textLength="85.8047" x="12.64" y="465.8451">Colaborador</text></g><!--link Admin to UC_GetContract--><g class="link" data-entity-1="ent0001" data-entity-2="ent0006" data-link-type="dependency" data-source-line="21" id="lnk11"><path d="M92.37,119.78 C113.85,147.58 137.66,177.86 141.08,180 C167.08,196.28 194.6751,204.246 223.5251,208.946" fill="none" id="Admin-to-UC_GetContract" style="stroke:#181818;stroke-width:1;"/><polygon fill="#181818" points="228.46,209.75,220.2203,204.3549,223.5251,208.946,218.9339,212.2508,228.46,209.75" style="stroke:#181818;stroke-width:1;stroke-linejoin:miter;stroke-miterlimit:10;"/></g><!--link Admin to UC_GetActiveContract--><g class="link" data-entity-1="ent0001" data-entity-2="ent0007" data-link-type="dependency" data-source-line="22" id="lnk12"><path d="M95.71,119.7 C99.26,125.31 102.49,131.13 105.08,137 C140.67,217.63 80.97,267.55 141.08,332 C161.79,354.21 187.874,364.1829 217.014,369.2529" fill="none" id="Admin-to-UC_GetActiveContract" style="stroke:#181818;stroke-width:1;"/><polygon fill="#181818" points="221.94,370.11,213.7589,364.6265,217.014,369.2529,212.3876,372.5081,221.94,370.11" style="stroke:#181818;stroke-width:1;stroke-linejoin:miter;stroke-miterlimit:10;"/></g><!--link Admin to UC_ListContracts--><g class="link" data-entity-1="ent0001" data-entity-2="ent0008" data-link-type="dependency" data-source-line="23" id="lnk13"><path d="M105.54,70.19 C141.66,68.11 186.2783,65.5476 226.3683,63.2376" fill="none" id="Admin-to-UC_ListContracts" style="stroke:#181818;stroke-width:1;"/><polygon fill="#181818" points="231.36,62.95,222.1448,59.4743,226.3683,63.2376,222.605,67.4611,231.36,62.95" style="stroke:#181818;stroke-width:1;stroke-linejoin:miter;stroke-miterlimit:10;"/></g><!--link Admin to UC_ListCollaboratorContracts--><g class="link" data-entity-1="ent0001" data-entity-2="ent0009" data-link-type="dependency" data-source-line="24" id="lnk14"><path d="M105.54,85.88 C143.74,95.91 192.204,108.6499 233.364,119.4599" fill="none" id="Admin-to-UC_ListCollaboratorContracts" style="stroke:#181818;stroke-width:1;"/><polygon fill="#181818" points="238.2,120.73,230.5113,114.575,233.364,119.4599,228.4791,122.3126,238.2,120.73" style="stroke:#181818;stroke-width:1;stroke-linejoin:miter;stroke-miterlimit:10;"/></g><!--link Admin to UC_DownloadContractPdf--><g class="link" data-entity-1="ent0001" data-entity-2="ent0010" data-link-type="dependency" data-source-line="25" id="lnk15"><path d="M94.74,119.69 C98.51,125.35 102.06,131.18 105.08,137 C129.36,183.79 102.78,213.79 141.08,250 C161.18,269 183.9905,278.4446 210.6505,284.1446" fill="none" id="Admin-to-UC_DownloadContractPdf" style="stroke:#181818;stroke-width:1;"/><polygon fill="#181818" points="215.54,285.19,207.5752,279.3967,210.6505,284.1446,205.9026,287.2199,215.54,285.19" style="stroke:#181818;stroke-width:1;stroke-linejoin:miter;stroke-miterlimit:10;"/></g><!--link Manager to UC_GetContract--><g class="link" data-entity-1="ent0002" data-entity-2="ent0006" data-link-type="dependency" data-source-line="27" id="lnk16"><path d="M95.95,203.27 C131.36,205.3 179.2683,208.0527 222.3583,210.5327" fill="none" id="Manager-to-UC_GetContract" style="stroke:#181818;stroke-width:1;"/><polygon fill="#181818" points="227.35,210.82,218.5947,206.3095,222.3583,210.5327,218.135,214.2963,227.35,210.82" style="stroke:#181818;stroke-width:1;stroke-linejoin:miter;stroke-miterlimit:10;"/></g><!--link Manager to UC_GetActiveContract--><g class="link" data-entity-1="ent0002" data-entity-2="ent0007" data-link-type="dependency" data-source-line="28" id="lnk17"><path d="M93.75,247.5 C97.71,252.97 101.57,258.54 105.08,264 C123.58,292.76 114.24,310.82 141.08,332 C164.69,350.64 190.9537,359.9167 219.4237,365.5067" fill="none" id="Manager-to-UC_GetActiveContract" style="stroke:#181818;stroke-width:1;"/><polygon fill="#181818" points="224.33,366.47,216.2693,360.8109,219.4237,365.5067,214.728,368.661,224.33,366.47" style="stroke:#181818;stroke-width:1;stroke-linejoin:miter;stroke-miterlimit:10;"/></g><!--link Manager to UC_ListContracts--><g class="link" data-entity-1="ent0002" data-entity-2="ent0008" data-link-type="dependency" data-source-line="29" id="lnk18"><path d="M92.37,154.22 C113.85,126.42 137.66,96.15 141.08,94 C168.28,76.97 197.6768,68.9112 227.4868,64.3812" fill="none" id="Manager-to-UC_ListContracts" style="stroke:#181818;stroke-width:1;"/><polygon fill="#181818" points="232.43,63.63,222.9312,61.0275,227.4868,64.3812,224.1331,68.9367,232.43,63.63" style="stroke:#181818;stroke-width:1;stroke-linejoin:miter;stroke-miterlimit:10;"/></g><!--link Manager to UC_ListCollaboratorContracts--><g class="link" data-entity-1="ent0002" data-entity-2="ent0009" data-link-type="dependency" data-source-line="30" id="lnk19"><path d="M95.95,190.65 C134.46,180.53 188.8141,166.2506 233.5741,154.4906" fill="none" id="Manager-to-UC_ListCollaboratorContracts" style="stroke:#181818;stroke-width:1;"/><polygon fill="#181818" points="238.41,153.22,228.689,151.6383,233.5741,154.4906,230.7219,159.3757,238.41,153.22" style="stroke:#181818;stroke-width:1;stroke-linejoin:miter;stroke-miterlimit:10;"/></g><!--link Manager to UC_DownloadContractPdf--><g class="link" data-entity-1="ent0002" data-entity-2="ent0010" data-link-type="dependency" data-source-line="31" id="lnk20"><path d="M95.82,226.76 C109.7,235.04 125.7,243.7 141.08,250 C169.05,261.46 196.2539,269.3108 224.2439,275.9208" fill="none" id="Manager-to-UC_DownloadContractPdf" style="stroke:#181818;stroke-width:1;"/><polygon fill="#181818" points="229.11,277.07,221.2703,271.1086,224.2439,275.9208,219.4316,278.8944,229.11,277.07" style="stroke:#181818;stroke-width:1;stroke-linejoin:miter;stroke-miterlimit:10;"/></g><!--link Supervisor to UC_GetContract--><g class="link" data-entity-1="ent0003" data-entity-2="ent0006" data-link-type="dependency" data-source-line="33" id="lnk21"><path d="M93.38,283.01 C107.31,270.87 123.96,258.36 141.08,250 C169.41,236.17 198.3048,228.6114 227.4648,223.5114" fill="none" id="Supervisor-to-UC_GetContract" style="stroke:#181818;stroke-width:1;"/><polygon fill="#181818" points="232.39,222.65,222.8354,220.2603,227.4648,223.5114,224.2137,228.1407,232.39,222.65" style="stroke:#181818;stroke-width:1;stroke-linejoin:miter;stroke-miterlimit:10;"/></g><!--link Supervisor to UC_GetActiveContract--><g class="link" data-entity-1="ent0003" data-entity-2="ent0007" data-link-type="dependency" data-source-line="34" id="lnk22"><path d="M93.27,327.99 C131.02,336.21 185.6442,348.0974 231.1642,357.9974" fill="none" id="Supervisor-to-UC_GetActiveContract" style="stroke:#181818;stroke-width:1;"/><polygon fill="#181818" points="236.05,359.06,228.1057,353.2387,231.1642,357.9974,226.4055,361.056,236.05,359.06" style="stroke:#181818;stroke-width:1;stroke-linejoin:miter;stroke-miterlimit:10;"/></g><!--link Supervisor to UC_ListCollaboratorContracts--><g class="link" data-entity-1="ent0003" data-entity-2="ent0009" data-link-type="dependency" data-source-line="35" id="lnk23"><path d="M93.16,281.56 C97.45,276.2 101.55,270.61 105.08,265 C126.94,230.28 110.16,206.96 141.08,180 C163.82,160.17 189.9308,150.3787 218.5308,144.5487" fill="none" id="Supervisor-to-UC_ListCollaboratorContracts" style="stroke:#181818;stroke-width:1;"/><polygon fill="#181818" points="223.43,143.55,213.8124,141.4282,218.5308,144.5487,215.4103,149.267,223.43,143.55" style="stroke:#181818;stroke-width:1;stroke-linejoin:miter;stroke-miterlimit:10;"/></g><!--link Supervisor to UC_DownloadContractPdf--><g class="link" data-entity-1="ent0003" data-entity-2="ent0010" data-link-type="dependency" data-source-line="36" id="lnk24"><path d="M93.27,315.63 C126.7,311.65 172.2251,306.2313 214.9651,301.1413" fill="none" id="Supervisor-to-UC_DownloadContractPdf" style="stroke:#181818;stroke-width:1;"/><polygon fill="#181818" points="219.93,300.55,210.5201,297.6424,214.9651,301.1413,211.4662,305.5862,219.93,300.55" style="stroke:#181818;stroke-width:1;stroke-linejoin:miter;stroke-miterlimit:10;"/></g><!--link Employee to UC_GetActiveContract--><g class="link" data-entity-1="ent0004" data-entity-2="ent0007" data-link-type="dependency" data-source-line="38" id="lnk25"><path d="M98.69,420.96 C137.09,411.82 189.436,399.3581 233.076,388.9681" fill="none" id="Employee-to-UC_GetActiveContract" style="stroke:#181818;stroke-width:1;"/><polygon fill="#181818" points="237.94,387.81,228.2583,386.0033,233.076,388.9681,230.1112,393.7857,237.94,387.81" style="stroke:#181818;stroke-width:1;stroke-linejoin:miter;stroke-miterlimit:10;"/></g><!--link Employee to UC_DownloadContractPdf--><g class="link" data-entity-1="ent0004" data-entity-2="ent0010" data-link-type="dependency" data-source-line="39" id="lnk26"><path d="M90.93,392.4 C95.72,386.92 100.54,381.34 105.08,376 C121.44,356.75 119.79,345.61 141.08,332 C164.99,316.72 189.4607,308.2221 216.4007,302.1921" fill="none" id="Employee-to-UC_DownloadContractPdf" style="stroke:#181818;stroke-width:1;"/><polygon fill="#181818" points="221.28,301.1,211.6236,299.1624,216.4007,302.1921,213.371,306.9692,221.28,301.1" style="stroke:#181818;stroke-width:1;stroke-linejoin:miter;stroke-miterlimit:10;"/></g><?plantuml-src VPF1QiCm38RlVWhJUrzXKDgjbuqLncw5eJfgPd2i8DiTPUpTvtZnsZXkZz7__T9lsJ5uzDAJPDr-UjbeHkKrMI50UMAvM3MTjjfvXePuRnkKsFMC3XOId4ngHhV8Q3qco0KLs859r0jOQ94pznPwv9Dsn4czV6PWJGOEb2Ocuh7h3PqHXHZIWMqD3f1rmNYGPwb217IdutIIYcmCgtmOXdyB8MLmgC15o-l1eqKU4K-f-VlwOuj-FRhkydiR2Nswzgs60bRTpt5hS36xx1hgsU3kEj8cLR6C_mxchnutLk-sGQU0MxZElziyvIOR-hA6eCdcNNCKFqAa6vNBvKEvc58eJZwHfqUiIBNi4woMJeplg9PkBXNv2c2Qi2hMCXPWDUNbFTU2LjKYwvovdMZELaFbN-Zsq9AejFa5?></g></svg>