<svg xmlns="http://www.w3.org/2000/svg" xmlns:xlink="http://www.w3.org/1999/xlink" contentStyleType="text/css" data-diagram-type="CLASS" height="308px" preserveAspectRatio="none" style="width:606px;height:308px;background:#FFFFFF;" version="1.1" viewBox="0 0 606 308" width="606px" zoomAndPan="magnify"><?plantuml 1.2026.5?><defs/><g><!--class ContractType--><g class="entity" data-qualified-name="ContractType" data-source-line="1" id="ent0001"><rect fill="#F1F1F1" height="113.1875" rx="2.5" ry="2.5" style="stroke:#181818;stroke-width:0.5;" width="130.7949" x="25.07" y="15.14"/><ellipse cx="41.975" cy="31.14" fill="#EB937F" rx="11" ry="11" style="stroke:#181818;stroke-width:1;"/><path d="M46.0844,37.14 L38.3657,37.14 L38.3657,24.7494 L46.0844,24.7494 L46.0844,26.9056 L40.8188,26.9056 L40.8188,29.5775 L45.5844,29.5775 L45.5844,31.7337 L40.8188,31.7337 L40.8188,34.9837 L46.0844,34.9837 L46.0844,37.14 Z " fill="#000000"/><text fill="#000000" font-family="sans-serif" font-size="14" lengthAdjust="spacing" textLength="94.5615" x="56.3984" y="35.9867">ContractType</text><line style="stroke:#181818;stroke-width:0.5;" x1="26.07" x2="154.8649" y1="47.14" y2="47.14"/><text fill="#000000" font-family="sans-serif" font-size="14" lengthAdjust="spacing" textLength="78.4082" x="31.07" y="64.1351">INDEFINITE</text><text fill="#000000" font-family="sans-serif" font-size="14" lengthAdjust="spacing" textLength="87.6025" x="31.07" y="80.432">FIXED_TERM</text><text fill="#000000" font-family="sans-serif" font-size="14" lengthAdjust="spacing" textLength="86.5225" x="31.07" y="96.7289">TEMPORARY</text><text fill="#000000" font-family="sans-serif" font-size="14" lengthAdjust="spacing" textLength="118.7949" x="31.07" y="113.0257">APPRENTICESHIP</text><line style="stroke:#181818;stroke-width:0.5;" x1="26.07" x2="154.8649" y1="120.3275" y2="120.3275"/></g><!--class ContractStatus--><g class="entity" data-qualified-name="ContractStatus" data-source-line="8" id="ent0002"><rect fill="#F1F1F1" height="80.5938" rx="2.5" ry="2.5" style="stroke:#181818;stroke-width:0.5;" width="136.8359" x="191.05" y="31.44"/><ellipse cx="206.05" cy="47.44" fill="#EB937F" rx="11" ry="11" style="stroke:#181818;stroke-width:1;"/><path d="M210.1594,53.44 L202.4406,53.44 L202.4406,41.0494 L210.1594,41.0494 L210.1594,43.2056 L204.8938,43.2056 L204.8938,45.8775 L209.6594,45.8775 L209.6594,48.0338 L204.8938,48.0338 L204.8938,51.2838 L210.1594,51.2838 L210.1594,53.44 Z " fill="#000000"/><text fill="#000000" font-family="sans-serif" font-size="14" lengthAdjust="spacing" textLength="104.8359" x="220.05" y="52.2867">ContractStatus</text><line style="stroke:#181818;stroke-width:0.5;" x1="192.05" x2="326.8859" y1="63.44" y2="63.44"/><text fill="#000000" font-family="sans-serif" font-size="14" lengthAdjust="spacing" textLength="50.4561" x="197.05" y="80.4351">ACTIVE</text><text fill="#000000" font-family="sans-serif" font-size="14" lengthAdjust="spacing" textLength="91.5605" x="197.05" y="96.732">TERMINATED</text><line style="stroke:#181818;stroke-width:0.5;" x1="192.05" x2="326.8859" y1="104.0338" y2="104.0338"/></g><!--class ContractTerminationReason--><g class="entity" data-qualified-name="ContractTerminationReason" data-source-line="13" id="ent0003"><rect fill="#F1F1F1" height="129.4844" rx="2.5" ry="2.5" style="stroke:#181818;stroke-width:0.5;" width="228.5947" x="363.17" y="7"/><ellipse cx="378.17" cy="23" fill="#EB937F" rx="11" ry="11" style="stroke:#181818;stroke-width:1;"/><path d="M382.2794,29 L374.5606,29 L374.5606,16.6094 L382.2794,16.6094 L382.2794,18.7656 L377.0138,18.7656 L377.0138,21.4375 L381.7794,21.4375 L381.7794,23.5938 L377.0138,23.5938 L377.0138,26.8438 L382.2794,26.8438 L382.2794,29 Z " fill="#000000"/><text fill="#000000" font-family="sans-serif" font-size="14" lengthAdjust="spacing" textLength="196.5947" x="392.17" y="27.8467">ContractTerminationReason</text><line style="stroke:#181818;stroke-width:0.5;" x1="364.17" x2="590.7647" y1="39" y2="39"/><text fill="#000000" font-family="sans-serif" font-size="14" lengthAdjust="spacing" textLength="96.6602" x="369.17" y="55.9951">RESIGNATION</text><text fill="#000000" font-family="sans-serif" font-size="14" lengthAdjust="spacing" textLength="75.1543" x="369.17" y="72.292">DISMISSAL</text><text fill="#000000" font-family="sans-serif" font-size="14" lengthAdjust="spacing" textLength="153.2959" x="369.17" y="88.5889">MUTUAL_AGREEMENT</text><text fill="#000000" font-family="sans-serif" font-size="14" lengthAdjust="spacing" textLength="168.9365" x="369.17" y="104.8857">CONTRACT_EXPIRATION</text><text fill="#000000" font-family="sans-serif" font-size="14" lengthAdjust="spacing" textLength="48.6719" x="369.17" y="121.1826">OTHER</text><line style="stroke:#181818;stroke-width:0.5;" x1="364.17" x2="590.7647" y1="128.4844" y2="128.4844"/></g><!--class WorkScheduleType--><g class="entity" data-qualified-name="WorkScheduleType" data-source-line="21" id="ent0004"><rect fill="#F1F1F1" height="96.8906" rx="2.5" ry="2.5" style="stroke:#181818;stroke-width:0.5;" width="166.9414" x="7" y="196.48"/><ellipse cx="22" cy="212.48" fill="#EB937F" rx="11" ry="11" style="stroke:#181818;stroke-width:1;"/><path d="M26.1094,218.48 L18.3906,218.48 L18.3906,206.0894 L26.1094,206.0894 L26.1094,208.2456 L20.8438,208.2456 L20.8438,210.9175 L25.6094,210.9175 L25.6094,213.0738 L20.8438,213.0738 L20.8438,216.3238 L26.1094,216.3238 L26.1094,218.48 Z " fill="#000000"/><text fill="#000000" font-family="sans-serif" font-size="14" lengthAdjust="spacing" textLength="134.9414" x="36" y="217.3267">WorkScheduleType</text><line style="stroke:#181818;stroke-width:0.5;" x1="8" x2="172.9414" y1="228.48" y2="228.48"/><text fill="#000000" font-family="sans-serif" font-size="14" lengthAdjust="spacing" textLength="74.5049" x="13" y="245.4751">FULL_TIME</text><text fill="#000000" font-family="sans-serif" font-size="14" lengthAdjust="spacing" textLength="76.9043" x="13" y="261.772">PART_TIME</text><text fill="#000000" font-family="sans-serif" font-size="14" lengthAdjust="spacing" textLength="64.668" x="13" y="278.0689">FLEXIBLE</text><line style="stroke:#181818;stroke-width:0.5;" x1="8" x2="172.9414" y1="285.3706" y2="285.3706"/></g><!--class PayPeriod--><g class="entity" data-qualified-name="PayPeriod" data-source-line="27" id="ent0005"><rect fill="#F1F1F1" height="96.8906" rx="2.5" ry="2.5" style="stroke:#181818;stroke-width:0.5;" width="101.46" x="208.74" y="196.48"/><ellipse cx="223.74" cy="212.48" fill="#EB937F" rx="11" ry="11" style="stroke:#181818;stroke-width:1;"/><path d="M227.8494,218.48 L220.1306,218.48 L220.1306,206.0894 L227.8494,206.0894 L227.8494,208.2456 L222.5838,208.2456 L222.5838,210.9175 L227.3494,210.9175 L227.3494,213.0738 L222.5838,213.0738 L222.5838,216.3238 L227.8494,216.3238 L227.8494,218.48 Z " fill="#000000"/><text fill="#000000" font-family="sans-serif" font-size="14" lengthAdjust="spacing" textLength="69.46" x="237.74" y="217.3267">PayPeriod</text><line style="stroke:#181818;stroke-width:0.5;" x1="209.74" x2="309.2" y1="228.48" y2="228.48"/><text fill="#000000" font-family="sans-serif" font-size="14" lengthAdjust="spacing" textLength="57.0664" x="214.74" y="245.4751">WEEKLY</text><text fill="#000000" font-family="sans-serif" font-size="14" lengthAdjust="spacing" textLength="70.7998" x="214.74" y="261.772">BIWEEKLY</text><text fill="#000000" font-family="sans-serif" font-size="14" lengthAdjust="spacing" textLength="69.002" x="214.74" y="278.0689">MONTHLY</text><line style="stroke:#181818;stroke-width:0.5;" x1="209.74" x2="309.2" y1="285.3706" y2="285.3706"/></g><!--class Currency--><g class="entity" data-qualified-name="Currency" data-source-line="33" id="ent0006"><rect fill="#F1F1F1" height="96.8906" rx="2.5" ry="2.5" style="stroke:#181818;stroke-width:0.5;" width="95.6289" x="345.66" y="196.48"/><ellipse cx="360.66" cy="212.48" fill="#EB937F" rx="11" ry="11" style="stroke:#181818;stroke-width:1;"/><path d="M364.7694,218.48 L357.0506,218.48 L357.0506,206.0894 L364.7694,206.0894 L364.7694,208.2456 L359.5038,208.2456 L359.5038,210.9175 L364.2694,210.9175 L364.2694,213.0738 L359.5038,213.0738 L359.5038,216.3238 L364.7694,216.3238 L364.7694,218.48 Z " fill="#000000"/><text fill="#000000" font-family="sans-serif" font-size="14" lengthAdjust="spacing" textLength="63.6289" x="374.66" y="217.3267">Currency</text><line style="stroke:#181818;stroke-width:0.5;" x1="346.66" x2="440.2889" y1="228.48" y2="228.48"/><text fill="#000000" font-family="sans-serif" font-size="14" lengthAdjust="spacing" textLength="26.0176" x="351.66" y="245.4751">CLP</text><text fill="#000000" font-family="sans-serif" font-size="14" lengthAdjust="spacing" textLength="29.9141" x="351.66" y="261.772">USD</text><text fill="#000000" font-family="sans-serif" font-size="14" lengthAdjust="spacing" textLength="28.8203" x="351.66" y="278.0689">EUR</text><line style="stroke:#181818;stroke-width:0.5;" x1="346.66" x2="440.2889" y1="285.3706" y2="285.3706"/></g><?plantuml-src PP3HReCm34NV-Gf-9GLJh2KXSipAdX2YaOQsXYc51pJjt-SY5KtQYtMlbMDV9yJrbXTpND8mBhnzXVmxotEq9LHeaK5CXHsKFGCPCGp6DQJeJRHoZi0o5k1hTDbFbeM_q_moBEjzdwSAnbVOSJ9e5KFvxpc7T9lYi4npf33SvxYJ11xF0c1ZnPNe3Nglj6ZJSgjqhyu4O2I6j8h6Cick7Zg7z8GQhe6ETPSvVVZnFLpNpt3SMxLQzupc4T4fugUkD7Huqd3GRjXSIDDytR4Bm8j-_CG93saaGotgE6zDASHnsu52EwcjBwL2Aw5-0G00?></g></svg>