<svg xmlns="http://www.w3.org/2000/svg" xmlns:xlink="http://www.w3.org/1999/xlink" contentStyleType="text/css" data-diagram-type="DESCRIPTION" height="397px" preserveAspectRatio="none" style="width:1952px;height:397px;background:#FFFFFF;" version="1.1" viewBox="0 0 1952 397" width="1952px" zoomAndPan="magnify"><?plantuml 1.2026.4beta2?><defs/><g><!--cluster organization--><g class="cluster" data-qualified-name="organization" data-source-line="3" id="ent0002"><path d="M8.5,6 L108.9287,6 A3.75,3.75 0 0 1 111.4287,8.5 L118.4287,28.2969 L1934.5,28.2969 A2.5,2.5 0 0 1 1937,30.7969 L1937,380.39 A2.5,2.5 0 0 1 1934.5,382.89 L8.5,382.89 A2.5,2.5 0 0 1 6,380.39 L6,8.5 A2.5,2.5 0 0 1 8.5,6" fill="none" style="stroke:#000000;stroke-width:1.5;"/><line style="stroke:#000000;stroke-width:1.5;" x1="6" x2="118.4287" y1="28.2969" y2="28.2969"/><text fill="#000000" font-family="sans-serif" font-size="14" font-weight="700" lengthAdjust="spacing" textLength="99.4287" x="10" y="20.9951">organization</text></g><!--cluster api--><g class="cluster" data-qualified-name="organization.api" data-source-line="4" id="ent0003"><path d="M785.5,49 L810.7676,49 A3.75,3.75 0 0 1 813.2676,51.5 L820.2676,71.2969 L1147.5,71.2969 A2.5,2.5 0 0 1 1150,73.7969 L1150,133.8 A2.5,2.5 0 0 1 1147.5,136.3 L785.5,136.3 A2.5,2.5 0 0 1 783,133.8 L783,51.5 A2.5,2.5 0 0 1 785.5,49" fill="none" style="stroke:#000000;stroke-width:1.5;"/><line style="stroke:#000000;stroke-width:1.5;" x1="783" x2="820.2676" y1="71.2969" y2="71.2969"/><text fill="#000000" font-family="sans-serif" font-size="14" font-weight="700" lengthAdjust="spacing" textLength="24.2676" x="787" y="63.9951">api</text></g><!--cluster application--><g class="cluster" data-qualified-name="organization.application" data-source-line="9" id="ent0006"><path d="M32.5,160.3 L121.4102,160.3 A3.75,3.75 0 0 1 123.9102,162.8 L130.9102,182.5969 L1910.5,182.5969 A2.5,2.5 0 0 1 1913,185.0969 L1913,245.09 A2.5,2.5 0 0 1 1910.5,247.59 L32.5,247.59 A2.5,2.5 0 0 1 30,245.09 L30,162.8 A2.5,2.5 0 0 1 32.5,160.3" fill="none" style="stroke:#000000;stroke-width:1.5;"/><line style="stroke:#000000;stroke-width:1.5;" x1="30" x2="130.9102" y1="182.5969" y2="182.5969"/><text fill="#000000" font-family="sans-serif" font-size="14" font-weight="700" lengthAdjust="spacing" textLength="87.9102" x="34" y="175.2951">application</text></g><!--cluster domain--><g class="cluster" data-qualified-name="organization.domain" data-source-line="21" id="ent0015"><path d="M384.5,271.59 L443.9404,271.59 A3.75,3.75 0 0 1 446.4404,274.09 L453.4404,293.8869 L608.5,293.8869 A2.5,2.5 0 0 1 611,296.3869 L611,356.39 A2.5,2.5 0 0 1 608.5,358.89 L384.5,358.89 A2.5,2.5 0 0 1 382,356.39 L382,274.09 A2.5,2.5 0 0 1 384.5,271.59" fill="none" style="stroke:#000000;stroke-width:1.5;"/><line style="stroke:#000000;stroke-width:1.5;" x1="382" x2="453.4404" y1="293.8869" y2="293.8869"/><text fill="#000000" font-family="sans-serif" font-size="14" font-weight="700" lengthAdjust="spacing" textLength="58.4404" x="386" y="286.5851">domain</text></g><!--cluster infrastructure--><g class="cluster" data-qualified-name="organization.infrastructure" data-source-line="26" id="ent0018"><path d="M718.5,271.59 L829.9619,271.59 A3.75,3.75 0 0 1 832.4619,274.09 L839.4619,293.8869 L1213.5,293.8869 A2.5,2.5 0 0 1 1216,296.3869 L1216,356.39 A2.5,2.5 0 0 1 1213.5,358.89 L718.5,358.89 A2.5,2.5 0 0 1 716,356.39 L716,274.09 A2.5,2.5 0 0 1 718.5,271.59" fill="none" style="stroke:#000000;stroke-width:1.5;"/><line style="stroke:#000000;stroke-width:1.5;" x1="716" x2="839.4619" y1="293.8869" y2="293.8869"/><text fill="#000000" font-family="sans-serif" font-size="14" font-weight="700" lengthAdjust="spacing" textLength="110.4619" x="720" y="286.5851">infrastructure</text></g><!--entity EmpresaController--><g class="entity" data-qualified-name="organization.api.EmpresaController" data-source-line="5" id="ent0004"><rect fill="#F1F1F1" height="36.2969" rx="2.5" ry="2.5" style="stroke:#181818;stroke-width:0.5;" width="150.7852" x="798.61" y="84"/><text fill="#000000" font-family="sans-serif" font-size="14" lengthAdjust="spacing" textLength="130.7852" x="808.61" y="106.9951">EmpresaController</text></g><!--entity SucursalController--><g class="entity" data-qualified-name="organization.api.SucursalController" data-source-line="6" id="ent0005"><rect fill="#F1F1F1" height="36.2969" rx="2.5" ry="2.5" style="stroke:#181818;stroke-width:0.5;" width="149.0215" x="984.49" y="84"/><text fill="#000000" font-family="sans-serif" font-size="14" lengthAdjust="spacing" textLength="129.0215" x="994.49" y="106.9951">SucursalController</text></g><!--entity CrearEmpresaUseCase--><g class="entity" data-qualified-name="organization.application.CrearEmpresaUseCase" data-source-line="10" id="ent0007"><rect fill="#F1F1F1" height="36.2969" rx="2.5" ry="2.5" style="stroke:#181818;stroke-width:0.5;" width="180.5078" x="45.75" y="195.3"/><text fill="#000000" font-family="sans-serif" font-size="14" lengthAdjust="spacing" textLength="160.5078" x="55.75" y="218.2951">CrearEmpresaUseCase</text></g><!--entity ActualizarEmpresaUseCase--><g class="entity" data-qualified-name="organization.application.ActualizarEmpresaUseCase" data-source-line="11" id="ent0008"><rect fill="#F1F1F1" height="36.2969" rx="2.5" ry="2.5" style="stroke:#181818;stroke-width:0.5;" width="211.707" x="261.15" y="195.3"/><text fill="#000000" font-family="sans-serif" font-size="14" lengthAdjust="spacing" textLength="191.707" x="271.15" y="218.2951">ActualizarEmpresaUseCase</text></g><!--entity ObtenerEmpresaUseCase--><g class="entity" data-qualified-name="organization.application.ObtenerEmpresaUseCase" data-source-line="12" id="ent0009"><rect fill="#F1F1F1" height="36.2969" rx="2.5" ry="2.5" style="stroke:#181818;stroke-width:0.5;" width="199.2793" x="507.36" y="195.3"/><text fill="#000000" font-family="sans-serif" font-size="14" lengthAdjust="spacing" textLength="179.2793" x="517.36" y="218.2951">ObtenerEmpresaUseCase</text></g><!--entity DesactivarEmpresaUseCase--><g class="entity" data-qualified-name="organization.application.DesactivarEmpresaUseCase" data-source-line="13" id="ent0010"><rect fill="#F1F1F1" height="36.2969" rx="2.5" ry="2.5" style="stroke:#181818;stroke-width:0.5;" width="216.9912" x="741.5" y="195.3"/><text fill="#000000" font-family="sans-serif" font-size="14" lengthAdjust="spacing" textLength="196.9912" x="751.5" y="218.2951">DesactivarEmpresaUseCase</text></g><!--entity CrearSucursalUseCase--><g class="entity" data-qualified-name="organization.application.CrearSucursalUseCase" data-source-line="15" id="ent0011"><rect fill="#F1F1F1" height="36.2969" rx="2.5" ry="2.5" style="stroke:#181818;stroke-width:0.5;" width="178.7441" x="993.63" y="195.3"/><text fill="#000000" font-family="sans-serif" font-size="14" lengthAdjust="spacing" textLength="158.7441" x="1003.63" y="218.2951">CrearSucursalUseCase</text></g><!--entity ActualizarSucursalUseCase--><g class="entity" data-qualified-name="organization.application.ActualizarSucursalUseCase" data-source-line="16" id="ent0012"><rect fill="#F1F1F1" height="36.2969" rx="2.5" ry="2.5" style="stroke:#181818;stroke-width:0.5;" width="209.9434" x="1207.03" y="195.3"/><text fill="#000000" font-family="sans-serif" font-size="14" lengthAdjust="spacing" textLength="189.9434" x="1217.03" y="218.2951">ActualizarSucursalUseCase</text></g><!--entity DesactivarSucursalUseCase--><g class="entity" data-qualified-name="organization.application.DesactivarSucursalUseCase" data-source-line="17" id="ent0013"><rect fill="#F1F1F1" height="36.2969" rx="2.5" ry="2.5" style="stroke:#181818;stroke-width:0.5;" width="215.2275" x="1452.39" y="195.3"/><text fill="#000000" font-family="sans-serif" font-size="14" lengthAdjust="spacing" textLength="195.2275" x="1462.39" y="218.2951">DesactivarSucursalUseCase</text></g><!--entity ListarSucursalesUseCase--><g class="entity" data-qualified-name="organization.application.ListarSucursalesUseCase" data-source-line="18" id="ent0014"><rect fill="#F1F1F1" height="36.2969" rx="2.5" ry="2.5" style="stroke:#181818;stroke-width:0.5;" width="194.9795" x="1702.51" y="195.3"/><text fill="#000000" font-family="sans-serif" font-size="14" lengthAdjust="spacing" textLength="174.9795" x="1712.51" y="218.2951">ListarSucursalesUseCase</text></g><!--entity Empresa--><g class="entity" data-qualified-name="organization.domain.Empresa" data-source-line="22" id="ent0016"><rect fill="#F1F1F1" height="36.2969" rx="2.5" ry="2.5" style="stroke:#181818;stroke-width:0.5;" width="81.6123" x="398.19" y="306.59"/><text fill="#000000" font-family="sans-serif" font-size="14" lengthAdjust="spacing" textLength="61.6123" x="408.19" y="329.5851">Empresa</text></g><!--entity Sucursal--><g class="entity" data-qualified-name="organization.domain.Sucursal" data-source-line="23" id="ent0017"><rect fill="#F1F1F1" height="36.2969" rx="2.5" ry="2.5" style="stroke:#181818;stroke-width:0.5;" width="79.8486" x="515.08" y="306.59"/><text fill="#000000" font-family="sans-serif" font-size="14" lengthAdjust="spacing" textLength="59.8486" x="525.08" y="329.5851">Sucursal</text></g><!--entity EmpresaRepositoryPostgres--><g class="entity" data-qualified-name="organization.infrastructure.EmpresaRepositoryPostgres" data-source-line="27" id="ent0019"><rect fill="#F1F1F1" height="36.2969" rx="2.5" ry="2.5" style="stroke:#181818;stroke-width:0.5;" width="217.0254" x="732.49" y="306.59"/><text fill="#000000" font-family="sans-serif" font-size="14" lengthAdjust="spacing" textLength="197.0254" x="742.49" y="329.5851">EmpresaRepositoryPostgres</text></g><!--entity SucursalRepositoryPostgres--><g class="entity" data-qualified-name="organization.infrastructure.SucursalRepositoryPostgres" data-source-line="28" id="ent0020"><rect fill="#F1F1F1" height="36.2969" rx="2.5" ry="2.5" style="stroke:#181818;stroke-width:0.5;" width="215.2617" x="984.37" y="306.59"/><text fill="#000000" font-family="sans-serif" font-size="14" lengthAdjust="spacing" textLength="195.2617" x="994.37" y="329.5851">SucursalRepositoryPostgres</text></g><!--link EmpresaController to CrearEmpresaUseCase--><g class="link" data-entity-1="ent0004" data-entity-2="ent0007" data-link-type="dependency" data-source-line="32" id="lnk21"><path d="M798.13,105.02 C653.95,109.23 345.68,121.62 244,152.3 C213.18,161.59 186.3755,177.2967 165.3355,191.4767" fill="none" id="EmpresaController-to-CrearEmpresaUseCase" style="stroke:#181818;stroke-width:1;"/><polygon fill="#181818" points="160.36,194.83,170.0588,193.1171,164.5063,192.0356,165.5877,186.4831,160.36,194.83" style="stroke:#181818;stroke-width:1;"/></g><!--link EmpresaController to ActualizarEmpresaUseCase--><g class="link" data-entity-1="ent0004" data-entity-2="ent0008" data-link-type="dependency" data-source-line="33" id="lnk22"><path d="M798.16,105.56 C719.59,109.74 593.98,121.15 490,152.3 C456.07,162.46 425.1792,178.1927 400.9292,192.0527" fill="none" id="EmpresaController-to-ActualizarEmpresaUseCase" style="stroke:#181818;stroke-width:1;"/><polygon fill="#181818" points="395.72,195.03,405.5187,194.0369,400.061,192.5489,401.5489,187.0913,395.72,195.03" style="stroke:#181818;stroke-width:1;"/></g><!--link EmpresaController to ObtenerEmpresaUseCase--><g class="link" data-entity-1="ent0004" data-entity-2="ent0009" data-link-type="dependency" data-source-line="34" id="lnk23"><path d="M812.99,120.73 C785.44,129.29 752.7,140.31 724,152.3 C693.86,164.89 666.1446,179.2836 642.9046,192.0936" fill="none" id="EmpresaController-to-ObtenerEmpresaUseCase" style="stroke:#181818;stroke-width:1;"/><polygon fill="#181818" points="637.65,194.99,647.4628,194.1485,642.0288,192.5764,643.601,187.1424,637.65,194.99" style="stroke:#181818;stroke-width:1;"/></g><!--link EmpresaController to DesactivarEmpresaUseCase--><g class="link" data-entity-1="ent0004" data-entity-2="ent0010" data-link-type="dependency" data-source-line="35" id="lnk24"><path d="M870.14,120.71 C865.67,141.1 859.6054,168.6893 855.1354,189.0693" fill="none" id="EmpresaController-to-DesactivarEmpresaUseCase" style="stroke:#181818;stroke-width:1;"/><polygon fill="#181818" points="853.85,194.93,859.6853,186.9959,854.9212,190.0461,851.871,185.282,853.85,194.93" style="stroke:#181818;stroke-width:1;"/></g><!--link SucursalController to CrearSucursalUseCase--><g class="link" data-entity-1="ent0005" data-entity-2="ent0011" data-link-type="dependency" data-source-line="37" id="lnk25"><path d="M1062.86,120.71 C1067.33,141.1 1073.3946,168.6893 1077.8646,189.0693" fill="none" id="SucursalController-to-CrearSucursalUseCase" style="stroke:#181818;stroke-width:1;"/><polygon fill="#181818" points="1079.15,194.93,1081.129,185.282,1078.0788,190.0461,1073.3147,186.9959,1079.15,194.93" style="stroke:#181818;stroke-width:1;"/></g><!--link SucursalController to ActualizarSucursalUseCase--><g class="link" data-entity-1="ent0005" data-entity-2="ent0012" data-link-type="dependency" data-source-line="38" id="lnk26"><path d="M1109.54,120.78 C1134.06,129.67 1163.81,140.96 1190,152.3 C1220.45,165.48 1248.8854,179.5636 1273.1654,192.0636" fill="none" id="SucursalController-to-ActualizarSucursalUseCase" style="stroke:#181818;stroke-width:1;"/><polygon fill="#181818" points="1278.5,194.81,1272.3291,187.1341,1274.0545,192.5214,1268.6673,194.2468,1278.5,194.81" style="stroke:#181818;stroke-width:1;"/></g><!--link SucursalController to DesactivarSucursalUseCase--><g class="link" data-entity-1="ent0005" data-entity-2="ent0013" data-link-type="dependency" data-source-line="39" id="lnk27"><path d="M1133.72,106.03 C1210.45,110.58 1332.64,122.29 1434,152.3 C1468.4,162.48 1499.8945,178.0772 1524.7645,191.8872" fill="none" id="SucursalController-to-DesactivarSucursalUseCase" style="stroke:#181818;stroke-width:1;"/><polygon fill="#181818" points="1530.01,194.8,1524.0835,186.9338,1525.6387,192.3727,1520.1998,193.9279,1530.01,194.8" style="stroke:#181818;stroke-width:1;"/></g><!--link SucursalController to ListarSucursalesUseCase--><g class="link" data-entity-1="ent0005" data-entity-2="ent0014" data-link-type="dependency" data-source-line="40" id="lnk28"><path d="M1133.76,105.26 C1276.67,109.93 1583.44,123.08 1685,152.3 C1717.48,161.64 1746.3029,177.4826 1768.8029,191.6526" fill="none" id="SucursalController-to-ListarSucursalesUseCase" style="stroke:#181818;stroke-width:1;"/><polygon fill="#181818" points="1773.88,194.85,1768.396,186.6692,1769.6491,192.1855,1764.1328,193.4386,1773.88,194.85" style="stroke:#181818;stroke-width:1;"/></g><!--link CrearEmpresaUseCase to Empresa--><g class="link" data-entity-1="ent0007" data-entity-2="ent0016" data-link-type="dependency" data-source-line="42" id="lnk29"><path d="M181.35,232.04 C200.62,239.44 223.36,248.06 244,255.59 C296.89,274.91 352.5739,294.2153 392.1239,307.7653" fill="none" id="CrearEmpresaUseCase-to-Empresa" style="stroke:#181818;stroke-width:1;"/><polygon fill="#181818" points="397.8,309.71,390.5823,303.0089,393.0699,308.0894,387.9894,310.5771,397.8,309.71" style="stroke:#181818;stroke-width:1;"/></g><!--link ActualizarEmpresaUseCase to Empresa--><g class="link" data-entity-1="ent0008" data-entity-2="ent0016" data-link-type="dependency" data-source-line="43" id="lnk30"><path d="M378.57,232.01 C392,252.4 410.7391,280.8396 424.1591,301.2096" fill="none" id="ActualizarEmpresaUseCase-to-Empresa" style="stroke:#181818;stroke-width:1;"/><polygon fill="#181818" points="427.46,306.22,425.8489,296.5038,424.7092,302.0447,419.1684,300.905,427.46,306.22" style="stroke:#181818;stroke-width:1;"/></g><!--link CrearSucursalUseCase to Sucursal--><g class="link" data-entity-1="ent0011" data-entity-2="ent0017" data-link-type="dependency" data-source-line="44" id="lnk31"><path d="M1046.29,232.09 C1026.05,240.91 1000.19,250.72 976,255.59 C862.67,278.44 829.44,241.29 716,263.59 C671.64,272.31 628.8687,289.3115 596.8787,303.7515" fill="none" id="CrearSucursalUseCase-to-Sucursal" style="stroke:#181818;stroke-width:1;"/><polygon fill="#181818" points="591.41,306.22,601.2587,306.163,595.9672,304.1629,597.9673,298.8714,591.41,306.22" style="stroke:#181818;stroke-width:1;"/></g><!--link ActualizarSucursalUseCase to Sucursal--><g class="link" data-entity-1="ent0012" data-entity-2="ent0017" data-link-type="dependency" data-source-line="45" id="lnk32"><path d="M1270.49,232.01 C1247.27,240.91 1217.53,250.84 1190,255.59 C1086.19,273.53 819.51,243.99 716,263.59 C671.44,272.03 628.491,289.1746 596.521,303.7246" fill="none" id="ActualizarSucursalUseCase-to-Sucursal" style="stroke:#181818;stroke-width:1;"/><polygon fill="#181818" points="591.06,306.21,600.9085,306.1226,595.6109,304.1388,597.5946,298.8412,591.06,306.21" style="stroke:#181818;stroke-width:1;"/></g><!--link CrearEmpresaUseCase to EmpresaRepositoryPostgres--><g class="link" data-entity-1="ent0007" data-entity-2="ent0019" data-link-type="dependency" data-source-line="47" id="lnk33"><path d="M172.56,231.96 C193.06,240.86 219.38,250.78 244,255.59 C324.06,271.23 530.21,252.31 611,263.59 C672.93,272.24 736.3844,289.9264 782.5444,304.3864" fill="none" id="CrearEmpresaUseCase-to-EmpresaRepositoryPostgres" style="stroke:#181818;stroke-width:1;"/><polygon fill="#181818" points="788.27,306.18,780.8773,299.6725,783.4986,304.6853,778.4858,307.3067,788.27,306.18" style="stroke:#181818;stroke-width:1;"/></g><!--link ActualizarEmpresaUseCase to EmpresaRepositoryPostgres--><g class="link" data-entity-1="ent0008" data-entity-2="ent0019" data-link-type="dependency" data-source-line="48" id="lnk34"><path d="M410.38,232 C433.61,240.61 462.94,250.26 490,255.59 C542.88,266.01 557.8,254.96 611,263.59 C671.7,273.45 733.9165,290.4745 780.1165,304.4345" fill="none" id="ActualizarEmpresaUseCase-to-EmpresaRepositoryPostgres" style="stroke:#181818;stroke-width:1;"/><polygon fill="#181818" points="785.86,306.17,778.4017,299.7377,781.0737,304.7238,776.0877,307.3958,785.86,306.17" style="stroke:#181818;stroke-width:1;"/></g><!--link ObtenerEmpresaUseCase to EmpresaRepositoryPostgres--><g class="link" data-entity-1="ent0009" data-entity-2="ent0019" data-link-type="dependency" data-source-line="49" id="lnk35"><path d="M644.6,232.01 C688.26,252.4 754.4333,283.3117 798.0633,303.6817" fill="none" id="ObtenerEmpresaUseCase-to-EmpresaRepositoryPostgres" style="stroke:#181818;stroke-width:1;"/><polygon fill="#181818" points="803.5,306.22,797.0372,298.7882,798.9695,304.1048,793.6528,306.037,803.5,306.22" style="stroke:#181818;stroke-width:1;"/></g><!--link DesactivarEmpresaUseCase to EmpresaRepositoryPostgres--><g class="link" data-entity-1="ent0010" data-entity-2="ent0019" data-link-type="dependency" data-source-line="50" id="lnk36"><path d="M848.55,232.01 C846.87,252.4 844.6132,279.8703 842.9332,300.2403" fill="none" id="DesactivarEmpresaUseCase-to-EmpresaRepositoryPostgres" style="stroke:#181818;stroke-width:1;"/><polygon fill="#181818" points="842.44,306.22,847.1662,297.5792,842.851,301.2369,839.1933,296.9217,842.44,306.22" style="stroke:#181818;stroke-width:1;"/></g><!--link CrearSucursalUseCase to SucursalRepositoryPostgres--><g class="link" data-entity-1="ent0011" data-entity-2="ent0020" data-link-type="dependency" data-source-line="52" id="lnk37"><path d="M1084.45,232.01 C1086.13,252.4 1088.3868,279.8703 1090.0668,300.2403" fill="none" id="CrearSucursalUseCase-to-SucursalRepositoryPostgres" style="stroke:#181818;stroke-width:1;"/><polygon fill="#181818" points="1090.56,306.22,1093.8067,296.9217,1090.149,301.2369,1085.8338,297.5792,1090.56,306.22" style="stroke:#181818;stroke-width:1;"/></g><!--link ActualizarSucursalUseCase to SucursalRepositoryPostgres--><g class="link" data-entity-1="ent0012" data-entity-2="ent0020" data-link-type="dependency" data-source-line="53" id="lnk38"><path d="M1276.65,232.01 C1235.6,252.4 1173.6539,283.1814 1132.6339,303.5514" fill="none" id="ActualizarSucursalUseCase-to-SucursalRepositoryPostgres" style="stroke:#181818;stroke-width:1;"/><polygon fill="#181818" points="1127.26,306.22,1137.0999,305.7997,1131.7382,303.9962,1133.5418,298.6345,1127.26,306.22" style="stroke:#181818;stroke-width:1;"/></g><!--link DesactivarSucursalUseCase to SucursalRepositoryPostgres--><g class="link" data-entity-1="ent0013" data-entity-2="ent0020" data-link-type="dependency" data-source-line="54" id="lnk39"><path d="M1510.73,232.04 C1487.63,239.9 1459.6,248.89 1434,255.59 C1355.37,276.19 1271.0655,292.8592 1203.0355,305.0792" fill="none" id="DesactivarSucursalUseCase-to-SucursalRepositoryPostgres" style="stroke:#181818;stroke-width:1;"/><polygon fill="#181818" points="1197.13,306.14,1206.6954,308.4858,1202.0512,305.256,1205.281,300.6118,1197.13,306.14" style="stroke:#181818;stroke-width:1;"/></g><!--link ListarSucursalesUseCase to SucursalRepositoryPostgres--><g class="link" data-entity-1="ent0014" data-entity-2="ent0020" data-link-type="dependency" data-source-line="55" id="lnk40"><path d="M1758.1,232.05 C1736.6,240.41 1709.78,249.82 1685,255.59 C1518.35,294.44 1325.9591,311.1687 1206.1091,318.3987" fill="none" id="ListarSucursalesUseCase-to-SucursalRepositoryPostgres" style="stroke:#181818;stroke-width:1;"/><polygon fill="#181818" points="1200.12,318.76,1209.3445,322.2108,1205.1109,318.4589,1208.8628,314.2253,1200.12,318.76" style="stroke:#181818;stroke-width:1;"/></g><?plantuml-src dL9DIyGm4BttLuIzxryGf7eJ51TFuc6COmcR9c6I2gliVpVGTTkcCstnEk-z-NZpuj6u00IjqhuDtg5BXtIog0Xr0jTOhAe0-WWDgfsd1fpvXcIyswcVIgah1C7q5QLUxzj06A7sBf6t5kcjhnywtL44EmNErRHFi4QF9cHTJGXqQVeIiOQ8buwtEdLWyqOy_FYUq26FtUMAJkPhBXqD_TjOcihZGsiUVp0n3HZ64JeruyEtO5pfQ-7cN6RS9q5CrEKz2KlvCmOVJV9qUl8nDRbKDEG9voeFOLwhzliRuKKYMtwRA15UAV8NtilbS7J5x6SoVo48icWX7R98Z4p5Mj-BhdcH3I-9h0CzQSZRmjqbTSDwNDmsBinA-QIiwyJ4h4etsRPovZ_4Sf0sYAL0hKf_0G00?></g></svg>