<svg xmlns="http://www.w3.org/2000/svg" xmlns:xlink="http://www.w3.org/1999/xlink" contentStyleType="text/css" data-diagram-type="CLASS" height="1046px" preserveAspectRatio="none" style="width:1431px;height:1046px;background:#FFFFFF;" version="1.1" viewBox="0 0 1431 1046" width="1431px" zoomAndPan="magnify"><?plantuml 1.2026.5?><defs/><g><!--cluster scheduling DTOs--><g class="cluster" data-qualified-name="scheduling DTOs" data-source-line="3" id="ent0001"><path d="M8.5,6 L141.4473,6 A3.75,3.75 0 0 1 143.9473,8.5 L150.9473,28.2969 L1413.5,28.2969 A2.5,2.5 0 0 1 1416,30.7969 L1416,1029.48 A2.5,2.5 0 0 1 1413.5,1031.98 L8.5,1031.98 A2.5,2.5 0 0 1 6,1029.48 L6,8.5 A2.5,2.5 0 0 1 8.5,6" fill="none" style="stroke:#000000;stroke-width:1.5;"/><line style="stroke:#000000;stroke-width:1.5;" x1="6" x2="150.9473" y1="28.2969" y2="28.2969"/><text fill="#000000" font-family="sans-serif" font-size="14" font-weight="700" lengthAdjust="spacing" textLength="131.9473" x="10" y="20.9951">scheduling DTOs</text></g><!--class CreateShiftRequest--><g class="entity" data-qualified-name="scheduling DTOs.CreateShiftRequest" data-source-line="5" id="ent0002"><rect fill="#F1F1F1" height="113.1875" rx="2.5" ry="2.5" style="stroke:#181818;stroke-width:0.5;" width="168.3906" x="21.8" y="65.44"/><ellipse cx="36.8" cy="81.44" fill="#ADD1B2" rx="11" ry="11" style="stroke:#181818;stroke-width:1;"/><path d="M39.7688,87.0806 Q39.1906,87.3775 38.55,87.5181 Q37.9094,87.6744 37.2063,87.6744 Q34.7063,87.6744 33.3781,86.0338 Q32.0656,84.3775 32.0656,81.2525 Q32.0656,78.1275 33.3781,76.4713 Q34.7063,74.815 37.2063,74.815 Q37.9094,74.815 38.55,74.9713 Q39.2063,75.1275 39.7688,75.4244 L39.7688,78.1431 Q39.1438,77.565 38.55,77.2994 Q37.9563,77.0181 37.3313,77.0181 Q35.9875,77.0181 35.3,78.0963 Q34.6125,79.1588 34.6125,81.2525 Q34.6125,83.3463 35.3,84.4244 Q35.9875,85.4869 37.3313,85.4869 Q37.9563,85.4869 38.55,85.2213 Q39.1438,84.94 39.7688,84.3619 L39.7688,87.0806 Z " fill="#000000"/><text fill="#000000" font-family="sans-serif" font-size="14" lengthAdjust="spacing" textLength="136.3906" x="50.8" y="86.2867">CreateShiftRequest</text><line style="stroke:#181818;stroke-width:0.5;" x1="22.8" x2="189.1906" y1="97.44" y2="97.44"/><text fill="#000000" font-family="sans-serif" font-size="14" lengthAdjust="spacing" textLength="113.2646" x="27.8" y="114.4351">+UUID branchId</text><text fill="#000000" font-family="sans-serif" font-size="14" lengthAdjust="spacing" textLength="120.0527" x="27.8" y="130.732">+UUID positionId</text><text fill="#000000" font-family="sans-serif" font-size="14" lengthAdjust="spacing" textLength="139.3027" x="27.8" y="147.0289">+DateTime startsAt</text><text fill="#000000" font-family="sans-serif" font-size="14" lengthAdjust="spacing" textLength="133.0684" x="27.8" y="163.3257">+DateTime endsAt</text><line style="stroke:#181818;stroke-width:0.5;" x1="22.8" x2="189.1906" y1="170.6275" y2="170.6275"/></g><!--class UpdateShiftRequest--><g class="entity" data-qualified-name="scheduling DTOs.UpdateShiftRequest" data-source-line="12" id="ent0003"><rect fill="#F1F1F1" height="113.1875" rx="2.5" ry="2.5" style="stroke:#181818;stroke-width:0.5;" width="172.2666" x="224.87" y="65.44"/><ellipse cx="239.87" cy="81.44" fill="#ADD1B2" rx="11" ry="11" style="stroke:#181818;stroke-width:1;"/><path d="M242.8388,87.0806 Q242.2606,87.3775 241.62,87.5181 Q240.9794,87.6744 240.2763,87.6744 Q237.7763,87.6744 236.4481,86.0338 Q235.1356,84.3775 235.1356,81.2525 Q235.1356,78.1275 236.4481,76.4713 Q237.7763,74.815 240.2763,74.815 Q240.9794,74.815 241.62,74.9713 Q242.2763,75.1275 242.8388,75.4244 L242.8388,78.1431 Q242.2138,77.565 241.62,77.2994 Q241.0263,77.0181 240.4013,77.0181 Q239.0575,77.0181 238.37,78.0963 Q237.6825,79.1588 237.6825,81.2525 Q237.6825,83.3463 238.37,84.4244 Q239.0575,85.4869 240.4013,85.4869 Q241.0263,85.4869 241.62,85.2213 Q242.2138,84.94 242.8388,84.3619 L242.8388,87.0806 Z " fill="#000000"/><text fill="#000000" font-family="sans-serif" font-size="14" lengthAdjust="spacing" textLength="140.2666" x="253.87" y="86.2867">UpdateShiftRequest</text><line style="stroke:#181818;stroke-width:0.5;" x1="225.87" x2="396.1366" y1="97.44" y2="97.44"/><text fill="#000000" font-family="sans-serif" font-size="14" lengthAdjust="spacing" textLength="113.2646" x="230.87" y="114.4351">+UUID branchId</text><text fill="#000000" font-family="sans-serif" font-size="14" lengthAdjust="spacing" textLength="120.0527" x="230.87" y="130.732">+UUID positionId</text><text fill="#000000" font-family="sans-serif" font-size="14" lengthAdjust="spacing" textLength="139.3027" x="230.87" y="147.0289">+DateTime startsAt</text><text fill="#000000" font-family="sans-serif" font-size="14" lengthAdjust="spacing" textLength="133.0684" x="230.87" y="163.3257">+DateTime endsAt</text><line style="stroke:#181818;stroke-width:0.5;" x1="225.87" x2="396.1366" y1="170.6275" y2="170.6275"/></g><!--class ShiftResponse--><g class="entity" data-qualified-name="scheduling DTOs.ShiftResponse" data-source-line="19" id="ent0004"><rect fill="#F1F1F1" height="259.8594" rx="2.5" ry="2.5" style="stroke:#181818;stroke-width:0.5;" width="166.7178" x="1187.64" y="263.07"/><ellipse cx="1218.2924" cy="279.07" fill="#ADD1B2" rx="11" ry="11" style="stroke:#181818;stroke-width:1;"/><path d="M1221.2612,284.7106 Q1220.6831,285.0075 1220.0424,285.1481 Q1219.4018,285.3044 1218.6987,285.3044 Q1216.1987,285.3044 1214.8706,283.6638 Q1213.5581,282.0075 1213.5581,278.8825 Q1213.5581,275.7575 1214.8706,274.1013 Q1216.1987,272.445 1218.6987,272.445 Q1219.4018,272.445 1220.0424,272.6013 Q1220.6987,272.7575 1221.2612,273.0544 L1221.2612,275.7731 Q1220.6362,275.195 1220.0424,274.9294 Q1219.4487,274.6481 1218.8237,274.6481 Q1217.4799,274.6481 1216.7924,275.7263 Q1216.1049,276.7888 1216.1049,278.8825 Q1216.1049,280.9763 1216.7924,282.0544 Q1217.4799,283.1169 1218.8237,283.1169 Q1219.4487,283.1169 1220.0424,282.8513 Q1220.6362,282.57 1221.2612,281.9919 L1221.2612,284.7106 Z " fill="#000000"/><text fill="#000000" font-family="sans-serif" font-size="14" lengthAdjust="spacing" textLength="99.9346" x="1235.7708" y="283.9167">ShiftResponse</text><line style="stroke:#181818;stroke-width:0.5;" x1="1188.64" x2="1353.3578" y1="295.07" y2="295.07"/><text fill="#000000" font-family="sans-serif" font-size="14" lengthAdjust="spacing" textLength="64.3604" x="1193.64" y="312.0651">+UUID id</text><text fill="#000000" font-family="sans-serif" font-size="14" lengthAdjust="spacing" textLength="4.4502" x="1193.64" y="328.362">&#160;</text><text fill="#000000" font-family="sans-serif" font-size="14" lengthAdjust="spacing" textLength="113.2646" x="1193.64" y="344.6589">+UUID branchId</text><text fill="#000000" font-family="sans-serif" font-size="14" lengthAdjust="spacing" textLength="147.9297" x="1193.64" y="360.9557">+String branchName</text><text fill="#000000" font-family="sans-serif" font-size="14" lengthAdjust="spacing" textLength="4.4502" x="1193.64" y="377.2526">&#160;</text><text fill="#000000" font-family="sans-serif" font-size="14" lengthAdjust="spacing" textLength="120.0527" x="1193.64" y="393.5495">+UUID positionId</text><text fill="#000000" font-family="sans-serif" font-size="14" lengthAdjust="spacing" textLength="154.7178" x="1193.64" y="409.8464">+String positionName</text><text fill="#000000" font-family="sans-serif" font-size="14" lengthAdjust="spacing" textLength="4.4502" x="1193.64" y="426.1432">&#160;</text><text fill="#000000" font-family="sans-serif" font-size="14" lengthAdjust="spacing" textLength="100.9805" x="1193.64" y="442.4401">+String status</text><text fill="#000000" font-family="sans-serif" font-size="14" lengthAdjust="spacing" textLength="4.4502" x="1193.64" y="458.737">&#160;</text><text fill="#000000" font-family="sans-serif" font-size="14" lengthAdjust="spacing" textLength="139.3027" x="1193.64" y="475.0339">+DateTime startsAt</text><text fill="#000000" font-family="sans-serif" font-size="14" lengthAdjust="spacing" textLength="133.0684" x="1193.64" y="491.3307">+DateTime endsAt</text><text fill="#000000" font-family="sans-serif" font-size="14" lengthAdjust="spacing" textLength="153.0361" x="1193.64" y="507.6276">+DateTime createdAt</text><line style="stroke:#181818;stroke-width:0.5;" x1="1188.64" x2="1353.3578" y1="514.9294" y2="514.9294"/></g><!--class CalendarRequest--><g class="entity" data-qualified-name="scheduling DTOs.CalendarRequest" data-source-line="35" id="ent0005"><rect fill="#F1F1F1" height="96.8906" rx="2.5" ry="2.5" style="stroke:#181818;stroke-width:0.5;" width="152.4492" x="431.78" y="73.59"/><ellipse cx="446.78" cy="89.59" fill="#ADD1B2" rx="11" ry="11" style="stroke:#181818;stroke-width:1;"/><path d="M449.7488,95.2306 Q449.1706,95.5275 448.53,95.6681 Q447.8894,95.8244 447.1863,95.8244 Q444.6863,95.8244 443.3581,94.1838 Q442.0456,92.5275 442.0456,89.4025 Q442.0456,86.2775 443.3581,84.6213 Q444.6863,82.965 447.1863,82.965 Q447.8894,82.965 448.53,83.1213 Q449.1863,83.2775 449.7488,83.5744 L449.7488,86.2931 Q449.1238,85.715 448.53,85.4494 Q447.9363,85.1681 447.3113,85.1681 Q445.9675,85.1681 445.28,86.2463 Q444.5925,87.3088 444.5925,89.4025 Q444.5925,91.4963 445.28,92.5744 Q445.9675,93.6369 447.3113,93.6369 Q447.9363,93.6369 448.53,93.3713 Q449.1238,93.09 449.7488,92.5119 L449.7488,95.2306 Z " fill="#000000"/><text fill="#000000" font-family="sans-serif" font-size="14" lengthAdjust="spacing" textLength="120.4492" x="460.78" y="94.4367">CalendarRequest</text><line style="stroke:#181818;stroke-width:0.5;" x1="432.78" x2="583.2292" y1="105.59" y2="105.59"/><text fill="#000000" font-family="sans-serif" font-size="14" lengthAdjust="spacing" textLength="113.2646" x="437.78" y="122.5851">+UUID branchId</text><text fill="#000000" font-family="sans-serif" font-size="14" lengthAdjust="spacing" textLength="104.6104" x="437.78" y="138.882">+Date startsAt</text><text fill="#000000" font-family="sans-serif" font-size="14" lengthAdjust="spacing" textLength="98.376" x="437.78" y="155.1789">+Date endsAt</text><line style="stroke:#181818;stroke-width:0.5;" x1="432.78" x2="583.2292" y1="162.4806" y2="162.4806"/></g><!--class CalendarResponse--><g class="entity" data-qualified-name="scheduling DTOs.CalendarResponse" data-source-line="41" id="ent0006"><rect fill="#F1F1F1" height="162.0781" rx="2.5" ry="2.5" style="stroke:#181818;stroke-width:0.5;" width="213.8174" x="925.09" y="41"/><ellipse cx="963.0391" cy="57" fill="#ADD1B2" rx="11" ry="11" style="stroke:#181818;stroke-width:1;"/><path d="M966.0079,62.6406 Q965.4297,62.9375 964.7891,63.0781 Q964.1485,63.2344 963.4454,63.2344 Q960.9454,63.2344 959.6172,61.5938 Q958.3047,59.9375 958.3047,56.8125 Q958.3047,53.6875 959.6172,52.0313 Q960.9454,50.375 963.4454,50.375 Q964.1485,50.375 964.7891,50.5313 Q965.4454,50.6875 966.0079,50.9844 L966.0079,53.7031 Q965.3829,53.125 964.7891,52.8594 Q964.1954,52.5781 963.5704,52.5781 Q962.2266,52.5781 961.5391,53.6563 Q960.8516,54.7188 960.8516,56.8125 Q960.8516,58.9063 961.5391,59.9844 Q962.2266,61.0469 963.5704,61.0469 Q964.1954,61.0469 964.7891,60.7813 Q965.3829,60.5 966.0079,59.9219 L966.0079,62.6406 Z " fill="#000000"/><text fill="#000000" font-family="sans-serif" font-size="14" lengthAdjust="spacing" textLength="130.8193" x="982.1389" y="61.8467">CalendarResponse</text><line style="stroke:#181818;stroke-width:0.5;" x1="926.09" x2="1137.9074" y1="73" y2="73"/><text fill="#000000" font-family="sans-serif" font-size="14" lengthAdjust="spacing" textLength="113.2646" x="931.09" y="89.9951">+UUID branchId</text><text fill="#000000" font-family="sans-serif" font-size="14" lengthAdjust="spacing" textLength="147.9297" x="931.09" y="106.292">+String branchName</text><text fill="#000000" font-family="sans-serif" font-size="14" lengthAdjust="spacing" textLength="4.4502" x="931.09" y="122.5889">&#160;</text><text fill="#000000" font-family="sans-serif" font-size="14" lengthAdjust="spacing" textLength="104.6104" x="931.09" y="138.8857">+Date startsAt</text><text fill="#000000" font-family="sans-serif" font-size="14" lengthAdjust="spacing" textLength="98.376" x="931.09" y="155.1826">+Date endsAt</text><text fill="#000000" font-family="sans-serif" font-size="14" lengthAdjust="spacing" textLength="4.4502" x="931.09" y="171.4795">&#160;</text><text fill="#000000" font-family="sans-serif" font-size="14" lengthAdjust="spacing" textLength="201.8174" x="931.09" y="187.7764">+List&lt;ShiftResponse&gt; shifts</text><line style="stroke:#181818;stroke-width:0.5;" x1="926.09" x2="1137.9074" y1="195.0781" y2="195.0781"/></g><!--class AssignCollaboratorToShiftRequest--><g class="entity" data-qualified-name="scheduling DTOs.AssignCollaboratorToShiftRequest" data-source-line="51" id="ent0007"><rect fill="#F1F1F1" height="80.5938" rx="2.5" ry="2.5" style="stroke:#181818;stroke-width:0.5;" width="270.793" x="619.6" y="81.74"/><ellipse cx="634.6" cy="97.74" fill="#ADD1B2" rx="11" ry="11" style="stroke:#181818;stroke-width:1;"/><path d="M637.5688,103.3806 Q636.9906,103.6775 636.35,103.8181 Q635.7094,103.9744 635.0063,103.9744 Q632.5063,103.9744 631.1781,102.3338 Q629.8656,100.6775 629.8656,97.5525 Q629.8656,94.4275 631.1781,92.7713 Q632.5063,91.115 635.0063,91.115 Q635.7094,91.115 636.35,91.2713 Q637.0063,91.4275 637.5688,91.7244 L637.5688,94.4431 Q636.9438,93.865 636.35,93.5994 Q635.7563,93.3181 635.1313,93.3181 Q633.7875,93.3181 633.1,94.3963 Q632.4125,95.4588 632.4125,97.5525 Q632.4125,99.6463 633.1,100.7244 Q633.7875,101.7869 635.1313,101.7869 Q635.7563,101.7869 636.35,101.5213 Q636.9438,101.24 637.5688,100.6619 L637.5688,103.3806 Z " fill="#000000"/><text fill="#000000" font-family="sans-serif" font-size="14" lengthAdjust="spacing" textLength="238.793" x="648.6" y="102.5867">AssignCollaboratorToShiftRequest</text><line style="stroke:#181818;stroke-width:0.5;" x1="620.6" x2="889.393" y1="113.74" y2="113.74"/><text fill="#000000" font-family="sans-serif" font-size="14" lengthAdjust="spacing" textLength="95.0742" x="625.6" y="130.7351">+UUID shiftId</text><text fill="#000000" font-family="sans-serif" font-size="14" lengthAdjust="spacing" textLength="148.8184" x="625.6" y="147.032">+UUID collaboratorId</text><line style="stroke:#181818;stroke-width:0.5;" x1="620.6" x2="889.393" y1="154.3338" y2="154.3338"/></g><!--class RemoveCollaboratorFromShiftRequest--><g class="entity" data-qualified-name="scheduling DTOs.RemoveCollaboratorFromShiftRequest" data-source-line="56" id="ent0008"><rect fill="#F1F1F1" height="80.5938" rx="2.5" ry="2.5" style="stroke:#181818;stroke-width:0.5;" width="301.3154" x="22.34" y="352.71"/><ellipse cx="37.34" cy="368.71" fill="#ADD1B2" rx="11" ry="11" style="stroke:#181818;stroke-width:1;"/><path d="M40.3088,374.3506 Q39.7306,374.6475 39.09,374.7881 Q38.4494,374.9444 37.7463,374.9444 Q35.2463,374.9444 33.9181,373.3038 Q32.6056,371.6475 32.6056,368.5225 Q32.6056,365.3975 33.9181,363.7413 Q35.2463,362.085 37.7463,362.085 Q38.4494,362.085 39.09,362.2413 Q39.7463,362.3975 40.3088,362.6944 L40.3088,365.4131 Q39.6838,364.835 39.09,364.5694 Q38.4963,364.2881 37.8713,364.2881 Q36.5275,364.2881 35.84,365.3663 Q35.1525,366.4288 35.1525,368.5225 Q35.1525,370.6163 35.84,371.6944 Q36.5275,372.7569 37.8713,372.7569 Q38.4963,372.7569 39.09,372.4913 Q39.6838,372.21 40.3088,371.6319 L40.3088,374.3506 Z " fill="#000000"/><text fill="#000000" font-family="sans-serif" font-size="14" lengthAdjust="spacing" textLength="269.3154" x="51.34" y="373.5567">RemoveCollaboratorFromShiftRequest</text><line style="stroke:#181818;stroke-width:0.5;" x1="23.34" x2="322.6554" y1="384.71" y2="384.71"/><text fill="#000000" font-family="sans-serif" font-size="14" lengthAdjust="spacing" textLength="95.0742" x="28.34" y="401.7051">+UUID shiftId</text><text fill="#000000" font-family="sans-serif" font-size="14" lengthAdjust="spacing" textLength="148.8184" x="28.34" y="418.002">+UUID collaboratorId</text><line style="stroke:#181818;stroke-width:0.5;" x1="23.34" x2="322.6554" y1="425.3038" y2="425.3038"/></g><!--class ReplaceCollaboratorInShiftRequest--><g class="entity" data-qualified-name="scheduling DTOs.ReplaceCollaboratorInShiftRequest" data-source-line="61" id="ent0009"><rect fill="#F1F1F1" height="96.8906" rx="2.5" ry="2.5" style="stroke:#181818;stroke-width:0.5;" width="276.8701" x="358.56" y="344.56"/><ellipse cx="373.56" cy="360.56" fill="#ADD1B2" rx="11" ry="11" style="stroke:#181818;stroke-width:1;"/><path d="M376.5288,366.2006 Q375.9506,366.4975 375.31,366.6381 Q374.6694,366.7944 373.9663,366.7944 Q371.4663,366.7944 370.1381,365.1538 Q368.8256,363.4975 368.8256,360.3725 Q368.8256,357.2475 370.1381,355.5913 Q371.4663,353.935 373.9663,353.935 Q374.6694,353.935 375.31,354.0913 Q375.9663,354.2475 376.5288,354.5444 L376.5288,357.2631 Q375.9038,356.685 375.31,356.4194 Q374.7163,356.1381 374.0913,356.1381 Q372.7475,356.1381 372.06,357.2163 Q371.3725,358.2788 371.3725,360.3725 Q371.3725,362.4663 372.06,363.5444 Q372.7475,364.6069 374.0913,364.6069 Q374.7163,364.6069 375.31,364.3413 Q375.9038,364.06 376.5288,363.4819 L376.5288,366.2006 Z " fill="#000000"/><text fill="#000000" font-family="sans-serif" font-size="14" lengthAdjust="spacing" textLength="244.8701" x="387.56" y="365.4067">ReplaceCollaboratorInShiftRequest</text><line style="stroke:#181818;stroke-width:0.5;" x1="359.56" x2="634.4301" y1="376.56" y2="376.56"/><text fill="#000000" font-family="sans-serif" font-size="14" lengthAdjust="spacing" textLength="95.0742" x="364.56" y="393.5551">+UUID shiftId</text><text fill="#000000" font-family="sans-serif" font-size="14" lengthAdjust="spacing" textLength="201.9541" x="364.56" y="409.852">+UUID currentCollaboratorId</text><text fill="#000000" font-family="sans-serif" font-size="14" lengthAdjust="spacing" textLength="179.833" x="364.56" y="426.1489">+UUID newCollaboratorId</text><line style="stroke:#181818;stroke-width:0.5;" x1="359.56" x2="634.4301" y1="433.4506" y2="433.4506"/></g><!--class ShiftAssignmentResponse--><g class="entity" data-qualified-name="scheduling DTOs.ShiftAssignmentResponse" data-source-line="67" id="ent0010"><rect fill="#F1F1F1" height="210.9688" rx="2.5" ry="2.5" style="stroke:#181818;stroke-width:0.5;" width="214.3623" x="670.82" y="287.52"/><ellipse cx="685.82" cy="303.52" fill="#ADD1B2" rx="11" ry="11" style="stroke:#181818;stroke-width:1;"/><path d="M688.7888,309.1606 Q688.2106,309.4575 687.57,309.5981 Q686.9294,309.7544 686.2263,309.7544 Q683.7263,309.7544 682.3981,308.1138 Q681.0856,306.4575 681.0856,303.3325 Q681.0856,300.2075 682.3981,298.5513 Q683.7263,296.895 686.2263,296.895 Q686.9294,296.895 687.57,297.0513 Q688.2263,297.2075 688.7888,297.5044 L688.7888,300.2231 Q688.1638,299.645 687.57,299.3794 Q686.9763,299.0981 686.3513,299.0981 Q685.0075,299.0981 684.32,300.1763 Q683.6325,301.2388 683.6325,303.3325 Q683.6325,305.4263 684.32,306.5044 Q685.0075,307.5669 686.3513,307.5669 Q686.9763,307.5669 687.57,307.3013 Q688.1638,307.02 688.7888,306.4419 L688.7888,309.1606 Z " fill="#000000"/><text fill="#000000" font-family="sans-serif" font-size="14" lengthAdjust="spacing" textLength="182.3623" x="699.82" y="308.3667">ShiftAssignmentResponse</text><line style="stroke:#181818;stroke-width:0.5;" x1="671.82" x2="884.1823" y1="319.52" y2="319.52"/><text fill="#000000" font-family="sans-serif" font-size="14" lengthAdjust="spacing" textLength="64.3604" x="676.82" y="336.5151">+UUID id</text><text fill="#000000" font-family="sans-serif" font-size="14" lengthAdjust="spacing" textLength="95.0742" x="676.82" y="352.812">+UUID shiftId</text><text fill="#000000" font-family="sans-serif" font-size="14" lengthAdjust="spacing" textLength="4.4502" x="676.82" y="369.1089">&#160;</text><text fill="#000000" font-family="sans-serif" font-size="14" lengthAdjust="spacing" textLength="148.8184" x="676.82" y="385.4057">+UUID collaboratorId</text><text fill="#000000" font-family="sans-serif" font-size="14" lengthAdjust="spacing" textLength="183.4834" x="676.82" y="401.7026">+String collaboratorName</text><text fill="#000000" font-family="sans-serif" font-size="14" lengthAdjust="spacing" textLength="4.4502" x="676.82" y="417.9995">&#160;</text><text fill="#000000" font-family="sans-serif" font-size="14" lengthAdjust="spacing" textLength="100.9805" x="676.82" y="434.2964">+String status</text><text fill="#000000" font-family="sans-serif" font-size="14" lengthAdjust="spacing" textLength="4.4502" x="676.82" y="450.5932">&#160;</text><text fill="#000000" font-family="sans-serif" font-size="14" lengthAdjust="spacing" textLength="153.0361" x="676.82" y="466.8901">+DateTime createdAt</text><text fill="#000000" font-family="sans-serif" font-size="14" lengthAdjust="spacing" textLength="173.5713" x="676.82" y="483.187">+DateTime? cancelledAt</text><line style="stroke:#181818;stroke-width:0.5;" x1="671.82" x2="884.1823" y1="490.4888" y2="490.4888"/></g><!--class CollaboratorShiftsResponse--><g class="entity" data-qualified-name="scheduling DTOs.CollaboratorShiftsResponse" data-source-line="80" id="ent0011"><rect fill="#F1F1F1" height="96.8906" rx="2.5" ry="2.5" style="stroke:#181818;stroke-width:0.5;" width="225.5254" x="1174.24" y="73.59"/><ellipse cx="1189.24" cy="89.59" fill="#ADD1B2" rx="11" ry="11" style="stroke:#181818;stroke-width:1;"/><path d="M1192.2088,95.2306 Q1191.6306,95.5275 1190.99,95.6681 Q1190.3494,95.8244 1189.6463,95.8244 Q1187.1463,95.8244 1185.8181,94.1838 Q1184.5056,92.5275 1184.5056,89.4025 Q1184.5056,86.2775 1185.8181,84.6213 Q1187.1463,82.965 1189.6463,82.965 Q1190.3494,82.965 1190.99,83.1213 Q1191.6463,83.2775 1192.2088,83.5744 L1192.2088,86.2931 Q1191.5838,85.715 1190.99,85.4494 Q1190.3963,85.1681 1189.7713,85.1681 Q1188.4275,85.1681 1187.74,86.2463 Q1187.0525,87.3088 1187.0525,89.4025 Q1187.0525,91.4963 1187.74,92.5744 Q1188.4275,93.6369 1189.7713,93.6369 Q1190.3963,93.6369 1190.99,93.3713 Q1191.5838,93.09 1192.2088,92.5119 L1192.2088,95.2306 Z " fill="#000000"/><text fill="#000000" font-family="sans-serif" font-size="14" lengthAdjust="spacing" textLength="193.5254" x="1203.24" y="94.4367">CollaboratorShiftsResponse</text><line style="stroke:#181818;stroke-width:0.5;" x1="1175.24" x2="1398.7654" y1="105.59" y2="105.59"/><text fill="#000000" font-family="sans-serif" font-size="14" lengthAdjust="spacing" textLength="148.8184" x="1180.24" y="122.5851">+UUID collaboratorId</text><text fill="#000000" font-family="sans-serif" font-size="14" lengthAdjust="spacing" textLength="183.4834" x="1180.24" y="138.882">+String collaboratorName</text><text fill="#000000" font-family="sans-serif" font-size="14" lengthAdjust="spacing" textLength="201.8174" x="1180.24" y="155.1789">+List&lt;ShiftResponse&gt; shifts</text><line style="stroke:#181818;stroke-width:0.5;" x1="1175.24" x2="1398.7654" y1="162.4806" y2="162.4806"/></g><!--class RequestShiftSwapRequest--><g class="entity" data-qualified-name="scheduling DTOs.RequestShiftSwapRequest" data-source-line="86" id="ent0012"><rect fill="#F1F1F1" height="96.8906" rx="2.5" ry="2.5" style="stroke:#181818;stroke-width:0.5;" width="216.8643" x="920.57" y="344.56"/><ellipse cx="935.57" cy="360.56" fill="#ADD1B2" rx="11" ry="11" style="stroke:#181818;stroke-width:1;"/><path d="M938.5388,366.2006 Q937.9606,366.4975 937.32,366.6381 Q936.6794,366.7944 935.9763,366.7944 Q933.4763,366.7944 932.1481,365.1538 Q930.8356,363.4975 930.8356,360.3725 Q930.8356,357.2475 932.1481,355.5913 Q933.4763,353.935 935.9763,353.935 Q936.6794,353.935 937.32,354.0913 Q937.9763,354.2475 938.5388,354.5444 L938.5388,357.2631 Q937.9138,356.685 937.32,356.4194 Q936.7263,356.1381 936.1013,356.1381 Q934.7575,356.1381 934.07,357.2163 Q933.3825,358.2788 933.3825,360.3725 Q933.3825,362.4663 934.07,363.5444 Q934.7575,364.6069 936.1013,364.6069 Q936.7263,364.6069 937.32,364.3413 Q937.9138,364.06 938.5388,363.4819 L938.5388,366.2006 Z " fill="#000000"/><text fill="#000000" font-family="sans-serif" font-size="14" lengthAdjust="spacing" textLength="184.8643" x="949.57" y="365.4067">RequestShiftSwapRequest</text><line style="stroke:#181818;stroke-width:0.5;" x1="921.57" x2="1136.4343" y1="376.56" y2="376.56"/><text fill="#000000" font-family="sans-serif" font-size="14" lengthAdjust="spacing" textLength="143.4658" x="926.57" y="393.5551">+UUID sourceShiftId</text><text fill="#000000" font-family="sans-serif" font-size="14" lengthAdjust="spacing" textLength="139.4805" x="926.57" y="409.852">+UUID targetShiftId</text><text fill="#000000" font-family="sans-serif" font-size="14" lengthAdjust="spacing" textLength="193.71" x="926.57" y="426.1489">+UUID targetCollaboratorId</text><line style="stroke:#181818;stroke-width:0.5;" x1="921.57" x2="1136.4343" y1="433.4506" y2="433.4506"/></g><!--class AcceptShiftSwapRequest--><g class="entity" data-qualified-name="scheduling DTOs.AcceptShiftSwapRequest" data-source-line="92" id="ent0013"><rect fill="#F1F1F1" height="64.2969" rx="2.5" ry="2.5" style="stroke:#181818;stroke-width:0.5;" width="207.3281" x="69.34" y="582.93"/><ellipse cx="84.34" cy="598.93" fill="#ADD1B2" rx="11" ry="11" style="stroke:#181818;stroke-width:1;"/><path d="M87.3088,604.5706 Q86.7306,604.8675 86.09,605.0081 Q85.4494,605.1644 84.7463,605.1644 Q82.2463,605.1644 80.9181,603.5238 Q79.6056,601.8675 79.6056,598.7425 Q79.6056,595.6175 80.9181,593.9613 Q82.2463,592.305 84.7463,592.305 Q85.4494,592.305 86.09,592.4613 Q86.7463,592.6175 87.3088,592.9144 L87.3088,595.6331 Q86.6838,595.055 86.09,594.7894 Q85.4963,594.5081 84.8713,594.5081 Q83.5275,594.5081 82.84,595.5863 Q82.1525,596.6488 82.1525,598.7425 Q82.1525,600.8363 82.84,601.9144 Q83.5275,602.9769 84.8713,602.9769 Q85.4963,602.9769 86.09,602.7113 Q86.6838,602.43 87.3088,601.8519 L87.3088,604.5706 Z " fill="#000000"/><text fill="#000000" font-family="sans-serif" font-size="14" lengthAdjust="spacing" textLength="175.3281" x="98.34" y="603.7767">AcceptShiftSwapRequest</text><line style="stroke:#181818;stroke-width:0.5;" x1="70.34" x2="275.6681" y1="614.93" y2="614.93"/><text fill="#000000" font-family="sans-serif" font-size="14" lengthAdjust="spacing" textLength="158.3066" x="75.34" y="631.9251">+UUID swapRequestId</text><line style="stroke:#181818;stroke-width:0.5;" x1="70.34" x2="275.6681" y1="639.2269" y2="639.2269"/></g><!--class RejectShiftSwapRequest--><g class="entity" data-qualified-name="scheduling DTOs.RejectShiftSwapRequest" data-source-line="96" id="ent0014"><rect fill="#F1F1F1" height="64.2969" rx="2.5" ry="2.5" style="stroke:#181818;stroke-width:0.5;" width="203.3975" x="311.3" y="582.93"/><ellipse cx="326.3" cy="598.93" fill="#ADD1B2" rx="11" ry="11" style="stroke:#181818;stroke-width:1;"/><path d="M329.2688,604.5706 Q328.6906,604.8675 328.05,605.0081 Q327.4094,605.1644 326.7063,605.1644 Q324.2063,605.1644 322.8781,603.5238 Q321.5656,601.8675 321.5656,598.7425 Q321.5656,595.6175 322.8781,593.9613 Q324.2063,592.305 326.7063,592.305 Q327.4094,592.305 328.05,592.4613 Q328.7063,592.6175 329.2688,592.9144 L329.2688,595.6331 Q328.6438,595.055 328.05,594.7894 Q327.4563,594.5081 326.8313,594.5081 Q325.4875,594.5081 324.8,595.5863 Q324.1125,596.6488 324.1125,598.7425 Q324.1125,600.8363 324.8,601.9144 Q325.4875,602.9769 326.8313,602.9769 Q327.4563,602.9769 328.05,602.7113 Q328.6438,602.43 329.2688,601.8519 L329.2688,604.5706 Z " fill="#000000"/><text fill="#000000" font-family="sans-serif" font-size="14" lengthAdjust="spacing" textLength="171.3975" x="340.3" y="603.7767">RejectShiftSwapRequest</text><line style="stroke:#181818;stroke-width:0.5;" x1="312.3" x2="513.6975" y1="614.93" y2="614.93"/><text fill="#000000" font-family="sans-serif" font-size="14" lengthAdjust="spacing" textLength="158.3066" x="317.3" y="631.9251">+UUID swapRequestId</text><line style="stroke:#181818;stroke-width:0.5;" x1="312.3" x2="513.6975" y1="639.2269" y2="639.2269"/></g><!--class CancelShiftSwapRequest--><g class="entity" data-qualified-name="scheduling DTOs.CancelShiftSwapRequest" data-source-line="100" id="ent0015"><rect fill="#F1F1F1" height="64.2969" rx="2.5" ry="2.5" style="stroke:#181818;stroke-width:0.5;" width="206.7949" x="549.6" y="582.93"/><ellipse cx="564.6" cy="598.93" fill="#ADD1B2" rx="11" ry="11" style="stroke:#181818;stroke-width:1;"/><path d="M567.5688,604.5706 Q566.9906,604.8675 566.35,605.0081 Q565.7094,605.1644 565.0063,605.1644 Q562.5063,605.1644 561.1781,603.5238 Q559.8656,601.8675 559.8656,598.7425 Q559.8656,595.6175 561.1781,593.9613 Q562.5063,592.305 565.0063,592.305 Q565.7094,592.305 566.35,592.4613 Q567.0063,592.6175 567.5688,592.9144 L567.5688,595.6331 Q566.9438,595.055 566.35,594.7894 Q565.7563,594.5081 565.1313,594.5081 Q563.7875,594.5081 563.1,595.5863 Q562.4125,596.6488 562.4125,598.7425 Q562.4125,600.8363 563.1,601.9144 Q563.7875,602.9769 565.1313,602.9769 Q565.7563,602.9769 566.35,602.7113 Q566.9438,602.43 567.5688,601.8519 L567.5688,604.5706 Z " fill="#000000"/><text fill="#000000" font-family="sans-serif" font-size="14" lengthAdjust="spacing" textLength="174.7949" x="578.6" y="603.7767">CancelShiftSwapRequest</text><line style="stroke:#181818;stroke-width:0.5;" x1="550.6" x2="755.3949" y1="614.93" y2="614.93"/><text fill="#000000" font-family="sans-serif" font-size="14" lengthAdjust="spacing" textLength="158.3066" x="555.6" y="631.9251">+UUID swapRequestId</text><line style="stroke:#181818;stroke-width:0.5;" x1="550.6" x2="755.3949" y1="639.2269" y2="639.2269"/></g><!--class ApproveShiftSwapRequest--><g class="entity" data-qualified-name="scheduling DTOs.ApproveShiftSwapRequest" data-source-line="104" id="ent0016"><rect fill="#F1F1F1" height="64.2969" rx="2.5" ry="2.5" style="stroke:#181818;stroke-width:0.5;" width="217.9375" x="791.03" y="582.93"/><ellipse cx="806.03" cy="598.93" fill="#ADD1B2" rx="11" ry="11" style="stroke:#181818;stroke-width:1;"/><path d="M808.9988,604.5706 Q808.4206,604.8675 807.78,605.0081 Q807.1394,605.1644 806.4363,605.1644 Q803.9363,605.1644 802.6081,603.5238 Q801.2956,601.8675 801.2956,598.7425 Q801.2956,595.6175 802.6081,593.9613 Q803.9363,592.305 806.4363,592.305 Q807.1394,592.305 807.78,592.4613 Q808.4363,592.6175 808.9988,592.9144 L808.9988,595.6331 Q808.3738,595.055 807.78,594.7894 Q807.1863,594.5081 806.5613,594.5081 Q805.2175,594.5081 804.53,595.5863 Q803.8425,596.6488 803.8425,598.7425 Q803.8425,600.8363 804.53,601.9144 Q805.2175,602.9769 806.5613,602.9769 Q807.1863,602.9769 807.78,602.7113 Q808.3738,602.43 808.9988,601.8519 L808.9988,604.5706 Z " fill="#000000"/><text fill="#000000" font-family="sans-serif" font-size="14" lengthAdjust="spacing" textLength="185.9375" x="820.03" y="603.7767">ApproveShiftSwapRequest</text><line style="stroke:#181818;stroke-width:0.5;" x1="792.03" x2="1007.9675" y1="614.93" y2="614.93"/><text fill="#000000" font-family="sans-serif" font-size="14" lengthAdjust="spacing" textLength="158.3066" x="797.03" y="631.9251">+UUID swapRequestId</text><line style="stroke:#181818;stroke-width:0.5;" x1="792.03" x2="1007.9675" y1="639.2269" y2="639.2269"/></g><!--class ShiftSwapRequestResponse--><g class="entity" data-qualified-name="scheduling DTOs.ShiftSwapRequestResponse" data-source-line="108" id="ent0017"><rect fill="#F1F1F1" height="308.75" rx="2.5" ry="2.5" style="stroke:#181818;stroke-width:0.5;" width="240.375" x="52.81" y="707.23"/><ellipse cx="73.7233" cy="723.23" fill="#ADD1B2" rx="11" ry="11" style="stroke:#181818;stroke-width:1;"/><path d="M76.692,728.8706 Q76.1139,729.1675 75.4733,729.3081 Q74.8327,729.4644 74.1295,729.4644 Q71.6295,729.4644 70.3014,727.8238 Q68.9889,726.1675 68.9889,723.0425 Q68.9889,719.9175 70.3014,718.2613 Q71.6295,716.605 74.1295,716.605 Q74.8327,716.605 75.4733,716.7613 Q76.1295,716.9175 76.692,717.2144 L76.692,719.9331 Q76.067,719.355 75.4733,719.0894 Q74.8795,718.8081 74.2545,718.8081 Q72.9108,718.8081 72.2233,719.8863 Q71.5358,720.9488 71.5358,723.0425 Q71.5358,725.1363 72.2233,726.2144 Q72.9108,727.2769 74.2545,727.2769 Q74.8795,727.2769 75.4733,727.0113 Q76.067,726.73 76.692,726.1519 L76.692,728.8706 Z " fill="#000000"/><text fill="#000000" font-family="sans-serif" font-size="14" lengthAdjust="spacing" textLength="195.2344" x="89.0373" y="728.0767">ShiftSwapRequestResponse</text><line style="stroke:#181818;stroke-width:0.5;" x1="53.81" x2="292.185" y1="739.23" y2="739.23"/><text fill="#000000" font-family="sans-serif" font-size="14" lengthAdjust="spacing" textLength="64.3604" x="58.81" y="756.2251">+UUID id</text><text fill="#000000" font-family="sans-serif" font-size="14" lengthAdjust="spacing" textLength="4.4502" x="58.81" y="772.522">&#160;</text><text fill="#000000" font-family="sans-serif" font-size="14" lengthAdjust="spacing" textLength="132.4941" x="58.81" y="788.8189">+UUID requesterId</text><text fill="#000000" font-family="sans-serif" font-size="14" lengthAdjust="spacing" textLength="167.1592" x="58.81" y="805.1157">+String requesterName</text><text fill="#000000" font-family="sans-serif" font-size="14" lengthAdjust="spacing" textLength="4.4502" x="58.81" y="821.4126">&#160;</text><text fill="#000000" font-family="sans-serif" font-size="14" lengthAdjust="spacing" textLength="193.71" x="58.81" y="837.7095">+UUID targetCollaboratorId</text><text fill="#000000" font-family="sans-serif" font-size="14" lengthAdjust="spacing" textLength="228.375" x="58.81" y="854.0064">+String targetCollaboratorName</text><text fill="#000000" font-family="sans-serif" font-size="14" lengthAdjust="spacing" textLength="4.4502" x="58.81" y="870.3032">&#160;</text><text fill="#000000" font-family="sans-serif" font-size="14" lengthAdjust="spacing" textLength="143.4658" x="58.81" y="886.6001">+UUID sourceShiftId</text><text fill="#000000" font-family="sans-serif" font-size="14" lengthAdjust="spacing" textLength="139.4805" x="58.81" y="902.897">+UUID targetShiftId</text><text fill="#000000" font-family="sans-serif" font-size="14" lengthAdjust="spacing" textLength="4.4502" x="58.81" y="919.1939">&#160;</text><text fill="#000000" font-family="sans-serif" font-size="14" lengthAdjust="spacing" textLength="100.9805" x="58.81" y="935.4907">+String status</text><text fill="#000000" font-family="sans-serif" font-size="14" lengthAdjust="spacing" textLength="4.4502" x="58.81" y="951.7876">&#160;</text><text fill="#000000" font-family="sans-serif" font-size="14" lengthAdjust="spacing" textLength="153.0361" x="58.81" y="968.0845">+DateTime createdAt</text><text fill="#000000" font-family="sans-serif" font-size="14" lengthAdjust="spacing" textLength="181.207" x="58.81" y="984.3814">+DateTime? respondedAt</text><text fill="#000000" font-family="sans-serif" font-size="14" lengthAdjust="spacing" textLength="173.291" x="58.81" y="1000.6782">+DateTime? approvedAt</text><line style="stroke:#181818;stroke-width:0.5;" x1="53.81" x2="292.185" y1="1007.98" y2="1007.98"/></g><!--link CalendarResponse to ShiftResponse--><g class="link" data-entity-1="ent0006" data-entity-2="ent0004" data-link-type="dependency" data-source-line="127" id="lnk18"><path codeLine="127" d="M1103.38,203.37 C1129.79,233.09 1156.6485,263.3127 1184.0485,294.1427" fill="none" id="CalendarResponse-to-ShiftResponse" style="stroke:#181818;stroke-width:1;"/><polygon fill="#181818" points="1187.37,297.88,1184.3811,288.4956,1184.0485,294.1427,1178.4014,293.81,1187.37,297.88" style="stroke:#181818;stroke-width:1;stroke-linejoin:miter;stroke-miterlimit:10;"/></g><!--link CollaboratorShiftsResponse to ShiftResponse--><g class="link" data-entity-1="ent0011" data-entity-2="ent0004" data-link-type="dependency" data-source-line="128" id="lnk19"><path codeLine="128" d="M1284.16,170.81 C1282.62,196.62 1280.9365,224.8788 1278.9865,257.7088" fill="none" id="CollaboratorShiftsResponse-to-ShiftResponse" style="stroke:#181818;stroke-width:1;"/><polygon fill="#181818" points="1278.69,262.7,1283.2166,253.953,1278.9865,257.7088,1275.2307,253.4787,1278.69,262.7" style="stroke:#181818;stroke-width:1;stroke-linejoin:miter;stroke-miterlimit:10;"/></g><?plantuml-src nLNTIiCm5BxlKmHlPU03oAHq20LHMBS7oD9Z5zScCITreEpTpThEfdzREmLtj--SyttdDyKT5ufgcX6MKaJV6CqtkO6GIH7nJo1tdgSesz44o0soBSHvoaL25giNl25VdaVAG19ee0QYBNyrItZF0Osr4lkxNQ_31TbeAjWsZ1r8IUI6It425pP-nJCWQAWsDfKM328kmKEjkbRnFwXMUgYaG6W8yjWRb8ziQstdIl2PPk2TIQjoFi6EUsMnwPeSlOb5k20h9XQtYmjeQjsfljpF8rEFOc_BQjQUhethqmMv4ddYQEuRyvaJFFx5PZu-8az48DEKRgIcHkgL75oZWg2nHSm9B0mEzH8o-G4kzQEMsP-HgvIo1diefd3dMeCmGLlYP1Um3yx85qfbxp9BCtG3tGpEbLVFt3MDNNbtZHtyWJ2xFv2cFHlkg1G5OMyTK_ASj7lLf0hFQ4zLx-Hahbdvi3NcOzS_0JE4dnkTpnYe2w8rtjsxDs1NHmV5AAwDzfNIzgAk3M_7ZNYuTUa9xRd_uEtdUw3zTMJNeKqnRkA_EGXT51xtcMZPOkTKEW_sR3PlVlYEJiENr7K_V0C0?></g></svg>