<svg xmlns="http://www.w3.org/2000/svg" xmlns:xlink="http://www.w3.org/1999/xlink" contentStyleType="text/css" data-diagram-type="DESCRIPTION" height="266px" preserveAspectRatio="none" style="width:614px;height:266px;background:#FFFFFF;" version="1.1" viewBox="0 0 614 266" width="614px" zoomAndPan="magnify"><?plantuml 1.2026.5?><defs/><g><!--entity Organization--><g class="entity" data-qualified-name="Organization" data-source-line="3" id="ent0001"><rect fill="#F1F1F1" height="46.2969" rx="2.5" ry="2.5" style="stroke:#181818;stroke-width:0.5;" width="129.749" x="470.84" y="119"/><rect fill="#F1F1F1" height="10" style="stroke:#181818;stroke-width:0.5;" width="15" x="580.589" y="124"/><rect fill="#F1F1F1" height="2" style="stroke:#181818;stroke-width:0.5;" width="4" x="578.589" y="126"/><rect fill="#F1F1F1" height="2" style="stroke:#181818;stroke-width:0.5;" width="4" x="578.589" y="130"/><text fill="#000000" font-family="sans-serif" font-size="14" lengthAdjust="spacing" textLength="89.749" x="485.84" y="151.9951">Organization</text></g><!--entity Identity--><g class="entity" data-qualified-name="Identity" data-source-line="5" id="ent0002"><rect fill="#F1F1F1" height="46.2969" rx="2.5" ry="2.5" style="stroke:#181818;stroke-width:0.5;" width="93.6553" x="317.18" y="157"/><rect fill="#F1F1F1" height="10" style="stroke:#181818;stroke-width:0.5;" width="15" x="390.8353" y="162"/><rect fill="#F1F1F1" height="2" style="stroke:#181818;stroke-width:0.5;" width="4" x="388.8353" y="164"/><rect fill="#F1F1F1" height="2" style="stroke:#181818;stroke-width:0.5;" width="4" x="388.8353" y="168"/><text fill="#000000" font-family="sans-serif" font-size="14" lengthAdjust="spacing" textLength="53.6553" x="332.18" y="189.9951">Identity</text></g><!--entity Staff--><g class="entity" data-qualified-name="Staff" data-source-line="8" id="ent0004"><rect fill="#F1F1F1" height="46.2969" rx="2.5" ry="2.5" style="stroke:#181818;stroke-width:0.5;" width="72.8125" x="184.37" y="86"/><rect fill="#F1F1F1" height="10" style="stroke:#181818;stroke-width:0.5;" width="15" x="237.1825" y="91"/><rect fill="#F1F1F1" height="2" style="stroke:#181818;stroke-width:0.5;" width="4" x="235.1825" y="93"/><rect fill="#F1F1F1" height="2" style="stroke:#181818;stroke-width:0.5;" width="4" x="235.1825" y="97"/><text fill="#000000" font-family="sans-serif" font-size="14" lengthAdjust="spacing" textLength="32.8125" x="199.37" y="118.9951">Staff</text></g><!--entity Scheduling--><g class="entity" data-qualified-name="Scheduling" data-source-line="12" id="ent0007"><rect fill="#F1F1F1" height="46.2969" rx="2.5" ry="2.5" style="stroke:#181818;stroke-width:0.5;" width="117.3691" x="7" y="7"/><rect fill="#F1F1F1" height="10" style="stroke:#181818;stroke-width:0.5;" width="15" x="104.3691" y="12"/><rect fill="#F1F1F1" height="2" style="stroke:#181818;stroke-width:0.5;" width="4" x="102.3691" y="14"/><rect fill="#F1F1F1" height="2" style="stroke:#181818;stroke-width:0.5;" width="4" x="102.3691" y="18"/><text fill="#000000" font-family="sans-serif" font-size="14" lengthAdjust="spacing" textLength="77.3691" x="22" y="39.9951">Scheduling</text></g><!--entity Claims--><g class="entity" data-qualified-name="Claims" data-source-line="16" id="ent0010"><rect fill="#F1F1F1" height="46.2969" rx="2.5" ry="2.5" style="stroke:#181818;stroke-width:0.5;" width="87.0654" x="22.15" y="169"/><rect fill="#F1F1F1" height="10" style="stroke:#181818;stroke-width:0.5;" width="15" x="89.2154" y="174"/><rect fill="#F1F1F1" height="2" style="stroke:#181818;stroke-width:0.5;" width="4" x="87.2154" y="176"/><rect fill="#F1F1F1" height="2" style="stroke:#181818;stroke-width:0.5;" width="4" x="87.2154" y="180"/><text fill="#000000" font-family="sans-serif" font-size="14" lengthAdjust="spacing" textLength="47.0654" x="37.15" y="201.9951">Claims</text></g><!--entity Contracts--><g class="entity" data-qualified-name="Contracts" data-source-line="21" id="ent0014"><rect fill="#F1F1F1" height="46.2969" rx="2.5" ry="2.5" style="stroke:#181818;stroke-width:0.5;" width="107.5186" x="11.93" y="88"/><rect fill="#F1F1F1" height="10" style="stroke:#181818;stroke-width:0.5;" width="15" x="99.4486" y="93"/><rect fill="#F1F1F1" height="2" style="stroke:#181818;stroke-width:0.5;" width="4" x="97.4486" y="95"/><rect fill="#F1F1F1" height="2" style="stroke:#181818;stroke-width:0.5;" width="4" x="97.4486" y="99"/><text fill="#000000" font-family="sans-serif" font-size="14" lengthAdjust="spacing" textLength="67.5186" x="26.93" y="120.9951">Contracts</text></g><!--link Identity to Organization--><g class="link" data-entity-1="ent0002" data-entity-2="ent0001" data-link-type="dependency" data-source-line="6" id="lnk3"><path d="M410.93,169.86 C429.29,165.75 445.8712,162.0443 465.7112,157.5943" fill="none" id="Identity-to-Organization" style="stroke:#181818;stroke-width:1;"/><polygon fill="#181818" points="470.59,156.5,460.9328,154.5667,465.7112,157.5943,462.6836,162.3727,470.59,156.5" style="stroke:#181818;stroke-width:1;stroke-linejoin:miter;stroke-miterlimit:10;"/></g><!--link Staff to Identity--><g class="link" data-entity-1="ent0004" data-entity-2="ent0002" data-link-type="dependency" data-source-line="9" id="lnk5"><path d="M257.41,127.06 C275.39,136.1 292.953,144.9237 312.223,154.6137" fill="none" id="Staff-to-Identity" style="stroke:#181818;stroke-width:1;"/><polygon fill="#181818" points="316.69,156.86,310.4464,149.2431,312.223,154.6137,306.8523,156.3903,316.69,156.86" style="stroke:#181818;stroke-width:1;stroke-linejoin:miter;stroke-miterlimit:10;"/></g><!--link Staff to Organization--><g class="link" data-entity-1="ent0004" data-entity-2="ent0001" data-link-type="dependency" data-source-line="10" id="lnk6"><path d="M257.67,112.93 C309.53,118.4 401.2375,128.0759 465.5575,134.8559" fill="none" id="Staff-to-Organization" style="stroke:#181818;stroke-width:1;"/><polygon fill="#181818" points="470.53,135.38,461.9989,130.4586,465.5575,134.8559,461.1603,138.4145,470.53,135.38" style="stroke:#181818;stroke-width:1;stroke-linejoin:miter;stroke-miterlimit:10;"/></g><!--link Scheduling to Staff--><g class="link" data-entity-1="ent0007" data-entity-2="ent0004" data-link-type="dependency" data-source-line="13" id="lnk8"><path d="M112.2,53.63 C135.12,65.46 158.0565,77.2976 179.4565,88.3376" fill="none" id="Scheduling-to-Staff" style="stroke:#181818;stroke-width:1;"/><polygon fill="#181818" points="183.9,90.63,177.7355,82.9489,179.4565,88.3376,174.0677,90.0586,183.9,90.63" style="stroke:#181818;stroke-width:1;stroke-linejoin:miter;stroke-miterlimit:10;"/></g><!--link Scheduling to Organization--><g class="link" data-entity-1="ent0007" data-entity-2="ent0001" data-link-type="dependency" data-source-line="14" id="lnk9"><path d="M124.8,39.29 C193.68,50.7 311.64,72.05 410.84,99.15 C431.04,104.66 448.0021,110.1143 467.4921,116.9543" fill="none" id="Scheduling-to-Organization" style="stroke:#181818;stroke-width:1;"/><polygon fill="#181818" points="472.21,118.61,465.0424,111.8554,467.4921,116.9543,462.3932,119.404,472.21,118.61" style="stroke:#181818;stroke-width:1;stroke-linejoin:miter;stroke-miterlimit:10;"/></g><!--link Claims to Staff--><g class="link" data-entity-1="ent0010" data-entity-2="ent0004" data-link-type="dependency" data-source-line="17" id="lnk11"><path d="M109.33,169.03 C132.86,156.27 157.3539,142.9821 179.6839,130.8821" fill="none" id="Claims-to-Staff" style="stroke:#181818;stroke-width:1;"/><polygon fill="#181818" points="184.08,128.5,174.2614,129.2709,179.6839,130.8821,178.0727,136.3047,184.08,128.5" style="stroke:#181818;stroke-width:1;stroke-linejoin:miter;stroke-miterlimit:10;"/></g><!--link Claims to Identity--><g class="link" data-entity-1="ent0010" data-entity-2="ent0002" data-link-type="dependency" data-source-line="18" id="lnk12"><path d="M109.46,190.41 C164.59,188.18 255.1041,184.5116 311.8441,182.2216" fill="none" id="Claims-to-Identity" style="stroke:#181818;stroke-width:1;"/><polygon fill="#181818" points="316.84,182.02,307.686,178.3862,311.8441,182.2216,308.0086,186.3797,316.84,182.02" style="stroke:#181818;stroke-width:1;stroke-linejoin:miter;stroke-miterlimit:10;"/></g><!--link Claims to Organization--><g class="link" data-entity-1="ent0010" data-entity-2="ent0001" data-link-type="dependency" data-source-line="19" id="lnk13"><path d="M109.52,205.52 C175.61,224.01 305.79,251.79 410.84,221.15 C447.81,210.36 480.3814,187.9531 504.0614,168.8131" fill="none" id="Claims-to-Organization" style="stroke:#181818;stroke-width:1;"/><polygon fill="#181818" points="507.95,165.67,498.4361,168.2166,504.0614,168.8131,503.465,174.4384,507.95,165.67" style="stroke:#181818;stroke-width:1;stroke-linejoin:miter;stroke-miterlimit:10;"/></g><!--link Contracts to Staff--><g class="link" data-entity-1="ent0014" data-entity-2="ent0004" data-link-type="dependency" data-source-line="22" id="lnk15"><path d="M119.8,110.45 C141.04,110.17 159.9504,109.9254 179.0604,109.6754" fill="none" id="Contracts-to-Staff" style="stroke:#181818;stroke-width:1;"/><polygon fill="#181818" points="184.06,109.61,175.0084,105.7281,179.0604,109.6754,175.1131,113.7274,184.06,109.61" style="stroke:#181818;stroke-width:1;stroke-linejoin:miter;stroke-miterlimit:10;"/></g><?plantuml-src NOux3W8n34JxdC8Ns2jiGqL5GObIMFcjfQmZ1LF0wSa6PR5IUJoUDt8EKK0AL4gRWASQd51XOnwtcf3fWyTgstxrWONaRSrGi2mhw5XBtGLZjAQFVXzXPSs8su9_PUBKk5FtP6TcSy8l6Mb_MlER2bF6-OJovfh2Kj79qJJal-mB?></g></svg>