<svg xmlns="http://www.w3.org/2000/svg" xmlns:xlink="http://www.w3.org/1999/xlink" contentStyleType="text/css" data-diagram-type="CLASS" height="373px" preserveAspectRatio="none" style="width:412px;height:373px;background:#FFFFFF;" version="1.1" viewBox="0 0 412 373" width="412px" zoomAndPan="magnify"><?plantuml 1.2026.5?><defs/><g><!--class User--><g class="entity" data-qualified-name="User" data-source-line="1" id="ent0001"><rect fill="#F1F1F1" height="145.7813" rx="2.5" ry="2.5" style="stroke:#181818;stroke-width:0.5;" width="167.3057" x="116.46" y="7"/><ellipse cx="179.9078" cy="23" fill="#ADD1B2" rx="11" ry="11" style="stroke:#181818;stroke-width:1;"/><path d="M182.8765,28.6406 Q182.2984,28.9375 181.6578,29.0781 Q181.0171,29.2344 180.314,29.2344 Q177.814,29.2344 176.4859,27.5938 Q175.1734,25.9375 175.1734,22.8125 Q175.1734,19.6875 176.4859,18.0313 Q177.814,16.375 180.314,16.375 Q181.0171,16.375 181.6578,16.5313 Q182.314,16.6875 182.8765,16.9844 L182.8765,19.7031 Q182.2515,19.125 181.6578,18.8594 Q181.064,18.5781 180.439,18.5781 Q179.0953,18.5781 178.4078,19.6563 Q177.7203,20.7188 177.7203,22.8125 Q177.7203,24.9063 178.4078,25.9844 Q179.0953,27.0469 180.439,27.0469 Q181.064,27.0469 181.6578,26.7813 Q182.2515,26.5 182.8765,25.9219 L182.8765,28.6406 Z " fill="#000000"/><text fill="#000000" font-family="sans-serif" font-size="14" lengthAdjust="spacing" textLength="31.9102" x="200.4078" y="27.8467">User</text><line style="stroke:#181818;stroke-width:0.5;" x1="117.46" x2="282.7657" y1="39" y2="39"/><g data-visibility-modifier="PUBLIC_FIELD"><ellipse cx="127.46" cy="52.6484" fill="none" rx="3" ry="3" style="stroke:#038048;stroke-width:1;"/></g><text fill="#000000" font-family="sans-serif" font-size="14" lengthAdjust="spacing" textLength="52.6299" x="136.46" y="55.9951">UUID id</text><g data-visibility-modifier="PUBLIC_FIELD"><ellipse cx="127.46" cy="68.9453" fill="none" rx="3" ry="3" style="stroke:#038048;stroke-width:1;"/></g><text fill="#000000" font-family="sans-serif" font-size="14" lengthAdjust="spacing" textLength="117.3936" x="136.46" y="72.292">UUID companyId</text><g data-visibility-modifier="PUBLIC_FIELD"><ellipse cx="127.46" cy="85.2422" fill="none" rx="3" ry="3" style="stroke:#038048;stroke-width:1;"/></g><text fill="#000000" font-family="sans-serif" font-size="14" lengthAdjust="spacing" textLength="85.9346" x="136.46" y="88.5889">String name</text><g data-visibility-modifier="PUBLIC_FIELD"><ellipse cx="127.46" cy="101.5391" fill="none" rx="3" ry="3" style="stroke:#038048;stroke-width:1;"/></g><text fill="#000000" font-family="sans-serif" font-size="14" lengthAdjust="spacing" textLength="84.8408" x="136.46" y="104.8857">String email</text><g data-visibility-modifier="PUBLIC_FIELD"><ellipse cx="127.46" cy="117.8359" fill="none" rx="3" ry="3" style="stroke:#038048;stroke-width:1;"/></g><text fill="#000000" font-family="sans-serif" font-size="14" lengthAdjust="spacing" textLength="123.9902" x="136.46" y="121.1826">UserStatus status</text><g data-visibility-modifier="PUBLIC_FIELD"><ellipse cx="127.46" cy="134.1328" fill="none" rx="3" ry="3" style="stroke:#038048;stroke-width:1;"/></g><text fill="#000000" font-family="sans-serif" font-size="14" lengthAdjust="spacing" textLength="141.3057" x="136.46" y="137.4795">DateTime createdAt</text><line style="stroke:#181818;stroke-width:0.5;" x1="117.46" x2="282.7657" y1="144.7813" y2="144.7813"/></g><!--class UserCredential--><g class="entity" data-qualified-name="UserCredential" data-source-line="10" id="ent0002"><rect fill="#F1F1F1" height="96.8906" rx="2.5" ry="2.5" style="stroke:#181818;stroke-width:0.5;" width="174.2168" x="7" y="237.22"/><ellipse cx="39.0736" cy="253.22" fill="#ADD1B2" rx="11" ry="11" style="stroke:#181818;stroke-width:1;"/><path d="M42.0424,258.8606 Q41.4643,259.1575 40.8236,259.2981 Q40.183,259.4544 39.4799,259.4544 Q36.9799,259.4544 35.6518,257.8138 Q34.3393,256.1575 34.3393,253.0325 Q34.3393,249.9075 35.6518,248.2513 Q36.9799,246.595 39.4799,246.595 Q40.183,246.595 40.8236,246.7513 Q41.4799,246.9075 42.0424,247.2044 L42.0424,249.9231 Q41.4174,249.345 40.8236,249.0794 Q40.2299,248.7981 39.6049,248.7981 Q38.2611,248.7981 37.5736,249.8763 Q36.8861,250.9388 36.8861,253.0325 Q36.8861,255.1263 37.5736,256.2044 Q38.2611,257.2669 39.6049,257.2669 Q40.2299,257.2669 40.8236,257.0013 Q41.4174,256.72 42.0424,256.1419 L42.0424,258.8606 Z " fill="#000000"/><text fill="#000000" font-family="sans-serif" font-size="14" lengthAdjust="spacing" textLength="104.2754" x="56.8678" y="258.0667">UserCredential</text><line style="stroke:#181818;stroke-width:0.5;" x1="8" x2="180.2168" y1="269.22" y2="269.22"/><g data-visibility-modifier="PUBLIC_FIELD"><ellipse cx="18" cy="282.8684" fill="none" rx="3" ry="3" style="stroke:#038048;stroke-width:1;"/></g><text fill="#000000" font-family="sans-serif" font-size="14" lengthAdjust="spacing" textLength="83.4053" x="27" y="286.2151">UUID userId</text><g data-visibility-modifier="PUBLIC_FIELD"><ellipse cx="18" cy="299.1653" fill="none" rx="3" ry="3" style="stroke:#038048;stroke-width:1;"/></g><text fill="#000000" font-family="sans-serif" font-size="14" lengthAdjust="spacing" textLength="148.2168" x="27" y="302.512">String passwordHash</text><g data-visibility-modifier="PUBLIC_FIELD"><ellipse cx="18" cy="315.4622" fill="none" rx="3" ry="3" style="stroke:#038048;stroke-width:1;"/></g><text fill="#000000" font-family="sans-serif" font-size="14" lengthAdjust="spacing" textLength="141.3057" x="27" y="318.8089">DateTime createdAt</text><line style="stroke:#181818;stroke-width:0.5;" x1="8" x2="180.2168" y1="326.1106" y2="326.1106"/></g><!--class UserRole--><g class="entity" data-qualified-name="UserRole" data-source-line="16" id="ent0003"><rect fill="#F1F1F1" height="145.7813" rx="2.5" ry="2.5" style="stroke:#181818;stroke-width:0.5;" width="180.7861" x="216.72" y="212.78"/><ellipse cx="271.51" cy="228.78" fill="#ADD1B2" rx="11" ry="11" style="stroke:#181818;stroke-width:1;"/><path d="M274.4788,234.4206 Q273.9007,234.7175 273.26,234.8581 Q272.6194,235.0144 271.9163,235.0144 Q269.4163,235.0144 268.0882,233.3738 Q266.7757,231.7175 266.7757,228.5925 Q266.7757,225.4675 268.0882,223.8113 Q269.4163,222.155 271.9163,222.155 Q272.6194,222.155 273.26,222.3113 Q273.9163,222.4675 274.4788,222.7644 L274.4788,225.4831 Q273.8538,224.905 273.26,224.6394 Q272.6663,224.3581 272.0413,224.3581 Q270.6975,224.3581 270.01,225.4363 Q269.3225,226.4988 269.3225,228.5925 Q269.3225,230.6863 270.01,231.7644 Q270.6975,232.8269 272.0413,232.8269 Q272.6663,232.8269 273.26,232.5613 Q273.8538,232.28 274.4788,231.7019 L274.4788,234.4206 Z " fill="#000000"/><text fill="#000000" font-family="sans-serif" font-size="14" lengthAdjust="spacing" textLength="62.7061" x="292.01" y="233.6267">UserRole</text><line style="stroke:#181818;stroke-width:0.5;" x1="217.72" x2="396.5061" y1="244.78" y2="244.78"/><g data-visibility-modifier="PUBLIC_FIELD"><ellipse cx="227.72" cy="258.4284" fill="none" rx="3" ry="3" style="stroke:#038048;stroke-width:1;"/></g><text fill="#000000" font-family="sans-serif" font-size="14" lengthAdjust="spacing" textLength="52.6299" x="236.72" y="261.7751">UUID id</text><g data-visibility-modifier="PUBLIC_FIELD"><ellipse cx="227.72" cy="274.7253" fill="none" rx="3" ry="3" style="stroke:#038048;stroke-width:1;"/></g><text fill="#000000" font-family="sans-serif" font-size="14" lengthAdjust="spacing" textLength="83.4053" x="236.72" y="278.072">UUID userId</text><g data-visibility-modifier="PUBLIC_FIELD"><ellipse cx="227.72" cy="291.0222" fill="none" rx="3" ry="3" style="stroke:#038048;stroke-width:1;"/></g><text fill="#000000" font-family="sans-serif" font-size="14" lengthAdjust="spacing" textLength="62.0703" x="236.72" y="294.3689">Role role</text><g data-visibility-modifier="PUBLIC_FIELD"><ellipse cx="227.72" cy="307.3191" fill="none" rx="3" ry="3" style="stroke:#038048;stroke-width:1;"/></g><text fill="#000000" font-family="sans-serif" font-size="14" lengthAdjust="spacing" textLength="108.9648" x="236.72" y="310.6657">UUID? branchId</text><g data-visibility-modifier="PUBLIC_FIELD"><ellipse cx="227.72" cy="323.6159" fill="none" rx="3" ry="3" style="stroke:#038048;stroke-width:1;"/></g><text fill="#000000" font-family="sans-serif" font-size="14" lengthAdjust="spacing" textLength="154.7861" x="236.72" y="326.9626">UserRoleStatus status</text><g data-visibility-modifier="PUBLIC_FIELD"><ellipse cx="227.72" cy="339.9128" fill="none" rx="3" ry="3" style="stroke:#038048;stroke-width:1;"/></g><text fill="#000000" font-family="sans-serif" font-size="14" lengthAdjust="spacing" textLength="141.3057" x="236.72" y="343.2595">DateTime createdAt</text><line style="stroke:#181818;stroke-width:0.5;" x1="217.72" x2="396.5061" y1="350.5613" y2="350.5613"/></g><!--link User to UserCredential--><g class="link" data-entity-1="ent0001" data-entity-2="ent0002" data-link-type="dependency" data-source-line="25" id="lnk4"><path codeLine="25" d="M162.59,153.02 C148.12,180.84 134.2675,207.4743 121.2775,232.4443" fill="none" id="User-to-UserCredential" style="stroke:#181818;stroke-width:1;"/><polygon fill="#181818" points="118.97,236.88,126.6721,230.7418,121.2775,232.4443,119.575,227.0497,118.97,236.88" style="stroke:#181818;stroke-width:1;stroke-linejoin:miter;stroke-miterlimit:10;"/><text fill="#000000" font-family="sans-serif" font-size="13" lengthAdjust="spacing" textLength="8.271" x="150.6453" y="172.7782">1</text><text fill="#000000" font-family="sans-serif" font-size="13" lengthAdjust="spacing" textLength="8.271" x="113.9227" y="226.0411">1</text></g><!--link User to UserRole--><g class="link" data-entity-1="ent0001" data-entity-2="ent0003" data-link-type="dependency" data-source-line="26" id="lnk5"><path codeLine="26" d="M237.98,153.02 C248.08,172.26 256.677,188.6124 266.777,207.8624" fill="none" id="User-to-UserRole" style="stroke:#181818;stroke-width:1;"/><polygon fill="#181818" points="269.1,212.29,268.4606,202.4619,266.777,207.8624,261.3765,206.1788,269.1,212.29" style="stroke:#181818;stroke-width:1;stroke-linejoin:miter;stroke-miterlimit:10;"/><text fill="#000000" font-family="sans-serif" font-size="13" lengthAdjust="spacing" textLength="8.271" x="233.2209" y="172.7782">1</text><text fill="#000000" font-family="sans-serif" font-size="13" lengthAdjust="spacing" textLength="6.5" x="259.2148" y="201.6543">*</text></g><?plantuml-src ZL0x3i8m3Drp2giZg0CN024wq9NI0vZ4ef6Ij79I8OIuEo6efKKCNVnxzhEVfK7leVR4y100wxek2z1g36LhEtJtCbMgmDfTmQ6bIKeMjKa3aQKA67eFFhbtiS10Psq995CCrJw8fn1oN7jWKkI2HZCve8_0R6KNssyjgoFwPWdhgJNqNz2NElLmD0EsWmkZayq77cWMAaelp3OPvFas-Rcu7toLZMU-0000?></g></svg>