<svg xmlns="http://www.w3.org/2000/svg" xmlns:xlink="http://www.w3.org/1999/xlink" contentStyleType="text/css" data-diagram-type="DESCRIPTION" height="554px" preserveAspectRatio="none" style="width:1267px;height:554px;background:#FFFFFF;" version="1.1" viewBox="0 0 1267 554" width="1267px" zoomAndPan="magnify"><?plantuml 1.2026.4beta2?><defs/><g><!--cluster Frontend--><g class="cluster" data-qualified-name="Frontend" data-source-line="3" id="ent0002"><path d="M530.5,6 L603.7285,6 A3.75,3.75 0 0 1 606.2285,8.5 L613.2285,28.2969 L641.5,28.2969 A2.5,2.5 0 0 1 644,30.7969 L644,90.79 A2.5,2.5 0 0 1 641.5,93.29 L530.5,93.29 A2.5,2.5 0 0 1 528,90.79 L528,8.5 A2.5,2.5 0 0 1 530.5,6" fill="none" style="stroke:#000000;stroke-width:1.5;"/><line style="stroke:#000000;stroke-width:1.5;" x1="528" x2="613.2285" y1="28.2969" y2="28.2969"/><text fill="#000000" font-family="sans-serif" font-size="14" font-weight="700" lengthAdjust="spacing" textLength="72.2285" x="532" y="20.9951">Frontend</text></g><!--cluster Backend API--><g class="cluster" data-qualified-name="Backend API" data-source-line="7" id="ent0004"><path d="M8.5,117.29 L107.8896,117.29 A3.75,3.75 0 0 1 110.3896,119.79 L117.3896,139.5869 L1249.5,139.5869 A2.5,2.5 0 0 1 1252,142.0869 L1252,461.68 A2.5,2.5 0 0 1 1249.5,464.18 L8.5,464.18 A2.5,2.5 0 0 1 6,461.68 L6,119.79 A2.5,2.5 0 0 1 8.5,117.29" fill="none" style="stroke:#000000;stroke-width:1.5;"/><line style="stroke:#000000;stroke-width:1.5;" x1="6" x2="117.3896" y1="139.5869" y2="139.5869"/><text fill="#000000" font-family="sans-serif" font-size="14" font-weight="700" lengthAdjust="spacing" textLength="98.3896" x="10" y="132.2851">Backend API</text></g><!--cluster organization--><g class="cluster" data-qualified-name="Backend API.organization" data-source-line="9" id="ent0005"><path d="M32.5,160.29 L132.9287,160.29 A3.75,3.75 0 0 1 135.4287,162.79 L142.4287,182.5869 L249.5,182.5869 A2.5,2.5 0 0 1 252,185.0869 L252,437.68 A2.5,2.5 0 0 1 249.5,440.18 L32.5,440.18 A2.5,2.5 0 0 1 30,437.68 L30,162.79 A2.5,2.5 0 0 1 32.5,160.29" fill="none" style="stroke:#000000;stroke-width:1.5;"/><line style="stroke:#000000;stroke-width:1.5;" x1="30" x2="142.4287" y1="182.5869" y2="182.5869"/><text fill="#000000" font-family="sans-serif" font-size="14" font-weight="700" lengthAdjust="spacing" textLength="99.4287" x="34" y="175.2851">organization</text></g><!--cluster identity--><g class="cluster" data-qualified-name="Backend API.identity" data-source-line="15" id="ent0009"><path d="M278.5,160.29 L341.0918,160.29 A3.75,3.75 0 0 1 343.5918,162.79 L350.5918,182.5869 L574.5,182.5869 A2.5,2.5 0 0 1 577,185.0869 L577,437.68 A2.5,2.5 0 0 1 574.5,440.18 L278.5,440.18 A2.5,2.5 0 0 1 276,437.68 L276,162.79 A2.5,2.5 0 0 1 278.5,160.29" fill="none" style="stroke:#000000;stroke-width:1.5;"/><line style="stroke:#000000;stroke-width:1.5;" x1="276" x2="350.5918" y1="182.5869" y2="182.5869"/><text fill="#000000" font-family="sans-serif" font-size="14" font-weight="700" lengthAdjust="spacing" textLength="61.5918" x="280" y="175.2851">identity</text></g><!--cluster staff--><g class="cluster" data-qualified-name="Backend API.staff" data-source-line="22" id="ent0014"><path d="M603.5,160.29 L641.1543,160.29 A3.75,3.75 0 0 1 643.6543,162.79 L650.6543,182.5869 L762.5,182.5869 A2.5,2.5 0 0 1 765,185.0869 L765,437.68 A2.5,2.5 0 0 1 762.5,440.18 L603.5,440.18 A2.5,2.5 0 0 1 601,437.68 L601,162.79 A2.5,2.5 0 0 1 603.5,160.29" fill="none" style="stroke:#000000;stroke-width:1.5;"/><line style="stroke:#000000;stroke-width:1.5;" x1="601" x2="650.6543" y1="182.5869" y2="182.5869"/><text fill="#000000" font-family="sans-serif" font-size="14" font-weight="700" lengthAdjust="spacing" textLength="36.6543" x="605" y="175.2851">staff</text></g><!--cluster scheduling--><g class="cluster" data-qualified-name="Backend API.scheduling" data-source-line="28" id="ent0018"><path d="M791.5,160.29 L878.168,160.29 A3.75,3.75 0 0 1 880.668,162.79 L887.668,182.5869 L1225.5,182.5869 A2.5,2.5 0 0 1 1228,185.0869 L1228,437.68 A2.5,2.5 0 0 1 1225.5,440.18 L791.5,440.18 A2.5,2.5 0 0 1 789,437.68 L789,162.79 A2.5,2.5 0 0 1 791.5,160.29" fill="none" style="stroke:#000000;stroke-width:1.5;"/><line style="stroke:#000000;stroke-width:1.5;" x1="789" x2="887.668" y1="182.5869" y2="182.5869"/><text fill="#000000" font-family="sans-serif" font-size="14" font-weight="700" lengthAdjust="spacing" textLength="85.668" x="793" y="175.2851">scheduling</text></g><!--entity Web App--><g class="entity" data-qualified-name="Frontend.Web App" data-source-line="4" id="ent0003"><rect fill="#F1F1F1" height="36.2969" rx="2.5" ry="2.5" style="stroke:#181818;stroke-width:0.5;" width="83.1436" x="544.43" y="41"/><text fill="#000000" font-family="sans-serif" font-size="14" lengthAdjust="spacing" textLength="63.1436" x="554.43" y="63.9951">Web App</text></g><!--entity Organization Controller--><g class="entity" data-qualified-name="Backend API.organization.Organization Controller" data-source-line="10" id="ent0006"><rect fill="#F1F1F1" height="36.2969" rx="2.5" ry="2.5" style="stroke:#181818;stroke-width:0.5;" width="183.3721" x="51.31" y="195.29"/><text fill="#000000" font-family="sans-serif" font-size="14" lengthAdjust="spacing" textLength="163.3721" x="61.31" y="218.2851">Organization Controller</text></g><!--entity Organization Use Cases--><g class="entity" data-qualified-name="Backend API.organization.Organization Use Cases" data-source-line="11" id="ent0007"><rect fill="#F1F1F1" height="36.2969" rx="2.5" ry="2.5" style="stroke:#181818;stroke-width:0.5;" width="186.3594" x="48.82" y="291.59"/><text fill="#000000" font-family="sans-serif" font-size="14" lengthAdjust="spacing" textLength="166.3594" x="58.82" y="314.5851">Organization Use Cases</text></g><!--entity Organization Repository--><g class="entity" data-qualified-name="Backend API.organization.Organization Repository" data-source-line="12" id="ent0008"><rect fill="#F1F1F1" height="36.2969" rx="2.5" ry="2.5" style="stroke:#181818;stroke-width:0.5;" width="189.2715" x="46.36" y="387.89"/><text fill="#000000" font-family="sans-serif" font-size="14" lengthAdjust="spacing" textLength="169.2715" x="56.36" y="410.8851">Organization Repository</text></g><!--entity Auth Controller--><g class="entity" data-qualified-name="Backend API.identity.Auth Controller" data-source-line="16" id="ent0010"><rect fill="#F1F1F1" height="36.2969" rx="2.5" ry="2.5" style="stroke:#181818;stroke-width:0.5;" width="126.4355" x="428.78" y="195.29"/><text fill="#000000" font-family="sans-serif" font-size="14" lengthAdjust="spacing" textLength="106.4355" x="438.78" y="218.2851">Auth Controller</text></g><!--entity Identity Use Cases--><g class="entity" data-qualified-name="Backend API.identity.Identity Use Cases" data-source-line="17" id="ent0011"><rect fill="#F1F1F1" height="36.2969" rx="2.5" ry="2.5" style="stroke:#181818;stroke-width:0.5;" width="150.2656" x="410.87" y="291.59"/><text fill="#000000" font-family="sans-serif" font-size="14" lengthAdjust="spacing" textLength="130.2656" x="420.87" y="314.5851">Identity Use Cases</text></g><!--entity JWT Service--><g class="entity" data-qualified-name="Backend API.identity.JWT Service" data-source-line="18" id="ent0012"><rect fill="#F1F1F1" height="36.2969" rx="2.5" ry="2.5" style="stroke:#181818;stroke-width:0.5;" width="102.7148" x="291.64" y="387.89"/><text fill="#000000" font-family="sans-serif" font-size="14" lengthAdjust="spacing" textLength="82.7148" x="301.64" y="410.8851">JWT Service</text></g><!--entity User Repository--><g class="entity" data-qualified-name="Backend API.identity.User Repository" data-source-line="19" id="ent0013"><rect fill="#F1F1F1" height="36.2969" rx="2.5" ry="2.5" style="stroke:#181818;stroke-width:0.5;" width="131.4326" x="429.28" y="387.89"/><text fill="#000000" font-family="sans-serif" font-size="14" lengthAdjust="spacing" textLength="111.4326" x="439.28" y="410.8851">User Repository</text></g><!--entity Staff Controller--><g class="entity" data-qualified-name="Backend API.staff.Staff Controller" data-source-line="23" id="ent0015"><rect fill="#F1F1F1" height="36.2969" rx="2.5" ry="2.5" style="stroke:#181818;stroke-width:0.5;" width="126.4355" x="617.78" y="195.29"/><text fill="#000000" font-family="sans-serif" font-size="14" lengthAdjust="spacing" textLength="106.4355" x="627.78" y="218.2851">Staff Controller</text></g><!--entity Staff Use Cases--><g class="entity" data-qualified-name="Backend API.staff.Staff Use Cases" data-source-line="24" id="ent0016"><rect fill="#F1F1F1" height="36.2969" rx="2.5" ry="2.5" style="stroke:#181818;stroke-width:0.5;" width="129.4229" x="617.29" y="291.59"/><text fill="#000000" font-family="sans-serif" font-size="14" lengthAdjust="spacing" textLength="109.4229" x="627.29" y="314.5851">Staff Use Cases</text></g><!--entity Staff Repository--><g class="entity" data-qualified-name="Backend API.staff.Staff Repository" data-source-line="25" id="ent0017"><rect fill="#F1F1F1" height="36.2969" rx="2.5" ry="2.5" style="stroke:#181818;stroke-width:0.5;" width="132.335" x="616.83" y="387.89"/><text fill="#000000" font-family="sans-serif" font-size="14" lengthAdjust="spacing" textLength="112.335" x="626.83" y="410.8851">Staff Repository</text></g><!--entity Scheduling Controller--><g class="entity" data-qualified-name="Backend API.scheduling.Scheduling Controller" data-source-line="29" id="ent0019"><rect fill="#F1F1F1" height="36.2969" rx="2.5" ry="2.5" style="stroke:#181818;stroke-width:0.5;" width="170.9922" x="810.5" y="195.29"/><text fill="#000000" font-family="sans-serif" font-size="14" lengthAdjust="spacing" textLength="150.9922" x="820.5" y="218.2851">Scheduling Controller</text></g><!--entity Scheduling Use Cases--><g class="entity" data-qualified-name="Backend API.scheduling.Scheduling Use Cases" data-source-line="30" id="ent0020"><rect fill="#F1F1F1" height="36.2969" rx="2.5" ry="2.5" style="stroke:#181818;stroke-width:0.5;" width="173.9795" x="816.01" y="291.59"/><text fill="#000000" font-family="sans-serif" font-size="14" lengthAdjust="spacing" textLength="153.9795" x="826.01" y="314.5851">Scheduling Use Cases</text></g><!--entity Shift Assignment Service--><g class="entity" data-qualified-name="Backend API.scheduling.Shift Assignment Service" data-source-line="31" id="ent0021"><rect fill="#F1F1F1" height="36.2969" rx="2.5" ry="2.5" style="stroke:#181818;stroke-width:0.5;" width="195.1367" x="805.43" y="387.89"/><text fill="#000000" font-family="sans-serif" font-size="14" lengthAdjust="spacing" textLength="175.1367" x="815.43" y="410.8851">Shift Assignment Service</text></g><!--entity Scheduling Repository--><g class="entity" data-qualified-name="Backend API.scheduling.Scheduling Repository" data-source-line="32" id="ent0022"><rect fill="#F1F1F1" height="36.2969" rx="2.5" ry="2.5" style="stroke:#181818;stroke-width:0.5;" width="176.8916" x="1035.55" y="387.89"/><text fill="#000000" font-family="sans-serif" font-size="14" lengthAdjust="spacing" textLength="156.8916" x="1045.55" y="410.8851">Scheduling Repository</text></g><!--entity DB--><g class="entity" data-qualified-name="DB" data-source-line="36" id="ent0023"><path d="M538.62,494.18 C538.62,484.18 588.9965,484.18 588.9965,484.18 C588.9965,484.18 639.3729,484.18 639.3729,494.18 L639.3729,519.4769 C639.3729,529.4769 588.9965,529.4769 588.9965,529.4769 C588.9965,529.4769 538.62,529.4769 538.62,519.4769 L538.62,494.18" fill="#F1F1F1" style="stroke:#181818;stroke-width:0.5;"/><path d="M538.62,494.18 C538.62,504.18 588.9965,504.18 588.9965,504.18 C588.9965,504.18 639.3729,504.18 639.3729,494.18" fill="none" style="stroke:#181818;stroke-width:0.5;"/><text fill="#000000" font-family="sans-serif" font-size="14" lengthAdjust="spacing" textLength="80.7529" x="548.62" y="521.1751">PostgreSQL</text></g><!--link Web App to Organization Controller--><g class="link" data-entity-1="ent0003" data-entity-2="ent0006" data-link-type="dependency" data-source-line="38" id="lnk24"><path d="M544.06,60.27 C482.71,61.86 366.02,70.33 276,109.29 C228.53,129.84 187.3518,167.0266 163.8518,190.6466" fill="none" id="Web App-to-Organization Controller" style="stroke:#181818;stroke-width:1;"/><polygon fill="#181818" points="159.62,194.9,168.8034,191.3411,163.1465,191.3555,163.1321,185.6986,159.62,194.9" style="stroke:#181818;stroke-width:1;"/></g><!--link Web App to Auth Controller--><g class="link" data-entity-1="ent0003" data-entity-2="ent0010" data-link-type="dependency" data-source-line="39" id="lnk25"><path d="M575.22,77.61 C557.08,106.99 523.8504,160.8237 505.8104,190.0637" fill="none" id="Web App-to-Auth Controller" style="stroke:#181818;stroke-width:1;"/><polygon fill="#181818" points="502.66,195.17,510.7899,189.6108,505.2854,190.9147,503.9814,185.4102,502.66,195.17" style="stroke:#181818;stroke-width:1;"/></g><!--link Web App to Staff Controller--><g class="link" data-entity-1="ent0003" data-entity-2="ent0015" data-link-type="dependency" data-source-line="40" id="lnk26"><path d="M596.9,77.61 C615.22,106.99 648.8144,160.8393 667.0544,190.0793" fill="none" id="Web App-to-Staff Controller" style="stroke:#181818;stroke-width:1;"/><polygon fill="#181818" points="670.23,195.17,668.8604,185.4168,667.5837,190.9277,662.0728,189.651,670.23,195.17" style="stroke:#181818;stroke-width:1;"/></g><!--link Web App to Scheduling Controller--><g class="link" data-entity-1="ent0003" data-entity-2="ent0019" data-link-type="dependency" data-source-line="41" id="lnk27"><path d="M627.87,66.75 C665.28,73.77 720.84,87 765,109.29 C810.22,132.12 850.5152,167.7708 874.2252,190.6808" fill="none" id="Web App-to-Scheduling Controller" style="stroke:#181818;stroke-width:1;"/><polygon fill="#181818" points="878.54,194.85,874.8473,185.7196,874.9443,191.3756,869.2883,191.4727,878.54,194.85" style="stroke:#181818;stroke-width:1;"/></g><!--link Organization Controller to Organization Use Cases--><g class="link" data-entity-1="ent0006" data-entity-2="ent0007" data-link-type="dependency" data-source-line="43" id="lnk28"><path d="M142.82,231.74 C142.64,248.64 142.4336,268.2503 142.2536,285.2303" fill="none" id="Organization Controller-to-Organization Use Cases" style="stroke:#181818;stroke-width:1;"/><polygon fill="#181818" points="142.19,291.23,146.2852,282.2729,142.243,286.2303,138.2856,282.1881,142.19,291.23" style="stroke:#181818;stroke-width:1;"/></g><!--link Organization Use Cases to Organization Repository--><g class="link" data-entity-1="ent0007" data-entity-2="ent0008" data-link-type="dependency" data-source-line="44" id="lnk29"><path d="M141.82,328.03 C141.64,344.94 141.4336,364.5503 141.2536,381.5303" fill="none" id="Organization Use Cases-to-Organization Repository" style="stroke:#181818;stroke-width:1;"/><polygon fill="#181818" points="141.19,387.53,145.2852,378.5729,141.243,382.5303,137.2856,378.4881,141.19,387.53" style="stroke:#181818;stroke-width:1;"/></g><!--link Auth Controller to Identity Use Cases--><g class="link" data-entity-1="ent0010" data-entity-2="ent0011" data-link-type="dependency" data-source-line="46" id="lnk30"><path d="M490.9,231.74 C489.82,248.64 488.5709,268.2621 487.4909,285.2421" fill="none" id="Auth Controller-to-Identity Use Cases" style="stroke:#181818;stroke-width:1;"/><polygon fill="#181818" points="487.11,291.23,491.6732,282.5021,487.4274,286.2401,483.6894,281.9942,487.11,291.23" style="stroke:#181818;stroke-width:1;"/></g><!--link Identity Use Cases to JWT Service--><g class="link" data-entity-1="ent0011" data-entity-2="ent0012" data-link-type="dependency" data-source-line="47" id="lnk31"><path d="M459.44,328.25 C433.75,345.19 400.0697,367.408 374.4297,384.308" fill="none" id="Identity Use Cases-to-JWT Service" style="stroke:#181818;stroke-width:1;"/><polygon fill="#181818" points="369.42,387.61,379.1358,385.9968,373.5947,384.8583,374.7332,379.3172,369.42,387.61" style="stroke:#181818;stroke-width:1;"/></g><!--link Identity Use Cases to User Repository--><g class="link" data-entity-1="ent0011" data-entity-2="ent0013" data-link-type="dependency" data-source-line="48" id="lnk32"><path d="M487.65,328.03 C489.26,344.94 491.1401,364.5771 492.7601,381.5571" fill="none" id="Identity Use Cases-to-User Repository" style="stroke:#181818;stroke-width:1;"/><polygon fill="#181818" points="493.33,387.53,496.4571,378.1908,492.8551,382.5526,488.4933,378.9506,493.33,387.53" style="stroke:#181818;stroke-width:1;"/></g><!--link Staff Controller to Staff Use Cases--><g class="link" data-entity-1="ent0015" data-entity-2="ent0016" data-link-type="dependency" data-source-line="50" id="lnk33"><path d="M681.18,231.74 C681.36,248.64 681.5664,268.2503 681.7464,285.2303" fill="none" id="Staff Controller-to-Staff Use Cases" style="stroke:#181818;stroke-width:1;"/><polygon fill="#181818" points="681.81,291.23,685.7144,282.1881,681.757,286.2303,677.7148,282.2729,681.81,291.23" style="stroke:#181818;stroke-width:1;"/></g><!--link Staff Use Cases to Staff Repository--><g class="link" data-entity-1="ent0016" data-entity-2="ent0017" data-link-type="dependency" data-source-line="51" id="lnk34"><path d="M682.18,328.03 C682.36,344.94 682.5664,364.5503 682.7464,381.5303" fill="none" id="Staff Use Cases-to-Staff Repository" style="stroke:#181818;stroke-width:1;"/><polygon fill="#181818" points="682.81,387.53,686.7144,378.4881,682.757,382.5303,678.7148,378.5729,682.81,387.53" style="stroke:#181818;stroke-width:1;"/></g><!--link Scheduling Controller to Scheduling Use Cases--><g class="link" data-entity-1="ent0019" data-entity-2="ent0020" data-link-type="dependency" data-source-line="53" id="lnk35"><path d="M897.28,231.74 C898.54,248.64 899.996,268.2665 901.256,285.2465" fill="none" id="Scheduling Controller-to-Scheduling Use Cases" style="stroke:#181818;stroke-width:1;"/><polygon fill="#181818" points="901.7,291.23,905.023,281.9587,901.33,286.2437,897.045,282.5507,901.7,291.23" style="stroke:#181818;stroke-width:1;"/></g><!--link Scheduling Use Cases to Shift Assignment Service--><g class="link" data-entity-1="ent0020" data-entity-2="ent0021" data-link-type="dependency" data-source-line="54" id="lnk36"><path d="M903,328.03 C903,344.94 903,364.55 903,381.53" fill="none" id="Scheduling Use Cases-to-Shift Assignment Service" style="stroke:#181818;stroke-width:1;"/><polygon fill="#181818" points="903,387.53,907,378.53,903,382.53,899,378.53,903,387.53" style="stroke:#181818;stroke-width:1;"/></g><!--link Scheduling Use Cases to Scheduling Repository--><g class="link" data-entity-1="ent0020" data-entity-2="ent0022" data-link-type="dependency" data-source-line="55" id="lnk37"><path d="M944.31,328.36 C983.91,345.26 1037.8415,368.2749 1077.3715,385.1449" fill="none" id="Scheduling Use Cases-to-Scheduling Repository" style="stroke:#181818;stroke-width:1;"/><polygon fill="#181818" points="1082.89,387.5,1076.1823,380.2884,1078.2913,385.5374,1073.0422,387.6463,1082.89,387.5" style="stroke:#181818;stroke-width:1;"/></g><!--link Organization Repository to DB--><g class="link" data-entity-1="ent0008" data-entity-2="ent0023" data-link-type="dependency" data-source-line="57" id="lnk38"><path d="M169.86,424.58 C196.44,439.83 237.47,461.17 276,472.18 C365.99,497.9 469.6515,504.1361 532.3915,505.5361" fill="none" id="Organization Repository-to-DB" style="stroke:#181818;stroke-width:1;"/><polygon fill="#181818" points="538.39,505.67,529.4815,501.4702,533.3912,505.5585,529.303,509.4682,538.39,505.67" style="stroke:#181818;stroke-width:1;"/></g><!--link User Repository to DB--><g class="link" data-entity-1="ent0013" data-entity-2="ent0023" data-link-type="dependency" data-source-line="58" id="lnk39"><path d="M511.37,424.24 C527.15,440.83 546.9538,461.6436 564.0738,479.6336" fill="none" id="User Repository-to-DB" style="stroke:#181818;stroke-width:1;"/><polygon fill="#181818" points="568.21,483.98,564.9033,474.7029,564.7631,480.358,559.108,480.2178,568.21,483.98" style="stroke:#181818;stroke-width:1;"/></g><!--link Staff Repository to DB--><g class="link" data-entity-1="ent0017" data-entity-2="ent0023" data-link-type="dependency" data-source-line="59" id="lnk40"><path d="M666.63,424.24 C650.85,440.83 631.0462,461.6436 613.9262,479.6336" fill="none" id="Staff Repository-to-DB" style="stroke:#181818;stroke-width:1;"/><polygon fill="#181818" points="609.79,483.98,618.892,480.2178,613.2369,480.358,613.0967,474.7029,609.79,483.98" style="stroke:#181818;stroke-width:1;"/></g><!--link Scheduling Repository to DB--><g class="link" data-entity-1="ent0022" data-entity-2="ent0023" data-link-type="dependency" data-source-line="60" id="lnk41"><path d="M1102.39,424.62 C1081.98,440.12 1049.84,461.82 1018,472.18 C949,494.64 743.7082,502.2411 645.7982,504.6711" fill="none" id="Scheduling Repository-to-DB" style="stroke:#181818;stroke-width:1;"/><polygon fill="#181818" points="639.8,504.82,648.8965,508.5955,644.7985,504.6959,648.698,500.5979,639.8,504.82" style="stroke:#181818;stroke-width:1;"/></g><?plantuml-src VL91ReCm4Bpx5Ilk-K8bagfIgafDIwiSgXmSM1mhO2FRgKIh_Bsc832suGOpipkxuzLNBXggQ0svh1ifK9ZCj1M2mjnGmIeafA7vbJA4v4b9OL0K2VmIWAyZdY5jcXEvEvgj_R0II0_xJcPr8oKLeuB_KCEbw5lO9gyE23lRNycgGdMAi9yQOKSrwXZvZetKt4ZLTknzPimBknOtxMYQtimbDDiFii3e-VW16QfldkE0M8LQjTI6bkNebtL_eM4F-suzkjeyls1ngxXWayC8HMmcBl2wyD90gZLdehRRUsiwbVuyTgA26dgspI0vI6sOmkpj9G6guN5Bo7WTiDayh3opfmjUnkF397r1F0YoE45aFYUb9I9IvIP4WaNwWjY9nS1UFRkxPLbmZ2ICoKtFzVOHL-UrZ0ORX3vh7eE7YiN3MwsAtoDPV8Z_CdkEGKOZ4QmwCL6pWVu3?></g></svg>