<svg xmlns="http://www.w3.org/2000/svg" xmlns:xlink="http://www.w3.org/1999/xlink" contentStyleType="text/css" data-diagram-type="DESCRIPTION" height="927px" preserveAspectRatio="none" style="width:418px;height:927px;background:#FFFFFF;" version="1.1" viewBox="0 0 418 927" width="418px" zoomAndPan="magnify"><?plantuml 1.2026.4beta2?><defs/><g><!--cluster Administraci?n organizacional--><g class="cluster" data-qualified-name="Administraci.n organizacional" data-source-line="5" id="ent0003"><rect fill="none" height="906" rx="2.5" ry="2.5" style="stroke:#181818;stroke-width:1;" width="254.98" x="149.08" y="7"/><text fill="#000000" font-family="sans-serif" font-size="14" font-weight="700" lengthAdjust="spacing" textLength="239.2236" x="156.9582" y="21.9951">Administraci&#243;n organizacional</text></g><!--entity UC_CreateCompany--><g class="entity" data-qualified-name="Administraci.n organizacional.UC_CreateCompany" data-source-line="6" id="ent0004"><ellipse cx="276.0719" cy="880.9964" fill="#F1F1F1" rx="69.1819" ry="16.2364" style="stroke:#181818;stroke-width:0.5;"/><text fill="#000000" font-family="sans-serif" font-size="14" lengthAdjust="spacing" textLength="104.3096" x="223.9171" y="885.6448">Crear empresa</text></g><!--entity UC_UpdateCompany--><g class="entity" data-qualified-name="Administraci.n organizacional.UC_UpdateCompany" data-source-line="7" id="ent0005"><ellipse cx="276.0706" cy="811.0021" fill="#F1F1F1" rx="82.0606" ry="18.8121" style="stroke:#181818;stroke-width:0.5;"/><text fill="#000000" font-family="sans-serif" font-size="14" lengthAdjust="spacing" textLength="135.5088" x="208.3162" y="815.6506">Actualizar empresa</text></g><!--entity UC_CreateBranch--><g class="entity" data-qualified-name="Administraci.n organizacional.UC_CreateBranch" data-source-line="9" id="ent0006"><ellipse cx="276.0681" cy="741.0016" fill="#F1F1F1" rx="67.9581" ry="15.9916" style="stroke:#181818;stroke-width:0.5;"/><text fill="#000000" font-family="sans-serif" font-size="14" lengthAdjust="spacing" textLength="101.1855" x="225.4753" y="745.6501">Crear sucursal</text></g><!--entity UC_UpdateBranch--><g class="entity" data-qualified-name="Administraci.n organizacional.UC_UpdateBranch" data-source-line="10" id="ent0007"><ellipse cx="276.0662" cy="670.9952" fill="#F1F1F1" rx="80.7262" ry="18.5452" style="stroke:#181818;stroke-width:0.5;"/><text fill="#000000" font-family="sans-serif" font-size="14" lengthAdjust="spacing" textLength="132.3848" x="209.8738" y="675.6437">Actualizar sucursal</text></g><!--entity UC_DeactivateBranch--><g class="entity" data-qualified-name="Administraci.n organizacional.UC_DeactivateBranch" data-source-line="11" id="ent0008"><ellipse cx="276.0682" cy="597.9976" fill="#F1F1F1" rx="82.9882" ry="18.9976" style="stroke:#181818;stroke-width:0.5;"/><text fill="#000000" font-family="sans-serif" font-size="14" lengthAdjust="spacing" textLength="137.6689" x="207.2337" y="602.6461">Desactivar sucursal</text></g><!--entity UC_ListBranches--><g class="entity" data-qualified-name="Administraci.n organizacional.UC_ListBranches" data-source-line="12" id="ent0009"><ellipse cx="276.0722" cy="527.0024" fill="#F1F1F1" rx="74.4622" ry="17.2924" style="stroke:#181818;stroke-width:0.5;"/><text fill="#000000" font-family="sans-serif" font-size="14" lengthAdjust="spacing" textLength="117.4209" x="217.3617" y="531.6509">Listar sucursales</text></g><!--entity UC_CreateUser--><g class="entity" data-qualified-name="Administraci.n organizacional.UC_CreateUser" data-source-line="14" id="ent0010"><ellipse cx="276.0682" cy="458.9976" fill="#F1F1F1" rx="65.4882" ry="15.4976" style="stroke:#181818;stroke-width:0.5;"/><text fill="#000000" font-family="sans-serif" font-size="14" lengthAdjust="spacing" textLength="94.7598" x="228.6883" y="463.6461">Crear usuario</text></g><!--entity UC_UpdateUser--><g class="entity" data-qualified-name="Administraci.n organizacional.UC_UpdateUser" data-source-line="15" id="ent0011"><ellipse cx="276.0689" cy="391.0018" fill="#F1F1F1" rx="78.0089" ry="18.0018" style="stroke:#181818;stroke-width:0.5;"/><text fill="#000000" font-family="sans-serif" font-size="14" lengthAdjust="spacing" textLength="125.959" x="213.0895" y="395.6502">Actualizar usuario</text></g><!--entity UC_DeactivateUser--><g class="entity" data-qualified-name="Administraci.n organizacional.UC_DeactivateUser" data-source-line="16" id="ent0012"><ellipse cx="276.0706" cy="319.9981" fill="#F1F1F1" rx="80.2406" ry="18.4481" style="stroke:#181818;stroke-width:0.5;"/><text fill="#000000" font-family="sans-serif" font-size="14" lengthAdjust="spacing" textLength="131.2432" x="210.4491" y="324.6466">Desactivar usuario</text></g><!--entity UC_AssignRole--><g class="entity" data-qualified-name="Administraci.n organizacional.UC_AssignRole" data-source-line="18" id="ent0013"><ellipse cx="276.067" cy="241.0043" fill="#F1F1F1" rx="54.677" ry="25.3043" style="stroke:#181818;stroke-width:0.5;"/><text fill="#000000" font-family="sans-serif" font-size="14" lengthAdjust="spacing" textLength="75.5166" x="238.3087" y="238.5731">Asignar rol</text><text fill="#000000" font-family="sans-serif" font-size="14" lengthAdjust="spacing" textLength="64.8594" x="243.6373" y="254.87">a usuario</text></g><!--entity UC_RemoveRole--><g class="entity" data-qualified-name="Administraci.n organizacional.UC_RemoveRole" data-source-line="19" id="ent0014"><ellipse cx="276.0726" cy="154.9964" fill="#F1F1F1" rx="49.6126" ry="25.9264" style="stroke:#181818;stroke-width:0.5;"/><text fill="#000000" font-family="sans-serif" font-size="14" lengthAdjust="spacing" textLength="66.2676" x="242.9388" y="151.6678">Quitar rol</text><text fill="#000000" font-family="sans-serif" font-size="14" lengthAdjust="spacing" textLength="64.8594" x="243.6429" y="167.9646">a usuario</text></g><!--entity UC_ListUserRoles--><g class="entity" data-qualified-name="Administraci.n organizacional.UC_ListUserRoles" data-source-line="20" id="ent0015"><ellipse cx="276.0658" cy="67.9972" fill="#F1F1F1" rx="57.0958" ry="25.7872" style="stroke:#181818;stroke-width:0.5;"/><text fill="#000000" font-family="sans-serif" font-size="14" lengthAdjust="spacing" textLength="77.376" x="237.3778" y="64.8671">Listar roles</text><text fill="#000000" font-family="sans-serif" font-size="14" lengthAdjust="spacing" textLength="73.7803" x="239.1756" y="81.164">de usuario</text></g><!--entity Admin--><g class="entity" data-qualified-name="Admin" data-source-line="3" id="ent0002"><ellipse cx="55.54" cy="455.2" fill="#F1F1F1" rx="8" ry="8" style="stroke:#181818;stroke-width:0.5;"/><path d="M55.54,463.2 L55.54,490.2 M42.54,471.2 L68.54,471.2 M55.54,490.2 L42.54,505.2 M55.54,490.2 L68.54,505.2" fill="none" style="stroke:#181818;stroke-width:0.5;"/><text fill="#000000" font-family="sans-serif" font-size="14" lengthAdjust="spacing" textLength="99.0801" x="6" y="519.6951">Administrador</text><text fill="#000000" font-family="sans-serif" font-size="14" lengthAdjust="spacing" textLength="83.3301" x="6" y="535.992">de empresa</text></g><!--link Admin to UC_CreateCompany--><g class="link" data-entity-1="ent0002" data-entity-2="ent0004" data-link-type="dependency" data-source-line="23" id="lnk16"><path d="M61.68,539.54 C72.09,625.35 98.38,803.69 141.08,847 C158.52,864.69 177.8584,872.5476 201.7384,876.9276" fill="none" id="Admin-to-UC_CreateCompany" style="stroke:#181818;stroke-width:1;"/><polygon fill="#181818" points="207.64,878.01,199.5093,872.452,202.722,877.108,198.066,880.3207,207.64,878.01" style="stroke:#181818;stroke-width:1;"/></g><!--link Admin to UC_UpdateCompany--><g class="link" data-entity-1="ent0002" data-entity-2="ent0005" data-link-type="dependency" data-source-line="24" id="lnk17"><path d="M57.35,539.55 C61,601.7 76.87,711.24 141.08,774 C156.78,789.35 172.4344,796.9841 193.5944,802.3541" fill="none" id="Admin-to-UC_UpdateCompany" style="stroke:#181818;stroke-width:1;"/><polygon fill="#181818" points="199.41,803.83,191.6705,797.7391,194.5636,802.6001,189.7026,805.4932,199.41,803.83" style="stroke:#181818;stroke-width:1;"/></g><!--link Admin to UC_CreateBranch--><g class="link" data-entity-1="ent0002" data-entity-2="ent0006" data-link-type="dependency" data-source-line="26" id="lnk18"><path d="M62.47,539.73 C71.16,588.53 92.04,663.86 141.08,707 C160,723.64 180.0417,731.2599 204.0617,735.7399" fill="none" id="Admin-to-UC_CreateBranch" style="stroke:#181818;stroke-width:1;"/><polygon fill="#181818" points="209.96,736.84,201.846,731.2577,205.0448,735.9233,200.3792,739.122,209.96,736.84" style="stroke:#181818;stroke-width:1;"/></g><!--link Admin to UC_UpdateBranch--><g class="link" data-entity-1="ent0002" data-entity-2="ent0007" data-link-type="dependency" data-source-line="27" id="lnk19"><path d="M73.73,539.72 C87.45,570.77 109.61,610.07 141.08,634 C159.43,647.95 176.9034,655.2078 198.9134,660.6178" fill="none" id="Admin-to-UC_UpdateBranch" style="stroke:#181818;stroke-width:1;"/><polygon fill="#181818" points="204.74,662.05,196.9549,656.0174,199.8845,660.8565,195.0454,663.7861,204.74,662.05" style="stroke:#181818;stroke-width:1;"/></g><!--link Admin to UC_DeactivateBranch--><g class="link" data-entity-1="ent0002" data-entity-2="ent0008" data-link-type="dependency" data-source-line="28" id="lnk20"><path d="M105.51,538.7 C116.61,547.37 128.77,555.69 141.08,562 C162.3,572.87 181.3242,579.2849 203.8142,584.8249" fill="none" id="Admin-to-UC_DeactivateBranch" style="stroke:#181818;stroke-width:1;"/><polygon fill="#181818" points="209.64,586.26,201.858,580.2235,204.7851,585.0641,199.9445,587.9913,209.64,586.26" style="stroke:#181818;stroke-width:1;"/></g><!--link Admin to UC_ListBranches--><g class="link" data-entity-1="ent0002" data-entity-2="ent0009" data-link-type="dependency" data-source-line="29" id="lnk21"><path d="M105.31,500.59 C137.14,505.54 173.0312,511.1287 207.2012,516.4387" fill="none" id="Admin-to-UC_ListBranches" style="stroke:#181818;stroke-width:1;"/><polygon fill="#181818" points="213.13,517.36,204.851,512.0254,208.1893,516.5922,203.6225,519.9306,213.13,517.36" style="stroke:#181818;stroke-width:1;"/></g><!--link Admin to UC_CreateUser--><g class="link" data-entity-1="ent0002" data-entity-2="ent0010" data-link-type="dependency" data-source-line="31" id="lnk22"><path d="M105.31,485.41 C139.4,480.11 179.0314,473.9427 214.3714,468.4427" fill="none" id="Admin-to-UC_CreateUser" style="stroke:#181818;stroke-width:1;"/><polygon fill="#181818" points="220.3,467.52,210.7919,464.9516,215.3595,468.2889,212.0222,472.8564,220.3,467.52" style="stroke:#181818;stroke-width:1;"/></g><!--link Admin to UC_UpdateUser--><g class="link" data-entity-1="ent0002" data-entity-2="ent0011" data-link-type="dependency" data-source-line="32" id="lnk23"><path d="M105.17,448.94 C116.38,440.4 128.68,432.19 141.08,426 C163.24,414.94 183.417,408.4837 206.597,403.0737" fill="none" id="Admin-to-UC_UpdateUser" style="stroke:#181818;stroke-width:1;"/><polygon fill="#181818" points="212.44,401.71,202.7664,399.8602,207.5709,402.8464,204.5847,407.6509,212.44,401.71" style="stroke:#181818;stroke-width:1;"/></g><!--link Admin to UC_DeactivateUser--><g class="link" data-entity-1="ent0002" data-entity-2="ent0012" data-link-type="dependency" data-source-line="33" id="lnk24"><path d="M74.17,446.46 C87.97,416.12 110.05,378.02 141.08,355 C159.13,341.61 176.0318,334.7139 197.6318,329.5939" fill="none" id="Admin-to-UC_DeactivateUser" style="stroke:#181818;stroke-width:1;"/><polygon fill="#181818" points="203.47,328.21,193.7901,326.3937,198.6048,329.3632,195.6352,334.178,203.47,328.21" style="stroke:#181818;stroke-width:1;"/></g><!--link Admin to UC_AssignRole--><g class="link" data-entity-1="ent0002" data-entity-2="ent0013" data-link-type="dependency" data-source-line="35" id="lnk25"><path d="M63.57,446.61 C73.11,399.38 94.62,327.15 141.08,284 C163.28,263.38 189.5326,253.8566 216.7626,248.2666" fill="none" id="Admin-to-UC_AssignRole" style="stroke:#181818;stroke-width:1;"/><polygon fill="#181818" points="222.64,247.06,213.0195,244.9516,217.7421,248.0655,214.6282,252.7881,222.64,247.06" style="stroke:#181818;stroke-width:1;"/></g><!--link Admin to UC_RemoveRole--><g class="link" data-entity-1="ent0002" data-entity-2="ent0014" data-link-type="dependency" data-source-line="36" id="lnk26"><path d="M56.94,446.23 C60.04,381.79 75.18,266.01 141.08,198 C163.44,174.93 192.2689,165.2387 220.7689,160.2787" fill="none" id="Admin-to-UC_RemoveRole" style="stroke:#181818;stroke-width:1;"/><polygon fill="#181818" points="226.68,159.25,217.1274,156.8524,221.754,160.1073,218.4991,164.7339,226.68,159.25" style="stroke:#181818;stroke-width:1;"/></g><!--link Admin to UC_ListUserRoles--><g class="link" data-entity-1="ent0002" data-entity-2="ent0015" data-link-type="dependency" data-source-line="37" id="lnk27"><path d="M61.14,446.4 C70.96,355.9 96.79,160.9 141.08,112 C161.13,89.86 186.6169,80.0088 213.9669,74.5288" fill="none" id="Admin-to-UC_ListUserRoles" style="stroke:#181818;stroke-width:1;"/><polygon fill="#181818" points="219.85,73.35,210.2396,71.1961,214.9474,74.3323,211.8112,79.0402,219.85,73.35" style="stroke:#181818;stroke-width:1;"/></g><?plantuml-src TP9DJiCm48NtFeNLVQ-05D8b6ofrLmcDd26rbDZLZ5q94AVY25mCEodWlopjzpu_py-4hquwAqcF5oS7JQYSjaO8KCwIt7N3h8rcHp1OEfi19SvNGeQT19QBAaI4m8mJfdwblx-Cj3I2qU_XP0rCE_aXfFIC2ZYOUqAWxC5J_n8l7VPsle9vIzsTSXwcy5Q5dAv3WjG9x9KdZl5fn2E1KPUDX19P8sha4BuHEdPh80TSbHRs55gK8CY_K1HMEtAZ4iyUIDkya1CZRPHH-DSgIdzIG-7_Bs5XiX3Mema4sUbie0GxZlBHJfWoprwxJUI8ixrXYTmR5H3aPVqAAkhnRv5ZyId4ie1olt-eTocJYfrfOFUfDQYMKaqxK_EnDiAM_ZQYwljo9fcOz3sxJvfR_UklVJy0?></g></svg>