<svg xmlns="http://www.w3.org/2000/svg" xmlns:xlink="http://www.w3.org/1999/xlink" contentStyleType="text/css" data-diagram-type="CLASS" height="699px" preserveAspectRatio="none" style="width:319px;height:699px;background:#FFFFFF;" version="1.1" viewBox="0 0 319 699" width="319px" zoomAndPan="magnify"><?plantuml 1.2026.5?><defs/><g><!--class EmploymentContract--><g class="entity" data-qualified-name="EmploymentContract" data-source-line="1" id="ent0001"><rect fill="#F1F1F1" height="357.6406" rx="2.5" ry="2.5" style="stroke:#181818;stroke-width:0.5;" width="297.9404" x="7" y="7"/><ellipse cx="77.2461" cy="23" fill="#ADD1B2" rx="11" ry="11" style="stroke:#181818;stroke-width:1;"/><path d="M80.2148,28.6406 Q79.6367,28.9375 78.9961,29.0781 Q78.3555,29.2344 77.6523,29.2344 Q75.1523,29.2344 73.8242,27.5938 Q72.5117,25.9375 72.5117,22.8125 Q72.5117,19.6875 73.8242,18.0313 Q75.1523,16.375 77.6523,16.375 Q78.3555,16.375 78.9961,16.5313 Q79.6523,16.6875 80.2148,16.9844 L80.2148,19.7031 Q79.5898,19.125 78.9961,18.8594 Q78.4023,18.5781 77.7773,18.5781 Q76.4336,18.5781 75.7461,19.6563 Q75.0586,20.7188 75.0586,22.8125 Q75.0586,24.9063 75.7461,25.9844 Q76.4336,27.0469 77.7773,27.0469 Q78.4023,27.0469 78.9961,26.7813 Q79.5898,26.5 80.2148,25.9219 L80.2148,28.6406 Z " fill="#000000"/><text fill="#000000" font-family="sans-serif" font-size="14" lengthAdjust="spacing" textLength="148.9482" x="97.7461" y="27.8467">EmploymentContract</text><line style="stroke:#181818;stroke-width:0.5;" x1="8" x2="303.9404" y1="39" y2="39"/><g data-visibility-modifier="PUBLIC_FIELD"><ellipse cx="18" cy="52.6484" fill="none" rx="3" ry="3" style="stroke:#038048;stroke-width:1;"/></g><text fill="#000000" font-family="sans-serif" font-size="14" lengthAdjust="spacing" textLength="52.6299" x="27" y="55.9951">UUID id</text><text fill="#000000" font-family="sans-serif" font-size="14" lengthAdjust="spacing" textLength="4.4502" x="27" y="72.292">&#160;</text><g data-visibility-modifier="PUBLIC_FIELD"><ellipse cx="18" cy="85.2422" fill="none" rx="3" ry="3" style="stroke:#038048;stroke-width:1;"/></g><text fill="#000000" font-family="sans-serif" font-size="14" lengthAdjust="spacing" textLength="137.0879" x="27" y="88.5889">UUID collaboratorId</text><text fill="#000000" font-family="sans-serif" font-size="14" lengthAdjust="spacing" textLength="4.4502" x="27" y="104.8857">&#160;</text><g data-visibility-modifier="PUBLIC_FIELD"><ellipse cx="18" cy="117.8359" fill="none" rx="3" ry="3" style="stroke:#038048;stroke-width:1;"/></g><text fill="#000000" font-family="sans-serif" font-size="14" lengthAdjust="spacing" textLength="156.3037" x="27" y="121.1826">UUID createdByUserId</text><text fill="#000000" font-family="sans-serif" font-size="14" lengthAdjust="spacing" textLength="4.4502" x="27" y="137.4795">&#160;</text><g data-visibility-modifier="PUBLIC_FIELD"><ellipse cx="18" cy="150.4297" fill="none" rx="3" ry="3" style="stroke:#038048;stroke-width:1;"/></g><text fill="#000000" font-family="sans-serif" font-size="14" lengthAdjust="spacing" textLength="130.2861" x="27" y="153.7764">ContractType type</text><g data-visibility-modifier="PUBLIC_FIELD"><ellipse cx="18" cy="166.7266" fill="none" rx="3" ry="3" style="stroke:#038048;stroke-width:1;"/></g><text fill="#000000" font-family="sans-serif" font-size="14" lengthAdjust="spacing" textLength="152.3047" x="27" y="170.0732">ContractStatus status</text><text fill="#000000" font-family="sans-serif" font-size="14" lengthAdjust="spacing" textLength="4.4502" x="27" y="186.3701">&#160;</text><g data-visibility-modifier="PUBLIC_FIELD"><ellipse cx="18" cy="199.3203" fill="none" rx="3" ry="3" style="stroke:#038048;stroke-width:1;"/></g><text fill="#000000" font-family="sans-serif" font-size="14" lengthAdjust="spacing" textLength="271.9404" x="27" y="202.667">WorkScheduleType workScheduleType</text><text fill="#000000" font-family="sans-serif" font-size="14" lengthAdjust="spacing" textLength="4.4502" x="27" y="218.9639">&#160;</text><g data-visibility-modifier="PUBLIC_FIELD"><ellipse cx="18" cy="231.9141" fill="none" rx="3" ry="3" style="stroke:#038048;stroke-width:1;"/></g><text fill="#000000" font-family="sans-serif" font-size="14" lengthAdjust="spacing" textLength="158.9355" x="27" y="235.2607">Decimal salaryAmount</text><g data-visibility-modifier="PUBLIC_FIELD"><ellipse cx="18" cy="248.2109" fill="none" rx="3" ry="3" style="stroke:#038048;stroke-width:1;"/></g><text fill="#000000" font-family="sans-serif" font-size="14" lengthAdjust="spacing" textLength="129.6299" x="27" y="251.5576">Currency currency</text><g data-visibility-modifier="PUBLIC_FIELD"><ellipse cx="18" cy="264.5078" fill="none" rx="3" ry="3" style="stroke:#038048;stroke-width:1;"/></g><text fill="#000000" font-family="sans-serif" font-size="14" lengthAdjust="spacing" textLength="143.8145" x="27" y="267.8545">PayPeriod payPeriod</text><text fill="#000000" font-family="sans-serif" font-size="14" lengthAdjust="spacing" textLength="4.4502" x="27" y="284.1514">&#160;</text><g data-visibility-modifier="PUBLIC_FIELD"><ellipse cx="18" cy="297.1016" fill="none" rx="3" ry="3" style="stroke:#038048;stroke-width:1;"/></g><text fill="#000000" font-family="sans-serif" font-size="14" lengthAdjust="spacing" textLength="103.9814" x="27" y="300.4482">Date startDate</text><g data-visibility-modifier="PUBLIC_FIELD"><ellipse cx="18" cy="313.3984" fill="none" rx="3" ry="3" style="stroke:#038048;stroke-width:1;"/></g><text fill="#000000" font-family="sans-serif" font-size="14" lengthAdjust="spacing" textLength="105.1777" x="27" y="316.7451">Date? endDate</text><text fill="#000000" font-family="sans-serif" font-size="14" lengthAdjust="spacing" textLength="4.4502" x="27" y="333.042">&#160;</text><g data-visibility-modifier="PUBLIC_FIELD"><ellipse cx="18" cy="345.9922" fill="none" rx="3" ry="3" style="stroke:#038048;stroke-width:1;"/></g><text fill="#000000" font-family="sans-serif" font-size="14" lengthAdjust="spacing" textLength="141.3057" x="27" y="349.3389">DateTime createdAt</text><line style="stroke:#181818;stroke-width:0.5;" x1="8" x2="303.9404" y1="356.6406" y2="356.6406"/></g><!--class ContractTermination--><g class="entity" data-qualified-name="ContractTermination" data-source-line="23" id="ent0002"><rect fill="#F1F1F1" height="259.8594" rx="2.5" ry="2.5" style="stroke:#181818;stroke-width:0.5;" width="274.7256" x="18.61" y="424.64"/><ellipse cx="79.2516" cy="440.64" fill="#ADD1B2" rx="11" ry="11" style="stroke:#181818;stroke-width:1;"/><path d="M82.2204,446.2806 Q81.6422,446.5775 81.0016,446.7181 Q80.361,446.8744 79.6579,446.8744 Q77.1579,446.8744 75.8297,445.2338 Q74.5172,443.5775 74.5172,440.4525 Q74.5172,437.3275 75.8297,435.6713 Q77.1579,434.015 79.6579,434.015 Q80.361,434.015 81.0016,434.1713 Q81.6579,434.3275 82.2204,434.6244 L82.2204,437.3431 Q81.5954,436.765 81.0016,436.4994 Q80.4079,436.2181 79.7829,436.2181 Q78.4391,436.2181 77.7516,437.2963 Q77.0641,438.3588 77.0641,440.4525 Q77.0641,442.5463 77.7516,443.6244 Q78.4391,444.6869 79.7829,444.6869 Q80.4079,444.6869 81.0016,444.4213 Q81.5954,444.14 82.2204,443.5619 L82.2204,446.2806 Z " fill="#000000"/><text fill="#000000" font-family="sans-serif" font-size="14" lengthAdjust="spacing" textLength="144.9424" x="99.7516" y="445.4867">ContractTermination</text><line style="stroke:#181818;stroke-width:0.5;" x1="19.61" x2="292.3356" y1="456.64" y2="456.64"/><g data-visibility-modifier="PUBLIC_FIELD"><ellipse cx="29.61" cy="470.2884" fill="none" rx="3" ry="3" style="stroke:#038048;stroke-width:1;"/></g><text fill="#000000" font-family="sans-serif" font-size="14" lengthAdjust="spacing" textLength="52.6299" x="38.61" y="473.6351">UUID id</text><text fill="#000000" font-family="sans-serif" font-size="14" lengthAdjust="spacing" textLength="4.4502" x="38.61" y="489.932">&#160;</text><g data-visibility-modifier="PUBLIC_FIELD"><ellipse cx="29.61" cy="502.8822" fill="none" rx="3" ry="3" style="stroke:#038048;stroke-width:1;"/></g><text fill="#000000" font-family="sans-serif" font-size="14" lengthAdjust="spacing" textLength="111.0156" x="38.61" y="506.2289">UUID contractId</text><text fill="#000000" font-family="sans-serif" font-size="14" lengthAdjust="spacing" textLength="4.4502" x="38.61" y="522.5257">&#160;</text><g data-visibility-modifier="PUBLIC_FIELD"><ellipse cx="29.61" cy="535.4759" fill="none" rx="3" ry="3" style="stroke:#038048;stroke-width:1;"/></g><text fill="#000000" font-family="sans-serif" font-size="14" lengthAdjust="spacing" textLength="248.7256" x="38.61" y="538.8226">ContractTerminationReason reason</text><g data-visibility-modifier="PUBLIC_FIELD"><ellipse cx="29.61" cy="551.7728" fill="none" rx="3" ry="3" style="stroke:#038048;stroke-width:1;"/></g><text fill="#000000" font-family="sans-serif" font-size="14" lengthAdjust="spacing" textLength="120.1758" x="38.61" y="555.1195">String? comment</text><text fill="#000000" font-family="sans-serif" font-size="14" lengthAdjust="spacing" textLength="4.4502" x="38.61" y="571.4164">&#160;</text><g data-visibility-modifier="PUBLIC_FIELD"><ellipse cx="29.61" cy="584.3666" fill="none" rx="3" ry="3" style="stroke:#038048;stroke-width:1;"/></g><text fill="#000000" font-family="sans-serif" font-size="14" lengthAdjust="spacing" textLength="180.4961" x="38.61" y="587.7132">UUID terminatedByUserId</text><text fill="#000000" font-family="sans-serif" font-size="14" lengthAdjust="spacing" textLength="4.4502" x="38.61" y="604.0101">&#160;</text><g data-visibility-modifier="PUBLIC_FIELD"><ellipse cx="29.61" cy="616.9603" fill="none" rx="3" ry="3" style="stroke:#038048;stroke-width:1;"/></g><text fill="#000000" font-family="sans-serif" font-size="14" lengthAdjust="spacing" textLength="222.0859" x="38.61" y="620.307">String? settlementDocumentUrl</text><text fill="#000000" font-family="sans-serif" font-size="14" lengthAdjust="spacing" textLength="4.4502" x="38.61" y="636.6039">&#160;</text><g data-visibility-modifier="PUBLIC_FIELD"><ellipse cx="29.61" cy="649.5541" fill="none" rx="3" ry="3" style="stroke:#038048;stroke-width:1;"/></g><text fill="#000000" font-family="sans-serif" font-size="14" lengthAdjust="spacing" textLength="153.0293" x="38.61" y="652.9007">Date terminationDate</text><g data-visibility-modifier="PUBLIC_FIELD"><ellipse cx="29.61" cy="665.8509" fill="none" rx="3" ry="3" style="stroke:#038048;stroke-width:1;"/></g><text fill="#000000" font-family="sans-serif" font-size="14" lengthAdjust="spacing" textLength="141.3057" x="38.61" y="669.1976">DateTime createdAt</text><line style="stroke:#181818;stroke-width:0.5;" x1="19.61" x2="292.3356" y1="676.4994" y2="676.4994"/></g><!--link EmploymentContract to ContractTermination--><g class="link" data-entity-1="ent0001" data-entity-2="ent0002" data-link-type="dependency" data-source-line="39" id="lnk3"><path codeLine="39" d="M155.97,365.09 C155.97,385.06 155.97,400.1 155.97,419.28" fill="none" id="EmploymentContract-to-ContractTermination" style="stroke:#181818;stroke-width:1;"/><polygon fill="#181818" points="155.97,424.28,159.97,415.28,155.97,419.28,151.97,415.28,155.97,424.28" style="stroke:#181818;stroke-width:1;stroke-linejoin:miter;stroke-miterlimit:10;"/><text fill="#000000" font-family="sans-serif" font-size="13" lengthAdjust="spacing" textLength="8.271" x="147.819" y="384.4552">1</text><text fill="#000000" font-family="sans-serif" font-size="13" lengthAdjust="spacing" textLength="24.8066" x="131.2994" y="413.3848">0..1</text></g><?plantuml-src TLBBJiCm4BpdArQzebRq1wWAuT1RHHfnNfmLMFWHhJT25kBVYTswYKAvU4VZcRLdRMKm17YslV7HafCdxuHH2NnN07TjUwX1TzKLAsyCldb6yNoOyqmer3t6Db3PAArEiIUGSPcJZQ0C0K8kMVxg-RDH7zGDXhBbQq5aLKrAMpGGq237lVM3azntO2Qd8gWBIEGHuv5O-mxwWivDnhkceraIAimEo7MPACn9MohHzbBzL9NAuxec8xRQeMZl_ftNMRaSoMHy8GoZdND9caPOk_VTQBNfGQPUSZ4jnbpqWKGC9KljrP1gosQAAzEHyz1_8zxu2wlj2jRh1rZTRpOZl97Y5m00?></g></svg>