<svg xmlns="http://www.w3.org/2000/svg" xmlns:xlink="http://www.w3.org/1999/xlink" contentStyleType="text/css" data-diagram-type="CLASS" height="487px" preserveAspectRatio="none" style="width:428px;height:487px;background:#FFFFFF;" version="1.1" viewBox="0 0 428 487" width="428px" zoomAndPan="magnify"><?plantuml 1.2026.5?><defs/><g><!--class Claim--><g class="entity" data-qualified-name="Claim" data-source-line="1" id="ent0001"><rect fill="#F1F1F1" height="259.8594" rx="2.5" ry="2.5" style="stroke:#181818;stroke-width:0.5;" width="236.6904" x="100.87" y="7"/><ellipse cx="195.0795" cy="23" fill="#ADD1B2" rx="11" ry="11" style="stroke:#181818;stroke-width:1;"/><path d="M198.0482,28.6406 Q197.4701,28.9375 196.8295,29.0781 Q196.1888,29.2344 195.4857,29.2344 Q192.9857,29.2344 191.6576,27.5938 Q190.3451,25.9375 190.3451,22.8125 Q190.3451,19.6875 191.6576,18.0313 Q192.9857,16.375 195.4857,16.375 Q196.1888,16.375 196.8295,16.5313 Q197.4857,16.6875 198.0482,16.9844 L198.0482,19.7031 Q197.4232,19.125 196.8295,18.8594 Q196.2357,18.5781 195.6107,18.5781 Q194.267,18.5781 193.5795,19.6563 Q192.892,20.7188 192.892,22.8125 Q192.892,24.9063 193.5795,25.9844 Q194.267,27.0469 195.6107,27.0469 Q196.2357,27.0469 196.8295,26.7813 Q197.4232,26.5 198.0482,25.9219 L198.0482,28.6406 Z " fill="#000000"/><text fill="#000000" font-family="sans-serif" font-size="14" lengthAdjust="spacing" textLength="39.7715" x="215.5795" y="27.8467">Claim</text><line style="stroke:#181818;stroke-width:0.5;" x1="101.87" x2="336.5604" y1="39" y2="39"/><g data-visibility-modifier="PUBLIC_FIELD"><ellipse cx="111.87" cy="52.6484" fill="none" rx="3" ry="3" style="stroke:#038048;stroke-width:1;"/></g><text fill="#000000" font-family="sans-serif" font-size="14" lengthAdjust="spacing" textLength="52.6299" x="120.87" y="55.9951">UUID id</text><g data-visibility-modifier="PUBLIC_FIELD"><ellipse cx="111.87" cy="68.9453" fill="none" rx="3" ry="3" style="stroke:#038048;stroke-width:1;"/></g><text fill="#000000" font-family="sans-serif" font-size="14" lengthAdjust="spacing" textLength="117.3936" x="120.87" y="72.292">UUID companyId</text><g data-visibility-modifier="PUBLIC_FIELD"><ellipse cx="111.87" cy="85.2422" fill="none" rx="3" ry="3" style="stroke:#038048;stroke-width:1;"/></g><text fill="#000000" font-family="sans-serif" font-size="14" lengthAdjust="spacing" textLength="210.6904" x="120.87" y="88.5889">UUID createdByCollaboratorId</text><g data-visibility-modifier="PUBLIC_FIELD"><ellipse cx="111.87" cy="101.5391" fill="none" rx="3" ry="3" style="stroke:#038048;stroke-width:1;"/></g><text fill="#000000" font-family="sans-serif" font-size="14" lengthAdjust="spacing" textLength="143.5547" x="120.87" y="104.8857">ClaimReason reason</text><g data-visibility-modifier="PUBLIC_FIELD"><ellipse cx="111.87" cy="117.8359" fill="none" rx="3" ry="3" style="stroke:#038048;stroke-width:1;"/></g><text fill="#000000" font-family="sans-serif" font-size="14" lengthAdjust="spacing" textLength="144.8125" x="120.87" y="121.1826">ClaimPriority priority</text><g data-visibility-modifier="PUBLIC_FIELD"><ellipse cx="111.87" cy="134.1328" fill="none" rx="3" ry="3" style="stroke:#038048;stroke-width:1;"/></g><text fill="#000000" font-family="sans-serif" font-size="14" lengthAdjust="spacing" textLength="131.8516" x="120.87" y="137.4795">ClaimStatus status</text><g data-visibility-modifier="PUBLIC_FIELD"><ellipse cx="111.87" cy="150.4297" fill="none" rx="3" ry="3" style="stroke:#038048;stroke-width:1;"/></g><text fill="#000000" font-family="sans-serif" font-size="14" lengthAdjust="spacing" textLength="73.6025" x="120.87" y="153.7764">String title</text><g data-visibility-modifier="PUBLIC_FIELD"><ellipse cx="111.87" cy="166.7266" fill="none" rx="3" ry="3" style="stroke:#038048;stroke-width:1;"/></g><text fill="#000000" font-family="sans-serif" font-size="14" lengthAdjust="spacing" textLength="124.0723" x="120.87" y="170.0732">String description</text><g data-visibility-modifier="PUBLIC_FIELD"><ellipse cx="111.87" cy="183.0234" fill="none" rx="3" ry="3" style="stroke:#038048;stroke-width:1;"/></g><text fill="#000000" font-family="sans-serif" font-size="14" lengthAdjust="spacing" textLength="171.6436" x="120.87" y="186.3701">UUID? assignedToUserId</text><g data-visibility-modifier="PUBLIC_FIELD"><ellipse cx="111.87" cy="199.3203" fill="none" rx="3" ry="3" style="stroke:#038048;stroke-width:1;"/></g><text fill="#000000" font-family="sans-serif" font-size="14" lengthAdjust="spacing" textLength="141.3057" x="120.87" y="202.667">DateTime createdAt</text><g data-visibility-modifier="PUBLIC_FIELD"><ellipse cx="111.87" cy="215.6172" fill="none" rx="3" ry="3" style="stroke:#038048;stroke-width:1;"/></g><text fill="#000000" font-family="sans-serif" font-size="14" lengthAdjust="spacing" textLength="153.3164" x="120.87" y="218.9639">DateTime? updatedAt</text><g data-visibility-modifier="PUBLIC_FIELD"><ellipse cx="111.87" cy="231.9141" fill="none" rx="3" ry="3" style="stroke:#038048;stroke-width:1;"/></g><text fill="#000000" font-family="sans-serif" font-size="14" lengthAdjust="spacing" textLength="155.0049" x="120.87" y="235.2607">DateTime? resolvedAt</text><g data-visibility-modifier="PUBLIC_FIELD"><ellipse cx="111.87" cy="248.2109" fill="none" rx="3" ry="3" style="stroke:#038048;stroke-width:1;"/></g><text fill="#000000" font-family="sans-serif" font-size="14" lengthAdjust="spacing" textLength="161.8408" x="120.87" y="251.5576">DateTime? cancelledAt</text><line style="stroke:#181818;stroke-width:0.5;" x1="101.87" x2="336.5604" y1="258.8594" y2="258.8594"/></g><!--class ClaimComment--><g class="entity" data-qualified-name="ClaimComment" data-source-line="17" id="ent0002"><rect fill="#F1F1F1" height="145.7813" rx="2.5" ry="2.5" style="stroke:#181818;stroke-width:0.5;" width="204.4248" x="7" y="326.86"/><ellipse cx="50.8277" cy="342.86" fill="#ADD1B2" rx="11" ry="11" style="stroke:#181818;stroke-width:1;"/><path d="M53.7964,348.5006 Q53.2183,348.7975 52.5777,348.9381 Q51.9371,349.0944 51.2339,349.0944 Q48.7339,349.0944 47.4058,347.4538 Q46.0933,345.7975 46.0933,342.6725 Q46.0933,339.5475 47.4058,337.8913 Q48.7339,336.235 51.2339,336.235 Q51.9371,336.235 52.5777,336.3913 Q53.2339,336.5475 53.7964,336.8444 L53.7964,339.5631 Q53.1714,338.985 52.5777,338.7194 Q51.9839,338.4381 51.3589,338.4381 Q50.0152,338.4381 49.3277,339.5163 Q48.6402,340.5788 48.6402,342.6725 Q48.6402,344.7663 49.3277,345.8444 Q50.0152,346.9069 51.3589,346.9069 Q51.9839,346.9069 52.5777,346.6413 Q53.1714,346.36 53.7964,345.7819 L53.7964,348.5006 Z " fill="#000000"/><text fill="#000000" font-family="sans-serif" font-size="14" lengthAdjust="spacing" textLength="108.3633" x="71.2338" y="347.7067">ClaimComment</text><line style="stroke:#181818;stroke-width:0.5;" x1="8" x2="210.4248" y1="358.86" y2="358.86"/><g data-visibility-modifier="PUBLIC_FIELD"><ellipse cx="18" cy="372.5084" fill="none" rx="3" ry="3" style="stroke:#038048;stroke-width:1;"/></g><text fill="#000000" font-family="sans-serif" font-size="14" lengthAdjust="spacing" textLength="52.6299" x="27" y="375.8551">UUID id</text><g data-visibility-modifier="PUBLIC_FIELD"><ellipse cx="18" cy="388.8053" fill="none" rx="3" ry="3" style="stroke:#038048;stroke-width:1;"/></g><text fill="#000000" font-family="sans-serif" font-size="14" lengthAdjust="spacing" textLength="90.5625" x="27" y="392.152">UUID claimId</text><g data-visibility-modifier="PUBLIC_FIELD"><ellipse cx="18" cy="405.1022" fill="none" rx="3" ry="3" style="stroke:#038048;stroke-width:1;"/></g><text fill="#000000" font-family="sans-serif" font-size="14" lengthAdjust="spacing" textLength="130.915" x="27" y="408.4489">UUID authorUserId</text><g data-visibility-modifier="PUBLIC_FIELD"><ellipse cx="18" cy="421.3991" fill="none" rx="3" ry="3" style="stroke:#038048;stroke-width:1;"/></g><text fill="#000000" font-family="sans-serif" font-size="14" lengthAdjust="spacing" textLength="178.4248" x="27" y="424.7457">ClaimCommentType type</text><g data-visibility-modifier="PUBLIC_FIELD"><ellipse cx="18" cy="437.6959" fill="none" rx="3" ry="3" style="stroke:#038048;stroke-width:1;"/></g><text fill="#000000" font-family="sans-serif" font-size="14" lengthAdjust="spacing" textLength="99.832" x="27" y="441.0426">String content</text><g data-visibility-modifier="PUBLIC_FIELD"><ellipse cx="18" cy="453.9928" fill="none" rx="3" ry="3" style="stroke:#038048;stroke-width:1;"/></g><text fill="#000000" font-family="sans-serif" font-size="14" lengthAdjust="spacing" textLength="141.3057" x="27" y="457.3395">DateTime createdAt</text><line style="stroke:#181818;stroke-width:0.5;" x1="8" x2="210.4248" y1="464.6413" y2="464.6413"/></g><!--class ClaimEvidence--><g class="entity" data-qualified-name="ClaimEvidence" data-source-line="26" id="ent0003"><rect fill="#F1F1F1" height="145.7813" rx="2.5" ry="2.5" style="stroke:#181818;stroke-width:0.5;" width="167.3057" x="246.56" y="326.86"/><ellipse cx="275.8835" cy="342.86" fill="#ADD1B2" rx="11" ry="11" style="stroke:#181818;stroke-width:1;"/><path d="M278.8523,348.5006 Q278.2742,348.7975 277.6335,348.9381 Q276.9929,349.0944 276.2898,349.0944 Q273.7898,349.0944 272.4617,347.4538 Q271.1492,345.7975 271.1492,342.6725 Q271.1492,339.5475 272.4617,337.8913 Q273.7898,336.235 276.2898,336.235 Q276.9929,336.235 277.6335,336.3913 Q278.2898,336.5475 278.8523,336.8444 L278.8523,339.5631 Q278.2273,338.985 277.6335,338.7194 Q277.0398,338.4381 276.4148,338.4381 Q275.071,338.4381 274.3835,339.5163 Q273.696,340.5788 273.696,342.6725 Q273.696,344.7663 274.3835,345.8444 Q275.071,346.9069 276.4148,346.9069 Q277.0398,346.9069 277.6335,346.6413 Q278.2273,346.36 278.8523,345.7819 L278.8523,348.5006 Z " fill="#000000"/><text fill="#000000" font-family="sans-serif" font-size="14" lengthAdjust="spacing" textLength="103.4756" x="293.0665" y="347.7067">ClaimEvidence</text><line style="stroke:#181818;stroke-width:0.5;" x1="247.56" x2="412.8657" y1="358.86" y2="358.86"/><g data-visibility-modifier="PUBLIC_FIELD"><ellipse cx="257.56" cy="372.5084" fill="none" rx="3" ry="3" style="stroke:#038048;stroke-width:1;"/></g><text fill="#000000" font-family="sans-serif" font-size="14" lengthAdjust="spacing" textLength="52.6299" x="266.56" y="375.8551">UUID id</text><g data-visibility-modifier="PUBLIC_FIELD"><ellipse cx="257.56" cy="388.8053" fill="none" rx="3" ry="3" style="stroke:#038048;stroke-width:1;"/></g><text fill="#000000" font-family="sans-serif" font-size="14" lengthAdjust="spacing" textLength="90.5625" x="266.56" y="392.152">UUID claimId</text><g data-visibility-modifier="PUBLIC_FIELD"><ellipse cx="257.56" cy="405.1022" fill="none" rx="3" ry="3" style="stroke:#038048;stroke-width:1;"/></g><text fill="#000000" font-family="sans-serif" font-size="14" lengthAdjust="spacing" textLength="108.8555" x="266.56" y="408.4489">String fileName</text><g data-visibility-modifier="PUBLIC_FIELD"><ellipse cx="257.56" cy="421.3991" fill="none" rx="3" ry="3" style="stroke:#038048;stroke-width:1;"/></g><text fill="#000000" font-family="sans-serif" font-size="14" lengthAdjust="spacing" textLength="87.4453" x="266.56" y="424.7457">String fileUrl</text><g data-visibility-modifier="PUBLIC_FIELD"><ellipse cx="257.56" cy="437.6959" fill="none" rx="3" ry="3" style="stroke:#038048;stroke-width:1;"/></g><text fill="#000000" font-family="sans-serif" font-size="14" lengthAdjust="spacing" textLength="120.3467" x="266.56" y="441.0426">String mimeType</text><g data-visibility-modifier="PUBLIC_FIELD"><ellipse cx="257.56" cy="453.9928" fill="none" rx="3" ry="3" style="stroke:#038048;stroke-width:1;"/></g><text fill="#000000" font-family="sans-serif" font-size="14" lengthAdjust="spacing" textLength="141.3057" x="266.56" y="457.3395">DateTime createdAt</text><line style="stroke:#181818;stroke-width:0.5;" x1="247.56" x2="412.8657" y1="464.6413" y2="464.6413"/></g><!--link Claim to ClaimComment--><g class="link" data-entity-1="ent0001" data-entity-2="ent0002" data-link-type="dependency" data-source-line="35" id="lnk4"><path codeLine="35" d="M164.7,267.19 C156.11,287.56 149.4418,303.3525 141.6618,321.8125" fill="none" id="Claim-to-ClaimComment" style="stroke:#181818;stroke-width:1;"/><polygon fill="#181818" points="139.72,326.42,146.9013,319.6799,141.6618,321.8125,139.5293,316.573,139.72,326.42" style="stroke:#181818;stroke-width:1;stroke-linejoin:miter;stroke-miterlimit:10;"/><text fill="#000000" font-family="sans-serif" font-size="13" lengthAdjust="spacing" textLength="8.271" x="153.5074" y="286.7943">1</text><text fill="#000000" font-family="sans-serif" font-size="13" lengthAdjust="spacing" textLength="6.5" x="136.3656" y="315.7891">*</text></g><!--link Claim to ClaimEvidence--><g class="link" data-entity-1="ent0001" data-entity-2="ent0003" data-link-type="dependency" data-source-line="36" id="lnk5"><path codeLine="36" d="M274.22,267.19 C282.89,287.56 289.6233,303.3587 297.4733,321.8187" fill="none" id="Claim-to-ClaimEvidence" style="stroke:#181818;stroke-width:1;"/><polygon fill="#181818" points="299.43,326.42,299.589,316.5724,297.4733,321.8187,292.227,319.7031,299.43,326.42" style="stroke:#181818;stroke-width:1;stroke-linejoin:miter;stroke-miterlimit:10;"/><text fill="#000000" font-family="sans-serif" font-size="13" lengthAdjust="spacing" textLength="8.271" x="269.0167" y="286.7943">1</text><text fill="#000000" font-family="sans-serif" font-size="13" lengthAdjust="spacing" textLength="6.5" x="290.2339" y="315.7891">*</text></g><?plantuml-src XP9DJiCm48NtESKeIr0NN80AKXRTL8Wc1p3sK4QoFP4zgHGXxexpqzI5LcmyzdlMypSZQwjYXCegSl1L0DmtpNO3P9QjPjSgtsyp9Q0IDCzznTQgTmvAE4p-cFE6AhA7C9P5VGt4WQI7TjuipbwKT17YM0PrBu7y0OJ4OdOs67MWLcXA7LZMaEZfuD7Kt4ISAJO9hoQ79z8doTKrTAsv9WUCR8z_TQsyHcj7uxiez7bY5Jk7NcuCRhYHZKrryidXJ9adr7sB86d9sjNi9Lat6he4UJcImKJvBycS_K4MTyhXBwa9DbDSUh6UcQuJJD-cV2XXjNg4ygwy6Cij-mJx0m00?></g></svg>