<svg xmlns="http://www.w3.org/2000/svg" xmlns:xlink="http://www.w3.org/1999/xlink" contentStyleType="text/css" data-diagram-type="CLASS" height="373px" preserveAspectRatio="none" style="width:355px;height:373px;background:#FFFFFF;" version="1.1" viewBox="0 0 355 373" width="355px" zoomAndPan="magnify"><?plantuml 1.2026.5?><defs/><g><!--class ClaimReason--><g class="entity" data-qualified-name="ClaimReason" data-source-line="1" id="ent0001"><rect fill="#F1F1F1" height="162.0781" rx="2.5" ry="2.5" style="stroke:#181818;stroke-width:0.5;" width="131.0137" x="7" y="7"/><ellipse cx="25.4154" cy="23" fill="#EB937F" rx="11" ry="11" style="stroke:#181818;stroke-width:1;"/><path d="M29.5248,29 L21.8061,29 L21.8061,16.6094 L29.5248,16.6094 L29.5248,18.7656 L24.2592,18.7656 L24.2592,21.4375 L29.0248,21.4375 L29.0248,23.5938 L24.2592,23.5938 L24.2592,26.8438 L29.5248,26.8438 L29.5248,29 Z " fill="#000000"/><text fill="#000000" font-family="sans-serif" font-size="14" lengthAdjust="spacing" textLength="91.4238" x="40.1744" y="27.8467">ClaimReason</text><line style="stroke:#181818;stroke-width:0.5;" x1="8" x2="137.0137" y1="39" y2="39"/><text fill="#000000" font-family="sans-serif" font-size="14" lengthAdjust="spacing" textLength="75.708" x="13" y="55.9951">SCHEDULE</text><text fill="#000000" font-family="sans-serif" font-size="14" lengthAdjust="spacing" textLength="40.1475" x="13" y="72.292">SHIFT</text><text fill="#000000" font-family="sans-serif" font-size="14" lengthAdjust="spacing" textLength="66.5205" x="13" y="88.5889">PAYMENT</text><text fill="#000000" font-family="sans-serif" font-size="14" lengthAdjust="spacing" textLength="95.4502" x="13" y="104.8857">ATTENDANCE</text><text fill="#000000" font-family="sans-serif" font-size="14" lengthAdjust="spacing" textLength="70.6221" x="13" y="121.1826">CONDUCT</text><text fill="#000000" font-family="sans-serif" font-size="14" lengthAdjust="spacing" textLength="119.0137" x="13" y="137.4795">ADMINISTRATIVE</text><text fill="#000000" font-family="sans-serif" font-size="14" lengthAdjust="spacing" textLength="48.6719" x="13" y="153.7764">OTHER</text><line style="stroke:#181818;stroke-width:0.5;" x1="8" x2="137.0137" y1="161.0781" y2="161.0781"/></g><!--class ClaimPriority--><g class="entity" data-qualified-name="ClaimPriority" data-source-line="11" id="ent0002"><rect fill="#F1F1F1" height="113.1875" rx="2.5" ry="2.5" style="stroke:#181818;stroke-width:0.5;" width="121.8447" x="172.58" y="31.44"/><ellipse cx="187.58" cy="47.44" fill="#EB937F" rx="11" ry="11" style="stroke:#181818;stroke-width:1;"/><path d="M191.6894,53.44 L183.9706,53.44 L183.9706,41.0494 L191.6894,41.0494 L191.6894,43.2056 L186.4238,43.2056 L186.4238,45.8775 L191.1894,45.8775 L191.1894,48.0338 L186.4238,48.0338 L186.4238,51.2838 L191.6894,51.2838 L191.6894,53.44 Z " fill="#000000"/><text fill="#000000" font-family="sans-serif" font-size="14" lengthAdjust="spacing" textLength="89.8447" x="201.58" y="52.2867">ClaimPriority</text><line style="stroke:#181818;stroke-width:0.5;" x1="173.58" x2="293.4247" y1="63.44" y2="63.44"/><text fill="#000000" font-family="sans-serif" font-size="14" lengthAdjust="spacing" textLength="32.6621" x="178.58" y="80.4351">LOW</text><text fill="#000000" font-family="sans-serif" font-size="14" lengthAdjust="spacing" textLength="58.1602" x="178.58" y="96.732">MEDIUM</text><text fill="#000000" font-family="sans-serif" font-size="14" lengthAdjust="spacing" textLength="36.0322" x="178.58" y="113.0289">HIGH</text><text fill="#000000" font-family="sans-serif" font-size="14" lengthAdjust="spacing" textLength="63.4648" x="178.58" y="129.3257">CRITICAL</text><line style="stroke:#181818;stroke-width:0.5;" x1="173.58" x2="293.4247" y1="136.6275" y2="136.6275"/></g><!--class ClaimStatus--><g class="entity" data-qualified-name="ClaimStatus" data-source-line="18" id="ent0003"><rect fill="#F1F1F1" height="129.4844" rx="2.5" ry="2.5" style="stroke:#181818;stroke-width:0.5;" width="116.3828" x="14.32" y="229.08"/><ellipse cx="29.32" cy="245.08" fill="#EB937F" rx="11" ry="11" style="stroke:#181818;stroke-width:1;"/><path d="M33.4294,251.08 L25.7106,251.08 L25.7106,238.6894 L33.4294,238.6894 L33.4294,240.8456 L28.1638,240.8456 L28.1638,243.5175 L32.9294,243.5175 L32.9294,245.6738 L28.1638,245.6738 L28.1638,248.9238 L33.4294,248.9238 L33.4294,251.08 Z " fill="#000000"/><text fill="#000000" font-family="sans-serif" font-size="14" lengthAdjust="spacing" textLength="84.3828" x="43.32" y="249.9267">ClaimStatus</text><line style="stroke:#181818;stroke-width:0.5;" x1="15.32" x2="129.7028" y1="261.08" y2="261.08"/><text fill="#000000" font-family="sans-serif" font-size="14" lengthAdjust="spacing" textLength="63.9912" x="20.32" y="278.0751">PENDING</text><text fill="#000000" font-family="sans-serif" font-size="14" lengthAdjust="spacing" textLength="76.5693" x="20.32" y="294.372">IN_REVIEW</text><text fill="#000000" font-family="sans-serif" font-size="14" lengthAdjust="spacing" textLength="75.4824" x="20.32" y="310.6689">RESOLVED</text><text fill="#000000" font-family="sans-serif" font-size="14" lengthAdjust="spacing" textLength="69.501" x="20.32" y="326.9657">REJECTED</text><text fill="#000000" font-family="sans-serif" font-size="14" lengthAdjust="spacing" textLength="83.6719" x="20.32" y="343.2626">CANCELLED</text><line style="stroke:#181818;stroke-width:0.5;" x1="15.32" x2="129.7028" y1="350.5644" y2="350.5644"/></g><!--class ClaimCommentType--><g class="entity" data-qualified-name="ClaimCommentType" data-source-line="26" id="ent0004"><rect fill="#F1F1F1" height="113.1875" rx="2.5" ry="2.5" style="stroke:#181818;stroke-width:0.5;" width="174.7002" x="166.16" y="237.22"/><ellipse cx="181.16" cy="253.22" fill="#EB937F" rx="11" ry="11" style="stroke:#181818;stroke-width:1;"/><path d="M185.2694,259.22 L177.5506,259.22 L177.5506,246.8294 L185.2694,246.8294 L185.2694,248.9856 L180.0038,248.9856 L180.0038,251.6575 L184.7694,251.6575 L184.7694,253.8138 L180.0038,253.8138 L180.0038,257.0638 L185.2694,257.0638 L185.2694,259.22 Z " fill="#000000"/><text fill="#000000" font-family="sans-serif" font-size="14" lengthAdjust="spacing" textLength="142.7002" x="195.16" y="258.0667">ClaimCommentType</text><line style="stroke:#181818;stroke-width:0.5;" x1="167.16" x2="339.8602" y1="269.22" y2="269.22"/><text fill="#000000" font-family="sans-serif" font-size="14" lengthAdjust="spacing" textLength="66.1172" x="172.16" y="286.2151">GENERAL</text><text fill="#000000" font-family="sans-serif" font-size="14" lengthAdjust="spacing" textLength="90.6992" x="172.16" y="302.512">RESOLUTION</text><text fill="#000000" font-family="sans-serif" font-size="14" lengthAdjust="spacing" textLength="75.4961" x="172.16" y="318.8089">REJECTION</text><text fill="#000000" font-family="sans-serif" font-size="14" lengthAdjust="spacing" textLength="69.5762" x="172.16" y="335.1057">INTERNAL</text><line style="stroke:#181818;stroke-width:0.5;" x1="167.16" x2="339.8602" y1="342.4075" y2="342.4075"/></g><?plantuml-src LOx13e8m38RlF0MlidILrOoEZ8BnP3ZiG29W50_6-Evkqv1mQR-qwVStpC-fXEimJZuCZsKktqLPjc1GTnOJ6Zf8x8qwryY9b0YoLWnf3Ovr1tciQs9gnIkXFgsS6FJ5foZ25j7Sn-K-hgySOjqfrXerTNK4GvL9Gaz2eEp-i5s7zVd8PqqC9wuY4LyyzeH9ux5rjaUTyOWW6I5zQMtadGsMQGhpAgzRoCeA6NsC_6iw8SURwCV4WfxJMry0?></g></svg>