<svg xmlns="http://www.w3.org/2000/svg" xmlns:xlink="http://www.w3.org/1999/xlink" contentStyleType="text/css" data-diagram-type="DESCRIPTION" height="1548px" preserveAspectRatio="none" style="width:1358px;height:1548px;background:#FFFFFF;" version="1.1" viewBox="0 0 1358 1548" width="1358px" zoomAndPan="magnify"><?plantuml 1.2026.4beta2?><defs/><g><!--cluster Gesti?n de turnos y calendario--><g class="cluster" data-qualified-name="Gesti.n de turnos y calendario" data-source-line="8" id="ent0006"><rect fill="none" height="617" rx="2.5" ry="2.5" style="stroke:#181818;stroke-width:1;" width="1192.86" x="152.08" y="442.54"/><text fill="#000000" font-family="sans-serif" font-size="14" font-weight="700" lengthAdjust="spacing" textLength="242.8125" x="627.1038" y="457.5351">Gesti&#243;n de turnos y calendario</text></g><!--entity UC_CreateShift--><g class="entity" data-qualified-name="Gesti.n de turnos y calendario.UC_CreateShift" data-source-line="9" id="ent0007"><ellipse cx="275.2324" cy="574.5436" fill="#F1F1F1" rx="59.9124" ry="14.5236" style="stroke:#181818;stroke-width:0.5;"/><text fill="#000000" font-family="sans-serif" font-size="14" lengthAdjust="spacing" textLength="80.4863" x="234.9893" y="579.1921">Crear turno</text></g><!--entity UC_UpdateShift--><g class="entity" data-qualified-name="Gesti.n de turnos y calendario.UC_UpdateShift" data-source-line="10" id="ent0008"><ellipse cx="614.0655" cy="751.5351" fill="#F1F1F1" rx="72.1255" ry="16.8251" style="stroke:#181818;stroke-width:0.5;"/><text fill="#000000" font-family="sans-serif" font-size="14" lengthAdjust="spacing" textLength="111.6855" x="558.2228" y="756.1835">Actualizar turno</text></g><!--entity UC_CancelShift--><g class="entity" data-qualified-name="Gesti.n de turnos y calendario.UC_CancelShift" data-source-line="11" id="ent0009"><ellipse cx="614.0693" cy="819.5439" fill="#F1F1F1" rx="68.9693" ry="16.1939" style="stroke:#181818;stroke-width:0.5;"/><text fill="#000000" font-family="sans-serif" font-size="14" lengthAdjust="spacing" textLength="103.7695" x="562.1846" y="824.1923">Cancelar turno</text></g><!--entity UC_GetShift--><g class="entity" data-qualified-name="Gesti.n de turnos y calendario.UC_GetShift" data-source-line="12" id="ent0010"><ellipse cx="275.2302" cy="790.542" fill="#F1F1F1" rx="67.2102" ry="15.842" style="stroke:#181818;stroke-width:0.5;"/><text fill="#000000" font-family="sans-serif" font-size="14" lengthAdjust="spacing" textLength="99.2578" x="225.6013" y="795.1905">Obtener turno</text></g><!--entity UC_ListShifts--><g class="entity" data-qualified-name="Gesti.n de turnos y calendario.UC_ListShifts" data-source-line="13" id="ent0011"><ellipse cx="275.2258" cy="724.5412" fill="#F1F1F1" rx="63.0058" ry="15.0012" style="stroke:#181818;stroke-width:0.5;"/><text fill="#000000" font-family="sans-serif" font-size="14" lengthAdjust="spacing" textLength="88.1084" x="231.1716" y="729.1896">Listar turnos</text></g><!--entity UC_ViewCalendar--><g class="entity" data-qualified-name="Gesti.n de turnos y calendario.UC_ViewCalendar" data-source-line="14" id="ent0012"><ellipse cx="275.2322" cy="865.5413" fill="#F1F1F1" rx="70.0122" ry="24.4713" style="stroke:#181818;stroke-width:0.5;"/><text fill="#000000" font-family="sans-serif" font-size="14" lengthAdjust="spacing" textLength="101.7256" x="224.3694" y="864.3586">Ver calendario</text><text fill="#000000" font-family="sans-serif" font-size="14" lengthAdjust="spacing" textLength="66.8008" x="241.8318" y="880.6555">de turnos</text></g><!--entity UC_AssignEmployeeShift--><g class="entity" data-qualified-name="Gesti.n de turnos y calendario.UC_AssignEmployeeShift" data-source-line="16" id="ent0013"><ellipse cx="940.2844" cy="635.5398" fill="#F1F1F1" rx="92.5244" ry="23.6898" style="stroke:#181818;stroke-width:0.5;"/><text fill="#000000" font-family="sans-serif" font-size="14" lengthAdjust="spacing" textLength="141.0322" x="869.7682" y="635.5899">Asignar colaborador</text><text fill="#000000" font-family="sans-serif" font-size="14" lengthAdjust="spacing" textLength="50.5859" x="914.9914" y="651.8868">a turno</text></g><!--entity UC_RemoveEmployeeShift--><g class="entity" data-qualified-name="Gesti.n de turnos y calendario.UC_RemoveEmployeeShift" data-source-line="17" id="ent0014"><ellipse cx="940.2826" cy="517.5401" fill="#F1F1F1" rx="87.4226" ry="23.8801" style="stroke:#181818;stroke-width:0.5;"/><text fill="#000000" font-family="sans-serif" font-size="14" lengthAdjust="spacing" textLength="131.7832" x="874.391" y="517.2836">Quitar colaborador</text><text fill="#000000" font-family="sans-serif" font-size="14" lengthAdjust="spacing" textLength="59.5068" x="910.5291" y="533.5805">de turno</text></g><!--entity UC_ReplaceEmployeeShift--><g class="entity" data-qualified-name="Gesti.n de turnos y calendario.UC_ReplaceEmployeeShift" data-source-line="18" id="ent0015"><ellipse cx="614.0731" cy="588.5366" fill="#F1F1F1" rx="108.6831" ry="24.1366" style="stroke:#181818;stroke-width:0.5;"/><text fill="#000000" font-family="sans-serif" font-size="14" lengthAdjust="spacing" textLength="171.8076" x="528.1692" y="589.0218">Reemplazar colaborador</text><text fill="#000000" font-family="sans-serif" font-size="14" lengthAdjust="spacing" textLength="59.4932" x="584.3265" y="605.3187">en turno</text></g><!--entity UC_ListAssignedEmployees--><g class="entity" data-qualified-name="Gesti.n de turnos y calendario.UC_ListAssignedEmployees" data-source-line="19" id="ent0016"><ellipse cx="275.2327" cy="1018.5416" fill="#F1F1F1" rx="101.2527" ry="25.4116" style="stroke:#181818;stroke-width:0.5;"/><text fill="#000000" font-family="sans-serif" font-size="14" lengthAdjust="spacing" textLength="142.8916" x="203.7869" y="1015.9537">Listar colaboradores</text><text fill="#000000" font-family="sans-serif" font-size="14" lengthAdjust="spacing" textLength="125.8838" x="212.2908" y="1032.2506">asignados a turno</text></g><!--entity UC_ViewMyShifts--><g class="entity" data-qualified-name="Gesti.n de turnos y calendario.UC_ViewMyShifts" data-source-line="21" id="ent0017"><ellipse cx="275.2285" cy="941.5357" fill="#F1F1F1" rx="68.4785" ry="16.0957" style="stroke:#181818;stroke-width:0.5;"/><text fill="#000000" font-family="sans-serif" font-size="14" lengthAdjust="spacing" textLength="102.5186" x="223.9693" y="946.1841">Ver mis turnos</text></g><!--entity UC_ListEmployeeShifts--><g class="entity" data-qualified-name="Gesti.n de turnos y calendario.UC_ListEmployeeShifts" data-source-line="22" id="ent0018"><ellipse cx="275.2336" cy="649.5364" fill="#F1F1F1" rx="74.9336" ry="25.1864" style="stroke:#181818;stroke-width:0.5;"/><text fill="#000000" font-family="sans-serif" font-size="14" lengthAdjust="spacing" textLength="88.1084" x="231.1794" y="644.7943">Listar turnos</text><text fill="#000000" font-family="sans-serif" font-size="14" lengthAdjust="spacing" textLength="105.6768" x="222.3952" y="661.0912">de colaborador</text></g><!--entity UC_ValidateAssignment--><g class="entity" data-qualified-name="Gesti.n de turnos y calendario.UC_ValidateAssignment" data-source-line="24" id="ent0019"><ellipse cx="1243.3678" cy="635.535" fill="#F1F1F1" rx="85.5678" ry="23.905" style="stroke:#181818;stroke-width:0.5;"/><text fill="#000000" font-family="sans-serif" font-size="14" lengthAdjust="spacing" textLength="128.7344" x="1179.0006" y="635.2387">Validar asignaci&#243;n</text><text fill="#000000" font-family="sans-serif" font-size="14" lengthAdjust="spacing" textLength="59.5068" x="1213.6144" y="651.5356">de turno</text></g><!--entity UC_Notify--><g class="entity" data-qualified-name="Gesti.n de turnos y calendario.UC_Notify" data-source-line="25" id="ent0020"><ellipse cx="275.2339" cy="501.5408" fill="#F1F1F1" rx="107.1539" ry="23.8308" style="stroke:#181818;stroke-width:0.5;"/><text fill="#000000" font-family="sans-serif" font-size="14" lengthAdjust="spacing" textLength="163.3516" x="193.5581" y="501.4116">Notificar colaboradores</text><text fill="#000000" font-family="sans-serif" font-size="14" lengthAdjust="spacing" textLength="68.6328" x="240.9175" y="517.7084">afectados</text></g><!--entity Admin--><g class="entity" data-qualified-name="Admin" data-source-line="3" id="ent0002"><ellipse cx="55.54" cy="725.74" fill="#F1F1F1" rx="8" ry="8" style="stroke:#181818;stroke-width:0.5;"/><path d="M55.54,733.74 L55.54,760.74 M42.54,741.74 L68.54,741.74 M55.54,760.74 L42.54,775.74 M55.54,760.74 L68.54,775.74" fill="none" style="stroke:#181818;stroke-width:0.5;"/><text fill="#000000" font-family="sans-serif" font-size="14" lengthAdjust="spacing" textLength="99.0801" x="6" y="790.2351">Administrador</text><text fill="#000000" font-family="sans-serif" font-size="14" lengthAdjust="spacing" textLength="83.3301" x="6" y="806.532">de empresa</text></g><!--entity Manager--><g class="entity" data-qualified-name="Manager" data-source-line="4" id="ent0003"><ellipse cx="55.543" cy="1053.74" fill="#F1F1F1" rx="8" ry="8" style="stroke:#181818;stroke-width:0.5;"/><path d="M55.543,1061.74 L55.543,1088.74 M42.543,1069.74 L68.543,1069.74 M55.543,1088.74 L42.543,1103.74 M55.543,1088.74 L68.543,1103.74" fill="none" style="stroke:#181818;stroke-width:0.5;"/><text fill="#000000" font-family="sans-serif" font-size="14" lengthAdjust="spacing" textLength="56.8066" x="15.44" y="1118.2351">Gerente</text><text fill="#000000" font-family="sans-serif" font-size="14" lengthAdjust="spacing" textLength="80.2061" x="15.44" y="1134.532">de sucursal</text></g><!--entity Supervisor--><g class="entity" data-qualified-name="Supervisor" data-source-line="5" id="ent0004"><ellipse cx="55.5428" cy="405.89" fill="#F1F1F1" rx="8" ry="8" style="stroke:#181818;stroke-width:0.5;"/><path d="M55.5428,413.89 L55.5428,440.89 M42.5428,421.89 L68.5428,421.89 M55.5428,440.89 L42.5428,455.89 M55.5428,440.89 L68.5428,455.89" fill="none" style="stroke:#181818;stroke-width:0.5;"/><text fill="#000000" font-family="sans-serif" font-size="14" lengthAdjust="spacing" textLength="74.8057" x="18.14" y="470.3851">Supervisor</text></g><!--entity Employee--><g class="entity" data-qualified-name="Employee" data-source-line="6" id="ent0005"><ellipse cx="55.5423" cy="919.89" fill="#F1F1F1" rx="8" ry="8" style="stroke:#181818;stroke-width:0.5;"/><path d="M55.5423,927.89 L55.5423,954.89 M42.5423,935.89 L68.5423,935.89 M55.5423,954.89 L42.5423,969.89 M55.5423,954.89 L68.5423,969.89" fill="none" style="stroke:#181818;stroke-width:0.5;"/><text fill="#000000" font-family="sans-serif" font-size="14" lengthAdjust="spacing" textLength="85.8047" x="12.64" y="984.3851">Colaborador</text></g><!--link Admin to UC_ViewCalendar--><g class="link" data-entity-1="ent0002" data-entity-2="ent0012" data-link-type="dependency" data-source-line="28" id="lnk21"><path d="M80.08,810.09 C93.21,830.76 111.68,852.98 135.08,864.54 C158.48,876.09 180.9118,878.4455 205.9518,876.8755" fill="none" id="Admin-to-UC_ViewCalendar" style="stroke:#181818;stroke-width:1;"/><polygon fill="#181818" points="211.94,876.5,202.7073,873.071,206.9498,876.8129,203.2079,881.0554,211.94,876.5" style="stroke:#181818;stroke-width:1;"/></g><!--link Admin to UC_ListShifts--><g class="link" data-entity-1="ent0002" data-entity-2="ent0011" data-link-type="dependency" data-source-line="29" id="lnk22"><path d="M80.04,716.91 C93.17,696.22 111.63,674 135.08,662.54 C147.58,656.42 134.14,682.79 144.08,692.54 C162.11,710.21 182.3054,717.7019 206.4254,721.5619" fill="none" id="Admin-to-UC_ListShifts" style="stroke:#181818;stroke-width:1;"/><polygon fill="#181818" points="212.35,722.51,204.0952,717.1381,207.4128,721.7199,202.831,725.0375,212.35,722.51" style="stroke:#181818;stroke-width:1;"/></g><!--link Admin to UC_GetShift--><g class="link" data-entity-1="ent0002" data-entity-2="ent0010" data-link-type="dependency" data-source-line="30" id="lnk23"><path d="M105.39,769.6 C137.86,773.62 174.7357,778.1907 209.1257,782.4607" fill="none" id="Admin-to-UC_GetShift" style="stroke:#181818;stroke-width:1;"/><polygon fill="#181818" points="215.08,783.2,206.6415,778.1215,210.1181,782.5839,205.6557,786.0606,215.08,783.2" style="stroke:#181818;stroke-width:1;"/></g><!--link Manager to UC_CreateShift--><g class="link" data-entity-1="ent0003" data-entity-2="ent0007" data-link-type="dependency" data-source-line="32" id="lnk24"><path d="M87.52,1044.95 C94.4,1032.6 100.89,1018.96 105.08,1005.54 C131.65,920.5 84.92,673.15 144.08,606.54 C161.77,586.61 183.7201,578.8838 209.1701,575.5738" fill="none" id="Manager-to-UC_CreateShift" style="stroke:#181818;stroke-width:1;"/><polygon fill="#181818" points="215.12,574.8,205.6793,571.9942,210.1618,575.4449,206.7111,579.9273,215.12,574.8" style="stroke:#181818;stroke-width:1;"/></g><!--link Manager to UC_UpdateShift--><g class="link" data-entity-1="ent0003" data-entity-2="ent0008" data-link-type="dependency" data-source-line="33" id="lnk25"><path d="M95.95,1129.52 C107.65,1138.48 121.1,1146.81 135.08,1151.54 C278.77,1200.14 367.51,1232.18 475.39,1125.54 C529.33,1072.21 457.9,844.68 505.39,785.54 C516.13,772.16 526.3724,765.7149 542.7524,760.7049" fill="none" id="Manager-to-UC_UpdateShift" style="stroke:#181818;stroke-width:1;"/><polygon fill="#181818" points="548.49,758.95,538.7136,757.7573,543.7087,760.4124,541.0535,765.4074,548.49,758.95" style="stroke:#181818;stroke-width:1;"/></g><!--link Manager to UC_CancelShift--><g class="link" data-entity-1="ent0003" data-entity-2="ent0009" data-link-type="dependency" data-source-line="34" id="lnk26"><path d="M77.53,1138.22 C90.55,1161.16 109.67,1186.6 135.08,1199.54 C269.86,1268.17 351.83,1283.77 475.39,1196.54 C599.48,1108.93 611.9716,903.1392 612.9716,842.1992" fill="none" id="Manager-to-UC_CancelShift" style="stroke:#181818;stroke-width:1;"/><polygon fill="#181818" points="613.07,836.2,608.9229,845.1332,612.988,841.1993,616.9218,845.2644,613.07,836.2" style="stroke:#181818;stroke-width:1;"/></g><!--link Manager to UC_GetShift--><g class="link" data-entity-1="ent0003" data-entity-2="ent0010" data-link-type="dependency" data-source-line="35" id="lnk27"><path d="M86.17,1045.02 C93.16,1032.56 100.03,1018.84 105.08,1005.54 C134.41,928.19 86.68,883.11 144.08,823.54 C160.82,806.16 179.3967,798.5129 202.6167,794.2929" fill="none" id="Manager-to-UC_GetShift" style="stroke:#181818;stroke-width:1;"/><polygon fill="#181818" points="208.52,793.22,198.9498,790.8938,203.6006,794.1141,200.3803,798.7648,208.52,793.22" style="stroke:#181818;stroke-width:1;"/></g><!--link Manager to UC_ListShifts--><g class="link" data-entity-1="ent0003" data-entity-2="ent0011" data-link-type="dependency" data-source-line="36" id="lnk28"><path d="M86.98,1044.77 C93.87,1032.43 100.5,1018.83 105.08,1005.54 C141.46,900.06 68,839.15 144.08,757.54 C161.48,738.86 181.8846,731.0731 206.3246,727.1831" fill="none" id="Manager-to-UC_ListShifts" style="stroke:#181818;stroke-width:1;"/><polygon fill="#181818" points="212.25,726.24,202.7331,723.7044,207.3122,727.0259,203.9906,731.605,212.25,726.24" style="stroke:#181818;stroke-width:1;"/></g><!--link Manager to UC_ViewCalendar--><g class="link" data-entity-1="ent0003" data-entity-2="ent0012" data-link-type="dependency" data-source-line="37" id="lnk29"><path d="M84.41,1044.83 C91.5,1032.25 98.86,1018.53 105.08,1005.54 C110.14,994.96 135.52,915.54 144.08,907.54 C162.03,890.75 180.9363,882.192 204.0063,876.142" fill="none" id="Manager-to-UC_ViewCalendar" style="stroke:#181818;stroke-width:1;"/><polygon fill="#181818" points="209.81,874.62,200.0897,873.0338,204.9735,875.8883,202.119,880.7722,209.81,874.62" style="stroke:#181818;stroke-width:1;"/></g><!--link Manager to UC_AssignEmployeeShift--><g class="link" data-entity-1="ent0003" data-entity-2="ent0013" data-link-type="dependency" data-source-line="38" id="lnk30"><path d="M56.14,1138.1 C58.47,1195.94 72.25,1292.58 135.08,1338.54 C379.98,1517.65 585.66,1533.95 817.75,1338.54 C924.46,1248.69 937.3856,778.6894 938.9756,665.6394" fill="none" id="Manager-to-UC_AssignEmployeeShift" style="stroke:#181818;stroke-width:1;"/><polygon fill="#181818" points="939.06,659.64,934.9338,668.5829,938.9897,664.6395,942.933,668.6954,939.06,659.64" style="stroke:#181818;stroke-width:1;"/></g><!--link Manager to UC_RemoveEmployeeShift--><g class="link" data-entity-1="ent0003" data-entity-2="ent0014" data-link-type="dependency" data-source-line="39" id="lnk31"><path d="M65.72,1138.17 C76.63,1179.67 99.32,1237.95 144.08,1265.54 C269.73,1342.98 355.55,1328.71 475.39,1242.54 C641.73,1122.92 623.09,1032.54 722.75,853.54 C784.93,741.86 769.34,695.47 847.75,594.54 C864.19,573.38 882.4832,557.5775 901.3732,543.5475" fill="none" id="Manager-to-UC_RemoveEmployeeShift" style="stroke:#181818;stroke-width:1;"/><polygon fill="#181818" points="906.19,539.97,896.5798,542.1251,902.176,542.9513,901.3498,548.5475,906.19,539.97" style="stroke:#181818;stroke-width:1;"/></g><!--link Manager to UC_ReplaceEmployeeShift--><g class="link" data-entity-1="ent0003" data-entity-2="ent0015" data-link-type="dependency" data-source-line="40" id="lnk32"><path d="M95.93,1100.22 C162.45,1112.45 298.05,1126.6 382.39,1061.54 C478.24,987.6 444.8,922.66 475.39,805.54 C496.22,725.79 451.43,684.84 505.39,622.54 C512.13,614.76 515.2704,611.4372 524.5304,606.7772" fill="none" id="Manager-to-UC_ReplaceEmployeeShift" style="stroke:#181818;stroke-width:1;"/><polygon fill="#181818" points="529.89,604.08,520.0525,604.5527,525.4237,606.3276,523.6487,611.6988,529.89,604.08" style="stroke:#181818;stroke-width:1;"/></g><!--link Manager to UC_ListAssignedEmployees--><g class="link" data-entity-1="ent0003" data-entity-2="ent0016" data-link-type="dependency" data-source-line="41" id="lnk33"><path d="M95.98,1081.33 C108.83,1077.82 123.12,1073.71 136.08,1069.54 C163.7,1060.64 188.3786,1051.7241 213.5286,1042.2041" fill="none" id="Manager-to-UC_ListAssignedEmployees" style="stroke:#181818;stroke-width:1;"/><polygon fill="#181818" points="219.14,1040.08,209.3068,1039.5252,214.4638,1041.8501,212.1389,1047.0071,219.14,1040.08" style="stroke:#181818;stroke-width:1;"/></g><!--link Manager to UC_ListEmployeeShifts--><g class="link" data-entity-1="ent0003" data-entity-2="ent0018" data-link-type="dependency" data-source-line="42" id="lnk34"><path d="M87.32,1044.89 C94.21,1032.54 100.74,1018.91 105.08,1005.54 C126.76,938.65 97.8,744.47 144.08,691.54 C159.39,674.02 176.2689,665.3294 198.4089,659.3294" fill="none" id="Manager-to-UC_ListEmployeeShifts" style="stroke:#181818;stroke-width:1;"/><polygon fill="#181818" points="204.2,657.76,194.4671,656.2534,199.3741,659.0678,196.5596,663.9749,204.2,657.76" style="stroke:#181818;stroke-width:1;"/></g><!--link Supervisor to UC_CreateShift--><g class="link" data-entity-1="ent0004" data-entity-2="ent0007" data-link-type="dependency" data-source-line="44" id="lnk35"><path d="M93.13,436.78 C108.67,439.28 125.59,445.02 136.08,457.54 C148.26,472.08 131.69,528.17 144.08,542.54 C161.48,562.71 183.4085,570.4788 208.8985,573.7388" fill="none" id="Supervisor-to-UC_CreateShift" style="stroke:#181818;stroke-width:1;"/><polygon fill="#181818" points="214.85,574.5,206.4302,569.3906,209.8904,573.8657,205.4153,577.3259,214.85,574.5" style="stroke:#181818;stroke-width:1;"/></g><!--link Supervisor to UC_UpdateShift--><g class="link" data-entity-1="ent0004" data-entity-2="ent0008" data-link-type="dependency" data-source-line="45" id="lnk36"><path d="M93.13,399.76 C105.47,389.97 119.96,380.65 135.08,375.54 C206.88,351.25 420.79,345.96 475.39,398.54 C521.1,442.56 472.05,628.54 505.39,682.54 C521.19,708.14 544.9839,723.4521 569.0139,734.5621" fill="none" id="Supervisor-to-UC_UpdateShift" style="stroke:#181818;stroke-width:1;"/><polygon fill="#181818" points="574.46,737.08,567.9695,729.6724,569.9216,734.9817,564.6122,736.9338,574.46,737.08" style="stroke:#181818;stroke-width:1;"/></g><!--link Supervisor to UC_CancelShift--><g class="link" data-entity-1="ent0004" data-entity-2="ent0009" data-link-type="dependency" data-source-line="46" id="lnk37"><path d="M93.26,427.81 C179.27,412.13 392.79,387.89 475.39,512.54 C542.81,614.29 427.95,691.18 505.39,785.54 C516.77,799.4 528.0044,806.0392 545.1544,810.9792" fill="none" id="Supervisor-to-UC_CancelShift" style="stroke:#181818;stroke-width:1;"/><polygon fill="#181818" points="550.92,812.64,543.3788,806.3051,546.1154,811.256,541.1645,813.9926,550.92,812.64" style="stroke:#181818;stroke-width:1;"/></g><!--link Supervisor to UC_GetShift--><g class="link" data-entity-1="ent0004" data-entity-2="ent0010" data-link-type="dependency" data-source-line="47" id="lnk38"><path d="M64.7,473.92 C82.24,554.89 123.58,737.38 144.08,757.54 C161.29,774.45 179.9498,781.9901 203.1198,786.2701" fill="none" id="Supervisor-to-UC_GetShift" style="stroke:#181818;stroke-width:1;"/><polygon fill="#181818" points="209.02,787.36,200.8963,781.7917,204.1032,786.4518,199.4431,789.6586,209.02,787.36" style="stroke:#181818;stroke-width:1;"/></g><!--link Supervisor to UC_ListShifts--><g class="link" data-entity-1="ent0004" data-entity-2="ent0011" data-link-type="dependency" data-source-line="48" id="lnk39"><path d="M74.87,473.9 C93.12,513.69 120.58,578.14 136.08,636.54 C139.3,648.69 135.64,683.22 144.08,692.54 C161.18,711.42 181.5352,719.1275 206.0152,722.7675" fill="none" id="Supervisor-to-UC_ListShifts" style="stroke:#181818;stroke-width:1;"/><polygon fill="#181818" points="211.95,723.65,203.6362,718.3698,207.0044,722.9146,202.4596,726.2828,211.95,723.65" style="stroke:#181818;stroke-width:1;"/></g><!--link Supervisor to UC_ViewCalendar--><g class="link" data-entity-1="ent0004" data-entity-2="ent0012" data-link-type="dependency" data-source-line="49" id="lnk40"><path d="M63.03,474.18 C78.94,567.16 120.36,797.57 144.08,823.54 C160.66,841.68 179.2831,850.5489 202.5331,856.4289" fill="none" id="Supervisor-to-UC_ViewCalendar" style="stroke:#181818;stroke-width:1;"/><polygon fill="#181818" points="208.35,857.9,200.6054,851.8154,203.5026,856.6741,198.644,859.5713,208.35,857.9" style="stroke:#181818;stroke-width:1;"/></g><!--link Supervisor to UC_AssignEmployeeShift--><g class="link" data-entity-1="ent0004" data-entity-2="ent0013" data-link-type="dependency" data-source-line="50" id="lnk41"><path d="M64.37,397.25 C74.87,356.96 97.82,295.59 144.08,267.54 C270.08,191.11 338.27,226.54 475.39,280.54 C648.29,348.62 682.67,392.93 817.75,520.54 C833.4,535.31 832.78,543.09 847.75,558.54 C866.98,578.37 886.2172,594.6666 904.7972,609.3066" fill="none" id="Supervisor-to-UC_AssignEmployeeShift" style="stroke:#181818;stroke-width:1;"/><polygon fill="#181818" points="909.51,613.02,904.9164,604.308,905.5827,609.9255,899.9652,610.5917,909.51,613.02" style="stroke:#181818;stroke-width:1;"/></g><!--link Supervisor to UC_RemoveEmployeeShift--><g class="link" data-entity-1="ent0004" data-entity-2="ent0014" data-link-type="dependency" data-source-line="51" id="lnk42"><path d="M55.7,397.23 C56.79,340.22 68.33,234.53 135.08,185.54 C379.67,6 569.06,11.73 817.75,185.54 C921.65,258.14 936.8058,423.6431 938.8658,487.2431" fill="none" id="Supervisor-to-UC_RemoveEmployeeShift" style="stroke:#181818;stroke-width:1;"/><polygon fill="#181818" points="939.06,493.24,942.7665,484.1152,938.8981,488.2426,934.7707,484.3742,939.06,493.24" style="stroke:#181818;stroke-width:1;"/></g><!--link Supervisor to UC_ReplaceEmployeeShift--><g class="link" data-entity-1="ent0004" data-entity-2="ent0015" data-link-type="dependency" data-source-line="52" id="lnk43"><path d="M73.05,397.11 C85.97,372.3 106.57,342.05 135.08,327.54 C269.86,258.9 360.52,229.14 475.39,327.54 C541.32,384.01 457.75,447.97 505.39,520.54 C518.67,540.78 535.0151,553.2993 555.4051,564.2593" fill="none" id="Supervisor-to-UC_ReplaceEmployeeShift" style="stroke:#181818;stroke-width:1;"/><polygon fill="#181818" points="560.69,567.1,554.6565,559.3156,556.2859,564.7327,550.8688,566.3622,560.69,567.1" style="stroke:#181818;stroke-width:1;"/></g><!--link Supervisor to UC_ListAssignedEmployees--><g class="link" data-entity-1="ent0004" data-entity-2="ent0016" data-link-type="dependency" data-source-line="53" id="lnk44"><path d="M64.11,473.92 C74.12,525.23 92,619.04 105.08,699.54 C115.02,760.68 104.36,928 144.08,975.54 C155.6,989.32 166.0378,996.598 182.9378,1002.988" fill="none" id="Supervisor-to-UC_ListAssignedEmployees" style="stroke:#181818;stroke-width:1;"/><polygon fill="#181818" points="188.55,1005.11,181.5463,998.1855,183.8731,1003.3417,178.717,1005.6685,188.55,1005.11" style="stroke:#181818;stroke-width:1;"/></g><!--link Supervisor to UC_ListEmployeeShifts--><g class="link" data-entity-1="ent0004" data-entity-2="ent0018" data-link-type="dependency" data-source-line="54" id="lnk45"><path d="M93.39,473.39 C109.19,491.87 126.24,515.32 136.08,539.54 C141.72,553.43 134.59,594.93 144.08,606.54 C158.92,624.68 175.8133,633.6445 198.1133,639.7545" fill="none" id="Supervisor-to-UC_ListEmployeeShifts" style="stroke:#181818;stroke-width:1;"/><polygon fill="#181818" points="203.9,641.34,196.2769,635.1039,199.0777,640.0187,194.1629,642.8195,203.9,641.34" style="stroke:#181818;stroke-width:1;"/></g><!--link Employee to UC_ViewMyShifts--><g class="link" data-entity-1="ent0005" data-entity-2="ent0017" data-link-type="dependency" data-source-line="56" id="lnk46"><path d="M98.92,952.09 C110.63,952.69 123.34,953.24 135.08,953.54 C161.38,954.21 184.4127,952.776 209.1027,950.186" fill="none" id="Employee-to-UC_ViewMyShifts" style="stroke:#181818;stroke-width:1;"/><polygon fill="#181818" points="215.07,949.56,205.7018,946.5208,210.0973,950.0816,206.5364,954.4771,215.07,949.56" style="stroke:#181818;stroke-width:1;"/></g><!--link Employee to UC_ViewCalendar--><g class="link" data-entity-1="ent0005" data-entity-2="ent0012" data-link-type="dependency" data-source-line="57" id="lnk47"><path d="M98.77,927.85 C112.98,920.94 129.05,913.53 144.08,907.54 C168.78,897.68 191.047,890.1798 214.727,882.8698" fill="none" id="Employee-to-UC_ViewCalendar" style="stroke:#181818;stroke-width:1;"/><polygon fill="#181818" points="220.46,881.1,210.6806,879.9326,215.6825,882.5748,213.0403,887.5767,220.46,881.1" style="stroke:#181818;stroke-width:1;"/></g><!--link UC_AssignEmployeeShift to UC_ValidateAssignment--><g class="link" data-entity-1="ent0013" data-entity-2="ent0019" data-link-type="dependency" data-source-line="59" id="lnk48"><path d="M1033.25,635.54 C1072.77,635.54 1112.66,635.54 1151.38,635.54" fill="none" id="UC_AssignEmployeeShift-to-UC_ValidateAssignment" style="stroke:#181818;stroke-width:1;stroke-dasharray:7,7;"/><polygon fill="#181818" points="1157.38,635.54,1148.38,631.54,1152.38,635.54,1148.38,639.54,1157.38,635.54" style="stroke:#181818;stroke-width:1;"/><text fill="#000000" font-family="sans-serif" font-size="13" lengthAdjust="spacing" textLength="63.0068" x="1063.8" y="631.6069">&#171;include&#187;</text></g><!--link UC_ReplaceEmployeeShift to UC_RemoveEmployeeShift--><g class="link" data-entity-1="ent0015" data-entity-2="ent0014" data-link-type="dependency" data-source-line="60" id="lnk49"><path d="M692.73,571.53 C747.05,559.63 813.0788,545.1731 865.1988,533.7631" fill="none" id="UC_ReplaceEmployeeShift-to-UC_RemoveEmployeeShift" style="stroke:#181818;stroke-width:1;stroke-dasharray:7,7;"/><polygon fill="#181818" points="871.06,532.48,861.4128,530.4972,866.1757,533.5493,863.1236,538.3121,871.06,532.48" style="stroke:#181818;stroke-width:1;"/><text fill="#000000" font-family="sans-serif" font-size="13" lengthAdjust="spacing" textLength="63.0068" x="753.75" y="541.6069">&#171;include&#187;</text></g><!--link UC_ReplaceEmployeeShift to UC_AssignEmployeeShift--><g class="link" data-entity-1="ent0015" data-entity-2="ent0013" data-link-type="dependency" data-source-line="61" id="lnk50"><path d="M705.81,601.69 C753.96,608.67 806.6521,616.3088 853.1221,623.0488" fill="none" id="UC_ReplaceEmployeeShift-to-UC_AssignEmployeeShift" style="stroke:#181818;stroke-width:1;stroke-dasharray:7,7;"/><polygon fill="#181818" points="859.06,623.91,850.7273,618.6596,854.1118,623.1923,849.579,626.5767,859.06,623.91" style="stroke:#181818;stroke-width:1;"/><text fill="#000000" font-family="sans-serif" font-size="13" lengthAdjust="spacing" textLength="63.0068" x="753.75" y="605.6069">&#171;include&#187;</text></g><!--link UC_Notify to UC_UpdateShift--><g class="link" data-entity-1="ent0020" data-entity-2="ent0008" data-link-type="dependency" data-source-line="63" id="lnk51"><path d="M350.15,518.91 C362.34,524.68 373.79,532.35 382.39,542.54 C425.68,593.82 367.24,640.88 412.39,690.54 C445.46,726.91 493.5164,741.0591 537.1764,747.0891" fill="none" id="UC_Notify-to-UC_UpdateShift" style="stroke:#181818;stroke-width:1;stroke-dasharray:7,7;"/><polygon fill="#181818" points="543.12,747.91,534.7519,742.7163,538.167,747.2259,533.6574,750.6411,543.12,747.91" style="stroke:#181818;stroke-width:1;"/><text fill="#000000" font-family="sans-serif" font-size="13" lengthAdjust="spacing" textLength="61.1851" x="413.39" y="686.6069">&#171;extend&#187;</text></g><!--link UC_Notify to UC_CancelShift--><g class="link" data-entity-1="ent0020" data-entity-2="ent0009" data-link-type="dependency" data-source-line="64" id="lnk52"><path d="M351.19,518.76 C363.13,524.54 374.22,532.25 382.39,542.54 C441.83,617.41 350.85,682.38 412.39,755.54 C445.23,794.58 495.9236,809.2701 540.6736,815.2901" fill="none" id="UC_Notify-to-UC_CancelShift" style="stroke:#181818;stroke-width:1;stroke-dasharray:7,7;"/><polygon fill="#181818" points="546.62,816.09,538.2336,810.9258,541.6646,815.4234,537.1671,818.8544,546.62,816.09" style="stroke:#181818;stroke-width:1;"/><text fill="#000000" font-family="sans-serif" font-size="13" lengthAdjust="spacing" textLength="61.1851" x="413.39" y="751.6069">&#171;extend&#187;</text></g><!--link UC_Notify to UC_AssignEmployeeShift--><g class="link" data-entity-1="ent0020" data-entity-2="ent0013" data-link-type="dependency" data-source-line="65" id="lnk53"><path d="M337.68,521.22 C352.77,527.14 368.56,534.29 382.39,542.54 C444.13,579.34 437.95,622.67 505.39,647.54 C628.94,693.1 780.1234,672.128 867.3734,653.418" fill="none" id="UC_Notify-to-UC_AssignEmployeeShift" style="stroke:#181818;stroke-width:1;stroke-dasharray:7,7;"/><polygon fill="#181818" points="873.24,652.16,863.6014,650.136,868.3511,653.2084,865.2788,657.9582,873.24,652.16" style="stroke:#181818;stroke-width:1;"/><text fill="#000000" font-family="sans-serif" font-size="13" lengthAdjust="spacing" textLength="61.1851" x="583.57" y="643.6069">&#171;extend&#187;</text></g><!--link UC_Notify to UC_RemoveEmployeeShift--><g class="link" data-entity-1="ent0020" data-entity-2="ent0014" data-link-type="dependency" data-source-line="66" id="lnk54"><path d="M382.03,504.09 C512.55,507.24 725.9817,512.3851 846.8717,515.3051" fill="none" id="UC_Notify-to-UC_RemoveEmployeeShift" style="stroke:#181818;stroke-width:1;stroke-dasharray:7,7;"/><polygon fill="#181818" points="852.87,515.45,843.9692,511.2338,847.8715,515.3293,843.776,519.2315,852.87,515.45" style="stroke:#181818;stroke-width:1;"/><text fill="#000000" font-family="sans-serif" font-size="13" lengthAdjust="spacing" textLength="61.1851" x="583.57" y="503.6069">&#171;extend&#187;</text></g><!--link UC_Notify to UC_ReplaceEmployeeShift--><g class="link" data-entity-1="ent0020" data-entity-2="ent0015" data-link-type="dependency" data-source-line="67" id="lnk55"><path d="M346.44,519.67 C403.7,534.46 478.4408,553.759 535.9908,568.629" fill="none" id="UC_Notify-to-UC_ReplaceEmployeeShift" style="stroke:#181818;stroke-width:1;stroke-dasharray:7,7;"/><polygon fill="#181818" points="541.8,570.13,534.0869,564.0057,536.959,568.8792,532.0855,571.7513,541.8,570.13" style="stroke:#181818;stroke-width:1;"/><text fill="#000000" font-family="sans-serif" font-size="13" lengthAdjust="spacing" textLength="61.1851" x="413.39" y="533.6069">&#171;extend&#187;</text></g><?plantuml-src bPNFRXiX4CRlF0NoFNc0Ah9ahQfScbPDb9mYLGJ63X8B5h1fdAXFrKVeYvLbpIv_PXlrQEOtmyp7Dsi5Uq-zeLOUdZqLqWBtqcX26FV6qirEz59BvoqJnZvg0HJwemN7DfGv6gC9lGOBsaE4tC07wvYAr0tJx00sSNV34UoBTCR6wF8p0PrHxCd46oFnkJygSm8WPEoEwOE2yJRdvP_VceRR_62rSVH4ELEW1RFIREWxeNHmm9aBT6U1sOcB9U-x7-EHXxjdkVSvkUD-O4g-rVZzKM1unpG7rTIEfmtyxSc3Xegz1j-0NuBYgQPBu7WOIPUZ3w7UCdOKlqnxaF2pEmEacDJ9Wmwty4NkHytAvdPkXD83D7r-7wIlAwG6KebRwCqBh9QuXM0enTxgCg3hCe7YwtNEacKrm8LnuemYcACQRCIduK2acexKmlRI8MhUdDfdA5uiYi0h5vylBGQeRWo-2uz4fwRvwEvMpWdoC3NVXutBItmrNkubHuJOZwiZba4YUIA_28bBJ2ykjerRYaXcl-9yzYyvxtaAv0jMXV9bghEorQb2yqtLUTPP5IccgMAOjIi4isw38BP4-ckzXa2rDvPF8wPf6yrbHN8pPTleB6uRolHjWuN4RHXJkQKmeJ4AqHfljvKRvsh5q-zykddTiU3oPSM7fPUNMtnjwITwTIKrLuE0xPQip9Vo4ON-hm3MMrc0p5-5b9FvARBm6lw_n7HNIMRU-e1SwsCzOstqVsKWEkGfVm40?></g></svg>