<svg xmlns="http://www.w3.org/2000/svg" xmlns:xlink="http://www.w3.org/1999/xlink" contentStyleType="text/css" data-diagram-type="CLASS" height="438px" preserveAspectRatio="none" style="width:497px;height:438px;background:#FFFFFF;" version="1.1" viewBox="0 0 497 438" width="497px" zoomAndPan="magnify"><?plantuml 1.2026.5?><defs/><g><!--class Shift--><g class="entity" data-qualified-name="Shift" data-source-line="1" id="ent0001"><rect fill="#F1F1F1" height="162.0781" rx="2.5" ry="2.5" style="stroke:#181818;stroke-width:0.5;" width="167.3057" x="166.63" y="7"/><ellipse cx="229.9991" cy="23" fill="#ADD1B2" rx="11" ry="11" style="stroke:#181818;stroke-width:1;"/><path d="M232.9679,28.6406 Q232.3898,28.9375 231.7491,29.0781 Q231.1085,29.2344 230.4054,29.2344 Q227.9054,29.2344 226.5773,27.5938 Q225.2648,25.9375 225.2648,22.8125 Q225.2648,19.6875 226.5773,18.0313 Q227.9054,16.375 230.4054,16.375 Q231.1085,16.375 231.7491,16.5313 Q232.4054,16.6875 232.9679,16.9844 L232.9679,19.7031 Q232.3429,19.125 231.7491,18.8594 Q231.1554,18.5781 230.5304,18.5781 Q229.1866,18.5781 228.4991,19.6563 Q227.8116,20.7188 227.8116,22.8125 Q227.8116,24.9063 228.4991,25.9844 Q229.1866,27.0469 230.5304,27.0469 Q231.1554,27.0469 231.7491,26.7813 Q232.3429,26.5 232.9679,25.9219 L232.9679,28.6406 Z " fill="#000000"/><text fill="#000000" font-family="sans-serif" font-size="14" lengthAdjust="spacing" textLength="32.0674" x="250.4991" y="27.8467">Shift</text><line style="stroke:#181818;stroke-width:0.5;" x1="167.63" x2="332.9357" y1="39" y2="39"/><g data-visibility-modifier="PUBLIC_FIELD"><ellipse cx="177.63" cy="52.6484" fill="none" rx="3" ry="3" style="stroke:#038048;stroke-width:1;"/></g><text fill="#000000" font-family="sans-serif" font-size="14" lengthAdjust="spacing" textLength="52.6299" x="186.63" y="55.9951">UUID id</text><g data-visibility-modifier="PUBLIC_FIELD"><ellipse cx="177.63" cy="68.9453" fill="none" rx="3" ry="3" style="stroke:#038048;stroke-width:1;"/></g><text fill="#000000" font-family="sans-serif" font-size="14" lengthAdjust="spacing" textLength="101.5342" x="186.63" y="72.292">UUID branchId</text><g data-visibility-modifier="PUBLIC_FIELD"><ellipse cx="177.63" cy="85.2422" fill="none" rx="3" ry="3" style="stroke:#038048;stroke-width:1;"/></g><text fill="#000000" font-family="sans-serif" font-size="14" lengthAdjust="spacing" textLength="108.3223" x="186.63" y="88.5889">UUID positionId</text><g data-visibility-modifier="PUBLIC_FIELD"><ellipse cx="177.63" cy="101.5391" fill="none" rx="3" ry="3" style="stroke:#038048;stroke-width:1;"/></g><text fill="#000000" font-family="sans-serif" font-size="14" lengthAdjust="spacing" textLength="105.2119" x="186.63" y="104.8857">DateTime start</text><g data-visibility-modifier="PUBLIC_FIELD"><ellipse cx="177.63" cy="117.8359" fill="none" rx="3" ry="3" style="stroke:#038048;stroke-width:1;"/></g><text fill="#000000" font-family="sans-serif" font-size="14" lengthAdjust="spacing" textLength="98.9775" x="186.63" y="121.1826">DateTime end</text><g data-visibility-modifier="PUBLIC_FIELD"><ellipse cx="177.63" cy="134.1328" fill="none" rx="3" ry="3" style="stroke:#038048;stroke-width:1;"/></g><text fill="#000000" font-family="sans-serif" font-size="14" lengthAdjust="spacing" textLength="124.1475" x="186.63" y="137.4795">ShiftStatus status</text><g data-visibility-modifier="PUBLIC_FIELD"><ellipse cx="177.63" cy="150.4297" fill="none" rx="3" ry="3" style="stroke:#038048;stroke-width:1;"/></g><text fill="#000000" font-family="sans-serif" font-size="14" lengthAdjust="spacing" textLength="141.3057" x="186.63" y="153.7764">DateTime createdAt</text><line style="stroke:#181818;stroke-width:0.5;" x1="167.63" x2="332.9357" y1="161.0781" y2="161.0781"/></g><!--class ShiftAssignment--><g class="entity" data-qualified-name="ShiftAssignment" data-source-line="11" id="ent0002"><rect fill="#F1F1F1" height="145.7813" rx="2.5" ry="2.5" style="stroke:#181818;stroke-width:0.5;" width="232.5752" x="7" y="253.52"/><ellipse cx="61.79" cy="269.52" fill="#ADD1B2" rx="11" ry="11" style="stroke:#181818;stroke-width:1;"/><path d="M64.7588,275.1606 Q64.1807,275.4575 63.54,275.5981 Q62.8994,275.7544 62.1963,275.7544 Q59.6963,275.7544 58.3682,274.1138 Q57.0557,272.4575 57.0557,269.3325 Q57.0557,266.2075 58.3682,264.5513 Q59.6963,262.895 62.1963,262.895 Q62.8994,262.895 63.54,263.0513 Q64.1963,263.2075 64.7588,263.5044 L64.7588,266.2231 Q64.1338,265.645 63.54,265.3794 Q62.9463,265.0981 62.3213,265.0981 Q60.9775,265.0981 60.29,266.1763 Q59.6025,267.2388 59.6025,269.3325 Q59.6025,271.4263 60.29,272.5044 Q60.9775,273.5669 62.3213,273.5669 Q62.9463,273.5669 63.54,273.3013 Q64.1338,273.02 64.7588,272.4419 L64.7588,275.1606 Z " fill="#000000"/><text fill="#000000" font-family="sans-serif" font-size="14" lengthAdjust="spacing" textLength="114.4951" x="82.29" y="274.3667">ShiftAssignment</text><line style="stroke:#181818;stroke-width:0.5;" x1="8" x2="238.5752" y1="285.52" y2="285.52"/><g data-visibility-modifier="PUBLIC_FIELD"><ellipse cx="18" cy="299.1684" fill="none" rx="3" ry="3" style="stroke:#038048;stroke-width:1;"/></g><text fill="#000000" font-family="sans-serif" font-size="14" lengthAdjust="spacing" textLength="52.6299" x="27" y="302.5151">UUID id</text><g data-visibility-modifier="PUBLIC_FIELD"><ellipse cx="18" cy="315.4653" fill="none" rx="3" ry="3" style="stroke:#038048;stroke-width:1;"/></g><text fill="#000000" font-family="sans-serif" font-size="14" lengthAdjust="spacing" textLength="83.3438" x="27" y="318.812">UUID shiftId</text><g data-visibility-modifier="PUBLIC_FIELD"><ellipse cx="18" cy="331.7622" fill="none" rx="3" ry="3" style="stroke:#038048;stroke-width:1;"/></g><text fill="#000000" font-family="sans-serif" font-size="14" lengthAdjust="spacing" textLength="137.0879" x="27" y="335.1089">UUID collaboratorId</text><g data-visibility-modifier="PUBLIC_FIELD"><ellipse cx="18" cy="348.0591" fill="none" rx="3" ry="3" style="stroke:#038048;stroke-width:1;"/></g><text fill="#000000" font-family="sans-serif" font-size="14" lengthAdjust="spacing" textLength="206.5752" x="27" y="351.4057">ShiftAssignmentStatus status</text><g data-visibility-modifier="PUBLIC_FIELD"><ellipse cx="18" cy="364.3559" fill="none" rx="3" ry="3" style="stroke:#038048;stroke-width:1;"/></g><text fill="#000000" font-family="sans-serif" font-size="14" lengthAdjust="spacing" textLength="141.3057" x="27" y="367.7026">DateTime createdAt</text><g data-visibility-modifier="PUBLIC_FIELD"><ellipse cx="18" cy="380.6528" fill="none" rx="3" ry="3" style="stroke:#038048;stroke-width:1;"/></g><text fill="#000000" font-family="sans-serif" font-size="14" lengthAdjust="spacing" textLength="161.8408" x="27" y="383.9995">DateTime? cancelledAt</text><line style="stroke:#181818;stroke-width:0.5;" x1="8" x2="238.5752" y1="391.3013" y2="391.3013"/></g><!--class ShiftSwapRequest--><g class="entity" data-qualified-name="ShiftSwapRequest" data-source-line="20" id="ent0003"><rect fill="#F1F1F1" height="194.6719" rx="2.5" ry="2.5" style="stroke:#181818;stroke-width:0.5;" width="207.9795" x="274.3" y="229.08"/><ellipse cx="311.1755" cy="245.08" fill="#ADD1B2" rx="11" ry="11" style="stroke:#181818;stroke-width:1;"/><path d="M314.1443,250.7206 Q313.5662,251.0175 312.9255,251.1581 Q312.2849,251.3144 311.5818,251.3144 Q309.0818,251.3144 307.7537,249.6738 Q306.4412,248.0175 306.4412,244.8925 Q306.4412,241.7675 307.7537,240.1113 Q309.0818,238.455 311.5818,238.455 Q312.2849,238.455 312.9255,238.6113 Q313.5818,238.7675 314.1443,239.0644 L314.1443,241.7831 Q313.5193,241.205 312.9255,240.9394 Q312.3318,240.6581 311.7068,240.6581 Q310.363,240.6581 309.6755,241.7363 Q308.988,242.7988 308.988,244.8925 Q308.988,246.9863 309.6755,248.0644 Q310.363,249.1269 311.7068,249.1269 Q312.3318,249.1269 312.9255,248.8613 Q313.5193,248.58 314.1443,248.0019 L314.1443,250.7206 Z " fill="#000000"/><text fill="#000000" font-family="sans-serif" font-size="14" lengthAdjust="spacing" textLength="127.3672" x="330.0368" y="249.9267">ShiftSwapRequest</text><line style="stroke:#181818;stroke-width:0.5;" x1="275.3" x2="481.2795" y1="261.08" y2="261.08"/><g data-visibility-modifier="PUBLIC_FIELD"><ellipse cx="285.3" cy="274.7284" fill="none" rx="3" ry="3" style="stroke:#038048;stroke-width:1;"/></g><text fill="#000000" font-family="sans-serif" font-size="14" lengthAdjust="spacing" textLength="52.6299" x="294.3" y="278.0751">UUID id</text><g data-visibility-modifier="PUBLIC_FIELD"><ellipse cx="285.3" cy="291.0253" fill="none" rx="3" ry="3" style="stroke:#038048;stroke-width:1;"/></g><text fill="#000000" font-family="sans-serif" font-size="14" lengthAdjust="spacing" textLength="120.7637" x="294.3" y="294.372">UUID requesterId</text><g data-visibility-modifier="PUBLIC_FIELD"><ellipse cx="285.3" cy="307.3222" fill="none" rx="3" ry="3" style="stroke:#038048;stroke-width:1;"/></g><text fill="#000000" font-family="sans-serif" font-size="14" lengthAdjust="spacing" textLength="181.9795" x="294.3" y="310.6689">UUID targetCollaboratorId</text><g data-visibility-modifier="PUBLIC_FIELD"><ellipse cx="285.3" cy="323.6191" fill="none" rx="3" ry="3" style="stroke:#038048;stroke-width:1;"/></g><text fill="#000000" font-family="sans-serif" font-size="14" lengthAdjust="spacing" textLength="131.7354" x="294.3" y="326.9657">UUID sourceShiftId</text><g data-visibility-modifier="PUBLIC_FIELD"><ellipse cx="285.3" cy="339.9159" fill="none" rx="3" ry="3" style="stroke:#038048;stroke-width:1;"/></g><text fill="#000000" font-family="sans-serif" font-size="14" lengthAdjust="spacing" textLength="127.75" x="294.3" y="343.2626">UUID targetShiftId</text><g data-visibility-modifier="PUBLIC_FIELD"><ellipse cx="285.3" cy="356.2128" fill="none" rx="3" ry="3" style="stroke:#038048;stroke-width:1;"/></g><text fill="#000000" font-family="sans-serif" font-size="14" lengthAdjust="spacing" textLength="161.9502" x="294.3" y="359.5595">ShiftSwapStatus status</text><g data-visibility-modifier="PUBLIC_FIELD"><ellipse cx="285.3" cy="372.5097" fill="none" rx="3" ry="3" style="stroke:#038048;stroke-width:1;"/></g><text fill="#000000" font-family="sans-serif" font-size="14" lengthAdjust="spacing" textLength="141.3057" x="294.3" y="375.8564">DateTime createdAt</text><g data-visibility-modifier="PUBLIC_FIELD"><ellipse cx="285.3" cy="388.8066" fill="none" rx="3" ry="3" style="stroke:#038048;stroke-width:1;"/></g><text fill="#000000" font-family="sans-serif" font-size="14" lengthAdjust="spacing" textLength="169.4766" x="294.3" y="392.1532">DateTime? respondedAt</text><g data-visibility-modifier="PUBLIC_FIELD"><ellipse cx="285.3" cy="405.1034" fill="none" rx="3" ry="3" style="stroke:#038048;stroke-width:1;"/></g><text fill="#000000" font-family="sans-serif" font-size="14" lengthAdjust="spacing" textLength="161.5605" x="294.3" y="408.4501">DateTime? approvedAt</text><line style="stroke:#181818;stroke-width:0.5;" x1="275.3" x2="481.2795" y1="415.7519" y2="415.7519"/></g><!--link Shift to ShiftAssignment--><g class="link" data-entity-1="ent0001" data-entity-2="ent0002" data-link-type="dependency" data-source-line="32" id="lnk4"><path codeLine="32" d="M207.11,169.39 C192.52,196.56 178.6874,222.316 164.4474,248.806" fill="none" id="Shift-to-ShiftAssignment" style="stroke:#181818;stroke-width:1;"/><polygon fill="#181818" points="162.08,253.21,169.8646,247.1767,164.4474,248.806,162.8182,243.3888,162.08,253.21" style="stroke:#181818;stroke-width:1;stroke-linejoin:miter;stroke-miterlimit:10;"/><text fill="#000000" font-family="sans-serif" font-size="13" lengthAdjust="spacing" textLength="8.271" x="195.0677" y="189.0982">1</text><text fill="#000000" font-family="sans-serif" font-size="13" lengthAdjust="spacing" textLength="24.8066" x="140.7571" y="242.3395">0..1</text></g><!--link Shift to ShiftSwapRequest--><g class="link" data-entity-1="ent0001" data-entity-2="ent0003" data-link-type="dependency" data-source-line="33" id="lnk5"><path codeLine="33" d="M293.8,169.39 C304.17,188.53 312.9493,204.7532 323.6593,224.5332" fill="none" id="Shift-to-ShiftSwapRequest" style="stroke:#181818;stroke-width:1;"/><polygon fill="#181818" points="326.04,228.93,325.2722,219.1111,323.6593,224.5332,318.2373,222.9202,326.04,228.93" style="stroke:#181818;stroke-width:1;stroke-linejoin:miter;stroke-miterlimit:10;"/><text fill="#000000" font-family="sans-serif" font-size="13" lengthAdjust="spacing" textLength="8.271" x="289.2077" y="189.0982">1</text><text fill="#000000" font-family="sans-serif" font-size="13" lengthAdjust="spacing" textLength="6.5" x="315.8291" y="217.964">*</text></g><?plantuml-src bPB1Ri8m38RlVGghnqsWxGMO45nwfUC1JEf1f904szqEqzwTG3HQMf3W5Eltd_ZxhHY78b3lx9V2Rm7mkbvNIx3DfTmmUhEhEY46iMg3pz8IbJxjda0KMQyKycV7-UrQKLivcT9nvJ9CgMpcMlmLXUbevY9sw_Vaxt39oTJ3Ci4vt0H63LnrWxjd7a7egHzWKd1oxWPR_ODnHOUMv0uSvoPn3p3jPqkw667cDA5bG_KWKxxIKo_Jdmx3937uPjp063by_uVC7w5yBs4ocK7vDfscSh38eUcb76tb2000?></g></svg>