<svg xmlns="http://www.w3.org/2000/svg" xmlns:xlink="http://www.w3.org/1999/xlink" contentStyleType="text/css" data-diagram-type="DESCRIPTION" height="500px" preserveAspectRatio="none" style="width:3842px;height:500px;background:#FFFFFF;" version="1.1" viewBox="0 0 3842 500" width="3842px" zoomAndPan="magnify"><?plantuml 1.2026.5?><defs/><g><!--cluster scheduling--><g class="cluster" data-qualified-name="scheduling" data-source-line="3" id="ent0001"><path d="M8.5,6 L95.168,6 A3.75,3.75 0 0 1 97.668,8.5 L104.668,28.2969 L3824.5,28.2969 A2.5,2.5 0 0 1 3827,30.7969 L3827,483.39 A2.5,2.5 0 0 1 3824.5,485.89 L8.5,485.89 A2.5,2.5 0 0 1 6,483.39 L6,8.5 A2.5,2.5 0 0 1 8.5,6" fill="none" style="stroke:#000000;stroke-width:1.5;"/><line style="stroke:#000000;stroke-width:1.5;" x1="6" x2="104.668" y1="28.2969" y2="28.2969"/><text fill="#000000" font-family="sans-serif" font-size="14" font-weight="700" lengthAdjust="spacing" textLength="85.668" x="10" y="20.9951">scheduling</text></g><!--cluster api--><g class="cluster" data-qualified-name="scheduling.api" data-source-line="5" id="ent0002"><path d="M907.5,49 L932.7676,49 A3.75,3.75 0 0 1 935.2676,51.5 L942.2676,71.2969 L1438.5,71.2969 A2.5,2.5 0 0 1 1441,73.7969 L1441,133.8 A2.5,2.5 0 0 1 1438.5,136.3 L907.5,136.3 A2.5,2.5 0 0 1 905,133.8 L905,51.5 A2.5,2.5 0 0 1 907.5,49" fill="none" style="stroke:#000000;stroke-width:1.5;"/><line style="stroke:#000000;stroke-width:1.5;" x1="905" x2="942.2676" y1="71.2969" y2="71.2969"/><text fill="#000000" font-family="sans-serif" font-size="14" font-weight="700" lengthAdjust="spacing" textLength="24.2676" x="909" y="63.9951">api</text></g><!--cluster application--><g class="cluster" data-qualified-name="scheduling.application" data-source-line="11" id="ent0006"><path d="M32.5,160.3 L121.4102,160.3 A3.75,3.75 0 0 1 123.9102,162.8 L130.9102,182.5969 L2426.5,182.5969 A2.5,2.5 0 0 1 2429,185.0969 L2429,363.09 A2.5,2.5 0 0 1 2426.5,365.59 L32.5,365.59 A2.5,2.5 0 0 1 30,363.09 L30,162.8 A2.5,2.5 0 0 1 32.5,160.3" fill="none" style="stroke:#000000;stroke-width:1.5;"/><line style="stroke:#000000;stroke-width:1.5;" x1="30" x2="130.9102" y1="182.5969" y2="182.5969"/><text fill="#000000" font-family="sans-serif" font-size="14" font-weight="700" lengthAdjust="spacing" textLength="87.9102" x="34" y="175.2951">application</text></g><!--cluster domain--><g class="cluster" data-qualified-name="scheduling.domain" data-source-line="36" id="ent0023"><path d="M3369.5,267.44 L3428.9404,267.44 A3.75,3.75 0 0 1 3431.4404,269.94 L3438.4404,289.7369 L3800.5,289.7369 A2.5,2.5 0 0 1 3803,292.2369 L3803,459.39 A2.5,2.5 0 0 1 3800.5,461.89 L3369.5,461.89 A2.5,2.5 0 0 1 3367,459.39 L3367,269.94 A2.5,2.5 0 0 1 3369.5,267.44" fill="none" style="stroke:#000000;stroke-width:1.5;"/><line style="stroke:#000000;stroke-width:1.5;" x1="3367" x2="3438.4404" y1="289.7369" y2="289.7369"/><text fill="#000000" font-family="sans-serif" font-size="14" font-weight="700" lengthAdjust="spacing" textLength="58.4404" x="3371" y="282.4351">domain</text></g><!--cluster infrastructure--><g class="cluster" data-qualified-name="scheduling.infrastructure" data-source-line="43" id="ent0028"><path d="M2455.5,267.44 L2566.9619,267.44 A3.75,3.75 0 0 1 2569.4619,269.94 L2576.4619,289.7369 L3340.5,289.7369 A2.5,2.5 0 0 1 3343,292.2369 L3343,459.39 A2.5,2.5 0 0 1 3340.5,461.89 L2455.5,461.89 A2.5,2.5 0 0 1 2453,459.39 L2453,269.94 A2.5,2.5 0 0 1 2455.5,267.44" fill="none" style="stroke:#000000;stroke-width:1.5;"/><line style="stroke:#000000;stroke-width:1.5;" x1="2453" x2="2576.4619" y1="289.7369" y2="289.7369"/><text fill="#000000" font-family="sans-serif" font-size="14" font-weight="700" lengthAdjust="spacing" textLength="110.4619" x="2457" y="282.4351">infrastructure</text></g><!--entity ShiftController--><g class="entity" data-qualified-name="scheduling.api.ShiftController" data-source-line="6" id="ent0003"><rect fill="#F1F1F1" height="36.2969" rx="2.5" ry="2.5" style="stroke:#181818;stroke-width:0.5;" width="121.2402" x="921.38" y="84"/><text fill="#000000" font-family="sans-serif" font-size="14" lengthAdjust="spacing" textLength="101.2402" x="931.38" y="106.9951">ShiftController</text></g><!--entity CalendarController--><g class="entity" data-qualified-name="scheduling.api.CalendarController" data-source-line="7" id="ent0004"><rect fill="#F1F1F1" height="36.2969" rx="2.5" ry="2.5" style="stroke:#181818;stroke-width:0.5;" width="152.125" x="1077.94" y="84"/><text fill="#000000" font-family="sans-serif" font-size="14" lengthAdjust="spacing" textLength="132.125" x="1087.94" y="106.9951">CalendarController</text></g><!--entity ShiftSwapController--><g class="entity" data-qualified-name="scheduling.api.ShiftSwapController" data-source-line="8" id="ent0005"><rect fill="#F1F1F1" height="36.2969" rx="2.5" ry="2.5" style="stroke:#181818;stroke-width:0.5;" width="159.043" x="1265.48" y="84"/><text fill="#000000" font-family="sans-serif" font-size="14" lengthAdjust="spacing" textLength="139.043" x="1275.48" y="106.9951">ShiftSwapController</text></g><!--entity GetCalendarUseCase--><g class="entity" data-qualified-name="scheduling.application.GetCalendarUseCase" data-source-line="13" id="ent0007"><rect fill="#F1F1F1" height="36.2969" rx="2.5" ry="2.5" style="stroke:#181818;stroke-width:0.5;" width="168.3193" x="1748.84" y="195.3"/><text fill="#000000" font-family="sans-serif" font-size="14" lengthAdjust="spacing" textLength="148.3193" x="1758.84" y="218.2951">GetCalendarUseCase</text></g><!--entity GetMyCalendarUseCase--><g class="entity" data-qualified-name="scheduling.application.GetMyCalendarUseCase" data-source-line="14" id="ent0008"><rect fill="#F1F1F1" height="36.2969" rx="2.5" ry="2.5" style="stroke:#181818;stroke-width:0.5;" width="188.6836" x="1038.66" y="195.3"/><text fill="#000000" font-family="sans-serif" font-size="14" lengthAdjust="spacing" textLength="168.6836" x="1048.66" y="218.2951">GetMyCalendarUseCase</text></g><!--entity CreateShiftUseCase--><g class="entity" data-qualified-name="scheduling.application.CreateShiftUseCase" data-source-line="16" id="ent0009"><rect fill="#F1F1F1" height="36.2969" rx="2.5" ry="2.5" style="stroke:#181818;stroke-width:0.5;" width="159.3096" x="244.35" y="195.3"/><text fill="#000000" font-family="sans-serif" font-size="14" lengthAdjust="spacing" textLength="139.3096" x="254.35" y="218.2951">CreateShiftUseCase</text></g><!--entity UpdateShiftUseCase--><g class="entity" data-qualified-name="scheduling.application.UpdateShiftUseCase" data-source-line="17" id="ent0010"><rect fill="#F1F1F1" height="36.2969" rx="2.5" ry="2.5" style="stroke:#181818;stroke-width:0.5;" width="163.1855" x="46.41" y="195.3"/><text fill="#000000" font-family="sans-serif" font-size="14" lengthAdjust="spacing" textLength="143.1855" x="56.41" y="218.2951">UpdateShiftUseCase</text></g><!--entity AssignCollaboratorToShiftUseCase--><g class="entity" data-qualified-name="scheduling.application.AssignCollaboratorToShiftUseCase" data-source-line="19" id="ent0011"><rect fill="#F1F1F1" height="36.2969" rx="2.5" ry="2.5" style="stroke:#181818;stroke-width:0.5;" width="261.7119" x="439.14" y="195.3"/><text fill="#000000" font-family="sans-serif" font-size="14" lengthAdjust="spacing" textLength="241.7119" x="449.14" y="218.2951">AssignCollaboratorToShiftUseCase</text></g><!--entity ReplaceCollaboratorInShiftUseCase--><g class="entity" data-qualified-name="scheduling.application.ReplaceCollaboratorInShiftUseCase" data-source-line="20" id="ent0012"><rect fill="#F1F1F1" height="36.2969" rx="2.5" ry="2.5" style="stroke:#181818;stroke-width:0.5;" width="267.7891" x="736.11" y="195.3"/><text fill="#000000" font-family="sans-serif" font-size="14" lengthAdjust="spacing" textLength="247.7891" x="746.11" y="218.2951">ReplaceCollaboratorInShiftUseCase</text></g><!--entity RequestShiftSwapUseCase--><g class="entity" data-qualified-name="scheduling.application.RequestShiftSwapUseCase" data-source-line="22" id="ent0013"><rect fill="#F1F1F1" height="36.2969" rx="2.5" ry="2.5" style="stroke:#181818;stroke-width:0.5;" width="207.7832" x="1262.11" y="195.3"/><text fill="#000000" font-family="sans-serif" font-size="14" lengthAdjust="spacing" textLength="187.7832" x="1272.11" y="218.2951">RequestShiftSwapUseCase</text></g><!--entity ApproveShiftSwapUseCase--><g class="entity" data-qualified-name="scheduling.application.ApproveShiftSwapUseCase" data-source-line="23" id="ent0014"><rect fill="#F1F1F1" height="36.2969" rx="2.5" ry="2.5" style="stroke:#181818;stroke-width:0.5;" width="208.8564" x="1504.57" y="195.3"/><text fill="#000000" font-family="sans-serif" font-size="14" lengthAdjust="spacing" textLength="188.8564" x="1514.57" y="218.2951">ApproveShiftSwapUseCase</text></g><!--entity RespondToShiftSwapUseCase--><g class="entity" data-qualified-name="scheduling.application.RespondToShiftSwapUseCase" data-source-line="24" id="ent0015"><rect fill="#F1F1F1" height="36.2969" rx="2.5" ry="2.5" style="stroke:#181818;stroke-width:0.5;" width="228.25" x="1951.87" y="195.3"/><text fill="#000000" font-family="sans-serif" font-size="14" lengthAdjust="spacing" textLength="208.25" x="1961.87" y="218.2951">RespondToShiftSwapUseCase</text></g><!--entity CancelShiftSwapUseCase--><g class="entity" data-qualified-name="scheduling.application.CancelShiftSwapUseCase" data-source-line="25" id="ent0016"><rect fill="#F1F1F1" height="36.2969" rx="2.5" ry="2.5" style="stroke:#181818;stroke-width:0.5;" width="197.7139" x="2215.14" y="195.3"/><text fill="#000000" font-family="sans-serif" font-size="14" lengthAdjust="spacing" textLength="177.7139" x="2225.14" y="218.2951">CancelShiftSwapUseCase</text></g><!--entity ShiftMapper--><g class="entity" data-qualified-name="scheduling.application.ShiftMapper" data-source-line="27" id="ent0017"><rect fill="#F1F1F1" height="36.2969" rx="2.5" ry="2.5" style="stroke:#181818;stroke-width:0.5;" width="104.8682" x="234.57" y="302.44"/><text fill="#000000" font-family="sans-serif" font-size="14" lengthAdjust="spacing" textLength="84.8682" x="244.57" y="325.4351">ShiftMapper</text></g><!--entity ShiftAssignmentMapper--><g class="entity" data-qualified-name="scheduling.application.ShiftAssignmentMapper" data-source-line="28" id="ent0018"><rect fill="#F1F1F1" height="36.2969" rx="2.5" ry="2.5" style="stroke:#181818;stroke-width:0.5;" width="187.2959" x="665.35" y="302.44"/><text fill="#000000" font-family="sans-serif" font-size="14" lengthAdjust="spacing" textLength="167.2959" x="675.35" y="325.4351">ShiftAssignmentMapper</text></g><!--entity ShiftSwapMapper--><g class="entity" data-qualified-name="scheduling.application.ShiftSwapMapper" data-source-line="29" id="ent0019"><rect fill="#F1F1F1" height="36.2969" rx="2.5" ry="2.5" style="stroke:#181818;stroke-width:0.5;" width="142.6709" x="1765.66" y="302.44"/><text fill="#000000" font-family="sans-serif" font-size="14" lengthAdjust="spacing" textLength="122.6709" x="1775.66" y="325.4351">ShiftSwapMapper</text></g><!--entity IBranchRepository--><g class="entity" data-qualified-name="scheduling.application.IBranchRepository" data-source-line="31" id="ent0020"><ellipse cx="446" cy="320.59" fill="#F1F1F1" rx="8" ry="8" style="stroke:#181818;stroke-width:0.5;"/><text fill="#000000" font-family="sans-serif" font-size="14" lengthAdjust="spacing" textLength="128.584" x="381.708" y="350.5851">IBranchRepository</text></g><!--entity IPositionRepository--><g class="entity" data-qualified-name="scheduling.application.IPositionRepository" data-source-line="32" id="ent0021"><ellipse cx="125" cy="320.59" fill="#F1F1F1" rx="8" ry="8" style="stroke:#181818;stroke-width:0.5;"/><text fill="#000000" font-family="sans-serif" font-size="14" lengthAdjust="spacing" textLength="134.21" x="57.895" y="350.5851">IPositionRepository</text></g><!--entity ICollaboratorRepository--><g class="entity" data-qualified-name="scheduling.application.ICollaboratorRepository" data-source-line="33" id="ent0022"><ellipse cx="980" cy="320.59" fill="#F1F1F1" rx="8" ry="8" style="stroke:#181818;stroke-width:0.5;"/><text fill="#000000" font-family="sans-serif" font-size="14" lengthAdjust="spacing" textLength="165.498" x="897.251" y="350.5851">ICollaboratorRepository</text></g><!--entity Shift--><g class="entity" data-qualified-name="scheduling.domain.Shift" data-source-line="37" id="ent0024"><rect fill="#F1F1F1" height="36.2969" rx="2.5" ry="2.5" style="stroke:#181818;stroke-width:0.5;" width="52.0674" x="3382.97" y="302.44"/><text fill="#000000" font-family="sans-serif" font-size="14" lengthAdjust="spacing" textLength="32.0674" x="3392.97" y="325.4351">Shift</text></g><!--entity ShiftAssignment--><g class="entity" data-qualified-name="scheduling.domain.ShiftAssignment" data-source-line="38" id="ent0025"><rect fill="#F1F1F1" height="36.2969" rx="2.5" ry="2.5" style="stroke:#181818;stroke-width:0.5;" width="134.4951" x="3469.75" y="302.44"/><text fill="#000000" font-family="sans-serif" font-size="14" lengthAdjust="spacing" textLength="114.4951" x="3479.75" y="325.4351">ShiftAssignment</text></g><!--entity ShiftSwapRequest--><g class="entity" data-qualified-name="scheduling.domain.ShiftSwapRequest" data-source-line="39" id="ent0026"><rect fill="#F1F1F1" height="36.2969" rx="2.5" ry="2.5" style="stroke:#181818;stroke-width:0.5;" width="147.3672" x="3639.32" y="302.44"/><text fill="#000000" font-family="sans-serif" font-size="14" lengthAdjust="spacing" textLength="127.3672" x="3649.32" y="325.4351">ShiftSwapRequest</text></g><!--entity ShiftSwapStateMachine--><g class="entity" data-qualified-name="scheduling.domain.ShiftSwapStateMachine" data-source-line="40" id="ent0027"><rect fill="#F1F1F1" height="36.2969" rx="2.5" ry="2.5" style="stroke:#181818;stroke-width:0.5;" width="185.5322" x="3601.23" y="409.59"/><text fill="#000000" font-family="sans-serif" font-size="14" lengthAdjust="spacing" textLength="165.5322" x="3611.23" y="432.5851">ShiftSwapStateMachine</text></g><!--entity CalendarProjection--><g class="entity" data-qualified-name="scheduling.infrastructure.CalendarProjection" data-source-line="45" id="ent0029"><rect fill="#F1F1F1" height="36.2969" rx="2.5" ry="2.5" style="stroke:#181818;stroke-width:0.5;" width="152.7334" x="2896.63" y="409.59"/><text fill="#000000" font-family="sans-serif" font-size="14" lengthAdjust="spacing" textLength="132.7334" x="2906.63" y="432.5851">CalendarProjection</text></g><!--entity CalendarReadRepository--><g class="entity" data-qualified-name="scheduling.infrastructure.CalendarReadRepository" data-source-line="46" id="ent0030"><rect fill="#F1F1F1" height="36.2969" rx="2.5" ry="2.5" style="stroke:#181818;stroke-width:0.5;" width="193.8311" x="2876.08" y="302.44"/><text fill="#000000" font-family="sans-serif" font-size="14" lengthAdjust="spacing" textLength="173.8311" x="2886.08" y="325.4351">CalendarReadRepository</text></g><!--entity ShiftRepository--><g class="entity" data-qualified-name="scheduling.infrastructure.ShiftRepository" data-source-line="48" id="ent0031"><rect fill="#F1F1F1" height="36.2969" rx="2.5" ry="2.5" style="stroke:#181818;stroke-width:0.5;" width="127.1396" x="2469.43" y="302.44"/><text fill="#000000" font-family="sans-serif" font-size="14" lengthAdjust="spacing" textLength="107.1396" x="2479.43" y="325.4351">ShiftRepository</text></g><!--entity ShiftAssignmentRepository--><g class="entity" data-qualified-name="scheduling.infrastructure.ShiftAssignmentRepository" data-source-line="49" id="ent0032"><rect fill="#F1F1F1" height="36.2969" rx="2.5" ry="2.5" style="stroke:#181818;stroke-width:0.5;" width="209.5674" x="2631.22" y="302.44"/><text fill="#000000" font-family="sans-serif" font-size="14" lengthAdjust="spacing" textLength="189.5674" x="2641.22" y="325.4351">ShiftAssignmentRepository</text></g><!--entity ShiftSwapRequestRepository--><g class="entity" data-qualified-name="scheduling.infrastructure.ShiftSwapRequestRepository" data-source-line="50" id="ent0033"><rect fill="#F1F1F1" height="36.2969" rx="2.5" ry="2.5" style="stroke:#181818;stroke-width:0.5;" width="222.4395" x="3104.78" y="302.44"/><text fill="#000000" font-family="sans-serif" font-size="14" lengthAdjust="spacing" textLength="202.4395" x="3114.78" y="325.4351">ShiftSwapRequestRepository</text></g><!--link ShiftController to CreateShiftUseCase--><g class="link" data-entity-1="ent0003" data-entity-2="ent0009" data-link-type="dependency" data-source-line="58" id="lnk34"><path d="M921.02,104.97 C795.7,109.29 513.28,122.15 422,152.3 C393.57,161.69 368.8146,177.7261 349.8746,191.8861" fill="none" id="ShiftController-to-CreateShiftUseCase" style="stroke:#181818;stroke-width:1;"/><polygon fill="#181818" points="345.87,194.88,355.4733,192.6946,349.8746,191.8861,350.6831,186.2873,345.87,194.88" style="stroke:#181818;stroke-width:1;stroke-linejoin:miter;stroke-miterlimit:10;"/></g><!--link ShiftController to UpdateShiftUseCase--><g class="link" data-entity-1="ent0003" data-entity-2="ent0010" data-link-type="dependency" data-source-line="59" id="lnk35"><path d="M921.05,103.39 C765.29,104.59 355.87,111.66 227,152.3 C198.04,161.43 172.8043,177.7157 153.6943,192.0057" fill="none" id="ShiftController-to-UpdateShiftUseCase" style="stroke:#181818;stroke-width:1;"/><polygon fill="#181818" points="149.69,195,159.2931,192.8137,153.6943,192.0057,154.5022,186.4068,149.69,195" style="stroke:#181818;stroke-width:1;stroke-linejoin:miter;stroke-miterlimit:10;"/></g><!--link ShiftController to AssignCollaboratorToShiftUseCase--><g class="link" data-entity-1="ent0003" data-entity-2="ent0011" data-link-type="dependency" data-source-line="60" id="lnk36"><path d="M921.14,111.01 C867.31,118.79 786.99,132.43 719,152.3 C680.04,163.68 641.7925,179.5046 612.1025,192.8146" fill="none" id="ShiftController-to-AssignCollaboratorToShiftUseCase" style="stroke:#181818;stroke-width:1;"/><polygon fill="#181818" points="607.54,194.86,617.3888,194.8283,612.1025,192.8146,614.1162,187.5283,607.54,194.86" style="stroke:#181818;stroke-width:1;stroke-linejoin:miter;stroke-miterlimit:10;"/></g><!--link ShiftController to ReplaceCollaboratorInShiftUseCase--><g class="link" data-entity-1="ent0003" data-entity-2="ent0012" data-link-type="dependency" data-source-line="61" id="lnk37"><path d="M964.01,120.71 C943.1,141.1 912.4081,171.0576 891.5281,191.4376" fill="none" id="ShiftController-to-ReplaceCollaboratorInShiftUseCase" style="stroke:#181818;stroke-width:1;"/><polygon fill="#181818" points="887.95,194.93,897.1846,191.5061,891.5281,191.4376,891.5967,185.7811,887.95,194.93" style="stroke:#181818;stroke-width:1;stroke-linejoin:miter;stroke-miterlimit:10;"/></g><!--link CalendarController to GetCalendarUseCase--><g class="link" data-entity-1="ent0004" data-entity-2="ent0007" data-link-type="dependency" data-source-line="63" id="lnk38"><path d="M1185.56,120.72 C1203.32,129.63 1226.24,139.55 1248,144.3 C1300.44,155.73 1679.34,137.74 1731,152.3 C1761.08,160.77 1787.3792,177.4179 1807.0492,191.9579" fill="none" id="CalendarController-to-GetCalendarUseCase" style="stroke:#181818;stroke-width:1;"/><polygon fill="#181818" points="1811.07,194.93,1806.2103,186.3636,1807.0492,191.9579,1801.4549,192.7968,1811.07,194.93" style="stroke:#181818;stroke-width:1;stroke-linejoin:miter;stroke-miterlimit:10;"/></g><!--link CalendarController to GetMyCalendarUseCase--><g class="link" data-entity-1="ent0004" data-entity-2="ent0008" data-link-type="dependency" data-source-line="64" id="lnk39"><path d="M1150.63,120.71 C1146.71,141.1 1141.2221,169.6396 1137.3121,190.0196" fill="none" id="CalendarController-to-GetMyCalendarUseCase" style="stroke:#181818;stroke-width:1;"/><polygon fill="#181818" points="1136.37,194.93,1141.9941,186.8449,1137.3121,190.0196,1134.1374,185.3375,1136.37,194.93" style="stroke:#181818;stroke-width:1;stroke-linejoin:miter;stroke-miterlimit:10;"/></g><!--link ShiftSwapController to RequestShiftSwapUseCase--><g class="link" data-entity-1="ent0005" data-entity-2="ent0013" data-link-type="dependency" data-source-line="66" id="lnk40"><path d="M1348.37,120.71 C1352.29,141.1 1357.7779,169.6396 1361.6879,190.0196" fill="none" id="ShiftSwapController-to-RequestShiftSwapUseCase" style="stroke:#181818;stroke-width:1;"/><polygon fill="#181818" points="1362.63,194.93,1364.8626,185.3375,1361.6879,190.0196,1357.0059,186.8449,1362.63,194.93" style="stroke:#181818;stroke-width:1;stroke-linejoin:miter;stroke-miterlimit:10;"/></g><!--link ShiftSwapController to ApproveShiftSwapUseCase--><g class="link" data-entity-1="ent0005" data-entity-2="ent0014" data-link-type="dependency" data-source-line="67" id="lnk41"><path d="M1400.9,120.7 C1427.3,129.45 1459.08,140.63 1487,152.3 C1517.83,165.17 1547.4161,179.879 1571.6861,192.529" fill="none" id="ShiftSwapController-to-ApproveShiftSwapUseCase" style="stroke:#181818;stroke-width:1;"/><polygon fill="#181818" points="1576.12,194.84,1569.9879,187.1331,1571.6861,192.529,1566.2902,194.2273,1576.12,194.84" style="stroke:#181818;stroke-width:1;stroke-linejoin:miter;stroke-miterlimit:10;"/></g><!--link ShiftSwapController to RespondToShiftSwapUseCase--><g class="link" data-entity-1="ent0005" data-entity-2="ent0015" data-link-type="dependency" data-source-line="68" id="lnk42"><path d="M1424.96,106.38 C1563.14,112.54 1840.87,127.58 1935,152.3 C1971.19,161.8 2005.3901,178.3165 2031.2501,192.4165" fill="none" id="ShiftSwapController-to-RespondToShiftSwapUseCase" style="stroke:#181818;stroke-width:1;"/><polygon fill="#181818" points="2035.64,194.81,2029.6531,186.9897,2031.2501,192.4165,2025.8234,194.0135,2035.64,194.81" style="stroke:#181818;stroke-width:1;stroke-linejoin:miter;stroke-miterlimit:10;"/></g><!--link ShiftSwapController to CancelShiftSwapUseCase--><g class="link" data-entity-1="ent0005" data-entity-2="ent0016" data-link-type="dependency" data-source-line="69" id="lnk43"><path d="M1424.92,103.5 C1608.17,105 2053.88,112.73 2198,152.3 C2231.03,161.37 2261.2314,177.9919 2283.9114,192.3019" fill="none" id="ShiftSwapController-to-CancelShiftSwapUseCase" style="stroke:#181818;stroke-width:1;"/><polygon fill="#181818" points="2288.14,194.97,2282.6629,186.7846,2283.9114,192.3019,2278.394,193.5504,2288.14,194.97" style="stroke:#181818;stroke-width:1;stroke-linejoin:miter;stroke-miterlimit:10;"/></g><!--link GetCalendarUseCase to CalendarReadRepository--><g class="link" data-entity-1="ent0007" data-entity-2="ent0030" data-link-type="dependency" data-source-line="75" id="lnk44"><path d="M1917.48,229.67 C1923.06,230.4 1928.6,231.06 1934,231.59 C2138.42,251.93 2659.27,207.42 2858,259.44 C2891.13,268.12 2921.2584,284.9895 2943.6884,299.4595" fill="none" id="GetCalendarUseCase-to-CalendarReadRepository" style="stroke:#181818;stroke-width:1;"/><polygon fill="#181818" points="2947.89,302.17,2942.4956,293.9298,2943.6884,299.4595,2938.1588,300.6523,2947.89,302.17" style="stroke:#181818;stroke-width:1;stroke-linejoin:miter;stroke-miterlimit:10;"/></g><!--link GetMyCalendarUseCase to CalendarReadRepository--><g class="link" data-entity-1="ent0008" data-entity-2="ent0030" data-link-type="dependency" data-source-line="77" id="lnk45"><path d="M1227.61,229.85 C1233.48,230.52 1239.32,231.11 1245,231.59 C1423.61,246.74 2684.31,215.17 2858,259.44 C2891.19,267.9 2921.3169,284.7964 2943.7169,299.3464" fill="none" id="GetMyCalendarUseCase-to-CalendarReadRepository" style="stroke:#181818;stroke-width:1;"/><polygon fill="#181818" points="2947.91,302.07,2942.5414,293.813,2943.7169,299.3464,2938.1836,300.5219,2947.91,302.07" style="stroke:#181818;stroke-width:1;stroke-linejoin:miter;stroke-miterlimit:10;"/></g><!--link GetMyCalendarUseCase to ICollaboratorRepository--><g class="link" data-entity-1="ent0008" data-entity-2="ent0022" data-link-type="dependency" data-source-line="78" id="lnk46"><path d="M1107.39,232.04 C1072.34,256.13 1015.3299,295.3069 992.7899,310.8069" fill="none" id="GetMyCalendarUseCase-to-ICollaboratorRepository" style="stroke:#181818;stroke-width:1;"/><polygon fill="#181818" points="988.67,313.64,998.3523,311.8363,992.7899,310.8069,993.8193,305.2445,988.67,313.64" style="stroke:#181818;stroke-width:1;stroke-linejoin:miter;stroke-miterlimit:10;"/></g><!--link CreateShiftUseCase to Shift--><g class="link" data-entity-1="ent0009" data-entity-2="ent0024" data-link-type="dependency" data-source-line="84" id="lnk47"><path d="M404.08,229.56 C410.13,230.36 416.15,231.06 422,231.59 C502.8,239 3267.48,229.78 3343,259.44 C3364.93,268.06 3380.9103,283.7913 3392.8503,298.2813" fill="none" id="CreateShiftUseCase-to-Shift" style="stroke:#181818;stroke-width:1;"/><polygon fill="#181818" points="3396.03,302.14,3393.3936,292.6506,3392.8503,298.2813,3387.2196,297.738,3396.03,302.14" style="stroke:#181818;stroke-width:1;stroke-linejoin:miter;stroke-miterlimit:10;"/></g><!--link CreateShiftUseCase to ShiftMapper--><g class="link" data-entity-1="ent0009" data-entity-2="ent0017" data-link-type="dependency" data-source-line="85" id="lnk48"><path d="M317.89,231.81 C311.03,251.29 301.64,277.9936 294.78,297.4836" fill="none" id="CreateShiftUseCase-to-ShiftMapper" style="stroke:#181818;stroke-width:1;"/><polygon fill="#181818" points="293.12,302.2,299.8812,295.0386,294.78,297.4836,292.335,292.3825,293.12,302.2" style="stroke:#181818;stroke-width:1;stroke-linejoin:miter;stroke-miterlimit:10;"/></g><!--link CreateShiftUseCase to ShiftRepository--><g class="link" data-entity-1="ent0009" data-entity-2="ent0031" data-link-type="dependency" data-source-line="86" id="lnk49"><path d="M404.08,229.53 C410.13,230.34 416.15,231.04 422,231.59 C533.02,242.01 2321.5,229.8 2429,259.44 C2459.56,267.87 2486.4505,284.5672 2506.5405,299.1172" fill="none" id="CreateShiftUseCase-to-ShiftRepository" style="stroke:#181818;stroke-width:1;"/><polygon fill="#181818" points="2510.59,302.05,2505.6471,293.5313,2506.5405,299.1172,2500.9546,300.0105,2510.59,302.05" style="stroke:#181818;stroke-width:1;stroke-linejoin:miter;stroke-miterlimit:10;"/></g><!--link CreateShiftUseCase to IBranchRepository--><g class="link" data-entity-1="ent0009" data-entity-2="ent0020" data-link-type="dependency" data-source-line="87" id="lnk50"><path d="M344.42,232.04 C371.42,255.31 414.0326,292.0457 433.3626,308.7057" fill="none" id="CreateShiftUseCase-to-IBranchRepository" style="stroke:#181818;stroke-width:1;"/><polygon fill="#181818" points="437.15,311.97,432.9441,303.0644,433.3626,308.7057,427.7212,309.1242,437.15,311.97" style="stroke:#181818;stroke-width:1;stroke-linejoin:miter;stroke-miterlimit:10;"/></g><!--link CreateShiftUseCase to IPositionRepository--><g class="link" data-entity-1="ent0009" data-entity-2="ent0021" data-link-type="dependency" data-source-line="88" id="lnk51"><path d="M277.07,232.04 C258.06,239.71 236.13,249.28 217,259.44 C184.98,276.46 153.846,298.3987 137.846,310.0987" fill="none" id="CreateShiftUseCase-to-IPositionRepository" style="stroke:#181818;stroke-width:1;"/><polygon fill="#181818" points="133.81,313.05,143.4359,310.9664,137.846,310.0987,138.7138,304.5087,133.81,313.05" style="stroke:#181818;stroke-width:1;stroke-linejoin:miter;stroke-miterlimit:10;"/></g><!--link UpdateShiftUseCase to Shift--><g class="link" data-entity-1="ent0010" data-entity-2="ent0024" data-link-type="dependency" data-source-line="90" id="lnk52"><path d="M209.98,229.7 C215.72,230.45 221.44,231.09 227,231.59 C313.21,239.39 3262.42,227.82 3343,259.44 C3364.94,268.05 3380.9117,283.7802 3392.8517,298.2802" fill="none" id="UpdateShiftUseCase-to-Shift" style="stroke:#181818;stroke-width:1;"/><polygon fill="#181818" points="3396.03,302.14,3393.3968,292.6497,3392.8517,298.2802,3387.2211,297.735,3396.03,302.14" style="stroke:#181818;stroke-width:1;stroke-linejoin:miter;stroke-miterlimit:10;"/></g><!--link UpdateShiftUseCase to ShiftMapper--><g class="link" data-entity-1="ent0010" data-entity-2="ent0017" data-link-type="dependency" data-source-line="91" id="lnk53"><path d="M168.64,232.07 C184.54,239.65 202.62,249.14 218,259.44 C236.88,272.09 252.587,285.9237 265.957,298.7137" fill="none" id="UpdateShiftUseCase-to-ShiftMapper" style="stroke:#181818;stroke-width:1;"/><polygon fill="#181818" points="269.57,302.17,265.8316,293.0582,265.957,298.7137,260.3015,298.8391,269.57,302.17" style="stroke:#181818;stroke-width:1;stroke-linejoin:miter;stroke-miterlimit:10;"/></g><!--link UpdateShiftUseCase to ShiftRepository--><g class="link" data-entity-1="ent0010" data-entity-2="ent0031" data-link-type="dependency" data-source-line="92" id="lnk54"><path d="M209.98,229.68 C215.73,230.43 221.44,231.08 227,231.59 C348.82,242.84 2311.04,226.99 2429,259.44 C2459.57,267.86 2486.4514,284.5459 2506.5414,299.1059" fill="none" id="UpdateShiftUseCase-to-ShiftRepository" style="stroke:#181818;stroke-width:1;"/><polygon fill="#181818" points="2510.59,302.04,2505.6499,293.5197,2506.5414,299.1059,2500.9553,299.9974,2510.59,302.04" style="stroke:#181818;stroke-width:1;stroke-linejoin:miter;stroke-miterlimit:10;"/></g><!--link UpdateShiftUseCase to IBranchRepository--><g class="link" data-entity-1="ent0010" data-entity-2="ent0020" data-link-type="dependency" data-source-line="93" id="lnk55"><path d="M210.02,228.92 C270.03,239.78 343.28,253.74 357,259.44 C389.37,272.91 418.3968,295.7941 433.5468,308.7241" fill="none" id="UpdateShiftUseCase-to-IBranchRepository" style="stroke:#181818;stroke-width:1;"/><polygon fill="#181818" points="437.35,311.97,433.101,303.0849,433.5468,308.7241,427.9076,309.17,437.35,311.97" style="stroke:#181818;stroke-width:1;stroke-linejoin:miter;stroke-miterlimit:10;"/></g><!--link UpdateShiftUseCase to IPositionRepository--><g class="link" data-entity-1="ent0010" data-entity-2="ent0021" data-link-type="dependency" data-source-line="94" id="lnk56"><path d="M127.5,231.81 C126.85,254.91 125.8521,289.792 125.3721,306.672" fill="none" id="UpdateShiftUseCase-to-IPositionRepository" style="stroke:#181818;stroke-width:1;"/><polygon fill="#181818" points="125.23,311.67,129.4842,302.7873,125.3721,306.672,121.4874,302.5599,125.23,311.67" style="stroke:#181818;stroke-width:1;stroke-linejoin:miter;stroke-miterlimit:10;"/></g><!--link AssignCollaboratorToShiftUseCase to ShiftAssignment--><g class="link" data-entity-1="ent0011" data-entity-2="ent0025" data-link-type="dependency" data-source-line="96" id="lnk57"><path d="M701.16,230.31 C707.18,230.79 713.15,231.23 719,231.59 C794.8,236.33 3380.81,235.86 3453,259.44 C3478.92,267.91 3499.9865,284.1489 3515.8265,298.6889" fill="none" id="AssignCollaboratorToShiftUseCase-to-ShiftAssignment" style="stroke:#181818;stroke-width:1;"/><polygon fill="#181818" points="3519.51,302.07,3515.5847,293.0372,3515.8265,298.6889,3510.1749,298.9307,3519.51,302.07" style="stroke:#181818;stroke-width:1;stroke-linejoin:miter;stroke-miterlimit:10;"/></g><!--link AssignCollaboratorToShiftUseCase to ShiftAssignmentMapper--><g class="link" data-entity-1="ent0011" data-entity-2="ent0018" data-link-type="dependency" data-source-line="97" id="lnk58"><path d="M601.63,232.04 C636.63,251.51 688.3006,280.2593 723.2106,299.6793" fill="none" id="AssignCollaboratorToShiftUseCase-to-ShiftAssignmentMapper" style="stroke:#181818;stroke-width:1;"/><polygon fill="#181818" points="727.58,302.11,721.6596,294.2393,723.2106,299.6793,717.7705,301.2304,727.58,302.11" style="stroke:#181818;stroke-width:1;stroke-linejoin:miter;stroke-miterlimit:10;"/></g><!--link AssignCollaboratorToShiftUseCase to ShiftRepository--><g class="link" data-entity-1="ent0011" data-entity-2="ent0031" data-link-type="dependency" data-source-line="98" id="lnk59"><path d="M701.16,230.26 C707.18,230.76 713.15,231.21 719,231.59 C813.81,237.81 2337.44,234.07 2429,259.44 C2459.55,267.91 2486.4395,284.5985 2506.5295,299.1385" fill="none" id="AssignCollaboratorToShiftUseCase-to-ShiftRepository" style="stroke:#181818;stroke-width:1;"/><polygon fill="#181818" points="2510.58,302.07,2505.6344,293.5529,2506.5295,299.1385,2500.944,300.0337,2510.58,302.07" style="stroke:#181818;stroke-width:1;stroke-linejoin:miter;stroke-miterlimit:10;"/></g><!--link AssignCollaboratorToShiftUseCase to ShiftAssignmentRepository--><g class="link" data-entity-1="ent0011" data-entity-2="ent0032" data-link-type="dependency" data-source-line="99" id="lnk60"><path d="M701.16,230.27 C707.18,230.77 713.15,231.21 719,231.59 C929.14,245.2 2409.28,210.13 2614,259.44 C2648.9,267.85 2681.0914,284.8763 2704.9614,299.4363" fill="none" id="AssignCollaboratorToShiftUseCase-to-ShiftAssignmentRepository" style="stroke:#181818;stroke-width:1;"/><polygon fill="#181818" points="2709.23,302.04,2703.6295,293.9385,2704.9614,299.4363,2699.4636,300.7682,2709.23,302.04" style="stroke:#181818;stroke-width:1;stroke-linejoin:miter;stroke-miterlimit:10;"/></g><!--link AssignCollaboratorToShiftUseCase to ICollaboratorRepository--><g class="link" data-entity-1="ent0011" data-entity-2="ent0022" data-link-type="dependency" data-source-line="100" id="lnk61"><path d="M701.16,229.54 C766.84,238.01 838.87,248.97 870,259.44 C910.23,272.98 948.8736,297.9618 966.9736,310.4418" fill="none" id="AssignCollaboratorToShiftUseCase-to-ICollaboratorRepository" style="stroke:#181818;stroke-width:1;"/><polygon fill="#181818" points="971.09,313.28,965.9511,304.8781,966.9736,310.4418,961.41,311.4643,971.09,313.28" style="stroke:#181818;stroke-width:1;stroke-linejoin:miter;stroke-miterlimit:10;"/></g><!--link ReplaceCollaboratorInShiftUseCase to ShiftAssignment--><g class="link" data-entity-1="ent0012" data-entity-2="ent0025" data-link-type="dependency" data-source-line="102" id="lnk62"><path d="M1004.14,230.39 C1009.83,230.84 1015.47,231.25 1021,231.59 C1155.86,240 3324.59,217.4 3453,259.44 C3478.91,267.93 3499.9876,284.1577 3515.8176,298.6977" fill="none" id="ReplaceCollaboratorInShiftUseCase-to-ShiftAssignment" style="stroke:#181818;stroke-width:1;"/><polygon fill="#181818" points="3519.5,302.08,3515.5775,293.0459,3515.8176,298.6977,3510.1659,298.9378,3519.5,302.08" style="stroke:#181818;stroke-width:1;stroke-linejoin:miter;stroke-miterlimit:10;"/></g><!--link ReplaceCollaboratorInShiftUseCase to ShiftAssignmentMapper--><g class="link" data-entity-1="ent0012" data-entity-2="ent0018" data-link-type="dependency" data-source-line="103" id="lnk63"><path d="M851.42,232.04 C830.81,251.57 801.3899,279.4414 780.8999,298.8514" fill="none" id="ReplaceCollaboratorInShiftUseCase-to-ShiftAssignmentMapper" style="stroke:#181818;stroke-width:1;"/><polygon fill="#181818" points="777.27,302.29,786.5547,299.0045,780.8999,298.8514,781.053,293.1966,777.27,302.29" style="stroke:#181818;stroke-width:1;stroke-linejoin:miter;stroke-miterlimit:10;"/></g><!--link ReplaceCollaboratorInShiftUseCase to ShiftRepository--><g class="link" data-entity-1="ent0012" data-entity-2="ent0031" data-link-type="dependency" data-source-line="104" id="lnk64"><path d="M1004.14,230.34 C1009.83,230.8 1015.47,231.23 1021,231.59 C1177.13,241.98 2278.28,217.4 2429,259.44 C2459.54,267.96 2486.4286,284.6398 2506.5186,299.1698" fill="none" id="ReplaceCollaboratorInShiftUseCase-to-ShiftRepository" style="stroke:#181818;stroke-width:1;"/><polygon fill="#181818" points="2510.57,302.1,2505.6216,293.5845,2506.5186,299.1698,2500.9333,300.0668,2510.57,302.1" style="stroke:#181818;stroke-width:1;stroke-linejoin:miter;stroke-miterlimit:10;"/></g><!--link ReplaceCollaboratorInShiftUseCase to ShiftAssignmentRepository--><g class="link" data-entity-1="ent0012" data-entity-2="ent0032" data-link-type="dependency" data-source-line="105" id="lnk65"><path d="M1004.14,230.35 C1009.83,230.81 1015.47,231.23 1021,231.59 C1197.65,243.14 2441.95,217.75 2614,259.44 C2648.88,267.9 2681.0794,284.9197 2704.9594,299.4597" fill="none" id="ReplaceCollaboratorInShiftUseCase-to-ShiftAssignmentRepository" style="stroke:#181818;stroke-width:1;"/><polygon fill="#181818" points="2709.23,302.06,2703.6231,293.9629,2704.9594,299.4597,2699.4626,300.796,2709.23,302.06" style="stroke:#181818;stroke-width:1;stroke-linejoin:miter;stroke-miterlimit:10;"/></g><!--link ReplaceCollaboratorInShiftUseCase to ICollaboratorRepository--><g class="link" data-entity-1="ent0012" data-entity-2="ent0022" data-link-type="dependency" data-source-line="106" id="lnk66"><path d="M888.16,231.81 C912.33,254.91 950.4346,291.3362 968.1046,308.2162" fill="none" id="ReplaceCollaboratorInShiftUseCase-to-ICollaboratorRepository" style="stroke:#181818;stroke-width:1;"/><polygon fill="#181818" points="971.72,311.67,967.9753,302.5608,968.1046,308.2162,962.4492,308.3455,971.72,311.67" style="stroke:#181818;stroke-width:1;stroke-linejoin:miter;stroke-miterlimit:10;"/></g><!--link RequestShiftSwapUseCase to ShiftSwapRequest--><g class="link" data-entity-1="ent0013" data-entity-2="ent0026" data-link-type="dependency" data-source-line="112" id="lnk67"><path d="M1470.19,230.07 C1475.87,230.65 1481.5,231.17 1487,231.59 C1605.27,240.71 3508.63,224.55 3622,259.44 C3649.51,267.91 3672.5987,284.3174 3689.9387,298.8574" fill="none" id="RequestShiftSwapUseCase-to-ShiftSwapRequest" style="stroke:#181818;stroke-width:1;"/><polygon fill="#181818" points="3693.77,302.07,3689.4438,293.2222,3689.9387,298.8574,3684.3035,299.3523,3693.77,302.07" style="stroke:#181818;stroke-width:1;stroke-linejoin:miter;stroke-miterlimit:10;"/></g><!--link RequestShiftSwapUseCase to ShiftSwapMapper--><g class="link" data-entity-1="ent0013" data-entity-2="ent0019" data-link-type="dependency" data-source-line="113" id="lnk68"><path d="M1444.83,232.04 C1534.27,252.01 1673.9802,283.2004 1760.3702,302.4904" fill="none" id="RequestShiftSwapUseCase-to-ShiftSwapMapper" style="stroke:#181818;stroke-width:1;"/><polygon fill="#181818" points="1765.25,303.58,1757.338,297.7148,1760.3702,302.4904,1755.5946,305.5226,1765.25,303.58" style="stroke:#181818;stroke-width:1;stroke-linejoin:miter;stroke-miterlimit:10;"/></g><!--link RequestShiftSwapUseCase to ShiftRepository--><g class="link" data-entity-1="ent0013" data-entity-2="ent0031" data-link-type="dependency" data-source-line="114" id="lnk69"><path d="M1470.2,229.96 C1475.88,230.57 1481.5,231.12 1487,231.59 C1591.33,240.5 2328.28,230.81 2429,259.44 C2459.5,268.11 2486.3824,284.7684 2506.4924,299.2484" fill="none" id="RequestShiftSwapUseCase-to-ShiftRepository" style="stroke:#181818;stroke-width:1;"/><polygon fill="#181818" points="2510.55,302.17,2505.5836,293.665,2506.4924,299.2484,2500.909,300.1571,2510.55,302.17" style="stroke:#181818;stroke-width:1;stroke-linejoin:miter;stroke-miterlimit:10;"/></g><!--link RequestShiftSwapUseCase to ShiftAssignmentRepository--><g class="link" data-entity-1="ent0013" data-entity-2="ent0032" data-link-type="dependency" data-source-line="115" id="lnk70"><path d="M1470.2,229.99 C1475.87,230.6 1481.5,231.14 1487,231.59 C1611.83,241.95 2492.37,229.5 2614,259.44 C2648.85,268.02 2681.057,285.0236 2704.937,299.5336" fill="none" id="RequestShiftSwapUseCase-to-ShiftAssignmentRepository" style="stroke:#181818;stroke-width:1;"/><polygon fill="#181818" points="2709.21,302.13,2703.5957,294.0381,2704.937,299.5336,2699.4414,300.8749,2709.21,302.13" style="stroke:#181818;stroke-width:1;stroke-linejoin:miter;stroke-miterlimit:10;"/></g><!--link RequestShiftSwapUseCase to ShiftSwapRequestRepository--><g class="link" data-entity-1="ent0013" data-entity-2="ent0033" data-link-type="dependency" data-source-line="116" id="lnk71"><path d="M1470.19,230.04 C1475.87,230.63 1481.5,231.16 1487,231.59 C1664.25,245.64 2913.75,219.45 3087,259.44 C3123.6,267.89 3157.874,285.0203 3183.214,299.5703" fill="none" id="RequestShiftSwapUseCase-to-ShiftSwapRequestRepository" style="stroke:#181818;stroke-width:1;"/><polygon fill="#181818" points="3187.55,302.06,3181.7369,294.1097,3183.214,299.5703,3177.7533,301.0473,3187.55,302.06" style="stroke:#181818;stroke-width:1;stroke-linejoin:miter;stroke-miterlimit:10;"/></g><!--link RequestShiftSwapUseCase to ICollaboratorRepository--><g class="link" data-entity-1="ent0013" data-entity-2="ent0022" data-link-type="dependency" data-source-line="117" id="lnk72"><path d="M1301.39,232.04 C1204.81,258.35 1034.5543,304.7362 993.5743,315.8962" fill="none" id="RequestShiftSwapUseCase-to-ICollaboratorRepository" style="stroke:#181818;stroke-width:1;"/><polygon fill="#181818" points="988.75,317.21,998.4848,318.7046,993.5743,315.8962,996.3827,310.9857,988.75,317.21" style="stroke:#181818;stroke-width:1;stroke-linejoin:miter;stroke-miterlimit:10;"/></g><!--link ApproveShiftSwapUseCase to ShiftSwapMapper--><g class="link" data-entity-1="ent0014" data-entity-2="ent0019" data-link-type="dependency" data-source-line="119" id="lnk73"><path d="M1647.16,232.04 C1689.38,251.51 1752.4396,280.5961 1794.5496,300.0161" fill="none" id="ApproveShiftSwapUseCase-to-ShiftSwapMapper" style="stroke:#181818;stroke-width:1;"/><polygon fill="#181818" points="1799.09,302.11,1792.5924,294.7086,1794.5496,300.0161,1789.2421,301.9733,1799.09,302.11" style="stroke:#181818;stroke-width:1;stroke-linejoin:miter;stroke-miterlimit:10;"/></g><!--link ApproveShiftSwapUseCase to ShiftSwapRequestRepository--><g class="link" data-entity-1="ent0014" data-entity-2="ent0033" data-link-type="dependency" data-source-line="120" id="lnk74"><path d="M1713.73,229.99 C1719.56,230.6 1725.35,231.14 1731,231.59 C1881.22,243.65 2940.22,225.32 3087,259.44 C3123.46,267.92 3157.6117,284.9441 3182.9517,299.4641" fill="none" id="ApproveShiftSwapUseCase-to-ShiftSwapRequestRepository" style="stroke:#181818;stroke-width:1;"/><polygon fill="#181818" points="3187.29,301.95,3181.4698,294.0049,3182.9517,299.4641,3177.4924,300.9461,3187.29,301.95" style="stroke:#181818;stroke-width:1;stroke-linejoin:miter;stroke-miterlimit:10;"/></g><!--link ApproveShiftSwapUseCase to ShiftAssignmentRepository--><g class="link" data-entity-1="ent0014" data-entity-2="ent0032" data-link-type="dependency" data-source-line="121" id="lnk75"><path d="M1713.73,229.91 C1719.57,230.54 1725.35,231.11 1731,231.59 C1926.6,248.38 2423.53,211.87 2614,259.44 C2648.82,268.14 2681.0228,285.1304 2704.9228,299.6004" fill="none" id="ApproveShiftSwapUseCase-to-ShiftAssignmentRepository" style="stroke:#181818;stroke-width:1;"/><polygon fill="#181818" points="2709.2,302.19,2703.5728,294.107,2704.9228,299.6004,2699.4294,300.9505,2709.2,302.19" style="stroke:#181818;stroke-width:1;stroke-linejoin:miter;stroke-miterlimit:10;"/></g><!--link RespondToShiftSwapUseCase to ShiftSwapMapper--><g class="link" data-entity-1="ent0015" data-entity-2="ent0019" data-link-type="dependency" data-source-line="123" id="lnk76"><path d="M2027.67,232.04 C1985.27,251.51 1921.914,280.6038 1879.614,300.0238" fill="none" id="RespondToShiftSwapUseCase-to-ShiftSwapMapper" style="stroke:#181818;stroke-width:1;"/><polygon fill="#181818" points="1875.07,302.11,1884.9181,301.9901,1879.614,300.0238,1881.5803,294.7197,1875.07,302.11" style="stroke:#181818;stroke-width:1;stroke-linejoin:miter;stroke-miterlimit:10;"/></g><!--link RespondToShiftSwapUseCase to ShiftSwapRequestRepository--><g class="link" data-entity-1="ent0015" data-entity-2="ent0033" data-link-type="dependency" data-source-line="124" id="lnk77"><path d="M2180.4,230 C2186.35,230.59 2192.24,231.13 2198,231.59 C2395.02,247.44 2894.73,213.65 3087,259.44 C3123.42,268.12 3157.5657,285.1147 3182.9257,299.5647" fill="none" id="RespondToShiftSwapUseCase-to-ShiftSwapRequestRepository" style="stroke:#181818;stroke-width:1;"/><polygon fill="#181818" points="3187.27,302.04,3181.4306,294.109,3182.9257,299.5647,3177.47,301.0598,3187.27,302.04" style="stroke:#181818;stroke-width:1;stroke-linejoin:miter;stroke-miterlimit:10;"/></g><!--link CancelShiftSwapUseCase to ShiftSwapMapper--><g class="link" data-entity-1="ent0016" data-entity-2="ent0019" data-link-type="dependency" data-source-line="126" id="lnk78"><path d="M2234.16,232.04 C2143.19,252.1 2000.7427,283.4934 1913.3927,302.7534" fill="none" id="CancelShiftSwapUseCase-to-ShiftSwapMapper" style="stroke:#181818;stroke-width:1;"/><polygon fill="#181818" points="1908.51,303.83,1918.1602,305.7983,1913.3927,302.7534,1916.4376,297.9859,1908.51,303.83" style="stroke:#181818;stroke-width:1;stroke-linejoin:miter;stroke-miterlimit:10;"/></g><!--link CancelShiftSwapUseCase to ShiftSwapRequestRepository--><g class="link" data-entity-1="ent0016" data-entity-2="ent0033" data-link-type="dependency" data-source-line="127" id="lnk79"><path d="M2413.07,215.58 C2592.04,218.4 2962.28,227.97 3087,259.44 C3123.06,268.55 3156.9408,285.281 3182.3408,299.551" fill="none" id="CancelShiftSwapUseCase-to-ShiftSwapRequestRepository" style="stroke:#181818;stroke-width:1;"/><polygon fill="#181818" points="3186.7,302,3180.8127,294.1044,3182.3408,299.551,3176.8943,301.0791,3186.7,302" style="stroke:#181818;stroke-width:1;stroke-linejoin:miter;stroke-miterlimit:10;"/></g><!--link CalendarReadRepository to CalendarProjection--><g class="link" data-entity-1="ent0030" data-entity-2="ent0029" data-link-type="dependency" data-source-line="129" id="lnk80"><path d="M2973,338.96 C2973,358.44 2973,384.86 2973,404.35" fill="none" id="CalendarReadRepository-to-CalendarProjection" style="stroke:#181818;stroke-width:1;"/><polygon fill="#181818" points="2973,409.35,2977,400.35,2973,404.35,2969,400.35,2973,409.35" style="stroke:#181818;stroke-width:1;stroke-linejoin:miter;stroke-miterlimit:10;"/></g><!--link ShiftSwapRequest to ShiftSwapStateMachine--><g class="link" data-entity-1="ent0026" data-entity-2="ent0027" data-link-type="dependency" data-source-line="135" id="lnk81"><path d="M3709.86,338.96 C3706.34,358.44 3701.5487,384.9396 3698.0287,404.4296" fill="none" id="ShiftSwapRequest-to-ShiftSwapStateMachine" style="stroke:#181818;stroke-width:1;"/><polygon fill="#181818" points="3697.14,409.35,3702.6759,401.2042,3698.0287,404.4296,3694.8033,399.7824,3697.14,409.35" style="stroke:#181818;stroke-width:1;stroke-linejoin:miter;stroke-miterlimit:10;"/></g><?plantuml-src fLPBRjim4Dth54GsMUK8BP2uG965WS1kLaKMh3IssSWaIz8jZ2BR7g17x4bAVIsACwIIQCbvZvptD3EaVHPISyEFh5H7hIH8jtNd6fY1qd6vhw4eD2-V-HxObIqFK9rg8VTNx7THC3P6k1RD4lFVr-r1xDnAIMTKNODvwbPNl0PPSHC5MlZs5zTXv6Mslwv5oPrGiZ_QCp-36tPzjB3Y5fx6mFeSXVey3707xQ4XwL5NKQ2Bt5ehzdBbK-FVbE5EcIyAsM03kkObJ77t4jjl0pzEODqeFDpcLckZVW8HtO3rVwdg4uZZAovBgEFWnEkrDpDqlnDuzFy-ZZMx3Aljif0EpCuBPVTtnfzsyBgL5LxjUHv_QDRzBwCHKxC2LFZxAtNaGeOLXWkOfzvxFL_UEl-lrxmy20bnjGcvCzmwSohToS2bu8QIUZ3gksyFhsnMt1lWrKL6uFfq6KiSZqyaX82NmgTypJvGduzT-icoVt_-CbyBh2a6c-GLKV-ocvkFUDyGKAoJ26Y-jGZYacR3Pax7nYP74esD4tHo3TaH7PxWa7sVF8US1WaMEICozTGxa2aVnDlsMBn7Ea9iRugIO5039IEjzOAjkVJjtpHZHYBI2vsp_M3A08PnIi9c0uC6nXEOXYB3kC1QDLII1enAA5YaX08YIaWegYGxIIPfJw-BDn97vSleaG-le65tnD8Do7vOC40fmzx871rRo8yiUmqFzspX3kyQ8ir4pTsmrFKmyIrukombJ2nEu15ZSsZApXmFVRvaY7J9KZSavK8IdyelJqGDAHBtCVsdaen4bWLrZrD7fU2PSz3NxV2OYD_4cKRvrBxcbxn2frqmanMyuFy3?></g></svg>