<svg xmlns="http://www.w3.org/2000/svg" xmlns:xlink="http://www.w3.org/1999/xlink" contentStyleType="text/css" data-diagram-type="DESCRIPTION" height="509px" preserveAspectRatio="none" style="width:1671px;height:509px;background:#FFFFFF;" version="1.1" viewBox="0 0 1671 509" width="1671px" zoomAndPan="magnify"><?plantuml 1.2026.4beta2?><defs/><g><!--cluster identity--><g class="cluster" data-qualified-name="identity" data-source-line="3" id="ent0002"><path d="M8.5,6 L71.0918,6 A3.75,3.75 0 0 1 73.5918,8.5 L80.5918,28.2969 L1653.5,28.2969 A2.5,2.5 0 0 1 1656,30.7969 L1656,491.69 A2.5,2.5 0 0 1 1653.5,494.19 L8.5,494.19 A2.5,2.5 0 0 1 6,491.69 L6,8.5 A2.5,2.5 0 0 1 8.5,6" fill="none" style="stroke:#000000;stroke-width:1.5;"/><line style="stroke:#000000;stroke-width:1.5;" x1="6" x2="80.5918" y1="28.2969" y2="28.2969"/><text fill="#000000" font-family="sans-serif" font-size="14" font-weight="700" lengthAdjust="spacing" textLength="61.5918" x="10" y="20.9951">identity</text></g><!--cluster api--><g class="cluster" data-qualified-name="identity.api" data-source-line="4" id="ent0003"><path d="M526.5,49 L551.7676,49 A3.75,3.75 0 0 1 554.2676,51.5 L561.2676,71.2969 L1051.5,71.2969 A2.5,2.5 0 0 1 1054,73.7969 L1054,133.8 A2.5,2.5 0 0 1 1051.5,136.3 L526.5,136.3 A2.5,2.5 0 0 1 524,133.8 L524,51.5 A2.5,2.5 0 0 1 526.5,49" fill="none" style="stroke:#000000;stroke-width:1.5;"/><line style="stroke:#000000;stroke-width:1.5;" x1="524" x2="561.2676" y1="71.2969" y2="71.2969"/><text fill="#000000" font-family="sans-serif" font-size="14" font-weight="700" lengthAdjust="spacing" textLength="24.2676" x="528" y="63.9951">api</text></g><!--cluster application--><g class="cluster" data-qualified-name="identity.application" data-source-line="10" id="ent0007"><path d="M32.5,160.3 L121.4102,160.3 A3.75,3.75 0 0 1 123.9102,162.8 L130.9102,182.5969 L1629.5,182.5969 A2.5,2.5 0 0 1 1632,185.0969 L1632,245.1 A2.5,2.5 0 0 1 1629.5,247.6 L32.5,247.6 A2.5,2.5 0 0 1 30,245.1 L30,162.8 A2.5,2.5 0 0 1 32.5,160.3" fill="none" style="stroke:#000000;stroke-width:1.5;"/><line style="stroke:#000000;stroke-width:1.5;" x1="30" x2="130.9102" y1="182.5969" y2="182.5969"/><text fill="#000000" font-family="sans-serif" font-size="14" font-weight="700" lengthAdjust="spacing" textLength="87.9102" x="34" y="175.2951">application</text></g><!--cluster domain--><g class="cluster" data-qualified-name="identity.domain" data-source-line="21" id="ent0015"><path d="M395.5,382.89 L454.9404,382.89 A3.75,3.75 0 0 1 457.4404,385.39 L464.4404,405.1869 L1023.5,405.1869 A2.5,2.5 0 0 1 1026,407.6869 L1026,467.69 A2.5,2.5 0 0 1 1023.5,470.19 L395.5,470.19 A2.5,2.5 0 0 1 393,467.69 L393,385.39 A2.5,2.5 0 0 1 395.5,382.89" fill="none" style="stroke:#000000;stroke-width:1.5;"/><line style="stroke:#000000;stroke-width:1.5;" x1="393" x2="464.4404" y1="405.1869" y2="405.1869"/><text fill="#000000" font-family="sans-serif" font-size="14" font-weight="700" lengthAdjust="spacing" textLength="58.4404" x="397" y="397.8851">domain</text></g><!--cluster infrastructure--><g class="cluster" data-qualified-name="identity.infrastructure" data-source-line="29" id="ent0021"><path d="M141.5,271.6 L252.9619,271.6 A3.75,3.75 0 0 1 255.4619,274.1 L262.4619,293.8969 L1030.5,293.8969 A2.5,2.5 0 0 1 1033,296.3969 L1033,356.39 A2.5,2.5 0 0 1 1030.5,358.89 L141.5,358.89 A2.5,2.5 0 0 1 139,356.39 L139,274.1 A2.5,2.5 0 0 1 141.5,271.6" fill="none" style="stroke:#000000;stroke-width:1.5;"/><line style="stroke:#000000;stroke-width:1.5;" x1="139" x2="262.4619" y1="293.8969" y2="293.8969"/><text fill="#000000" font-family="sans-serif" font-size="14" font-weight="700" lengthAdjust="spacing" textLength="110.4619" x="143" y="286.5951">infrastructure</text></g><!--entity AuthController--><g class="entity" data-qualified-name="identity.api.AuthController" data-source-line="5" id="ent0004"><rect fill="#F1F1F1" height="36.2969" rx="2.5" ry="2.5" style="stroke:#181818;stroke-width:0.5;" width="121.9854" x="540.01" y="84"/><text fill="#000000" font-family="sans-serif" font-size="14" lengthAdjust="spacing" textLength="101.9854" x="550.01" y="106.9951">AuthController</text></g><!--entity UsuarioController--><g class="entity" data-qualified-name="identity.api.UsuarioController" data-source-line="6" id="ent0005"><rect fill="#F1F1F1" height="36.2969" rx="2.5" ry="2.5" style="stroke:#181818;stroke-width:0.5;" width="142.377" x="696.81" y="84"/><text fill="#000000" font-family="sans-serif" font-size="14" lengthAdjust="spacing" textLength="122.377" x="706.81" y="106.9951">UsuarioController</text></g><!--entity RolUsuarioController--><g class="entity" data-qualified-name="identity.api.RolUsuarioController" data-source-line="7" id="ent0006"><rect fill="#F1F1F1" height="36.2969" rx="2.5" ry="2.5" style="stroke:#181818;stroke-width:0.5;" width="164.5596" x="873.72" y="84"/><text fill="#000000" font-family="sans-serif" font-size="14" lengthAdjust="spacing" textLength="144.5596" x="883.72" y="106.9951">RolUsuarioController</text></g><!--entity LoginUseCase--><g class="entity" data-qualified-name="identity.application.LoginUseCase" data-source-line="11" id="ent0008"><rect fill="#F1F1F1" height="36.2969" rx="2.5" ry="2.5" style="stroke:#181818;stroke-width:0.5;" width="118.4307" x="45.78" y="195.3"/><text fill="#000000" font-family="sans-serif" font-size="14" lengthAdjust="spacing" textLength="98.4307" x="55.78" y="218.2951">LoginUseCase</text></g><!--entity CrearUsuarioUseCase--><g class="entity" data-qualified-name="identity.application.CrearUsuarioUseCase" data-source-line="12" id="ent0009"><rect fill="#F1F1F1" height="36.2969" rx="2.5" ry="2.5" style="stroke:#181818;stroke-width:0.5;" width="172.0996" x="681.95" y="195.3"/><text fill="#000000" font-family="sans-serif" font-size="14" lengthAdjust="spacing" textLength="152.0996" x="691.95" y="218.2951">CrearUsuarioUseCase</text></g><!--entity ActualizarUsuarioUseCase--><g class="entity" data-qualified-name="identity.application.ActualizarUsuarioUseCase" data-source-line="13" id="ent0010"><rect fill="#F1F1F1" height="36.2969" rx="2.5" ry="2.5" style="stroke:#181818;stroke-width:0.5;" width="203.2988" x="443.35" y="195.3"/><text fill="#000000" font-family="sans-serif" font-size="14" lengthAdjust="spacing" textLength="183.2988" x="453.35" y="218.2951">ActualizarUsuarioUseCase</text></g><!--entity DesactivarUsuarioUseCase--><g class="entity" data-qualified-name="identity.application.DesactivarUsuarioUseCase" data-source-line="14" id="ent0011"><rect fill="#F1F1F1" height="36.2969" rx="2.5" ry="2.5" style="stroke:#181818;stroke-width:0.5;" width="208.583" x="199.71" y="195.3"/><text fill="#000000" font-family="sans-serif" font-size="14" lengthAdjust="spacing" textLength="188.583" x="209.71" y="218.2951">DesactivarUsuarioUseCase</text></g><!--entity AsignarRolAUsuarioUseCase--><g class="entity" data-qualified-name="identity.application.AsignarRolAUsuarioUseCase" data-source-line="16" id="ent0012"><rect fill="#F1F1F1" height="36.2969" rx="2.5" ry="2.5" style="stroke:#181818;stroke-width:0.5;" width="218.2354" x="1397.88" y="195.3"/><text fill="#000000" font-family="sans-serif" font-size="14" lengthAdjust="spacing" textLength="198.2354" x="1407.88" y="218.2951">AsignarRolAUsuarioUseCase</text></g><!--entity QuitarRolAUsuarioUseCase--><g class="entity" data-qualified-name="identity.application.QuitarRolAUsuarioUseCase" data-source-line="17" id="ent0013"><rect fill="#F1F1F1" height="36.2969" rx="2.5" ry="2.5" style="stroke:#181818;stroke-width:0.5;" width="208.9863" x="1153.51" y="195.3"/><text fill="#000000" font-family="sans-serif" font-size="14" lengthAdjust="spacing" textLength="188.9863" x="1163.51" y="218.2951">QuitarRolAUsuarioUseCase</text></g><!--entity ListarRolesDeUsuarioUseCase--><g class="entity" data-qualified-name="identity.application.ListarRolesDeUsuarioUseCase" data-source-line="18" id="ent0014"><rect fill="#F1F1F1" height="36.2969" rx="2.5" ry="2.5" style="stroke:#181818;stroke-width:0.5;" width="229.9111" x="889.04" y="195.3"/><text fill="#000000" font-family="sans-serif" font-size="14" lengthAdjust="spacing" textLength="209.9111" x="899.04" y="218.2951">ListarRolesDeUsuarioUseCase</text></g><!--entity Usuario--><g class="entity" data-qualified-name="identity.domain.Usuario" data-source-line="22" id="ent0016"><rect fill="#F1F1F1" height="36.2969" rx="2.5" ry="2.5" style="stroke:#181818;stroke-width:0.5;" width="73.2041" x="806.4" y="417.89"/><text fill="#000000" font-family="sans-serif" font-size="14" lengthAdjust="spacing" textLength="53.2041" x="816.4" y="440.8851">Usuario</text></g><!--entity RolUsuario--><g class="entity" data-qualified-name="identity.domain.RolUsuario" data-source-line="23" id="ent0017"><rect fill="#F1F1F1" height="36.2969" rx="2.5" ry="2.5" style="stroke:#181818;stroke-width:0.5;" width="95.3867" x="914.31" y="417.89"/><text fill="#000000" font-family="sans-serif" font-size="14" lengthAdjust="spacing" textLength="75.3867" x="924.31" y="440.8851">RolUsuario</text></g><!--entity Rol--><g class="entity" data-qualified-name="identity.domain.Rol" data-source-line="24" id="ent0018"><rect fill="#F1F1F1" height="36.2969" rx="2.5" ry="2.5" style="stroke:#181818;stroke-width:0.5;" width="42.1826" x="728.91" y="417.89"/><text fill="#000000" font-family="sans-serif" font-size="14" lengthAdjust="spacing" textLength="22.1826" x="738.91" y="440.8851">Rol</text></g><!--entity PasswordHasher--><g class="entity" data-qualified-name="identity.domain.PasswordHasher" data-source-line="25" id="ent0019"><rect fill="#F1F1F1" height="36.2969" rx="2.5" ry="2.5" style="stroke:#181818;stroke-width:0.5;" width="135.9102" x="558.04" y="417.89"/><text fill="#000000" font-family="sans-serif" font-size="14" lengthAdjust="spacing" textLength="115.9102" x="568.04" y="440.8851">PasswordHasher</text></g><!--entity TokenService--><g class="entity" data-qualified-name="identity.domain.TokenService" data-source-line="26" id="ent0020"><rect fill="#F1F1F1" height="36.2969" rx="2.5" ry="2.5" style="stroke:#181818;stroke-width:0.5;" width="114.4521" x="408.77" y="417.89"/><text fill="#000000" font-family="sans-serif" font-size="14" lengthAdjust="spacing" textLength="94.4521" x="418.77" y="440.8851">TokenService</text></g><!--entity UsuarioRepositoryPostgres--><g class="entity" data-qualified-name="identity.infrastructure.UsuarioRepositoryPostgres" data-source-line="30" id="ent0022"><rect fill="#F1F1F1" height="36.2969" rx="2.5" ry="2.5" style="stroke:#181818;stroke-width:0.5;" width="208.6172" x="542.69" y="306.6"/><text fill="#000000" font-family="sans-serif" font-size="14" lengthAdjust="spacing" textLength="188.6172" x="552.69" y="329.5951">UsuarioRepositoryPostgres</text></g><!--entity RolUsuarioRepositoryPostgres--><g class="entity" data-qualified-name="identity.infrastructure.RolUsuarioRepositoryPostgres" data-source-line="31" id="ent0023"><rect fill="#F1F1F1" height="36.2969" rx="2.5" ry="2.5" style="stroke:#181818;stroke-width:0.5;" width="230.7998" x="786.6" y="306.6"/><text fill="#000000" font-family="sans-serif" font-size="14" lengthAdjust="spacing" textLength="210.7998" x="796.6" y="329.5951">RolUsuarioRepositoryPostgres</text></g><!--entity BcryptPasswordHasher--><g class="entity" data-qualified-name="identity.infrastructure.BcryptPasswordHasher" data-source-line="32" id="ent0024"><rect fill="#F1F1F1" height="36.2969" rx="2.5" ry="2.5" style="stroke:#181818;stroke-width:0.5;" width="181.6289" x="326.19" y="306.6"/><text fill="#000000" font-family="sans-serif" font-size="14" lengthAdjust="spacing" textLength="161.6289" x="336.19" y="329.5951">BcryptPasswordHasher</text></g><!--entity JwtTokenService--><g class="entity" data-qualified-name="identity.infrastructure.JwtTokenService" data-source-line="33" id="ent0025"><rect fill="#F1F1F1" height="36.2969" rx="2.5" ry="2.5" style="stroke:#181818;stroke-width:0.5;" width="135.5205" x="155.24" y="306.6"/><text fill="#000000" font-family="sans-serif" font-size="14" lengthAdjust="spacing" textLength="115.5205" x="165.24" y="329.5951">JwtTokenService</text></g><!--link AuthController to LoginUseCase--><g class="link" data-entity-1="ent0004" data-entity-2="ent0008" data-link-type="dependency" data-source-line="37" id="lnk26"><path d="M539.9,106.26 C439.72,112.04 245.34,126.27 182,152.3 C158.47,161.97 140.376,176.7817 125.876,190.8517" fill="none" id="AuthController-to-LoginUseCase" style="stroke:#181818;stroke-width:1;"/><polygon fill="#181818" points="121.57,195.03,130.8146,191.6332,125.1583,191.5481,125.2435,185.8919,121.57,195.03" style="stroke:#181818;stroke-width:1;"/></g><!--link UsuarioController to CrearUsuarioUseCase--><g class="link" data-entity-1="ent0005" data-entity-2="ent0009" data-link-type="dependency" data-source-line="39" id="lnk27"><path d="M768,120.71 C768,141.11 768,168.55 768,188.93" fill="none" id="UsuarioController-to-CrearUsuarioUseCase" style="stroke:#181818;stroke-width:1;"/><polygon fill="#181818" points="768,194.93,772,185.93,768,189.93,764,185.93,768,194.93" style="stroke:#181818;stroke-width:1;"/></g><!--link UsuarioController to ActualizarUsuarioUseCase--><g class="link" data-entity-1="ent0005" data-entity-2="ent0010" data-link-type="dependency" data-source-line="40" id="lnk28"><path d="M730.34,120.66 C710.53,129.93 685.89,141.6 664,152.3 C635.3,166.33 608.3025,179.9791 584.5925,192.0991" fill="none" id="UsuarioController-to-ActualizarUsuarioUseCase" style="stroke:#181818;stroke-width:1;"/><polygon fill="#181818" points="579.25,194.83,589.0843,194.2952,583.7021,192.5542,585.4431,187.1719,579.25,194.83" style="stroke:#181818;stroke-width:1;"/></g><!--link UsuarioController to DesactivarUsuarioUseCase--><g class="link" data-entity-1="ent0005" data-entity-2="ent0011" data-link-type="dependency" data-source-line="41" id="lnk29"><path d="M738.2,120.6 C721.41,129.47 699.71,139.4 679,144.3 C624.26,157.25 480.57,138.66 426,152.3 C391.18,161 359.8326,177.4625 335.9326,191.9325" fill="none" id="UsuarioController-to-DesactivarUsuarioUseCase" style="stroke:#181818;stroke-width:1;"/><polygon fill="#181818" points="330.8,195.04,340.5706,193.8005,335.0772,192.4504,336.4272,186.957,330.8,195.04" style="stroke:#181818;stroke-width:1;"/></g><!--link RolUsuarioController to AsignarRolAUsuarioUseCase--><g class="link" data-entity-1="ent0006" data-entity-2="ent0012" data-link-type="dependency" data-source-line="43" id="lnk30"><path d="M1038.44,104.78 C1125.02,108.32 1264.41,119.2 1380,152.3 C1414.83,162.27 1446.7431,177.9997 1471.8031,191.8997" fill="none" id="RolUsuarioController-to-AsignarRolAUsuarioUseCase" style="stroke:#181818;stroke-width:1;"/><polygon fill="#181818" points="1477.05,194.81,1471.1198,186.9466,1472.6776,192.3847,1467.2394,193.9425,1477.05,194.81" style="stroke:#181818;stroke-width:1;"/></g><!--link RolUsuarioController to QuitarRolAUsuarioUseCase--><g class="link" data-entity-1="ent0006" data-entity-2="ent0013" data-link-type="dependency" data-source-line="44" id="lnk31"><path d="M1033.23,120.78 C1065.45,129.02 1102.98,139.78 1136,152.3 C1167.8,164.35 1197.1352,179.039 1221.3552,192.059" fill="none" id="RolUsuarioController-to-QuitarRolAUsuarioUseCase" style="stroke:#181818;stroke-width:1;"/><polygon fill="#181818" points="1226.64,194.9,1220.6068,187.1154,1222.236,192.5325,1216.8188,194.1618,1226.64,194.9" style="stroke:#181818;stroke-width:1;"/></g><!--link RolUsuarioController to ListarRolesDeUsuarioUseCase--><g class="link" data-entity-1="ent0006" data-entity-2="ent0014" data-link-type="dependency" data-source-line="45" id="lnk32"><path d="M963.71,120.71 C972.67,141.11 984.9475,169.0564 993.8975,189.4364" fill="none" id="RolUsuarioController-to-ListarRolesDeUsuarioUseCase" style="stroke:#181818;stroke-width:1;"/><polygon fill="#181818" points="996.31,194.93,996.3536,185.0812,994.2995,190.352,989.0288,188.298,996.31,194.93" style="stroke:#181818;stroke-width:1;"/></g><!--link LoginUseCase to UsuarioRepositoryPostgres--><g class="link" data-entity-1="ent0008" data-entity-2="ent0022" data-link-type="dependency" data-source-line="47" id="lnk33"><path d="M130.46,231.96 C144.89,240.86 163.68,250.78 182,255.6 C255.74,274.98 450.95,245.42 525,263.6 C559.86,272.15 591.2033,288.6328 615.0833,303.1528" fill="none" id="LoginUseCase-to-UsuarioRepositoryPostgres" style="stroke:#181818;stroke-width:1;"/><polygon fill="#181818" points="620.21,306.27,614.5981,298.1764,615.9378,303.6723,610.4418,305.0119,620.21,306.27" style="stroke:#181818;stroke-width:1;"/></g><!--link LoginUseCase to BcryptPasswordHasher--><g class="link" data-entity-1="ent0008" data-entity-2="ent0024" data-link-type="dependency" data-source-line="48" id="lnk34"><path d="M130.89,231.89 C145.29,240.64 163.92,250.45 182,255.6 C235.97,270.95 254.13,247.88 308,263.6 C339.33,272.74 366.6422,288.6702 387.8622,302.9502" fill="none" id="LoginUseCase-to-BcryptPasswordHasher" style="stroke:#181818;stroke-width:1;"/><polygon fill="#181818" points="392.84,306.3,387.6065,297.9567,388.6918,303.5085,383.1401,304.5938,392.84,306.3" style="stroke:#181818;stroke-width:1;"/></g><!--link LoginUseCase to JwtTokenService--><g class="link" data-entity-1="ent0008" data-entity-2="ent0025" data-link-type="dependency" data-source-line="49" id="lnk35"><path d="M123.96,232.01 C145.98,252.4 177.6884,281.7725 199.6884,302.1525" fill="none" id="LoginUseCase-to-JwtTokenService" style="stroke:#181818;stroke-width:1;"/><polygon fill="#181818" points="204.09,306.23,200.2059,297.1794,200.422,302.8321,194.7693,303.0482,204.09,306.23" style="stroke:#181818;stroke-width:1;"/></g><!--link CrearUsuarioUseCase to Usuario--><g class="link" data-entity-1="ent0009" data-entity-2="ent0016" data-link-type="dependency" data-source-line="51" id="lnk36"><path d="M803.67,231.92 C823.33,240.69 848.47,250.5 872,255.6 C889.51,259.39 1020.65,250.62 1033,263.6 C1064.65,296.86 1064.5,333.49 1033,366.89 C1022.62,377.91 910.64,368.32 897,374.89 C877.91,384.09 865.8457,398.3462 856.4657,412.6162" fill="none" id="CrearUsuarioUseCase-to-Usuario" style="stroke:#181818;stroke-width:1;"/><polygon fill="#181818" points="853.17,417.63,861.4561,412.3064,855.9164,413.4518,854.771,407.9121,853.17,417.63" style="stroke:#181818;stroke-width:1;"/></g><!--link CrearUsuarioUseCase to BcryptPasswordHasher--><g class="link" data-entity-1="ent0009" data-entity-2="ent0024" data-link-type="dependency" data-source-line="52" id="lnk37"><path d="M731.84,232.06 C712.24,240.75 687.32,250.45 664,255.6 C603.57,268.93 584.42,246.33 525,263.6 C493.88,272.64 466.8583,288.5613 445.8583,302.8713" fill="none" id="CrearUsuarioUseCase-to-BcryptPasswordHasher" style="stroke:#181818;stroke-width:1;"/><polygon fill="#181818" points="440.9,306.25,450.5899,304.4875,445.0319,303.4344,446.0849,297.8764,440.9,306.25" style="stroke:#181818;stroke-width:1;"/></g><!--link CrearUsuarioUseCase to UsuarioRepositoryPostgres--><g class="link" data-entity-1="ent0009" data-entity-2="ent0022" data-link-type="dependency" data-source-line="53" id="lnk38"><path d="M748.56,232.01 C725.98,252.4 693.4023,281.8279 670.8423,302.2079" fill="none" id="CrearUsuarioUseCase-to-UsuarioRepositoryPostgres" style="stroke:#181818;stroke-width:1;"/><polygon fill="#181818" points="666.39,306.23,675.7498,303.1651,670.1002,302.8783,670.3871,297.2287,666.39,306.23" style="stroke:#181818;stroke-width:1;"/></g><!--link ActualizarUsuarioUseCase to UsuarioRepositoryPostgres--><g class="link" data-entity-1="ent0010" data-entity-2="ent0022" data-link-type="dependency" data-source-line="55" id="lnk39"><path d="M561.39,232.01 C580.42,252.4 607.5474,281.4625 626.5574,301.8425" fill="none" id="ActualizarUsuarioUseCase-to-UsuarioRepositoryPostgres" style="stroke:#181818;stroke-width:1;"/><polygon fill="#181818" points="630.65,306.23,627.4361,296.9203,627.2395,302.5737,621.5861,302.3771,630.65,306.23" style="stroke:#181818;stroke-width:1;"/></g><!--link DesactivarUsuarioUseCase to UsuarioRepositoryPostgres--><g class="link" data-entity-1="ent0011" data-entity-2="ent0022" data-link-type="dependency" data-source-line="56" id="lnk40"><path d="M347.61,232.05 C370.57,240.57 399.4,250.12 426,255.6 C469.24,264.49 482.45,251.85 525,263.6 C559.15,273.02 589.9931,288.9999 613.9631,303.1499" fill="none" id="DesactivarUsuarioUseCase-to-UsuarioRepositoryPostgres" style="stroke:#181818;stroke-width:1;"/><polygon fill="#181818" points="619.13,306.2,613.4131,298.1802,614.8243,303.6582,609.3463,305.0694,619.13,306.2" style="stroke:#181818;stroke-width:1;"/></g><!--link AsignarRolAUsuarioUseCase to RolUsuario--><g class="link" data-entity-1="ent0012" data-entity-2="ent0017" data-link-type="dependency" data-source-line="58" id="lnk41"><path d="M1463.78,231.94 C1361.81,273.21 1112.7515,374.0184 1010.7915,415.2984" fill="none" id="AsignarRolAUsuarioUseCase-to-RolUsuario" style="stroke:#181818;stroke-width:1;"/><polygon fill="#181818" points="1005.23,417.55,1015.0733,417.8802,1009.8646,415.6736,1012.0711,410.4649,1005.23,417.55" style="stroke:#181818;stroke-width:1;"/></g><!--link AsignarRolAUsuarioUseCase to RolUsuarioRepositoryPostgres--><g class="link" data-entity-1="ent0012" data-entity-2="ent0023" data-link-type="dependency" data-source-line="59" id="lnk42"><path d="M1459.3,232.05 C1435.71,240.2 1406.64,249.43 1380,255.6 C1345.47,263.59 1153.8863,289.9587 1023.7963,307.4887" fill="none" id="AsignarRolAUsuarioUseCase-to-RolUsuarioRepositoryPostgres" style="stroke:#181818;stroke-width:1;"/><polygon fill="#181818" points="1017.85,308.29,1027.3036,311.0523,1022.8052,307.6223,1026.2352,303.1239,1017.85,308.29" style="stroke:#181818;stroke-width:1;"/></g><!--link QuitarRolAUsuarioUseCase to RolUsuarioRepositoryPostgres--><g class="link" data-entity-1="ent0013" data-entity-2="ent0023" data-link-type="dependency" data-source-line="61" id="lnk43"><path d="M1207.4,232.04 C1185.52,239.52 1159.56,248.19 1136,255.6 C1078.27,273.73 1017.7935,291.2369 970.5635,304.5969" fill="none" id="QuitarRolAUsuarioUseCase-to-RolUsuarioRepositoryPostgres" style="stroke:#181818;stroke-width:1;"/><polygon fill="#181818" points="964.79,306.23,974.539,307.6293,969.6012,304.869,972.3614,299.9313,964.79,306.23" style="stroke:#181818;stroke-width:1;"/></g><!--link ListarRolesDeUsuarioUseCase to RolUsuarioRepositoryPostgres--><g class="link" data-entity-1="ent0014" data-entity-2="ent0023" data-link-type="dependency" data-source-line="62" id="lnk44"><path d="M987.61,232.01 C968.58,252.4 941.4526,281.4625 922.4426,301.8425" fill="none" id="ListarRolesDeUsuarioUseCase-to-RolUsuarioRepositoryPostgres" style="stroke:#181818;stroke-width:1;"/><polygon fill="#181818" points="918.35,306.23,927.4139,302.3771,921.7605,302.5737,921.5639,296.9203,918.35,306.23" style="stroke:#181818;stroke-width:1;"/></g><!--link BcryptPasswordHasher to PasswordHasher--><g class="link" data-entity-1="ent0024" data-entity-2="ent0019" data-link-type="extension" data-source-line="64" id="lnk45"><path d="M464.71,343.31 C493.53,354.19 527.26,367.45 541,374.89 C563.73,387.21 573.3674,393.4974 589.9974,406.3974" fill="none" id="BcryptPasswordHasher-to-PasswordHasher" style="stroke:#181818;stroke-width:1;stroke-dasharray:7,7;"/><polygon fill="none" points="604.22,417.43,593.6749,401.6566,586.3199,411.1383,604.22,417.43" style="stroke:#181818;stroke-width:1;"/></g><!--link JwtTokenService to TokenService--><g class="link" data-entity-1="ent0025" data-entity-2="ent0020" data-link-type="extension" data-source-line="65" id="lnk46"><path d="M258.85,343.26 C274.23,350.68 292.43,359.34 309,366.89 C347.93,384.65 376.1801,396.9353 407.9401,410.4653" fill="none" id="JwtTokenService-to-TokenService" style="stroke:#181818;stroke-width:1;stroke-dasharray:7,7;"/><polygon fill="none" points="424.5,417.52,410.2916,404.9454,405.5885,415.9853,424.5,417.52" style="stroke:#181818;stroke-width:1;"/></g><?plantuml-src bLJBRi903BplLwoumoSWKJXK5GSAvLHni1OtM8JToEk0qiU_5oaHDEm3UaFsZCVhcU3tP2jWE6ZZ3fMpQ6KbJOcQqGZOeaIbAZ1xA50FQ7jkapG3_QMqlfIXehQYzVkabjtKMM5NbiYRjhZsDJ2veBvqPRJre_hZgv8C23bxaPcxWkpQunGyTiEcZC3Tk7vdOgI6aZuJxHbwC4B7iDtHFHKM-Bpi9Cf_hKaoxJdvjer-XY6Y_zQjEm1Tdzd1WtDT2zsl1NX_Shnz1h-xdFVDxT6ka8za8b9aFnYyS7s-3kEjv18hvqaSDmldfM3qmH99o9FXffBeIYyd2RSwxtMR6pqSZczTLf4SjRYezKbqEWv9IYOYyH1tIkdav6ZfGELOsPof_YrRHiR763nkQmmPkAoY5lMssEGm2UcxGsDFK-a0t3zBCWYFo2RJq9B_Vjx_0CV5aXbwX9xDqcFwKSVqQFGz3l-iWhnqk5xj5m00?></g></svg>