<svg xmlns="http://www.w3.org/2000/svg" xmlns:xlink="http://www.w3.org/1999/xlink" contentStyleType="text/css" data-diagram-type="CLASS" height="373px" preserveAspectRatio="none" style="width:226px;height:373px;background:#FFFFFF;" version="1.1" viewBox="0 0 226 373" width="226px" zoomAndPan="magnify"><?plantuml 1.2026.5?><defs/><g><!--class Collaborator--><g class="entity" data-qualified-name="Collaborator" data-source-line="1" id="ent0001"><rect fill="#F1F1F1" height="129.4844" rx="2.5" ry="2.5" style="stroke:#181818;stroke-width:0.5;" width="204.377" x="7" y="7"/><ellipse cx="61.79" cy="23" fill="#ADD1B2" rx="11" ry="11" style="stroke:#181818;stroke-width:1;"/><path d="M64.7588,28.6406 Q64.1807,28.9375 63.54,29.0781 Q62.8994,29.2344 62.1963,29.2344 Q59.6963,29.2344 58.3682,27.5938 Q57.0557,25.9375 57.0557,22.8125 Q57.0557,19.6875 58.3682,18.0313 Q59.6963,16.375 62.1963,16.375 Q62.8994,16.375 63.54,16.5313 Q64.1963,16.6875 64.7588,16.9844 L64.7588,19.7031 Q64.1338,19.125 63.54,18.8594 Q62.9463,18.5781 62.3213,18.5781 Q60.9775,18.5781 60.29,19.6563 Q59.6025,20.7188 59.6025,22.8125 Q59.6025,24.9063 60.29,25.9844 Q60.9775,27.0469 62.3213,27.0469 Q62.9463,27.0469 63.54,26.7813 Q64.1338,26.5 64.7588,25.9219 L64.7588,28.6406 Z " fill="#000000"/><text fill="#000000" font-family="sans-serif" font-size="14" lengthAdjust="spacing" textLength="86.2969" x="82.29" y="27.8467">Collaborator</text><line style="stroke:#181818;stroke-width:0.5;" x1="8" x2="210.377" y1="39" y2="39"/><g data-visibility-modifier="PUBLIC_FIELD"><ellipse cx="18" cy="52.6484" fill="none" rx="3" ry="3" style="stroke:#038048;stroke-width:1;"/></g><text fill="#000000" font-family="sans-serif" font-size="14" lengthAdjust="spacing" textLength="52.6299" x="27" y="55.9951">UUID id</text><g data-visibility-modifier="PUBLIC_FIELD"><ellipse cx="18" cy="68.9453" fill="none" rx="3" ry="3" style="stroke:#038048;stroke-width:1;"/></g><text fill="#000000" font-family="sans-serif" font-size="14" lengthAdjust="spacing" textLength="83.4053" x="27" y="72.292">UUID userId</text><g data-visibility-modifier="PUBLIC_FIELD"><ellipse cx="18" cy="85.2422" fill="none" rx="3" ry="3" style="stroke:#038048;stroke-width:1;"/></g><text fill="#000000" font-family="sans-serif" font-size="14" lengthAdjust="spacing" textLength="117.3936" x="27" y="88.5889">UUID companyId</text><g data-visibility-modifier="PUBLIC_FIELD"><ellipse cx="18" cy="101.5391" fill="none" rx="3" ry="3" style="stroke:#038048;stroke-width:1;"/></g><text fill="#000000" font-family="sans-serif" font-size="14" lengthAdjust="spacing" textLength="178.377" x="27" y="104.8857">CollaboratorStatus status</text><g data-visibility-modifier="PUBLIC_FIELD"><ellipse cx="18" cy="117.8359" fill="none" rx="3" ry="3" style="stroke:#038048;stroke-width:1;"/></g><text fill="#000000" font-family="sans-serif" font-size="14" lengthAdjust="spacing" textLength="141.3057" x="27" y="121.1826">DateTime createdAt</text><line style="stroke:#181818;stroke-width:0.5;" x1="8" x2="210.377" y1="128.4844" y2="128.4844"/></g><!--class EmploymentAssignment--><g class="entity" data-qualified-name="EmploymentAssignment" data-source-line="9" id="ent0002"><rect fill="#F1F1F1" height="162.0781" rx="2.5" ry="2.5" style="stroke:#181818;stroke-width:0.5;" width="203.1514" x="7.61" y="196.48"/><ellipse cx="22.61" cy="212.48" fill="#ADD1B2" rx="11" ry="11" style="stroke:#181818;stroke-width:1;"/><path d="M25.5788,218.1206 Q25.0006,218.4175 24.36,218.5581 Q23.7194,218.7144 23.0163,218.7144 Q20.5163,218.7144 19.1881,217.0738 Q17.8756,215.4175 17.8756,212.2925 Q17.8756,209.1675 19.1881,207.5113 Q20.5163,205.855 23.0163,205.855 Q23.7194,205.855 24.36,206.0113 Q25.0163,206.1675 25.5788,206.4644 L25.5788,209.1831 Q24.9538,208.605 24.36,208.3394 Q23.7663,208.0581 23.1413,208.0581 Q21.7975,208.0581 21.11,209.1363 Q20.4225,210.1988 20.4225,212.2925 Q20.4225,214.3863 21.11,215.4644 Q21.7975,216.5269 23.1413,216.5269 Q23.7663,216.5269 24.36,216.2613 Q24.9538,215.98 25.5788,215.4019 L25.5788,218.1206 Z " fill="#000000"/><text fill="#000000" font-family="sans-serif" font-size="14" lengthAdjust="spacing" textLength="171.1514" x="36.61" y="217.3267">EmploymentAssignment</text><line style="stroke:#181818;stroke-width:0.5;" x1="8.61" x2="209.7614" y1="228.48" y2="228.48"/><g data-visibility-modifier="PUBLIC_FIELD"><ellipse cx="18.61" cy="242.1284" fill="none" rx="3" ry="3" style="stroke:#038048;stroke-width:1;"/></g><text fill="#000000" font-family="sans-serif" font-size="14" lengthAdjust="spacing" textLength="52.6299" x="27.61" y="245.4751">UUID id</text><g data-visibility-modifier="PUBLIC_FIELD"><ellipse cx="18.61" cy="258.4253" fill="none" rx="3" ry="3" style="stroke:#038048;stroke-width:1;"/></g><text fill="#000000" font-family="sans-serif" font-size="14" lengthAdjust="spacing" textLength="137.0879" x="27.61" y="261.772">UUID collaboratorId</text><g data-visibility-modifier="PUBLIC_FIELD"><ellipse cx="18.61" cy="274.7222" fill="none" rx="3" ry="3" style="stroke:#038048;stroke-width:1;"/></g><text fill="#000000" font-family="sans-serif" font-size="14" lengthAdjust="spacing" textLength="120.333" x="27.61" y="278.0689">UUID referenceId</text><g data-visibility-modifier="PUBLIC_FIELD"><ellipse cx="18.61" cy="291.0191" fill="none" rx="3" ry="3" style="stroke:#038048;stroke-width:1;"/></g><text fill="#000000" font-family="sans-serif" font-size="14" lengthAdjust="spacing" textLength="152.4893" x="27.61" y="294.3657">AssignmentType type</text><g data-visibility-modifier="PUBLIC_FIELD"><ellipse cx="18.61" cy="307.3159" fill="none" rx="3" ry="3" style="stroke:#038048;stroke-width:1;"/></g><text fill="#000000" font-family="sans-serif" font-size="14" lengthAdjust="spacing" textLength="99.8867" x="27.61" y="310.6626">bool isPrimary</text><g data-visibility-modifier="PUBLIC_FIELD"><ellipse cx="18.61" cy="323.6128" fill="none" rx="3" ry="3" style="stroke:#038048;stroke-width:1;"/></g><text fill="#000000" font-family="sans-serif" font-size="14" lengthAdjust="spacing" textLength="174.5078" x="27.61" y="326.9595">AssignmentStatus status</text><g data-visibility-modifier="PUBLIC_FIELD"><ellipse cx="18.61" cy="339.9097" fill="none" rx="3" ry="3" style="stroke:#038048;stroke-width:1;"/></g><text fill="#000000" font-family="sans-serif" font-size="14" lengthAdjust="spacing" textLength="141.3057" x="27.61" y="343.2564">DateTime createdAt</text><line style="stroke:#181818;stroke-width:0.5;" x1="8.61" x2="209.7614" y1="350.5581" y2="350.5581"/></g><!--link Collaborator to EmploymentAssignment--><g class="link" data-entity-1="ent0001" data-entity-2="ent0002" data-link-type="dependency" data-source-line="19" id="lnk3"><path codeLine="19" d="M109.19,136.94 C109.19,155.72 109.19,171.49 109.19,191.15" fill="none" id="Collaborator-to-EmploymentAssignment" style="stroke:#181818;stroke-width:1;"/><polygon fill="#181818" points="109.19,196.15,113.19,187.15,109.19,191.15,105.19,187.15,109.19,196.15" style="stroke:#181818;stroke-width:1;stroke-linejoin:miter;stroke-miterlimit:10;"/><text fill="#000000" font-family="sans-serif" font-size="13" lengthAdjust="spacing" textLength="8.271" x="100.7916" y="156.5107">1</text><text fill="#000000" font-family="sans-serif" font-size="13" lengthAdjust="spacing" textLength="6.5" x="102.9455" y="185.3079">*</text></g><?plantuml-src ZL0x2iCm3Drz2k6n9KCl40XDXso59WTm7BKO_0cICvZIkpSVQ1B8q4LwUleyITegPhW6QrKRICL0y1O0vwQfIZ3T3mwCLAsX3gvNFYtCjliHLHmOU7PJibGHQ-CGDE48koAAZn1wbhsvteRaqCU2sRpyX8xbzKPYimRX4mczneLRfzIfHuYZcUWs10k6xsISehGl_7FVtOFaHKAMvI1Fyl24Bm00?></g></svg>