<svg xmlns="http://www.w3.org/2000/svg" xmlns:xlink="http://www.w3.org/1999/xlink" contentStyleType="text/css" data-diagram-type="DESCRIPTION" height="523px" preserveAspectRatio="none" style="width:576px;height:523px;background:#FFFFFF;" version="1.1" viewBox="0 0 576 523" width="576px" zoomAndPan="magnify"><?plantuml 1.2026.5?><defs/><g><!--cluster Frontend--><g class="cluster" data-qualified-name="Frontend" data-source-line="5" id="ent0002"><rect fill="none" height="97" rx="2.5" ry="2.5" style="stroke:#181818;stroke-width:1;" width="135.14" x="81.91" y="210"/><text fill="#000000" font-family="sans-serif" font-size="14" font-weight="700" lengthAdjust="spacing" textLength="72.2285" x="113.3657" y="224.9951">Frontend</text></g><!--cluster Backend--><g class="cluster" data-qualified-name="Backend" data-source-line="9" id="ent0004"><rect fill="none" height="502" rx="2.5" ry="2.5" style="stroke:#181818;stroke-width:1;" width="161.75" x="245.05" y="7"/><text fill="#000000" font-family="sans-serif" font-size="14" font-weight="700" lengthAdjust="spacing" textLength="67.2109" x="292.3195" y="21.9951">Backend</text></g><!--entity Web App--><g class="entity" data-qualified-name="Frontend.Web App" data-source-line="6" id="ent0003"><rect fill="#F1F1F1" height="46.2969" rx="2.5" ry="2.5" style="stroke:#181818;stroke-width:0.5;" width="103.1436" x="97.91" y="244.85"/><rect fill="#F1F1F1" height="10" style="stroke:#181818;stroke-width:0.5;" width="15" x="181.0536" y="249.85"/><rect fill="#F1F1F1" height="2" style="stroke:#181818;stroke-width:0.5;" width="4" x="179.0536" y="251.85"/><rect fill="#F1F1F1" height="2" style="stroke:#181818;stroke-width:0.5;" width="4" x="179.0536" y="255.85"/><text fill="#000000" font-family="sans-serif" font-size="14" lengthAdjust="spacing" textLength="63.1436" x="112.91" y="277.8451">Web App</text></g><!--entity Identity--><g class="entity" data-qualified-name="Backend.Identity" data-source-line="11" id="ent0005"><rect fill="#F1F1F1" height="46.2969" rx="2.5" ry="2.5" style="stroke:#181818;stroke-width:0.5;" width="93.6553" x="279.1" y="446.85"/><rect fill="#F1F1F1" height="10" style="stroke:#181818;stroke-width:0.5;" width="15" x="352.7553" y="451.85"/><rect fill="#F1F1F1" height="2" style="stroke:#181818;stroke-width:0.5;" width="4" x="350.7553" y="453.85"/><rect fill="#F1F1F1" height="2" style="stroke:#181818;stroke-width:0.5;" width="4" x="350.7553" y="457.85"/><text fill="#000000" font-family="sans-serif" font-size="14" lengthAdjust="spacing" textLength="53.6553" x="294.1" y="479.8451">Identity</text></g><!--entity Organization--><g class="entity" data-qualified-name="Backend.Organization" data-source-line="12" id="ent0006"><rect fill="#F1F1F1" height="46.2969" rx="2.5" ry="2.5" style="stroke:#181818;stroke-width:0.5;" width="129.749" x="261.05" y="365.85"/><rect fill="#F1F1F1" height="10" style="stroke:#181818;stroke-width:0.5;" width="15" x="370.799" y="370.85"/><rect fill="#F1F1F1" height="2" style="stroke:#181818;stroke-width:0.5;" width="4" x="368.799" y="372.85"/><rect fill="#F1F1F1" height="2" style="stroke:#181818;stroke-width:0.5;" width="4" x="368.799" y="376.85"/><text fill="#000000" font-family="sans-serif" font-size="14" lengthAdjust="spacing" textLength="89.749" x="276.05" y="398.8451">Organization</text></g><!--entity Staff--><g class="entity" data-qualified-name="Backend.Staff" data-source-line="13" id="ent0007"><rect fill="#F1F1F1" height="46.2969" rx="2.5" ry="2.5" style="stroke:#181818;stroke-width:0.5;" width="72.8125" x="289.52" y="284.85"/><rect fill="#F1F1F1" height="10" style="stroke:#181818;stroke-width:0.5;" width="15" x="342.3325" y="289.85"/><rect fill="#F1F1F1" height="2" style="stroke:#181818;stroke-width:0.5;" width="4" x="340.3325" y="291.85"/><rect fill="#F1F1F1" height="2" style="stroke:#181818;stroke-width:0.5;" width="4" x="340.3325" y="295.85"/><text fill="#000000" font-family="sans-serif" font-size="14" lengthAdjust="spacing" textLength="32.8125" x="304.52" y="317.8451">Staff</text></g><!--entity Scheduling--><g class="entity" data-qualified-name="Backend.Scheduling" data-source-line="14" id="ent0008"><rect fill="#F1F1F1" height="46.2969" rx="2.5" ry="2.5" style="stroke:#181818;stroke-width:0.5;" width="117.3691" x="267.24" y="203.85"/><rect fill="#F1F1F1" height="10" style="stroke:#181818;stroke-width:0.5;" width="15" x="364.6091" y="208.85"/><rect fill="#F1F1F1" height="2" style="stroke:#181818;stroke-width:0.5;" width="4" x="362.6091" y="210.85"/><rect fill="#F1F1F1" height="2" style="stroke:#181818;stroke-width:0.5;" width="4" x="362.6091" y="214.85"/><text fill="#000000" font-family="sans-serif" font-size="14" lengthAdjust="spacing" textLength="77.3691" x="282.24" y="236.8451">Scheduling</text></g><!--entity Claims--><g class="entity" data-qualified-name="Backend.Claims" data-source-line="15" id="ent0009"><rect fill="#F1F1F1" height="46.2969" rx="2.5" ry="2.5" style="stroke:#181818;stroke-width:0.5;" width="87.0654" x="282.4" y="122.85"/><rect fill="#F1F1F1" height="10" style="stroke:#181818;stroke-width:0.5;" width="15" x="349.4654" y="127.85"/><rect fill="#F1F1F1" height="2" style="stroke:#181818;stroke-width:0.5;" width="4" x="347.4654" y="129.85"/><rect fill="#F1F1F1" height="2" style="stroke:#181818;stroke-width:0.5;" width="4" x="347.4654" y="133.85"/><text fill="#000000" font-family="sans-serif" font-size="14" lengthAdjust="spacing" textLength="47.0654" x="297.4" y="155.8451">Claims</text></g><!--entity Contracts--><g class="entity" data-qualified-name="Backend.Contracts" data-source-line="16" id="ent0010"><rect fill="#F1F1F1" height="46.2969" rx="2.5" ry="2.5" style="stroke:#181818;stroke-width:0.5;" width="107.5186" x="272.17" y="41.85"/><rect fill="#F1F1F1" height="10" style="stroke:#181818;stroke-width:0.5;" width="15" x="359.6886" y="46.85"/><rect fill="#F1F1F1" height="2" style="stroke:#181818;stroke-width:0.5;" width="4" x="357.6886" y="48.85"/><rect fill="#F1F1F1" height="2" style="stroke:#181818;stroke-width:0.5;" width="4" x="357.6886" y="52.85"/><text fill="#000000" font-family="sans-serif" font-size="14" lengthAdjust="spacing" textLength="67.5186" x="287.17" y="74.8451">Contracts</text></g><!--entity User--><g class="entity" data-qualified-name="User" data-source-line="3" id="ent0001"><ellipse cx="21.9551" cy="238.35" fill="#F1F1F1" rx="8" ry="8" style="stroke:#181818;stroke-width:0.5;"/><path d="M21.9551,246.35 L21.9551,273.35 M8.9551,254.35 L34.9551,254.35 M21.9551,273.35 L8.9551,288.35 M21.9551,273.35 L34.9551,288.35" fill="none" style="stroke:#181818;stroke-width:0.5;"/><text fill="#000000" font-family="sans-serif" font-size="14" lengthAdjust="spacing" textLength="31.9102" x="6" y="302.8451">User</text></g><!--entity PostgreSQL--><g class="entity" data-qualified-name="PostgreSQL" data-source-line="19" id="ent0011"><path d="M450.8,255.35 C450.8,245.35 501.1765,245.35 501.1765,245.35 C501.1765,245.35 551.5529,245.35 551.5529,255.35 L551.5529,280.6469 C551.5529,290.6469 501.1765,290.6469 501.1765,290.6469 C501.1765,290.6469 450.8,290.6469 450.8,280.6469 L450.8,255.35" fill="#F1F1F1" style="stroke:#181818;stroke-width:0.5;"/><path d="M450.8,255.35 C450.8,265.35 501.1765,265.35 501.1765,265.35 C501.1765,265.35 551.5529,265.35 551.5529,255.35" fill="none" style="stroke:#181818;stroke-width:0.5;"/><text fill="#000000" font-family="sans-serif" font-size="14" lengthAdjust="spacing" textLength="80.7529" x="460.8" y="282.3451">PostgreSQL</text></g><!--link User to Web App--><g class="link" data-entity-1="ent0001" data-entity-2="ent0003" data-link-type="dependency" data-source-line="21" id="lnk12"><path d="M38.35,268 C53.14,268 71.34,268 92.63,268" fill="none" id="User-to-Web App" style="stroke:#181818;stroke-width:1;"/><polygon fill="#181818" points="97.63,268,88.63,264,92.63,268,88.63,272,97.63,268" style="stroke:#181818;stroke-width:1;stroke-linejoin:miter;stroke-miterlimit:10;"/></g><!--link Web App to Identity--><g class="link" data-entity-1="ent0003" data-entity-2="ent0005" data-link-type="dependency" data-source-line="23" id="lnk13"><path d="M157.58,291.4 C169.11,325.88 194.96,390.51 237.05,430 C248.79,441.01 259.4777,447.4357 274.0077,453.6057" fill="none" id="Web App-to-Identity" style="stroke:#181818;stroke-width:1;"/><polygon fill="#181818" points="278.61,455.56,271.8894,448.3605,274.0077,453.6057,268.7625,455.7241,278.61,455.56" style="stroke:#181818;stroke-width:1;stroke-linejoin:miter;stroke-miterlimit:10;"/></g><!--link Web App to Organization--><g class="link" data-entity-1="ent0003" data-entity-2="ent0006" data-link-type="dependency" data-source-line="24" id="lnk14"><path d="M171.55,291.48 C188.11,308.95 212.42,332.52 237.05,349 C246.11,355.06 251.7384,358.4233 261.7984,363.3433" fill="none" id="Web App-to-Organization" style="stroke:#181818;stroke-width:1;"/><polygon fill="#181818" points="266.29,365.54,259.9625,357.9927,261.7984,363.3433,256.4478,365.1792,266.29,365.54" style="stroke:#181818;stroke-width:1;stroke-linejoin:miter;stroke-miterlimit:10;"/></g><!--link Web App to Staff--><g class="link" data-entity-1="ent0003" data-entity-2="ent0007" data-link-type="dependency" data-source-line="25" id="lnk15"><path d="M201.41,279.68 C229.57,286.13 258.9964,292.8827 284.2964,298.6827" fill="none" id="Web App-to-Staff" style="stroke:#181818;stroke-width:1;"/><polygon fill="#181818" points="289.17,299.8,281.2914,293.8901,284.2964,298.6827,279.5038,301.6878,289.17,299.8" style="stroke:#181818;stroke-width:1;stroke-linejoin:miter;stroke-miterlimit:10;"/></g><!--link Web App to Scheduling--><g class="link" data-entity-1="ent0003" data-entity-2="ent0008" data-link-type="dependency" data-source-line="26" id="lnk16"><path d="M201.41,256.03 C221.92,251.21 240.8327,246.7644 262.0127,241.7844" fill="none" id="Web App-to-Scheduling" style="stroke:#181818;stroke-width:1;"/><polygon fill="#181818" points="266.88,240.64,257.2034,238.8062,262.0127,241.7844,259.0345,246.5938,266.88,240.64" style="stroke:#181818;stroke-width:1;stroke-linejoin:miter;stroke-miterlimit:10;"/></g><!--link Web App to Claims--><g class="link" data-entity-1="ent0003" data-entity-2="ent0009" data-link-type="dependency" data-source-line="27" id="lnk17"><path d="M171.15,244.58 C187.69,226.85 212.16,202.77 237.05,186 C250.96,176.64 262.8224,170.4686 277.7024,164.0186" fill="none" id="Web App-to-Claims" style="stroke:#181818;stroke-width:1;"/><polygon fill="#181818" points="282.29,162.03,272.4416,161.9394,277.7024,164.0186,275.6232,169.2794,282.29,162.03" style="stroke:#181818;stroke-width:1;stroke-linejoin:miter;stroke-miterlimit:10;"/></g><!--link Web App to Contracts--><g class="link" data-entity-1="ent0003" data-entity-2="ent0010" data-link-type="dependency" data-source-line="28" id="lnk18"><path d="M157.54,244.46 C169.03,209.77 194.81,144.74 237.05,105 C246.94,95.7 254.8429,90.4026 267.2129,84.6026" fill="none" id="Web App-to-Contracts" style="stroke:#181818;stroke-width:1;"/><polygon fill="#181818" points="271.74,82.48,261.8932,82.6791,267.2129,84.6026,265.2894,89.9224,271.74,82.48" style="stroke:#181818;stroke-width:1;stroke-linejoin:miter;stroke-miterlimit:10;"/></g><!--link Identity to PostgreSQL--><g class="link" data-entity-1="ent0005" data-entity-2="ent0011" data-link-type="dependency" data-source-line="30" id="lnk19"><path d="M372.83,455.79 C387.5,449.61 402.98,441.16 414.8,430 C456.77,390.4 480.59,330.2737 491.81,295.8637" fill="none" id="Identity-to-PostgreSQL" style="stroke:#181818;stroke-width:1;"/><polygon fill="#181818" points="493.36,291.11,486.767,298.4266,491.81,295.8637,494.3729,300.9066,493.36,291.11" style="stroke:#181818;stroke-width:1;stroke-linejoin:miter;stroke-miterlimit:10;"/></g><!--link Organization to PostgreSQL--><g class="link" data-entity-1="ent0006" data-entity-2="ent0011" data-link-type="dependency" data-source-line="31" id="lnk20"><path d="M386.06,365.37 C395.97,360.49 405.91,355 414.8,349 C439.37,332.44 460.0932,312.3097 476.3932,294.7997" fill="none" id="Organization-to-PostgreSQL" style="stroke:#181818;stroke-width:1;"/><polygon fill="#181818" points="479.8,291.14,470.7399,295.002,476.3932,294.7997,476.5955,300.453,479.8,291.14" style="stroke:#181818;stroke-width:1;stroke-linejoin:miter;stroke-miterlimit:10;"/></g><!--link Staff to PostgreSQL--><g class="link" data-entity-1="ent0007" data-entity-2="ent0011" data-link-type="dependency" data-source-line="32" id="lnk21"><path d="M362.83,299.71 C388.2,293.85 417.6685,287.0561 445.6585,280.5861" fill="none" id="Staff-to-PostgreSQL" style="stroke:#181818;stroke-width:1;"/><polygon fill="#181818" points="450.53,279.46,440.8604,277.5897,445.6585,280.5861,442.6621,285.3842,450.53,279.46" style="stroke:#181818;stroke-width:1;stroke-linejoin:miter;stroke-miterlimit:10;"/></g><!--link Scheduling to PostgreSQL--><g class="link" data-entity-1="ent0008" data-entity-2="ent0011" data-link-type="dependency" data-source-line="33" id="lnk22"><path d="M385.1,240.77 C406.33,245.79 425.2648,250.2668 445.6848,255.1068" fill="none" id="Scheduling-to-PostgreSQL" style="stroke:#181818;stroke-width:1;"/><polygon fill="#181818" points="450.55,256.26,442.7152,250.2921,445.6848,255.1068,440.8701,258.0765,450.55,256.26" style="stroke:#181818;stroke-width:1;stroke-linejoin:miter;stroke-miterlimit:10;"/></g><!--link Claims to PostgreSQL--><g class="link" data-entity-1="ent0009" data-entity-2="ent0011" data-link-type="dependency" data-source-line="34" id="lnk23"><path d="M369.6,161.97 C384.49,168.43 400.93,176.59 414.8,186 C439.63,202.85 460.5324,223.4633 476.8124,241.2333" fill="none" id="Claims-to-PostgreSQL" style="stroke:#181818;stroke-width:1;"/><polygon fill="#181818" points="480.19,244.92,477.0597,235.5818,476.8124,241.2333,471.161,240.986,480.19,244.92" style="stroke:#181818;stroke-width:1;stroke-linejoin:miter;stroke-miterlimit:10;"/></g><!--link Contracts to PostgreSQL--><g class="link" data-entity-1="ent0010" data-entity-2="ent0011" data-link-type="dependency" data-source-line="35" id="lnk24"><path d="M380.15,82.44 C392.52,88.24 404.94,95.67 414.8,105 C457.04,144.96 480.8377,205.7306 491.9577,240.2706" fill="none" id="Contracts-to-PostgreSQL" style="stroke:#181818;stroke-width:1;"/><polygon fill="#181818" points="493.49,245.03,494.5394,235.2372,491.9577,240.2706,486.9244,237.6889,493.49,245.03" style="stroke:#181818;stroke-width:1;stroke-linejoin:miter;stroke-miterlimit:10;"/></g><?plantuml-src PO_12i8m38RlUOgyWAyWg208Weg81_4GrwmMPojjFAZuxjfrRhEx_Vc_GBvKN0gAGs_qML0PpuKOPm6e4ETn5zW3n9AihXZdtbbXg_05Y8Szdt1okntXtT-PKd59At5deTYAaSSn3YkloPednHDriHKgovIACwjxPQoknrb5vXfI_9xqNvrGtr4aTAB0k7P1jEVjPWaGDN4q6lUKe8q9T1uP-7VAOEENjptN3Fsyyxhx0JgLclN--7SPq2Gph3kR0MjqXdthaw4F?></g></svg>