<svg xmlns="http://www.w3.org/2000/svg" xmlns:xlink="http://www.w3.org/1999/xlink" contentStyleType="text/css" data-diagram-type="CLASS" height="1014px" preserveAspectRatio="none" style="width:1254px;height:1014px;background:#FFFFFF;" version="1.1" viewBox="0 0 1254 1014" width="1254px" zoomAndPan="magnify"><?plantuml 1.2026.5?><defs/><g><!--cluster staff DTOs--><g class="cluster" data-qualified-name="staff DTOs" data-source-line="3" id="ent0001"><path d="M8.5,6 L92.4336,6 A3.75,3.75 0 0 1 94.9336,8.5 L101.9336,28.2969 L1236.5,28.2969 A2.5,2.5 0 0 1 1239,30.7969 L1239,996.89 A2.5,2.5 0 0 1 1236.5,999.39 L8.5,999.39 A2.5,2.5 0 0 1 6,996.89 L6,8.5 A2.5,2.5 0 0 1 8.5,6" fill="none" style="stroke:#000000;stroke-width:1.5;"/><line style="stroke:#000000;stroke-width:1.5;" x1="6" x2="101.9336" y1="28.2969" y2="28.2969"/><text fill="#000000" font-family="sans-serif" font-size="14" font-weight="700" lengthAdjust="spacing" textLength="82.9336" x="10" y="20.9951">staff DTOs</text></g><!--class CreateCollaboratorRequest--><g class="entity" data-qualified-name="staff DTOs.CreateCollaboratorRequest" data-source-line="4" id="ent0002"><rect fill="#F1F1F1" height="113.1875" rx="2.5" ry="2.5" style="stroke:#181818;stroke-width:0.5;" width="222.6201" x="28.69" y="138.78"/><ellipse cx="43.69" cy="154.78" fill="#ADD1B2" rx="11" ry="11" style="stroke:#181818;stroke-width:1;"/><path d="M46.6588,160.4206 Q46.0806,160.7175 45.44,160.8581 Q44.7994,161.0144 44.0963,161.0144 Q41.5963,161.0144 40.2681,159.3737 Q38.9556,157.7175 38.9556,154.5925 Q38.9556,151.4675 40.2681,149.8112 Q41.5963,148.155 44.0963,148.155 Q44.7994,148.155 45.44,148.3112 Q46.0963,148.4675 46.6588,148.7644 L46.6588,151.4831 Q46.0338,150.905 45.44,150.6394 Q44.8463,150.3581 44.2213,150.3581 Q42.8775,150.3581 42.19,151.4362 Q41.5025,152.4987 41.5025,154.5925 Q41.5025,156.6862 42.19,157.7644 Q42.8775,158.8269 44.2213,158.8269 Q44.8463,158.8269 45.44,158.5612 Q46.0338,158.28 46.6588,157.7019 L46.6588,160.4206 Z " fill="#000000"/><text fill="#000000" font-family="sans-serif" font-size="14" lengthAdjust="spacing" textLength="190.6201" x="57.69" y="159.6267">CreateCollaboratorRequest</text><line style="stroke:#181818;stroke-width:0.5;" x1="29.69" x2="250.3101" y1="170.78" y2="170.78"/><text fill="#000000" font-family="sans-serif" font-size="14" lengthAdjust="spacing" textLength="95.1357" x="34.69" y="187.7751">+UUID userId</text><text fill="#000000" font-family="sans-serif" font-size="14" lengthAdjust="spacing" textLength="129.124" x="34.69" y="204.072">+UUID companyId</text><text fill="#000000" font-family="sans-serif" font-size="14" lengthAdjust="spacing" textLength="148.9619" x="34.69" y="220.3689">+UUID mainBranchId</text><text fill="#000000" font-family="sans-serif" font-size="14" lengthAdjust="spacing" textLength="154.5879" x="34.69" y="236.6657">+UUID mainPositionId</text><line style="stroke:#181818;stroke-width:0.5;" x1="29.69" x2="250.3101" y1="243.9675" y2="243.9675"/></g><!--class UpdateCollaboratorRequest--><g class="entity" data-qualified-name="staff DTOs.UpdateCollaboratorRequest" data-source-line="11" id="ent0003"><rect fill="#F1F1F1" height="80.5938" rx="2.5" ry="2.5" style="stroke:#181818;stroke-width:0.5;" width="226.4961" x="286.75" y="155.08"/><ellipse cx="301.75" cy="171.08" fill="#ADD1B2" rx="11" ry="11" style="stroke:#181818;stroke-width:1;"/><path d="M304.7188,176.7206 Q304.1406,177.0175 303.5,177.1581 Q302.8594,177.3144 302.1563,177.3144 Q299.6563,177.3144 298.3281,175.6738 Q297.0156,174.0175 297.0156,170.8925 Q297.0156,167.7675 298.3281,166.1113 Q299.6563,164.455 302.1563,164.455 Q302.8594,164.455 303.5,164.6113 Q304.1563,164.7675 304.7188,165.0644 L304.7188,167.7831 Q304.0938,167.205 303.5,166.9394 Q302.9063,166.6581 302.2813,166.6581 Q300.9375,166.6581 300.25,167.7363 Q299.5625,168.7988 299.5625,170.8925 Q299.5625,172.9863 300.25,174.0644 Q300.9375,175.1269 302.2813,175.1269 Q302.9063,175.1269 303.5,174.8613 Q304.0938,174.58 304.7188,174.0019 L304.7188,176.7206 Z " fill="#000000"/><text fill="#000000" font-family="sans-serif" font-size="14" lengthAdjust="spacing" textLength="194.4961" x="315.75" y="175.9267">UpdateCollaboratorRequest</text><line style="stroke:#181818;stroke-width:0.5;" x1="287.75" x2="512.2461" y1="187.08" y2="187.08"/><text fill="#000000" font-family="sans-serif" font-size="14" lengthAdjust="spacing" textLength="148.9619" x="292.75" y="204.0751">+UUID mainBranchId</text><text fill="#000000" font-family="sans-serif" font-size="14" lengthAdjust="spacing" textLength="154.5879" x="292.75" y="220.372">+UUID mainPositionId</text><line style="stroke:#181818;stroke-width:0.5;" x1="287.75" x2="512.2461" y1="227.6738" y2="227.6738"/></g><!--class CollaboratorResponse--><g class="entity" data-qualified-name="staff DTOs.CollaboratorResponse" data-source-line="16" id="ent0004"><rect fill="#F1F1F1" height="308.75" rx="2.5" ry="2.5" style="stroke:#181818;stroke-width:0.5;" width="201.2529" x="548.37" y="41"/><ellipse cx="570.16" cy="57" fill="#ADD1B2" rx="11" ry="11" style="stroke:#181818;stroke-width:1;"/><path d="M573.1287,62.6406 Q572.5506,62.9375 571.91,63.0781 Q571.2694,63.2344 570.5662,63.2344 Q568.0662,63.2344 566.7381,61.5938 Q565.4256,59.9375 565.4256,56.8125 Q565.4256,53.6875 566.7381,52.0313 Q568.0662,50.375 570.5662,50.375 Q571.2694,50.375 571.91,50.5313 Q572.5662,50.6875 573.1287,50.9844 L573.1287,53.7031 Q572.5037,53.125 571.91,52.8594 Q571.3162,52.5781 570.6912,52.5781 Q569.3475,52.5781 568.66,53.6563 Q567.9725,54.7188 567.9725,56.8125 Q567.9725,58.9063 568.66,59.9844 Q569.3475,61.0469 570.6912,61.0469 Q571.3162,61.0469 571.91,60.7813 Q572.5037,60.5 573.1287,59.9219 L573.1287,62.6406 Z " fill="#000000"/><text fill="#000000" font-family="sans-serif" font-size="14" lengthAdjust="spacing" textLength="154.1641" x="585.6689" y="61.8467">CollaboratorResponse</text><line style="stroke:#181818;stroke-width:0.5;" x1="549.37" x2="748.6229" y1="73" y2="73"/><text fill="#000000" font-family="sans-serif" font-size="14" lengthAdjust="spacing" textLength="64.3604" x="554.37" y="89.9951">+UUID id</text><text fill="#000000" font-family="sans-serif" font-size="14" lengthAdjust="spacing" textLength="95.1357" x="554.37" y="106.292">+UUID userId</text><text fill="#000000" font-family="sans-serif" font-size="14" lengthAdjust="spacing" textLength="129.124" x="554.37" y="122.5889">+UUID companyId</text><text fill="#000000" font-family="sans-serif" font-size="14" lengthAdjust="spacing" textLength="4.4502" x="554.37" y="138.8857">&#160;</text><text fill="#000000" font-family="sans-serif" font-size="14" lengthAdjust="spacing" textLength="97.665" x="554.37" y="155.1826">+String name</text><text fill="#000000" font-family="sans-serif" font-size="14" lengthAdjust="spacing" textLength="96.5713" x="554.37" y="171.4795">+String email</text><text fill="#000000" font-family="sans-serif" font-size="14" lengthAdjust="spacing" textLength="4.4502" x="554.37" y="187.7764">&#160;</text><text fill="#000000" font-family="sans-serif" font-size="14" lengthAdjust="spacing" textLength="148.9619" x="554.37" y="204.0732">+UUID mainBranchId</text><text fill="#000000" font-family="sans-serif" font-size="14" lengthAdjust="spacing" textLength="183.627" x="554.37" y="220.3701">+String mainBranchName</text><text fill="#000000" font-family="sans-serif" font-size="14" lengthAdjust="spacing" textLength="4.4502" x="554.37" y="236.667">&#160;</text><text fill="#000000" font-family="sans-serif" font-size="14" lengthAdjust="spacing" textLength="154.5879" x="554.37" y="252.9639">+UUID mainPositionId</text><text fill="#000000" font-family="sans-serif" font-size="14" lengthAdjust="spacing" textLength="189.2529" x="554.37" y="269.2607">+String mainPositionName</text><text fill="#000000" font-family="sans-serif" font-size="14" lengthAdjust="spacing" textLength="4.4502" x="554.37" y="285.5576">&#160;</text><text fill="#000000" font-family="sans-serif" font-size="14" lengthAdjust="spacing" textLength="100.9805" x="554.37" y="301.8545">+String status</text><text fill="#000000" font-family="sans-serif" font-size="14" lengthAdjust="spacing" textLength="4.4502" x="554.37" y="318.1514">&#160;</text><text fill="#000000" font-family="sans-serif" font-size="14" lengthAdjust="spacing" textLength="153.0361" x="554.37" y="334.4482">+DateTime createdAt</text><line style="stroke:#181818;stroke-width:0.5;" x1="549.37" x2="748.6229" y1="341.75" y2="341.75"/></g><!--class CreatePositionRequest--><g class="entity" data-qualified-name="staff DTOs.CreatePositionRequest" data-source-line="35" id="ent0005"><rect fill="#F1F1F1" height="96.8906" rx="2.5" ry="2.5" style="stroke:#181818;stroke-width:0.5;" width="191.332" x="784.33" y="146.93"/><ellipse cx="799.33" cy="162.93" fill="#ADD1B2" rx="11" ry="11" style="stroke:#181818;stroke-width:1;"/><path d="M802.2988,168.5706 Q801.7206,168.8675 801.08,169.0081 Q800.4394,169.1644 799.7363,169.1644 Q797.2363,169.1644 795.9081,167.5237 Q794.5956,165.8675 794.5956,162.7425 Q794.5956,159.6175 795.9081,157.9612 Q797.2363,156.305 799.7363,156.305 Q800.4394,156.305 801.08,156.4612 Q801.7363,156.6175 802.2988,156.9144 L802.2988,159.6331 Q801.6738,159.055 801.08,158.7894 Q800.4863,158.5081 799.8613,158.5081 Q798.5175,158.5081 797.83,159.5862 Q797.1425,160.6487 797.1425,162.7425 Q797.1425,164.8362 797.83,165.9144 Q798.5175,166.9769 799.8613,166.9769 Q800.4863,166.9769 801.08,166.7112 Q801.6738,166.43 802.2988,165.8519 L802.2988,168.5706 Z " fill="#000000"/><text fill="#000000" font-family="sans-serif" font-size="14" lengthAdjust="spacing" textLength="159.332" x="813.33" y="167.7767">CreatePositionRequest</text><line style="stroke:#181818;stroke-width:0.5;" x1="785.33" x2="974.662" y1="178.93" y2="178.93"/><text fill="#000000" font-family="sans-serif" font-size="14" lengthAdjust="spacing" textLength="129.124" x="790.33" y="195.9251">+UUID companyId</text><text fill="#000000" font-family="sans-serif" font-size="14" lengthAdjust="spacing" textLength="97.665" x="790.33" y="212.222">+String name</text><text fill="#000000" font-family="sans-serif" font-size="14" lengthAdjust="spacing" textLength="143.2334" x="790.33" y="228.5189">+String? description</text><line style="stroke:#181818;stroke-width:0.5;" x1="785.33" x2="974.662" y1="235.8206" y2="235.8206"/></g><!--class UpdatePositionRequest--><g class="entity" data-qualified-name="staff DTOs.UpdatePositionRequest" data-source-line="41" id="ent0006"><rect fill="#F1F1F1" height="80.5938" rx="2.5" ry="2.5" style="stroke:#181818;stroke-width:0.5;" width="195.208" x="42.4" y="466.79"/><ellipse cx="57.4" cy="482.79" fill="#ADD1B2" rx="11" ry="11" style="stroke:#181818;stroke-width:1;"/><path d="M60.3688,488.4306 Q59.7906,488.7275 59.15,488.8681 Q58.5094,489.0244 57.8063,489.0244 Q55.3063,489.0244 53.9781,487.3837 Q52.6656,485.7275 52.6656,482.6025 Q52.6656,479.4775 53.9781,477.8212 Q55.3063,476.165 57.8063,476.165 Q58.5094,476.165 59.15,476.3212 Q59.8063,476.4775 60.3688,476.7744 L60.3688,479.4931 Q59.7438,478.915 59.15,478.6494 Q58.5563,478.3681 57.9313,478.3681 Q56.5875,478.3681 55.9,479.4462 Q55.2125,480.5087 55.2125,482.6025 Q55.2125,484.6962 55.9,485.7744 Q56.5875,486.8369 57.9313,486.8369 Q58.5563,486.8369 59.15,486.5712 Q59.7438,486.29 60.3688,485.7119 L60.3688,488.4306 Z " fill="#000000"/><text fill="#000000" font-family="sans-serif" font-size="14" lengthAdjust="spacing" textLength="163.208" x="71.4" y="487.6367">UpdatePositionRequest</text><line style="stroke:#181818;stroke-width:0.5;" x1="43.4" x2="236.608" y1="498.79" y2="498.79"/><text fill="#000000" font-family="sans-serif" font-size="14" lengthAdjust="spacing" textLength="97.665" x="48.4" y="515.7851">+String name</text><text fill="#000000" font-family="sans-serif" font-size="14" lengthAdjust="spacing" textLength="143.2334" x="48.4" y="532.082">+String? description</text><line style="stroke:#181818;stroke-width:0.5;" x1="43.4" x2="236.608" y1="539.3838" y2="539.3838"/></g><!--class PositionResponse--><g class="entity" data-qualified-name="staff DTOs.PositionResponse" data-source-line="46" id="ent0007"><rect fill="#F1F1F1" height="194.6719" rx="2.5" ry="2.5" style="stroke:#181818;stroke-width:0.5;" width="165.0361" x="272.48" y="409.75"/><ellipse cx="292.0521" cy="425.75" fill="#ADD1B2" rx="11" ry="11" style="stroke:#181818;stroke-width:1;"/><path d="M295.0208,431.3906 Q294.4427,431.6875 293.8021,431.8281 Q293.1614,431.9844 292.4583,431.9844 Q289.9583,431.9844 288.6302,430.3438 Q287.3177,428.6875 287.3177,425.5625 Q287.3177,422.4375 288.6302,420.7813 Q289.9583,419.125 292.4583,419.125 Q293.1614,419.125 293.8021,419.2813 Q294.4583,419.4375 295.0208,419.7344 L295.0208,422.4531 Q294.3958,421.875 293.8021,421.6094 Q293.2083,421.3281 292.5833,421.3281 Q291.2396,421.3281 290.5521,422.4063 Q289.8646,423.4688 289.8646,425.5625 Q289.8646,427.6563 290.5521,428.7344 Q291.2396,429.7969 292.5833,429.7969 Q293.2083,429.7969 293.8021,429.5313 Q294.3958,429.25 295.0208,428.6719 L295.0208,431.3906 Z " fill="#000000"/><text fill="#000000" font-family="sans-serif" font-size="14" lengthAdjust="spacing" textLength="122.876" x="307.0681" y="430.5967">PositionResponse</text><line style="stroke:#181818;stroke-width:0.5;" x1="273.48" x2="436.5161" y1="441.75" y2="441.75"/><text fill="#000000" font-family="sans-serif" font-size="14" lengthAdjust="spacing" textLength="64.3604" x="278.48" y="458.7451">+UUID id</text><text fill="#000000" font-family="sans-serif" font-size="14" lengthAdjust="spacing" textLength="129.124" x="278.48" y="475.042">+UUID companyId</text><text fill="#000000" font-family="sans-serif" font-size="14" lengthAdjust="spacing" textLength="4.4502" x="278.48" y="491.3389">&#160;</text><text fill="#000000" font-family="sans-serif" font-size="14" lengthAdjust="spacing" textLength="97.665" x="278.48" y="507.6357">+String name</text><text fill="#000000" font-family="sans-serif" font-size="14" lengthAdjust="spacing" textLength="143.2334" x="278.48" y="523.9326">+String? description</text><text fill="#000000" font-family="sans-serif" font-size="14" lengthAdjust="spacing" textLength="4.4502" x="278.48" y="540.2295">&#160;</text><text fill="#000000" font-family="sans-serif" font-size="14" lengthAdjust="spacing" textLength="100.9805" x="278.48" y="556.5264">+String status</text><text fill="#000000" font-family="sans-serif" font-size="14" lengthAdjust="spacing" textLength="4.4502" x="278.48" y="572.8232">&#160;</text><text fill="#000000" font-family="sans-serif" font-size="14" lengthAdjust="spacing" textLength="153.0361" x="278.48" y="589.1201">+DateTime createdAt</text><line style="stroke:#181818;stroke-width:0.5;" x1="273.48" x2="436.5161" y1="596.4219" y2="596.4219"/></g><!--class AssignBranchToCollaboratorRequest--><g class="entity" data-qualified-name="staff DTOs.AssignBranchToCollaboratorRequest" data-source-line="58" id="ent0008"><rect fill="#F1F1F1" height="80.5938" rx="2.5" ry="2.5" style="stroke:#181818;stroke-width:0.5;" width="288.1084" x="472.95" y="466.79"/><ellipse cx="487.95" cy="482.79" fill="#ADD1B2" rx="11" ry="11" style="stroke:#181818;stroke-width:1;"/><path d="M490.9188,488.4306 Q490.3406,488.7275 489.7,488.8681 Q489.0594,489.0244 488.3563,489.0244 Q485.8563,489.0244 484.5281,487.3837 Q483.2156,485.7275 483.2156,482.6025 Q483.2156,479.4775 484.5281,477.8212 Q485.8563,476.165 488.3563,476.165 Q489.0594,476.165 489.7,476.3212 Q490.3563,476.4775 490.9188,476.7744 L490.9188,479.4931 Q490.2938,478.915 489.7,478.6494 Q489.1063,478.3681 488.4813,478.3681 Q487.1375,478.3681 486.45,479.4462 Q485.7625,480.5087 485.7625,482.6025 Q485.7625,484.6962 486.45,485.7744 Q487.1375,486.8369 488.4813,486.8369 Q489.1063,486.8369 489.7,486.5712 Q490.2938,486.29 490.9188,485.7119 L490.9188,488.4306 Z " fill="#000000"/><text fill="#000000" font-family="sans-serif" font-size="14" lengthAdjust="spacing" textLength="256.1084" x="501.95" y="487.6367">AssignBranchToCollaboratorRequest</text><line style="stroke:#181818;stroke-width:0.5;" x1="473.95" x2="760.0584" y1="498.79" y2="498.79"/><text fill="#000000" font-family="sans-serif" font-size="14" lengthAdjust="spacing" textLength="148.8184" x="478.95" y="515.7851">+UUID collaboratorId</text><text fill="#000000" font-family="sans-serif" font-size="14" lengthAdjust="spacing" textLength="113.2646" x="478.95" y="532.082">+UUID branchId</text><line style="stroke:#181818;stroke-width:0.5;" x1="473.95" x2="760.0584" y1="539.3838" y2="539.3838"/></g><!--class RemoveBranchFromCollaboratorRequest--><g class="entity" data-qualified-name="staff DTOs.RemoveBranchFromCollaboratorRequest" data-source-line="63" id="ent0009"><rect fill="#F1F1F1" height="80.5938" rx="2.5" ry="2.5" style="stroke:#181818;stroke-width:0.5;" width="318.6309" x="795.68" y="466.79"/><ellipse cx="810.68" cy="482.79" fill="#ADD1B2" rx="11" ry="11" style="stroke:#181818;stroke-width:1;"/><path d="M813.6488,488.4306 Q813.0706,488.7275 812.43,488.8681 Q811.7894,489.0244 811.0863,489.0244 Q808.5863,489.0244 807.2581,487.3837 Q805.9456,485.7275 805.9456,482.6025 Q805.9456,479.4775 807.2581,477.8212 Q808.5863,476.165 811.0863,476.165 Q811.7894,476.165 812.43,476.3212 Q813.0863,476.4775 813.6488,476.7744 L813.6488,479.4931 Q813.0238,478.915 812.43,478.6494 Q811.8363,478.3681 811.2113,478.3681 Q809.8675,478.3681 809.18,479.4462 Q808.4925,480.5087 808.4925,482.6025 Q808.4925,484.6962 809.18,485.7744 Q809.8675,486.8369 811.2113,486.8369 Q811.8363,486.8369 812.43,486.5712 Q813.0238,486.29 813.6488,485.7119 L813.6488,488.4306 Z " fill="#000000"/><text fill="#000000" font-family="sans-serif" font-size="14" lengthAdjust="spacing" textLength="286.6309" x="824.68" y="487.6367">RemoveBranchFromCollaboratorRequest</text><line style="stroke:#181818;stroke-width:0.5;" x1="796.68" x2="1113.3109" y1="498.79" y2="498.79"/><text fill="#000000" font-family="sans-serif" font-size="14" lengthAdjust="spacing" textLength="148.8184" x="801.68" y="515.7851">+UUID collaboratorId</text><text fill="#000000" font-family="sans-serif" font-size="14" lengthAdjust="spacing" textLength="113.2646" x="801.68" y="532.082">+UUID branchId</text><line style="stroke:#181818;stroke-width:0.5;" x1="796.68" x2="1113.3109" y1="539.3838" y2="539.3838"/></g><!--class CollaboratorBranchResponse--><g class="entity" data-qualified-name="staff DTOs.CollaboratorBranchResponse" data-source-line="68" id="ent0010"><rect fill="#F1F1F1" height="178.375" rx="2.5" ry="2.5" style="stroke:#181818;stroke-width:0.5;" width="235.5469" x="22.23" y="664.42"/><ellipse cx="37.23" cy="680.42" fill="#ADD1B2" rx="11" ry="11" style="stroke:#181818;stroke-width:1;"/><path d="M40.1988,686.0606 Q39.6206,686.3575 38.98,686.4981 Q38.3394,686.6544 37.6363,686.6544 Q35.1363,686.6544 33.8081,685.0138 Q32.4956,683.3575 32.4956,680.2325 Q32.4956,677.1075 33.8081,675.4513 Q35.1363,673.795 37.6363,673.795 Q38.3394,673.795 38.98,673.9513 Q39.6363,674.1075 40.1988,674.4044 L40.1988,677.1231 Q39.5738,676.545 38.98,676.2794 Q38.3863,675.9981 37.7613,675.9981 Q36.4175,675.9981 35.73,677.0763 Q35.0425,678.1388 35.0425,680.2325 Q35.0425,682.3263 35.73,683.4044 Q36.4175,684.4669 37.7613,684.4669 Q38.3863,684.4669 38.98,684.2013 Q39.5738,683.92 40.1988,683.3419 L40.1988,686.0606 Z " fill="#000000"/><text fill="#000000" font-family="sans-serif" font-size="14" lengthAdjust="spacing" textLength="203.5469" x="51.23" y="685.2667">CollaboratorBranchResponse</text><line style="stroke:#181818;stroke-width:0.5;" x1="23.23" x2="256.7769" y1="696.42" y2="696.42"/><text fill="#000000" font-family="sans-serif" font-size="14" lengthAdjust="spacing" textLength="148.8184" x="28.23" y="713.4151">+UUID collaboratorId</text><text fill="#000000" font-family="sans-serif" font-size="14" lengthAdjust="spacing" textLength="4.4502" x="28.23" y="729.712">&#160;</text><text fill="#000000" font-family="sans-serif" font-size="14" lengthAdjust="spacing" textLength="113.2646" x="28.23" y="746.0089">+UUID branchId</text><text fill="#000000" font-family="sans-serif" font-size="14" lengthAdjust="spacing" textLength="147.9297" x="28.23" y="762.3057">+String branchName</text><text fill="#000000" font-family="sans-serif" font-size="14" lengthAdjust="spacing" textLength="4.4502" x="28.23" y="778.6026">&#160;</text><text fill="#000000" font-family="sans-serif" font-size="14" lengthAdjust="spacing" textLength="100.9805" x="28.23" y="794.8995">+String status</text><text fill="#000000" font-family="sans-serif" font-size="14" lengthAdjust="spacing" textLength="4.4502" x="28.23" y="811.1964">&#160;</text><text fill="#000000" font-family="sans-serif" font-size="14" lengthAdjust="spacing" textLength="153.0361" x="28.23" y="827.4932">+DateTime createdAt</text><line style="stroke:#181818;stroke-width:0.5;" x1="23.23" x2="256.7769" y1="834.795" y2="834.795"/></g><!--class AssignPositionToCollaboratorRequest--><g class="entity" data-qualified-name="staff DTOs.AssignPositionToCollaboratorRequest" data-source-line="79" id="ent0011"><rect fill="#F1F1F1" height="80.5938" rx="2.5" ry="2.5" style="stroke:#181818;stroke-width:0.5;" width="293.7344" x="293.13" y="713.31"/><ellipse cx="308.13" cy="729.31" fill="#ADD1B2" rx="11" ry="11" style="stroke:#181818;stroke-width:1;"/><path d="M311.0988,734.9506 Q310.5206,735.2475 309.88,735.3881 Q309.2394,735.5444 308.5363,735.5444 Q306.0363,735.5444 304.7081,733.9038 Q303.3956,732.2475 303.3956,729.1225 Q303.3956,725.9975 304.7081,724.3413 Q306.0363,722.685 308.5363,722.685 Q309.2394,722.685 309.88,722.8413 Q310.5363,722.9975 311.0988,723.2944 L311.0988,726.0131 Q310.4738,725.435 309.88,725.1694 Q309.2863,724.8881 308.6613,724.8881 Q307.3175,724.8881 306.63,725.9663 Q305.9425,727.0288 305.9425,729.1225 Q305.9425,731.2163 306.63,732.2944 Q307.3175,733.3569 308.6613,733.3569 Q309.2863,733.3569 309.88,733.0913 Q310.4738,732.81 311.0988,732.2319 L311.0988,734.9506 Z " fill="#000000"/><text fill="#000000" font-family="sans-serif" font-size="14" lengthAdjust="spacing" textLength="261.7344" x="322.13" y="734.1567">AssignPositionToCollaboratorRequest</text><line style="stroke:#181818;stroke-width:0.5;" x1="294.13" x2="585.8644" y1="745.31" y2="745.31"/><text fill="#000000" font-family="sans-serif" font-size="14" lengthAdjust="spacing" textLength="148.8184" x="299.13" y="762.3051">+UUID collaboratorId</text><text fill="#000000" font-family="sans-serif" font-size="14" lengthAdjust="spacing" textLength="120.0527" x="299.13" y="778.602">+UUID positionId</text><line style="stroke:#181818;stroke-width:0.5;" x1="294.13" x2="585.8644" y1="785.9038" y2="785.9038"/></g><!--class RemovePositionFromCollaboratorRequest--><g class="entity" data-qualified-name="staff DTOs.RemovePositionFromCollaboratorRequest" data-source-line="84" id="ent0012"><rect fill="#F1F1F1" height="80.5938" rx="2.5" ry="2.5" style="stroke:#181818;stroke-width:0.5;" width="324.2568" x="621.87" y="713.31"/><ellipse cx="636.87" cy="729.31" fill="#ADD1B2" rx="11" ry="11" style="stroke:#181818;stroke-width:1;"/><path d="M639.8388,734.9506 Q639.2606,735.2475 638.62,735.3881 Q637.9794,735.5444 637.2763,735.5444 Q634.7763,735.5444 633.4481,733.9038 Q632.1356,732.2475 632.1356,729.1225 Q632.1356,725.9975 633.4481,724.3413 Q634.7763,722.685 637.2763,722.685 Q637.9794,722.685 638.62,722.8413 Q639.2763,722.9975 639.8388,723.2944 L639.8388,726.0131 Q639.2138,725.435 638.62,725.1694 Q638.0263,724.8881 637.4013,724.8881 Q636.0575,724.8881 635.37,725.9663 Q634.6825,727.0288 634.6825,729.1225 Q634.6825,731.2163 635.37,732.2944 Q636.0575,733.3569 637.4013,733.3569 Q638.0263,733.3569 638.62,733.0913 Q639.2138,732.81 639.8388,732.2319 L639.8388,734.9506 Z " fill="#000000"/><text fill="#000000" font-family="sans-serif" font-size="14" lengthAdjust="spacing" textLength="292.2568" x="650.87" y="734.1567">RemovePositionFromCollaboratorRequest</text><line style="stroke:#181818;stroke-width:0.5;" x1="622.87" x2="945.1268" y1="745.31" y2="745.31"/><text fill="#000000" font-family="sans-serif" font-size="14" lengthAdjust="spacing" textLength="148.8184" x="627.87" y="762.3051">+UUID collaboratorId</text><text fill="#000000" font-family="sans-serif" font-size="14" lengthAdjust="spacing" textLength="120.0527" x="627.87" y="778.602">+UUID positionId</text><line style="stroke:#181818;stroke-width:0.5;" x1="622.87" x2="945.1268" y1="785.9038" y2="785.9038"/></g><!--class CollaboratorPositionResponse--><g class="entity" data-qualified-name="staff DTOs.CollaboratorPositionResponse" data-source-line="89" id="ent0013"><rect fill="#F1F1F1" height="178.375" rx="2.5" ry="2.5" style="stroke:#181818;stroke-width:0.5;" width="241.1729" x="981.41" y="664.42"/><ellipse cx="996.41" cy="680.42" fill="#ADD1B2" rx="11" ry="11" style="stroke:#181818;stroke-width:1;"/><path d="M999.3788,686.0606 Q998.8006,686.3575 998.16,686.4981 Q997.5194,686.6544 996.8163,686.6544 Q994.3163,686.6544 992.9881,685.0138 Q991.6756,683.3575 991.6756,680.2325 Q991.6756,677.1075 992.9881,675.4513 Q994.3163,673.795 996.8163,673.795 Q997.5194,673.795 998.16,673.9513 Q998.8163,674.1075 999.3788,674.4044 L999.3788,677.1231 Q998.7538,676.545 998.16,676.2794 Q997.5663,675.9981 996.9413,675.9981 Q995.5975,675.9981 994.91,677.0763 Q994.2225,678.1388 994.2225,680.2325 Q994.2225,682.3263 994.91,683.4044 Q995.5975,684.4669 996.9413,684.4669 Q997.5663,684.4669 998.16,684.2013 Q998.7538,683.92 999.3788,683.3419 L999.3788,686.0606 Z " fill="#000000"/><text fill="#000000" font-family="sans-serif" font-size="14" lengthAdjust="spacing" textLength="209.1729" x="1010.41" y="685.2667">CollaboratorPositionResponse</text><line style="stroke:#181818;stroke-width:0.5;" x1="982.41" x2="1221.5829" y1="696.42" y2="696.42"/><text fill="#000000" font-family="sans-serif" font-size="14" lengthAdjust="spacing" textLength="148.8184" x="987.41" y="713.4151">+UUID collaboratorId</text><text fill="#000000" font-family="sans-serif" font-size="14" lengthAdjust="spacing" textLength="4.4502" x="987.41" y="729.712">&#160;</text><text fill="#000000" font-family="sans-serif" font-size="14" lengthAdjust="spacing" textLength="120.0527" x="987.41" y="746.0089">+UUID positionId</text><text fill="#000000" font-family="sans-serif" font-size="14" lengthAdjust="spacing" textLength="154.7178" x="987.41" y="762.3057">+String positionName</text><text fill="#000000" font-family="sans-serif" font-size="14" lengthAdjust="spacing" textLength="4.4502" x="987.41" y="778.6026">&#160;</text><text fill="#000000" font-family="sans-serif" font-size="14" lengthAdjust="spacing" textLength="100.9805" x="987.41" y="794.8995">+String status</text><text fill="#000000" font-family="sans-serif" font-size="14" lengthAdjust="spacing" textLength="4.4502" x="987.41" y="811.1964">&#160;</text><text fill="#000000" font-family="sans-serif" font-size="14" lengthAdjust="spacing" textLength="153.0361" x="987.41" y="827.4932">+DateTime createdAt</text><line style="stroke:#181818;stroke-width:0.5;" x1="982.41" x2="1221.5829" y1="834.795" y2="834.795"/></g><!--class ChangeMainBranchRequest--><g class="entity" data-qualified-name="staff DTOs.ChangeMainBranchRequest" data-source-line="100" id="ent0014"><rect fill="#F1F1F1" height="80.5938" rx="2.5" ry="2.5" style="stroke:#181818;stroke-width:0.5;" width="225.9014" x="27.05" y="902.8"/><ellipse cx="42.05" cy="918.8" fill="#ADD1B2" rx="11" ry="11" style="stroke:#181818;stroke-width:1;"/><path d="M45.0188,924.4406 Q44.4406,924.7375 43.8,924.8781 Q43.1594,925.0344 42.4563,925.0344 Q39.9563,925.0344 38.6281,923.3938 Q37.3156,921.7375 37.3156,918.6125 Q37.3156,915.4875 38.6281,913.8313 Q39.9563,912.175 42.4563,912.175 Q43.1594,912.175 43.8,912.3313 Q44.4563,912.4875 45.0188,912.7844 L45.0188,915.5031 Q44.3938,914.925 43.8,914.6594 Q43.2063,914.3781 42.5813,914.3781 Q41.2375,914.3781 40.55,915.4563 Q39.8625,916.5188 39.8625,918.6125 Q39.8625,920.7063 40.55,921.7844 Q41.2375,922.8469 42.5813,922.8469 Q43.2063,922.8469 43.8,922.5813 Q44.3938,922.3 45.0188,921.7219 L45.0188,924.4406 Z " fill="#000000"/><text fill="#000000" font-family="sans-serif" font-size="14" lengthAdjust="spacing" textLength="193.9014" x="56.05" y="923.6467">ChangeMainBranchRequest</text><line style="stroke:#181818;stroke-width:0.5;" x1="28.05" x2="251.9514" y1="934.8" y2="934.8"/><text fill="#000000" font-family="sans-serif" font-size="14" lengthAdjust="spacing" textLength="148.8184" x="33.05" y="951.7951">+UUID collaboratorId</text><text fill="#000000" font-family="sans-serif" font-size="14" lengthAdjust="spacing" textLength="113.2646" x="33.05" y="968.092">+UUID branchId</text><line style="stroke:#181818;stroke-width:0.5;" x1="28.05" x2="251.9514" y1="975.3938" y2="975.3938"/></g><!--class ChangeMainPositionRequest--><g class="entity" data-qualified-name="staff DTOs.ChangeMainPositionRequest" data-source-line="105" id="ent0015"><rect fill="#F1F1F1" height="80.5938" rx="2.5" ry="2.5" style="stroke:#181818;stroke-width:0.5;" width="231.5273" x="288.24" y="902.8"/><ellipse cx="303.24" cy="918.8" fill="#ADD1B2" rx="11" ry="11" style="stroke:#181818;stroke-width:1;"/><path d="M306.2088,924.4406 Q305.6306,924.7375 304.99,924.8781 Q304.3494,925.0344 303.6463,925.0344 Q301.1463,925.0344 299.8181,923.3938 Q298.5056,921.7375 298.5056,918.6125 Q298.5056,915.4875 299.8181,913.8313 Q301.1463,912.175 303.6463,912.175 Q304.3494,912.175 304.99,912.3313 Q305.6463,912.4875 306.2088,912.7844 L306.2088,915.5031 Q305.5838,914.925 304.99,914.6594 Q304.3963,914.3781 303.7713,914.3781 Q302.4275,914.3781 301.74,915.4563 Q301.0525,916.5188 301.0525,918.6125 Q301.0525,920.7063 301.74,921.7844 Q302.4275,922.8469 303.7713,922.8469 Q304.3963,922.8469 304.99,922.5813 Q305.5838,922.3 306.2088,921.7219 L306.2088,924.4406 Z " fill="#000000"/><text fill="#000000" font-family="sans-serif" font-size="14" lengthAdjust="spacing" textLength="199.5273" x="317.24" y="923.6467">ChangeMainPositionRequest</text><line style="stroke:#181818;stroke-width:0.5;" x1="289.24" x2="518.7673" y1="934.8" y2="934.8"/><text fill="#000000" font-family="sans-serif" font-size="14" lengthAdjust="spacing" textLength="148.8184" x="294.24" y="951.7951">+UUID collaboratorId</text><text fill="#000000" font-family="sans-serif" font-size="14" lengthAdjust="spacing" textLength="120.0527" x="294.24" y="968.092">+UUID positionId</text><line style="stroke:#181818;stroke-width:0.5;" x1="289.24" x2="518.7673" y1="975.3938" y2="975.3938"/></g><?plantuml-src hPH9RiCm34NtFeMGRJUzGP4cA9151sGu02qpZX1hg2WNQ8lSlOw7s79jnncsdzAZz3z1sWjbm89aF06YgNDMXAd31TTg9NwGFGQ10Rw76Dc476otRBv-fmdx3LXnXSqiWiEPJX88jGMdxH8_KoINds7iORDPp5bAQ1THG-1Q6b3VdYP1g6SBYk_-oH-QX1DQvOL3SEg-CT68xbU0VIGPhGWzfeZ6VQyGLvcnAcOA97e2Pcz8Wi6dbYVhmjiHClGD_r9LQbmhgrcWBgLIcsS-heL4nlD0ewbh6PBB5QpBvLQaFLz-OX4Ijy8SCLrXzhIu75U3piKtCYs_r_LMJeb4N8QvrkU6bpVgteo5zPWqu4kK-WiB-8lLyixu9gveqcblYzgDhUqBsuDzlQrLwZSOQtfsGc5jrU0cSys8jJCul_q6c-vLOEwq1dQWOdmzBQDxZDG9ERnTnbbv-0C0?></g></svg>