<svg xmlns="http://www.w3.org/2000/svg" xmlns:xlink="http://www.w3.org/1999/xlink" contentStyleType="text/css" data-diagram-type="DESCRIPTION" height="404px" preserveAspectRatio="none" style="width:2944px;height:404px;background:#FFFFFF;" version="1.1" viewBox="0 0 2944 404" width="2944px" zoomAndPan="magnify"><?plantuml 1.2026.5?><defs/><g><!--cluster identity--><g class="cluster" data-qualified-name="identity" data-source-line="3" id="ent0001"><path d="M8.5,6 L71.0918,6 A3.75,3.75 0 0 1 73.5918,8.5 L80.5918,28.2969 L2926.5,28.2969 A2.5,2.5 0 0 1 2929,30.7969 L2929,387.09 A2.5,2.5 0 0 1 2926.5,389.59 L8.5,389.59 A2.5,2.5 0 0 1 6,387.09 L6,8.5 A2.5,2.5 0 0 1 8.5,6" fill="none" style="stroke:#000000;stroke-width:1.5;"/><line style="stroke:#000000;stroke-width:1.5;" x1="6" x2="80.5918" y1="28.2969" y2="28.2969"/><text fill="#000000" font-family="sans-serif" font-size="14" font-weight="700" lengthAdjust="spacing" textLength="61.5918" x="10" y="20.9951">identity</text></g><!--cluster api--><g class="cluster" data-qualified-name="identity.api" data-source-line="4" id="ent0002"><path d="M478.5,49 L503.7676,49 A3.75,3.75 0 0 1 506.2676,51.5 L513.2676,71.2969 L1021.5,71.2969 A2.5,2.5 0 0 1 1024,73.7969 L1024,133.79 A2.5,2.5 0 0 1 1021.5,136.29 L478.5,136.29 A2.5,2.5 0 0 1 476,133.79 L476,51.5 A2.5,2.5 0 0 1 478.5,49" fill="none" style="stroke:#000000;stroke-width:1.5;"/><line style="stroke:#000000;stroke-width:1.5;" x1="476" x2="513.2676" y1="71.2969" y2="71.2969"/><text fill="#000000" font-family="sans-serif" font-size="14" font-weight="700" lengthAdjust="spacing" textLength="24.2676" x="480" y="63.9951">api</text></g><!--cluster application--><g class="cluster" data-qualified-name="identity.application" data-source-line="10" id="ent0006"><path d="M32.5,160.29 L121.4102,160.29 A3.75,3.75 0 0 1 123.9102,162.79 L130.9102,182.5869 L1516.5,182.5869 A2.5,2.5 0 0 1 1519,185.0869 L1519,363.09 A2.5,2.5 0 0 1 1516.5,365.59 L32.5,365.59 A2.5,2.5 0 0 1 30,363.09 L30,162.79 A2.5,2.5 0 0 1 32.5,160.29" fill="none" style="stroke:#000000;stroke-width:1.5;"/><line style="stroke:#000000;stroke-width:1.5;" x1="30" x2="130.9102" y1="182.5869" y2="182.5869"/><text fill="#000000" font-family="sans-serif" font-size="14" font-weight="700" lengthAdjust="spacing" textLength="87.9102" x="34" y="175.2851">application</text></g><!--cluster domain--><g class="cluster" data-qualified-name="identity.domain" data-source-line="27" id="ent0017"><path d="M2547.5,267.44 L2606.9404,267.44 A3.75,3.75 0 0 1 2609.4404,269.94 L2616.4404,289.7369 L2902.5,289.7369 A2.5,2.5 0 0 1 2905,292.2369 L2905,352.24 A2.5,2.5 0 0 1 2902.5,354.74 L2547.5,354.74 A2.5,2.5 0 0 1 2545,352.24 L2545,269.94 A2.5,2.5 0 0 1 2547.5,267.44" fill="none" style="stroke:#000000;stroke-width:1.5;"/><line style="stroke:#000000;stroke-width:1.5;" x1="2545" x2="2616.4404" y1="289.7369" y2="289.7369"/><text fill="#000000" font-family="sans-serif" font-size="14" font-weight="700" lengthAdjust="spacing" textLength="58.4404" x="2549" y="282.4351">domain</text></g><!--cluster infrastructure--><g class="cluster" data-qualified-name="identity.infrastructure" data-source-line="33" id="ent0021"><path d="M1545.5,267.44 L1656.9619,267.44 A3.75,3.75 0 0 1 1659.4619,269.94 L1666.4619,289.7369 L2518.5,289.7369 A2.5,2.5 0 0 1 2521,292.2369 L2521,352.24 A2.5,2.5 0 0 1 2518.5,354.74 L1545.5,354.74 A2.5,2.5 0 0 1 1543,352.24 L1543,269.94 A2.5,2.5 0 0 1 1545.5,267.44" fill="none" style="stroke:#000000;stroke-width:1.5;"/><line style="stroke:#000000;stroke-width:1.5;" x1="1543" x2="1666.4619" y1="289.7369" y2="289.7369"/><text fill="#000000" font-family="sans-serif" font-size="14" font-weight="700" lengthAdjust="spacing" textLength="110.4619" x="1547" y="282.4351">infrastructure</text></g><!--entity AuthController--><g class="entity" data-qualified-name="identity.api.AuthController" data-source-line="5" id="ent0003"><rect fill="#F1F1F1" height="36.2969" rx="2.5" ry="2.5" style="stroke:#181818;stroke-width:0.5;" width="121.9854" x="886.01" y="84"/><text fill="#000000" font-family="sans-serif" font-size="14" lengthAdjust="spacing" textLength="101.9854" x="896.01" y="106.9951">AuthController</text></g><!--entity UserController--><g class="entity" data-qualified-name="identity.api.UserController" data-source-line="6" id="ent0004"><rect fill="#F1F1F1" height="36.2969" rx="2.5" ry="2.5" style="stroke:#181818;stroke-width:0.5;" width="121.083" x="492.46" y="84"/><text fill="#000000" font-family="sans-serif" font-size="14" lengthAdjust="spacing" textLength="101.083" x="502.46" y="106.9951">UserController</text></g><!--entity RoleAssignmentController--><g class="entity" data-qualified-name="identity.api.RoleAssignmentController" data-source-line="7" id="ent0005"><rect fill="#F1F1F1" height="36.2969" rx="2.5" ry="2.5" style="stroke:#181818;stroke-width:0.5;" width="202.3965" x="648.8" y="84"/><text fill="#000000" font-family="sans-serif" font-size="14" lengthAdjust="spacing" textLength="182.3965" x="658.8" y="106.9951">RoleAssignmentController</text></g><!--entity LoginUseCase--><g class="entity" data-qualified-name="identity.application.LoginUseCase" data-source-line="11" id="ent0007"><rect fill="#F1F1F1" height="36.2969" rx="2.5" ry="2.5" style="stroke:#181818;stroke-width:0.5;" width="118.4307" x="1112.78" y="195.29"/><text fill="#000000" font-family="sans-serif" font-size="14" lengthAdjust="spacing" textLength="98.4307" x="1122.78" y="218.2851">LoginUseCase</text></g><!--entity CreateUserUseCase--><g class="entity" data-qualified-name="identity.application.CreateUserUseCase" data-source-line="13" id="ent0008"><rect fill="#F1F1F1" height="36.2969" rx="2.5" ry="2.5" style="stroke:#181818;stroke-width:0.5;" width="159.1523" x="468.42" y="195.29"/><text fill="#000000" font-family="sans-serif" font-size="14" lengthAdjust="spacing" textLength="139.1523" x="478.42" y="218.2851">CreateUserUseCase</text></g><!--entity UpdateUserUseCase--><g class="entity" data-qualified-name="identity.application.UpdateUserUseCase" data-source-line="14" id="ent0009"><rect fill="#F1F1F1" height="36.2969" rx="2.5" ry="2.5" style="stroke:#181818;stroke-width:0.5;" width="163.0283" x="46.49" y="195.29"/><text fill="#000000" font-family="sans-serif" font-size="14" lengthAdjust="spacing" textLength="143.0283" x="56.49" y="218.2851">UpdateUserUseCase</text></g><!--entity DeactivateUserUseCase--><g class="entity" data-qualified-name="identity.application.DeactivateUserUseCase" data-source-line="15" id="ent0010"><rect fill="#F1F1F1" height="36.2969" rx="2.5" ry="2.5" style="stroke:#181818;stroke-width:0.5;" width="188.3418" x="244.83" y="195.29"/><text fill="#000000" font-family="sans-serif" font-size="14" lengthAdjust="spacing" textLength="168.3418" x="254.83" y="218.2851">DeactivateUserUseCase</text></g><!--entity AssignRoleToUserUseCase--><g class="entity" data-qualified-name="identity.application.AssignRoleToUserUseCase" data-source-line="17" id="ent0011"><rect fill="#F1F1F1" height="36.2969" rx="2.5" ry="2.5" style="stroke:#181818;stroke-width:0.5;" width="206.0537" x="871.97" y="195.29"/><text fill="#000000" font-family="sans-serif" font-size="14" lengthAdjust="spacing" textLength="186.0537" x="881.97" y="218.2851">AssignRoleToUserUseCase</text></g><!--entity RemoveRoleFromUserUseCase--><g class="entity" data-qualified-name="identity.application.RemoveRoleFromUserUseCase" data-source-line="18" id="ent0012"><rect fill="#F1F1F1" height="36.2969" rx="2.5" ry="2.5" style="stroke:#181818;stroke-width:0.5;" width="236.5762" x="1266.71" y="195.29"/><text fill="#000000" font-family="sans-serif" font-size="14" lengthAdjust="spacing" textLength="216.5762" x="1276.71" y="218.2851">RemoveRoleFromUserUseCase</text></g><!--entity ListUserRolesUseCase--><g class="entity" data-qualified-name="identity.application.ListUserRolesUseCase" data-source-line="19" id="ent0013"><rect fill="#F1F1F1" height="36.2969" rx="2.5" ry="2.5" style="stroke:#181818;stroke-width:0.5;" width="174.8887" x="662.56" y="195.29"/><text fill="#000000" font-family="sans-serif" font-size="14" lengthAdjust="spacing" textLength="154.8887" x="672.56" y="218.2851">ListUserRolesUseCase</text></g><!--entity UserMapper--><g class="entity" data-qualified-name="identity.application.UserMapper" data-source-line="21" id="ent0014"><rect fill="#F1F1F1" height="36.2969" rx="2.5" ry="2.5" style="stroke:#181818;stroke-width:0.5;" width="104.7109" x="201.64" y="302.44"/><text fill="#000000" font-family="sans-serif" font-size="14" lengthAdjust="spacing" textLength="84.7109" x="211.64" y="325.4351">UserMapper</text></g><!--entity UserRoleMapper--><g class="entity" data-qualified-name="identity.application.UserRoleMapper" data-source-line="22" id="ent0015"><rect fill="#F1F1F1" height="36.2969" rx="2.5" ry="2.5" style="stroke:#181818;stroke-width:0.5;" width="135.5068" x="794.25" y="302.44"/><text fill="#000000" font-family="sans-serif" font-size="14" lengthAdjust="spacing" textLength="115.5068" x="804.25" y="325.4351">UserRoleMapper</text></g><!--entity ICompanyRepository--><g class="entity" data-qualified-name="identity.application.ICompanyRepository" data-source-line="24" id="ent0016"><ellipse cx="548" cy="320.59" fill="#F1F1F1" rx="8" ry="8" style="stroke:#181818;stroke-width:0.5;"/><text fill="#000000" font-family="sans-serif" font-size="14" lengthAdjust="spacing" textLength="145.8037" x="475.0981" y="350.5851">ICompanyRepository</text></g><!--entity User--><g class="entity" data-qualified-name="identity.domain.User" data-source-line="28" id="ent0018"><rect fill="#F1F1F1" height="36.2969" rx="2.5" ry="2.5" style="stroke:#181818;stroke-width:0.5;" width="51.9102" x="2561.04" y="302.44"/><text fill="#000000" font-family="sans-serif" font-size="14" lengthAdjust="spacing" textLength="31.9102" x="2571.04" y="325.4351">User</text></g><!--entity UserCredential--><g class="entity" data-qualified-name="identity.domain.UserCredential" data-source-line="29" id="ent0019"><rect fill="#F1F1F1" height="36.2969" rx="2.5" ry="2.5" style="stroke:#181818;stroke-width:0.5;" width="124.2754" x="2647.86" y="302.44"/><text fill="#000000" font-family="sans-serif" font-size="14" lengthAdjust="spacing" textLength="104.2754" x="2657.86" y="325.4351">UserCredential</text></g><!--entity UserRole--><g class="entity" data-qualified-name="identity.domain.UserRole" data-source-line="30" id="ent0020"><rect fill="#F1F1F1" height="36.2969" rx="2.5" ry="2.5" style="stroke:#181818;stroke-width:0.5;" width="82.7061" x="2806.65" y="302.44"/><text fill="#000000" font-family="sans-serif" font-size="14" lengthAdjust="spacing" textLength="62.7061" x="2816.65" y="325.4351">UserRole</text></g><!--entity UserRepository--><g class="entity" data-qualified-name="identity.infrastructure.UserRepository" data-source-line="34" id="ent0022"><rect fill="#F1F1F1" height="36.2969" rx="2.5" ry="2.5" style="stroke:#181818;stroke-width:0.5;" width="126.9824" x="1558.51" y="302.44"/><text fill="#000000" font-family="sans-serif" font-size="14" lengthAdjust="spacing" textLength="106.9824" x="1568.51" y="325.4351">UserRepository</text></g><!--entity UserCredentialRepository--><g class="entity" data-qualified-name="identity.infrastructure.UserCredentialRepository" data-source-line="35" id="ent0023"><rect fill="#F1F1F1" height="36.2969" rx="2.5" ry="2.5" style="stroke:#181818;stroke-width:0.5;" width="199.3477" x="1720.33" y="302.44"/><text fill="#000000" font-family="sans-serif" font-size="14" lengthAdjust="spacing" textLength="179.3477" x="1730.33" y="325.4351">UserCredentialRepository</text></g><!--entity UserRoleRepository--><g class="entity" data-qualified-name="identity.infrastructure.UserRoleRepository" data-source-line="36" id="ent0024"><rect fill="#F1F1F1" height="36.2969" rx="2.5" ry="2.5" style="stroke:#181818;stroke-width:0.5;" width="157.7783" x="2176.11" y="302.44"/><text fill="#000000" font-family="sans-serif" font-size="14" lengthAdjust="spacing" textLength="137.7783" x="2186.11" y="325.4351">UserRoleRepository</text></g><!--entity Argon2PasswordHasher--><g class="entity" data-qualified-name="identity.infrastructure.Argon2PasswordHasher" data-source-line="37" id="ent0025"><rect fill="#F1F1F1" height="36.2969" rx="2.5" ry="2.5" style="stroke:#181818;stroke-width:0.5;" width="186.4756" x="1954.76" y="302.44"/><text fill="#000000" font-family="sans-serif" font-size="14" lengthAdjust="spacing" textLength="166.4756" x="1964.76" y="325.4351">Argon2PasswordHasher</text></g><!--entity JwtTokenService--><g class="entity" data-qualified-name="identity.infrastructure.JwtTokenService" data-source-line="38" id="ent0026"><rect fill="#F1F1F1" height="36.2969" rx="2.5" ry="2.5" style="stroke:#181818;stroke-width:0.5;" width="135.5205" x="2369.24" y="302.44"/><text fill="#000000" font-family="sans-serif" font-size="14" lengthAdjust="spacing" textLength="115.5205" x="2379.24" y="325.4351">JwtTokenService</text></g><!--link AuthController to LoginUseCase--><g class="link" data-entity-1="ent0003" data-entity-2="ent0007" data-link-type="dependency" data-source-line="42" id="lnk27"><path d="M1008.44,118.14 C1036.12,126.21 1068.66,137.57 1096,152.29 C1117.48,163.86 1135.3015,178.2664 1149.9315,191.4964" fill="none" id="AuthController-to-LoginUseCase" style="stroke:#181818;stroke-width:1;"/><polygon fill="#181818" points="1153.64,194.85,1149.6476,185.8466,1149.9315,191.4964,1144.2818,191.7803,1153.64,194.85" style="stroke:#181818;stroke-width:1;stroke-linejoin:miter;stroke-miterlimit:10;"/></g><!--link UserController to CreateUserUseCase--><g class="link" data-entity-1="ent0004" data-entity-2="ent0008" data-link-type="dependency" data-source-line="44" id="lnk28"><path d="M552.2,120.71 C551.26,141.1 549.958,169.5552 549.028,189.9252" fill="none" id="UserController-to-CreateUserUseCase" style="stroke:#181818;stroke-width:1;"/><polygon fill="#181818" points="548.8,194.92,553.2063,186.1118,549.028,189.9252,545.2146,185.7469,548.8,194.92" style="stroke:#181818;stroke-width:1;stroke-linejoin:miter;stroke-miterlimit:10;"/></g><!--link UserController to UpdateUserUseCase--><g class="link" data-entity-1="ent0004" data-entity-2="ent0009" data-link-type="dependency" data-source-line="45" id="lnk29"><path d="M492.06,105.18 C425.22,109.03 315.65,120.15 227,152.29 C198.83,162.51 173.9697,178.2913 154.7197,192.1313" fill="none" id="UserController-to-UpdateUserUseCase" style="stroke:#181818;stroke-width:1;"/><polygon fill="#181818" points="150.66,195.05,160.3024,193.044,154.7197,192.1313,155.6324,186.5485,150.66,195.05" style="stroke:#181818;stroke-width:1;stroke-linejoin:miter;stroke-miterlimit:10;"/></g><!--link UserController to DeactivateUserUseCase--><g class="link" data-entity-1="ent0004" data-entity-2="ent0010" data-link-type="dependency" data-source-line="46" id="lnk30"><path d="M515.5,120.73 C496.14,129.93 472.2,141.5 451,152.29 C423.66,166.21 397.3765,180.3504 375.0565,192.5604" fill="none" id="UserController-to-DeactivateUserUseCase" style="stroke:#181818;stroke-width:1;"/><polygon fill="#181818" points="370.67,194.96,380.4855,194.1499,375.0565,192.5604,376.6461,187.1314,370.67,194.96" style="stroke:#181818;stroke-width:1;stroke-linejoin:miter;stroke-miterlimit:10;"/></g><!--link RoleAssignmentController to AssignRoleToUserUseCase--><g class="link" data-entity-1="ent0005" data-entity-2="ent0011" data-link-type="dependency" data-source-line="48" id="lnk31"><path d="M788.03,120.64 C808.02,129.92 832.9,141.59 855,152.29 C883.94,166.32 912.0902,180.4393 936.0002,192.5593" fill="none" id="RoleAssignmentController-to-AssignRoleToUserUseCase" style="stroke:#181818;stroke-width:1;"/><polygon fill="#181818" points="940.46,194.82,934.241,187.183,936.0002,192.5593,930.6239,194.3186,940.46,194.82" style="stroke:#181818;stroke-width:1;stroke-linejoin:miter;stroke-miterlimit:10;"/></g><!--link RoleAssignmentController to RemoveRoleFromUserUseCase--><g class="link" data-entity-1="ent0005" data-entity-2="ent0012" data-link-type="dependency" data-source-line="49" id="lnk32"><path d="M790.73,120.77 C813.33,129.64 842.21,139.5 869,144.29 C952.14,159.16 1166.55,133.97 1249,152.29 C1287.18,160.78 1323.4031,177.9094 1350.2031,192.4194" fill="none" id="RoleAssignmentController-to-RemoveRoleFromUserUseCase" style="stroke:#181818;stroke-width:1;"/><polygon fill="#181818" points="1354.6,194.8,1348.59,186.9974,1350.2031,192.4194,1344.7811,194.0325,1354.6,194.8" style="stroke:#181818;stroke-width:1;stroke-linejoin:miter;stroke-miterlimit:10;"/></g><!--link RoleAssignmentController to ListUserRolesUseCase--><g class="link" data-entity-1="ent0005" data-entity-2="ent0013" data-link-type="dependency" data-source-line="50" id="lnk33"><path d="M750,120.71 C750,141.1 750,169.55 750,189.92" fill="none" id="RoleAssignmentController-to-ListUserRolesUseCase" style="stroke:#181818;stroke-width:1;"/><polygon fill="#181818" points="750,194.92,754,185.92,750,189.92,746,185.92,750,194.92" style="stroke:#181818;stroke-width:1;stroke-linejoin:miter;stroke-miterlimit:10;"/></g><!--link LoginUseCase to UserRepository--><g class="link" data-entity-1="ent0007" data-entity-2="ent0022" data-link-type="dependency" data-source-line="52" id="lnk34"><path d="M1231.56,228.42 C1237.43,229.59 1243.32,230.67 1249,231.59 C1368.08,250.92 1404.32,221.99 1519,259.44 C1548.53,269.08 1574.7192,285.205 1594.7392,299.275" fill="none" id="LoginUseCase-to-UserRepository" style="stroke:#181818;stroke-width:1;"/><polygon fill="#181818" points="1598.83,302.15,1593.7666,293.7024,1594.7392,299.275,1589.1666,300.2476,1598.83,302.15" style="stroke:#181818;stroke-width:1;stroke-linejoin:miter;stroke-miterlimit:10;"/></g><!--link LoginUseCase to UserCredentialRepository--><g class="link" data-entity-1="ent0007" data-entity-2="ent0023" data-link-type="dependency" data-source-line="53" id="lnk35"><path d="M1231.52,228.67 C1237.4,229.78 1243.3,230.79 1249,231.59 C1449.17,259.84 1508.06,205.9 1703,259.44 C1736.26,268.58 1766.7478,285.2135 1789.6378,299.4935" fill="none" id="LoginUseCase-to-UserCredentialRepository" style="stroke:#181818;stroke-width:1;"/><polygon fill="#181818" points="1793.88,302.14,1788.3613,293.9826,1789.6378,299.4935,1784.1269,300.77,1793.88,302.14" style="stroke:#181818;stroke-width:1;stroke-linejoin:miter;stroke-miterlimit:10;"/></g><!--link LoginUseCase to UserRoleRepository--><g class="link" data-entity-1="ent0007" data-entity-2="ent0024" data-link-type="dependency" data-source-line="54" id="lnk36"><path d="M1231.5,228.85 C1237.39,229.93 1243.29,230.87 1249,231.59 C1349.37,244.19 2062.22,230.02 2159,259.44 C2187.6,268.14 2212.1481,284.6213 2230.5681,299.0913" fill="none" id="LoginUseCase-to-UserRoleRepository" style="stroke:#181818;stroke-width:1;"/><polygon fill="#181818" points="2234.5,302.18,2229.8936,293.4748,2230.5681,299.0913,2224.9516,299.7658,2234.5,302.18" style="stroke:#181818;stroke-width:1;stroke-linejoin:miter;stroke-miterlimit:10;"/></g><!--link LoginUseCase to Argon2PasswordHasher--><g class="link" data-entity-1="ent0007" data-entity-2="ent0025" data-link-type="dependency" data-source-line="55" id="lnk37"><path d="M1231.51,228.8 C1237.39,229.88 1243.3,230.85 1249,231.59 C1400.73,251.39 1789.47,218.85 1937,259.44 C1968.91,268.22 1997.6397,284.7965 2019.2397,299.1965" fill="none" id="LoginUseCase-to-Argon2PasswordHasher" style="stroke:#181818;stroke-width:1;"/><polygon fill="#181818" points="2023.4,301.97,2018.1303,293.6495,2019.2397,299.1965,2013.6927,300.3059,2023.4,301.97" style="stroke:#181818;stroke-width:1;stroke-linejoin:miter;stroke-miterlimit:10;"/></g><!--link LoginUseCase to JwtTokenService--><g class="link" data-entity-1="ent0007" data-entity-2="ent0026" data-link-type="dependency" data-source-line="56" id="lnk38"><path d="M1231.49,228.89 C1237.38,229.96 1243.29,230.89 1249,231.59 C1370.57,246.52 2234.65,221.17 2351,259.44 C2377.31,268.1 2398.953,284.3582 2415.243,298.8382" fill="none" id="LoginUseCase-to-JwtTokenService" style="stroke:#181818;stroke-width:1;"/><polygon fill="#181818" points="2418.98,302.16,2414.9108,293.1911,2415.243,298.8382,2409.5959,299.1704,2418.98,302.16" style="stroke:#181818;stroke-width:1;stroke-linejoin:miter;stroke-miterlimit:10;"/></g><!--link CreateUserUseCase to UserRepository--><g class="link" data-entity-1="ent0008" data-entity-2="ent0022" data-link-type="dependency" data-source-line="58" id="lnk39"><path d="M628.07,229.52 C633.78,230.31 639.47,231.02 645,231.59 C838.28,251.65 1332.26,205.7 1519,259.44 C1549.25,268.15 1575.8451,284.7808 1595.7451,299.2408" fill="none" id="CreateUserUseCase-to-UserRepository" style="stroke:#181818;stroke-width:1;"/><polygon fill="#181818" points="1599.79,302.18,1594.8605,293.6536,1595.7451,299.2408,1590.1578,300.1254,1599.79,302.18" style="stroke:#181818;stroke-width:1;stroke-linejoin:miter;stroke-miterlimit:10;"/></g><!--link CreateUserUseCase to UserCredentialRepository--><g class="link" data-entity-1="ent0008" data-entity-2="ent0023" data-link-type="dependency" data-source-line="59" id="lnk40"><path d="M628.06,229.55 C633.78,230.34 639.47,231.03 645,231.59 C762,243.41 1589.08,230.28 1703,259.44 C1736.63,268.05 1767.3488,284.9602 1790.1888,299.4602" fill="none" id="CreateUserUseCase-to-UserCredentialRepository" style="stroke:#181818;stroke-width:1;"/><polygon fill="#181818" points="1794.41,302.14,1788.9557,293.9393,1790.1888,299.4602,1784.668,300.6933,1794.41,302.14" style="stroke:#181818;stroke-width:1;stroke-linejoin:miter;stroke-miterlimit:10;"/></g><!--link CreateUserUseCase to Argon2PasswordHasher--><g class="link" data-entity-1="ent0008" data-entity-2="ent0025" data-link-type="dependency" data-source-line="60" id="lnk41"><path d="M628.06,229.58 C633.78,230.36 639.47,231.04 645,231.59 C787.9,245.68 1798.2,222.66 1937,259.44 C1969.2,267.98 1998.1522,284.7879 2019.7222,299.3079" fill="none" id="CreateUserUseCase-to-Argon2PasswordHasher" style="stroke:#181818;stroke-width:1;"/><polygon fill="#181818" points="2023.87,302.1,2018.6377,293.756,2019.7222,299.3079,2014.1703,300.3924,2023.87,302.1" style="stroke:#181818;stroke-width:1;stroke-linejoin:miter;stroke-miterlimit:10;"/></g><!--link CreateUserUseCase to User--><g class="link" data-entity-1="ent0008" data-entity-2="ent0018" data-link-type="dependency" data-source-line="61" id="lnk42"><path d="M628.06,229.63 C633.78,230.39 639.47,231.06 645,231.59 C748.76,241.47 2424.08,221.08 2521,259.44 C2542.91,268.12 2558.8875,283.8337 2570.8375,298.3137" fill="none" id="CreateUserUseCase-to-User" style="stroke:#181818;stroke-width:1;"/><polygon fill="#181818" points="2574.02,302.17,2571.3765,292.6825,2570.8375,298.3137,2565.2063,297.7746,2574.02,302.17" style="stroke:#181818;stroke-width:1;stroke-linejoin:miter;stroke-miterlimit:10;"/></g><!--link CreateUserUseCase to UserCredential--><g class="link" data-entity-1="ent0008" data-entity-2="ent0019" data-link-type="dependency" data-source-line="62" id="lnk43"><path d="M628.05,229.63 C633.78,230.4 639.47,231.07 645,231.59 C754.8,242 2525.64,223.77 2630,259.44 C2654.99,267.98 2674.9186,284.1113 2689.8986,298.6213" fill="none" id="CreateUserUseCase-to-UserCredential" style="stroke:#181818;stroke-width:1;"/><polygon fill="#181818" points="2693.49,302.1,2689.8084,292.9651,2689.8986,298.6213,2684.2424,298.7114,2693.49,302.1" style="stroke:#181818;stroke-width:1;stroke-linejoin:miter;stroke-miterlimit:10;"/></g><!--link CreateUserUseCase to ICompanyRepository--><g class="link" data-entity-1="ent0008" data-entity-2="ent0016" data-link-type="dependency" data-source-line="63" id="lnk44"><path d="M548,231.8 C548,254.9 548,289.78 548,306.67" fill="none" id="CreateUserUseCase-to-ICompanyRepository" style="stroke:#181818;stroke-width:1;"/><polygon fill="#181818" points="548,311.67,552,302.67,548,306.67,544,302.67,548,311.67" style="stroke:#181818;stroke-width:1;stroke-linejoin:miter;stroke-miterlimit:10;"/></g><!--link CreateUserUseCase to UserMapper--><g class="link" data-entity-1="ent0008" data-entity-2="ent0014" data-link-type="dependency" data-source-line="64" id="lnk45"><path d="M498.79,232.04 C444.36,251.51 361.888,281.0062 307.588,300.4262" fill="none" id="CreateUserUseCase-to-UserMapper" style="stroke:#181818;stroke-width:1;"/><polygon fill="#181818" points="302.88,302.11,312.7013,302.8456,307.588,300.4262,310.0073,295.3128,302.88,302.11" style="stroke:#181818;stroke-width:1;stroke-linejoin:miter;stroke-miterlimit:10;"/></g><!--link UpdateUserUseCase to UserRepository--><g class="link" data-entity-1="ent0009" data-entity-2="ent0022" data-link-type="dependency" data-source-line="66" id="lnk46"><path d="M209.98,229.62 C215.73,230.38 221.44,231.05 227,231.59 C369.92,245.43 1380.81,220.44 1519,259.44 C1549.29,267.99 1575.8816,284.6419 1595.7716,299.1619" fill="none" id="UpdateUserUseCase-to-UserRepository" style="stroke:#181818;stroke-width:1;"/><polygon fill="#181818" points="1599.81,302.11,1594.8993,293.5727,1595.7716,299.1619,1590.1824,300.0341,1599.81,302.11" style="stroke:#181818;stroke-width:1;stroke-linejoin:miter;stroke-miterlimit:10;"/></g><!--link UpdateUserUseCase to UserMapper--><g class="link" data-entity-1="ent0009" data-entity-2="ent0014" data-link-type="dependency" data-source-line="67" id="lnk47"><path d="M149.09,232.04 C172.49,251.57 206.1611,279.6665 229.4211,299.0765" fill="none" id="UpdateUserUseCase-to-UserMapper" style="stroke:#181818;stroke-width:1;"/><polygon fill="#181818" points="233.26,302.28,228.9127,293.4425,229.4211,299.0765,223.7871,299.5848,233.26,302.28" style="stroke:#181818;stroke-width:1;stroke-linejoin:miter;stroke-miterlimit:10;"/></g><!--link DeactivateUserUseCase to UserRepository--><g class="link" data-entity-1="ent0010" data-entity-2="ent0022" data-link-type="dependency" data-source-line="69" id="lnk48"><path d="M433.61,229.78 C439.49,230.47 445.32,231.08 451,231.59 C569.24,242.14 1404.83,226.94 1519,259.44 C1549.27,268.06 1575.8687,284.7059 1595.7587,299.1959" fill="none" id="DeactivateUserUseCase-to-UserRepository" style="stroke:#181818;stroke-width:1;"/><polygon fill="#181818" points="1599.8,302.14,1594.8809,293.6075,1595.7587,299.1959,1590.1704,300.0736,1599.8,302.14" style="stroke:#181818;stroke-width:1;stroke-linejoin:miter;stroke-miterlimit:10;"/></g><!--link AssignRoleToUserUseCase to UserRoleRepository--><g class="link" data-entity-1="ent0011" data-entity-2="ent0024" data-link-type="dependency" data-source-line="71" id="lnk49"><path d="M1078.33,229.98 C1083.96,230.59 1089.55,231.13 1095,231.59 C1212.85,241.52 2045.78,225.29 2159,259.44 C2187.62,268.07 2212.171,284.5676 2230.581,299.0576" fill="none" id="AssignRoleToUserUseCase-to-UserRoleRepository" style="stroke:#181818;stroke-width:1;"/><polygon fill="#181818" points="2234.51,302.15,2229.9117,293.4405,2230.581,299.0576,2224.9639,299.7269,2234.51,302.15" style="stroke:#181818;stroke-width:1;stroke-linejoin:miter;stroke-miterlimit:10;"/></g><!--link AssignRoleToUserUseCase to UserRepository--><g class="link" data-entity-1="ent0011" data-entity-2="ent0022" data-link-type="dependency" data-source-line="72" id="lnk50"><path d="M1078.36,229.72 C1083.98,230.39 1089.56,231.02 1095,231.59 C1188.92,241.37 1428.71,231.8 1519,259.44 C1548.9,268.59 1575.2926,284.9721 1595.2526,299.2421" fill="none" id="AssignRoleToUserUseCase-to-UserRepository" style="stroke:#181818;stroke-width:1;"/><polygon fill="#181818" points="1599.32,302.15,1594.325,293.6618,1595.2526,299.2421,1589.6723,300.1697,1599.32,302.15" style="stroke:#181818;stroke-width:1;stroke-linejoin:miter;stroke-miterlimit:10;"/></g><!--link AssignRoleToUserUseCase to UserRole--><g class="link" data-entity-1="ent0011" data-entity-2="ent0020" data-link-type="dependency" data-source-line="73" id="lnk51"><path d="M1078.33,230.05 C1083.96,230.64 1089.55,231.16 1095,231.59 C1188.88,239.04 2703.63,221.9 2790,259.44 C2810.22,268.23 2823.9971,283.7048 2834.1871,298.1448" fill="none" id="AssignRoleToUserUseCase-to-UserRole" style="stroke:#181818;stroke-width:1;"/><polygon fill="#181818" points="2837.07,302.23,2835.149,292.5703,2834.1871,298.1448,2828.6127,297.1829,2837.07,302.23" style="stroke:#181818;stroke-width:1;stroke-linejoin:miter;stroke-miterlimit:10;"/></g><!--link AssignRoleToUserUseCase to UserRoleMapper--><g class="link" data-entity-1="ent0011" data-entity-2="ent0015" data-link-type="dependency" data-source-line="74" id="lnk52"><path d="M956.09,232.04 C935.1,251.57 905.1205,279.464 884.2605,298.874" fill="none" id="AssignRoleToUserUseCase-to-UserRoleMapper" style="stroke:#181818;stroke-width:1;"/><polygon fill="#181818" points="880.6,302.28,889.9137,299.0775,884.2605,298.874,884.464,293.2208,880.6,302.28" style="stroke:#181818;stroke-width:1;stroke-linejoin:miter;stroke-miterlimit:10;"/></g><!--link RemoveRoleFromUserUseCase to UserRoleRepository--><g class="link" data-entity-1="ent0012" data-entity-2="ent0024" data-link-type="dependency" data-source-line="76" id="lnk53"><path d="M1503.59,214.17 C1689.47,214.95 2040.47,221.62 2159,259.44 C2187.29,268.47 2211.6585,284.7064 2230.1285,299.0264" fill="none" id="RemoveRoleFromUserUseCase-to-UserRoleRepository" style="stroke:#181818;stroke-width:1;"/><polygon fill="#181818" points="2234.08,302.09,2229.4182,293.4143,2230.1285,299.0264,2224.5164,299.7367,2234.08,302.09" style="stroke:#181818;stroke-width:1;stroke-linejoin:miter;stroke-miterlimit:10;"/></g><!--link ListUserRolesUseCase to UserRoleRepository--><g class="link" data-entity-1="ent0013" data-entity-2="ent0024" data-link-type="dependency" data-source-line="77" id="lnk54"><path d="M837.83,229.82 C843.29,230.5 848.72,231.1 854,231.59 C998.41,244.97 2020.04,217.9 2159,259.44 C2187.64,268.01 2212.1949,284.5026 2230.5949,299.0226" fill="none" id="ListUserRolesUseCase-to-UserRoleRepository" style="stroke:#181818;stroke-width:1;"/><polygon fill="#181818" points="2234.52,302.12,2229.9328,293.4046,2230.5949,299.0226,2224.977,299.6848,2234.52,302.12" style="stroke:#181818;stroke-width:1;stroke-linejoin:miter;stroke-miterlimit:10;"/></g><!--link ListUserRolesUseCase to UserRoleMapper--><g class="link" data-entity-1="ent0013" data-entity-2="ent0015" data-link-type="dependency" data-source-line="78" id="lnk55"><path d="M768.75,232.04 C789.55,251.57 819.2443,279.4482 839.9243,298.8582" fill="none" id="ListUserRolesUseCase-to-UserRoleMapper" style="stroke:#181818;stroke-width:1;"/><polygon fill="#181818" points="843.57,302.28,839.7452,293.2042,839.9243,298.8582,834.2703,299.0373,843.57,302.28" style="stroke:#181818;stroke-width:1;stroke-linejoin:miter;stroke-miterlimit:10;"/></g><?plantuml-src fLJBJiCm4BpdAwpUU-43aAeW1AX8g2qdrCCgsQPM4szakwqYnByJ9oKXyJejuZexE_iQsnoaAa538H8gIbAexDfMEGgDYGMLvHX59IG7o53CP5g7fQrcuZCIeeEXb2qYnCVYQFSnAQifpr5lM_3TeFR05UMuC4PcggXLX-6lQAXVvZ81AqbrTPQKILNhnc1m6xLOh14ikc9Te2rVfYp-W91OUHh7BeCqhRacD-Idhh2W4xheewR2Zo-biGvr33DITlXhFTDWFOxu0pQeL1Rr3X8Kpt5z6L3L2aioqfAkl0sbL83ib-C4VwzUOtCuo4S5_LLBjTDWh3uczgXn8DYNPwNPi2lY1HOw8tNt1iQSIQTFOFPTjozdkw43gZNgaqmk_TKTZcqbvlDxpmDZcxKanXGyaN49JmpP9kpeDY_eg6k94sQxbXhmuN1rb_b7Dmvn-9C75KSEu7Yy8JYcvu-8kMzWd2bYOAPGIg3XgGetDn0cCl_0f6RtdJ3M3kneYjZByG-0buo2jf_mo0qfVwGtdzsDn7xGyCERCZZtvFx7ltJq3G00?></g></svg>