<svg xmlns="http://www.w3.org/2000/svg" xmlns:xlink="http://www.w3.org/1999/xlink" contentStyleType="text/css" data-diagram-type="CLASS" height="243px" preserveAspectRatio="none" style="width:368px;height:243px;background:#FFFFFF;" version="1.1" viewBox="0 0 368 243" width="368px" zoomAndPan="magnify"><?plantuml 1.2026.5?><defs/><g><!--class CollaboratorStatus--><g class="entity" data-qualified-name="CollaboratorStatus" data-source-line="1" id="ent0001"><rect fill="#F1F1F1" height="80.5938" rx="2.5" ry="2.5" style="stroke:#181818;stroke-width:0.5;" width="162.9082" x="7" y="7"/><ellipse cx="22" cy="23" fill="#EB937F" rx="11" ry="11" style="stroke:#181818;stroke-width:1;"/><path d="M26.1094,29 L18.3906,29 L18.3906,16.6094 L26.1094,16.6094 L26.1094,18.7656 L20.8438,18.7656 L20.8438,21.4375 L25.6094,21.4375 L25.6094,23.5938 L20.8438,23.5938 L20.8438,26.8438 L26.1094,26.8438 L26.1094,29 Z " fill="#000000"/><text fill="#000000" font-family="sans-serif" font-size="14" lengthAdjust="spacing" textLength="130.9082" x="36" y="27.8467">CollaboratorStatus</text><line style="stroke:#181818;stroke-width:0.5;" x1="8" x2="168.9082" y1="39" y2="39"/><text fill="#000000" font-family="sans-serif" font-size="14" lengthAdjust="spacing" textLength="50.4561" x="13" y="55.9951">ACTIVE</text><text fill="#000000" font-family="sans-serif" font-size="14" lengthAdjust="spacing" textLength="65.0576" x="13" y="72.292">INACTIVE</text><line style="stroke:#181818;stroke-width:0.5;" x1="8" x2="168.9082" y1="79.5938" y2="79.5938"/></g><!--class AssignmentType--><g class="entity" data-qualified-name="AssignmentType" data-source-line="6" id="ent0002"><rect fill="#F1F1F1" height="80.5938" rx="2.5" ry="2.5" style="stroke:#181818;stroke-width:0.5;" width="148.7646" x="205.07" y="7"/><ellipse cx="220.07" cy="23" fill="#EB937F" rx="11" ry="11" style="stroke:#181818;stroke-width:1;"/><path d="M224.1794,29 L216.4606,29 L216.4606,16.6094 L224.1794,16.6094 L224.1794,18.7656 L218.9138,18.7656 L218.9138,21.4375 L223.6794,21.4375 L223.6794,23.5938 L218.9138,23.5938 L218.9138,26.8438 L224.1794,26.8438 L224.1794,29 Z " fill="#000000"/><text fill="#000000" font-family="sans-serif" font-size="14" lengthAdjust="spacing" textLength="116.7646" x="234.07" y="27.8467">AssignmentType</text><line style="stroke:#181818;stroke-width:0.5;" x1="206.07" x2="352.8346" y1="39" y2="39"/><text fill="#000000" font-family="sans-serif" font-size="14" lengthAdjust="spacing" textLength="59.6846" x="211.07" y="55.9951">BRANCH</text><text fill="#000000" font-family="sans-serif" font-size="14" lengthAdjust="spacing" textLength="66.6504" x="211.07" y="72.292">POSITION</text><line style="stroke:#181818;stroke-width:0.5;" x1="206.07" x2="352.8346" y1="79.5938" y2="79.5938"/></g><!--class AssignmentStatus--><g class="entity" data-qualified-name="AssignmentStatus" data-source-line="11" id="ent0003"><rect fill="#F1F1F1" height="80.5938" rx="2.5" ry="2.5" style="stroke:#181818;stroke-width:0.5;" width="159.0391" x="8.93" y="147.6"/><ellipse cx="23.93" cy="163.6" fill="#EB937F" rx="11" ry="11" style="stroke:#181818;stroke-width:1;"/><path d="M28.0394,169.6 L20.3206,169.6 L20.3206,157.2094 L28.0394,157.2094 L28.0394,159.3656 L22.7738,159.3656 L22.7738,162.0375 L27.5394,162.0375 L27.5394,164.1938 L22.7738,164.1938 L22.7738,167.4438 L28.0394,167.4438 L28.0394,169.6 Z " fill="#000000"/><text fill="#000000" font-family="sans-serif" font-size="14" lengthAdjust="spacing" textLength="127.0391" x="37.93" y="168.4467">AssignmentStatus</text><line style="stroke:#181818;stroke-width:0.5;" x1="9.93" x2="166.9691" y1="179.6" y2="179.6"/><text fill="#000000" font-family="sans-serif" font-size="14" lengthAdjust="spacing" textLength="50.4561" x="14.93" y="196.5951">ACTIVE</text><text fill="#000000" font-family="sans-serif" font-size="14" lengthAdjust="spacing" textLength="65.0576" x="14.93" y="212.892">INACTIVE</text><line style="stroke:#181818;stroke-width:0.5;" x1="9.93" x2="166.9691" y1="220.1938" y2="220.1938"/></g><?plantuml-src IyqhpLLmpi_9IKpABqeioIyABaaiAIrMgEPIK71q3l4CSmKoFFsWp5ekhbIG1iVYuipqlDpKl9AGoe9Ki6Ad84S_PmyW8y0_s3F4qzyFYsByPWC0?></g></svg>