<svg xmlns="http://www.w3.org/2000/svg" xmlns:xlink="http://www.w3.org/1999/xlink" contentStyleType="text/css" data-diagram-type="DESCRIPTION" height="494px" preserveAspectRatio="none" style="width:4074px;height:494px;background:#FFFFFF;" version="1.1" viewBox="0 0 4074 494" width="4074px" zoomAndPan="magnify"><?plantuml 1.2026.4beta2?><defs/><g><!--cluster staff--><g class="cluster" data-qualified-name="staff" data-source-line="3" id="ent0002"><path d="M8.5,6 L46.1543,6 A3.75,3.75 0 0 1 48.6543,8.5 L55.6543,28.2969 L4056.5,28.2969 A2.5,2.5 0 0 1 4059,30.7969 L4059,476.69 A2.5,2.5 0 0 1 4056.5,479.19 L8.5,479.19 A2.5,2.5 0 0 1 6,476.69 L6,8.5 A2.5,2.5 0 0 1 8.5,6" fill="none" style="stroke:#000000;stroke-width:1.5;"/><line style="stroke:#000000;stroke-width:1.5;" x1="6" x2="55.6543" y1="28.2969" y2="28.2969"/><text fill="#000000" font-family="sans-serif" font-size="14" font-weight="700" lengthAdjust="spacing" textLength="36.6543" x="10" y="20.9951">staff</text></g><!--cluster api--><g class="cluster" data-qualified-name="staff.api" data-source-line="4" id="ent0003"><path d="M1886.5,49 L1911.7676,49 A3.75,3.75 0 0 1 1914.2676,51.5 L1921.2676,71.2969 L2518.5,71.2969 A2.5,2.5 0 0 1 2521,73.7969 L2521,133.8 A2.5,2.5 0 0 1 2518.5,136.3 L1886.5,136.3 A2.5,2.5 0 0 1 1884,133.8 L1884,51.5 A2.5,2.5 0 0 1 1886.5,49" fill="none" style="stroke:#000000;stroke-width:1.5;"/><line style="stroke:#000000;stroke-width:1.5;" x1="1884" x2="1921.2676" y1="71.2969" y2="71.2969"/><text fill="#000000" font-family="sans-serif" font-size="14" font-weight="700" lengthAdjust="spacing" textLength="24.2676" x="1888" y="63.9951">api</text></g><!--cluster application--><g class="cluster" data-qualified-name="staff.application" data-source-line="10" id="ent0007"><path d="M32.5,160.3 L121.4102,160.3 A3.75,3.75 0 0 1 123.9102,162.8 L130.9102,182.5969 L4032.5,182.5969 A2.5,2.5 0 0 1 4035,185.0969 L4035,245.1 A2.5,2.5 0 0 1 4032.5,247.6 L32.5,247.6 A2.5,2.5 0 0 1 30,245.1 L30,162.8 A2.5,2.5 0 0 1 32.5,160.3" fill="none" style="stroke:#000000;stroke-width:1.5;"/><line style="stroke:#000000;stroke-width:1.5;" x1="30" x2="130.9102" y1="182.5969" y2="182.5969"/><text fill="#000000" font-family="sans-serif" font-size="14" font-weight="700" lengthAdjust="spacing" textLength="87.9102" x="34" y="175.2951">application</text></g><!--cluster domain--><g class="cluster" data-qualified-name="staff.domain" data-source-line="31" id="ent0023"><path d="M1198.5,271.6 L1257.9404,271.6 A3.75,3.75 0 0 1 1260.4404,274.1 L1267.4404,293.8969 L1703.5,293.8969 A2.5,2.5 0 0 1 1706,296.3969 L1706,452.69 A2.5,2.5 0 0 1 1703.5,455.19 L1198.5,455.19 A2.5,2.5 0 0 1 1196,452.69 L1196,274.1 A2.5,2.5 0 0 1 1198.5,271.6" fill="none" style="stroke:#000000;stroke-width:1.5;"/><line style="stroke:#000000;stroke-width:1.5;" x1="1196" x2="1267.4404" y1="293.8969" y2="293.8969"/><text fill="#000000" font-family="sans-serif" font-size="14" font-weight="700" lengthAdjust="spacing" textLength="58.4404" x="1200" y="286.5951">domain</text></g><!--cluster infrastructure--><g class="cluster" data-qualified-name="staff.infrastructure" data-source-line="39" id="ent0029"><path d="M1732.5,271.6 L1843.9619,271.6 A3.75,3.75 0 0 1 1846.4619,274.1 L1853.4619,293.8969 L2898.5,293.8969 A2.5,2.5 0 0 1 2901,296.3969 L2901,356.39 A2.5,2.5 0 0 1 2898.5,358.89 L1732.5,358.89 A2.5,2.5 0 0 1 1730,356.39 L1730,274.1 A2.5,2.5 0 0 1 1732.5,271.6" fill="none" style="stroke:#000000;stroke-width:1.5;"/><line style="stroke:#000000;stroke-width:1.5;" x1="1730" x2="1853.4619" y1="293.8969" y2="293.8969"/><text fill="#000000" font-family="sans-serif" font-size="14" font-weight="700" lengthAdjust="spacing" textLength="110.4619" x="1734" y="286.5951">infrastructure</text></g><!--entity ColaboradorController--><g class="entity" data-qualified-name="staff.api.ColaboradorController" data-source-line="5" id="ent0004"><rect fill="#F1F1F1" height="36.2969" rx="2.5" ry="2.5" style="stroke:#181818;stroke-width:0.5;" width="174.9775" x="1899.51" y="84"/><text fill="#000000" font-family="sans-serif" font-size="14" lengthAdjust="spacing" textLength="154.9775" x="1909.51" y="106.9951">ColaboradorController</text></g><!--entity PuestoController--><g class="entity" data-qualified-name="staff.api.PuestoController" data-source-line="6" id="ent0005"><rect fill="#F1F1F1" height="36.2969" rx="2.5" ry="2.5" style="stroke:#181818;stroke-width:0.5;" width="136.4502" x="2109.77" y="84"/><text fill="#000000" font-family="sans-serif" font-size="14" lengthAdjust="spacing" textLength="116.4502" x="2119.77" y="106.9951">PuestoController</text></g><!--entity HabilitacionLaboralController--><g class="entity" data-qualified-name="staff.api.HabilitacionLaboralController" data-source-line="7" id="ent0006"><rect fill="#F1F1F1" height="36.2969" rx="2.5" ry="2.5" style="stroke:#181818;stroke-width:0.5;" width="223.9844" x="2281.01" y="84"/><text fill="#000000" font-family="sans-serif" font-size="14" lengthAdjust="spacing" textLength="203.9844" x="2291.01" y="106.9951">HabilitacionLaboralController</text></g><!--entity CrearColaboradorUseCase--><g class="entity" data-qualified-name="staff.application.CrearColaboradorUseCase" data-source-line="11" id="ent0008"><rect fill="#F1F1F1" height="36.2969" rx="2.5" ry="2.5" style="stroke:#181818;stroke-width:0.5;" width="204.7002" x="1884.65" y="195.3"/><text fill="#000000" font-family="sans-serif" font-size="14" lengthAdjust="spacing" textLength="184.7002" x="1894.65" y="218.2951">CrearColaboradorUseCase</text></g><!--entity ActualizarColaboradorUseCase--><g class="entity" data-qualified-name="staff.application.ActualizarColaboradorUseCase" data-source-line="12" id="ent0009"><rect fill="#F1F1F1" height="36.2969" rx="2.5" ry="2.5" style="stroke:#181818;stroke-width:0.5;" width="235.8994" x="46.05" y="195.3"/><text fill="#000000" font-family="sans-serif" font-size="14" lengthAdjust="spacing" textLength="215.8994" x="56.05" y="218.2951">ActualizarColaboradorUseCase</text></g><!--entity DesactivarColaboradorUseCase--><g class="entity" data-qualified-name="staff.application.DesactivarColaboradorUseCase" data-source-line="13" id="ent0010"><rect fill="#F1F1F1" height="36.2969" rx="2.5" ry="2.5" style="stroke:#181818;stroke-width:0.5;" width="241.1836" x="317.41" y="195.3"/><text fill="#000000" font-family="sans-serif" font-size="14" lengthAdjust="spacing" textLength="221.1836" x="327.41" y="218.2951">DesactivarColaboradorUseCase</text></g><!--entity ObtenerColaboradorUseCase--><g class="entity" data-qualified-name="staff.application.ObtenerColaboradorUseCase" data-source-line="14" id="ent0011"><rect fill="#F1F1F1" height="36.2969" rx="2.5" ry="2.5" style="stroke:#181818;stroke-width:0.5;" width="223.4717" x="593.26" y="195.3"/><text fill="#000000" font-family="sans-serif" font-size="14" lengthAdjust="spacing" textLength="203.4717" x="603.26" y="218.2951">ObtenerColaboradorUseCase</text></g><!--entity ListarColaboradoresUseCase--><g class="entity" data-qualified-name="staff.application.ListarColaboradoresUseCase" data-source-line="15" id="ent0012"><rect fill="#F1F1F1" height="36.2969" rx="2.5" ry="2.5" style="stroke:#181818;stroke-width:0.5;" width="220.9355" x="851.53" y="195.3"/><text fill="#000000" font-family="sans-serif" font-size="14" lengthAdjust="spacing" textLength="200.9355" x="861.53" y="218.2951">ListarColaboradoresUseCase</text></g><!--entity CrearPuestoUseCase--><g class="entity" data-qualified-name="staff.application.CrearPuestoUseCase" data-source-line="17" id="ent0013"><rect fill="#F1F1F1" height="36.2969" rx="2.5" ry="2.5" style="stroke:#181818;stroke-width:0.5;" width="166.1729" x="1107.91" y="195.3"/><text fill="#000000" font-family="sans-serif" font-size="14" lengthAdjust="spacing" textLength="146.1729" x="1117.91" y="218.2951">CrearPuestoUseCase</text></g><!--entity ActualizarPuestoUseCase--><g class="entity" data-qualified-name="staff.application.ActualizarPuestoUseCase" data-source-line="18" id="ent0014"><rect fill="#F1F1F1" height="36.2969" rx="2.5" ry="2.5" style="stroke:#181818;stroke-width:0.5;" width="197.3721" x="2124.31" y="195.3"/><text fill="#000000" font-family="sans-serif" font-size="14" lengthAdjust="spacing" textLength="177.3721" x="2134.31" y="218.2951">ActualizarPuestoUseCase</text></g><!--entity DesactivarPuestoUseCase--><g class="entity" data-qualified-name="staff.application.DesactivarPuestoUseCase" data-source-line="19" id="ent0015"><rect fill="#F1F1F1" height="36.2969" rx="2.5" ry="2.5" style="stroke:#181818;stroke-width:0.5;" width="202.6563" x="2356.67" y="195.3"/><text fill="#000000" font-family="sans-serif" font-size="14" lengthAdjust="spacing" textLength="182.6563" x="2366.67" y="218.2951">DesactivarPuestoUseCase</text></g><!--entity ListarPuestosUseCase--><g class="entity" data-qualified-name="staff.application.ListarPuestosUseCase" data-source-line="20" id="ent0016"><rect fill="#F1F1F1" height="36.2969" rx="2.5" ry="2.5" style="stroke:#181818;stroke-width:0.5;" width="173.7949" x="2594.1" y="195.3"/><text fill="#000000" font-family="sans-serif" font-size="14" lengthAdjust="spacing" textLength="153.7949" x="2604.1" y="218.2951">ListarPuestosUseCase</text></g><!--entity AsignarSucursalAColaboradorUseCase--><g class="entity" data-qualified-name="staff.application.AsignarSucursalAColaboradorUseCase" data-source-line="22" id="ent0017"><rect fill="#F1F1F1" height="36.2969" rx="2.5" ry="2.5" style="stroke:#181818;stroke-width:0.5;" width="288.502" x="3104.75" y="195.3"/><text fill="#000000" font-family="sans-serif" font-size="14" lengthAdjust="spacing" textLength="268.502" x="3114.75" y="218.2951">AsignarSucursalAColaboradorUseCase</text></g><!--entity QuitarSucursalAColaboradorUseCase--><g class="entity" data-qualified-name="staff.application.QuitarSucursalAColaboradorUseCase" data-source-line="23" id="ent0018"><rect fill="#F1F1F1" height="36.2969" rx="2.5" ry="2.5" style="stroke:#181818;stroke-width:0.5;" width="279.2529" x="3739.37" y="195.3"/><text fill="#000000" font-family="sans-serif" font-size="14" lengthAdjust="spacing" textLength="259.2529" x="3749.37" y="218.2951">QuitarSucursalAColaboradorUseCase</text></g><!--entity AsignarPuestoAColaboradorUseCase--><g class="entity" data-qualified-name="staff.application.AsignarPuestoAColaboradorUseCase" data-source-line="24" id="ent0019"><rect fill="#F1F1F1" height="36.2969" rx="2.5" ry="2.5" style="stroke:#181818;stroke-width:0.5;" width="275.9307" x="3428.03" y="195.3"/><text fill="#000000" font-family="sans-serif" font-size="14" lengthAdjust="spacing" textLength="255.9307" x="3438.03" y="218.2951">AsignarPuestoAColaboradorUseCase</text></g><!--entity QuitarPuestoAColaboradorUseCase--><g class="entity" data-qualified-name="staff.application.QuitarPuestoAColaboradorUseCase" data-source-line="25" id="ent0020"><rect fill="#F1F1F1" height="36.2969" rx="2.5" ry="2.5" style="stroke:#181818;stroke-width:0.5;" width="266.6816" x="2802.66" y="195.3"/><text fill="#000000" font-family="sans-serif" font-size="14" lengthAdjust="spacing" textLength="246.6816" x="2812.66" y="218.2951">QuitarPuestoAColaboradorUseCase</text></g><!--entity CambiarSucursalPrincipalUseCase--><g class="entity" data-qualified-name="staff.application.CambiarSucursalPrincipalUseCase" data-source-line="27" id="ent0021"><rect fill="#F1F1F1" height="36.2969" rx="2.5" ry="2.5" style="stroke:#181818;stroke-width:0.5;" width="259.2715" x="1590.36" y="195.3"/><text fill="#000000" font-family="sans-serif" font-size="14" lengthAdjust="spacing" textLength="239.2715" x="1600.36" y="218.2951">CambiarSucursalPrincipalUseCase</text></g><!--entity CambiarPuestoPrincipalUseCase--><g class="entity" data-qualified-name="staff.application.CambiarPuestoPrincipalUseCase" data-source-line="28" id="ent0022"><rect fill="#F1F1F1" height="36.2969" rx="2.5" ry="2.5" style="stroke:#181818;stroke-width:0.5;" width="246.7002" x="1308.65" y="195.3"/><text fill="#000000" font-family="sans-serif" font-size="14" lengthAdjust="spacing" textLength="226.7002" x="1318.65" y="218.2951">CambiarPuestoPrincipalUseCase</text></g><!--entity Colaborador--><g class="entity" data-qualified-name="staff.domain.Colaborador" data-source-line="32" id="ent0024"><rect fill="#F1F1F1" height="36.2969" rx="2.5" ry="2.5" style="stroke:#181818;stroke-width:0.5;" width="105.8047" x="1584.1" y="306.6"/><text fill="#000000" font-family="sans-serif" font-size="14" lengthAdjust="spacing" textLength="85.8047" x="1594.1" y="329.5951">Colaborador</text></g><!--entity Puesto--><g class="entity" data-qualified-name="staff.domain.Puesto" data-source-line="33" id="ent0025"><rect fill="#F1F1F1" height="36.2969" rx="2.5" ry="2.5" style="stroke:#181818;stroke-width:0.5;" width="67.2773" x="1212.36" y="306.6"/><text fill="#000000" font-family="sans-serif" font-size="14" lengthAdjust="spacing" textLength="47.2773" x="1222.36" y="329.5951">Puesto</text></g><!--entity ColaboradorSucursal--><g class="entity" data-qualified-name="staff.domain.ColaboradorSucursal" data-source-line="34" id="ent0026"><rect fill="#F1F1F1" height="36.2969" rx="2.5" ry="2.5" style="stroke:#181818;stroke-width:0.5;" width="165.6533" x="1336.17" y="402.89"/><text fill="#000000" font-family="sans-serif" font-size="14" lengthAdjust="spacing" textLength="145.6533" x="1346.17" y="425.8851">ColaboradorSucursal</text></g><!--entity ColaboradorPuesto--><g class="entity" data-qualified-name="staff.domain.ColaboradorPuesto" data-source-line="35" id="ent0027"><rect fill="#F1F1F1" height="36.2969" rx="2.5" ry="2.5" style="stroke:#181818;stroke-width:0.5;" width="153.082" x="1536.46" y="402.89"/><text fill="#000000" font-family="sans-serif" font-size="14" lengthAdjust="spacing" textLength="133.082" x="1546.46" y="425.8851">ColaboradorPuesto</text></g><!--entity ServicioValidacionColaborador--><g class="entity" data-qualified-name="staff.domain.ServicioValidacionColaborador" data-source-line="36" id="ent0028"><rect fill="#F1F1F1" height="36.2969" rx="2.5" ry="2.5" style="stroke:#181818;stroke-width:0.5;" width="233.8145" x="1315.09" y="306.6"/><text fill="#000000" font-family="sans-serif" font-size="14" lengthAdjust="spacing" textLength="213.8145" x="1325.09" y="329.5951">ServicioValidacionColaborador</text></g><!--entity ColaboradorRepositoryPostgres--><g class="entity" data-qualified-name="staff.infrastructure.ColaboradorRepositoryPostgres" data-source-line="40" id="ent0030"><rect fill="#F1F1F1" height="36.2969" rx="2.5" ry="2.5" style="stroke:#181818;stroke-width:0.5;" width="241.2178" x="1746.39" y="306.6"/><text fill="#000000" font-family="sans-serif" font-size="14" lengthAdjust="spacing" textLength="221.2178" x="1756.39" y="329.5951">ColaboradorRepositoryPostgres</text></g><!--entity PuestoRepositoryPostgres--><g class="entity" data-qualified-name="staff.infrastructure.PuestoRepositoryPostgres" data-source-line="41" id="ent0031"><rect fill="#F1F1F1" height="36.2969" rx="2.5" ry="2.5" style="stroke:#181818;stroke-width:0.5;" width="202.6904" x="2022.65" y="306.6"/><text fill="#000000" font-family="sans-serif" font-size="14" lengthAdjust="spacing" textLength="182.6904" x="2032.65" y="329.5951">PuestoRepositoryPostgres</text></g><!--entity ColaboradorSucursalRepositoryPostgres--><g class="entity" data-qualified-name="staff.infrastructure.ColaboradorSucursalRepositoryPostgres" data-source-line="42" id="ent0032"><rect fill="#F1F1F1" height="36.2969" rx="2.5" ry="2.5" style="stroke:#181818;stroke-width:0.5;" width="301.0664" x="2260.47" y="306.6"/><text fill="#000000" font-family="sans-serif" font-size="14" lengthAdjust="spacing" textLength="281.0664" x="2270.47" y="329.5951">ColaboradorSucursalRepositoryPostgres</text></g><!--entity ColaboradorPuestoRepositoryPostgres--><g class="entity" data-qualified-name="staff.infrastructure.ColaboradorPuestoRepositoryPostgres" data-source-line="43" id="ent0033"><rect fill="#F1F1F1" height="36.2969" rx="2.5" ry="2.5" style="stroke:#181818;stroke-width:0.5;" width="288.4951" x="2596.75" y="306.6"/><text fill="#000000" font-family="sans-serif" font-size="14" lengthAdjust="spacing" textLength="268.4951" x="2606.75" y="329.5951">ColaboradorPuestoRepositoryPostgres</text></g><!--link ColaboradorController to CrearColaboradorUseCase--><g class="link" data-entity-1="ent0004" data-entity-2="ent0008" data-link-type="dependency" data-source-line="47" id="lnk34"><path d="M1987,120.71 C1987,141.11 1987,168.55 1987,188.93" fill="none" id="ColaboradorController-to-CrearColaboradorUseCase" style="stroke:#181818;stroke-width:1;"/><polygon fill="#181818" points="1987,194.93,1991,185.93,1987,189.93,1983,185.93,1987,194.93" style="stroke:#181818;stroke-width:1;"/></g><!--link ColaboradorController to ActualizarColaboradorUseCase--><g class="link" data-entity-1="ent0004" data-entity-2="ent0009" data-link-type="dependency" data-source-line="48" id="lnk35"><path d="M1899.06,103.73 C1574.69,106.14 456.1,116.94 300,152.3 C261.85,160.94 226.5113,177.5726 199.6913,192.0326" fill="none" id="ColaboradorController-to-ActualizarColaboradorUseCase" style="stroke:#181818;stroke-width:1;"/><polygon fill="#181818" points="194.41,194.88,204.2302,194.1297,198.8111,192.5072,200.4337,187.088,194.41,194.88" style="stroke:#181818;stroke-width:1;"/></g><!--link ColaboradorController to DesactivarColaboradorUseCase--><g class="link" data-entity-1="ent0004" data-entity-2="ent0010" data-link-type="dependency" data-source-line="49" id="lnk36"><path d="M1899.15,104.3 C1610.8,108.33 704.38,123.2 576,152.3 C537.39,161.05 501.4416,177.7005 474.2116,192.1305" fill="none" id="ColaboradorController-to-DesactivarColaboradorUseCase" style="stroke:#181818;stroke-width:1;"/><polygon fill="#181818" points="468.91,194.94,478.7354,194.2602,473.328,192.5988,474.9894,187.1914,468.91,194.94" style="stroke:#181818;stroke-width:1;"/></g><!--link ColaboradorController to ObtenerColaboradorUseCase--><g class="link" data-entity-1="ent0004" data-entity-2="ent0011" data-link-type="dependency" data-source-line="50" id="lnk37"><path d="M1899.43,102.46 C1666.5,101.33 1035.69,103.06 834,152.3 C797.75,161.15 764.6007,177.5329 739.2307,191.9029" fill="none" id="ColaboradorController-to-ObtenerColaboradorUseCase" style="stroke:#181818;stroke-width:1;"/><polygon fill="#181818" points="734.01,194.86,743.8124,193.9048,738.3606,192.3958,739.8696,186.9439,734.01,194.86" style="stroke:#181818;stroke-width:1;"/></g><!--link ColaboradorController to ListarColaboradoresUseCase--><g class="link" data-entity-1="ent0004" data-entity-2="ent0012" data-link-type="dependency" data-source-line="51" id="lnk38"><path d="M1899.09,103.7 C1704.23,105.61 1241.32,114.14 1090,152.3 C1054.17,161.33 1021.4479,177.5679 996.2579,191.8679" fill="none" id="ColaboradorController-to-ListarColaboradoresUseCase" style="stroke:#181818;stroke-width:1;"/><polygon fill="#181818" points="991.04,194.83,1000.8415,193.8654,995.3882,192.3616,996.892,186.9083,991.04,194.83" style="stroke:#181818;stroke-width:1;"/></g><!--link PuestoController to CrearPuestoUseCase--><g class="link" data-entity-1="ent0005" data-entity-2="ent0013" data-link-type="dependency" data-source-line="53" id="lnk39"><path d="M2149.32,120.77 C2133.13,129.7 2112.15,139.62 2092,144.3 C2048.65,154.36 1333.82,140.18 1291,152.3 C1261.37,160.68 1236.4544,176.6993 1217.2144,191.2593" fill="none" id="PuestoController-to-CrearPuestoUseCase" style="stroke:#181818;stroke-width:1;"/><polygon fill="#181818" points="1212.43,194.88,1222.0204,192.6386,1216.417,191.8628,1217.1929,186.2594,1212.43,194.88" style="stroke:#181818;stroke-width:1;"/></g><!--link PuestoController to ActualizarPuestoUseCase--><g class="link" data-entity-1="ent0005" data-entity-2="ent0014" data-link-type="dependency" data-source-line="54" id="lnk40"><path d="M2185.23,120.71 C2193.63,141.11 2205.1159,169.0018 2213.5059,189.3818" fill="none" id="PuestoController-to-ActualizarPuestoUseCase" style="stroke:#181818;stroke-width:1;"/><polygon fill="#181818" points="2215.79,194.93,2216.0627,185.0849,2213.8866,190.3065,2208.665,188.1304,2215.79,194.93" style="stroke:#181818;stroke-width:1;"/></g><!--link PuestoController to DesactivarPuestoUseCase--><g class="link" data-entity-1="ent0005" data-entity-2="ent0015" data-link-type="dependency" data-source-line="55" id="lnk41"><path d="M2208.05,120.64 C2224.13,129.19 2244.57,138.79 2264,144.3 C2296.25,153.44 2306.85,142.81 2339,152.3 C2372.08,162.07 2401.8214,177.7592 2425.2014,191.7492" fill="none" id="PuestoController-to-DesactivarPuestoUseCase" style="stroke:#181818;stroke-width:1;"/><polygon fill="#181818" points="2430.35,194.83,2424.6809,186.7763,2426.0595,192.2627,2420.5732,193.6412,2430.35,194.83" style="stroke:#181818;stroke-width:1;"/></g><!--link PuestoController to ListarPuestosUseCase--><g class="link" data-entity-1="ent0005" data-entity-2="ent0016" data-link-type="dependency" data-source-line="56" id="lnk42"><path d="M2206.71,120.65 C2222.91,129.54 2243.88,139.46 2264,144.3 C2331.65,160.56 2510.04,133.41 2577,152.3 C2607.51,160.91 2633.5929,176.9913 2653.6929,191.4813" fill="none" id="PuestoController-to-ListarPuestosUseCase" style="stroke:#181818;stroke-width:1;"/><polygon fill="#181818" points="2658.56,194.99,2653.5984,186.4822,2654.5041,192.0661,2648.9202,192.9717,2658.56,194.99" style="stroke:#181818;stroke-width:1;"/></g><!--link HabilitacionLaboralController to AsignarSucursalAColaboradorUseCase--><g class="link" data-entity-1="ent0006" data-entity-2="ent0017" data-link-type="dependency" data-source-line="58" id="lnk43"><path d="M2505.48,107.23 C2672.86,113.96 2979.35,129 3087,152.3 C3130.84,161.79 3173.2222,178.2971 3205.4822,192.3971" fill="none" id="HabilitacionLaboralController-to-AsignarSucursalAColaboradorUseCase" style="stroke:#181818;stroke-width:1;"/><polygon fill="#181818" points="3210.98,194.8,3204.3353,187.5304,3206.3985,192.7975,3201.1313,194.8608,3210.98,194.8" style="stroke:#181818;stroke-width:1;"/></g><!--link HabilitacionLaboralController to QuitarSucursalAColaboradorUseCase--><g class="link" data-entity-1="ent0006" data-entity-2="ent0018" data-link-type="dependency" data-source-line="59" id="lnk44"><path d="M2505.3,102.62 C2781.85,102.05 3490.03,105.39 3721,152.3 C3764.43,161.12 3806.1454,177.9604 3837.5254,192.3404" fill="none" id="HabilitacionLaboralController-to-QuitarSucursalAColaboradorUseCase" style="stroke:#181818;stroke-width:1;"/><polygon fill="#181818" points="3842.98,194.84,3836.4645,187.4543,3838.4345,192.757,3833.1318,194.727,3842.98,194.84" style="stroke:#181818;stroke-width:1;"/></g><!--link HabilitacionLaboralController to AsignarPuestoAColaboradorUseCase--><g class="link" data-entity-1="ent0006" data-entity-2="ent0019" data-link-type="dependency" data-source-line="60" id="lnk45"><path d="M2505.29,104.04 C2732.82,106.57 3241.05,116.22 3411,152.3 C3453.49,161.32 3494.1586,177.992 3524.9386,192.292" fill="none" id="HabilitacionLaboralController-to-AsignarPuestoAColaboradorUseCase" style="stroke:#181818;stroke-width:1;"/><polygon fill="#181818" points="3530.38,194.82,3523.9032,187.4004,3525.8455,192.7133,3520.5325,194.6556,3530.38,194.82" style="stroke:#181818;stroke-width:1;"/></g><!--link HabilitacionLaboralController to QuitarPuestoAColaboradorUseCase--><g class="link" data-entity-1="ent0006" data-entity-2="ent0020" data-link-type="dependency" data-source-line="61" id="lnk46"><path d="M2505.09,109.61 C2584.26,116 2692.34,128.45 2785,152.3 C2825.45,162.71 2864.1323,178.6972 2894.1923,192.4272" fill="none" id="HabilitacionLaboralController-to-QuitarPuestoAColaboradorUseCase" style="stroke:#181818;stroke-width:1;"/><polygon fill="#181818" points="2899.65,194.92,2893.1254,187.5424,2895.102,192.8427,2889.8017,194.8192,2899.65,194.92" style="stroke:#181818;stroke-width:1;"/></g><!--link HabilitacionLaboralController to CambiarSucursalPrincipalUseCase--><g class="link" data-entity-1="ent0006" data-entity-2="ent0021" data-link-type="dependency" data-source-line="62" id="lnk47"><path d="M2348.71,120.78 C2324.17,129.64 2292.87,139.51 2264,144.3 C2176.95,158.75 1953.41,134.4 1867,152.3 C1825.96,160.8 1787.1973,177.7282 1758.1173,192.2582" fill="none" id="HabilitacionLaboralController-to-CambiarSucursalPrincipalUseCase" style="stroke:#181818;stroke-width:1;"/><polygon fill="#181818" points="1752.75,194.94,1762.5888,194.4955,1757.2228,192.7052,1759.0131,187.3391,1752.75,194.94" style="stroke:#181818;stroke-width:1;"/></g><!--link HabilitacionLaboralController to CambiarPuestoPrincipalUseCase--><g class="link" data-entity-1="ent0006" data-entity-2="ent0022" data-link-type="dependency" data-source-line="63" id="lnk48"><path d="M2349.02,120.77 C2324.44,129.69 2293.01,139.61 2264,144.3 C2188.2,156.55 1648.14,136.49 1573,152.3 C1533.41,160.63 1496.444,177.4841 1468.614,192.0741" fill="none" id="HabilitacionLaboralController-to-CambiarPuestoPrincipalUseCase" style="stroke:#181818;stroke-width:1;"/><polygon fill="#181818" points="1463.3,194.86,1473.1283,194.2238,1467.7283,192.5384,1469.4138,187.1385,1463.3,194.86" style="stroke:#181818;stroke-width:1;"/></g><!--link CrearColaboradorUseCase to Colaborador--><g class="link" data-entity-1="ent0008" data-entity-2="ent0024" data-link-type="dependency" data-source-line="65" id="lnk49"><path d="M1945.01,231.99 C1922.32,240.66 1893.58,250.36 1867,255.6 C1807.16,267.37 1787.97,244.63 1730,263.6 C1702.4,272.63 1679.6891,288.1742 1661.8491,302.4942" fill="none" id="CrearColaboradorUseCase-to-Colaborador" style="stroke:#181818;stroke-width:1;"/><polygon fill="#181818" points="1657.17,306.25,1666.6925,303.7356,1661.0692,303.1201,1661.6847,297.4969,1657.17,306.25" style="stroke:#181818;stroke-width:1;"/></g><!--link CrearColaboradorUseCase to ColaboradorRepositoryPostgres--><g class="link" data-entity-1="ent0008" data-entity-2="ent0030" data-link-type="dependency" data-source-line="66" id="lnk50"><path d="M1967.72,232.01 C1945.33,252.4 1913.0462,281.8102 1890.6662,302.1902" fill="none" id="CrearColaboradorUseCase-to-ColaboradorRepositoryPostgres" style="stroke:#181818;stroke-width:1;"/><polygon fill="#181818" points="1886.23,306.23,1895.5775,303.1278,1889.9269,302.8635,1890.1912,297.2128,1886.23,306.23" style="stroke:#181818;stroke-width:1;"/></g><!--link CrearColaboradorUseCase to ColaboradorSucursalRepositoryPostgres--><g class="link" data-entity-1="ent0008" data-entity-2="ent0032" data-link-type="dependency" data-source-line="67" id="lnk51"><path d="M2029.27,232.09 C2051.91,240.73 2080.53,250.38 2107,255.6 C2166.41,267.3 2183.67,251.49 2243,263.6 C2288.53,272.89 2332.8557,289.5986 2366.3357,303.7886" fill="none" id="CrearColaboradorUseCase-to-ColaboradorSucursalRepositoryPostgres" style="stroke:#181818;stroke-width:1;"/><polygon fill="#181818" points="2371.86,306.13,2365.1345,298.935,2367.2564,304.1788,2362.0126,306.3008,2371.86,306.13" style="stroke:#181818;stroke-width:1;"/></g><!--link CrearColaboradorUseCase to ColaboradorPuestoRepositoryPostgres--><g class="link" data-entity-1="ent0008" data-entity-2="ent0033" data-link-type="dependency" data-source-line="68" id="lnk52"><path d="M2027.81,232.01 C2050.64,240.92 2079.88,250.84 2107,255.6 C2210.33,273.72 2475.91,244.17 2579,263.6 C2623.81,272.04 2667.0529,289.1881 2699.2329,303.7381" fill="none" id="CrearColaboradorUseCase-to-ColaboradorPuestoRepositoryPostgres" style="stroke:#181818;stroke-width:1;"/><polygon fill="#181818" points="2704.7,306.21,2698.1473,298.8573,2700.1441,304.1501,2694.8513,306.1469,2704.7,306.21" style="stroke:#181818;stroke-width:1;"/></g><!--link ActualizarColaboradorUseCase to ColaboradorRepositoryPostgres--><g class="link" data-entity-1="ent0009" data-entity-2="ent0030" data-link-type="dependency" data-source-line="70" id="lnk53"><path d="M210.13,232.02 C236.11,241 269.39,250.98 300,255.6 C377.24,267.25 1629.17,249.49 1706,263.6 C1750.76,271.81 1793.8651,289.0912 1825.8251,303.7312" fill="none" id="ActualizarColaboradorUseCase-to-ColaboradorRepositoryPostgres" style="stroke:#181818;stroke-width:1;"/><polygon fill="#181818" points="1831.28,306.23,1824.7634,298.8453,1826.7342,304.1477,1821.4318,306.1185,1831.28,306.23" style="stroke:#181818;stroke-width:1;"/></g><!--link DesactivarColaboradorUseCase to ColaboradorRepositoryPostgres--><g class="link" data-entity-1="ent0010" data-entity-2="ent0030" data-link-type="dependency" data-source-line="71" id="lnk54"><path d="M484.83,232.01 C511.2,240.98 544.97,250.96 576,255.6 C638.09,264.88 1644.26,252.21 1706,263.6 C1750.6,271.82 1793.5438,288.9841 1825.5038,303.6041" fill="none" id="DesactivarColaboradorUseCase-to-ColaboradorRepositoryPostgres" style="stroke:#181818;stroke-width:1;"/><polygon fill="#181818" points="1830.96,306.1,1824.4396,298.7186,1826.4132,304.0201,1821.1117,305.9936,1830.96,306.1" style="stroke:#181818;stroke-width:1;"/></g><!--link ObtenerColaboradorUseCase to ColaboradorRepositoryPostgres--><g class="link" data-entity-1="ent0011" data-entity-2="ent0030" data-link-type="dependency" data-source-line="72" id="lnk55"><path d="M748.97,232.09 C773.55,241.02 804.99,250.94 834,255.6 C929.67,270.94 1610.73,245.93 1706,263.6 C1750.59,271.87 1793.5325,289.0269 1825.4925,303.6269" fill="none" id="ObtenerColaboradorUseCase-to-ColaboradorRepositoryPostgres" style="stroke:#181818;stroke-width:1;"/><polygon fill="#181818" points="1830.95,306.12,1824.4258,298.742,1826.4021,304.0424,1821.1017,306.0187,1830.95,306.12" style="stroke:#181818;stroke-width:1;"/></g><!--link ListarColaboradoresUseCase to ColaboradorRepositoryPostgres--><g class="link" data-entity-1="ent0012" data-entity-2="ent0030" data-link-type="dependency" data-source-line="73" id="lnk56"><path d="M1005.63,232.05 C1030.01,240.97 1061.2,250.89 1090,255.6 C1157.55,266.64 1638.72,250.99 1706,263.6 C1750.58,271.95 1793.5209,289.1004 1825.4909,303.6804" fill="none" id="ListarColaboradoresUseCase-to-ColaboradorRepositoryPostgres" style="stroke:#181818;stroke-width:1;"/><polygon fill="#181818" points="1830.95,306.17,1824.4211,298.7962,1826.4008,304.0953,1821.1016,306.0749,1830.95,306.17" style="stroke:#181818;stroke-width:1;"/></g><!--link CrearPuestoUseCase to Puesto--><g class="link" data-entity-1="ent0013" data-entity-2="ent0025" data-link-type="dependency" data-source-line="75" id="lnk57"><path d="M1199.84,232.01 C1210.1,252.4 1224.232,280.4908 1234.492,300.8708" fill="none" id="CrearPuestoUseCase-to-Puesto" style="stroke:#181818;stroke-width:1;"/><polygon fill="#181818" points="1237.19,306.23,1236.7158,296.3926,1234.9417,301.764,1229.5702,299.9899,1237.19,306.23" style="stroke:#181818;stroke-width:1;"/></g><!--link CrearPuestoUseCase to PuestoRepositoryPostgres--><g class="link" data-entity-1="ent0013" data-entity-2="ent0031" data-link-type="dependency" data-source-line="76" id="lnk58"><path d="M1224.69,232.07 C1243.62,241 1268,250.92 1291,255.6 C1368.74,271.42 1927.93,244.77 2005,263.6 C2039.18,271.95 2069.6364,288.4029 2092.8764,302.9729" fill="none" id="CrearPuestoUseCase-to-PuestoRepositoryPostgres" style="stroke:#181818;stroke-width:1;"/><polygon fill="#181818" points="2097.96,306.16,2092.4594,297.9904,2093.7237,303.5041,2088.2099,304.7684,2097.96,306.16" style="stroke:#181818;stroke-width:1;"/></g><!--link ActualizarPuestoUseCase to PuestoRepositoryPostgres--><g class="link" data-entity-1="ent0014" data-entity-2="ent0031" data-link-type="dependency" data-source-line="77" id="lnk59"><path d="M2207.09,232.01 C2188.62,252.4 2162.3468,281.402 2143.8968,301.782" fill="none" id="ActualizarPuestoUseCase-to-PuestoRepositoryPostgres" style="stroke:#181818;stroke-width:1;"/><polygon fill="#181818" points="2139.87,306.23,2148.8755,302.2425,2143.2257,302.5233,2142.9448,296.8734,2139.87,306.23" style="stroke:#181818;stroke-width:1;"/></g><!--link DesactivarPuestoUseCase to PuestoRepositoryPostgres--><g class="link" data-entity-1="ent0015" data-entity-2="ent0031" data-link-type="dependency" data-source-line="78" id="lnk60"><path d="M2415.49,232.05 C2393.11,240.56 2364.99,250.11 2339,255.6 C2297.11,264.44 2284.2,251.95 2243,263.6 C2209.59,273.04 2179.6017,288.9611 2156.2617,303.1011" fill="none" id="DesactivarPuestoUseCase-to-PuestoRepositoryPostgres" style="stroke:#181818;stroke-width:1;"/><polygon fill="#181818" points="2151.13,306.21,2160.9002,304.9677,2155.4064,303.6192,2156.755,298.1255,2151.13,306.21" style="stroke:#181818;stroke-width:1;"/></g><!--link ListarPuestosUseCase to PuestoRepositoryPostgres--><g class="link" data-entity-1="ent0016" data-entity-2="ent0031" data-link-type="dependency" data-source-line="79" id="lnk61"><path d="M2645.86,231.95 C2626.14,240.84 2600.79,250.77 2577,255.6 C2504.24,270.37 2315.01,245.52 2243,263.6 C2208.87,272.16 2178.4107,288.5843 2155.1507,303.0943" fill="none" id="ListarPuestosUseCase-to-PuestoRepositoryPostgres" style="stroke:#181818;stroke-width:1;"/><polygon fill="#181818" points="2150.06,306.27,2159.8131,304.9003,2154.3022,303.6236,2155.5789,298.1127,2150.06,306.27" style="stroke:#181818;stroke-width:1;"/></g><!--link AsignarSucursalAColaboradorUseCase to ColaboradorSucursal--><g class="link" data-entity-1="ent0017" data-entity-2="ent0026" data-link-type="dependency" data-source-line="81" id="lnk62"><path d="M3219.63,232.04 C3161.34,265.85 3025.89,339.04 2901,366.89 C2601.15,433.78 1824.74,372.85 1519,402.89 C1513.48,403.44 1513.7475,403.3084 1508.0375,404.0684" fill="none" id="AsignarSucursalAColaboradorUseCase-to-ColaboradorSucursal" style="stroke:#181818;stroke-width:1;"/><polygon fill="#181818" points="1502.09,404.86,1511.5391,407.6376,1507.0463,404.2003,1510.4836,399.7075,1502.09,404.86" style="stroke:#181818;stroke-width:1;"/></g><!--link AsignarSucursalAColaboradorUseCase to ColaboradorSucursalRepositoryPostgres--><g class="link" data-entity-1="ent0017" data-entity-2="ent0032" data-link-type="dependency" data-source-line="82" id="lnk63"><path d="M3193.03,232.09 C3162.11,240.97 3122.81,250.83 3087,255.6 C2975.08,270.48 2690.08,243.41 2579,263.6 C2532.67,272.02 2487.6306,289.2436 2454.2106,303.8036" fill="none" id="AsignarSucursalAColaboradorUseCase-to-ColaboradorSucursalRepositoryPostgres" style="stroke:#181818;stroke-width:1;"/><polygon fill="#181818" points="2448.71,306.2,2458.5586,306.2724,2453.2939,304.203,2455.3633,298.9382,2448.71,306.2" style="stroke:#181818;stroke-width:1;"/></g><!--link AsignarPuestoAColaboradorUseCase to ColaboradorPuesto--><g class="link" data-entity-1="ent0019" data-entity-2="ent0027" data-link-type="dependency" data-source-line="84" id="lnk64"><path d="M3519.64,232.04 C3428.94,265.51 3220.96,337.64 3039,366.89 C2775.75,409.22 1953.0399,417.9001 1695.8799,419.6101" fill="none" id="AsignarPuestoAColaboradorUseCase-to-ColaboradorPuesto" style="stroke:#181818;stroke-width:1;"/><polygon fill="#181818" points="1689.88,419.65,1698.9064,423.5901,1694.8799,419.6168,1698.8532,415.5902,1689.88,419.65" style="stroke:#181818;stroke-width:1;"/></g><!--link AsignarPuestoAColaboradorUseCase to ColaboradorPuestoRepositoryPostgres--><g class="link" data-entity-1="ent0019" data-entity-2="ent0033" data-link-type="dependency" data-source-line="85" id="lnk65"><path d="M3508.34,232.08 C3479.38,240.34 3443.59,249.65 3411,255.6 C3407.78,256.18 3087.4695,288.6654 2891.4795,308.5154" fill="none" id="AsignarPuestoAColaboradorUseCase-to-ColaboradorPuestoRepositoryPostgres" style="stroke:#181818;stroke-width:1;"/><polygon fill="#181818" points="2885.51,309.12,2894.8673,312.1928,2890.4846,308.6162,2894.0611,304.2335,2885.51,309.12" style="stroke:#181818;stroke-width:1;"/></g><!--link CambiarSucursalPrincipalUseCase to ServicioValidacionColaborador--><g class="link" data-entity-1="ent0021" data-entity-2="ent0028" data-link-type="dependency" data-source-line="87" id="lnk66"><path d="M1660.27,231.99 C1631.78,240.77 1597.36,252 1567,263.6 C1533.08,276.56 1500.8515,291.0108 1473.9415,303.6408" fill="none" id="CambiarSucursalPrincipalUseCase-to-ServicioValidacionColaborador" style="stroke:#181818;stroke-width:1;"/><polygon fill="#181818" points="1468.51,306.19,1478.3568,305.9872,1473.0363,304.0656,1474.9578,298.7451,1468.51,306.19" style="stroke:#181818;stroke-width:1;"/></g><!--link CambiarSucursalPrincipalUseCase to ColaboradorRepositoryPostgres--><g class="link" data-entity-1="ent0021" data-entity-2="ent0030" data-link-type="dependency" data-source-line="88" id="lnk67"><path d="M1743.62,232.01 C1771.05,252.4 1811.2151,282.27 1838.6251,302.65" fill="none" id="CambiarSucursalPrincipalUseCase-to-ColaboradorRepositoryPostgres" style="stroke:#181818;stroke-width:1;"/><polygon fill="#181818" points="1843.44,306.23,1838.6043,297.65,1839.4276,303.2467,1833.8309,304.0699,1843.44,306.23" style="stroke:#181818;stroke-width:1;"/></g><!--link CambiarPuestoPrincipalUseCase to ServicioValidacionColaborador--><g class="link" data-entity-1="ent0022" data-entity-2="ent0028" data-link-type="dependency" data-source-line="90" id="lnk68"><path d="M1432,232.01 C1432,252.4 1432,279.85 1432,300.23" fill="none" id="CambiarPuestoPrincipalUseCase-to-ServicioValidacionColaborador" style="stroke:#181818;stroke-width:1;"/><polygon fill="#181818" points="1432,306.23,1436,297.23,1432,301.23,1428,297.23,1432,306.23" style="stroke:#181818;stroke-width:1;"/></g><!--link CambiarPuestoPrincipalUseCase to ColaboradorRepositoryPostgres--><g class="link" data-entity-1="ent0022" data-entity-2="ent0030" data-link-type="dependency" data-source-line="91" id="lnk69"><path d="M1482.26,232.09 C1508.89,240.68 1542.35,250.27 1573,255.6 C1631.34,265.73 1648.07,251.32 1706,263.6 C1749.79,272.87 1792.044,289.5003 1824.084,303.6903" fill="none" id="CambiarPuestoPrincipalUseCase-to-ColaboradorRepositoryPostgres" style="stroke:#181818;stroke-width:1;"/><polygon fill="#181818" points="1829.57,306.12,1822.9607,298.8181,1824.9983,304.0953,1819.7212,306.1328,1829.57,306.12" style="stroke:#181818;stroke-width:1;"/></g><!--link ServicioValidacionColaborador to ColaboradorSucursal--><g class="link" data-entity-1="ent0028" data-entity-2="ent0026" data-link-type="dependency" data-source-line="93" id="lnk70"><path d="M1429.62,343.04 C1427.28,359.95 1424.5691,379.6162 1422.2291,396.5962" fill="none" id="ServicioValidacionColaborador-to-ColaboradorSucursal" style="stroke:#181818;stroke-width:1;"/><polygon fill="#181818" points="1421.41,402.54,1426.6012,394.1703,1422.0926,397.5868,1418.6761,393.0782,1421.41,402.54" style="stroke:#181818;stroke-width:1;"/></g><!--link ServicioValidacionColaborador to ColaboradorPuesto--><g class="link" data-entity-1="ent0028" data-entity-2="ent0027" data-link-type="dependency" data-source-line="94" id="lnk71"><path d="M1465.62,343.26 C1498.03,360.14 1541.4791,382.7772 1573.9291,399.6872" fill="none" id="ServicioValidacionColaborador-to-ColaboradorPuesto" style="stroke:#181818;stroke-width:1;"/><polygon fill="#181818" points="1579.25,402.46,1573.1172,394.7536,1574.8159,400.1494,1569.4202,401.8481,1579.25,402.46" style="stroke:#181818;stroke-width:1;"/></g><?plantuml-src fLP1RXin3Bph5KBk-K81mptq4A1kZVHI-43Bj454bXQIDa1QvEzTH9jurnOfRNCLPuQp4ZbsV2BNGO2pDlxSUOSkRTEBHHtG970dYqfrO9xWXFek9ZWUx_HVfVN76NIKJxJ-lVOMzZx0mOUrTobuQp7iSctJOqp-vlWRxCbI0aFUFRoHxHppgkRTEai6qe2-T0q8OTBwCU8Q8euDLYRrOEcF0FcA4KoYPm7oVP_G8Lz_eE5kfcMC7u29otm9dC5IzUAjLCrjS-MwuIhIoK7OzgOF4UoAzVwZ7-w_0JSAvcurEG4rtWUSztHfkmda37LWvs8ZAgkLCFFnEFWpa2lDusmATpVbTnktbHbZY-6PXb7zDJpOuMrchrhCxP0x1eWfzCCJ1opP-ecTZvHyUDduc4x3sCoCikM2zHQifFgg1lFC2klx-o_2eeaiUG55ghoO8bLOM94dBl9jY4qkvce_EIoxxXo1JG2Em8H29Mf7TmsXqIJK42fB30bnii3EPrMgcRL4XSiqnUxPI9ycJZksjFJjR2basbNu-55oJBHzZHWNRH9yRBJnXVXe4b2bBCdCzn-Y6gBeYqkTAf5Bdognc48rbce987OuTv-ZYuRuw62cVFV_L6OmAk6JnIh_K1fLwbCgPjWYAw96rOZSH1gLXSpnLVy1?></g></svg>