<svg xmlns="http://www.w3.org/2000/svg" xmlns:xlink="http://www.w3.org/1999/xlink" contentStyleType="text/css" data-diagram-type="CLASS" height="390px" preserveAspectRatio="none" style="width:1069px;height:390px;background:#FFFFFF;" version="1.1" viewBox="0 0 1069 390" width="1069px" zoomAndPan="magnify"><?plantuml 1.2026.4beta2?><defs/><g><!--cluster identity DTOs--><g class="cluster" data-qualified-name="identity DTOs" data-source-line="3" id="ent0002"><path d="M8.5,6 L117.3711,6 A3.75,3.75 0 0 1 119.8711,8.5 L126.8711,28.2969 L1051.5,28.2969 A2.5,2.5 0 0 1 1054,30.7969 L1054,373.47 A2.5,2.5 0 0 1 1051.5,375.97 L8.5,375.97 A2.5,2.5 0 0 1 6,373.47 L6,8.5 A2.5,2.5 0 0 1 8.5,6" fill="none" style="stroke:#000000;stroke-width:1.5;"/><line style="stroke:#000000;stroke-width:1.5;" x1="6" x2="126.8711" y1="28.2969" y2="28.2969"/><text fill="#000000" font-family="sans-serif" font-size="14" font-weight="700" lengthAdjust="spacing" textLength="107.8711" x="10" y="20.9951">identity DTOs</text></g><!--class LoginRequest--><g class="entity" data-qualified-name="identity DTOs.LoginRequest" data-source-line="4" id="ent0003"><rect fill="#F1F1F1" height="80.5938" rx="2.5" ry="2.5" style="stroke:#181818;stroke-width:0.5;" width="136.6738" x="21.66" y="57.3"/><ellipse cx="40.7829" cy="73.3" fill="#ADD1B2" rx="11" ry="11" style="stroke:#181818;stroke-width:1;"/><path d="M43.7517,78.9406 Q43.1736,79.2375 42.5329,79.3781 Q41.8923,79.5344 41.1892,79.5344 Q38.6892,79.5344 37.3611,77.8938 Q36.0486,76.2375 36.0486,73.1125 Q36.0486,69.9875 37.3611,68.3313 Q38.6892,66.675 41.1892,66.675 Q41.8923,66.675 42.5329,66.8313 Q43.1892,66.9875 43.7517,67.2844 L43.7517,70.0031 Q43.1267,69.425 42.5329,69.1594 Q41.9392,68.8781 41.3142,68.8781 Q39.9704,68.8781 39.2829,69.9563 Q38.5954,71.0188 38.5954,73.1125 Q38.5954,75.2063 39.2829,76.2844 Q39.9704,77.3469 41.3142,77.3469 Q41.9392,77.3469 42.5329,77.0813 Q43.1267,76.8 43.7517,76.2219 L43.7517,78.9406 Z " fill="#000000"/><text fill="#000000" font-family="sans-serif" font-size="14" lengthAdjust="spacing" textLength="95.5117" x="55.6992" y="78.1467">LoginRequest</text><line style="stroke:#181818;stroke-width:0.5;" x1="22.66" x2="157.3338" y1="89.3" y2="89.3"/><text fill="#000000" font-family="sans-serif" font-size="14" lengthAdjust="spacing" textLength="96.5713" x="27.66" y="106.2951">+String email</text><text fill="#000000" font-family="sans-serif" font-size="14" lengthAdjust="spacing" textLength="124.6738" x="27.66" y="122.592">+String password</text><line style="stroke:#181818;stroke-width:0.5;" x1="22.66" x2="157.3338" y1="129.8938" y2="129.8938"/></g><!--class LoginResponse--><g class="entity" data-qualified-name="identity DTOs.LoginResponse" data-source-line="9" id="ent0004"><rect fill="#F1F1F1" height="80.5938" rx="2.5" ry="2.5" style="stroke:#181818;stroke-width:0.5;" width="159.8477" x="603.08" y="57.3"/><ellipse cx="627.9646" cy="73.3" fill="#ADD1B2" rx="11" ry="11" style="stroke:#181818;stroke-width:1;"/><path d="M630.9334,78.9406 Q630.3552,79.2375 629.7146,79.3781 Q629.074,79.5344 628.3709,79.5344 Q625.8709,79.5344 624.5427,77.8938 Q623.2302,76.2375 623.2302,73.1125 Q623.2302,69.9875 624.5427,68.3313 Q625.8709,66.675 628.3709,66.675 Q629.074,66.675 629.7146,66.8313 Q630.3709,66.9875 630.9334,67.2844 L630.9334,70.0031 Q630.3084,69.425 629.7146,69.1594 Q629.1209,68.8781 628.4959,68.8781 Q627.1521,68.8781 626.4646,69.9563 Q625.7771,71.0188 625.7771,73.1125 Q625.7771,75.2063 626.4646,76.2844 Q627.1521,77.3469 628.4959,77.3469 Q629.1209,77.3469 629.7146,77.0813 Q630.3084,76.8 630.9334,76.2219 L630.9334,78.9406 Z " fill="#000000"/><text fill="#000000" font-family="sans-serif" font-size="14" lengthAdjust="spacing" textLength="105.8818" x="644.1612" y="78.1467">LoginResponse</text><line style="stroke:#181818;stroke-width:0.5;" x1="604.08" x2="761.9277" y1="89.3" y2="89.3"/><text fill="#000000" font-family="sans-serif" font-size="14" lengthAdjust="spacing" textLength="147.8477" x="609.08" y="106.2951">+String accessToken</text><text fill="#000000" font-family="sans-serif" font-size="14" lengthAdjust="spacing" textLength="146.4941" x="609.08" y="122.592">+UserResponse user</text><line style="stroke:#181818;stroke-width:0.5;" x1="604.08" x2="761.9277" y1="129.8938" y2="129.8938"/></g><!--class CreateUserRequest--><g class="entity" data-qualified-name="identity DTOs.CreateUserRequest" data-source-line="14" id="ent0005"><rect fill="#F1F1F1" height="113.1875" rx="2.5" ry="2.5" style="stroke:#181818;stroke-width:0.5;" width="168.2334" x="192.88" y="41"/><ellipse cx="207.88" cy="57" fill="#ADD1B2" rx="11" ry="11" style="stroke:#181818;stroke-width:1;"/><path d="M210.8488,62.6406 Q210.2706,62.9375 209.63,63.0781 Q208.9894,63.2344 208.2863,63.2344 Q205.7863,63.2344 204.4581,61.5938 Q203.1456,59.9375 203.1456,56.8125 Q203.1456,53.6875 204.4581,52.0313 Q205.7863,50.375 208.2863,50.375 Q208.9894,50.375 209.63,50.5313 Q210.2863,50.6875 210.8488,50.9844 L210.8488,53.7031 Q210.2238,53.125 209.63,52.8594 Q209.0363,52.5781 208.4113,52.5781 Q207.0675,52.5781 206.38,53.6563 Q205.6925,54.7188 205.6925,56.8125 Q205.6925,58.9063 206.38,59.9844 Q207.0675,61.0469 208.4113,61.0469 Q209.0363,61.0469 209.63,60.7813 Q210.2238,60.5 210.8488,59.9219 L210.8488,62.6406 Z " fill="#000000"/><text fill="#000000" font-family="sans-serif" font-size="14" lengthAdjust="spacing" textLength="136.2334" x="221.88" y="61.8467">CreateUserRequest</text><line style="stroke:#181818;stroke-width:0.5;" x1="193.88" x2="360.1134" y1="73" y2="73"/><text fill="#000000" font-family="sans-serif" font-size="14" lengthAdjust="spacing" textLength="129.124" x="198.88" y="89.9951">+UUID companyId</text><text fill="#000000" font-family="sans-serif" font-size="14" lengthAdjust="spacing" textLength="97.665" x="198.88" y="106.292">+String name</text><text fill="#000000" font-family="sans-serif" font-size="14" lengthAdjust="spacing" textLength="96.5713" x="198.88" y="122.5889">+String email</text><text fill="#000000" font-family="sans-serif" font-size="14" lengthAdjust="spacing" textLength="124.6738" x="198.88" y="138.8857">+String password</text><line style="stroke:#181818;stroke-width:0.5;" x1="193.88" x2="360.1134" y1="146.1875" y2="146.1875"/></g><!--class UpdateUserRequest--><g class="entity" data-qualified-name="identity DTOs.UpdateUserRequest" data-source-line="21" id="ent0006"><rect fill="#F1F1F1" height="80.5938" rx="2.5" ry="2.5" style="stroke:#181818;stroke-width:0.5;" width="172.1094" x="395.95" y="57.3"/><ellipse cx="410.95" cy="73.3" fill="#ADD1B2" rx="11" ry="11" style="stroke:#181818;stroke-width:1;"/><path d="M413.9188,78.9406 Q413.3406,79.2375 412.7,79.3781 Q412.0594,79.5344 411.3563,79.5344 Q408.8563,79.5344 407.5281,77.8938 Q406.2156,76.2375 406.2156,73.1125 Q406.2156,69.9875 407.5281,68.3313 Q408.8563,66.675 411.3563,66.675 Q412.0594,66.675 412.7,66.8313 Q413.3563,66.9875 413.9188,67.2844 L413.9188,70.0031 Q413.2938,69.425 412.7,69.1594 Q412.1063,68.8781 411.4813,68.8781 Q410.1375,68.8781 409.45,69.9563 Q408.7625,71.0188 408.7625,73.1125 Q408.7625,75.2063 409.45,76.2844 Q410.1375,77.3469 411.4813,77.3469 Q412.1063,77.3469 412.7,77.0813 Q413.2938,76.8 413.9188,76.2219 L413.9188,78.9406 Z " fill="#000000"/><text fill="#000000" font-family="sans-serif" font-size="14" lengthAdjust="spacing" textLength="140.1094" x="424.95" y="78.1467">UpdateUserRequest</text><line style="stroke:#181818;stroke-width:0.5;" x1="396.95" x2="567.0594" y1="89.3" y2="89.3"/><text fill="#000000" font-family="sans-serif" font-size="14" lengthAdjust="spacing" textLength="97.665" x="401.95" y="106.2951">+String name</text><text fill="#000000" font-family="sans-serif" font-size="14" lengthAdjust="spacing" textLength="96.5713" x="401.95" y="122.592">+String email</text><line style="stroke:#181818;stroke-width:0.5;" x1="396.95" x2="567.0594" y1="129.8938" y2="129.8938"/></g><!--class UserResponse--><g class="entity" data-qualified-name="identity DTOs.UserResponse" data-source-line="26" id="ent0007"><rect fill="#F1F1F1" height="145.7813" rx="2.5" ry="2.5" style="stroke:#181818;stroke-width:0.5;" width="165.0361" x="600.48" y="214.19"/><ellipse cx="630.4465" cy="230.19" fill="#ADD1B2" rx="11" ry="11" style="stroke:#181818;stroke-width:1;"/><path d="M633.4152,235.8306 Q632.8371,236.1275 632.1965,236.2681 Q631.5558,236.4244 630.8527,236.4244 Q628.3527,236.4244 627.0246,234.7838 Q625.7121,233.1275 625.7121,230.0025 Q625.7121,226.8775 627.0246,225.2213 Q628.3527,223.565 630.8527,223.565 Q631.5558,223.565 632.1965,223.7213 Q632.8527,223.8775 633.4152,224.1744 L633.4152,226.8931 Q632.7902,226.315 632.1965,226.0494 Q631.6027,225.7681 630.9777,225.7681 Q629.634,225.7681 628.9465,226.8463 Q628.259,227.9088 628.259,230.0025 Q628.259,232.0963 628.9465,233.1744 Q629.634,234.2369 630.9777,234.2369 Q631.6027,234.2369 632.1965,233.9713 Q632.7902,233.69 633.4152,233.1119 L633.4152,235.8306 Z " fill="#000000"/><text fill="#000000" font-family="sans-serif" font-size="14" lengthAdjust="spacing" textLength="99.7773" x="647.7723" y="235.0367">UserResponse</text><line style="stroke:#181818;stroke-width:0.5;" x1="601.48" x2="764.5161" y1="246.19" y2="246.19"/><text fill="#000000" font-family="sans-serif" font-size="14" lengthAdjust="spacing" textLength="64.3604" x="606.48" y="263.1851">+UUID id</text><text fill="#000000" font-family="sans-serif" font-size="14" lengthAdjust="spacing" textLength="129.124" x="606.48" y="279.482">+UUID companyId</text><text fill="#000000" font-family="sans-serif" font-size="14" lengthAdjust="spacing" textLength="97.665" x="606.48" y="295.7789">+String name</text><text fill="#000000" font-family="sans-serif" font-size="14" lengthAdjust="spacing" textLength="96.5713" x="606.48" y="312.0757">+String email</text><text fill="#000000" font-family="sans-serif" font-size="14" lengthAdjust="spacing" textLength="100.9805" x="606.48" y="328.3726">+String status</text><text fill="#000000" font-family="sans-serif" font-size="14" lengthAdjust="spacing" textLength="153.0361" x="606.48" y="344.6695">+DateTime createdAt</text><line style="stroke:#181818;stroke-width:0.5;" x1="601.48" x2="764.5161" y1="351.9713" y2="351.9713"/></g><!--class AssignRoleToUserRequest--><g class="entity" data-qualified-name="identity DTOs.AssignRoleToUserRequest" data-source-line="35" id="ent0008"><rect fill="#F1F1F1" height="96.8906" rx="2.5" ry="2.5" style="stroke:#181818;stroke-width:0.5;" width="215.1348" x="22.43" y="238.63"/><ellipse cx="37.43" cy="254.63" fill="#ADD1B2" rx="11" ry="11" style="stroke:#181818;stroke-width:1;"/><path d="M40.3988,260.2706 Q39.8206,260.5675 39.18,260.7081 Q38.5394,260.8644 37.8363,260.8644 Q35.3363,260.8644 34.0081,259.2238 Q32.6956,257.5675 32.6956,254.4425 Q32.6956,251.3175 34.0081,249.6613 Q35.3363,248.005 37.8363,248.005 Q38.5394,248.005 39.18,248.1613 Q39.8363,248.3175 40.3988,248.6144 L40.3988,251.3331 Q39.7738,250.755 39.18,250.4894 Q38.5863,250.2081 37.9613,250.2081 Q36.6175,250.2081 35.93,251.2863 Q35.2425,252.3488 35.2425,254.4425 Q35.2425,256.5363 35.93,257.6144 Q36.6175,258.6769 37.9613,258.6769 Q38.5863,258.6769 39.18,258.4113 Q39.7738,258.13 40.3988,257.5519 L40.3988,260.2706 Z " fill="#000000"/><text fill="#000000" font-family="sans-serif" font-size="14" lengthAdjust="spacing" textLength="183.1348" x="51.43" y="259.4767">AssignRoleToUserRequest</text><line style="stroke:#181818;stroke-width:0.5;" x1="23.43" x2="236.5648" y1="270.63" y2="270.63"/><text fill="#000000" font-family="sans-serif" font-size="14" lengthAdjust="spacing" textLength="95.1357" x="28.43" y="287.6251">+UUID userId</text><text fill="#000000" font-family="sans-serif" font-size="14" lengthAdjust="spacing" textLength="84.7861" x="28.43" y="303.922">+String role</text><text fill="#000000" font-family="sans-serif" font-size="14" lengthAdjust="spacing" textLength="120.6953" x="28.43" y="320.2189">+UUID? branchId</text><line style="stroke:#181818;stroke-width:0.5;" x1="23.43" x2="236.5648" y1="327.5206" y2="327.5206"/></g><!--class RemoveRoleFromUserRequest--><g class="entity" data-qualified-name="identity DTOs.RemoveRoleFromUserRequest" data-source-line="41" id="ent0009"><rect fill="#F1F1F1" height="96.8906" rx="2.5" ry="2.5" style="stroke:#181818;stroke-width:0.5;" width="245.6572" x="272.17" y="238.63"/><ellipse cx="287.17" cy="254.63" fill="#ADD1B2" rx="11" ry="11" style="stroke:#181818;stroke-width:1;"/><path d="M290.1388,260.2706 Q289.5606,260.5675 288.92,260.7081 Q288.2794,260.8644 287.5763,260.8644 Q285.0763,260.8644 283.7481,259.2238 Q282.4356,257.5675 282.4356,254.4425 Q282.4356,251.3175 283.7481,249.6613 Q285.0763,248.005 287.5763,248.005 Q288.2794,248.005 288.92,248.1613 Q289.5763,248.3175 290.1388,248.6144 L290.1388,251.3331 Q289.5138,250.755 288.92,250.4894 Q288.3263,250.2081 287.7013,250.2081 Q286.3575,250.2081 285.67,251.2863 Q284.9825,252.3488 284.9825,254.4425 Q284.9825,256.5363 285.67,257.6144 Q286.3575,258.6769 287.7013,258.6769 Q288.3263,258.6769 288.92,258.4113 Q289.5138,258.13 290.1388,257.5519 L290.1388,260.2706 Z " fill="#000000"/><text fill="#000000" font-family="sans-serif" font-size="14" lengthAdjust="spacing" textLength="213.6572" x="301.17" y="259.4767">RemoveRoleFromUserRequest</text><line style="stroke:#181818;stroke-width:0.5;" x1="273.17" x2="516.8272" y1="270.63" y2="270.63"/><text fill="#000000" font-family="sans-serif" font-size="14" lengthAdjust="spacing" textLength="95.1357" x="278.17" y="287.6251">+UUID userId</text><text fill="#000000" font-family="sans-serif" font-size="14" lengthAdjust="spacing" textLength="84.7861" x="278.17" y="303.922">+String role</text><text fill="#000000" font-family="sans-serif" font-size="14" lengthAdjust="spacing" textLength="120.6953" x="278.17" y="320.2189">+UUID? branchId</text><line style="stroke:#181818;stroke-width:0.5;" x1="273.17" x2="516.8272" y1="327.5206" y2="327.5206"/></g><!--class UserRoleResponse--><g class="entity" data-qualified-name="identity DTOs.UserRoleResponse" data-source-line="47" id="ent0010"><rect fill="#F1F1F1" height="129.4844" rx="2.5" ry="2.5" style="stroke:#181818;stroke-width:0.5;" width="165.0361" x="835.48" y="222.34"/><ellipse cx="851.5883" cy="238.34" fill="#ADD1B2" rx="11" ry="11" style="stroke:#181818;stroke-width:1;"/><path d="M854.5571,243.9806 Q853.9789,244.2775 853.3383,244.4181 Q852.6977,244.5744 851.9946,244.5744 Q849.4946,244.5744 848.1664,242.9338 Q846.8539,241.2775 846.8539,238.1525 Q846.8539,235.0275 848.1664,233.3713 Q849.4946,231.715 851.9946,231.715 Q852.6977,231.715 853.3383,231.8713 Q853.9946,232.0275 854.5571,232.3244 L854.5571,235.0431 Q853.9321,234.465 853.3383,234.1994 Q852.7446,233.9181 852.1196,233.9181 Q850.7758,233.9181 850.0883,234.9963 Q849.4008,236.0588 849.4008,238.1525 Q849.4008,240.2463 850.0883,241.3244 Q850.7758,242.3869 852.1196,242.3869 Q852.7446,242.3869 853.3383,242.1213 Q853.9321,241.84 854.5571,241.2619 L854.5571,243.9806 Z " fill="#000000"/><text fill="#000000" font-family="sans-serif" font-size="14" lengthAdjust="spacing" textLength="130.5732" x="865.8346" y="243.1867">UserRoleResponse</text><line style="stroke:#181818;stroke-width:0.5;" x1="836.48" x2="999.5161" y1="254.34" y2="254.34"/><text fill="#000000" font-family="sans-serif" font-size="14" lengthAdjust="spacing" textLength="64.3604" x="841.48" y="271.3351">+UUID id</text><text fill="#000000" font-family="sans-serif" font-size="14" lengthAdjust="spacing" textLength="95.1357" x="841.48" y="287.632">+UUID userId</text><text fill="#000000" font-family="sans-serif" font-size="14" lengthAdjust="spacing" textLength="84.7861" x="841.48" y="303.9289">+String role</text><text fill="#000000" font-family="sans-serif" font-size="14" lengthAdjust="spacing" textLength="120.6953" x="841.48" y="320.2257">+UUID? branchId</text><text fill="#000000" font-family="sans-serif" font-size="14" lengthAdjust="spacing" textLength="153.0361" x="841.48" y="336.5226">+DateTime createdAt</text><line style="stroke:#181818;stroke-width:0.5;" x1="836.48" x2="999.5161" y1="343.8244" y2="343.8244"/></g><!--class UserRolesResponse--><g class="entity" data-qualified-name="identity DTOs.UserRolesResponse" data-source-line="55" id="ent0011"><rect fill="#F1F1F1" height="64.2969" rx="2.5" ry="2.5" style="stroke:#181818;stroke-width:0.5;" width="240.8057" x="797.6" y="65.45"/><ellipse cx="844.8192" cy="81.45" fill="#ADD1B2" rx="11" ry="11" style="stroke:#181818;stroke-width:1;"/><path d="M847.788,87.0906 Q847.2099,87.3875 846.5692,87.5281 Q845.9286,87.6844 845.2255,87.6844 Q842.7255,87.6844 841.3974,86.0438 Q840.0849,84.3875 840.0849,81.2625 Q840.0849,78.1375 841.3974,76.4813 Q842.7255,74.825 845.2255,74.825 Q845.9286,74.825 846.5692,74.9813 Q847.2255,75.1375 847.788,75.4344 L847.788,78.1531 Q847.163,77.575 846.5692,77.3094 Q845.9755,77.0281 845.3505,77.0281 Q844.0067,77.0281 843.3192,78.1063 Q842.6317,79.1688 842.6317,81.2625 Q842.6317,83.3563 843.3192,84.4344 Q844.0067,85.4969 845.3505,85.4969 Q845.9755,85.4969 846.5692,85.2313 Q847.163,84.95 847.788,84.3719 L847.788,87.0906 Z " fill="#000000"/><text fill="#000000" font-family="sans-serif" font-size="14" lengthAdjust="spacing" textLength="137.8672" x="865.3192" y="86.2967">UserRolesResponse</text><line style="stroke:#181818;stroke-width:0.5;" x1="798.6" x2="1037.4057" y1="97.45" y2="97.45"/><text fill="#000000" font-family="sans-serif" font-size="14" lengthAdjust="spacing" textLength="228.8057" x="803.6" y="114.4451">+List&lt;UserRoleResponse&gt; roles</text><line style="stroke:#181818;stroke-width:0.5;" x1="798.6" x2="1037.4057" y1="121.7469" y2="121.7469"/></g><!--link LoginResponse to UserResponse--><g class="link" data-entity-1="ent0004" data-entity-2="ent0007" data-link-type="dependency" data-source-line="59" id="lnk12"><path codeLine="59" d="M683,138.36 C683,160.28 683,182.19 683,207.83" fill="none" id="LoginResponse-to-UserResponse" style="stroke:#181818;stroke-width:1;"/><polygon fill="#181818" points="683,213.83,687,204.83,683,208.83,679,204.83,683,213.83" style="stroke:#181818;stroke-width:1;"/></g><!--link UserRolesResponse to UserRoleResponse--><g class="link" data-entity-1="ent0011" data-entity-2="ent0010" data-link-type="dependency" data-source-line="60" id="lnk13"><path codeLine="60" d="M918,129.98 C918,154.99 918,184.86 918,215.9" fill="none" id="UserRolesResponse-to-UserRoleResponse" style="stroke:#181818;stroke-width:1;"/><polygon fill="#181818" points="918,221.9,922,212.9,918,216.9,914,212.9,918,221.9" style="stroke:#181818;stroke-width:1;"/></g><?plantuml-src hPBlIiCm5CM_zoak-oe37q0cnI8K1eEkVO0ikTJGve-vgJ9bxsxMijb4PIhxsCEvltDw27LIM-QO0jupejnx9tU3nv8RlPLl2BTPPXdlM8kma0ArbtuFHRsX1RndC5t1shHIL_Wy8FbH1hZP1f9k0HMJVQJOSF5gd0ZY8KiHP8qcJ1YCSoIgJOTwqXj2T_OEuIDcFJXa7YTJrAbfoWAuKPRfVIcY3CqK_gjuOyNtOPV0SyRyV-PTfRX6SVBC3pH9HIXRIuN0nv54xkCgEP5iTMLwhCrF2nuNJrguSF3fk8UTOve_bSbM5IhpWaVuepFgwlWH69oNf_nRn2zcEqLJchsMvE_IOginZKw8-EqlbwleGGJ3L_hPDADcXmy0?></g></svg>