<svg xmlns="http://www.w3.org/2000/svg" xmlns:xlink="http://www.w3.org/1999/xlink" contentStyleType="text/css" data-diagram-type="CLASS" height="613px" preserveAspectRatio="none" style="width:2432px;height:613px;background:#FFFFFF;" version="1.1" viewBox="0 0 2432 613" width="2432px" zoomAndPan="magnify"><?plantuml 1.2026.4beta2?><defs/><g><!--cluster scheduling DTOs--><g class="cluster" data-qualified-name="scheduling DTOs" data-source-line="3" id="ent0002"><path d="M8.5,6 L141.4473,6 A3.75,3.75 0 0 1 143.9473,8.5 L150.9473,28.2969 L2414.5,28.2969 A2.5,2.5 0 0 1 2417,30.7969 L2417,595.55 A2.5,2.5 0 0 1 2414.5,598.05 L8.5,598.05 A2.5,2.5 0 0 1 6,595.55 L6,8.5 A2.5,2.5 0 0 1 8.5,6" fill="none" style="stroke:#000000;stroke-width:1.5;"/><line style="stroke:#000000;stroke-width:1.5;" x1="6" x2="150.9473" y1="28.2969" y2="28.2969"/><text fill="#000000" font-family="sans-serif" font-size="14" font-weight="700" lengthAdjust="spacing" textLength="131.9473" x="10" y="20.9951">scheduling DTOs</text></g><!--class CreateShiftRequest--><g class="entity" data-qualified-name="scheduling DTOs.CreateShiftRequest" data-source-line="4" id="ent0003"><rect fill="#F1F1F1" height="113.1875" rx="2.5" ry="2.5" style="stroke:#181818;stroke-width:0.5;" width="168.3906" x="21.8" y="49.15"/><ellipse cx="36.8" cy="65.15" fill="#ADD1B2" rx="11" ry="11" style="stroke:#181818;stroke-width:1;"/><path d="M39.7688,70.7906 Q39.1906,71.0875 38.55,71.2281 Q37.9094,71.3844 37.2063,71.3844 Q34.7063,71.3844 33.3781,69.7437 Q32.0656,68.0875 32.0656,64.9625 Q32.0656,61.8375 33.3781,60.1812 Q34.7063,58.525 37.2063,58.525 Q37.9094,58.525 38.55,58.6812 Q39.2063,58.8375 39.7688,59.1344 L39.7688,61.8531 Q39.1438,61.275 38.55,61.0094 Q37.9563,60.7281 37.3313,60.7281 Q35.9875,60.7281 35.3,61.8062 Q34.6125,62.8687 34.6125,64.9625 Q34.6125,67.0562 35.3,68.1344 Q35.9875,69.1969 37.3313,69.1969 Q37.9563,69.1969 38.55,68.9312 Q39.1438,68.65 39.7688,68.0719 L39.7688,70.7906 Z " fill="#000000"/><text fill="#000000" font-family="sans-serif" font-size="14" lengthAdjust="spacing" textLength="136.3906" x="50.8" y="69.9967">CreateShiftRequest</text><line style="stroke:#181818;stroke-width:0.5;" x1="22.8" x2="189.1906" y1="81.15" y2="81.15"/><text fill="#000000" font-family="sans-serif" font-size="14" lengthAdjust="spacing" textLength="113.2646" x="27.8" y="98.1451">+UUID branchId</text><text fill="#000000" font-family="sans-serif" font-size="14" lengthAdjust="spacing" textLength="120.0527" x="27.8" y="114.442">+UUID positionId</text><text fill="#000000" font-family="sans-serif" font-size="14" lengthAdjust="spacing" textLength="139.3027" x="27.8" y="130.7389">+DateTime startsAt</text><text fill="#000000" font-family="sans-serif" font-size="14" lengthAdjust="spacing" textLength="133.0684" x="27.8" y="147.0357">+DateTime endsAt</text><line style="stroke:#181818;stroke-width:0.5;" x1="22.8" x2="189.1906" y1="154.3375" y2="154.3375"/></g><!--class UpdateShiftRequest--><g class="entity" data-qualified-name="scheduling DTOs.UpdateShiftRequest" data-source-line="11" id="ent0004"><rect fill="#F1F1F1" height="113.1875" rx="2.5" ry="2.5" style="stroke:#181818;stroke-width:0.5;" width="172.2666" x="224.87" y="49.15"/><ellipse cx="239.87" cy="65.15" fill="#ADD1B2" rx="11" ry="11" style="stroke:#181818;stroke-width:1;"/><path d="M242.8388,70.7906 Q242.2606,71.0875 241.62,71.2281 Q240.9794,71.3844 240.2763,71.3844 Q237.7763,71.3844 236.4481,69.7437 Q235.1356,68.0875 235.1356,64.9625 Q235.1356,61.8375 236.4481,60.1812 Q237.7763,58.525 240.2763,58.525 Q240.9794,58.525 241.62,58.6812 Q242.2763,58.8375 242.8388,59.1344 L242.8388,61.8531 Q242.2138,61.275 241.62,61.0094 Q241.0263,60.7281 240.4013,60.7281 Q239.0575,60.7281 238.37,61.8062 Q237.6825,62.8687 237.6825,64.9625 Q237.6825,67.0562 238.37,68.1344 Q239.0575,69.1969 240.4013,69.1969 Q241.0263,69.1969 241.62,68.9312 Q242.2138,68.65 242.8388,68.0719 L242.8388,70.7906 Z " fill="#000000"/><text fill="#000000" font-family="sans-serif" font-size="14" lengthAdjust="spacing" textLength="140.2666" x="253.87" y="69.9967">UpdateShiftRequest</text><line style="stroke:#181818;stroke-width:0.5;" x1="225.87" x2="396.1366" y1="81.15" y2="81.15"/><text fill="#000000" font-family="sans-serif" font-size="14" lengthAdjust="spacing" textLength="113.2646" x="230.87" y="98.1451">+UUID branchId</text><text fill="#000000" font-family="sans-serif" font-size="14" lengthAdjust="spacing" textLength="120.0527" x="230.87" y="114.442">+UUID positionId</text><text fill="#000000" font-family="sans-serif" font-size="14" lengthAdjust="spacing" textLength="139.3027" x="230.87" y="130.7389">+DateTime startsAt</text><text fill="#000000" font-family="sans-serif" font-size="14" lengthAdjust="spacing" textLength="133.0684" x="230.87" y="147.0357">+DateTime endsAt</text><line style="stroke:#181818;stroke-width:0.5;" x1="225.87" x2="396.1366" y1="154.3375" y2="154.3375"/></g><!--class ShiftResponse--><g class="entity" data-qualified-name="scheduling DTOs.ShiftResponse" data-source-line="18" id="ent0005"><rect fill="#F1F1F1" height="194.6719" rx="2.5" ry="2.5" style="stroke:#181818;stroke-width:0.5;" width="166.7178" x="1197.64" y="246.78"/><ellipse cx="1228.2924" cy="262.78" fill="#ADD1B2" rx="11" ry="11" style="stroke:#181818;stroke-width:1;"/><path d="M1231.2612,268.4206 Q1230.6831,268.7175 1230.0424,268.8581 Q1229.4018,269.0144 1228.6987,269.0144 Q1226.1987,269.0144 1224.8706,267.3738 Q1223.5581,265.7175 1223.5581,262.5925 Q1223.5581,259.4675 1224.8706,257.8113 Q1226.1987,256.155 1228.6987,256.155 Q1229.4018,256.155 1230.0424,256.3113 Q1230.6987,256.4675 1231.2612,256.7644 L1231.2612,259.4831 Q1230.6362,258.905 1230.0424,258.6394 Q1229.4487,258.3581 1228.8237,258.3581 Q1227.4799,258.3581 1226.7924,259.4363 Q1226.1049,260.4988 1226.1049,262.5925 Q1226.1049,264.6863 1226.7924,265.7644 Q1227.4799,266.8269 1228.8237,266.8269 Q1229.4487,266.8269 1230.0424,266.5613 Q1230.6362,266.28 1231.2612,265.7019 L1231.2612,268.4206 Z " fill="#000000"/><text fill="#000000" font-family="sans-serif" font-size="14" lengthAdjust="spacing" textLength="99.9346" x="1245.7708" y="267.6267">ShiftResponse</text><line style="stroke:#181818;stroke-width:0.5;" x1="1198.64" x2="1363.3578" y1="278.78" y2="278.78"/><text fill="#000000" font-family="sans-serif" font-size="14" lengthAdjust="spacing" textLength="64.3604" x="1203.64" y="295.7751">+UUID id</text><text fill="#000000" font-family="sans-serif" font-size="14" lengthAdjust="spacing" textLength="113.2646" x="1203.64" y="312.072">+UUID branchId</text><text fill="#000000" font-family="sans-serif" font-size="14" lengthAdjust="spacing" textLength="147.9297" x="1203.64" y="328.3689">+String branchName</text><text fill="#000000" font-family="sans-serif" font-size="14" lengthAdjust="spacing" textLength="120.0527" x="1203.64" y="344.6657">+UUID positionId</text><text fill="#000000" font-family="sans-serif" font-size="14" lengthAdjust="spacing" textLength="154.7178" x="1203.64" y="360.9626">+String positionName</text><text fill="#000000" font-family="sans-serif" font-size="14" lengthAdjust="spacing" textLength="139.3027" x="1203.64" y="377.2595">+DateTime startsAt</text><text fill="#000000" font-family="sans-serif" font-size="14" lengthAdjust="spacing" textLength="133.0684" x="1203.64" y="393.5564">+DateTime endsAt</text><text fill="#000000" font-family="sans-serif" font-size="14" lengthAdjust="spacing" textLength="100.9805" x="1203.64" y="409.8532">+String status</text><text fill="#000000" font-family="sans-serif" font-size="14" lengthAdjust="spacing" textLength="153.0361" x="1203.64" y="426.1501">+DateTime createdAt</text><line style="stroke:#181818;stroke-width:0.5;" x1="1198.64" x2="1363.3578" y1="433.4519" y2="433.4519"/></g><!--class ShiftListResponse--><g class="entity" data-qualified-name="scheduling DTOs.ShiftListResponse" data-source-line="30" id="ent0006"><rect fill="#F1F1F1" height="64.2969" rx="2.5" ry="2.5" style="stroke:#181818;stroke-width:0.5;" width="213.8174" x="925.09" y="73.6"/><ellipse cx="965.9246" cy="89.6" fill="#ADD1B2" rx="11" ry="11" style="stroke:#181818;stroke-width:1;"/><path d="M968.8933,95.2406 Q968.3152,95.5375 967.6746,95.6781 Q967.0339,95.8344 966.3308,95.8344 Q963.8308,95.8344 962.5027,94.1937 Q961.1902,92.5375 961.1902,89.4125 Q961.1902,86.2875 962.5027,84.6312 Q963.8308,82.975 966.3308,82.975 Q967.0339,82.975 967.6746,83.1312 Q968.3308,83.2875 968.8933,83.5844 L968.8933,86.3031 Q968.2683,85.725 967.6746,85.4594 Q967.0808,85.1781 966.4558,85.1781 Q965.1121,85.1781 964.4246,86.2562 Q963.7371,87.3187 963.7371,89.4125 Q963.7371,91.5062 964.4246,92.5844 Q965.1121,93.6469 966.4558,93.6469 Q967.0808,93.6469 967.6746,93.3812 Q968.2683,93.1 968.8933,92.5219 L968.8933,95.2406 Z " fill="#000000"/><text fill="#000000" font-family="sans-serif" font-size="14" lengthAdjust="spacing" textLength="124.4072" x="985.6656" y="94.4467">ShiftListResponse</text><line style="stroke:#181818;stroke-width:0.5;" x1="926.09" x2="1137.9074" y1="105.6" y2="105.6"/><text fill="#000000" font-family="sans-serif" font-size="14" lengthAdjust="spacing" textLength="201.8174" x="931.09" y="122.5951">+List&lt;ShiftResponse&gt; shifts</text><line style="stroke:#181818;stroke-width:0.5;" x1="926.09" x2="1137.9074" y1="129.8969" y2="129.8969"/></g><!--class CalendarRequest--><g class="entity" data-qualified-name="scheduling DTOs.CalendarRequest" data-source-line="34" id="ent0007"><rect fill="#F1F1F1" height="96.8906" rx="2.5" ry="2.5" style="stroke:#181818;stroke-width:0.5;" width="152.4492" x="431.78" y="57.3"/><ellipse cx="446.78" cy="73.3" fill="#ADD1B2" rx="11" ry="11" style="stroke:#181818;stroke-width:1;"/><path d="M449.7488,78.9406 Q449.1706,79.2375 448.53,79.3781 Q447.8894,79.5344 447.1863,79.5344 Q444.6863,79.5344 443.3581,77.8937 Q442.0456,76.2375 442.0456,73.1125 Q442.0456,69.9875 443.3581,68.3312 Q444.6863,66.675 447.1863,66.675 Q447.8894,66.675 448.53,66.8312 Q449.1863,66.9875 449.7488,67.2844 L449.7488,70.0031 Q449.1238,69.425 448.53,69.1594 Q447.9363,68.8781 447.3113,68.8781 Q445.9675,68.8781 445.28,69.9562 Q444.5925,71.0187 444.5925,73.1125 Q444.5925,75.2062 445.28,76.2844 Q445.9675,77.3469 447.3113,77.3469 Q447.9363,77.3469 448.53,77.0812 Q449.1238,76.8 449.7488,76.2219 L449.7488,78.9406 Z " fill="#000000"/><text fill="#000000" font-family="sans-serif" font-size="14" lengthAdjust="spacing" textLength="120.4492" x="460.78" y="78.1467">CalendarRequest</text><line style="stroke:#181818;stroke-width:0.5;" x1="432.78" x2="583.2292" y1="89.3" y2="89.3"/><text fill="#000000" font-family="sans-serif" font-size="14" lengthAdjust="spacing" textLength="113.2646" x="437.78" y="106.2951">+UUID branchId</text><text fill="#000000" font-family="sans-serif" font-size="14" lengthAdjust="spacing" textLength="109.4365" x="437.78" y="122.592">+Date startsOn</text><text fill="#000000" font-family="sans-serif" font-size="14" lengthAdjust="spacing" textLength="103.2021" x="437.78" y="138.8889">+Date endsOn</text><line style="stroke:#181818;stroke-width:0.5;" x1="432.78" x2="583.2292" y1="146.1906" y2="146.1906"/></g><!--class CalendarResponse--><g class="entity" data-qualified-name="scheduling DTOs.CalendarResponse" data-source-line="40" id="ent0008"><rect fill="#F1F1F1" height="129.4844" rx="2.5" ry="2.5" style="stroke:#181818;stroke-width:0.5;" width="213.8174" x="1174.09" y="41"/><ellipse cx="1212.0391" cy="57" fill="#ADD1B2" rx="11" ry="11" style="stroke:#181818;stroke-width:1;"/><path d="M1215.0079,62.6406 Q1214.4297,62.9375 1213.7891,63.0781 Q1213.1485,63.2344 1212.4454,63.2344 Q1209.9454,63.2344 1208.6172,61.5938 Q1207.3047,59.9375 1207.3047,56.8125 Q1207.3047,53.6875 1208.6172,52.0313 Q1209.9454,50.375 1212.4454,50.375 Q1213.1485,50.375 1213.7891,50.5313 Q1214.4454,50.6875 1215.0079,50.9844 L1215.0079,53.7031 Q1214.3829,53.125 1213.7891,52.8594 Q1213.1954,52.5781 1212.5704,52.5781 Q1211.2266,52.5781 1210.5391,53.6563 Q1209.8516,54.7188 1209.8516,56.8125 Q1209.8516,58.9063 1210.5391,59.9844 Q1211.2266,61.0469 1212.5704,61.0469 Q1213.1954,61.0469 1213.7891,60.7813 Q1214.3829,60.5 1215.0079,59.9219 L1215.0079,62.6406 Z " fill="#000000"/><text fill="#000000" font-family="sans-serif" font-size="14" lengthAdjust="spacing" textLength="130.8193" x="1231.1389" y="61.8467">CalendarResponse</text><line style="stroke:#181818;stroke-width:0.5;" x1="1175.09" x2="1386.9074" y1="73" y2="73"/><text fill="#000000" font-family="sans-serif" font-size="14" lengthAdjust="spacing" textLength="113.2646" x="1180.09" y="89.9951">+UUID branchId</text><text fill="#000000" font-family="sans-serif" font-size="14" lengthAdjust="spacing" textLength="147.9297" x="1180.09" y="106.292">+String branchName</text><text fill="#000000" font-family="sans-serif" font-size="14" lengthAdjust="spacing" textLength="109.4365" x="1180.09" y="122.5889">+Date startsOn</text><text fill="#000000" font-family="sans-serif" font-size="14" lengthAdjust="spacing" textLength="103.2021" x="1180.09" y="138.8857">+Date endsOn</text><text fill="#000000" font-family="sans-serif" font-size="14" lengthAdjust="spacing" textLength="201.8174" x="1180.09" y="155.1826">+List&lt;ShiftResponse&gt; shifts</text><line style="stroke:#181818;stroke-width:0.5;" x1="1175.09" x2="1386.9074" y1="162.4844" y2="162.4844"/></g><!--class AssignCollaboratorToShiftRequest--><g class="entity" data-qualified-name="scheduling DTOs.AssignCollaboratorToShiftRequest" data-source-line="48" id="ent0009"><rect fill="#F1F1F1" height="80.5938" rx="2.5" ry="2.5" style="stroke:#181818;stroke-width:0.5;" width="270.793" x="619.6" y="65.45"/><ellipse cx="634.6" cy="81.45" fill="#ADD1B2" rx="11" ry="11" style="stroke:#181818;stroke-width:1;"/><path d="M637.5688,87.0906 Q636.9906,87.3875 636.35,87.5281 Q635.7094,87.6844 635.0063,87.6844 Q632.5063,87.6844 631.1781,86.0437 Q629.8656,84.3875 629.8656,81.2625 Q629.8656,78.1375 631.1781,76.4812 Q632.5063,74.825 635.0063,74.825 Q635.7094,74.825 636.35,74.9812 Q637.0063,75.1375 637.5688,75.4344 L637.5688,78.1531 Q636.9438,77.575 636.35,77.3094 Q635.7563,77.0281 635.1313,77.0281 Q633.7875,77.0281 633.1,78.1062 Q632.4125,79.1687 632.4125,81.2625 Q632.4125,83.3562 633.1,84.4344 Q633.7875,85.4969 635.1313,85.4969 Q635.7563,85.4969 636.35,85.2312 Q636.9438,84.95 637.5688,84.3719 L637.5688,87.0906 Z " fill="#000000"/><text fill="#000000" font-family="sans-serif" font-size="14" lengthAdjust="spacing" textLength="238.793" x="648.6" y="86.2967">AssignCollaboratorToShiftRequest</text><line style="stroke:#181818;stroke-width:0.5;" x1="620.6" x2="889.393" y1="97.45" y2="97.45"/><text fill="#000000" font-family="sans-serif" font-size="14" lengthAdjust="spacing" textLength="95.0742" x="625.6" y="114.4451">+UUID shiftId</text><text fill="#000000" font-family="sans-serif" font-size="14" lengthAdjust="spacing" textLength="148.8184" x="625.6" y="130.742">+UUID collaboratorId</text><line style="stroke:#181818;stroke-width:0.5;" x1="620.6" x2="889.393" y1="138.0437" y2="138.0437"/></g><!--class RemoveCollaboratorFromShiftRequest--><g class="entity" data-qualified-name="scheduling DTOs.RemoveCollaboratorFromShiftRequest" data-source-line="53" id="ent0010"><rect fill="#F1F1F1" height="80.5938" rx="2.5" ry="2.5" style="stroke:#181818;stroke-width:0.5;" width="301.3154" x="22.34" y="303.82"/><ellipse cx="37.34" cy="319.82" fill="#ADD1B2" rx="11" ry="11" style="stroke:#181818;stroke-width:1;"/><path d="M40.3088,325.4606 Q39.7306,325.7575 39.09,325.8981 Q38.4494,326.0544 37.7463,326.0544 Q35.2463,326.0544 33.9181,324.4137 Q32.6056,322.7575 32.6056,319.6325 Q32.6056,316.5075 33.9181,314.8512 Q35.2463,313.195 37.7463,313.195 Q38.4494,313.195 39.09,313.3512 Q39.7463,313.5075 40.3088,313.8044 L40.3088,316.5231 Q39.6838,315.945 39.09,315.6794 Q38.4963,315.3981 37.8713,315.3981 Q36.5275,315.3981 35.84,316.4762 Q35.1525,317.5387 35.1525,319.6325 Q35.1525,321.7262 35.84,322.8044 Q36.5275,323.8669 37.8713,323.8669 Q38.4963,323.8669 39.09,323.6012 Q39.6838,323.32 40.3088,322.7419 L40.3088,325.4606 Z " fill="#000000"/><text fill="#000000" font-family="sans-serif" font-size="14" lengthAdjust="spacing" textLength="269.3154" x="51.34" y="324.6667">RemoveCollaboratorFromShiftRequest</text><line style="stroke:#181818;stroke-width:0.5;" x1="23.34" x2="322.6554" y1="335.82" y2="335.82"/><text fill="#000000" font-family="sans-serif" font-size="14" lengthAdjust="spacing" textLength="95.0742" x="28.34" y="352.8151">+UUID shiftId</text><text fill="#000000" font-family="sans-serif" font-size="14" lengthAdjust="spacing" textLength="148.8184" x="28.34" y="369.112">+UUID collaboratorId</text><line style="stroke:#181818;stroke-width:0.5;" x1="23.34" x2="322.6554" y1="376.4137" y2="376.4137"/></g><!--class ReplaceCollaboratorInShiftRequest--><g class="entity" data-qualified-name="scheduling DTOs.ReplaceCollaboratorInShiftRequest" data-source-line="58" id="ent0011"><rect fill="#F1F1F1" height="96.8906" rx="2.5" ry="2.5" style="stroke:#181818;stroke-width:0.5;" width="276.8701" x="358.56" y="295.68"/><ellipse cx="373.56" cy="311.68" fill="#ADD1B2" rx="11" ry="11" style="stroke:#181818;stroke-width:1;"/><path d="M376.5288,317.3206 Q375.9506,317.6175 375.31,317.7581 Q374.6694,317.9144 373.9663,317.9144 Q371.4663,317.9144 370.1381,316.2737 Q368.8256,314.6175 368.8256,311.4925 Q368.8256,308.3675 370.1381,306.7112 Q371.4663,305.055 373.9663,305.055 Q374.6694,305.055 375.31,305.2112 Q375.9663,305.3675 376.5288,305.6644 L376.5288,308.3831 Q375.9038,307.805 375.31,307.5394 Q374.7163,307.2581 374.0913,307.2581 Q372.7475,307.2581 372.06,308.3362 Q371.3725,309.3987 371.3725,311.4925 Q371.3725,313.5862 372.06,314.6644 Q372.7475,315.7269 374.0913,315.7269 Q374.7163,315.7269 375.31,315.4612 Q375.9038,315.18 376.5288,314.6019 L376.5288,317.3206 Z " fill="#000000"/><text fill="#000000" font-family="sans-serif" font-size="14" lengthAdjust="spacing" textLength="244.8701" x="387.56" y="316.5267">ReplaceCollaboratorInShiftRequest</text><line style="stroke:#181818;stroke-width:0.5;" x1="359.56" x2="634.4301" y1="327.68" y2="327.68"/><text fill="#000000" font-family="sans-serif" font-size="14" lengthAdjust="spacing" textLength="95.0742" x="364.56" y="344.6751">+UUID shiftId</text><text fill="#000000" font-family="sans-serif" font-size="14" lengthAdjust="spacing" textLength="201.9541" x="364.56" y="360.972">+UUID currentCollaboratorId</text><text fill="#000000" font-family="sans-serif" font-size="14" lengthAdjust="spacing" textLength="179.833" x="364.56" y="377.2689">+UUID newCollaboratorId</text><line style="stroke:#181818;stroke-width:0.5;" x1="359.56" x2="634.4301" y1="384.5706" y2="384.5706"/></g><!--class ShiftAssignmentResponse--><g class="entity" data-qualified-name="scheduling DTOs.ShiftAssignmentResponse" data-source-line="64" id="ent0012"><rect fill="#F1F1F1" height="162.0781" rx="2.5" ry="2.5" style="stroke:#181818;stroke-width:0.5;" width="214.3623" x="1751.82" y="263.08"/><ellipse cx="1766.82" cy="279.08" fill="#ADD1B2" rx="11" ry="11" style="stroke:#181818;stroke-width:1;"/><path d="M1769.7888,284.7206 Q1769.2106,285.0175 1768.57,285.1581 Q1767.9294,285.3144 1767.2263,285.3144 Q1764.7263,285.3144 1763.3981,283.6737 Q1762.0856,282.0175 1762.0856,278.8925 Q1762.0856,275.7675 1763.3981,274.1112 Q1764.7263,272.455 1767.2263,272.455 Q1767.9294,272.455 1768.57,272.6112 Q1769.2263,272.7675 1769.7888,273.0644 L1769.7888,275.7831 Q1769.1638,275.205 1768.57,274.9394 Q1767.9763,274.6581 1767.3513,274.6581 Q1766.0075,274.6581 1765.32,275.7362 Q1764.6325,276.7987 1764.6325,278.8925 Q1764.6325,280.9862 1765.32,282.0644 Q1766.0075,283.1269 1767.3513,283.1269 Q1767.9763,283.1269 1768.57,282.8612 Q1769.1638,282.58 1769.7888,282.0019 L1769.7888,284.7206 Z " fill="#000000"/><text fill="#000000" font-family="sans-serif" font-size="14" lengthAdjust="spacing" textLength="182.3623" x="1780.82" y="283.9267">ShiftAssignmentResponse</text><line style="stroke:#181818;stroke-width:0.5;" x1="1752.82" x2="1965.1823" y1="295.08" y2="295.08"/><text fill="#000000" font-family="sans-serif" font-size="14" lengthAdjust="spacing" textLength="64.3604" x="1757.82" y="312.0751">+UUID id</text><text fill="#000000" font-family="sans-serif" font-size="14" lengthAdjust="spacing" textLength="95.0742" x="1757.82" y="328.372">+UUID shiftId</text><text fill="#000000" font-family="sans-serif" font-size="14" lengthAdjust="spacing" textLength="148.8184" x="1757.82" y="344.6689">+UUID collaboratorId</text><text fill="#000000" font-family="sans-serif" font-size="14" lengthAdjust="spacing" textLength="183.4834" x="1757.82" y="360.9657">+String collaboratorName</text><text fill="#000000" font-family="sans-serif" font-size="14" lengthAdjust="spacing" textLength="100.9805" x="1757.82" y="377.2626">+String status</text><text fill="#000000" font-family="sans-serif" font-size="14" lengthAdjust="spacing" textLength="153.0361" x="1757.82" y="393.5595">+DateTime createdAt</text><text fill="#000000" font-family="sans-serif" font-size="14" lengthAdjust="spacing" textLength="169.6816" x="1757.82" y="409.8564">+DateTime? canceledAt</text><line style="stroke:#181818;stroke-width:0.5;" x1="1752.82" x2="1965.1823" y1="417.1581" y2="417.1581"/></g><!--class AssignedCollaboratorsResponse--><g class="entity" data-qualified-name="scheduling DTOs.AssignedCollaboratorsResponse" data-source-line="74" id="ent0013"><rect fill="#F1F1F1" height="80.5938" rx="2.5" ry="2.5" style="stroke:#181818;stroke-width:0.5;" width="349.9893" x="1684.01" y="65.45"/><ellipse cx="1742.3684" cy="81.45" fill="#ADD1B2" rx="11" ry="11" style="stroke:#181818;stroke-width:1;"/><path d="M1745.3371,87.0906 Q1744.759,87.3875 1744.1184,87.5281 Q1743.4778,87.6844 1742.7746,87.6844 Q1740.2746,87.6844 1738.9465,86.0437 Q1737.634,84.3875 1737.634,81.2625 Q1737.634,78.1375 1738.9465,76.4812 Q1740.2746,74.825 1742.7746,74.825 Q1743.4778,74.825 1744.1184,74.9812 Q1744.7746,75.1375 1745.3371,75.4344 L1745.3371,78.1531 Q1744.7121,77.575 1744.1184,77.3094 Q1743.5246,77.0281 1742.8996,77.0281 Q1741.5559,77.0281 1740.8684,78.1062 Q1740.1809,79.1687 1740.1809,81.2625 Q1740.1809,83.3562 1740.8684,84.4344 Q1741.5559,85.4969 1742.8996,85.4969 Q1743.5246,85.4969 1744.1184,85.2312 Q1744.7121,84.95 1745.3371,84.3719 L1745.3371,87.0906 Z " fill="#000000"/><text fill="#000000" font-family="sans-serif" font-size="14" lengthAdjust="spacing" textLength="224.7725" x="1762.8684" y="86.2967">AssignedCollaboratorsResponse</text><line style="stroke:#181818;stroke-width:0.5;" x1="1685.01" x2="2032.9993" y1="97.45" y2="97.45"/><text fill="#000000" font-family="sans-serif" font-size="14" lengthAdjust="spacing" textLength="95.0742" x="1690.01" y="114.4451">+UUID shiftId</text><text fill="#000000" font-family="sans-serif" font-size="14" lengthAdjust="spacing" textLength="337.9893" x="1690.01" y="130.742">+List&lt;ShiftAssignmentResponse&gt; collaborators</text><line style="stroke:#181818;stroke-width:0.5;" x1="1685.01" x2="2032.9993" y1="138.0437" y2="138.0437"/></g><!--class CollaboratorShiftsResponse--><g class="entity" data-qualified-name="scheduling DTOs.CollaboratorShiftsResponse" data-source-line="79" id="ent0014"><rect fill="#F1F1F1" height="96.8906" rx="2.5" ry="2.5" style="stroke:#181818;stroke-width:0.5;" width="225.5254" x="1423.24" y="57.3"/><ellipse cx="1438.24" cy="73.3" fill="#ADD1B2" rx="11" ry="11" style="stroke:#181818;stroke-width:1;"/><path d="M1441.2088,78.9406 Q1440.6306,79.2375 1439.99,79.3781 Q1439.3494,79.5344 1438.6463,79.5344 Q1436.1463,79.5344 1434.8181,77.8937 Q1433.5056,76.2375 1433.5056,73.1125 Q1433.5056,69.9875 1434.8181,68.3312 Q1436.1463,66.675 1438.6463,66.675 Q1439.3494,66.675 1439.99,66.8312 Q1440.6463,66.9875 1441.2088,67.2844 L1441.2088,70.0031 Q1440.5838,69.425 1439.99,69.1594 Q1439.3963,68.8781 1438.7713,68.8781 Q1437.4275,68.8781 1436.74,69.9562 Q1436.0525,71.0187 1436.0525,73.1125 Q1436.0525,75.2062 1436.74,76.2844 Q1437.4275,77.3469 1438.7713,77.3469 Q1439.3963,77.3469 1439.99,77.0812 Q1440.5838,76.8 1441.2088,76.2219 L1441.2088,78.9406 Z " fill="#000000"/><text fill="#000000" font-family="sans-serif" font-size="14" lengthAdjust="spacing" textLength="193.5254" x="1452.24" y="78.1467">CollaboratorShiftsResponse</text><line style="stroke:#181818;stroke-width:0.5;" x1="1424.24" x2="1647.7654" y1="89.3" y2="89.3"/><text fill="#000000" font-family="sans-serif" font-size="14" lengthAdjust="spacing" textLength="148.8184" x="1429.24" y="106.2951">+UUID collaboratorId</text><text fill="#000000" font-family="sans-serif" font-size="14" lengthAdjust="spacing" textLength="183.4834" x="1429.24" y="122.592">+String collaboratorName</text><text fill="#000000" font-family="sans-serif" font-size="14" lengthAdjust="spacing" textLength="201.8174" x="1429.24" y="138.8889">+List&lt;ShiftResponse&gt; shifts</text><line style="stroke:#181818;stroke-width:0.5;" x1="1424.24" x2="1647.7654" y1="146.1906" y2="146.1906"/></g><!--class RequestShiftSwapRequest--><g class="entity" data-qualified-name="scheduling DTOs.RequestShiftSwapRequest" data-source-line="85" id="ent0015"><rect fill="#F1F1F1" height="96.8906" rx="2.5" ry="2.5" style="stroke:#181818;stroke-width:0.5;" width="216.8643" x="670.57" y="295.68"/><ellipse cx="685.57" cy="311.68" fill="#ADD1B2" rx="11" ry="11" style="stroke:#181818;stroke-width:1;"/><path d="M688.5388,317.3206 Q687.9606,317.6175 687.32,317.7581 Q686.6794,317.9144 685.9763,317.9144 Q683.4763,317.9144 682.1481,316.2737 Q680.8356,314.6175 680.8356,311.4925 Q680.8356,308.3675 682.1481,306.7112 Q683.4763,305.055 685.9763,305.055 Q686.6794,305.055 687.32,305.2112 Q687.9763,305.3675 688.5388,305.6644 L688.5388,308.3831 Q687.9138,307.805 687.32,307.5394 Q686.7263,307.2581 686.1013,307.2581 Q684.7575,307.2581 684.07,308.3362 Q683.3825,309.3987 683.3825,311.4925 Q683.3825,313.5862 684.07,314.6644 Q684.7575,315.7269 686.1013,315.7269 Q686.7263,315.7269 687.32,315.4612 Q687.9138,315.18 688.5388,314.6019 L688.5388,317.3206 Z " fill="#000000"/><text fill="#000000" font-family="sans-serif" font-size="14" lengthAdjust="spacing" textLength="184.8643" x="699.57" y="316.5267">RequestShiftSwapRequest</text><line style="stroke:#181818;stroke-width:0.5;" x1="671.57" x2="886.4343" y1="327.68" y2="327.68"/><text fill="#000000" font-family="sans-serif" font-size="14" lengthAdjust="spacing" textLength="143.4658" x="676.57" y="344.6751">+UUID sourceShiftId</text><text fill="#000000" font-family="sans-serif" font-size="14" lengthAdjust="spacing" textLength="139.4805" x="676.57" y="360.972">+UUID targetShiftId</text><text fill="#000000" font-family="sans-serif" font-size="14" lengthAdjust="spacing" textLength="193.71" x="676.57" y="377.2689">+UUID targetCollaboratorId</text><line style="stroke:#181818;stroke-width:0.5;" x1="671.57" x2="886.4343" y1="384.5706" y2="384.5706"/></g><!--class AcceptShiftSwapRequest--><g class="entity" data-qualified-name="scheduling DTOs.AcceptShiftSwapRequest" data-source-line="91" id="ent0016"><rect fill="#F1F1F1" height="64.2969" rx="2.5" ry="2.5" style="stroke:#181818;stroke-width:0.5;" width="207.3281" x="922.34" y="311.97"/><ellipse cx="937.34" cy="327.97" fill="#ADD1B2" rx="11" ry="11" style="stroke:#181818;stroke-width:1;"/><path d="M940.3088,333.6106 Q939.7306,333.9075 939.09,334.0481 Q938.4494,334.2044 937.7463,334.2044 Q935.2463,334.2044 933.9181,332.5637 Q932.6056,330.9075 932.6056,327.7825 Q932.6056,324.6575 933.9181,323.0012 Q935.2463,321.345 937.7463,321.345 Q938.4494,321.345 939.09,321.5012 Q939.7463,321.6575 940.3088,321.9544 L940.3088,324.6731 Q939.6838,324.095 939.09,323.8294 Q938.4963,323.5481 937.8713,323.5481 Q936.5275,323.5481 935.84,324.6262 Q935.1525,325.6887 935.1525,327.7825 Q935.1525,329.8762 935.84,330.9544 Q936.5275,332.0169 937.8713,332.0169 Q938.4963,332.0169 939.09,331.7512 Q939.6838,331.47 940.3088,330.8919 L940.3088,333.6106 Z " fill="#000000"/><text fill="#000000" font-family="sans-serif" font-size="14" lengthAdjust="spacing" textLength="175.3281" x="951.34" y="332.8167">AcceptShiftSwapRequest</text><line style="stroke:#181818;stroke-width:0.5;" x1="923.34" x2="1128.6681" y1="343.97" y2="343.97"/><text fill="#000000" font-family="sans-serif" font-size="14" lengthAdjust="spacing" textLength="158.3066" x="928.34" y="360.9651">+UUID swapRequestId</text><line style="stroke:#181818;stroke-width:0.5;" x1="923.34" x2="1128.6681" y1="368.2669" y2="368.2669"/></g><!--class RejectShiftSwapRequest--><g class="entity" data-qualified-name="scheduling DTOs.RejectShiftSwapRequest" data-source-line="95" id="ent0017"><rect fill="#F1F1F1" height="64.2969" rx="2.5" ry="2.5" style="stroke:#181818;stroke-width:0.5;" width="203.3975" x="71.3" y="517.75"/><ellipse cx="86.3" cy="533.75" fill="#ADD1B2" rx="11" ry="11" style="stroke:#181818;stroke-width:1;"/><path d="M89.2688,539.3906 Q88.6906,539.6875 88.05,539.8281 Q87.4094,539.9844 86.7063,539.9844 Q84.2063,539.9844 82.8781,538.3438 Q81.5656,536.6875 81.5656,533.5625 Q81.5656,530.4375 82.8781,528.7813 Q84.2063,527.125 86.7063,527.125 Q87.4094,527.125 88.05,527.2813 Q88.7063,527.4375 89.2688,527.7344 L89.2688,530.4531 Q88.6438,529.875 88.05,529.6094 Q87.4563,529.3281 86.8313,529.3281 Q85.4875,529.3281 84.8,530.4063 Q84.1125,531.4688 84.1125,533.5625 Q84.1125,535.6563 84.8,536.7344 Q85.4875,537.7969 86.8313,537.7969 Q87.4563,537.7969 88.05,537.5313 Q88.6438,537.25 89.2688,536.6719 L89.2688,539.3906 Z " fill="#000000"/><text fill="#000000" font-family="sans-serif" font-size="14" lengthAdjust="spacing" textLength="171.3975" x="100.3" y="538.5967">RejectShiftSwapRequest</text><line style="stroke:#181818;stroke-width:0.5;" x1="72.3" x2="273.6975" y1="549.75" y2="549.75"/><text fill="#000000" font-family="sans-serif" font-size="14" lengthAdjust="spacing" textLength="158.3066" x="77.3" y="566.7451">+UUID swapRequestId</text><line style="stroke:#181818;stroke-width:0.5;" x1="72.3" x2="273.6975" y1="574.0469" y2="574.0469"/></g><!--class CancelShiftSwapRequest--><g class="entity" data-qualified-name="scheduling DTOs.CancelShiftSwapRequest" data-source-line="99" id="ent0018"><rect fill="#F1F1F1" height="64.2969" rx="2.5" ry="2.5" style="stroke:#181818;stroke-width:0.5;" width="206.7949" x="309.6" y="517.75"/><ellipse cx="324.6" cy="533.75" fill="#ADD1B2" rx="11" ry="11" style="stroke:#181818;stroke-width:1;"/><path d="M327.5688,539.3906 Q326.9906,539.6875 326.35,539.8281 Q325.7094,539.9844 325.0063,539.9844 Q322.5063,539.9844 321.1781,538.3438 Q319.8656,536.6875 319.8656,533.5625 Q319.8656,530.4375 321.1781,528.7813 Q322.5063,527.125 325.0063,527.125 Q325.7094,527.125 326.35,527.2813 Q327.0063,527.4375 327.5688,527.7344 L327.5688,530.4531 Q326.9438,529.875 326.35,529.6094 Q325.7563,529.3281 325.1313,529.3281 Q323.7875,529.3281 323.1,530.4063 Q322.4125,531.4688 322.4125,533.5625 Q322.4125,535.6563 323.1,536.7344 Q323.7875,537.7969 325.1313,537.7969 Q325.7563,537.7969 326.35,537.5313 Q326.9438,537.25 327.5688,536.6719 L327.5688,539.3906 Z " fill="#000000"/><text fill="#000000" font-family="sans-serif" font-size="14" lengthAdjust="spacing" textLength="174.7949" x="338.6" y="538.5967">CancelShiftSwapRequest</text><line style="stroke:#181818;stroke-width:0.5;" x1="310.6" x2="515.3949" y1="549.75" y2="549.75"/><text fill="#000000" font-family="sans-serif" font-size="14" lengthAdjust="spacing" textLength="158.3066" x="315.6" y="566.7451">+UUID swapRequestId</text><line style="stroke:#181818;stroke-width:0.5;" x1="310.6" x2="515.3949" y1="574.0469" y2="574.0469"/></g><!--class ApproveShiftSwapRequest--><g class="entity" data-qualified-name="scheduling DTOs.ApproveShiftSwapRequest" data-source-line="103" id="ent0019"><rect fill="#F1F1F1" height="64.2969" rx="2.5" ry="2.5" style="stroke:#181818;stroke-width:0.5;" width="217.9375" x="551.03" y="517.75"/><ellipse cx="566.03" cy="533.75" fill="#ADD1B2" rx="11" ry="11" style="stroke:#181818;stroke-width:1;"/><path d="M568.9988,539.3906 Q568.4206,539.6875 567.78,539.8281 Q567.1394,539.9844 566.4363,539.9844 Q563.9363,539.9844 562.6081,538.3438 Q561.2956,536.6875 561.2956,533.5625 Q561.2956,530.4375 562.6081,528.7813 Q563.9363,527.125 566.4363,527.125 Q567.1394,527.125 567.78,527.2813 Q568.4363,527.4375 568.9988,527.7344 L568.9988,530.4531 Q568.3738,529.875 567.78,529.6094 Q567.1863,529.3281 566.5613,529.3281 Q565.2175,529.3281 564.53,530.4063 Q563.8425,531.4688 563.8425,533.5625 Q563.8425,535.6563 564.53,536.7344 Q565.2175,537.7969 566.5613,537.7969 Q567.1863,537.7969 567.78,537.5313 Q568.3738,537.25 568.9988,536.6719 L568.9988,539.3906 Z " fill="#000000"/><text fill="#000000" font-family="sans-serif" font-size="14" lengthAdjust="spacing" textLength="185.9375" x="580.03" y="538.5967">ApproveShiftSwapRequest</text><line style="stroke:#181818;stroke-width:0.5;" x1="552.03" x2="767.9675" y1="549.75" y2="549.75"/><text fill="#000000" font-family="sans-serif" font-size="14" lengthAdjust="spacing" textLength="158.3066" x="557.03" y="566.7451">+UUID swapRequestId</text><line style="stroke:#181818;stroke-width:0.5;" x1="552.03" x2="767.9675" y1="574.0469" y2="574.0469"/></g><!--class ShiftSwapRequestResponse--><g class="entity" data-qualified-name="scheduling DTOs.ShiftSwapRequestResponse" data-source-line="107" id="ent0020"><rect fill="#F1F1F1" height="227.2656" rx="2.5" ry="2.5" style="stroke:#181818;stroke-width:0.5;" width="240.375" x="2114.81" y="230.49"/><ellipse cx="2135.7233" cy="246.49" fill="#ADD1B2" rx="11" ry="11" style="stroke:#181818;stroke-width:1;"/><path d="M2138.692,252.1306 Q2138.1139,252.4275 2137.4733,252.5681 Q2136.8327,252.7244 2136.1295,252.7244 Q2133.6295,252.7244 2132.3014,251.0837 Q2130.9889,249.4275 2130.9889,246.3025 Q2130.9889,243.1775 2132.3014,241.5212 Q2133.6295,239.865 2136.1295,239.865 Q2136.8327,239.865 2137.4733,240.0212 Q2138.1295,240.1775 2138.692,240.4744 L2138.692,243.1931 Q2138.067,242.615 2137.4733,242.3494 Q2136.8795,242.0681 2136.2545,242.0681 Q2134.9108,242.0681 2134.2233,243.1462 Q2133.5358,244.2087 2133.5358,246.3025 Q2133.5358,248.3962 2134.2233,249.4744 Q2134.9108,250.5369 2136.2545,250.5369 Q2136.8795,250.5369 2137.4733,250.2712 Q2138.067,249.99 2138.692,249.4119 L2138.692,252.1306 Z " fill="#000000"/><text fill="#000000" font-family="sans-serif" font-size="14" lengthAdjust="spacing" textLength="195.2344" x="2151.0373" y="251.3367">ShiftSwapRequestResponse</text><line style="stroke:#181818;stroke-width:0.5;" x1="2115.81" x2="2354.185" y1="262.49" y2="262.49"/><text fill="#000000" font-family="sans-serif" font-size="14" lengthAdjust="spacing" textLength="64.3604" x="2120.81" y="279.4851">+UUID id</text><text fill="#000000" font-family="sans-serif" font-size="14" lengthAdjust="spacing" textLength="132.4941" x="2120.81" y="295.782">+UUID requesterId</text><text fill="#000000" font-family="sans-serif" font-size="14" lengthAdjust="spacing" textLength="167.1592" x="2120.81" y="312.0789">+String requesterName</text><text fill="#000000" font-family="sans-serif" font-size="14" lengthAdjust="spacing" textLength="193.71" x="2120.81" y="328.3757">+UUID targetCollaboratorId</text><text fill="#000000" font-family="sans-serif" font-size="14" lengthAdjust="spacing" textLength="228.375" x="2120.81" y="344.6726">+String targetCollaboratorName</text><text fill="#000000" font-family="sans-serif" font-size="14" lengthAdjust="spacing" textLength="143.4658" x="2120.81" y="360.9695">+UUID sourceShiftId</text><text fill="#000000" font-family="sans-serif" font-size="14" lengthAdjust="spacing" textLength="139.4805" x="2120.81" y="377.2664">+UUID targetShiftId</text><text fill="#000000" font-family="sans-serif" font-size="14" lengthAdjust="spacing" textLength="100.9805" x="2120.81" y="393.5632">+String status</text><text fill="#000000" font-family="sans-serif" font-size="14" lengthAdjust="spacing" textLength="153.0361" x="2120.81" y="409.8601">+DateTime createdAt</text><text fill="#000000" font-family="sans-serif" font-size="14" lengthAdjust="spacing" textLength="181.207" x="2120.81" y="426.157">+DateTime? respondedAt</text><text fill="#000000" font-family="sans-serif" font-size="14" lengthAdjust="spacing" textLength="173.291" x="2120.81" y="442.4539">+DateTime? approvedAt</text><line style="stroke:#181818;stroke-width:0.5;" x1="2115.81" x2="2354.185" y1="449.7556" y2="449.7556"/></g><!--class ShiftSwapRequestListResponse--><g class="entity" data-qualified-name="scheduling DTOs.ShiftSwapRequestListResponse" data-source-line="121" id="ent0021"><rect fill="#F1F1F1" height="64.2969" rx="2.5" ry="2.5" style="stroke:#181818;stroke-width:0.5;" width="332.168" x="2068.92" y="73.6"/><ellipse cx="2120.9005" cy="89.6" fill="#ADD1B2" rx="11" ry="11" style="stroke:#181818;stroke-width:1;"/><path d="M2123.8692,95.2406 Q2123.2911,95.5375 2122.6505,95.6781 Q2122.0098,95.8344 2121.3067,95.8344 Q2118.8067,95.8344 2117.4786,94.1937 Q2116.1661,92.5375 2116.1661,89.4125 Q2116.1661,86.2875 2117.4786,84.6312 Q2118.8067,82.975 2121.3067,82.975 Q2122.0098,82.975 2122.6505,83.1312 Q2123.3067,83.2875 2123.8692,83.5844 L2123.8692,86.3031 Q2123.2442,85.725 2122.6505,85.4594 Q2122.0567,85.1781 2121.4317,85.1781 Q2120.088,85.1781 2119.4005,86.2562 Q2118.713,87.3187 2118.713,89.4125 Q2118.713,91.5062 2119.4005,92.5844 Q2120.088,93.6469 2121.4317,93.6469 Q2122.0567,93.6469 2122.6505,93.3812 Q2123.2442,93.1 2123.8692,92.5219 L2123.8692,95.2406 Z " fill="#000000"/><text fill="#000000" font-family="sans-serif" font-size="14" lengthAdjust="spacing" textLength="219.707" x="2141.4005" y="94.4467">ShiftSwapRequestListResponse</text><line style="stroke:#181818;stroke-width:0.5;" x1="2069.92" x2="2400.088" y1="105.6" y2="105.6"/><text fill="#000000" font-family="sans-serif" font-size="14" lengthAdjust="spacing" textLength="320.168" x="2074.92" y="122.5951">+List&lt;ShiftSwapRequestResponse&gt; requests</text><line style="stroke:#181818;stroke-width:0.5;" x1="2069.92" x2="2400.088" y1="129.8969" y2="129.8969"/></g><!--link ShiftListResponse to ShiftResponse--><g class="link" data-entity-1="ent0006" data-entity-2="ent0005" data-link-type="dependency" data-source-line="125" id="lnk22"><path codeLine="125" d="M1065.32,138.38 C1098.92,170.27 1147.7689,216.6386 1192.9189,259.5086" fill="none" id="ShiftListResponse-to-ShiftResponse" style="stroke:#181818;stroke-width:1;"/><polygon fill="#181818" points="1197.27,263.64,1193.4976,254.5422,1193.6441,260.1972,1187.9891,260.3437,1197.27,263.64" style="stroke:#181818;stroke-width:1;"/></g><!--link CalendarResponse to ShiftResponse--><g class="link" data-entity-1="ent0008" data-entity-2="ent0005" data-link-type="dependency" data-source-line="126" id="lnk23"><path codeLine="126" d="M1281,170.71 C1281,194.09 1281,215.09 1281,240.67" fill="none" id="CalendarResponse-to-ShiftResponse" style="stroke:#181818;stroke-width:1;"/><polygon fill="#181818" points="1281,246.67,1285,237.67,1281,241.67,1277,237.67,1281,246.67" style="stroke:#181818;stroke-width:1;"/></g><!--link AssignedCollaboratorsResponse to ShiftAssignmentResponse--><g class="link" data-entity-1="ent0013" data-entity-2="ent0012" data-link-type="dependency" data-source-line="127" id="lnk24"><path codeLine="127" d="M1859,146.31 C1859,177.98 1859,217.44 1859,256.7" fill="none" id="AssignedCollaboratorsResponse-to-ShiftAssignmentResponse" style="stroke:#181818;stroke-width:1;"/><polygon fill="#181818" points="1859,262.7,1863,253.7,1859,257.7,1855,253.7,1859,262.7" style="stroke:#181818;stroke-width:1;"/></g><!--link CollaboratorShiftsResponse to ShiftResponse--><g class="link" data-entity-1="ent0014" data-entity-2="ent0005" data-link-type="dependency" data-source-line="128" id="lnk25"><path codeLine="128" d="M1484.4,154.58 C1450.05,186.42 1408.55,224.8808 1369.05,261.5008" fill="none" id="CollaboratorShiftsResponse-to-ShiftResponse" style="stroke:#181818;stroke-width:1;"/><polygon fill="#181818" points="1364.65,265.58,1373.9695,262.3945,1368.3167,262.1807,1368.5306,256.5279,1364.65,265.58" style="stroke:#181818;stroke-width:1;"/></g><!--link ShiftSwapRequestListResponse to ShiftSwapRequestResponse--><g class="link" data-entity-1="ent0021" data-entity-2="ent0020" data-link-type="dependency" data-source-line="129" id="lnk26"><path codeLine="129" d="M2235,138.13 C2235,161.99 2235,190.38 2235,224.18" fill="none" id="ShiftSwapRequestListResponse-to-ShiftSwapRequestResponse" style="stroke:#181818;stroke-width:1;"/><polygon fill="#181818" points="2235,230.18,2239,221.18,2235,225.18,2231,221.18,2235,230.18" style="stroke:#181818;stroke-width:1;"/></g><?plantuml-src nLNRQkCm47ttLuY-bi9-G4a93eL0QQ59Fa2HfuasjgJLo5lOfV--ifpOaYrV4Whxw3ENCtDcni8J5ufgMX2MKyIbCPhlImDh9iM6_m7o8qaKPITw07A7x0XPcNDn8Alj6zwHlmcfuqYgWHhO7Fc7UOTV9Q1nHaBkTxlrYkmr5UoupZn8IUI6It41LpP-omiWQAWsjf8E32AhmQ-aOTsfx3-mdlbGIO4G4F9ia7rZXRMwrU0hBM2agBFl1MwzPrVR9h6UfiIE7tFJogADlN3iDLTXZq7R2uBL9uO9KfhR4gYU7aPLohcBD-51LGSEY6QDI3vBvKcsAtfS8lA3I6MUqxtKr4YzbOCRw1842yYyG6VmKhz38N-3d_fPo-BRagkSiY3xMboJkzGQX4cx51UxWCzqXDunrTeLDitq-SpehXsuRsh7FlS4FFo9CBiwaFUFewuTChz9ZBOHLDwkLR_vHL1tzvOyaukFarqjojmzFs-5yznyKXNT4bbgLlz_WqdPIpk06SB7rcJ96AW9qXRlx_XFO3T7fsxojqOlbTBsUcyDxyPD7uYk7Q4xzWRll383uhU1VOTEXYl6VTFfQTTp5ZFHMjtua-N9DlvwHVHTNFHgrh__2ZuyBC97tthr7gMOq_W_eude_nagWk7xZr6D2j44H0H8llu1?></g></svg>